<?xml version="1.0" encoding="UTF-8" standalone="no"?>
<svg
   xmlns:dc="http://purl.org/dc/elements/1.1/"
   xmlns:cc="http://creativecommons.org/ns#"
   xmlns:rdf="http://www.w3.org/1999/02/22-rdf-syntax-ns#"
   xmlns:svg="http://www.w3.org/2000/svg"
   xmlns="http://www.w3.org/2000/svg"
   viewBox="0 0 181.84348 175.1664"
   height="175.1664"
   width="181.84348"
   xml:space="preserve"
   id="svg2"
   version="1.1"><metadata
     id="metadata8"><rdf:RDF><cc:Work
         rdf:about=""><dc:format>image/svg+xml</dc:format><dc:type
           rdf:resource="http://purl.org/dc/dcmitype/StillImage" /><dc:title></dc:title></cc:Work></rdf:RDF></metadata><defs
     id="defs6" /><g
     transform="matrix(1.3333333,0,0,-1.3333333,4.9845335e-5,243.64085)"
     id="g10"><path
       d="M 8.6661237,151.87208 C -3.4110845,134.52124 -1.9182539,111.94759 7.3223741,93.509892 7.5284035,93.059616 7.7665008,92.633988 7.9932286,92.19935 8.1226131,91.916569 8.2706553,91.635114 8.42906,91.357634 8.498417,91.205511 8.6071294,91.037751 8.6961508,90.888543 8.8452267,90.586416 9.0025977,90.309996 9.1609759,90.02218 c 0.297118,-0.499039 0.5932024,-1.007355 0.8903201,-1.503214 0.167707,-0.27642 0.327146,-0.5539 0.514517,-0.831379 0.31575,-0.534023 0.682224,-1.062215 1.009369,-1.596238 0.148043,-0.22792 0.286756,-0.450275 0.445161,-0.672895 0.474127,-0.72272 0.950348,-1.434838 1.474194,-2.136886 0,-0.02067 0.01966,-0.04028 0.03933,-0.0485 0.07869,-0.119261 0.167707,-0.232956 0.246393,-0.341616 0.44516,-0.608759 0.89032,-1.203207 1.356179,-1.79103 0.158378,-0.217584 0.335414,-0.434904 0.494852,-0.647187 0.424436,-0.515472 0.840602,-1.028822 1.254702,-1.539258 0.159438,-0.182336 0.316809,-0.375804 0.48555,-0.564235 0.553846,-0.66786 1.13772,-1.330419 1.731956,-1.983703 0,-0.0093 0.01863,-0.02253 0.02899,-0.03816 0.01966,-0.02491 0.03933,-0.04982 0.07869,-0.07447 0.573511,-0.628371 1.157411,-1.245611 1.751647,-1.859406 0.187372,-0.188431 0.374744,-0.371563 0.58284,-0.569271 0.454463,-0.460876 0.909986,-0.925727 1.395509,-1.379183 0.197734,-0.189227 0.394435,-0.371563 0.583874,-0.553634 0.632532,-0.594448 1.26509,-1.188631 1.927649,-1.756842 0.01034,-0.01034 0.0207,-0.01564 0.03,-0.02385 0.108713,-0.09514 0.227761,-0.189492 0.327145,-0.28278 0.58284,-0.498775 1.167774,-0.993839 1.759837,-1.483338 0.238256,-0.198768 0.475187,-0.386139 0.713444,-0.578812 0.494799,-0.391175 0.988538,-0.765918 1.482542,-1.142782 0.257603,-0.192672 0.515471,-0.39144 0.782615,-0.594183 0.534023,-0.399655 1.087922,-0.791095 1.631486,-1.176175 0.197707,-0.143908 0.395415,-0.287815 0.603459,-0.420327 0.04982,-0.04452 0.108659,-0.08481 0.158484,-0.124296 0.543563,-0.355927 1.057974,-0.701783 1.593322,-1.053735 0.235871,-0.152123 0.464852,-0.301331 0.692507,-0.453455 0.830319,-0.530047 1.660638,-1.039423 2.482477,-1.534222 0.237196,-0.124296 0.474127,-0.257868 0.702047,-0.39038 0.612735,-0.356192 1.236866,-0.708143 1.869477,-1.044458 0.345856,-0.192672 0.692507,-0.361492 1.047639,-0.538528 0.426688,-0.232691 0.871663,-0.469887 1.327238,-0.702843 0.10866,-0.04346 0.21732,-0.08375 0.315909,-0.138607 0.187371,-0.08401 0.365202,-0.178096 0.543298,-0.266084 0.693832,-0.341616 1.404891,-0.663619 2.137946,-0.989864 0.137547,-0.0652 0.285696,-0.122971 0.434639,-0.198767 0.819983,-0.354867 1.642087,-0.696483 2.482742,-1.027762 0.198767,-0.07474 0.395415,-0.163785 0.603459,-0.231896 0.761943,-0.298152 1.552773,-0.589148 2.334328,-0.870868 0.09938,-0.04028 0.187637,-0.07023 0.287021,-0.103359 0.870602,-0.298152 1.730869,-0.578812 2.611808,-0.852051 0.206983,-0.0591 0.415027,-0.132512 0.632611,-0.187372 0.900551,-0.272179 1.770094,-0.589147 2.690521,-0.761943 C 116.12283,42.31792 133.08753,88.054114 133.08753,88.054114 118.83429,69.502457 93.539901,64.60058 69.582291,70.051056 c -0.891274,0.201948 -1.771418,0.484464 -2.670908,0.751608 -0.209104,0.06016 -0.4463,0.128536 -0.654344,0.203008 -0.869542,0.261843 -1.729809,0.544623 -2.570464,0.831379 -0.119261,0.03922 -0.247532,0.08269 -0.366528,0.133572 -0.760883,0.260783 -1.51249,0.548599 -2.265157,0.83933 -0.208044,0.08905 -0.425363,0.164845 -0.633672,0.243292 -0.831114,0.326244 -1.651097,0.677135 -2.452529,1.029086 -0.177831,0.06334 -0.327039,0.138873 -0.495859,0.207249 -0.700723,0.321739 -1.373618,0.637647 -2.056849,0.964686 -0.207248,0.08799 -0.39568,0.188432 -0.603724,0.292056 -0.534023,0.252568 -1.06725,0.534023 -1.591202,0.810443 -0.366263,0.188431 -0.723515,0.361492 -1.069371,0.553899 -0.642947,0.345856 -1.285629,0.712384 -1.928577,1.068311 -0.198768,0.134632 -0.416087,0.248592 -0.644007,0.370768 -0.830319,0.494799 -1.67177,1.004174 -2.491753,1.528921 -0.237196,0.149209 -0.455576,0.297092 -0.672895,0.45054 -0.603724,0.379779 -1.197907,0.781555 -1.780694,1.176971 -0.188432,0.133571 -0.375804,0.272179 -0.573511,0.409991 -0.564236,0.396476 -1.118135,0.796131 -1.68131,1.207978 -0.237992,0.187372 -0.485524,0.375009 -0.742332,0.56238 -0.505135,0.391175 -1.00921,0.776255 -1.513285,1.183066 -0.218644,0.182336 -0.444179,0.361492 -0.663619,0.538528 -0.652223,0.523687 -1.265223,1.049759 -1.889354,1.593057 -0.0591,0.0644 -0.147088,0.119261 -0.217584,0.173061 -0.662559,0.593123 -1.325119,1.200822 -1.978137,1.805341 -0.197973,0.187372 -0.364407,0.361227 -0.563175,0.539323 -0.474128,0.464852 -0.949315,0.919367 -1.414167,1.390314 -0.197707,0.196913 -0.376863,0.380044 -0.564235,0.567416 -0.594183,0.599484 -1.178295,1.217519 -1.750746,1.85013 -0.02995,0.02571 -0.0599,0.0538 -0.09011,0.08878 -0.602399,0.662559 -1.186246,1.335719 -1.769033,2.018951 -0.159545,0.182071 -0.307693,0.369443 -0.464852,0.548599 -0.426688,0.523951 -0.852051,1.052939 -1.286955,1.577685 -0.137547,0.203009 -0.297091,0.395416 -0.45531,0.593123 -0.504341,0.649308 -0.988804,1.296231 -1.473294,1.964092 -13.295707,18.13743 -18.093033,43.16759 -7.457925,63.70904"
       style="fill:#88d6f6;fill-opacity:1;fill-rule:nonzero;stroke:none;stroke-width:0.26502368"
       id="path48" /><path
       d="m 46.157644,166.49794 c -8.755057,-12.56265 -8.269533,-29.3845 -1.45445,-42.67809 1.127411,-2.22567 2.413041,-4.38826 3.857155,-6.4414 1.306566,-1.87875 2.75068,-4.10468 4.501427,-5.61293 0.612734,-0.69277 1.275294,-1.36567 1.958525,-2.04254 0.16882,-0.16776 0.33764,-0.33234 0.514676,-0.50938 0.653283,-0.62731 1.315842,-1.2464 1.998013,-1.84907 0.02067,-0.0257 0.0591,-0.0506 0.07977,-0.0755 0.0093,-0.005 0.01961,-0.0146 0.01961,-0.0146 0.760883,-0.6729 1.533162,-1.31055 2.334593,-1.93362 0.187372,-0.13357 0.355927,-0.28278 0.543299,-0.41635 0.792156,-0.61803 1.603658,-1.2101 2.423641,-1.79394 0.02995,-0.0103 0.04956,-0.0302 0.09011,-0.0456 0.355131,-0.25681 0.730935,-0.4948 1.117074,-0.74127 0.167495,-0.10866 0.345591,-0.2372 0.514411,-0.34161 0.602399,-0.39144 1.196847,-0.75585 1.809582,-1.11814 0.09011,-0.0445 0.178096,-0.093 0.267144,-0.13755 0.514411,-0.31166 1.057974,-0.61803 1.603658,-0.895512 0.187372,-0.11396 0.374743,-0.203008 0.563175,-0.306632 0.375804,-0.187372 0.751607,-0.38614 1.117075,-0.578547 0.04956,-0.02597 0.120056,-0.0538 0.178891,-0.07977 0.771219,-0.380839 1.553039,-0.731996 2.324258,-1.083947 0.187371,-0.07341 0.346651,-0.137547 0.523686,-0.212284 0.634732,-0.271119 1.276619,-0.539323 1.910026,-0.781555 0.28596,-0.09408 0.553899,-0.205923 0.821043,-0.301067 0.582787,-0.207248 1.17697,-0.409991 1.761083,-0.602664 0.285695,-0.09514 0.543298,-0.173855 0.801166,-0.257868 0.830319,-0.262903 1.672034,-0.599218 2.551913,-0.73597 45.068602,-7.474463 55.494372,27.242576 55.494372,27.242576 -9.38741,-13.52336 -27.56034,-19.96264 -46.947359,-14.92825 -0.870602,0.22262 -1.720533,0.47094 -2.552973,0.74233 -0.267144,0.0684 -0.503015,0.15318 -0.760883,0.24223 -0.603458,0.19241 -1.208243,0.39647 -1.79103,0.61273 -0.267143,0.0983 -0.543563,0.19877 -0.810442,0.3024 -0.642947,0.2515 -1.285895,0.49904 -1.910026,0.77652 -0.187371,0.0745 -0.365467,0.13754 -0.513615,0.21731 -0.801167,0.34692 -1.593323,0.71848 -2.364542,1.08793 -0.395415,0.20301 -0.781554,0.40071 -1.17697,0.6077 -0.237196,0.11926 -0.464851,0.23295 -0.672895,0.34161 -0.525012,0.27245 -1.009475,0.5592 -1.504274,0.85099 -0.116876,0.0644 -0.237196,0.1243 -0.356192,0.19374 -0.602399,0.36546 -1.226795,0.73093 -1.799246,1.11283 -0.198767,0.1129 -0.366527,0.24223 -0.553899,0.36017 -0.396476,0.25177 -0.781555,0.50434 -1.188366,0.77652 -0.819984,0.56953 -1.62115,1.17193 -2.422582,1.77645 -0.188431,0.15212 -0.366262,0.291 -0.544358,0.43994 -8.50779,6.69715 -15.233826,15.8561 -18.418085,26.22807 -3.363681,10.77294 -2.622409,22.86571 3.174983,32.67344"
       style="fill:#88d6f6;fill-opacity:1;fill-rule:nonzero;stroke:none;stroke-width:0.26502368"
       id="path50" /><path
       d="m 77.673729,177.42301 c -5.163721,-7.57597 -5.658785,-16.98961 -2.098458,-25.34819 3.779768,-8.88333 11.504678,-15.85159 20.507267,-19.14981 0.365468,-0.14391 0.731995,-0.26317 1.107799,-0.39144 0.168555,-0.0488 0.325979,-0.10363 0.505135,-0.15743 0.523687,-0.16352 1.047639,-0.36122 1.591202,-0.46591 24.897646,-4.80753 31.645416,12.77626 33.454996,15.36316 -5.9246,-8.51786 -15.86617,-10.5596 -28.06335,-7.5977 -0.95992,0.23296 -2.00862,0.57881 -2.93806,0.91513 -1.18651,0.42032 -2.363478,0.91009 -3.51156,1.44941 -2.146162,1.0426 -4.223948,2.29935 -6.143249,3.7538 -10.92083,8.27881 -17.68609,24.07157 -10.564638,36.93661"
       style="fill:#88d6f6;fill-opacity:1;fill-rule:nonzero;stroke:none;stroke-width:0.26502368"
       id="path52" /></g></svg>