<?xml version="1.0" encoding="UTF-8" standalone="no"?>
<svg
   xmlns:dc="http://purl.org/dc/elements/1.1/"
   xmlns:cc="http://creativecommons.org/ns#"
   xmlns:rdf="http://www.w3.org/1999/02/22-rdf-syntax-ns#"
   xmlns:svg="http://www.w3.org/2000/svg"
   xmlns="http://www.w3.org/2000/svg"
   viewBox="0 0 983.61774 250"
   height="250"
   width="983.61774"
   xml:space="preserve"
   id="svg2"
   version="1.1"><metadata
     id="metadata8"><rdf:RDF><cc:Work
         rdf:about=""><dc:format>image/svg+xml</dc:format><dc:type
           rdf:resource="http://purl.org/dc/dcmitype/StillImage" /><dc:title></dc:title></cc:Work></rdf:RDF></metadata><defs
     id="defs6" /><g
     transform="matrix(1.3333333,0,0,-1.3333333,4.9824114e-5,250)"
     id="g10"><g
       transform="matrix(0.26502367,0,0,0.26502367,6.1666185e-5,0)"
       id="g12"><path
         id="path14"
         style="fill:#ffffff;fill-opacity:1;fill-rule:nonzero;stroke:none"
         d="m 1072.12,77.6367 c -0.21,-6.1172 -0.63,-12.4258 -1.43,-19.125 l 24.9,45.1363 -2.74,14.719 25,3.824 9.09,-62.5347 11.5,39.207 c 0.91,3.8277 1.38,6.6877 1.49,9.5587 0.09,2.871 -0.18,5.93 -1.18,10.137 l 26.18,4.972 c 0.95,-5.351 1.56,-9.945 1.4,-14.722 -0.23,-6.313 -1.81,-13.1957 -6.19,-23.5199 l -21.08,-56.6094 h -31.17 l -6.56,42.2617 -24.41,-42.2617 h -30.22 c 1.19,39.3945 -0.24,64.0625 -2.97,89.8793 l 25.95,4.015 c 1.98,-14.344 3.01,-28.6834 2.44,-44.9373" /><path
         id="path16"
         style="fill:#ffffff;fill-opacity:1;fill-rule:nonzero;stroke:none"
         d="m 1234.43,99.2422 c -12.08,-6.5 -16.56,-8.9883 -27.5,-15.6797 l -11.67,-54.8828 h -26.95 l 19.03,90.8363 23.85,4.015 -1.02,-12.617 c 9.18,5.352 16.58,9.18 24.73,12.617 l -0.47,-24.2888" /><path
         id="path18"
         style="fill:#ffffff;fill-opacity:1;fill-rule:nonzero;stroke:none"
         d="m 1259.14,160.824 27.86,3.821 -6.17,-28.684 -27.67,-3.828 z m -8.71,-41.117 27.87,3.824 -20.14,-94.8513 h -26.95 l 19.22,91.0273" /><path
         id="path20"
         style="fill:#ffffff;fill-opacity:1;fill-rule:nonzero;stroke:none"
         d="m 1327.94,100.199 -9.84,-46.4646 c -0.22,-0.9571 -0.45,-1.9141 -0.47,-2.4883 -0.04,-1.3398 0.7,-1.9141 2.62,-1.9141 4.59,0 9.8,1.9141 14.66,3.8282 l 4.69,-18.7422 c -7.79,-4.2032 -19,-7.6524 -29.9,-7.6524 -13.57,0 -20.61,6.5039 -20.22,17.5938 0.04,1.3437 0.29,2.6797 0.52,4.0195 l 10.99,51.8201 h -13.76 l 4.57,21.606 h 13.77 l 4.6,22.379 27.85,3.824 -5.5,-26.203 h 22.18 l -6.11,-21.606 h -20.65" /><path
         id="path22"
         style="fill:#ffffff;fill-opacity:1;fill-rule:nonzero;stroke:none"
         d="m 1409.11,97.5234 c 0.11,3.2536 -2.68,5.3596 -7.65,5.3596 -9.76,0 -12.82,-5.5471 -14.42,-13.1994 l -1.37,-6.5039 c 4.63,1.1523 6.74,1.5312 12.34,3.2539 7.35,2.1055 10.9,5.543 11.1,11.0898 z m -49.07,-8.9843 c 4.56,21.4179 14.61,35.1799 44.06,35.1799 17.58,0 30.7,-7.645 30.15,-23.328 -0.63,-18.1683 -10.29,-26.5824 -33.47,-33.4613 -11.41,-3.4453 -11.6,-3.4453 -19.7,-5.5469 l -1.38,-6.5 c -0.69,-3.4492 -0.42,-6.5039 4.55,-6.5039 9.76,0 24.08,4.7813 36.89,10.3203 l 4.49,-19.1133 c -11.53,-7.0781 -29.51,-12.8203 -45.95,-12.8203 -19.31,0 -27.24,8.4141 -26.69,24.2891 0.12,3.4414 0.65,7.2656 1.55,11.2851 l 5.5,26.1993" /><path
         id="path24"
         style="fill:#ffffff;fill-opacity:1;fill-rule:nonzero;stroke:none"
         d="m 1503.81,159.867 27.86,3.821 -28.42,-135.0083 h -26.96 l 27.52,131.1873" /><path
         id="path26"
         style="fill:#ffffff;fill-opacity:1;fill-rule:nonzero;stroke:none"
         d="m 1584.22,97.5234 c 0.12,3.2536 -2.67,5.3596 -7.64,5.3596 -9.76,0 -12.83,-5.5471 -14.43,-13.1994 l -1.36,-6.5039 c 4.63,1.1523 6.73,1.5312 12.34,3.2539 7.34,2.1055 10.9,5.543 11.09,11.0898 z m -49.06,-8.9843 c 4.56,21.4179 14.61,35.1799 44.05,35.1799 17.59,0 30.71,-7.645 30.16,-23.328 -0.63,-18.1683 -10.29,-26.5824 -33.48,-33.4613 -11.4,-3.4453 -11.59,-3.4453 -19.69,-5.5469 l -1.38,-6.5 c -0.69,-3.4492 -0.42,-6.5039 4.55,-6.5039 9.76,0 24.07,4.7813 36.88,10.3203 l 4.5,-19.1133 c -11.54,-7.0781 -29.51,-12.8203 -45.95,-12.8203 -19.32,0 -27.25,8.4141 -26.69,24.2891 0.12,3.4414 0.64,7.2656 1.54,11.2851 l 5.51,26.1993" /><path
         id="path28"
         style="fill:#ffffff;fill-opacity:1;fill-rule:nonzero;stroke:none"
         d="m 1611.6,32.8906 5.86,19.8867 c 6.98,-2.4882 14.93,-4.7812 25.06,-4.7812 8.99,0 9.65,2.6758 10.57,7.0781 0.91,4.2031 -1.69,6.4961 -12.01,12.043 -19.13,10.3281 -19.66,17.2148 -16.68,31.168 4.33,20.0818 10.45,25.4338 36.26,25.4338 8.79,0 20,-1.914 27.57,-4.395 l -5.12,-20.2732 c -6.82,1.9142 -16.88,3.4452 -23.39,3.4452 -8.03,0 -9.22,-0.957 -10.35,-5.9257 -0.91,-4.4023 0.01,-5.3594 8.83,-10.1367 21.01,-11.4766 24.13,-15.4922 20.94,-30.2148 -4.56,-21.0391 -10.97,-29.4532 -38.89,-29.4532 -8.6,0 -20.56,2.4922 -28.65,6.125" /><path
         id="path30"
         style="fill:#ffffff;fill-opacity:1;fill-rule:nonzero;stroke:none"
         d="m 1688.84,32.8906 5.86,19.8867 c 6.98,-2.4882 14.93,-4.7812 25.07,-4.7812 8.98,0 9.65,2.6758 10.57,7.0781 0.91,4.2031 -1.69,6.4961 -12.01,12.043 -19.14,10.3281 -19.66,17.2148 -16.68,31.168 4.32,20.0818 10.44,25.4338 36.26,25.4338 8.78,0 20,-1.914 27.56,-4.395 l -5.11,-20.2732 c -6.82,1.9142 -16.89,3.4452 -23.39,3.4452 -8.03,0 -9.22,-0.957 -10.35,-5.9257 -0.91,-4.4023 0.01,-5.3594 8.82,-10.1367 21.02,-11.4766 24.14,-15.4922 20.94,-30.2148 -4.56,-21.0391 -10.96,-29.4532 -38.88,-29.4532 -8.61,0 -20.56,2.4922 -28.66,6.125" /><path
         id="path32"
         style="fill:#ffffff;fill-opacity:1;fill-rule:nonzero;stroke:none"
         d="m 1762.71,7.83984 15.46,20.83986 h -10.14 l 6.65,31.7461 h 26.96 L 1794.34,26.3867 1772.18,0 l -9.47,7.83984" /><path
         id="path34"
         style="fill:#ffffff;fill-opacity:1;fill-rule:nonzero;stroke:none"
         d="m 1885.44,56.6016 c -1.13,-4.9766 0.13,-7.2696 4.91,-7.2696 9.56,0 16.61,4.9727 21.93,9.5625 l 8.71,41.4965 c -3.04,0.574 -6.66,0.765 -10.48,0.765 -13.96,0 -17.09,-7.4568 -19.12,-16.4451 z m 24.64,-27.9219 -0.49,8.0351 c -6.88,-5.5468 -16.59,-9.9492 -29.98,-9.9492 -20.26,0 -24.8,12.2422 -20.44,33.086 l 5.27,25.0507 c 4.6,22.1837 10.92,38.8167 50.11,38.8167 2.87,0 8.78,-0.379 11.25,-0.957 l 7.79,37.105 27.66,3.821 -28.41,-135.0083 h -22.76" /><path
         id="path36"
         style="fill:#ffffff;fill-opacity:1;fill-rule:nonzero;stroke:none"
         d="m 2021.21,90.6406 c 0.24,6.8828 -3.83,10.5154 -12.63,10.5154 -10.14,0 -16.25,-5.1599 -18.09,-14.3396 l -4.82,-23.1406 c -0.25,-1.336 -0.48,-2.6758 -0.52,-3.8242 -0.23,-6.6914 3.84,-10.5196 12.64,-10.5196 10.32,0 16.23,5.1641 18.08,14.3438 l 4.83,23.1406 c 0.23,1.3359 0.47,2.6758 0.51,3.8242 z m -63.29,-32.7031 c 0.08,2.1055 0.36,4.4023 0.82,6.5039 l 4.58,21.6094 c 5.02,23.9062 17.18,37.6682 49.68,37.6682 25.05,0 35.82,-14.34 35.25,-30.9768 -0.08,-2.1016 -0.35,-4.3984 -0.81,-6.6914 l -4.57,-21.6094 c -4.81,-22.375 -16.05,-37.6758 -49.89,-37.6758 -23.71,0 -35.64,14.1563 -35.06,31.1719" /><path
         id="path38"
         style="fill:#ffffff;fill-opacity:1;fill-rule:nonzero;stroke:none"
         d="m 2212.83,91.9766 c 0.23,1.1484 0.46,2.1054 0.48,2.8711 0.06,1.914 -0.86,2.6757 -3.54,2.6757 -4.97,0 -16.81,-4.9687 -24.59,-8.9843 l -12.61,-59.8594 h -26.76 l 13.3,63.2969 c 0.22,1.1484 0.46,2.1054 0.47,2.8711 0.07,1.914 -0.85,2.6757 -3.53,2.6757 -4.97,0 -17,-4.9687 -24.4,-8.7929 l -12.61,-60.0508 h -26.96 l 19.05,90.8363 23.84,4.015 -0.55,-10.324 c 14.77,6.887 26.37,10.512 37.08,10.512 9.17,0 13.81,-4.012 15.67,-10.899 14.44,8.231 27.35,10.899 38.05,10.899 12.43,0 16.77,-7.074 16.36,-18.922 -0.12,-3.258 -0.44,-6.8907 -1.33,-10.715 l -13.76,-65.4023 h -26.96 l 13.3,63.2969" /><path
         id="path40"
         style="fill:#ffffff;fill-opacity:1;fill-rule:nonzero;stroke:none"
         d="m 2313.9,90.6406 c 0.25,6.8828 -3.83,10.5154 -12.63,10.5154 -10.13,0 -16.25,-5.1599 -18.08,-14.3396 l -4.83,-23.1406 c -0.24,-1.336 -0.47,-2.6758 -0.51,-3.8242 -0.24,-6.6914 3.83,-10.5196 12.63,-10.5196 10.33,0 16.23,5.1641 18.09,14.3438 l 4.82,23.1406 c 0.24,1.3359 0.47,2.6758 0.51,3.8242 z m -63.28,-32.7031 c 0.08,2.1055 0.35,4.4023 0.81,6.5039 l 4.58,21.6094 c 5.03,23.9062 17.19,37.6682 49.69,37.6682 25.05,0 35.82,-14.34 35.24,-30.9768 -0.08,-2.1016 -0.35,-4.3984 -0.81,-6.6914 l -4.57,-21.6094 c -4.8,-22.375 -16.04,-37.6758 -49.88,-37.6758 -23.71,0 -35.65,14.1563 -35.06,31.1719" /><path
         id="path42"
         style="fill:#ffffff;fill-opacity:1;fill-rule:nonzero;stroke:none"
         d="m 2412.48,99.2422 c -12.08,-6.5 -16.57,-8.9883 -27.5,-15.6797 l -11.67,-54.8828 h -26.96 l 19.05,90.8363 23.83,4.015 -1.01,-12.617 c 9.18,5.352 16.58,9.18 24.72,12.617 l -0.46,-24.2888" /><path
         id="path44"
         style="fill:#ffffff;fill-opacity:1;fill-rule:nonzero;stroke:none"
         d="m 2467.67,97.5234 c 0.12,3.2536 -2.67,5.3596 -7.65,5.3596 -9.75,0 -12.82,-5.5471 -14.42,-13.1994 l -1.37,-6.5039 c 4.63,1.1523 6.74,1.5312 12.35,3.2539 7.34,2.1055 10.9,5.543 11.09,11.0898 z m -49.06,-8.9843 c 4.56,21.4179 14.61,35.1799 44.05,35.1799 17.59,0 30.7,-7.645 30.16,-23.328 -0.64,-18.1683 -10.3,-26.5824 -33.49,-33.4613 -11.4,-3.4453 -11.58,-3.4453 -19.69,-5.5469 l -1.37,-6.5 c -0.7,-3.4492 -0.42,-6.5039 4.55,-6.5039 9.75,0 24.07,4.7813 36.88,10.3203 l 4.49,-19.1133 c -11.53,-7.0781 -29.51,-12.8203 -45.94,-12.8203 -19.32,0 -27.25,8.4141 -26.69,24.2891 0.11,3.4414 0.64,7.2656 1.54,11.2851 l 5.51,26.1993" /><path
         id="path46"
         style="fill:#ffffff;fill-opacity:1;fill-rule:nonzero;stroke:none"
         d="m 2503.84,60.4258 h 26.96 l -6.65,-31.7461 h -26.96 l 6.65,31.7461" /><path
         id="path48"
         style="fill:#88d6f6;fill-opacity:1;fill-rule:nonzero;stroke:none"
         d="M 32.6992,573.051 C -12.8711,507.582 -7.23828,422.406 27.6289,352.836 c 0.7774,-1.699 1.6758,-3.305 2.5313,-4.945 0.4882,-1.067 1.0468,-2.129 1.6445,-3.176 0.2617,-0.574 0.6719,-1.207 1.0078,-1.77 0.5625,-1.14 1.1563,-2.183 1.7539,-3.269 1.1211,-1.883 2.2383,-3.801 3.3594,-5.672 0.6328,-1.043 1.2344,-2.09 1.9414,-3.137 1.1914,-2.015 2.5742,-4.008 3.8086,-6.023 0.5586,-0.86 1.082,-1.699 1.6797,-2.539 1.789,-2.727 3.5859,-5.414 5.5625,-8.063 0,-0.078 0.0742,-0.152 0.1484,-0.183 0.2969,-0.45 0.6328,-0.879 0.9297,-1.289 1.6797,-2.297 3.3594,-4.54 5.1172,-6.758 0.5976,-0.821 1.2656,-1.641 1.8672,-2.442 1.6015,-1.945 3.1718,-3.882 4.7343,-5.808 0.6016,-0.688 1.1954,-1.418 1.8321,-2.129 2.0898,-2.52 4.2929,-5.02 6.5351,-7.485 0,-0.035 0.0703,-0.085 0.1094,-0.144 0.0742,-0.094 0.1484,-0.188 0.2969,-0.281 2.164,-2.371 4.3672,-4.7 6.6094,-7.016 0.707,-0.711 1.414,-1.402 2.1992,-2.148 1.7148,-1.739 3.4336,-3.493 5.2656,-5.204 0.7461,-0.714 1.4883,-1.402 2.2031,-2.089 2.3867,-2.243 4.7735,-4.485 7.2735,-6.629 0.039,-0.039 0.0781,-0.059 0.1132,-0.09 0.4102,-0.359 0.8594,-0.715 1.2344,-1.067 2.1992,-1.882 4.4063,-3.75 6.6403,-5.597 0.899,-0.75 1.793,-1.457 2.692,-2.184 1.867,-1.476 3.73,-2.89 5.594,-4.312 0.972,-0.727 1.945,-1.477 2.953,-2.242 2.015,-1.508 4.105,-2.985 6.156,-4.438 0.746,-0.543 1.492,-1.086 2.277,-1.586 0.188,-0.168 0.41,-0.32 0.598,-0.469 2.051,-1.343 3.992,-2.648 6.012,-3.976 0.89,-0.574 1.754,-1.137 2.613,-1.711 3.133,-2 6.266,-3.922 9.367,-5.789 0.895,-0.469 1.789,-0.973 2.649,-1.473 2.312,-1.344 4.667,-2.672 7.054,-3.941 1.305,-0.727 2.613,-1.364 3.953,-2.032 1.61,-0.878 3.289,-1.773 5.008,-2.652 0.41,-0.164 0.82,-0.316 1.192,-0.523 0.707,-0.317 1.378,-0.672 2.05,-1.004 2.618,-1.289 5.301,-2.504 8.067,-3.735 0.519,-0.246 1.078,-0.464 1.64,-0.75 3.094,-1.339 6.196,-2.628 9.368,-3.878 0.75,-0.282 1.492,-0.618 2.277,-0.875 2.875,-1.125 5.859,-2.223 8.808,-3.286 0.375,-0.152 0.708,-0.265 1.083,-0.39 3.285,-1.125 6.531,-2.184 9.855,-3.215 0.781,-0.223 1.566,-0.5 2.387,-0.707 3.398,-1.027 6.679,-2.223 10.152,-2.875 220.328,-40.164 284.34,132.41 284.34,132.41 -53.781,-70 -149.223,-88.496 -239.621,-67.93 -3.363,0.762 -6.684,1.828 -10.078,2.836 -0.789,0.227 -1.684,0.485 -2.469,0.766 -3.281,0.988 -6.527,2.055 -9.699,3.137 -0.45,0.148 -0.934,0.312 -1.383,0.504 -2.871,0.984 -5.707,2.07 -8.547,3.167 -0.785,0.336 -1.605,0.622 -2.391,0.918 -3.136,1.231 -6.23,2.555 -9.254,3.883 -0.671,0.239 -1.234,0.524 -1.871,0.782 -2.644,1.214 -5.183,2.406 -7.761,3.64 -0.782,0.332 -1.493,0.711 -2.278,1.102 -2.015,0.953 -4.027,2.015 -6.004,3.058 -1.382,0.711 -2.73,1.364 -4.035,2.09 -2.426,1.305 -4.851,2.688 -7.277,4.031 -0.75,0.508 -1.57,0.938 -2.43,1.399 -3.133,1.867 -6.308,3.789 -9.402,5.769 -0.895,0.563 -1.719,1.121 -2.539,1.7 -2.278,1.433 -4.52,2.949 -6.719,4.441 -0.711,0.504 -1.418,1.027 -2.164,1.547 -2.129,1.496 -4.219,3.004 -6.344,4.558 -0.898,0.707 -1.832,1.415 -2.801,2.122 -1.906,1.476 -3.808,2.929 -5.71,4.464 -0.825,0.688 -1.676,1.364 -2.504,2.032 -2.461,1.976 -4.774,3.961 -7.129,6.011 -0.223,0.243 -0.555,0.45 -0.821,0.653 -2.5,2.238 -5,4.531 -7.464,6.812 -0.747,0.707 -1.375,1.363 -2.125,2.035 -1.789,1.754 -3.582,3.469 -5.336,5.246 -0.746,0.743 -1.422,1.434 -2.129,2.141 -2.242,2.262 -4.446,4.594 -6.606,6.981 -0.113,0.097 -0.226,0.203 -0.34,0.335 -2.273,2.5 -4.476,5.04 -6.675,7.618 -0.602,0.687 -1.161,1.394 -1.754,2.07 -1.61,1.977 -3.215,3.973 -4.856,5.953 -0.519,0.766 -1.121,1.492 -1.718,2.238 -1.903,2.45 -3.731,4.891 -5.5591,7.411 -50.168,68.437 -68.2695,162.882 -28.1406,240.39" /><path
         id="path50"
         style="fill:#88d6f6;fill-opacity:1;fill-rule:nonzero;stroke:none"
         d="m 174.164,628.238 c -33.035,-47.402 -31.203,-110.875 -5.488,-161.035 4.254,-8.398 9.105,-16.558 14.554,-24.305 4.93,-7.089 10.379,-15.488 16.985,-21.179 2.312,-2.614 4.812,-5.153 7.39,-7.707 0.637,-0.633 1.274,-1.254 1.942,-1.922 2.465,-2.367 4.965,-4.703 7.539,-6.977 0.078,-0.097 0.223,-0.191 0.301,-0.285 0.035,-0.019 0.074,-0.055 0.074,-0.055 2.871,-2.539 5.785,-4.945 8.809,-7.296 0.707,-0.504 1.343,-1.067 2.05,-1.571 2.989,-2.332 6.051,-4.566 9.145,-6.769 0.113,-0.039 0.187,-0.114 0.34,-0.172 1.34,-0.969 2.758,-1.867 4.215,-2.797 0.632,-0.41 1.304,-0.895 1.941,-1.289 2.273,-1.477 4.516,-2.852 6.828,-4.219 0.34,-0.168 0.672,-0.351 1.008,-0.519 1.941,-1.176 3.992,-2.332 6.051,-3.379 0.707,-0.43 1.414,-0.766 2.125,-1.157 1.418,-0.707 2.836,-1.457 4.215,-2.183 0.187,-0.098 0.453,-0.203 0.675,-0.301 2.91,-1.437 5.86,-2.762 8.77,-4.09 0.707,-0.277 1.308,-0.519 1.976,-0.801 2.395,-1.023 4.817,-2.035 7.207,-2.949 1.079,-0.355 2.09,-0.777 3.098,-1.136 2.199,-0.782 4.441,-1.547 6.645,-2.274 1.078,-0.359 2.05,-0.656 3.023,-0.973 3.133,-0.992 6.309,-2.261 9.629,-2.777 170.055,-28.203 209.394,102.793 209.394,102.793 -35.421,-51.027 -103.992,-75.324 -177.144,-56.328 -3.285,0.84 -6.492,1.777 -9.633,2.801 -1.008,0.258 -1.898,0.578 -2.871,0.914 -2.277,0.726 -4.559,1.496 -6.758,2.312 -1.008,0.371 -2.051,0.75 -3.058,1.141 -2.426,0.949 -4.852,1.883 -7.207,2.93 -0.707,0.281 -1.379,0.519 -1.938,0.82 -3.023,1.309 -6.012,2.711 -8.922,4.105 -1.492,0.766 -2.949,1.512 -4.441,2.293 -0.895,0.45 -1.754,0.879 -2.539,1.289 -1.981,1.028 -3.809,2.11 -5.676,3.211 -0.441,0.243 -0.895,0.469 -1.344,0.731 -2.273,1.379 -4.629,2.758 -6.789,4.199 -0.75,0.426 -1.383,0.914 -2.09,1.359 -1.496,0.95 -2.949,1.903 -4.484,2.93 -3.094,2.149 -6.117,4.422 -9.141,6.703 -0.711,0.574 -1.382,1.098 -2.054,1.66 -32.102,25.27 -57.481,59.829 -69.496,98.965 -12.692,40.649 -9.895,86.278 11.98,123.285" /><path
         id="path52"
         style="fill:#88d6f6;fill-opacity:1;fill-rule:nonzero;stroke:none"
         d="m 293.082,669.461 c -19.484,-28.586 -21.352,-64.106 -7.918,-95.645 14.262,-33.519 43.41,-59.812 77.379,-72.257 1.379,-0.543 2.762,-0.993 4.18,-1.477 0.636,-0.184 1.23,-0.391 1.906,-0.594 1.976,-0.617 3.953,-1.363 6.004,-1.758 93.945,-18.14 119.406,48.208 126.234,57.969 -22.355,-32.14 -59.867,-39.844 -105.89,-28.668 -3.622,0.879 -7.579,2.184 -11.086,3.453 -4.477,1.586 -8.918,3.434 -13.25,5.469 -8.098,3.934 -15.938,8.676 -23.18,14.164 -41.207,31.238 -66.734,90.828 -39.863,139.371" /><path
         id="path54"
         style="fill:#ffffff;fill-opacity:1;fill-rule:nonzero;stroke:none"
         d="m 2469.95,535.531 3.69,-15.566 c 1.04,-4.457 -1.79,-8.063 -6.35,-8.063" /><path
         id="path56"
         style="fill:#ffffff;fill-opacity:1;fill-rule:nonzero;stroke:none"
         d="m 2173.58,562.258 c -0.93,-4.313 -2.05,-9.762 -2.79,-13.367 l -32.51,-152.153 34.19,160.293 1.11,5.227" /><path
         id="path58"
         style="fill:#ffffff;fill-opacity:1;fill-rule:nonzero;stroke:none"
         d="m 1199.63,460.434 -17.96,-63.582 17.96,63.562 z" /><path
         id="path60"
         style="fill:#ffffff;fill-opacity:1;fill-rule:nonzero;stroke:none"
         d="m 2473.64,519.965 -9.37,39.621 c -7.39,28.668 -28.33,42.215 -75.39,42.215 h -197.94 c -4.56,0 -9.11,-2.055 -10.04,-6.512 l -75.09,-356.144 c -0.98,-4.5 -1.27,-7.704 -0.76,-9.93 0.53,-2.297 9.34,-1.867 13.85,-1.867 h 68.57 c 4.59,0 12.92,-0.34 15.34,0.636 2.54,1.043 3.66,7.832 4.59,12.325 l 24.23,124.871 29.6,138.511 c 0.96,4.442 5.44,8.082 10,8.082 l 196.06,0.129 c 4.52,0 7.39,3.621 6.35,8.063" /><path
         id="path62"
         style="fill:#ffffff;fill-opacity:1;fill-rule:nonzero;stroke:none"
         d="m 2752.55,664.34 c -4.59,-0.055 -86.95,0 -86.95,0 -4.55,0 -10.41,-4.891 -12.95,-8.66 L 2500.02,431.133 c -2.6,-3.77 -5.55,-3.637 -6.56,0.801 l -11.28,49.214 c -0.96,4.461 -5.51,8.098 -10.14,8.098 h -98.1 c -4.51,0 -7.24,-3.769 -6.04,-8.172 l 43.97,-154.164 c 1.27,-4.414 1.38,-11.621 0.25,-16.035 l -20.5,-78.086 c -1.09,-4.426 1.71,-5.762 6.34,-5.762 h 96.86 c 4.55,0 9.26,1.317 10.37,5.762 l 20.52,79.18 c 1.12,4.414 4.29,10.418 7.01,14.101 l 249.09,330.34 c 2.8,3.617 2.4,7.953 -2.15,7.953 l -27.11,-0.023" /><path
         id="path64"
         style="fill:#ffffff;fill-opacity:1;fill-rule:nonzero;stroke:none"
         d="m 1731.21,601.5 h -88.54 c -4.51,0 -9.14,-1.59 -10.04,-6.066 l -29.26,-136.918 -29.15,-131.098 c -0.93,-4.445 -5.45,-4.141 -10.01,-4.141 h -58.18 c -57.56,0 -50.92,36.368 -39.08,90.879 0.14,0.539 36.91,181.278 36.91,181.278 0.82,4.457 -2.17,6.066 -6.68,6.066 h -84.35 c -4.55,0 -9.08,-1.609 -9.96,-6.066 l -33.94,-181.149 c -16.92,-97.941 -17.43,-184.125 96.15,-186.965 1.87,-0.07 179.35,0 179.35,0 4.59,0 9.1,1.504 10.08,5.918 l 38.51,181.664 38.37,182.418 c 0,0 1.36,4.18 -0.18,4.18" /><path
         id="path66"
         style="fill:#ffffff;fill-opacity:1;fill-rule:nonzero;stroke:none"
         d="m 849.371,601.801 h -94.918 c -4.555,0 -9.144,-1.082 -10.152,-5.563 l -17.133,-74.109 c -0.973,-4.387 1.941,-7.891 6.531,-7.891 h 90.887 c 4.594,0 9.144,4.141 10.117,8.563 l 16.496,74.668 c 0,0 1.317,4.332 -1.828,4.332" /><path
         id="path68"
         style="fill:#ffffff;fill-opacity:1;fill-rule:nonzero;stroke:none"
         d="m 727.543,489.246 c -4.516,0 -9.145,-3.601 -10.117,-8.058 L 704.625,424.656 676.07,294.117 c 0,0 -15.191,-69.394 -16.644,-73.742 0,0 -12.793,-50.105 -43.356,-48.094 -14.218,0.938 -30.472,4.199 -30.472,4.199 h -0.039 c -8.547,2.579 -9.149,-6.289 -10.192,-10.722 L 556.52,84.4297 c -1.086,-4.4531 1.832,-8.457 6.347,-8.5156 0,0 40.867,-5.7618 69.723,-5.7618 h 4.738 c 71.289,0 108.949,41.9137 133.024,155.7307 l 28.218,131.738 26.465,122.574 c 0.973,4.461 -1.719,8.602 -6.269,8.602" /><path
         id="path70"
         style="fill:#ffffff;fill-opacity:1;fill-rule:nonzero;stroke:none"
         d="m 1997.32,445.66 c 0,-4.945 -15.63,-4.004 -15.63,-4.004 l -124.47,0.903 c -4.3,0 -5.53,6.031 -5.83,10.339 -0.01,0.149 0.31,5.172 0.68,6.418 9.62,33.375 38.33,52.442 83.83,52.442 51.2,0 62.14,-25.403 62.14,-53.559 m -42.81,144.149 c -159.67,0 -197.78,-98.688 -218.98,-196.5 -21.21,-99.731 -19.4,-178.559 145.81,-178.559 h 5.96 c 65.55,0 145.18,0 145.18,0 4.47,0.078 8.95,4.18 9.85,8.606 l 16.24,63.261 c 0.94,4.481 -2.09,5.801 -6.6,5.801 H 1904.1 c -53.82,0 -73.09,16.582 -71.21,53.809 -0.04,4.238 4.81,15.019 9.36,15.019 h 228.88 c 10.05,0.059 10.37,5.938 10.37,5.938 23.3,105.16 24.82,222.625 -126.27,222.625" /><path
         id="path72"
         style="fill:#ffffff;fill-opacity:1;fill-rule:nonzero;stroke:none"
         d="m 1180.82,396.852 -18.4,-62.891 c -1.27,-4.414 -6.46,-7.356 -11.02,-7.356 h -94.92 c -72.031,0 -89.539,55.668 -72.031,138.735 17.581,84.914 52.411,137.449 123.251,142.769 96.86,7.297 116.68,-61.101 93.2,-139.726 z m 84.35,-66.641 c 0,0 44.72,108.629 54.86,171.41 13.89,84.02 -28.14,205.863 -190.65,205.863 -161.536,0 -231.638,-116.324 -258.474,-242.796 -26.722,-127.387 8.266,-238.297 168.914,-237.399 l 245.2,0.149 c 4.52,0.019 9.23,3.671 10.39,8.027 l 20.67,78.711 c 1.12,4.441 -1.68,8.047 -6.27,8.066 l -19.75,0.145 -19.74,0.09 c -3.88,0.039 -6.12,2.558 -5.6,5.898 0.07,0.605 0.15,1.211 0.45,1.836" /></g></g></svg>