<?xml version="1.0" encoding="UTF-8" standalone="no"?>
<svg
   xmlns:dc="http://purl.org/dc/elements/1.1/"
   xmlns:cc="http://creativecommons.org/ns#"
   xmlns:rdf="http://www.w3.org/1999/02/22-rdf-syntax-ns#"
   xmlns:svg="http://www.w3.org/2000/svg"
   xmlns="http://www.w3.org/2000/svg"
   version="1.1"
   id="svg2"
   xml:space="preserve"
   width="752.41846"
   height="793.85504"
   viewBox="0 0 752.41846 793.85504"><metadata
     id="metadata8"><rdf:RDF><cc:Work
         rdf:about=""><dc:format>image/svg+xml</dc:format><dc:type
           rdf:resource="http://purl.org/dc/dcmitype/StillImage" /><dc:title></dc:title></cc:Work></rdf:RDF></metadata><defs
     id="defs6" /><g
     transform="matrix(0.95600641,0,0,0.95600641,-187.9264,578.55224)"
     id="g149"><path
       id="path54"
       style="fill:#ffffff;fill-opacity:1;fill-rule:nonzero;stroke:none;stroke-width:0.35336488"
       d="m 872.79372,60.762152 1.30391,5.500478 c 0.3675,1.574947 -0.63252,2.849181 -2.24386,2.849181" /><path
       id="path56"
       style="fill:#ffffff;fill-opacity:1;fill-rule:nonzero;stroke:none;stroke-width:0.35336488"
       d="m 768.06697,51.317769 c -0.32863,1.524063 -0.7244,3.449548 -0.98589,4.723429 l -11.48789,53.765522 12.08154,-56.641912 0.39224,-1.847039" /><path
       id="path58"
       style="fill:#ffffff;fill-opacity:1;fill-rule:nonzero;stroke:none;stroke-width:0.35336488"
       d="m 423.90724,87.298795 -6.34643,22.467645 6.34643,-22.460578 z" /><path
       id="path60"
       style="fill:#ffffff;fill-opacity:1;fill-rule:nonzero;stroke:none;stroke-width:0.35336488"
       d="M 874.09763,66.26263 870.7866,52.26196 C 868.17524,42.131696 860.77578,37.344662 844.14643,37.344662 h -69.94505 c -1.61134,0 -3.21915,0.726165 -3.54778,2.301112 L 744.11943,165.49456 c -0.3463,1.59014 -0.44877,2.72232 -0.26856,3.50891 0.18729,0.81168 3.30043,0.65973 4.89411,0.65973 h 24.23023 c 1.62194,0 4.56547,0.12015 5.42061,-0.22474 0.89755,-0.36856 1.29332,-2.76755 1.62195,-4.35522 l 8.56203,-44.12503 10.4596,-48.94492 c 0.33923,-1.569647 1.9223,-2.855895 3.53365,-2.855895 l 69.28072,-0.04558 c 1.59721,0 2.61136,-1.279534 2.24386,-2.849181" /><path
       id="path62"
       style="fill:#ffffff;fill-opacity:1;fill-rule:nonzero;stroke:none;stroke-width:0.35336488"
       d="m 972.65463,15.245576 c -1.62194,0.01943 -30.72507,0 -30.72507,0 -1.60781,0 -3.67853,1.728307 -4.57608,3.060139 L 883.4194,97.652739 c -0.91875,1.332186 -1.96118,1.285188 -2.31807,-0.283045 l -3.98596,-17.390499 c -0.33923,-1.576361 -1.94704,-2.861549 -3.58312,-2.861549 h -34.66509 c -1.59368,0 -2.55837,1.331832 -2.13433,2.887698 l 15.53746,54.476146 c 0.44877,1.55975 0.48764,4.10645 0.0883,5.6662 l -7.24398,27.59285 c -0.38517,1.564 0.60425,2.03609 2.24033,2.03609 h 34.22692 c 1.60781,0 3.27216,-0.46538 3.6644,-2.03609 l 7.25104,-27.97943 c 0.39577,-1.55975 1.51594,-3.68135 2.47709,-4.9828 l 88.0197,-116.730551 c 0.98942,-1.278121 0.84807,-2.810311 -0.75974,-2.810311 l -9.57972,0.0081" /><path
       id="path64"
       style="fill:#ffffff;fill-opacity:1;fill-rule:nonzero;stroke:none;stroke-width:0.35336488"
       d="m 611.74895,37.451025 h -31.28693 c -1.59368,0 -3.22976,0.56185 -3.54778,2.143511 l -10.33946,48.382013 -10.30059,46.325431 c -0.32863,1.5707 -1.92584,1.46328 -3.53718,1.46328 h -20.55877 c -20.33968,0 -17.99334,-12.85117 -13.8095,-32.11345 0.0495,-0.19046 13.0427,-64.057274 13.0427,-64.057274 0.28976,-1.574947 -0.7668,-2.143511 -2.36048,-2.143511 h -29.80632 c -1.60781,0 -3.20856,0.568564 -3.51952,2.143511 l -11.9932,64.011694 c -5.97894,34.60891 -6.15915,65.06331 33.97603,66.06687 0.66079,0.0247 63.37599,0 63.37599,0 1.62195,0 3.21562,-0.53147 3.56192,-2.09122 l 13.60808,-64.19368 13.55861,-64.46011 c 0,0 0.48058,-1.477065 -0.0636,-1.477065" /><path
       id="path66"
       style="fill:#ffffff;fill-opacity:1;fill-rule:nonzero;stroke:none;stroke-width:0.35336488"
       d="m 300.13801,37.344662 h -33.54068 c -1.60958,0 -3.23117,0.382341 -3.58736,1.965769 l -6.0542,26.187518 c -0.34383,1.550211 0.68588,2.788402 2.30782,2.788402 h 32.11627 c 1.62336,0 3.23117,-1.463284 3.575,-3.025864 l 5.8291,-26.385048 c 0,0 0.46539,-1.530777 -0.64595,-1.530777" /><path
       id="path68"
       style="fill:#ffffff;fill-opacity:1;fill-rule:nonzero;stroke:none;stroke-width:0.35336488"
       d="m 257.08828,77.117646 c -1.5958,0 -3.23152,1.272467 -3.575,2.847414 l -4.52342,19.976424 -10.09033,46.127896 c 0,0 -5.36797,24.5214 -5.88141,26.05783 0,0 -4.5206,17.70535 -15.32049,16.99474 -5.02414,-0.33146 -10.76773,-1.48378 -10.76773,-1.48378 h -0.0138 c -3.02021,-0.91133 -3.23294,2.22231 -3.6015,3.78877 l -6.65986,28.73857 c -0.38376,1.57357 0.64736,2.98841 2.2428,3.00911 0,0 14.44096,2.03602 24.63766,2.03602 h 1.67424 c 25.19103,0 38.49875,-14.81083 47.00601,-55.02976 l 9.97125,-46.55158 9.35181,-43.313349 c 0.34382,-1.57636 -0.60744,-3.039644 -2.21525,-3.039644" /><path
       id="path70"
       style="fill:#ffffff;fill-opacity:1;fill-rule:nonzero;stroke:none;stroke-width:0.35336488"
       d="m 705.78287,92.519408 c 0,1.747389 -5.52309,1.414873 -5.52309,1.414873 l -43.98333,-0.319089 c -1.51946,0 -1.9541,-2.131144 -2.06011,-3.653439 -0.004,-0.05265 0.10954,-1.827604 0.24029,-2.267896 3.39937,-11.793553 13.54447,-18.531161 29.62257,-18.531161 18.09229,0 21.9581,8.976528 21.9581,18.925869 M 690.90975,37.151371 c -56.42177,0 -69.88851,34.872874 -77.37985,69.436199 -7.49486,35.24143 -6.85527,63.09648 51.52414,63.09648 h 2.10605 c 23.16307,0 51.30152,0 51.30152,0 1.57954,-0.0276 3.16261,-1.47707 3.48064,-3.04106 l 5.73865,-22.35421 c 0.33216,-1.58343 -0.73854,-2.04987 -2.33221,-2.04987 H 672.8422 c -19.0181,0 -25.82744,-5.8595 -25.16311,-19.01421 -0.0141,-1.49756 1.69968,-5.30719 3.30749,-5.30719 h 80.87816 c 3.55131,-0.0208 3.66439,-2.09828 3.66439,-2.09828 8.2334,-37.159853 8.77052,-78.667859 -44.61938,-78.667859" /><path
       id="path72"
       style="fill:#ffffff;fill-opacity:1;fill-rule:nonzero;stroke:none;stroke-width:0.35336488"
       d="m 417.26045,109.76644 -6.50191,22.22347 c -0.44878,1.55975 -2.28274,2.59935 -3.89409,2.59935 h -33.54139 c -25.45323,0 -31.63994,-19.67111 -25.45323,-49.024073 6.21251,-30.005626 18.52021,-48.56965 43.55258,-50.449551 34.22692,-2.578503 41.23061,21.590948 32.93361,49.374261 z m 29.80633,23.54859 c 0,0 15.80247,-38.385674 19.38559,-60.570274 C 471.36061,43.055038 456.50869,1.23808e-6 399.08336,1.23808e-6 342.00221,1.23808e-6 317.23063,41.104818 307.74773,85.795581 c -9.44262,45.014089 2.92091,84.205789 59.68827,83.888469 l 86.64507,-0.0526 c 1.59721,-0.007 3.26156,-1.2972 3.67146,-2.83646 l 7.30405,-27.8137 c 0.39577,-1.5693 -0.59365,-2.84353 -2.21559,-2.85025 l -6.97896,-0.0512 -6.97542,-0.0318 c -1.37106,-0.0138 -2.1626,-0.9039 -1.97885,-2.08414 0.0247,-0.21379 0.053,-0.42793 0.15902,-0.64878" /></g><g
     transform="matrix(2.9614766,0,0,2.9614766,113.62601,-18.832491)"
     id="g137"><path
       id="path48"
       style="fill:#88d6f6;fill-opacity:1;fill-rule:nonzero;stroke:none;stroke-width:0.35336488"
       d="M 11.554881,47.503902 C -4.5480627,70.638347 -2.5576219,100.73655 9.763215,125.32015 c 0.274706,0.60037 0.592169,1.16787 0.894472,1.74739 0.172513,0.37704 0.369903,0.75231 0.581109,1.12229 0.09248,0.20283 0.237426,0.42651 0.356121,0.62545 0.198768,0.40284 0.408596,0.7714 0.619767,1.15515 0.396157,0.66539 0.790936,1.34314 1.187094,2.00429 0.223609,0.36856 0.436193,0.73853 0.686022,1.1085 0.420999,0.71203 0.909632,1.41629 1.345826,2.12832 0.197389,0.30389 0.382341,0.60037 0.593547,0.89719 0.63217,0.96363 1.267131,1.91312 1.965592,2.84918 0,0.0276 0.02622,0.0537 0.05244,0.0647 0.104914,0.15901 0.22361,0.31061 0.328524,0.45549 0.593547,0.81168 1.187094,1.60427 1.808238,2.38804 0.211171,0.29011 0.447219,0.57987 0.659803,0.86291 0.565914,0.6873 1.120803,1.37177 1.672936,2.05235 0.212584,0.24311 0.422412,0.50107 0.647399,0.75231 0.738462,0.89048 1.516961,1.77389 2.309275,2.64494 0,0.0124 0.02484,0.03 0.03866,0.0509 0.02622,0.0332 0.05244,0.0664 0.104914,0.0993 0.764682,0.83782 1.543216,1.66081 2.33553,2.4792 0.249829,0.25125 0.499658,0.49542 0.77712,0.75903 0.60595,0.6145 1.213314,1.23431 1.860678,1.83891 0.263646,0.25231 0.525913,0.49542 0.778499,0.73818 0.843376,0.7926 1.686787,1.58484 2.570199,2.34246 0.01378,0.0138 0.0276,0.0208 0.04,0.0318 0.14495,0.12686 0.303682,0.25266 0.436194,0.37704 0.77712,0.66503 1.557031,1.32512 2.346448,1.97778 0.317675,0.26503 0.633584,0.51486 0.951259,0.77175 0.659732,0.52157 1.318051,1.02123 1.976723,1.52371 0.34347,0.2569 0.687295,0.52192 1.043486,0.79225 0.712031,0.53287 1.450563,1.05479 2.175315,1.56823 0.26361,0.19188 0.52722,0.38375 0.804611,0.56044 0.06643,0.0594 0.14488,0.11307 0.211313,0.16573 0.724751,0.47456 1.410632,0.93571 2.124429,1.40497 0.314495,0.20284 0.619802,0.40178 0.923343,0.60461 1.107092,0.70673 2.214184,1.3859 3.309968,2.04563 0.316262,0.16573 0.63217,0.34382 0.936064,0.52051 0.81698,0.47492 1.649154,0.94419 2.492636,1.39261 0.461141,0.25689 0.923342,0.48199 1.396851,0.71804 0.568918,0.31025 1.162217,0.62651 1.769652,0.93712 0.144879,0.0579 0.289759,0.11166 0.421211,0.18481 0.249828,0.11202 0.486936,0.23746 0.724398,0.35478 0.925109,0.45548 1.873187,0.88482 2.850594,1.31982 0.183396,0.0869 0.380927,0.16396 0.579518,0.26502 1.093311,0.47315 2.189449,0.92864 3.310323,1.37035 0.265023,0.0996 0.52722,0.21838 0.804611,0.30919 1.015924,0.39754 2.070365,0.78553 3.112438,1.16116 0.132512,0.0537 0.250183,0.0936 0.382694,0.13781 1.160804,0.39754 2.307826,0.77175 3.482411,1.13607 0.275978,0.0788 0.55337,0.17668 0.843482,0.24983 1.200734,0.3629 2.360124,0.78553 3.587361,1.01592 77.856177,14.19255 100.475767,-46.78904 100.475767,-46.78904 -19.00432,24.73554 -52.73017,31.27138 -84.673643,24.00407 -1.188366,-0.26926 -2.361891,-0.64595 -3.561212,-1.00214 -0.278804,-0.0802 -0.595066,-0.17138 -0.872457,-0.27068 -1.159391,-0.34912 -2.306413,-0.72616 -3.427286,-1.1085 -0.159015,-0.0523 -0.330043,-0.11025 -0.488704,-0.1781 -1.014511,-0.34771 -2.016653,-0.73146 -3.02021,-1.1191 -0.277391,-0.11873 -0.56715,-0.2198 -0.844895,-0.32439 -1.108152,-0.43499 -2.201463,-0.90285 -3.270039,-1.37212 -0.237108,-0.0845 -0.436052,-0.18516 -0.661145,-0.27633 -0.934297,-0.42898 -1.831491,-0.8502 -2.742465,-1.28625 -0.276332,-0.11731 -0.527574,-0.25124 -0.804965,-0.38941 -0.712031,-0.33675 -1.423001,-0.71203 -2.121603,-1.08059 -0.48835,-0.25124 -0.964686,-0.48199 -1.425828,-0.73853 -0.857263,-0.46114 -1.714173,-0.94984 -2.571436,-1.42441 -0.265023,-0.17951 -0.554783,-0.33146 -0.858676,-0.49436 -1.107093,-0.65973 -2.229026,-1.3389 -3.322337,-2.03856 -0.316262,-0.19895 -0.607434,-0.39612 -0.897193,-0.60072 -0.804966,-0.50637 -1.59721,-1.04207 -2.374259,-1.5693 -0.251242,-0.17809 -0.501071,-0.3629 -0.764682,-0.54665 -0.752313,-0.52863 -1.490846,-1.06151 -2.241746,-1.61064 -0.317322,-0.24983 -0.647365,-0.50001 -0.989775,-0.74984 -0.673514,-0.52156 -1.345614,-1.035 -2.017714,-1.57742 -0.291526,-0.24311 -0.592239,-0.48199 -0.884826,-0.71804 -0.869631,-0.69825 -1.686964,-1.39967 -2.519138,-2.12407 -0.0788,-0.0859 -0.196117,-0.15902 -0.290112,-0.23075 -0.883413,-0.79083 -1.766825,-1.6011 -2.637516,-2.40712 -0.263963,-0.24983 -0.485877,-0.48164 -0.7509,-0.7191 -0.63217,-0.6198 -1.265753,-1.22582 -1.885555,-1.85375 -0.26361,-0.26255 -0.502485,-0.50673 -0.752314,-0.75656 -0.792244,-0.79931 -1.57106,-1.62335 -2.334328,-2.46684 -0.03993,-0.0343 -0.07986,-0.0717 -0.120145,-0.11837 -0.803198,-0.88342 -1.581661,-1.78096 -2.35871,-2.69194 -0.212726,-0.24276 -0.410257,-0.49259 -0.619802,-0.73146 -0.568918,-0.6986 -1.136068,-1.40392 -1.71594,-2.10358 -0.183396,-0.27068 -0.396122,-0.52722 -0.607081,-0.79083 -0.672453,-0.86575 -1.318404,-1.72831 -1.964391,-2.61879 C 16.329441,92.326117 9.9330068,58.952571 24.113151,31.563966" /><path
       id="path50"
       style="fill:#88d6f6;fill-opacity:1;fill-rule:nonzero;stroke:none;stroke-width:0.35336488"
       d="m 61.543573,28.002755 c -11.673409,16.750202 -11.026044,39.179331 -1.939266,56.904113 1.503214,2.967558 3.217387,5.851016 5.142872,8.588533 1.742089,2.505004 3.667574,5.472916 6.001902,7.483919 0.81698,0.92369 1.700392,1.82089 2.611367,2.72338 0.225093,0.22368 0.450187,0.44312 0.686235,0.67917 0.871044,0.83641 1.754456,1.66187 2.664017,2.46542 0.02756,0.0343 0.0788,0.0675 0.106363,0.10071 0.01237,0.007 0.02615,0.0194 0.02615,0.0194 1.014511,0.89719 2.044216,1.74739 3.112791,2.57815 0.249829,0.17809 0.474569,0.37704 0.724398,0.55513 1.056208,0.82405 2.138211,1.61347 3.231522,2.39193 0.03993,0.0138 0.06608,0.0403 0.120144,0.0608 0.473509,0.34241 0.974581,0.65973 1.489433,0.98836 0.223327,0.14488 0.460788,0.31626 0.685882,0.45549 0.803198,0.52192 1.595795,1.00779 2.412775,1.49084 0.120144,0.0594 0.237461,0.12404 0.356192,0.1834 0.685881,0.41556 1.410632,0.82405 2.138211,1.19402 0.249829,0.15195 0.499658,0.27068 0.7509,0.40884 0.501071,0.24983 1.002143,0.51486 1.489433,0.7714 0.06608,0.0346 0.160074,0.0717 0.238521,0.10636 1.028292,0.50779 2.070718,0.976 3.09901,1.44526 0.249829,0.0979 0.462202,0.1834 0.698249,0.28305 0.846309,0.36149 1.702159,0.7191 2.546701,1.04207 0.381275,0.12545 0.738535,0.27457 1.094725,0.40143 0.77705,0.27633 1.56929,0.54665 2.34811,0.80355 0.38093,0.12686 0.7244,0.2318 1.06822,0.34382 1.10709,0.35054 2.22938,0.79896 3.40255,0.9813 60.09147,9.96595 73.99249,-36.32344 73.99249,-36.32344 -12.51654,18.03115 -36.74712,26.61686 -62.59647,19.90434 -1.16081,-0.29683 -2.29405,-0.62793 -3.40397,-0.98978 -0.35619,-0.0912 -0.67068,-0.20424 -1.01451,-0.32297 -0.80461,-0.25655 -1.61099,-0.52864 -2.38804,-0.81698 -0.35619,-0.1311 -0.72475,-0.26503 -1.08059,-0.40319 -0.85726,-0.33535 -1.71452,-0.66539 -2.5467,-1.03536 -0.24983,-0.0993 -0.48729,-0.1834 -0.68482,-0.28976 -1.06822,-0.46256 -2.12443,-0.95797 -3.15272,-1.45056 -0.52722,-0.27068 -1.04207,-0.53429 -1.56929,-0.81027 -0.31626,-0.15901 -0.61981,-0.31061 -0.8972,-0.45549 -0.70001,-0.36326 -1.34596,-0.745597 -2.0057,-1.134652 -0.15583,-0.08587 -0.31626,-0.165728 -0.47492,-0.258309 C 99.225344,98.578909 98.392816,98.091618 97.629548,97.58242 97.364524,97.431886 97.140844,97.259444 96.891015,97.102197 96.362381,96.7665 95.848942,96.429743 95.306527,96.066838 94.213216,95.307456 93.144994,94.504258 92.076419,93.698233 91.825176,93.495401 91.588069,93.310238 91.350607,93.111647 80.006888,84.182117 71.038841,71.97018 66.793162,58.140892 62.308255,43.776963 63.296616,27.653277 71.026473,14.576303" /><path
       id="path52"
       style="fill:#88d6f6;fill-opacity:1;fill-rule:nonzero;stroke:none;stroke-width:0.35336488"
       d="m 103.56502,13.435994 c -6.884964,10.101289 -7.545049,22.652809 -2.79795,33.797584 5.03969,11.844437 15.33957,21.13546 27.34303,25.533086 0.48729,0.191877 0.97599,0.350891 1.47706,0.52192 0.22474,0.06502 0.43464,0.138166 0.67351,0.209899 0.69825,0.218026 1.39686,0.481636 2.12161,0.621215 33.19686,6.410039 42.19388,-17.035014 44.60666,-20.484208 -7.89947,11.357147 -21.1549,14.07947 -37.41781,10.130264 -1.27989,-0.310608 -2.67815,-0.771749 -3.9174,-1.220169 -1.58202,-0.560437 -3.15131,-1.213455 -4.68209,-1.932553 -2.86154,-1.390137 -5.63192,-3.065793 -8.19099,-5.00506 C 108.21954,44.56956 99.199195,23.512547 108.69446,6.3591556" /></g></svg>