<?xml version="1.0" encoding="UTF-8" standalone="no"?>
<svg
   xmlns:dc="http://purl.org/dc/elements/1.1/"
   xmlns:cc="http://creativecommons.org/ns#"
   xmlns:rdf="http://www.w3.org/1999/02/22-rdf-syntax-ns#"
   xmlns:svg="http://www.w3.org/2000/svg"
   xmlns="http://www.w3.org/2000/svg"
   viewBox="0 0 499.99996 129.63556"
   height="129.63556"
   width="499.99997"
   xml:space="preserve"
   id="svg2"
   version="1.1"><metadata
     id="metadata8"><rdf:RDF><cc:Work
         rdf:about=""><dc:format>image/svg+xml</dc:format><dc:type
           rdf:resource="http://purl.org/dc/dcmitype/StillImage" /><dc:title></dc:title></cc:Work></rdf:RDF></metadata><defs
     id="defs6" /><g
     transform="matrix(1.3333333,0,0,-1.3333333,-2.1176983e-4,129.63555)"
     id="g10"><g
       transform="matrix(0.12207872,0,0,0.12207872,-3.5067059e-5,0)"
       id="g12"><path
         id="path14"
         style="fill:#3baf9c;fill-opacity:1;fill-rule:nonzero;stroke:none"
         d="m 398.043,146.363 c -138.871,0 -251.852,112.989 -251.852,251.844 0,138.867 112.981,251.852 251.852,251.852 138.855,0 251.836,-112.985 251.836,-251.852 0,-138.855 -112.981,-251.844 -251.836,-251.844 z m 0,544.149 c -161.188,0 -292.313,-131.114 -292.313,-292.305 0,-161.18 131.125,-292.305 292.313,-292.305 161.172,0 292.312,131.125 292.312,292.305 0,161.191 -131.14,292.305 -292.312,292.305" /><path
         id="path16"
         style="fill:#3baf9c;fill-opacity:1;fill-rule:nonzero;stroke:none"
         d="m 398.047,654.398 c -75.109,0 -138.574,-117.312 -138.574,-256.191 0,-138.887 63.465,-256.18 138.574,-256.18 75.101,0 138.558,117.293 138.558,256.18 0,138.879 -63.457,256.191 -138.558,256.191 z m 0,-544.14 c -95.508,0 -170.328,126.472 -170.328,287.949 0,161.488 74.82,287.961 170.328,287.961 95.508,0 170.316,-126.473 170.316,-287.961 0,-161.477 -74.808,-287.949 -170.316,-287.949" /><path
         id="path18"
         style="fill:#3baf9c;fill-opacity:1;fill-rule:nonzero;stroke:none"
         d="M 413.91,126.125 H 382.164 V 670.293 H 413.91 V 126.125" /><path
         id="path20"
         style="fill:#3baf9c;fill-opacity:1;fill-rule:nonzero;stroke:none"
         d="m 398.047,536.781 c -138.875,0 -256.192,-63.457 -256.192,-138.554 0,-75.118 117.317,-138.571 256.192,-138.571 138.883,0 256.183,63.453 256.183,138.571 0,75.097 -117.3,138.554 -256.183,138.554 z m 0,-308.875 c -161.469,0 -287.969,74.813 -287.969,170.321 0,95.496 126.5,170.293 287.969,170.293 161.496,0 287.945,-74.797 287.945,-170.293 0,-95.508 -126.449,-170.321 -287.945,-170.321" /><path
         id="path22"
         style="fill:#3baf9c;fill-opacity:1;fill-rule:nonzero;stroke:none"
         d="M 670.129,382.34 H 125.945 v 31.746 H 670.129 V 382.34" /><path
         id="path24"
         style="fill:#a9b9c0;fill-opacity:1;fill-rule:nonzero;stroke:none"
         d="m 626.305,71.7617 3.086,-1.5703 c 15.625,-7.8633 34.281,-8 49.828,-0.2812 13.301,6.6445 23.242,18.0586 27.945,32.1678 4.707,14.11 3.652,29.207 -2.988,42.516 -9.488,19.039 -28.594,30.867 -49.863,30.867 -8.653,0 -17.004,-2.004 -24.833,-5.883 -23.011,-11.515 -35.062,-37.121 -29.226,-62.316 l 0.898,-3.91 -3.347,-2.266 C 584.59,92.1875 571.227,84.3594 558.098,77.8164 508.059,52.8633 454.469,40.1875 398.785,40.1875 261.809,40.1875 138.816,116.125 77.8438,238.305 26.918,340.355 27.8125,460.922 79.9297,562.023 67.9063,568.559 57.1094,576.824 47.7344,586.773 -13.6953,472.809 -16.0352,336.461 41.8906,220.402 109.711,84.457 246.484,0 398.848,0 h 0.031 c 61.887,0 121.496,14.1055 177.172,41.8633 16.207,8.0859 32.164,17.4922 47.363,27.9453 l 2.891,1.9531" /><path
         id="path26"
         style="fill:#a9b9c0;fill-opacity:1;fill-rule:nonzero;stroke:none"
         d="m 754.141,575.793 c -47.493,95.164 -129.219,166.172 -230.094,199.875 -41.192,13.77 -83.789,20.758 -126.641,20.758 -61.73,0 -121.426,-14.168 -177.426,-42.11 -16.386,-8.183 -32.453,-17.671 -47.757,-28.168 l -2.813,-1.918 -3.105,1.489 c -15.524,7.601 -33.918,7.676 -49.242,0.015 -27.4692,-13.718 -38.6724,-47.199 -24.9575,-74.683 9.4925,-19.02 28.6095,-30.836 49.8635,-30.836 8.66,0 17.008,1.973 24.816,5.883 23.309,11.64 35.305,37.457 29.168,62.84 l -0.941,3.988 3.371,2.265 c 13.176,8.868 26.488,16.664 39.555,23.168 50.3,25.121 103.976,37.856 159.503,37.856 38.52,0 76.829,-6.293 113.868,-18.633 90.711,-30.324 164.171,-94.18 206.875,-179.746 50.992,-102.215 50.097,-222.805 -2.164,-323.859 12.011,-6.461 22.812,-14.743 32.238,-24.684 61.539,113.871 63.883,250.277 5.883,366.5" /><path
         id="path28"
         style="fill:#ffffff;fill-opacity:1;fill-rule:nonzero;stroke:none"
         d="m 898.445,317.484 c 0,7.379 1.141,16.461 2.274,23.84 l 28.383,163.477 c 11.918,69.254 52.222,110.687 153.258,110.687 38.6,0 89.12,-9.082 118.63,-18.164 l -18.73,-71.519 c -30.65,8.511 -78.33,14.191 -108.42,14.191 -43.7,0 -58.46,-19.301 -64.14,-52.793 L 986.43,356.086 c -1.133,-6.246 -1.703,-13.059 -1.703,-18.738 0,-23.27 11.351,-36.895 47.113,-36.895 17.03,0 39.74,2.844 55.63,6.246 l 18.73,103.305 h 78.33 l -28.38,-159.5 c -34.62,-14.758 -80.03,-24.406 -131.69,-24.406 -87.413,0 -126.015,36.328 -126.015,91.386" /><path
         id="path30"
         style="fill:#ffffff;fill-opacity:1;fill-rule:nonzero;stroke:none"
         d="m 1292.36,621.168 82.31,11.348 -70.39,-400.743 h -80.03 l 68.11,389.395" /><path
         id="path32"
         style="fill:#ffffff;fill-opacity:1;fill-rule:nonzero;stroke:none"
         d="m 1565.39,415.684 c 0,20.433 -12.49,31.222 -38.61,31.222 -30.08,0 -47.67,-15.328 -52.21,-42.574 l -11.93,-68.684 c -0.56,-3.972 -1.13,-7.949 -1.13,-11.351 0,-19.867 12.49,-31.223 38.59,-31.223 30.66,0 47.69,15.328 52.23,42.574 l 11.92,68.684 c 0.57,3.973 1.14,7.949 1.14,11.352 z M 1380.9,318.617 c 0,6.246 0.57,13.059 1.71,19.305 l 11.35,64.141 c 12.49,70.949 47.11,111.82 143.62,111.82 74.35,0 107.84,-42.57 107.84,-91.953 0,-6.246 -0.57,-13.059 -1.7,-19.867 l -11.35,-64.141 c -11.92,-66.414 -43.71,-111.824 -144.18,-111.824 -70.39,0 -107.29,42.004 -107.29,92.519" /><path
         id="path34"
         style="fill:#ffffff;fill-opacity:1;fill-rule:nonzero;stroke:none"
         d="m 1865.08,425.332 c 2.83,14.762 -1.14,21.574 -15.33,21.574 -17.59,0 -45.98,-11.355 -62.44,-21.574 l -22.7,-130.551 c 9.65,-1.136 19.86,-1.707 31.22,-1.707 41.44,0 49.38,20.438 54.49,47.117 z m -190.72,-186.18 67.54,382.016 81.74,11.348 -24.98,-142.473 c 23.27,13.625 50.52,23.84 80.61,23.84 60.16,0 74.92,-36.895 64.14,-98.766 l -13.06,-74.359 c -11.35,-65.848 -31.22,-114.66 -149.29,-114.66 -28.94,0 -68.68,3.972 -106.7,13.054" /><path
         id="path36"
         style="fill:#ffffff;fill-opacity:1;fill-rule:nonzero;stroke:none"
         d="m 2056.36,315.781 c -2.28,-14.761 1.13,-20.433 15.32,-20.433 20.44,0 42.57,11.918 60.73,27.246 l 21.01,119.769 c -10.78,2.27 -22.71,2.836 -31.22,2.836 -41.44,0 -46.55,-20.433 -51.65,-47.113 z m 72.65,-84.008 -2.27,23.836 c -19.3,-14.754 -48.25,-29.511 -87.98,-29.511 -60.18,0 -72.09,36.328 -61.31,98.199 l 13.06,74.359 c 11.36,65.84 37.46,114.66 146.44,114.66 28.96,0 66.99,-5.109 105.59,-17.031 l -45.99,-264.512 h -67.54" /><path
         id="path38"
         style="fill:#ffffff;fill-opacity:1;fill-rule:nonzero;stroke:none"
         d="m 2336.75,621.168 82.3,11.348 -70.39,-400.743 h -80.04 l 68.13,389.395" /><path
         id="path40"
         style="fill:#ffffff;fill-opacity:1;fill-rule:nonzero;stroke:none"
         d="m 2491.7,624.004 82.3,11.351 -15.32,-85.144 -81.74,-11.352 z m -21.57,-122.039 82.3,11.351 -49.95,-281.543 h -80.03 l 47.68,270.192" /><path
         id="path42"
         style="fill:#ffffff;fill-opacity:1;fill-rule:nonzero;stroke:none"
         d="m 2579.67,293.074 131.69,151.559 h -104.45 l 10.8,63.574 h 187.31 l -0.57,-61.301 -132.25,-150.992 h 108.98 l -10.79,-64.141 h -187.88 l -2.84,61.301" /><path
         id="path44"
         style="fill:#ffffff;fill-opacity:1;fill-rule:nonzero;stroke:none"
         d="m 2997.43,436.117 c 0,9.649 -8.51,15.895 -23.27,15.895 -28.95,0 -37.47,-16.461 -41.44,-39.164 l -3.4,-19.301 c 13.62,3.406 19.86,4.539 36.32,9.652 21.58,6.239 31.79,16.457 31.79,32.918 z m -144.74,-26.679 c 11.34,63.574 39.73,104.445 127.14,104.445 52.22,0 91.96,-22.707 91.96,-69.25 0,-53.926 -27.82,-78.899 -95.93,-99.336 -33.49,-10.215 -34.05,-10.215 -57.9,-16.457 l -3.4,-19.305 c -1.71,-10.215 -0.58,-19.297 14.19,-19.297 28.95,0 70.95,14.192 108.41,30.653 l 15.33,-56.766 c -33.5,-21 -86.28,-38.027 -135.1,-38.027 -57.32,0 -81.74,24.972 -81.74,72.086 0,10.218 1.14,21.574 3.41,33.492 l 13.63,77.762" /></g></g></svg>