<?xml version="1.0" encoding="UTF-8" standalone="no"?>
<svg
   xmlns:dc="http://purl.org/dc/elements/1.1/"
   xmlns:cc="http://creativecommons.org/ns#"
   xmlns:rdf="http://www.w3.org/1999/02/22-rdf-syntax-ns#"
   xmlns:svg="http://www.w3.org/2000/svg"
   xmlns="http://www.w3.org/2000/svg"
   xmlns:sodipodi="http://sodipodi.sourceforge.net/DTD/sodipodi-0.dtd"
   xmlns:inkscape="http://www.inkscape.org/namespaces/inkscape"
   viewBox="0 0 597.13627 597.13625"
   height="500"
   width="500"
   xml:space="preserve"
   version="1.1"
   id="svg3447"
   sodipodi:docname="globalize.svg"
   inkscape:version="0.92.1 r15371"><sodipodi:namedview
     pagecolor="#ffffff"
     bordercolor="#666666"
     borderopacity="1"
     objecttolerance="10"
     gridtolerance="10"
     guidetolerance="10"
     inkscape:pageopacity="0"
     inkscape:pageshadow="2"
     inkscape:window-width="1313"
     inkscape:window-height="1102"
     id="namedview38"
     showgrid="false"
     fit-margin-top="0"
     fit-margin-left="0"
     fit-margin-right="0"
     fit-margin-bottom="0"
     inkscape:zoom="0.98"
     inkscape:cx="185.3606"
     inkscape:cy="69.017883"
     inkscape:window-x="0"
     inkscape:window-y="0"
     inkscape:window-maximized="1"
     inkscape:current-layer="svg3447" /><metadata
     id="metadata3453"><rdf:RDF><cc:Work
         rdf:about=""><dc:format>image/svg+xml</dc:format><dc:type
           rdf:resource="http://purl.org/dc/dcmitype/StillImage" /><dc:title></dc:title></cc:Work></rdf:RDF></metadata><defs
     id="defs3451"><clipPath
       id="clipPath3463"
       clipPathUnits="userSpaceOnUse"><path
         id="path3465"
         d="M 0,344 H 595 V 498 H 0 Z"
         inkscape:connector-curvature="0" /></clipPath><clipPath
       id="clipPath3479"
       clipPathUnits="userSpaceOnUse"><path
         id="path3481"
         d="M 0.1159091,497.8558 H 593.414 V 344 H 0.1159091 Z"
         inkscape:connector-curvature="0" /></clipPath><clipPath
       id="clipPath3485"
       clipPathUnits="userSpaceOnUse"><path
         id="path3487"
         d="M 0,344 H 595 V 498 H 0 Z"
         inkscape:connector-curvature="0" /></clipPath><clipPath
       id="clipPath3497"
       clipPathUnits="userSpaceOnUse"><path
         id="path3499"
         d="M 0,344 H 595 V 498 H 0 Z"
         inkscape:connector-curvature="0" /></clipPath></defs><g
     transform="matrix(3.8702497,0,0,-3.8656178,0.74567536,1925.7145)"
     id="g3455"><g
       id="g3457" /><g
       id="g3459"><g
         clip-path="url(#clipPath3463)"
         id="g3461"><path
           id="path3467"
           style="fill:#369f93;fill-opacity:1;fill-rule:nonzero;stroke:none"
           d="m 76.89409,372.276 c -26.82716,0 -48.65284,21.8276 -48.65284,48.6509 0,26.8272 21.82568,48.6529 48.65284,48.6529 26.82521,0 48.65091,-21.8257 48.65091,-48.6529 0,-26.8233 -21.8257,-48.6509 -48.65091,-48.6509 z m 0,105.1199 c -31.13704,0 -56.46898,-25.33 -56.46898,-56.469 0,-31.137 25.33194,-56.467 56.46898,-56.467 31.13511,0 56.47091,25.33 56.47091,56.467 0,31.139 -25.3358,56.469 -56.47091,56.469"
           inkscape:connector-curvature="0" /><path
           id="path3469"
           style="fill:#369f93;fill-opacity:1;fill-rule:nonzero;stroke:none"
           d="m 76.89602,470.4182 c -14.50988,0 -26.77113,-22.6622 -26.77113,-49.4913 0,-26.8291 12.26125,-49.4893 26.77113,-49.4893 14.50796,0 26.76728,22.6602 26.76728,49.4893 0,26.8291 -12.25932,49.4913 -26.76728,49.4913 z m 0,-105.118 c -18.45079,0 -32.90466,24.4317 -32.90466,55.6267 0,31.197 14.45387,55.6287 32.90466,55.6287 18.44887,0 32.90078,-24.4317 32.90078,-55.6287 0,-31.195 -14.45191,-55.6267 -32.90078,-55.6267"
           inkscape:connector-curvature="0" /><path
           id="path3471"
           style="fill:#369f93;fill-opacity:1;fill-rule:nonzero;stroke:none"
           d="m 73.82636,473.4878 h 6.13353 V 368.3641 h -6.13353 z"
           inkscape:connector-curvature="0" /><path
           id="path3473"
           style="fill:#369f93;fill-opacity:1;fill-rule:nonzero;stroke:none"
           d="m 76.89602,447.6981 c -26.82909,0 -49.49125,-12.2593 -49.49125,-26.7673 0,-14.5099 22.66216,-26.7692 49.49125,-26.7692 26.82908,0 49.48928,12.2593 49.48928,26.7692 0,14.508 -22.6602,26.7673 -49.48928,26.7673 z m 0,-59.67 c -31.19307,0 -55.63057,14.4519 -55.63057,32.9027 0,18.4469 24.4375,32.8989 55.63057,32.8989 31.19698,0 55.62478,-14.452 55.62478,-32.8989 0,-18.4508 -24.4278,-32.9027 -55.62478,-32.9027"
           inkscape:connector-curvature="0" /></g></g><g
       id="g3475"><g
         clip-path="url(#clipPath3479)"
         id="g3477"><g
           clip-path="url(#clipPath3485)"
           id="g3483"><path
             id="path3489"
             style="fill:#369f93;fill-opacity:1;fill-rule:nonzero;stroke:none"
             d="M 24.33125,423.9947 H 129.4569 v -6.1336 H 24.33125 Z"
             inkscape:connector-curvature="0" /><path
             id="path3491"
             style="fill:#97a8b3;fill-opacity:1;fill-rule:nonzero;stroke:none"
             d="m 120.9898,357.8647 0.5969,-0.3033 c 3.0194,-1.5204 6.6223,-1.5455 9.6263,-0.0561 2.5693,1.2828 4.4895,3.4889 5.3975,6.2147 0.9098,2.7258 0.7051,5.6428 -0.5757,8.2141 -1.8333,3.6762 -5.525,5.9616 -9.634,5.9616 -1.671,0 -3.2841,-0.3864 -4.7967,-1.1359 -4.4451,-2.2236 -6.773,-7.1709 -5.6467,-12.0372 l 0.1739,-0.7573 -0.6472,-0.4385 c -2.5519,-1.7174 -5.1328,-3.23 -7.6693,-4.4934 -9.66685,-4.8218 -20.01946,-7.2694 -30.77775,-7.2694 -26.46012,0 -50.21955,14.6683 -61.99978,38.2732 -9.836815,19.7142 -9.664884,43.0061 0.40375,62.5348 -2.32204,1.2635 -4.40841,2.8611 -6.220452,4.7832 C -2.646591,435.3383 -3.098636,408.998 8.092386,386.5773 21.19398,360.3161 47.61545,344 77.05057,344 h 0.0058 c 11.95603,0 23.47164,2.7258 34.22604,8.0866 3.1315,1.5628 6.2127,3.3807 9.1491,5.3994 l 0.5583,0.3787"
             inkscape:connector-curvature="0" /></g></g></g><g
       id="g3493"><g
         clip-path="url(#clipPath3497)"
         id="g3495"><path
           id="path3501"
           style="fill:#97a8b3;fill-opacity:1;fill-rule:nonzero;stroke:none"
           d="m 145.6861,455.2322 c -9.1742,18.3851 -24.9629,32.101 -44.4492,38.6131 -7.95713,2.6602 -16.18667,4.0105 -24.46451,4.0105 -11.92705,0 -23.45807,-2.7374 -34.27625,-8.1349 -3.16625,-1.5821 -6.26875,-3.4135 -9.22637,-5.4419 l -0.54284,-0.3709 -0.60079,0.2878 c -2.99819,1.4682 -6.5508,1.4836 -9.51228,0.002 -5.3067,-2.6485 -7.47034,-9.1162 -4.82181,-14.4268 1.83522,-3.6743 5.52693,-5.9577 9.63397,-5.9577 1.67296,0 3.28409,0.3825 4.79478,1.1378 4.50113,2.2487 6.81931,7.2347 5.63318,12.1396 l -0.18159,0.7708 0.65102,0.4385 c 2.54614,1.7116 5.11739,3.2184 7.64227,4.4741 9.71705,4.8547 20.08512,7.3139 30.8125,7.3139 7.44137,0 14.84216,-1.2171 21.99762,-3.599 17.5235,-5.8592 31.7147,-18.1939 39.9635,-34.7245 9.8523,-19.7451 9.6784,-43.0428 -0.4173,-62.5657 2.3202,-1.2461 4.4065,-2.8456 6.2282,-4.7658 11.8865,21.9956 12.3405,48.3476 1.1359,70.7992"
           inkscape:connector-curvature="0" /></g></g></g></svg>