<?xml version="1.0" encoding="UTF-8" standalone="no"?>
<svg
   xmlns:dc="http://purl.org/dc/elements/1.1/"
   xmlns:cc="http://creativecommons.org/ns#"
   xmlns:rdf="http://www.w3.org/1999/02/22-rdf-syntax-ns#"
   xmlns:svg="http://www.w3.org/2000/svg"
   xmlns="http://www.w3.org/2000/svg"
   version="1.1"
   id="svg2"
   xml:space="preserve"
   width="129.57892"
   height="129.63554"
   viewBox="0 0 129.57892 129.63554"><metadata
     id="metadata8"><rdf:RDF><cc:Work
         rdf:about=""><dc:format>image/svg+xml</dc:format><dc:type
           rdf:resource="http://purl.org/dc/dcmitype/StillImage" /><dc:title></dc:title></cc:Work></rdf:RDF></metadata><defs
     id="defs6" /><path
     d="m 64.789845,105.81181 c -22.604257,0 -40.994358,-18.391405 -40.994358,-40.993058 0,-22.603607 18.390101,-40.994359 40.994358,-40.994359 22.601654,0 40.991755,18.390752 40.991755,40.994359 0,22.601653 -18.390101,40.993058 -40.991755,40.993058 z m 0,-88.572017 c -26.236831,0 -47.58026,21.341638 -47.58026,47.578959 0,26.235529 21.343429,47.578958 47.58026,47.578958 26.234228,0 47.580095,-21.343429 47.580095,-47.578958 0,-26.237321 -21.345867,-47.578959 -47.580095,-47.578959"
     style="fill:#3baf9c;fill-opacity:1;fill-rule:nonzero;stroke:none;stroke-width:0.16277163"
     id="path14" /><path
     d="m 64.790497,23.118127 c -12.225614,0 -22.555915,19.095065 -22.555915,41.700625 0,22.606862 10.330301,41.698838 22.555915,41.698838 12.224311,0 22.55331,-19.091976 22.55331,-41.698838 0,-22.60556 -10.328999,-41.700625 -22.55331,-41.700625 z m 0,88.570553 c -15.545992,0 -27.724565,-20.586056 -27.724565,-46.869928 0,-26.285664 12.178573,-46.871879 27.724565,-46.871879 15.545991,0 27.722611,20.586215 27.722611,46.871879 0,26.283872 -12.17662,46.869928 -27.722611,46.869928"
     style="fill:#3baf9c;fill-opacity:1;fill-rule:nonzero;stroke:none;stroke-width:0.16277163"
     id="path16" /><path
     d="M 67.372543,109.10598 H 62.205195 V 20.530873 h 5.167348 v 88.575107"
     style="fill:#3baf9c;fill-opacity:1;fill-rule:nonzero;stroke:none;stroke-width:0.16277163"
     id="path18" /><path
     d="m 64.790497,42.262837 c -22.604909,0 -41.700787,10.328999 -41.700787,22.552659 0,12.227079 19.095878,22.555426 41.700787,22.555426 22.60621,0 41.699323,-10.328347 41.699323,-22.555426 0,-12.22366 -19.093113,-22.552659 -41.699323,-22.552659 z m 0,50.276084 c -26.282571,0 -46.873181,-12.177433 -46.873181,-27.723425 0,-15.544039 20.59061,-27.718867 46.873181,-27.718867 26.286965,0 46.869273,12.174828 46.869273,27.718867 0,15.545992 -20.582308,27.723425 -46.869273,27.723425"
     style="fill:#3baf9c;fill-opacity:1;fill-rule:nonzero;stroke:none;stroke-width:0.16277163"
     id="path20" /><path
     d="M 109.07772,67.401449 H 20.500013 v -5.167348 h 88.577707 v 5.167348"
     style="fill:#3baf9c;fill-opacity:1;fill-rule:nonzero;stroke:none;stroke-width:0.16277163"
     id="path22" /><path
     d="m 101.94442,117.95478 0.50231,0.2556 c 2.54331,1.27992 5.57998,1.30218 8.11059,0.0458 2.16502,-1.08153 3.78314,-2.93942 4.54865,-5.236 0.76617,-2.29671 0.59444,-4.75407 -0.48636,-6.9204 -1.54438,-3.09901 -4.65429,-5.02427 -8.11628,-5.02427 -1.40846,0 -2.76777,0.32619 -4.04211,0.95758 -3.745537,1.87432 -5.707098,6.04225 -4.757163,10.14328 l 0.146169,0.63644 -0.544796,0.36884 c -2.151027,1.44842 -4.326144,2.72261 -6.463173,3.78763 -8.144929,4.06166 -16.86786,6.12492 -25.931635,6.12492 -22.295805,0 -42.315575,-12.36047 -52.240119,-32.247911 C 4.3812279,74.235415 4.5268272,54.610529 13.010028,38.154156 11.05296,37.090281 9.295531,35.744973 7.7695471,34.125558 -2.2294647,52.675663 -2.610334,74.869248 6.8183423,93.760359 17.857579,115.88835 40.120341,129.63555 64.920877,129.63555 h 0.005 c 10.073448,0 19.776101,-2.29598 28.838574,-6.81416 2.63804,-1.31615 5.235386,-2.84723 7.709359,-4.5487 l 0.47057,-0.31791"
     style="fill:#a9b9c0;fill-opacity:1;fill-rule:nonzero;stroke:none;stroke-width:0.16277163"
     id="path24" /><path
     d="M 122.75249,35.912791 C 115.02198,20.422792 101.71931,8.8647052 85.299721,3.3788133 78.594832,1.1374481 71.661249,0 64.68616,0 54.638268,0 44.921453,2.3061483 35.806242,6.8543129 33.139067,8.1862731 30.523815,9.7306502 28.032758,11.439264 l -0.457876,0.312196 -0.505406,-0.242367 c -2.526867,-1.237227 -5.520888,-1.249435 -8.0152,-0.0024 -4.471207,2.232901 -6.29477,7.682658 -4.062373,12.156273 1.54511,3.095916 4.656815,5.019226 8.116363,5.019226 1.409602,0 2.768419,-0.321149 4.03934,-0.957586 3.794044,-1.894661 5.746652,-6.096936 4.747723,-10.228568 l -0.153168,-0.649134 0.548703,-0.368677 c 2.144679,-1.443459 4.311494,-2.712427 6.438431,-3.771093 8.187413,-4.0889858 16.924342,-6.1618824 25.962562,-6.1618824 6.269963,0 12.505581,1.0243218 18.534479,3.0329236 14.765176,4.9358868 26.722384,15.3298308 33.673374,29.2575478 8.30006,16.637701 8.15437,36.26633 -0.35223,52.715054 1.95505,1.051667 3.71314,2.399742 5.24743,4.017854 10.0168,-18.534967 10.39834,-40.737992 0.95758,-59.655798"
     style="fill:#a9b9c0;fill-opacity:1;fill-rule:nonzero;stroke:none;stroke-width:0.16277163"
     id="path26" /></svg>