<?xml version="1.0" encoding="UTF-8" standalone="no"?>
<svg
   xmlns:dc="http://purl.org/dc/elements/1.1/"
   xmlns:cc="http://creativecommons.org/ns#"
   xmlns:rdf="http://www.w3.org/1999/02/22-rdf-syntax-ns#"
   xmlns:svg="http://www.w3.org/2000/svg"
   xmlns="http://www.w3.org/2000/svg"
   viewBox="0 0 524.81226 569.06086"
   height="476.49164"
   width="439.44095"
   xml:space="preserve"
   version="1.1"
   id="svg3447">
  <metadata
   id="metadata3453">
    <rdf:RDF>
      <cc:Work
   rdf:about="">
        <dc:format>image/svg+xml</dc:format>

        <dc:type
   rdf:resource="http://purl.org/dc/dcmitype/StillImage" />

        <dc:title></dc:title>

      </cc:Work>

    </rdf:RDF>

  </metadata>

  <defs
   id="defs3451">
    <clipPath
   id="clipPath3463"
   clipPathUnits="userSpaceOnUse">
      <path
   id="path3465"
   d="M 0,344 H 595 V 498 H 0 Z" />

    </clipPath>

    <clipPath
   id="clipPath3479"
   clipPathUnits="userSpaceOnUse">
      <path
   id="path3481"
   d="M 0.1159091,497.8558 H 593.414 V 344 H 0.1159091 Z" />

    </clipPath>

    <clipPath
   id="clipPath3485"
   clipPathUnits="userSpaceOnUse">
      <path
   id="path3487"
   d="M 0,344 H 595 V 498 H 0 Z" />

    </clipPath>

    <clipPath
   id="clipPath3497"
   clipPathUnits="userSpaceOnUse">
      <path
   id="path3499"
   d="M 0,344 H 595 V 498 H 0 Z" />

    </clipPath>

  
    
    
    
  
      
    
        
        
      </defs>

  <g
   style="opacity:1;stop-opacity:1"
   id="g3457"
   transform="matrix(1.25,0,0,-1.25,-216.95525,1053.6589)" />

  <g
   style="opacity:1;stop-opacity:1"
   clip-path="url(#clipPath3463)"
   id="g3461"
   transform="matrix(2.8133618,0,0,-2.8133618,45.913038,1400.6485)">
      <path
   id="path3467"
   style="fill:#369f93;fill-opacity:1;fill-rule:nonzero;stroke:none"
   d="m 76.89409,372.276 c -26.82716,0 -48.65284,21.8276 -48.65284,48.6509 0,26.8272 21.82568,48.6529 48.65284,48.6529 26.82521,0 48.65091,-21.8257 48.65091,-48.6529 0,-26.8233 -21.8257,-48.6509 -48.65091,-48.6509 z m 0,105.1199 c -31.13704,0 -56.46898,-25.33 -56.46898,-56.469 0,-31.137 25.33194,-56.467 56.46898,-56.467 31.13511,0 56.47091,25.33 56.47091,56.467 0,31.139 -25.3358,56.469 -56.47091,56.469" />

      <path
   id="path3469"
   style="fill:#369f93;fill-opacity:1;fill-rule:nonzero;stroke:none"
   d="m 76.89602,470.4182 c -14.50988,0 -26.77113,-22.6622 -26.77113,-49.4913 0,-26.8291 12.26125,-49.4893 26.77113,-49.4893 14.50796,0 26.76728,22.6602 26.76728,49.4893 0,26.8291 -12.25932,49.4913 -26.76728,49.4913 z m 0,-105.118 c -18.45079,0 -32.90466,24.4317 -32.90466,55.6267 0,31.197 14.45387,55.6287 32.90466,55.6287 18.44887,0 32.90078,-24.4317 32.90078,-55.6287 0,-31.195 -14.45191,-55.6267 -32.90078,-55.6267" />

      <path
   id="path3471"
   style="fill:#369f93;fill-opacity:1;fill-rule:nonzero;stroke:none"
   d="m 73.82636,473.4878 h 6.13353 V 368.3641 h -6.13353 z" />

      <path
   id="path3473"
   style="fill:#369f93;fill-opacity:1;fill-rule:nonzero;stroke:none"
   d="m 76.89602,447.6981 c -26.82909,0 -49.49125,-12.2593 -49.49125,-26.7673 0,-14.5099 22.66216,-26.7692 49.49125,-26.7692 26.82908,0 49.48928,12.2593 49.48928,26.7692 0,14.508 -22.6602,26.7673 -49.48928,26.7673 z m 0,-59.67 c -31.19307,0 -55.63057,14.4519 -55.63057,32.9027 0,18.4469 24.4375,32.8989 55.63057,32.8989 31.19698,0 55.62478,-14.452 55.62478,-32.8989 0,-18.4508 -24.4278,-32.9027 -55.62478,-32.9027" />

    </g>
<path
   id="path3489"
   style="opacity:1;fill:#369f93;fill-opacity:1;fill-rule:nonzero;stroke:none;stroke-width:2.81336;stop-opacity:1"
   d="m 114.36565,207.79801 h 295.75649 v 17.25603 H 114.36565 Z" />
<path
   id="path3491"
   style="opacity:1;fill:#a9b9c0;fill-opacity:1;fill-rule:nonzero;stroke:none;stroke-width:2.81336;stop-opacity:1"
   d="m 386.30112,393.84562 1.6793,0.8533 c 8.49466,4.27743 18.63092,4.34805 27.08226,0.15783 7.22837,-3.60898 12.63059,-9.81554 15.18512,-17.4842 2.5596,-7.66867 1.9837,-15.87524 -1.61965,-23.10924 -5.15774,-10.34248 -15.54383,-16.77214 -27.10393,-16.77214 -4.70113,0 -9.23936,1.08709 -13.49485,3.1957 -12.50568,6.25579 -19.0549,20.17434 -15.88621,33.865 l 0.48924,2.13056 -1.82081,1.23366 c -7.17941,4.83167 -14.44042,9.08716 -21.57651,12.64156 -27.19635,13.56547 -56.32199,20.45145 -86.58895,20.45145 -74.44189,0 -141.28576,-41.26724 -174.427811,-107.67636 C 60.543799,247.86956 61.027504,182.34102 89.354214,127.39972 82.821475,123.84504 76.951762,119.35041 71.853832,113.94285 38.46722,175.88436 37.195454,249.98915 68.679848,313.06669 105.53937,386.94895 179.87253,432.85204 262.68417,432.85204 h 0.0163 c 33.63663,0 66.03421,-7.66866 96.29023,-22.75053 8.81004,-4.39672 17.47857,-9.51113 25.73973,-15.19047 l 1.5707,-1.06542" />
<path
   d="M 455.78074,119.91561 C 429.9704,68.191669 385.55106,29.60388 330.72906,11.282987 308.34278,3.7988824 285.1901,0 261.90154,0 c -33.5551,0 -65.99603,7.7012965 -96.43149,22.886417 -8.9078,4.451019 -17.63626,9.60341 -25.95711,15.310033 l -1.52721,1.043476 -1.69024,-0.809686 c -8.43499,-4.130578 -18.42977,-4.173903 -26.76148,-0.0056 -14.929669,7.451189 -21.016771,25.647169 -13.5655,40.587808 5.16314,10.337135 15.54925,16.761165 27.10384,16.761165 4.70665,0 9.23934,-1.076111 13.48945,-3.201043 12.66331,-6.326407 19.18519,-20.353828 15.84818,-34.153086 l -0.51088,-2.168539 1.83155,-1.23366 c 7.16322,-4.81535 14.39707,-9.054523 21.50047,-12.587261 27.33758,-13.658028 56.50671,-20.576647 86.68671,-20.576647 20.93527,0 41.75637,3.424143 61.88726,10.125289 49.29995,16.484049 89.22493,51.186022 112.43179,97.692584 27.71807,55.55011 27.22884,121.09497 -1.17403,176.01996 6.52757,3.50572 12.39709,8.00568 17.52218,13.40792 33.44104,-61.88158 34.71831,-136.0193 3.19571,-199.18378"
   style="opacity:1;fill:#a9b9c0;fill-opacity:1;fill-rule:nonzero;stroke:none;stroke-width:2.81336;stop-opacity:1"
   id="path3501" />

  <g
   style="fill:#ffffff"
   id="g157"
   transform="translate(-216.81036,431.33912)">
    <path
   id="path3503"
   style="opacity:1;fill:#ffffff;fill-opacity:1;fill-rule:nonzero;stroke:none;stroke-width:1.25;stop-opacity:1"
   d="m 216.81036,115.65312 c 0,-1.77962 0.27525,-3.97475 0.54813,-5.75687 L 224.21161,70.422 c 2.8785,-16.72225 12.61,-26.729125 37.00888,-26.729125 9.321,0 21.52037,2.192625 28.64637,4.387625 l -4.52287,17.268125 c -7.40125,-2.055 -18.91488,-3.426625 -26.18088,-3.426625 -10.55262,0 -14.11675,4.663 -15.48837,12.747625 l -5.61925,31.664875 c -0.27288,1.50687 -0.4105,3.15125 -0.4105,4.52287 0,5.61925 2.74075,8.90813 11.376,8.90813 4.11237,0 9.59637,-0.68575 13.43337,-1.50688 l 4.52288,-24.946995 h 18.915 l -6.85313,38.515625 c -8.36,3.56425 -19.3255,5.8945 -31.80025,5.8945 -21.1075,0 -30.4285,-8.77288 -30.4285,-22.06863" />

    <path
   id="path3505"
   style="opacity:1;fill:#ffffff;fill-opacity:1;fill-rule:nonzero;stroke:none;stroke-width:1.25;stop-opacity:1"
   d="m 311.93074,42.32125 19.876,-2.74075 -16.99763,96.76962 h -19.3255 l 16.44713,-94.02887" />

    <path
   id="path3507"
   style="opacity:1;fill:#ffffff;fill-opacity:1;fill-rule:nonzero;stroke:none;stroke-width:1.25;stop-opacity:1"
   d="m 377.86124,91.9425 c 0,-4.935875 -3.01613,-7.539 -9.3235,-7.539 -7.26363,0 -11.51113,3.6995 -12.6075,10.277375 l -2.88075,16.584625 c -0.13525,0.96112 -0.27288,1.92212 -0.27288,2.74312 0,4.79825 3.016,7.539 9.3185,7.539 7.40375,0 11.51613,-3.70187 12.61238,-10.28212 l 2.8785,-16.584625 c 0.13762,-0.95875 0.27525,-1.917375 0.27525,-2.738375 z m -44.55013,23.43775 c 0,-1.50675 0.13763,-3.15362 0.41288,-4.6605 l 2.74075,-15.488375 c 3.01612,-17.13525 11.376,-27.004375 34.681,-27.004375 17.95387,0 26.04087,10.279625 26.04087,22.20625 0,1.50925 -0.13762,3.15125 -0.4105,4.798125 l -2.74075,15.488375 c -2.87837,16.0365 -10.555,27.002 -34.81612,27.002 -16.99763,0 -25.90813,-10.1445 -25.90813,-22.3415" />

    <path
   id="path3509"
   style="opacity:1;fill:#ffffff;fill-opacity:1;fill-rule:nonzero;stroke:none;stroke-width:1.25;stop-opacity:1"
   d="m 450.22949,89.61225 c 0.68337,-3.566625 -0.27525,-5.20875 -3.70175,-5.20875 -4.24763,0 -11.10313,2.738375 -15.07788,5.20875 l -5.4815,31.52487 c 2.33025,0.27525 4.79575,0.4105 7.53888,0.4105 10.00687,0 11.92412,-4.93587 13.15812,-11.37849 z m -46.0545,44.95825 16.30937,-92.24925 19.73838,-2.74075 -6.03213,34.403375 c 5.61925,-3.289 12.1995,-5.756875 19.4655,-5.756875 14.52725,0 18.0915,8.9105 15.48838,23.85075 l -3.15375,17.95625 c -2.74075,15.90125 -7.53888,27.68775 -36.05013,27.68775 -6.98837,0 -16.58462,-0.95863 -25.76562,-3.15125" />

    <path
   id="path3511"
   style="opacity:1;fill:#ffffff;fill-opacity:1;fill-rule:nonzero;stroke:none;stroke-width:1.25;stop-opacity:1"
   d="m 496.41936,116.066 c -0.55062,3.56188 0.27288,4.9335 3.69938,4.9335 4.93575,0 10.27975,-2.8785 14.66487,-6.58037 l 5.0735,-28.919255 c -2.60312,-0.550625 -5.484,-0.68575 -7.53887,-0.68575 -10.00688,0 -11.24088,4.933375 -12.47238,11.375875 z m 17.54325,20.28413 -0.54812,-5.75438 c -4.6605,3.56175 -11.65125,7.126 -21.24513,7.126 -14.53212,0 -17.40812,-8.77287 -14.805,-23.71312 l 3.15363,-17.956255 c 2.74325,-15.898875 9.04575,-27.68775 35.362,-27.68775 6.99312,0 16.1765,1.234 25.49762,4.112375 l -11.10562,63.87313 h -16.30938" />

    <path
   id="path3513"
   style="opacity:1;fill:#ffffff;fill-opacity:1;fill-rule:nonzero;stroke:none;stroke-width:1.25;stop-opacity:1"
   d="m 564.12711,42.32125 19.87363,-2.74075 -16.99763,96.76962 h -19.32787 l 16.45187,-94.02887" />

    <path
   id="path3515"
   style="opacity:1;fill:#ffffff;fill-opacity:1;fill-rule:nonzero;stroke:none;stroke-width:1.25;stop-opacity:1"
   d="m 601.54399,41.637875 19.87362,-2.743125 -3.69937,20.56175 -19.73838,2.74075 z m -5.20863,29.47 19.87363,-2.74325 -12.06188,67.985505 h -19.32537 l 11.51362,-65.242255" />

    <path
   id="path3517"
   style="opacity:1;fill:#ffffff;fill-opacity:1;fill-rule:nonzero;stroke:none;stroke-width:1.25;stop-opacity:1"
   d="m 622.78674,121.54762 31.80025,-36.59837 h -25.22238 l 2.608,-15.350625 h 45.23113 l -0.13775,14.804875 -31.93525,36.45825 h 26.31612 l -2.6055,15.48837 h -45.36875 l -0.68587,-14.8025" />

    <path
   id="path3519"
   style="opacity:1;fill:#ffffff;fill-opacity:1;fill-rule:nonzero;stroke:none;stroke-width:1.25;stop-opacity:1"
   d="m 723.66636,87.006625 c 0,-2.33025 -2.055,-3.837 -5.61925,-3.837 -6.99075,0 -9.04812,3.97225 -10.00675,9.45625 l -0.821,4.662875 c 3.28888,-0.823375 4.79575,-1.09875 8.77038,-2.332625 5.21112,-1.506875 7.67662,-3.97475 7.67662,-7.9495 z m -34.9515,6.442625 c 2.73838,-15.353125 9.594,-25.22225 30.7015,-25.22225 12.60988,0 22.20625,5.484 22.20625,16.72225 0,13.022875 -6.71787,19.055 -23.165,23.98837 -8.087,2.4655 -8.22225,2.4655 -13.9815,3.97475 l -0.821,4.6605 c -0.41287,2.4655 -0.14,4.66051 3.4265,4.66051 6.99088,0 17.13288,-3.42651 26.17863,-7.40125 l 3.70187,13.70624 c -8.0895,5.07338 -20.83475,9.18338 -32.62362,9.18338 -13.8415,0 -19.73838,-6.02975 -19.73838,-17.40575 0,-2.47025 0.27538,-5.211 0.8235,-8.08937 l 3.29125,-18.77738" />

  </g>

</svg>
