<?xml version="1.0" encoding="UTF-8" standalone="no"?>
<svg
   xmlns:dc="http://purl.org/dc/elements/1.1/"
   xmlns:cc="http://creativecommons.org/ns#"
   xmlns:rdf="http://www.w3.org/1999/02/22-rdf-syntax-ns#"
   xmlns:svg="http://www.w3.org/2000/svg"
   xmlns="http://www.w3.org/2000/svg"
   viewBox="0 0 741.62262 192.31975"
   height="161.035067286"
   width="620.982756646"
   xml:space="preserve"
   version="1.1"
   id="svg3447"><metadata
     id="metadata3453"><rdf:RDF><cc:Work
         rdf:about=""><dc:format>image/svg+xml</dc:format><dc:type
           rdf:resource="http://purl.org/dc/dcmitype/StillImage" /><dc:title></dc:title></cc:Work></rdf:RDF></metadata><defs
     id="defs3451"><clipPath
       id="clipPath3463"
       clipPathUnits="userSpaceOnUse"><path
         id="path3465"
         d="m 0,344 595,0 0,154 -595,0 0,-154 z" /></clipPath><clipPath
       id="clipPath3479"
       clipPathUnits="userSpaceOnUse"><path
         id="path3481"
         d="m 0.1159091,497.8558 593.2980909,0 0,-153.8558 -593.2980909,0 0,153.8558 z" /></clipPath><clipPath
       id="clipPath3485"
       clipPathUnits="userSpaceOnUse"><path
         id="path3487"
         d="m 0,344 595,0 0,154 -595,0 0,-154 z" /></clipPath><clipPath
       id="clipPath3497"
       clipPathUnits="userSpaceOnUse"><path
         id="path3499"
         d="m 0,344 595,0 0,154 -595,0 0,-154 z" /></clipPath></defs><g
     transform="matrix(1.25,0,0,-1.25,-0.14488637,622.31975)"
     id="g3455"><g
       id="g3457" /><g
       id="g3459"><g
         clip-path="url(#clipPath3463)"
         id="g3461"><path
           id="path3467"
           style="fill:#369f93;fill-opacity:1;fill-rule:nonzero;stroke:none"
           d="m 76.89409,372.276 c -26.82716,0 -48.65284,21.8276 -48.65284,48.6509 0,26.8272 21.82568,48.6529 48.65284,48.6529 26.82521,0 48.65091,-21.8257 48.65091,-48.6529 0,-26.8233 -21.8257,-48.6509 -48.65091,-48.6509 z m 0,105.1199 c -31.13704,0 -56.46898,-25.33 -56.46898,-56.469 0,-31.137 25.33194,-56.467 56.46898,-56.467 31.13511,0 56.47091,25.33 56.47091,56.467 0,31.139 -25.3358,56.469 -56.47091,56.469" /><path
           id="path3469"
           style="fill:#369f93;fill-opacity:1;fill-rule:nonzero;stroke:none"
           d="m 76.89602,470.4182 c -14.50988,0 -26.77113,-22.6622 -26.77113,-49.4913 0,-26.8291 12.26125,-49.4893 26.77113,-49.4893 14.50796,0 26.76728,22.6602 26.76728,49.4893 0,26.8291 -12.25932,49.4913 -26.76728,49.4913 z m 0,-105.118 c -18.45079,0 -32.90466,24.4317 -32.90466,55.6267 0,31.197 14.45387,55.6287 32.90466,55.6287 18.44887,0 32.90078,-24.4317 32.90078,-55.6287 0,-31.195 -14.45191,-55.6267 -32.90078,-55.6267" /><path
           id="path3471"
           style="fill:#369f93;fill-opacity:1;fill-rule:nonzero;stroke:none"
           d="m 73.82636,473.4878 6.13353,0 0,-105.1237 -6.13353,0 0,105.1237 z" /><path
           id="path3473"
           style="fill:#369f93;fill-opacity:1;fill-rule:nonzero;stroke:none"
           d="m 76.89602,447.6981 c -26.82909,0 -49.49125,-12.2593 -49.49125,-26.7673 0,-14.5099 22.66216,-26.7692 49.49125,-26.7692 26.82908,0 49.48928,12.2593 49.48928,26.7692 0,14.508 -22.6602,26.7673 -49.48928,26.7673 z m 0,-59.67 c -31.19307,0 -55.63057,14.4519 -55.63057,32.9027 0,18.4469 24.4375,32.8989 55.63057,32.8989 31.19698,0 55.62478,-14.452 55.62478,-32.8989 0,-18.4508 -24.4278,-32.9027 -55.62478,-32.9027" /></g></g><g
       id="g3475"><g
         clip-path="url(#clipPath3479)"
         id="g3477"><g
           clip-path="url(#clipPath3485)"
           id="g3483"><path
             id="path3489"
             style="fill:#369f93;fill-opacity:1;fill-rule:nonzero;stroke:none"
             d="m 24.33125,423.9947 105.12565,0 0,-6.1336 -105.12565,0 0,6.1336 z" /><path
             id="path3491"
             style="fill:#97a8b3;fill-opacity:1;fill-rule:nonzero;stroke:none"
             d="m 120.9898,357.8647 0.5969,-0.3033 c 3.0194,-1.5204 6.6223,-1.5455 9.6263,-0.0561 2.5693,1.2828 4.4895,3.4889 5.3975,6.2147 0.9098,2.7258 0.7051,5.6428 -0.5757,8.2141 -1.8333,3.6762 -5.525,5.9616 -9.634,5.9616 -1.671,0 -3.2841,-0.3864 -4.7967,-1.1359 -4.4451,-2.2236 -6.773,-7.1709 -5.6467,-12.0372 l 0.1739,-0.7573 -0.6472,-0.4385 c -2.5519,-1.7174 -5.1328,-3.23 -7.6693,-4.4934 -9.66685,-4.8218 -20.01946,-7.2694 -30.77775,-7.2694 -26.46012,0 -50.21955,14.6683 -61.99978,38.2732 -9.836815,19.7142 -9.664884,43.0061 0.40375,62.5348 -2.32204,1.2635 -4.40841,2.8611 -6.220452,4.7832 C -2.646591,435.3383 -3.098636,408.998 8.092386,386.5773 21.19398,360.3161 47.61545,344 77.05057,344 l 0.0058,0 c 11.95603,0 23.47164,2.7258 34.22604,8.0866 3.1315,1.5628 6.2127,3.3807 9.1491,5.3994 l 0.5583,0.3787" /></g></g></g><g
       id="g3493"><g
         clip-path="url(#clipPath3497)"
         id="g3495"><path
           id="path3501"
           style="fill:#97a8b3;fill-opacity:1;fill-rule:nonzero;stroke:none"
           d="m 145.6861,455.2322 c -9.1742,18.3851 -24.9629,32.101 -44.4492,38.6131 -7.95713,2.6602 -16.18667,4.0105 -24.46451,4.0105 -11.92705,0 -23.45807,-2.7374 -34.27625,-8.1349 -3.16625,-1.5821 -6.26875,-3.4135 -9.22637,-5.4419 l -0.54284,-0.3709 -0.60079,0.2878 c -2.99819,1.4682 -6.5508,1.4836 -9.51228,0.002 -5.3067,-2.6485 -7.47034,-9.1162 -4.82181,-14.4268 1.83522,-3.6743 5.52693,-5.9577 9.63397,-5.9577 1.67296,0 3.28409,0.3825 4.79478,1.1378 4.50113,2.2487 6.81931,7.2347 5.63318,12.1396 l -0.18159,0.7708 0.65102,0.4385 c 2.54614,1.7116 5.11739,3.2184 7.64227,4.4741 9.71705,4.8547 20.08512,7.3139 30.8125,7.3139 7.44137,0 14.84216,-1.2171 21.99762,-3.599 17.5235,-5.8592 31.7147,-18.1939 39.9635,-34.7245 9.8523,-19.7451 9.6784,-43.0428 -0.4173,-62.5657 2.3202,-1.2461 4.4065,-2.8456 6.2282,-4.7658 11.8865,21.9956 12.3405,48.3476 1.1359,70.7992" /><path
           id="path3503"
           style="fill:#3d5269;fill-opacity:1;fill-rule:nonzero;stroke:none"
           d="m 173.5642,405.3333 c 0,1.4237 0.2202,3.1798 0.4385,4.6055 l 5.4825,31.5794 c 2.3028,13.3778 10.088,21.3833 29.6071,21.3833 7.4568,0 17.2163,-1.7541 22.9171,-3.5101 l -3.6183,-13.8145 c -5.921,1.644 -15.1319,2.7413 -20.9447,2.7413 -8.4421,0 -11.2934,-3.7304 -12.3907,-10.1981 l -4.4954,-25.3319 c -0.2183,-1.2055 -0.3284,-2.521 -0.3284,-3.6183 0,-4.4954 2.1926,-7.1265 9.1008,-7.1265 3.2899,0 7.6771,0.5486 10.7467,1.2055 l 3.6183,19.9576 15.132,0 -5.4825,-30.8125 c -6.688,-2.8514 -15.4604,-4.7156 -25.4402,-4.7156 -16.886,0 -24.3428,7.0183 -24.3428,17.6549" /><path
           id="path3505"
           style="fill:#3d5269;fill-opacity:1;fill-rule:nonzero;stroke:none"
           d="m 249.6605,463.9988 15.9008,2.1926 -13.5981,-77.4157 -15.4604,0 13.1577,75.2231" /><path
           id="path3507"
           style="fill:#3d5269;fill-opacity:1;fill-rule:nonzero;stroke:none"
           d="m 302.4049,424.3018 c 0,3.9487 -2.4129,6.0312 -7.4588,6.0312 -5.8109,0 -9.2089,-2.9596 -10.086,-8.2219 l -2.3046,-13.2677 c -0.1082,-0.7689 -0.2183,-1.5377 -0.2183,-2.1945 0,-3.8386 2.4128,-6.0312 7.4548,-6.0312 5.923,0 9.2129,2.9615 10.0899,8.2257 l 2.3028,13.2677 c 0.1101,0.767 0.2202,1.5339 0.2202,2.1907 z m -35.6401,-18.7502 c 0,1.2054 0.1101,2.5229 0.3303,3.7284 l 2.1926,12.3907 c 2.4129,13.7082 9.1008,21.6035 27.7448,21.6035 14.3631,0 20.8327,-8.2237 20.8327,-17.765 0,-1.2074 -0.1101,-2.521 -0.3284,-3.8385 L 315.3442,409.28 c -2.3027,-12.8292 -8.444,-21.6016 -27.8529,-21.6016 -13.5981,0 -20.7265,8.1156 -20.7265,17.8732" /><path
           id="path3509"
           style="fill:#3d5269;fill-opacity:1;fill-rule:nonzero;stroke:none"
           d="m 360.2995,426.166 c 0.5467,2.8533 -0.2202,4.167 -2.9614,4.167 -3.3981,0 -8.8825,-2.1907 -12.0623,-4.167 l -4.3852,-25.2199 c 1.8642,-0.2202 3.8366,-0.3284 6.0311,-0.3284 8.0055,0 9.5393,3.9487 10.5265,9.1028 l 2.8513,16.4455 z m -36.8436,-35.9666 13.0475,73.7994 15.7907,2.1926 -4.8257,-27.5227 c 4.4954,2.6312 9.7596,4.6055 15.5724,4.6055 11.6218,0 14.4732,-7.1284 12.3907,-19.0806 l -2.523,-14.365 c -2.1926,-12.721 -6.0311,-22.1502 -28.8401,-22.1502 -5.5907,0 -13.2677,0.7669 -20.6125,2.521" /><path
           id="path3511"
           style="fill:#3d5269;fill-opacity:1;fill-rule:nonzero;stroke:none"
           d="m 397.2514,405.003 c -0.4405,-2.8495 0.2183,-3.9468 2.9595,-3.9468 3.9486,0 8.2238,2.3028 11.7319,5.2643 l 4.0588,23.1354 c -2.0825,0.4405 -4.3872,0.5486 -6.0311,0.5486 -8.0055,0 -8.9927,-3.9467 -9.9779,-9.1007 l -2.7412,-15.9008 z m 14.0346,-16.2273 -0.4385,4.6035 c -3.7284,-2.8494 -9.321,-5.7008 -16.9961,-5.7008 -11.6257,0 -13.9265,7.0183 -11.844,18.9705 l 2.5229,14.365 c 2.1946,12.7191 7.2366,22.1502 28.2896,22.1502 5.5945,0 12.9412,-0.9872 20.3981,-3.2899 l -8.8845,-51.0985 -13.0475,0" /><path
           id="path3513"
           style="fill:#3d5269;fill-opacity:1;fill-rule:nonzero;stroke:none"
           d="m 451.4176,463.9988 15.8989,2.1926 -13.5981,-77.4157 -15.4623,0 13.1615,75.2231" /><path
           id="path3515"
           style="fill:#3d5269;fill-opacity:1;fill-rule:nonzero;stroke:none"
           d="m 481.3511,464.5455 15.8989,2.1945 -2.9595,-16.4494 -15.7907,-2.1926 2.8513,16.4475 z m -4.1669,-23.576 15.8989,2.1946 -9.6495,-54.3884 -15.4603,0 9.2109,52.1938" /><path
           id="path3517"
           style="fill:#3d5269;fill-opacity:1;fill-rule:nonzero;stroke:none"
           d="m 498.3453,400.6177 25.4402,29.2787 -20.1779,0 2.0864,12.2805 36.1849,0 -0.1102,-11.8439 -25.5482,-29.1666 21.0529,0 -2.0844,-12.3907 -36.295,0 -0.5487,11.842" /><path
           id="path3519"
           style="fill:#3d5269;fill-opacity:1;fill-rule:nonzero;stroke:none"
           d="m 579.049,428.2505 c 0,1.8642 -1.644,3.0696 -4.4954,3.0696 -5.5926,0 -7.2385,-3.1778 -8.0054,-7.565 l -0.6568,-3.7303 c 2.6311,0.6587 3.8366,0.879 7.0163,1.8661 4.1689,1.2055 6.1413,3.1798 6.1413,6.3596 z m -27.9612,-5.1541 c 2.1907,12.2825 7.6752,20.1778 24.5612,20.1778 10.0879,0 17.765,-4.3872 17.765,-13.3778 0,-10.4183 -5.3743,-15.244 -18.532,-19.1907 -6.4696,-1.9724 -6.5778,-1.9724 -11.1852,-3.1798 l -0.6568,-3.7284 c -0.3303,-1.9724 -0.112,-3.7284 2.7412,-3.7284 5.5927,0 13.7063,2.7412 20.9429,5.921 l 2.9615,-10.965 c -6.4716,-4.0587 -16.6678,-7.3467 -26.0989,-7.3467 -11.0732,0 -15.7907,4.8238 -15.7907,13.9246 0,1.9762 0.2203,4.1688 0.6588,6.4715 l 2.633,15.0219" /></g></g></g></svg>