<?xml version="1.0" encoding="UTF-8"?>
<!DOCTYPE svg PUBLIC "-//W3C//DTD SVG 1.1//EN" "http://www.w3.org/Graphics/SVG/1.1/DTD/svg11.dtd">
<svg version="1.1" xmlns="http://www.w3.org/2000/svg" xmlns:xlink="http://www.w3.org/1999/xlink" x="0" y="0" width="600" height="200" viewBox="0, 0, 600, 200">
  <defs>
    <linearGradient id="Gradient_1" gradientUnits="userSpaceOnUse" x1="74.274" y1="80.453" x2="122.379" y2="128.558">
      <stop offset="0" stop-color="#0075C9"/>
      <stop offset="0.214" stop-color="#0075C9"/>
      <stop offset="0.707" stop-color="#80BC00"/>
      <stop offset="1" stop-color="#FDE021"/>
    </linearGradient>
  </defs>
  <g id="Layer_1">
    <path d="M0,209 L600,209 L600,0 L0,0 z" fill="#54565A"/>
    <path d="M557.163,209 L579.311,209 L579.311,0 L557.163,0 z M557.163,0 M522.886,0 L478.62,76.749 L447.038,21.994 L485.095,0 L446.713,0 L437.399,5.383 L434.294,0 L412.13,0 L420.789,15.021 L309.434,79.415 L309.434,0 L290.362,0 L290.362,79.21 L179.005,14.816 L187.546,0 L165.295,0 L162.191,5.383 L152.876,0 L114.618,0 L152.757,21.994 L121.175,76.749 L76.765,0 L54.697,0 L110.102,95.82 L44.661,209 L66.81,209 L120.97,115.098 L152.552,169.853 L84.814,209 L122.84,209 L162.191,186.259 L175.307,209 L197.466,209 L178.801,176.62 L290.156,112.227 L290.156,209 L309.434,209 L309.434,112.432 L420.789,176.825 L402.182,209 L424.282,209 L437.399,186.259 L476.75,209 L515.131,209 L447.038,169.647 L478.62,114.892 L532.898,209 L555.135,209 L489.694,95.82 L545.098,0 z M319.072,95.82 L430.428,31.427 L467.546,95.82 L430.428,160.215 z M132.044,95.82 L169.163,31.427 L280.517,95.82 L169.163,160.215 z M20.688,209 L42.632,209 L42.632,0 L20.688,0 z" fill="#4D4F51"/>
    <g>
      <path d="M98.097,69.415 L68.185,86.7 L68.027,86.789 L67.826,86.902 L67.826,122.098 L68.027,122.211 L98.12,139.585 L98.321,139.697 L98.522,139.585 L128.212,122.457 L128.615,122.233 L128.816,122.121 L128.816,86.902 L128.593,86.789 L98.5,69.415 L98.299,69.303 z M101.321,73.803 L123.376,86.544 L108.665,86.544 z M95.299,73.803 L87.933,86.544 L73.221,86.544 z M99.352,74.587 L106.247,86.544 L99.352,86.544 z M97.268,74.587 L97.268,86.544 L90.373,86.544 z M85.111,95.656 L89.164,88.625 L97.268,88.625 L97.268,102.686 z M109.874,88.648 L123.667,88.648 L113.323,94.627 z M99.352,88.648 L107.456,88.648 L111.509,95.679 L99.352,102.709 z M72.931,88.648 L86.724,88.648 L83.275,94.627 z M114.375,96.44 L124.718,90.462 L117.824,102.418 z M71.878,90.462 L82.245,96.44 L78.797,102.418 z M119.032,104.5 L126.399,91.76 L126.399,117.24 z M70.222,91.76 L77.588,104.5 L70.222,117.24 z M100.403,104.5 L112.561,97.47 L116.614,104.5 L112.561,111.53 z M79.983,104.5 L84.036,97.47 L96.195,104.5 L84.036,111.53 z M85.089,113.321 L97.246,106.291 L97.246,120.352 L97.268,120.352 L89.141,120.352 z M99.352,106.314 L111.509,113.344 L107.456,120.352 L99.352,120.352 z M114.375,112.561 L117.824,106.582 L124.718,118.539 z M78.774,106.605 L82.223,112.583 L71.878,118.561 z M113.323,114.374 L123.667,120.352 L109.874,120.352 z M83.275,114.374 L86.724,120.352 L72.931,120.352 z M108.665,122.457 L123.376,122.457 L101.321,135.197 z M99.352,122.457 L106.247,122.457 L99.352,134.414 z M90.373,122.457 L97.268,122.457 L97.268,134.414 z M73.221,122.457 L87.933,122.457 L95.299,135.197 z" fill="url(#Gradient_1)"/>
      <g>
        <path d="M177.156,100.522 C177.156,93.895 172.589,88.901 166.095,88.901 C159.602,88.901 154.99,93.895 154.99,100.522 C154.99,107.149 159.602,112.142 166.095,112.142 C172.589,112.12 177.156,107.149 177.156,100.522 M150.064,100.522 C150.064,91.252 157.184,84.558 166.118,84.558 C174.984,84.558 182.127,91.23 182.127,100.522 C182.127,109.792 174.984,116.486 166.118,116.486 C157.184,116.463 150.064,109.792 150.064,100.522" fill="#FFFFFF"/>
        <path d="M202.613,106.411 C202.613,102.94 200.509,100.567 197.173,100.567 C193.792,100.567 191.597,102.94 191.597,106.411 C191.597,110.015 193.792,112.389 197.173,112.389 C200.531,112.411 202.613,110.038 202.613,106.411 M187.12,96.872 L191.777,96.872 L191.642,100.432 C192.874,98.059 195.158,96.447 198.449,96.447 C203.375,96.447 207.36,100.612 207.36,106.411 C207.36,112.21 203.33,116.464 198.359,116.464 C195.158,116.464 192.874,114.919 191.777,112.769 L191.777,125.756 L187.12,125.756 z" fill="#FFFFFF"/>
        <path d="M227.914,104.821 C227.512,102.224 225.899,100.298 222.697,100.298 C219.72,100.298 217.66,101.933 217.122,104.821 z M223.19,112.591 C225.698,112.591 227.534,111.583 228.631,110.53 L231.317,113.374 C229.526,115.165 227.063,116.486 223.235,116.486 C216.652,116.486 212.398,112.232 212.398,106.478 C212.398,100.768 216.876,96.469 222.631,96.469 C229.168,96.469 232.862,101.306 232.549,108.045 L217.101,108.045 C217.66,110.799 219.675,112.591 223.19,112.591" fill="#FFFFFF"/>
        <path d="M237.677,96.872 L242.289,96.872 L242.199,100.432 C243.386,97.925 245.804,96.447 248.693,96.447 C252.947,96.447 255.88,99.47 255.88,104.664 L255.88,116.038 L251.268,116.038 L251.268,105.044 C251.268,102.29 249.991,100.701 247.282,100.701 C244.259,100.701 242.289,102.537 242.289,105.627 L242.289,116.038 L237.677,116.038 z" fill="#FFFFFF"/>
        <path d="M260.917,111.224 L264.858,108.806 C265.955,110.776 267.231,112.142 269.516,112.142 C272.112,112.142 273.814,110.911 273.814,107.306 L273.814,84.983 L278.65,84.983 L278.65,107.373 C278.65,113.553 274.956,116.463 269.739,116.463 C265.127,116.463 262.396,114.09 260.917,111.224" fill="#FFFFFF"/>
        <path d="M283.621,110.038 L287.606,107.844 C289.061,110.262 290.942,112.187 294.726,112.187 C297.884,112.187 300.122,110.486 300.122,107.934 C300.122,105.246 298.286,104.038 294.905,102.538 L292.846,101.62 C288.323,99.604 285.569,97.321 285.569,92.529 C285.569,87.917 289.129,84.625 294.301,84.625 C298.421,84.603 301.22,86.17 303.078,89.506 L299.294,91.835 C298.107,89.775 296.741,88.812 294.301,88.812 C291.838,88.812 290.27,90.312 290.27,92.417 C290.27,94.746 291.592,95.798 294.749,97.164 L296.764,98.082 C302.07,100.411 304.892,102.873 304.892,107.866 C304.892,113.307 300.638,116.464 294.794,116.464 C288.905,116.464 285.345,113.553 283.621,110.038" fill="#FFFFFF"/>
        <path d="M313.687,85.357 L316.68,85.357 L324.425,112.949 L324.513,112.949 L332.39,85.357 L336.086,85.357 L343.964,112.949 L344.052,112.949 L351.797,85.357 L354.79,85.357 L345.724,116.514 L342.16,116.514 L334.283,88.789 L334.195,88.789 L326.317,116.514 L322.752,116.514 z" fill="#7EBB05"/>
        <path d="M359.234,106.349 C359.234,107.493 359.417,108.571 359.784,109.583 C360.151,110.596 360.686,111.476 361.39,112.224 C362.094,112.972 362.945,113.566 363.943,114.006 C364.94,114.446 366.055,114.666 367.288,114.666 C368.52,114.666 369.634,114.446 370.632,114.006 C371.63,113.566 372.48,112.972 373.184,112.224 C373.888,111.476 374.423,110.596 374.791,109.583 C375.157,108.571 375.34,107.493 375.34,106.349 C375.34,105.205 375.157,104.126 374.791,103.115 C374.423,102.102 373.888,101.222 373.184,100.474 C372.48,99.726 371.63,99.132 370.632,98.692 C369.634,98.252 368.52,98.032 367.288,98.032 C366.055,98.032 364.94,98.252 363.943,98.692 C362.945,99.132 362.094,99.726 361.39,100.474 C360.686,101.222 360.151,102.102 359.784,103.115 C359.417,104.126 359.234,105.205 359.234,106.349 M356.593,106.349 C356.593,104.794 356.858,103.364 357.386,102.058 C357.914,100.753 358.647,99.623 359.587,98.67 C360.525,97.717 361.655,96.975 362.975,96.447 C364.295,95.919 365.732,95.655 367.288,95.655 C368.842,95.655 370.272,95.919 371.578,96.447 C372.883,96.975 374.013,97.717 374.966,98.67 C375.92,99.623 376.661,100.753 377.189,102.058 C377.717,103.364 377.981,104.794 377.981,106.349 C377.981,107.904 377.717,109.334 377.189,110.64 C376.661,111.945 375.92,113.075 374.966,114.028 C374.013,114.982 372.883,115.723 371.578,116.25 C370.272,116.779 368.842,117.043 367.288,117.043 C365.732,117.043 364.295,116.779 362.975,116.25 C361.655,115.723 360.525,114.982 359.587,114.028 C358.647,113.075 357.914,111.945 357.386,110.64 C356.858,109.334 356.593,107.904 356.593,106.349" fill="#7EBB05"/>
        <path d="M383.878,101.904 C383.878,101.523 383.863,101.061 383.834,100.518 C383.805,99.975 383.782,99.425 383.768,98.867 C383.753,98.311 383.731,97.789 383.702,97.305 C383.673,96.821 383.658,96.447 383.658,96.183 L386.299,96.183 C386.327,96.946 386.35,97.679 386.364,98.383 C386.379,99.088 386.415,99.543 386.475,99.748 C387.149,98.545 388.015,97.563 389.071,96.799 C390.127,96.037 391.418,95.655 392.943,95.655 C393.207,95.655 393.464,95.677 393.714,95.721 C393.963,95.765 394.22,95.817 394.483,95.875 L394.176,98.471 C393.823,98.355 393.486,98.296 393.163,98.296 C392.02,98.296 391.029,98.479 390.193,98.845 C389.357,99.213 388.667,99.719 388.125,100.364 C387.581,101.009 387.179,101.765 386.914,102.63 C386.65,103.496 386.519,104.427 386.519,105.425 L386.519,116.514 L383.878,116.514 z" fill="#7EBB05"/>
        <path d="M398.973,83.244 L401.613,83.244 L401.613,116.514 L398.973,116.514 z" fill="#7EBB05"/>
        <path d="M427.137,106.349 C427.137,105.205 426.917,104.126 426.477,103.115 C426.036,102.102 425.435,101.222 424.672,100.474 C423.909,99.726 423.015,99.132 421.989,98.692 C420.961,98.252 419.846,98.032 418.644,98.032 C417.411,98.032 416.296,98.252 415.299,98.692 C414.301,99.132 413.45,99.726 412.746,100.474 C412.042,101.222 411.507,102.102 411.14,103.115 C410.773,104.126 410.59,105.205 410.59,106.349 C410.59,107.493 410.773,108.571 411.14,109.583 C411.507,110.596 412.042,111.476 412.746,112.224 C413.45,112.972 414.301,113.566 415.299,114.006 C416.296,114.446 417.411,114.666 418.644,114.666 C419.846,114.666 420.961,114.446 421.989,114.006 C423.015,113.566 423.909,112.972 424.672,112.224 C425.435,111.476 426.036,110.596 426.477,109.583 C426.917,108.571 427.137,107.493 427.137,106.349 M426.873,112.95 L426.784,112.95 C426.373,113.654 425.861,114.263 425.244,114.776 C424.628,115.29 423.961,115.716 423.242,116.053 C422.523,116.39 421.768,116.639 420.976,116.801 C420.184,116.961 419.407,117.043 418.644,117.043 C417.088,117.043 415.651,116.779 414.331,116.25 C413.011,115.723 411.881,114.982 410.943,114.028 C410.003,113.075 409.27,111.945 408.742,110.64 C408.214,109.334 407.95,107.904 407.95,106.349 C407.95,104.794 408.214,103.364 408.742,102.058 C409.27,100.753 410.003,99.623 410.943,98.67 C411.881,97.717 413.011,96.975 414.331,96.447 C415.651,95.919 417.088,95.655 418.644,95.655 C419.407,95.655 420.184,95.736 420.976,95.897 C421.768,96.059 422.523,96.308 423.242,96.645 C423.961,96.983 424.628,97.409 425.244,97.922 C425.861,98.435 426.373,99.044 426.784,99.748 L426.873,99.748 L426.873,83.245 L429.513,83.245 L429.513,116.515 L426.873,116.515 z" fill="#7EBB05"/>
        <path d="M445.707,113.434 L457.412,101.068 C457.94,100.54 458.469,99.976 458.997,99.374 C459.524,98.773 460.001,98.142 460.427,97.481 C460.852,96.821 461.197,96.125 461.461,95.391 C461.726,94.658 461.857,93.866 461.857,93.015 C461.857,91.196 461.27,89.773 460.097,88.746 C458.923,87.72 457.441,87.206 455.652,87.206 C454.038,87.206 452.674,87.676 451.56,88.614 C450.444,89.554 449.726,90.786 449.403,92.31 L446.322,92.003 C446.821,89.598 447.922,87.8 449.623,86.612 C451.324,85.424 453.378,84.83 455.784,84.83 C456.987,84.83 458.131,85.013 459.217,85.38 C460.302,85.747 461.256,86.267 462.077,86.942 C462.898,87.617 463.552,88.446 464.035,89.428 C464.519,90.412 464.762,91.534 464.762,92.795 C464.762,93.998 464.578,95.113 464.212,96.139 C463.845,97.166 463.36,98.142 462.76,99.066 C462.157,99.99 461.468,100.863 460.691,101.684 C459.913,102.506 459.129,103.328 458.337,104.148 L448.611,114.138 L464.981,114.138 L464.981,116.515 L445.707,116.515 z" fill="#FFFFFF"/>
        <path d="M470.755,100.936 C470.755,101.757 470.783,102.66 470.843,103.643 C470.901,104.625 471.019,105.622 471.194,106.634 C471.371,107.646 471.627,108.636 471.965,109.604 C472.302,110.574 472.742,111.431 473.285,112.179 C473.827,112.927 474.495,113.529 475.287,113.983 C476.079,114.438 477.032,114.665 478.148,114.665 C479.234,114.665 480.179,114.438 480.986,113.983 C481.793,113.529 482.468,112.927 483.011,112.179 C483.553,111.431 483.993,110.574 484.331,109.604 C484.668,108.636 484.925,107.646 485.101,106.634 C485.277,105.622 485.394,104.625 485.453,103.643 C485.512,102.66 485.541,101.757 485.541,100.936 C485.541,100.144 485.512,99.248 485.453,98.251 C485.394,97.255 485.277,96.248 485.101,95.236 C484.925,94.225 484.668,93.234 484.331,92.267 C483.993,91.299 483.553,90.439 483.011,89.691 C482.468,88.943 481.793,88.342 480.986,87.887 C480.179,87.434 479.234,87.205 478.148,87.205 C477.063,87.205 476.116,87.434 475.31,87.887 C474.502,88.342 473.827,88.943 473.285,89.691 C472.742,90.439 472.302,91.299 471.965,92.267 C471.627,93.234 471.371,94.225 471.194,95.236 C471.019,96.248 470.901,97.255 470.843,98.251 C470.783,99.248 470.755,100.144 470.755,100.936 M467.851,100.936 C467.851,99.821 467.901,98.64 468.004,97.394 C468.107,96.146 468.297,94.928 468.576,93.741 C468.855,92.552 469.236,91.424 469.721,90.353 C470.205,89.282 470.827,88.335 471.591,87.513 C472.354,86.692 473.27,86.039 474.341,85.555 C475.412,85.071 476.681,84.829 478.148,84.829 C479.614,84.829 480.883,85.071 481.954,85.555 C483.026,86.039 483.942,86.692 484.705,87.513 C485.468,88.335 486.091,89.282 486.575,90.353 C487.06,91.424 487.441,92.552 487.72,93.741 C487.998,94.928 488.189,96.146 488.291,97.394 C488.394,98.64 488.445,99.821 488.445,100.936 C488.445,102.08 488.394,103.269 488.291,104.499 C488.189,105.732 487.998,106.942 487.72,108.131 C487.441,109.318 487.06,110.449 486.575,111.52 C486.091,112.59 485.468,113.536 484.705,114.357 C483.942,115.179 483.026,115.831 481.954,116.315 C480.883,116.8 479.614,117.042 478.148,117.042 C476.681,117.042 475.412,116.8 474.341,116.315 C473.27,115.831 472.354,115.179 471.591,114.357 C470.827,113.536 470.205,112.59 469.721,111.52 C469.236,110.449 468.855,109.318 468.576,108.131 C468.297,106.942 468.107,105.732 468.004,104.499 C467.901,103.269 467.851,102.08 467.851,100.936" fill="#FFFFFF"/>
        <path d="M490.853,113.434 L502.557,101.068 C503.085,100.54 503.615,99.976 504.142,99.374 C504.669,98.773 505.146,98.142 505.572,97.481 C505.997,96.821 506.342,96.125 506.607,95.391 C506.871,94.658 507.003,93.866 507.003,93.015 C507.003,91.196 506.415,89.773 505.242,88.746 C504.068,87.72 502.586,87.206 500.797,87.206 C499.184,87.206 497.819,87.676 496.706,88.614 C495.59,89.554 494.871,90.786 494.548,92.31 L491.467,92.003 C491.966,89.598 493.068,87.8 494.768,86.612 C496.469,85.424 498.523,84.83 500.93,84.83 C502.133,84.83 503.276,85.013 504.362,85.38 C505.447,85.747 506.401,86.267 507.223,86.942 C508.043,87.617 508.697,88.446 509.18,89.428 C509.664,90.412 509.908,91.534 509.908,92.795 C509.908,93.998 509.723,95.113 509.357,96.139 C508.991,97.166 508.505,98.142 507.905,99.066 C507.302,99.99 506.613,100.863 505.836,101.684 C505.059,102.506 504.275,103.328 503.482,104.148 L493.757,114.138 L510.126,114.138 L510.126,116.515 L490.853,116.515 z" fill="#FFFFFF"/>
        <path d="M521.994,89.054 L521.95,89.054 L516.317,93.675 L514.689,91.651 L522.39,85.358 L524.635,85.358 L524.635,116.514 L521.994,116.514 z" fill="#FFFFFF"/>
      </g>
    </g>
  </g>
</svg>
