<?xml version="1.0" encoding="UTF-8"?>
<!DOCTYPE svg PUBLIC "-//W3C//DTD SVG 1.1//EN" "http://www.w3.org/Graphics/SVG/1.1/DTD/svg11.dtd">
<svg version="1.1" xmlns="http://www.w3.org/2000/svg" xmlns:xlink="http://www.w3.org/1999/xlink" x="0" y="0" width="600" height="100" viewBox="0, 0, 600, 100">
  <defs>
    <linearGradient id="Gradient_1" gradientUnits="userSpaceOnUse" x1="74.274" y1="25.953" x2="122.379" y2="74.058">
      <stop offset="0" stop-color="#0075C9"/>
      <stop offset="0.214" stop-color="#0075C9"/>
      <stop offset="0.707" stop-color="#80BC00"/>
      <stop offset="1" stop-color="#FDE021"/>
    </linearGradient>
  </defs>
  <g id="Layer_1">
    <path d="M0,154.5 L600,154.5 L600,-54.5 L0,-54.5 z" fill="#54565A"/>
    <path d="M557.163,154.5 L579.311,154.5 L579.311,-54.5 L557.163,-54.5 z M557.163,-54.5 M522.886,-54.5 L478.62,22.249 L447.038,-32.506 L485.095,-54.5 L446.713,-54.5 L437.399,-49.117 L434.294,-54.5 L412.13,-54.5 L420.789,-39.479 L309.434,24.915 L309.434,-54.5 L290.362,-54.5 L290.362,24.71 L179.005,-39.684 L187.546,-54.5 L165.295,-54.5 L162.191,-49.117 L152.876,-54.5 L114.618,-54.5 L152.757,-32.506 L121.175,22.249 L76.765,-54.5 L54.697,-54.5 L110.102,41.32 L44.661,154.5 L66.81,154.5 L120.97,60.598 L152.552,115.353 L84.814,154.5 L122.84,154.5 L162.191,131.759 L175.307,154.5 L197.466,154.5 L178.801,122.12 L290.156,57.727 L290.156,154.5 L309.434,154.5 L309.434,57.932 L420.789,122.325 L402.182,154.5 L424.282,154.5 L437.399,131.759 L476.75,154.5 L515.131,154.5 L447.038,115.147 L478.62,60.392 L532.898,154.5 L555.135,154.5 L489.694,41.32 L545.098,-54.5 z M319.072,41.32 L430.428,-23.073 L467.546,41.32 L430.428,105.715 z M132.044,41.32 L169.163,-23.073 L280.517,41.32 L169.163,105.715 z M20.688,154.5 L42.632,154.5 L42.632,-54.5 L20.688,-54.5 z" fill="#4D4F51"/>
    <g>
      <path d="M98.097,14.915 L68.185,32.2 L68.027,32.289 L67.826,32.402 L67.826,67.598 L68.027,67.711 L98.12,85.085 L98.321,85.197 L98.522,85.085 L128.212,67.957 L128.615,67.733 L128.816,67.621 L128.816,32.402 L128.593,32.289 L98.5,14.915 L98.299,14.803 z M101.321,19.303 L123.376,32.044 L108.665,32.044 z M95.299,19.303 L87.933,32.044 L73.221,32.044 z M99.352,20.087 L106.247,32.044 L99.352,32.044 z M97.268,20.087 L97.268,32.044 L90.373,32.044 z M85.111,41.156 L89.164,34.125 L97.268,34.125 L97.268,48.186 z M109.874,34.148 L123.667,34.148 L113.323,40.127 z M99.352,34.148 L107.456,34.148 L111.509,41.179 L99.352,48.209 z M72.931,34.148 L86.724,34.148 L83.275,40.127 z M114.375,41.94 L124.718,35.962 L117.824,47.918 z M71.878,35.962 L82.245,41.94 L78.797,47.918 z M119.032,50 L126.399,37.26 L126.399,62.74 z M70.222,37.26 L77.588,50 L70.222,62.74 z M100.403,50 L112.561,42.97 L116.614,50 L112.561,57.03 z M79.983,50 L84.036,42.97 L96.195,50 L84.036,57.03 z M85.089,58.821 L97.246,51.791 L97.246,65.852 L97.268,65.852 L89.141,65.852 z M99.352,51.814 L111.509,58.844 L107.456,65.852 L99.352,65.852 z M114.375,58.061 L117.824,52.082 L124.718,64.039 z M78.774,52.105 L82.223,58.083 L71.878,64.061 z M113.323,59.874 L123.667,65.852 L109.874,65.852 z M83.275,59.874 L86.724,65.852 L72.931,65.852 z M108.665,67.957 L123.376,67.957 L101.321,80.697 z M99.352,67.957 L106.247,67.957 L99.352,79.914 z M90.373,67.957 L97.268,67.957 L97.268,79.914 z M73.221,67.957 L87.933,67.957 L95.299,80.697 z" fill="url(#Gradient_1)"/>
      <g>
        <path d="M177.156,46.022 C177.156,39.395 172.589,34.401 166.095,34.401 C159.602,34.401 154.99,39.395 154.99,46.022 C154.99,52.649 159.602,57.642 166.095,57.642 C172.589,57.62 177.156,52.649 177.156,46.022 M150.064,46.022 C150.064,36.752 157.184,30.058 166.118,30.058 C174.984,30.058 182.127,36.73 182.127,46.022 C182.127,55.292 174.984,61.986 166.118,61.986 C157.184,61.963 150.064,55.292 150.064,46.022" fill="#FFFFFF"/>
        <path d="M202.613,51.911 C202.613,48.44 200.509,46.067 197.173,46.067 C193.792,46.067 191.597,48.44 191.597,51.911 C191.597,55.515 193.792,57.889 197.173,57.889 C200.531,57.911 202.613,55.538 202.613,51.911 M187.12,42.372 L191.777,42.372 L191.642,45.932 C192.874,43.559 195.158,41.947 198.449,41.947 C203.375,41.947 207.36,46.112 207.36,51.911 C207.36,57.71 203.33,61.964 198.359,61.964 C195.158,61.964 192.874,60.419 191.777,58.269 L191.777,71.256 L187.12,71.256 z" fill="#FFFFFF"/>
        <path d="M227.914,50.321 C227.512,47.724 225.899,45.798 222.697,45.798 C219.72,45.798 217.66,47.433 217.122,50.321 z M223.19,58.091 C225.698,58.091 227.534,57.083 228.631,56.03 L231.317,58.874 C229.526,60.665 227.063,61.986 223.235,61.986 C216.652,61.986 212.398,57.732 212.398,51.978 C212.398,46.268 216.876,41.969 222.631,41.969 C229.168,41.969 232.862,46.806 232.549,53.545 L217.101,53.545 C217.66,56.299 219.675,58.091 223.19,58.091" fill="#FFFFFF"/>
        <path d="M237.677,42.372 L242.289,42.372 L242.199,45.932 C243.386,43.425 245.804,41.947 248.693,41.947 C252.947,41.947 255.88,44.97 255.88,50.164 L255.88,61.538 L251.268,61.538 L251.268,50.544 C251.268,47.79 249.991,46.201 247.282,46.201 C244.259,46.201 242.289,48.037 242.289,51.127 L242.289,61.538 L237.677,61.538 z" fill="#FFFFFF"/>
        <path d="M260.917,56.724 L264.858,54.306 C265.955,56.276 267.231,57.642 269.516,57.642 C272.112,57.642 273.814,56.411 273.814,52.806 L273.814,30.483 L278.65,30.483 L278.65,52.873 C278.65,59.053 274.956,61.963 269.739,61.963 C265.127,61.963 262.396,59.59 260.917,56.724" fill="#FFFFFF"/>
        <path d="M283.621,55.538 L287.606,53.344 C289.061,55.762 290.942,57.687 294.726,57.687 C297.884,57.687 300.122,55.986 300.122,53.434 C300.122,50.746 298.286,49.538 294.905,48.038 L292.846,47.12 C288.323,45.104 285.569,42.821 285.569,38.029 C285.569,33.417 289.129,30.125 294.301,30.125 C298.421,30.103 301.22,31.67 303.078,35.006 L299.294,37.335 C298.107,35.275 296.741,34.312 294.301,34.312 C291.838,34.312 290.27,35.812 290.27,37.917 C290.27,40.246 291.592,41.298 294.749,42.664 L296.764,43.582 C302.07,45.911 304.892,48.373 304.892,53.366 C304.892,58.807 300.638,61.964 294.794,61.964 C288.905,61.964 285.345,59.053 283.621,55.538" fill="#FFFFFF"/>
        <path d="M313.687,30.857 L316.68,30.857 L324.425,58.449 L324.513,58.449 L332.39,30.857 L336.086,30.857 L343.964,58.449 L344.052,58.449 L351.797,30.857 L354.79,30.857 L345.724,62.014 L342.16,62.014 L334.283,34.289 L334.195,34.289 L326.317,62.014 L322.752,62.014 z" fill="#7EBB05"/>
        <path d="M359.234,51.849 C359.234,52.993 359.417,54.071 359.784,55.083 C360.151,56.096 360.686,56.976 361.39,57.724 C362.094,58.472 362.945,59.066 363.943,59.506 C364.94,59.946 366.055,60.166 367.288,60.166 C368.52,60.166 369.634,59.946 370.632,59.506 C371.63,59.066 372.48,58.472 373.184,57.724 C373.888,56.976 374.423,56.096 374.791,55.083 C375.157,54.071 375.34,52.993 375.34,51.849 C375.34,50.705 375.157,49.626 374.791,48.615 C374.423,47.602 373.888,46.722 373.184,45.974 C372.48,45.226 371.63,44.632 370.632,44.192 C369.634,43.752 368.52,43.532 367.288,43.532 C366.055,43.532 364.94,43.752 363.943,44.192 C362.945,44.632 362.094,45.226 361.39,45.974 C360.686,46.722 360.151,47.602 359.784,48.615 C359.417,49.626 359.234,50.705 359.234,51.849 M356.593,51.849 C356.593,50.294 356.858,48.864 357.386,47.558 C357.914,46.253 358.647,45.123 359.587,44.17 C360.525,43.217 361.655,42.475 362.975,41.947 C364.295,41.419 365.732,41.155 367.288,41.155 C368.842,41.155 370.272,41.419 371.578,41.947 C372.883,42.475 374.013,43.217 374.966,44.17 C375.92,45.123 376.661,46.253 377.189,47.558 C377.717,48.864 377.981,50.294 377.981,51.849 C377.981,53.404 377.717,54.834 377.189,56.14 C376.661,57.445 375.92,58.575 374.966,59.528 C374.013,60.482 372.883,61.223 371.578,61.75 C370.272,62.279 368.842,62.543 367.288,62.543 C365.732,62.543 364.295,62.279 362.975,61.75 C361.655,61.223 360.525,60.482 359.587,59.528 C358.647,58.575 357.914,57.445 357.386,56.14 C356.858,54.834 356.593,53.404 356.593,51.849" fill="#7EBB05"/>
        <path d="M383.878,47.404 C383.878,47.023 383.863,46.561 383.834,46.018 C383.805,45.475 383.782,44.925 383.768,44.367 C383.753,43.811 383.731,43.289 383.702,42.805 C383.673,42.321 383.658,41.947 383.658,41.683 L386.299,41.683 C386.327,42.446 386.35,43.179 386.364,43.883 C386.379,44.588 386.415,45.043 386.475,45.248 C387.149,44.045 388.015,43.063 389.071,42.299 C390.127,41.537 391.418,41.155 392.943,41.155 C393.207,41.155 393.464,41.177 393.714,41.221 C393.963,41.265 394.22,41.317 394.483,41.375 L394.176,43.971 C393.823,43.855 393.486,43.796 393.163,43.796 C392.02,43.796 391.029,43.979 390.193,44.345 C389.357,44.713 388.667,45.219 388.125,45.864 C387.581,46.509 387.179,47.265 386.914,48.13 C386.65,48.996 386.519,49.927 386.519,50.925 L386.519,62.014 L383.878,62.014 z" fill="#7EBB05"/>
        <path d="M398.973,28.744 L401.613,28.744 L401.613,62.014 L398.973,62.014 z" fill="#7EBB05"/>
        <path d="M427.137,51.849 C427.137,50.705 426.917,49.626 426.477,48.615 C426.036,47.602 425.435,46.722 424.672,45.974 C423.909,45.226 423.015,44.632 421.989,44.192 C420.961,43.752 419.846,43.532 418.644,43.532 C417.411,43.532 416.296,43.752 415.299,44.192 C414.301,44.632 413.45,45.226 412.746,45.974 C412.042,46.722 411.507,47.602 411.14,48.615 C410.773,49.626 410.59,50.705 410.59,51.849 C410.59,52.993 410.773,54.071 411.14,55.083 C411.507,56.096 412.042,56.976 412.746,57.724 C413.45,58.472 414.301,59.066 415.299,59.506 C416.296,59.946 417.411,60.166 418.644,60.166 C419.846,60.166 420.961,59.946 421.989,59.506 C423.015,59.066 423.909,58.472 424.672,57.724 C425.435,56.976 426.036,56.096 426.477,55.083 C426.917,54.071 427.137,52.993 427.137,51.849 M426.873,58.45 L426.784,58.45 C426.373,59.154 425.861,59.763 425.244,60.276 C424.628,60.79 423.961,61.216 423.242,61.553 C422.523,61.89 421.768,62.139 420.976,62.301 C420.184,62.461 419.407,62.543 418.644,62.543 C417.088,62.543 415.651,62.279 414.331,61.75 C413.011,61.223 411.881,60.482 410.943,59.528 C410.003,58.575 409.27,57.445 408.742,56.14 C408.214,54.834 407.95,53.404 407.95,51.849 C407.95,50.294 408.214,48.864 408.742,47.558 C409.27,46.253 410.003,45.123 410.943,44.17 C411.881,43.217 413.011,42.475 414.331,41.947 C415.651,41.419 417.088,41.155 418.644,41.155 C419.407,41.155 420.184,41.236 420.976,41.397 C421.768,41.559 422.523,41.808 423.242,42.145 C423.961,42.483 424.628,42.909 425.244,43.422 C425.861,43.935 426.373,44.544 426.784,45.248 L426.873,45.248 L426.873,28.745 L429.513,28.745 L429.513,62.015 L426.873,62.015 z" fill="#7EBB05"/>
        <path d="M445.707,58.934 L457.412,46.568 C457.94,46.04 458.469,45.476 458.997,44.874 C459.524,44.273 460.001,43.642 460.427,42.981 C460.852,42.321 461.197,41.625 461.461,40.891 C461.726,40.158 461.857,39.366 461.857,38.515 C461.857,36.696 461.27,35.273 460.097,34.246 C458.923,33.22 457.441,32.706 455.652,32.706 C454.038,32.706 452.674,33.176 451.56,34.114 C450.444,35.054 449.726,36.286 449.403,37.81 L446.322,37.503 C446.821,35.098 447.922,33.3 449.623,32.112 C451.324,30.924 453.378,30.33 455.784,30.33 C456.987,30.33 458.131,30.513 459.217,30.88 C460.302,31.247 461.256,31.767 462.077,32.442 C462.898,33.117 463.552,33.946 464.035,34.928 C464.519,35.912 464.762,37.034 464.762,38.295 C464.762,39.498 464.578,40.613 464.212,41.639 C463.845,42.666 463.36,43.642 462.76,44.566 C462.157,45.49 461.468,46.363 460.691,47.184 C459.913,48.006 459.129,48.828 458.337,49.648 L448.611,59.638 L464.981,59.638 L464.981,62.015 L445.707,62.015 z" fill="#FFFFFF"/>
        <path d="M470.755,46.435 C470.755,47.257 470.783,48.16 470.843,49.142 C470.901,50.125 471.019,51.122 471.194,52.134 C471.371,53.146 471.627,54.136 471.965,55.104 C472.302,56.073 472.742,56.931 473.285,57.68 C473.827,58.427 474.495,59.029 475.287,59.483 C476.079,59.938 477.032,60.166 478.148,60.166 C479.234,60.166 480.179,59.938 480.986,59.483 C481.793,59.029 482.468,58.427 483.011,57.68 C483.553,56.931 483.993,56.073 484.331,55.104 C484.668,54.136 484.925,53.146 485.101,52.134 C485.277,51.122 485.394,50.125 485.453,49.142 C485.512,48.16 485.541,47.257 485.541,46.435 C485.541,45.643 485.512,44.748 485.453,43.751 C485.394,42.754 485.277,41.748 485.101,40.736 C484.925,39.724 484.668,38.734 484.331,37.766 C483.993,36.799 483.553,35.939 483.011,35.191 C482.468,34.444 481.793,33.842 480.986,33.387 C480.179,32.933 479.234,32.705 478.148,32.705 C477.063,32.705 476.116,32.933 475.31,33.387 C474.502,33.842 473.827,34.444 473.285,35.191 C472.742,35.939 472.302,36.799 471.965,37.766 C471.627,38.734 471.371,39.724 471.194,40.736 C471.019,41.748 470.901,42.754 470.843,43.751 C470.783,44.748 470.755,45.643 470.755,46.435 M467.851,46.435 C467.851,45.321 467.901,44.14 468.004,42.893 C468.107,41.646 468.297,40.428 468.576,39.24 C468.855,38.052 469.236,36.924 469.721,35.852 C470.205,34.781 470.827,33.835 471.591,33.014 C472.354,32.192 473.27,31.539 474.341,31.055 C475.412,30.571 476.681,30.329 478.148,30.329 C479.614,30.329 480.883,30.571 481.954,31.055 C483.026,31.539 483.942,32.192 484.705,33.014 C485.468,33.835 486.091,34.781 486.575,35.852 C487.06,36.924 487.441,38.052 487.72,39.24 C487.998,40.428 488.189,41.646 488.291,42.893 C488.394,44.14 488.445,45.321 488.445,46.435 C488.445,47.58 488.394,48.768 488.291,50 C488.189,51.232 487.998,52.442 487.72,53.63 C487.441,54.819 487.06,55.948 486.575,57.019 C486.091,58.09 485.468,59.036 484.705,59.857 C483.942,60.68 483.026,61.331 481.954,61.815 C480.883,62.3 479.614,62.542 478.148,62.542 C476.681,62.542 475.412,62.3 474.341,61.815 C473.27,61.331 472.354,60.68 471.591,59.857 C470.827,59.036 470.205,58.09 469.721,57.019 C469.236,55.948 468.855,54.819 468.576,53.63 C468.297,52.442 468.107,51.232 468.004,50 C467.901,48.768 467.851,47.58 467.851,46.435" fill="#FFFFFF"/>
        <path d="M490.853,58.934 L502.557,46.568 C503.085,46.04 503.615,45.476 504.142,44.874 C504.669,44.273 505.146,43.642 505.572,42.981 C505.997,42.321 506.342,41.625 506.607,40.891 C506.871,40.158 507.003,39.366 507.003,38.515 C507.003,36.696 506.415,35.273 505.242,34.246 C504.068,33.22 502.586,32.706 500.797,32.706 C499.184,32.706 497.819,33.176 496.706,34.114 C495.59,35.054 494.871,36.286 494.548,37.81 L491.467,37.503 C491.966,35.098 493.068,33.3 494.768,32.112 C496.469,30.924 498.523,30.33 500.93,30.33 C502.133,30.33 503.276,30.513 504.362,30.88 C505.447,31.247 506.401,31.767 507.223,32.442 C508.043,33.117 508.697,33.946 509.18,34.928 C509.664,35.912 509.908,37.034 509.908,38.295 C509.908,39.498 509.723,40.613 509.357,41.639 C508.991,42.666 508.505,43.642 507.905,44.566 C507.302,45.49 506.613,46.363 505.836,47.184 C505.059,48.006 504.275,48.828 503.482,49.648 L493.757,59.638 L510.126,59.638 L510.126,62.015 L490.853,62.015 z" fill="#FFFFFF"/>
        <path d="M521.994,34.554 L521.95,34.554 L516.317,39.175 L514.689,37.151 L522.39,30.858 L524.635,30.858 L524.635,62.014 L521.994,62.014 z" fill="#FFFFFF"/>
      </g>
    </g>
  </g>
</svg>
