<?xml version="1.0" encoding="UTF-8"?>
<!DOCTYPE svg PUBLIC "-//W3C//DTD SVG 1.1//EN" "http://www.w3.org/Graphics/SVG/1.1/DTD/svg11.dtd">
<svg version="1.1" xmlns="http://www.w3.org/2000/svg" xmlns:xlink="http://www.w3.org/1999/xlink" x="0" y="0" width="1600" height="745" viewBox="0, 0, 1600, 745">
  <defs>
    <linearGradient id="Gradient_1" gradientUnits="userSpaceOnUse" x1="1015.434" y1="194.773" x2="1350.965" y2="530.304">
      <stop offset="0" stop-color="#0075C9"/>
      <stop offset="0.214" stop-color="#0075C9"/>
      <stop offset="0.707" stop-color="#80BC00"/>
      <stop offset="1" stop-color="#FDE021"/>
    </linearGradient>
  </defs>
  <g id="Layer_1">
    <path d="M-628,776.525 L1607,776.525 L1607,-2 L-628,-2 z" fill="#54565A"/>
    <path d="M1632.432,778.525 L1714.933,778.525 L1714.933,0 L1632.432,0 z M1632.432,0 M1504.75,0 L1339.859,285.89 L1222.217,81.928 L1363.979,0 L1221.006,0 L1186.311,20.052 L1174.745,0 L1092.184,0 L1124.439,55.953 L709.642,295.821 L709.642,0 L638.598,0 L638.598,295.057 L223.794,55.19 L255.609,0 L172.724,0 L161.161,20.052 L126.463,0 L-16.048,0 L126.02,81.928 L8.377,285.89 L-157.05,0 L-239.254,0 L-32.87,356.93 L-276.638,778.525 L-194.133,778.525 L7.613,428.74 L125.256,632.702 L-127.068,778.525 L14.579,778.525 L161.161,693.815 L210.019,778.525 L292.561,778.525 L223.034,657.909 L637.831,418.046 L637.831,778.525 L709.642,778.525 L709.642,418.809 L1124.439,658.673 L1055.128,778.525 L1137.45,778.525 L1186.311,693.815 L1332.894,778.525 L1475.863,778.525 L1222.217,631.935 L1339.859,427.973 L1542.045,778.525 L1624.878,778.525 L1381.11,356.93 L1587.49,0 z M745.543,356.93 L1160.344,117.066 L1298.609,356.93 L1160.344,596.801 z M48.864,356.93 L187.132,117.066 L601.926,356.93 L187.132,596.801 z M-365.937,778.525 L-284.196,778.525 L-284.196,0 L-365.937,0 z" fill="#4D4F51"/>
    <path d="M1181.599,117.783 L972.964,238.345 L971.861,238.966 L970.459,239.754 L970.459,485.246 L971.861,486.034 L1181.759,607.217 L1183.161,607.998 L1184.563,607.217 L1391.65,487.75 L1394.461,486.187 L1395.863,485.406 L1395.863,239.754 L1394.308,238.966 L1184.41,117.783 L1183.008,117.002 z M1204.086,148.389 L1357.919,237.257 L1255.31,237.257 z M1162.083,148.389 L1110.705,237.257 L1008.089,237.257 z M1190.353,153.858 L1238.445,237.257 L1190.353,237.257 z M1175.817,153.858 L1175.817,237.257 L1127.724,237.257 z M1091.022,300.813 L1119.292,251.772 L1175.817,251.772 L1175.817,349.847 z M1263.743,251.933 L1359.949,251.933 L1287.8,293.636 z M1190.353,251.933 L1246.878,251.933 L1275.147,300.974 L1190.353,350.008 z M1006.067,251.933 L1102.273,251.933 L1078.216,293.636 z M1295.138,306.282 L1367.28,264.585 L1319.194,347.978 z M998.722,264.585 L1071.032,306.282 L1046.982,347.978 z M1327.62,362.5 L1379.005,273.639 L1379.005,451.361 z M987.172,273.639 L1038.549,362.5 L987.172,451.361 z M1197.683,362.5 L1282.485,313.466 L1310.755,362.5 L1282.485,411.534 z M1055.254,362.5 L1083.524,313.466 L1168.333,362.5 L1083.524,411.534 z M1090.868,424.026 L1175.663,374.992 L1175.663,473.067 L1175.817,473.067 L1119.131,473.067 z M1190.353,375.153 L1275.147,424.187 L1246.878,473.067 L1190.353,473.067 z M1295.138,418.725 L1319.194,377.022 L1367.28,460.422 z M1046.822,377.182 L1070.878,418.879 L998.722,460.575 z M1287.8,431.371 L1359.949,473.067 L1263.743,473.067 z M1078.216,431.371 L1102.273,473.067 L1006.067,473.067 z M1255.31,487.75 L1357.919,487.75 L1204.086,576.611 z M1190.353,487.75 L1238.445,487.75 L1190.353,571.149 z M1127.724,487.75 L1175.817,487.75 L1175.817,571.149 z M1008.089,487.75 L1110.705,487.75 L1162.083,576.611 z" fill="url(#Gradient_1)"/>
  </g>
</svg>
