<?xml version="1.0" encoding="UTF-8" standalone="no"?>
<svg
   xmlns:dc="http://purl.org/dc/elements/1.1/"
   xmlns:cc="http://creativecommons.org/ns#"
   xmlns:rdf="http://www.w3.org/1999/02/22-rdf-syntax-ns#"
   xmlns:svg="http://www.w3.org/2000/svg"
   xmlns="http://www.w3.org/2000/svg"
   viewBox="0 0 608.9046 678.14917"
   height="678.14917"
   width="608.9046"
   xml:space="preserve"
   id="svg2"
   version="1.1"><metadata
     id="metadata8"><rdf:RDF><cc:Work
         rdf:about=""><dc:format>image/svg+xml</dc:format><dc:type
           rdf:resource="http://purl.org/dc/dcmitype/StillImage" /><dc:title></dc:title></cc:Work></rdf:RDF></metadata><defs
     id="defs6"><clipPath
       id="clipPath18"
       clipPathUnits="userSpaceOnUse"><path
         id="path16"
         d="M 0,648 H 576 V 0 H 0 Z" /></clipPath></defs><g
     transform="matrix(1.3333333,0,0,-1.3333333,-79.094931,769.91798)"
     id="g10"><g
       id="g12"><g
         clip-path="url(#clipPath18)"
         id="g14"><g
           transform="translate(65.5942,443.5244)"
           id="g20"><path
             id="path22"
             style="fill:#4e4e4e;fill-opacity:1;fill-rule:nonzero;stroke:none"
             d="m 0,0 12.554,-7.672 4.198,6.875 c 1.555,2.538 2.114,4.719 1.687,6.542 -0.428,1.818 -1.57,3.301 -3.436,4.441 -0.91,0.557 -1.842,0.917 -2.787,1.08 -0.945,0.161 -1.869,0.14 -2.779,-0.059 C 8.531,11.005 7.63,10.557 6.732,9.855 5.83,9.157 4.991,8.162 4.206,6.874 Z M -6.273,-1.807 0.14,8.691 c 2.557,4.184 5.333,6.627 8.325,7.332 2.993,0.707 6.009,0.128 9.049,-1.729 1.026,-0.63 1.943,-1.421 2.736,-2.381 0.801,-0.958 1.446,-2.017 1.936,-3.182 C 22.679,7.569 22.975,6.345 23.072,5.057 23.177,3.769 23.025,2.49 22.613,1.225 l 20.884,-1.479 -2.725,-4.451 -20.499,1.716 -4.182,-6.846 15.687,-9.589 -2.511,-4.106 z" /></g><g
           transform="translate(97.6445,494.9365)"
           id="g24"><path
             id="path26"
             style="fill:#4e4e4e;fill-opacity:1;fill-rule:nonzero;stroke:none"
             d="M 0,0 18.318,17.799 21.206,14.828 6.055,0.101 l 9.55,-9.828 12.516,12.16 3.074,-3.163 -12.515,-12.163 10.673,-10.983 15.01,14.587 2.888,-2.974 -18.178,-17.659 z" /></g><g
           transform="translate(156.6841,533.3354)"
           id="g28"><path
             id="path30"
             style="fill:#4e4e4e;fill-opacity:1;fill-rule:nonzero;stroke:none"
             d="m 0,0 c -0.708,-3.433 0.404,-7.704 3.323,-12.81 1.329,-2.321 2.74,-4.315 4.233,-5.977 1.488,-1.665 3.02,-2.945 4.59,-3.845 1.566,-0.902 3.164,-1.398 4.789,-1.497 1.62,-0.099 3.128,0.251 4.52,1.048 0.967,0.554 1.823,1.364 2.573,2.437 0.746,1.068 1.232,2.4 1.453,3.989 0.218,1.59 0.074,3.409 -0.427,5.457 -0.505,2.049 -1.489,4.352 -2.95,6.902 C 20.242,-1.047 18.458,1.448 16.74,3.189 15.026,4.931 13.363,6.11 11.749,6.726 10.137,7.346 8.699,7.589 7.439,7.457 6.18,7.327 5.084,6.997 4.155,6.466 2.997,5.799 2.08,4.89 1.403,3.733 0.73,2.577 0.264,1.332 0,0 m 25.427,-1.082 c 3.055,-5.339 4.571,-10.073 4.544,-14.197 -0.028,-4.125 -1.582,-7.581 -4.66,-10.369 0.808,-1.232 1.737,-2.088 2.782,-2.57 1.046,-0.48 2.379,-0.254 4.008,0.677 0.19,0.108 0.489,0.305 0.894,0.588 0.4,0.283 0.851,0.578 1.34,0.885 0.494,0.309 0.949,0.608 1.373,0.902 0.423,0.293 0.73,0.493 0.924,0.606 l 2.146,-4.013 -2.266,-1.297 c -1.897,-1.084 -3.549,-1.9 -4.951,-2.45 -1.408,-0.548 -2.71,-0.701 -3.899,-0.461 -1.193,0.244 -2.258,0.778 -3.191,1.606 -0.937,0.823 -1.835,1.991 -2.698,3.502 -1.582,-0.65 -3.284,-0.947 -5.118,-0.888 -1.827,0.056 -3.716,0.528 -5.663,1.416 -1.948,0.892 -3.868,2.245 -5.757,4.066 -1.888,1.817 -3.676,4.2 -5.356,7.14 -2.083,3.636 -3.397,6.891 -3.933,9.767 -0.544,2.872 -0.575,5.372 -0.093,7.498 0.478,2.122 1.294,3.924 2.448,5.408 1.155,1.481 2.41,2.61 3.763,3.387 1.663,0.953 3.459,1.518 5.387,1.697 1.924,0.179 3.953,-0.138 6.087,-0.944 2.133,-0.811 4.17,-2.173 6.117,-4.091 1.944,-1.917 3.867,-4.54 5.772,-7.865" /></g><g
           transform="translate(206.3643,564.5269)"
           id="g32"><path
             id="path34"
             style="fill:#4e4e4e;fill-opacity:1;fill-rule:nonzero;stroke:none"
             d="M 0,0 5.096,1.389 C 5.139,1.401 5.173,1.364 5.193,1.279 5.243,1.106 5.216,0.829 5.107,0.454 5.002,0.079 4.971,-0.358 5.014,-0.853 l 6.643,-24.364 c 0.61,-2.241 1.294,-3.916 2.059,-5.028 0.766,-1.109 1.645,-1.959 2.636,-2.544 0.991,-0.586 2.067,-0.931 3.23,-1.03 1.154,-0.1 2.351,-0.029 3.579,0.214 1.182,0.412 2.251,0.936 3.211,1.568 0.96,0.632 1.722,1.475 2.289,2.533 0.564,1.059 0.902,2.271 1.014,3.645 0.113,1.372 -0.151,3.223 -0.781,5.549 l -7.155,26.235 4.322,1.178 7.124,-26.125 c 0.715,-2.624 1.026,-4.917 0.937,-6.881 -0.085,-1.965 -0.567,-3.714 -1.446,-5.247 -0.874,-1.532 -2.025,-2.818 -3.451,-3.85 -1.427,-1.036 -3.129,-1.825 -5.107,-2.363 -1.936,-0.529 -3.783,-0.708 -5.539,-0.541 -1.757,0.169 -3.362,0.678 -4.82,1.529 -1.453,0.85 -2.72,2.028 -3.801,3.536 -1.081,1.506 -2.009,3.68 -2.783,6.52 z" /></g><g
           transform="translate(272.75,576.8105)"
           id="g36"><path
             id="path38"
             style="fill:#4e4e4e;fill-opacity:1;fill-rule:nonzero;stroke:none"
             d="m 0,0 20.782,0.628 0.117,-3.877 -8.22,-0.247 1.026,-34.019 8.62,0.261 0.114,-3.811 -21.65,-0.651 -0.117,3.875 8.217,0.249 -1.022,33.95 -7.75,-0.233 z" /></g><g
           transform="translate(339.7188,567.5952)"
           id="g40"><path
             id="path42"
             style="fill:#4e4e4e;fill-opacity:1;fill-rule:nonzero;stroke:none"
             d="m 0,0 -3.443,-14.305 7.835,-1.887 c 2.888,-0.696 5.138,-0.56 6.74,0.408 1.601,0.964 2.658,2.509 3.171,4.635 0.249,1.04 0.307,2.033 0.172,2.985 -0.137,0.951 -0.44,1.825 -0.911,2.625 -0.469,0.801 -1.173,1.522 -2.114,2.162 -0.944,0.639 -2.149,1.136 -3.614,1.49 z M -3.649,5.415 8.313,2.532 c 4.766,-1.142 7.945,-3.034 9.539,-5.662 1.589,-2.632 1.966,-5.679 1.13,-9.146 -0.279,-1.172 -0.753,-2.284 -1.421,-3.339 -0.665,-1.055 -1.478,-1.992 -2.434,-2.816 -0.956,-0.826 -2.028,-1.483 -3.226,-1.974 -1.197,-0.494 -2.457,-0.739 -3.786,-0.739 l 5.007,-20.325 -5.068,1.22 -4.668,20.038 -7.801,1.878 -4.303,-17.879 -4.679,1.129 z" /></g><g
           transform="translate(398.4355,552.8628)"
           id="g44"><path
             id="path46"
             style="fill:#4e4e4e;fill-opacity:1;fill-rule:nonzero;stroke:none"
             d="m 0,0 22.539,-12.014 -1.947,-3.659 -18.649,9.94 -6.448,-12.098 15.404,-8.207 -2.076,-3.894 -15.403,8.209 -7.202,-13.512 18.469,-9.846 -1.947,-3.657 -22.364,11.919 z" /></g><g
           transform="translate(439.666,509.0879)"
           id="g48"><path
             id="path50"
             style="fill:#4e4e4e;fill-opacity:1;fill-rule:nonzero;stroke:none"
             d="m 0,0 c 0.241,-1.561 -0.085,-2.917 -0.983,-4.075 -0.898,-1.156 -2.119,-1.821 -3.662,-1.994 -1.546,-0.173 -2.946,0.229 -4.205,1.205 -1.255,0.975 -1.99,2.212 -2.204,3.704 -0.21,1.495 0.152,2.845 1.089,4.052 0.937,1.205 2.18,1.874 3.727,2.001 1.551,0.129 2.904,-0.256 4.062,-1.152 C -1.018,2.845 -0.291,1.598 0,0" /></g><g
           transform="translate(475.5566,496.8486)"
           id="g52"><path
             id="path54"
             style="fill:#4e4e4e;fill-opacity:1;fill-rule:nonzero;stroke:none"
             d="m 0,0 12.885,-14.041 -2.858,-2.623 -4.34,4.73 -17.522,-16.074 c -2.01,-1.84 -3.859,-3.191 -5.555,-4.05 -1.694,-0.859 -3.365,-1.286 -5.009,-1.28 -1.641,0.006 -3.086,0.313 -4.338,0.917 -1.251,0.606 -2.39,1.467 -3.416,2.585 -2.682,2.922 -3.763,6.376 -3.245,10.357 l 4.931,0.263 c -0.004,-0.188 -0.108,-0.39 -0.306,-0.602 -0.199,-0.212 -0.32,-0.43 -0.362,-0.647 l -0.047,-1.136 c -0.046,-0.281 -0.019,-0.652 0.071,-1.111 0.089,-0.463 0.232,-0.95 0.434,-1.461 0.199,-0.515 0.42,-1.021 0.669,-1.522 0.245,-0.499 0.548,-0.947 0.909,-1.339 1.508,-1.644 3.184,-2.315 5.03,-2.013 1.842,0.301 4.198,1.764 7.062,4.394 l 17.576,16.12 -5.425,5.912 z" /></g><g
           transform="translate(515.1514,432.9292)"
           id="g56"><path
             id="path58"
             style="fill:#4e4e4e;fill-opacity:1;fill-rule:nonzero;stroke:none"
             d="m 0,0 -4.944,0.566 c -0.035,0.239 0.07,0.439 0.31,0.602 0.241,0.164 0.397,0.317 0.467,0.46 0.664,1.355 0.964,2.848 0.909,4.482 -0.061,1.633 -0.622,3.38 -1.682,5.237 -1.019,1.78 -2.387,2.964 -4.105,3.547 -1.718,0.585 -3.296,0.466 -4.726,-0.35 -0.851,-0.485 -1.504,-1.053 -1.959,-1.696 -0.455,-0.643 -0.801,-1.43 -1.038,-2.363 -0.237,-0.931 -0.327,-2.15 -0.264,-3.654 0.066,-1.504 0.261,-3.397 0.583,-5.671 0.284,-2.202 0.396,-4.087 0.346,-5.659 -0.054,-1.568 -0.288,-2.934 -0.704,-4.094 -0.416,-1.162 -0.999,-2.148 -1.741,-2.958 -0.742,-0.809 -1.676,-1.535 -2.799,-2.175 -1.239,-0.707 -2.623,-1.189 -4.143,-1.442 -1.524,-0.254 -3.059,-0.169 -4.61,0.254 -1.55,0.424 -3.066,1.213 -4.55,2.371 -1.478,1.155 -2.83,2.799 -4.043,4.927 -2.674,4.685 -3.285,9.346 -1.823,13.975 l 5.542,0.006 c -0.004,-0.259 -0.143,-0.467 -0.416,-0.622 -0.271,-0.154 -0.45,-0.334 -0.536,-0.538 -0.618,-1.532 -0.87,-3.265 -0.761,-5.207 0.104,-1.941 0.765,-3.976 1.982,-6.106 0.618,-1.082 1.372,-1.977 2.262,-2.674 0.886,-0.701 1.815,-1.207 2.795,-1.524 0.971,-0.315 1.986,-0.429 3.043,-0.341 1.049,0.089 2.041,0.396 2.969,0.928 0.735,0.418 1.333,0.927 1.788,1.52 0.454,0.595 0.782,1.333 0.972,2.212 0.19,0.878 0.245,1.999 0.159,3.363 -0.086,1.363 -0.276,3.114 -0.575,5.253 -0.346,2.317 -0.502,4.321 -0.467,6.007 0.039,1.691 0.222,3.143 0.556,4.362 0.331,1.214 0.848,2.242 1.551,3.078 0.704,0.838 1.578,1.556 2.62,2.151 1.317,0.752 2.717,1.18 4.201,1.281 1.481,0.103 2.938,-0.094 4.373,-0.581 1.435,-0.492 2.779,-1.277 4.038,-2.356 1.256,-1.078 2.328,-2.39 3.211,-3.939 C -0.082,10.658 0.583,8.57 0.784,6.376 0.982,4.182 0.723,2.058 0,0" /></g><g
           transform="translate(466.8232,317.5781)"
           id="g60"><path
             id="path62"
             style="fill:#53a2d9;fill-opacity:1;fill-rule:nonzero;stroke:none"
             d="m 0,0 c 0,-98.917 -80.184,-179.101 -179.102,-179.101 -98.917,0 -179.101,80.184 -179.101,179.101 0,98.914 80.184,179.1 179.101,179.1 C -80.184,179.1 0,98.914 0,0" /></g><g
           transform="translate(407.123,317.5781)"
           id="g64"><path
             id="path66"
             style="fill:#f04e43;fill-opacity:1;fill-rule:nonzero;stroke:none"
             d="m 0,0 c 0,-65.946 -53.459,-119.4 -119.401,-119.4 -65.943,0 -119.401,53.454 -119.401,119.4 0,65.943 53.458,119.399 119.401,119.399 C -53.459,119.399 0,65.943 0,0" /></g><g
           transform="translate(347.4219,317.5781)"
           id="g68"><path
             id="path70"
             style="fill:#f7ec20;fill-opacity:1;fill-rule:nonzero;stroke:none"
             d="m 0,0 c 0,-32.975 -26.725,-59.7 -59.7,-59.7 -32.971,0 -59.7,26.725 -59.7,59.7 0,32.97 26.729,59.699 59.7,59.699 C -26.725,59.699 0,32.97 0,0" /></g><g
           transform="translate(415.9727,88.5166)"
           id="g72"><path
             id="path74"
             style="fill:#4e4e4e;fill-opacity:1;fill-rule:nonzero;stroke:none"
             d="m 0,0 -23.88,11.94 c -0.618,0.311 -1.352,0.273 -1.935,-0.089 -0.587,-0.362 -0.945,-1.002 -0.945,-1.691 V 0.21 h -180.096 l -11.342,15.12 c -0.665,0.886 -1.908,1.057 -2.787,0.4 -0.878,-0.657 -1.057,-1.909 -0.4,-2.787 l 9.553,-12.733 h -6.964 l -11.342,15.12 c -0.665,0.886 -1.908,1.057 -2.787,0.4 -0.878,-0.657 -1.057,-1.909 -0.4,-2.787 l 9.554,-12.733 h -6.965 l -11.342,15.12 c -0.665,0.886 -1.912,1.057 -2.787,0.4 -0.878,-0.657 -1.057,-1.909 -0.4,-2.787 l 9.554,-12.733 h -6.966 l -11.341,15.12 c -0.665,0.886 -1.913,1.057 -2.787,0.4 -0.879,-0.657 -1.057,-1.909 -0.4,-2.787 l 9.553,-12.733 h -3.98 c -1.099,0 -1.99,-0.894 -1.99,-1.99 0,-1.104 0.891,-1.99 1.99,-1.99 h 3.98 l -9.553,-12.741 c -0.657,-0.878 -0.479,-2.122 0.4,-2.783 0.358,-0.267 0.777,-0.396 1.193,-0.396 0.603,0 1.201,0.272 1.594,0.793 l 11.341,15.127 h 6.966 l -9.554,-12.741 c -0.657,-0.878 -0.478,-2.122 0.4,-2.783 0.358,-0.267 0.778,-0.396 1.193,-0.396 0.603,0 1.201,0.272 1.594,0.793 l 11.342,15.127 h 6.965 l -9.554,-12.741 c -0.657,-0.878 -0.478,-2.122 0.4,-2.783 0.358,-0.267 0.778,-0.396 1.194,-0.396 0.602,0 1.2,0.272 1.593,0.793 l 11.342,15.127 h 6.964 l -9.553,-12.741 c -0.657,-0.878 -0.478,-2.122 0.4,-2.783 0.358,-0.267 0.777,-0.396 1.194,-0.396 0.602,0 1.201,0.272 1.593,0.793 l 11.342,15.127 H -26.76 v -9.95 c 0,-0.692 0.358,-1.329 0.945,-1.694 0.318,-0.198 0.679,-0.296 1.044,-0.296 0.304,0 0.611,0.07 0.891,0.21 L 0,-3.56 c 0.673,0.334 1.1,1.026 1.1,1.78 C 1.1,-1.025 0.673,-0.342 0,0" /></g></g></g></g></svg>