<?xml version="1.0" encoding="UTF-8"?>
<!DOCTYPE svg PUBLIC "-//W3C//DTD SVG 1.1//EN" "http://www.w3.org/Graphics/SVG/1.1/DTD/svg11.dtd">
<svg version="1.1" xmlns="http://www.w3.org/2000/svg" xmlns:xlink="http://www.w3.org/1999/xlink" x="0" y="0" width="1600" height="400" viewBox="0, 0, 1600, 400">
  <defs>
    <linearGradient id="Gradient_1" gradientUnits="userSpaceOnUse" x1="328.815" y1="92.631" x2="543.556" y2="307.371">
      <stop offset="0.214" stop-color="#0075C9"/>
      <stop offset="0.707" stop-color="#80BC00"/>
      <stop offset="1" stop-color="#FDE021"/>
    </linearGradient>
  </defs>
  <g id="Layer_1">
    <path d="M0,0 L1606,0 L1606,400 L0,400 L0,0 z" fill="#FFFFFF"/>
    <path d="M571.45,120.9 L437.05,43.3 L436.15,42.8 L435.25,43.3 L301.65,120.5 L300.95,120.9 L300.05,121.4 L300.05,278.6 L300.95,279.1 L435.35,356.7 L436.25,357.2 L437.15,356.7 L569.75,280.2 L571.55,279.2 L572.45,278.7 L572.45,121.4 L571.45,120.9 z M422.75,62.9 L389.85,119.8 L324.15,119.8 L422.75,62.9 z M384.45,129.2 L369.05,155.9 L322.85,129.2 L384.45,129.2 z M372.45,168.6 L426.75,200 L372.45,231.4 L354.35,200 L372.45,168.6 z M364.45,164 L349.05,190.7 L318.15,137.3 L364.45,164 z M310.75,143.1 L343.65,200 L310.75,256.9 L310.75,143.1 z M348.95,209.4 L364.35,236.1 L318.15,262.8 L348.95,209.4 z M369.05,244.1 L384.45,270.8 L322.85,270.8 L369.05,244.1 z M324.15,280.2 L389.85,280.2 L422.75,337.1 L324.15,280.2 z M431.55,333.6 L400.75,280.2 L431.55,280.2 L431.55,333.6 z M431.55,270.8 L395.25,270.8 L377.15,239.4 L431.45,208 L431.45,270.8 z M431.55,191.9 L377.25,160.5 L395.35,129.1 L431.55,129.1 L431.55,191.9 z M431.55,119.8 L400.75,119.8 L431.55,66.4 L431.55,119.8 z M507.95,164 L554.15,137.3 L523.35,190.7 L507.95,164 z M517.95,200 L499.85,231.4 L445.55,200 L499.85,168.6 L517.95,200 z M503.25,155.9 L487.85,129.2 L549.45,129.2 L503.25,155.9 z M548.15,119.8 L482.45,119.8 L449.65,62.9 L548.15,119.8 z M440.85,66.4 L471.65,119.8 L440.85,119.8 L440.85,66.4 z M440.85,129.2 L477.05,129.2 L495.15,160.6 L440.85,192 L440.85,129.2 z M440.85,208.1 L495.15,239.5 L477.05,270.8 L440.85,270.8 L440.85,208.1 z M440.85,280.2 L471.65,280.2 L440.85,333.6 L440.85,280.2 z M449.65,337.1 L482.45,280.2 L548.15,280.2 L449.65,337.1 z M487.85,270.8 L503.25,244.1 L549.45,270.8 L487.85,270.8 z M507.95,236 L523.35,209.3 L554.15,262.7 L507.95,236 z M561.65,256.9 L528.75,200 L561.65,143.1 L561.65,256.9 z" fill="url(#Gradient_1)"/>
    <path d="M608.45,245.5 L672.65,245.5 L672.65,251.3 L615.05,251.3 L615.05,299.8 L667.25,299.8 L667.25,305.8 L615.05,305.8 L615.05,355.7 L608.45,355.7 z" fill="#54565A"/>
    <path d="M683.85,322.5 C683.85,303.5 699.05,288.1 718.35,288.1 C737.65,288.1 752.55,303.5 752.55,322.5 C752.55,341.5 737.65,357 718.35,357 C699.05,357 683.85,341.5 683.85,322.5 M746.05,322.5 C746.05,306.1 734.85,293.8 718.35,293.8 C701.85,293.8 690.35,306.1 690.35,322.5 C690.35,338.9 701.85,351.4 718.35,351.4 C734.85,351.4 746.05,338.9 746.05,322.5" fill="#54565A"/>
    <path d="M769.95,331.3 L769.95,289.6 L776.25,289.6 L776.25,330.3 C776.25,343.8 782.55,351.4 795.25,351.4 C809.55,351.4 819.55,341.8 819.55,326.6 L819.55,289.6 L825.85,289.6 L825.85,355.8 L819.55,355.8 L819.75,341.2 C815.35,351.1 806.25,357.2 794.65,357.2 C779.85,357.2 769.95,347.5 769.95,331.3" fill="#54565A"/>
    <path d="M843.05,289.6 L849.35,289.6 L849.15,304.4 C853.55,294.4 862.75,288.2 874.45,288.2 C889.25,288.2 899.05,298.1 899.05,314.5 L899.05,355.8 L892.75,355.8 L892.75,315.6 C892.75,302 886.45,294 873.65,294 C859.35,294 849.35,303.4 849.35,318.8 L849.35,355.8 L843.05,355.8 L843.05,289.6 z" fill="#54565A"/>
    <path d="M916.35,322.5 C916.35,303 930.15,288.1 949.15,288.1 C962.65,288.1 972.35,295.4 977.15,305.3 L977.15,238.7 L983.45,238.7 L983.45,355.8 L977.15,355.8 L977.45,339.3 C972.75,349.5 961.85,357.1 949.05,357.1 C930.15,357 916.35,342 916.35,322.5 M977.65,322.5 C977.65,306.1 966.65,293.8 949.95,293.8 C933.55,293.8 923.05,306.1 923.05,322.5 C923.05,338.9 933.55,351.4 949.95,351.4 C966.65,351.4 977.65,338.9 977.65,322.5" fill="#54565A"/>
    <path d="M1048.05,314.2 C1048.05,299.3 1041.25,293.6 1030.35,293.6 C1020.25,293.6 1013.45,297.8 1008.75,305 L1004.25,301.8 C1009.75,293.2 1019.15,288.2 1030.55,288.2 C1044.15,288.2 1054.35,296.5 1054.35,313.7 L1054.35,355.9 L1048.05,355.9 L1048.35,345.7 C1044.15,352 1036.85,357.2 1025.45,357.2 C1010.35,357.2 1000.45,350.2 1000.45,336.9 C1000.45,323.8 1011.95,317.6 1024.65,317.6 L1048.05,317.6 L1048.05,314.2 z M1025.45,322.7 C1015.35,322.7 1006.85,326.6 1006.85,336.6 C1006.85,346.7 1013.45,351.4 1026.15,351.4 C1037.15,351.4 1048.05,344.9 1048.05,334.7 L1048.05,322.7 L1025.45,322.7 z" fill="#54565A"/>
    <path d="M1082.55,338.2 L1082.55,294.9 L1072.15,294.9 L1072.15,289.5 L1082.55,289.5 L1082.55,266.3 L1088.85,266.3 L1088.85,289.5 L1107.95,289.5 L1107.95,294.9 L1088.85,294.9 L1088.85,338 C1088.85,347.7 1092.25,351.3 1097.75,351.3 C1103.55,351.3 1105.85,349 1108.25,346.4 L1112.35,350.3 C1109.15,354 1105.25,356.9 1097.75,356.9 C1089.35,357 1082.55,351.7 1082.55,338.2" fill="#54565A"/>
    <path d="M1129.55,261 C1129.55,257.9 1132.15,255.6 1134.95,255.6 C1137.75,255.6 1140.35,257.9 1140.35,261 C1140.35,264.2 1137.75,266.3 1134.95,266.3 C1132.15,266.4 1129.55,264.3 1129.55,261 M1131.85,289.6 L1138.15,289.6 L1138.15,355.8 L1131.85,355.8 L1131.85,289.6 z" fill="#54565A"/>
    <path d="M1157.15,322.5 C1157.15,303.5 1172.35,288.1 1191.65,288.1 C1210.95,288.1 1225.85,303.5 1225.85,322.5 C1225.85,341.5 1210.95,357 1191.65,357 C1172.45,357 1157.15,341.5 1157.15,322.5 M1219.45,322.5 C1219.45,306.1 1208.25,293.8 1191.75,293.8 C1175.25,293.8 1163.75,306.1 1163.75,322.5 C1163.75,338.9 1175.25,351.4 1191.75,351.4 C1208.25,351.4 1219.45,338.9 1219.45,322.5" fill="#54565A"/>
    <path d="M1243.95,289.6 L1250.25,289.6 L1250.05,304.4 C1254.45,294.4 1263.65,288.2 1275.35,288.2 C1290.15,288.2 1299.95,298.1 1299.95,314.5 L1299.95,355.8 L1293.65,355.8 L1293.65,315.6 C1293.65,302 1287.35,294 1274.55,294 C1260.25,294 1250.25,303.4 1250.25,318.8 L1250.25,355.8 L1243.95,355.8 L1243.95,289.6 z" fill="#54565A"/>
    <path d="M608.45,115.9 C608.45,74.5 640.25,44.6 680.15,44.6 C719.75,44.6 751.65,74.4 751.65,115.9 C751.65,157.3 719.75,187.2 680.15,187.2 C640.25,187.1 608.45,157.3 608.45,115.9 M729.45,115.9 C729.45,86.3 709.05,64 680.05,64 C651.05,64 630.45,86.3 630.45,115.9 C630.45,145.5 651.05,167.8 680.05,167.8 C709.05,167.7 729.45,145.5 729.45,115.9" fill="#54565A"/>
    <path d="M773.95,99.6 L794.75,99.6 L794.15,115.5 C799.65,104.9 809.85,97.7 824.55,97.7 C846.55,97.7 864.35,116.3 864.35,142.2 C864.35,168.1 846.35,187.1 824.15,187.1 C809.85,187.1 799.65,180.2 794.75,170.6 L794.75,228.6 L773.95,228.6 L773.95,99.6 z M843.15,142.2 C843.15,126.7 833.75,116.1 818.85,116.1 C803.75,116.1 793.95,126.7 793.95,142.2 C793.95,158.3 803.75,168.9 818.85,168.9 C833.85,169 843.15,158.4 843.15,142.2" fill="#54565A"/>
    <path d="M935.05,169.8 C946.25,169.8 954.45,165.3 959.35,160.6 L971.35,173.3 C963.35,181.3 952.35,187.2 935.25,187.2 C905.85,187.2 886.85,168.2 886.85,142.5 C886.85,117 906.85,97.8 932.55,97.8 C961.75,97.8 978.25,119.4 976.85,149.5 L907.85,149.5 C910.35,161.8 919.35,169.8 935.05,169.8 M956.15,135.1 C954.35,123.5 947.15,114.9 932.85,114.9 C919.55,114.9 910.35,122.2 907.95,135.1 L956.15,135.1 z" fill="#54565A"/>
    <path d="M999.75,99.6 L1020.35,99.6 L1019.95,115.5 C1025.25,104.3 1036.05,97.7 1048.95,97.7 C1067.95,97.7 1081.05,111.2 1081.05,134.4 L1081.05,185.2 L1060.45,185.2 L1060.45,136.1 C1060.45,123.8 1054.75,116.7 1042.65,116.7 C1029.15,116.7 1020.35,124.9 1020.35,138.7 L1020.35,185.2 L999.75,185.2 L999.75,99.6 z" fill="#54565A"/>
    <path d="M1103.55,163.7 L1121.15,152.9 C1126.05,161.7 1131.75,167.8 1141.95,167.8 C1153.55,167.8 1161.15,162.3 1161.15,146.2 L1161.15,46.5 L1182.75,46.5 L1182.75,146.5 C1182.75,174.1 1166.25,187.1 1142.95,187.1 C1122.35,187.1 1110.15,176.5 1103.55,163.7" fill="#54565A"/>
    <path d="M1204.95,158.4 L1222.75,148.6 C1229.25,159.4 1237.65,168 1254.55,168 C1268.65,168 1278.65,160.4 1278.65,149 C1278.65,137 1270.45,131.6 1255.35,124.9 L1246.15,120.8 C1225.95,111.8 1213.65,101.6 1213.65,80.2 C1213.65,59.6 1229.55,44.9 1252.65,44.9 C1271.05,44.8 1283.55,51.8 1291.85,66.7 L1274.95,77.1 C1269.65,67.9 1263.55,63.6 1252.65,63.6 C1241.65,63.6 1234.65,70.3 1234.65,79.7 C1234.65,90.1 1240.55,94.8 1254.65,100.9 L1263.65,105 C1287.35,115.4 1299.95,126.4 1299.95,148.7 C1299.95,173 1280.95,187.1 1254.85,187.1 C1228.55,187.1 1212.65,174.1 1204.95,158.4" fill="#54565A"/>
  </g>
</svg>
