<?xml version="1.0" encoding="UTF-8"?>
<!DOCTYPE svg PUBLIC "-//W3C//DTD SVG 1.1//EN" "http://www.w3.org/Graphics/SVG/1.1/DTD/svg11.dtd">
<svg version="1.1" xmlns="http://www.w3.org/2000/svg" xmlns:xlink="http://www.w3.org/1999/xlink" x="0" y="0" width="1200" height="450" viewBox="0, 0, 1200, 450">
  <defs>
    <linearGradient id="Gradient_1" gradientUnits="userSpaceOnUse" x1="128.815" y1="117.631" x2="343.556" y2="332.371">
      <stop offset="0.214" stop-color="#0075C9"/>
      <stop offset="0.707" stop-color="#80BC00"/>
      <stop offset="1" stop-color="#FDE021"/>
    </linearGradient>
  </defs>
  <g id="Layer_1">
    <g>
      <path d="M371.45,145.9 L237.05,68.3 L236.15,67.8 L235.25,68.3 L101.65,145.5 L100.95,145.9 L100.05,146.4 L100.05,303.6 L100.95,304.1 L235.35,381.7 L236.25,382.2 L237.15,381.7 L369.75,305.2 L371.55,304.2 L372.45,303.7 L372.45,146.4 L371.45,145.9 z M222.75,87.9 L189.85,144.8 L124.15,144.8 L222.75,87.9 z M184.45,154.2 L169.05,180.9 L122.85,154.2 L184.45,154.2 z M172.45,193.6 L226.75,225 L172.45,256.4 L154.35,225 L172.45,193.6 z M164.45,189 L149.05,215.7 L118.15,162.3 L164.45,189 z M110.75,168.1 L143.65,225 L110.75,281.9 L110.75,168.1 z M148.95,234.4 L164.35,261.1 L118.15,287.8 L148.95,234.4 z M169.05,269.1 L184.45,295.8 L122.85,295.8 L169.05,269.1 z M124.15,305.2 L189.85,305.2 L222.75,362.1 L124.15,305.2 z M231.55,358.6 L200.75,305.2 L231.55,305.2 L231.55,358.6 z M231.55,295.8 L195.25,295.8 L177.15,264.4 L231.45,233 L231.45,295.8 z M231.55,216.9 L177.25,185.5 L195.35,154.1 L231.55,154.1 L231.55,216.9 z M231.55,144.8 L200.75,144.8 L231.55,91.4 L231.55,144.8 z M307.95,189 L354.15,162.3 L323.35,215.7 L307.95,189 z M317.95,225 L299.85,256.4 L245.55,225 L299.85,193.6 L317.95,225 z M303.25,180.9 L287.85,154.2 L349.45,154.2 L303.25,180.9 z M348.15,144.8 L282.45,144.8 L249.65,87.9 L348.15,144.8 z M240.85,91.4 L271.65,144.8 L240.85,144.8 L240.85,91.4 z M240.85,154.2 L277.05,154.2 L295.15,185.6 L240.85,217 L240.85,154.2 z M240.85,233.1 L295.15,264.5 L277.05,295.8 L240.85,295.8 L240.85,233.1 z M240.85,305.2 L271.65,305.2 L240.85,358.6 L240.85,305.2 z M249.65,362.1 L282.45,305.2 L348.15,305.2 L249.65,362.1 z M287.85,295.8 L303.25,269.1 L349.45,295.8 L287.85,295.8 z M307.95,261 L323.35,234.3 L354.15,287.7 L307.95,261 z M361.65,281.9 L328.75,225 L361.65,168.1 L361.65,281.9 z" fill="url(#Gradient_1)"/>
      <path d="M408.45,270.5 L472.65,270.5 L472.65,276.3 L415.05,276.3 L415.05,324.8 L467.25,324.8 L467.25,330.8 L415.05,330.8 L415.05,380.7 L408.45,380.7 z" fill="#54565A"/>
      <path d="M483.85,347.5 C483.85,328.5 499.05,313.1 518.35,313.1 C537.65,313.1 552.55,328.5 552.55,347.5 C552.55,366.5 537.65,382 518.35,382 C499.05,382 483.85,366.5 483.85,347.5 M546.05,347.5 C546.05,331.1 534.85,318.8 518.35,318.8 C501.85,318.8 490.35,331.1 490.35,347.5 C490.35,363.9 501.85,376.4 518.35,376.4 C534.85,376.4 546.05,363.9 546.05,347.5" fill="#54565A"/>
      <path d="M569.95,356.3 L569.95,314.6 L576.25,314.6 L576.25,355.3 C576.25,368.8 582.55,376.4 595.25,376.4 C609.55,376.4 619.55,366.8 619.55,351.6 L619.55,314.6 L625.85,314.6 L625.85,380.8 L619.55,380.8 L619.75,366.2 C615.35,376.1 606.25,382.2 594.65,382.2 C579.85,382.2 569.95,372.5 569.95,356.3" fill="#54565A"/>
      <path d="M643.05,314.6 L649.35,314.6 L649.15,329.4 C653.55,319.4 662.75,313.2 674.45,313.2 C689.25,313.2 699.05,323.1 699.05,339.5 L699.05,380.8 L692.75,380.8 L692.75,340.6 C692.75,327 686.45,319 673.65,319 C659.35,319 649.35,328.4 649.35,343.8 L649.35,380.8 L643.05,380.8 L643.05,314.6 z" fill="#54565A"/>
      <path d="M716.35,347.5 C716.35,328 730.15,313.1 749.15,313.1 C762.65,313.1 772.35,320.4 777.15,330.3 L777.15,263.7 L783.45,263.7 L783.45,380.8 L777.15,380.8 L777.45,364.3 C772.75,374.5 761.85,382.1 749.05,382.1 C730.15,382 716.35,367 716.35,347.5 M777.65,347.5 C777.65,331.1 766.65,318.8 749.95,318.8 C733.55,318.8 723.05,331.1 723.05,347.5 C723.05,363.9 733.55,376.4 749.95,376.4 C766.65,376.4 777.65,363.9 777.65,347.5" fill="#54565A"/>
      <path d="M848.05,339.2 C848.05,324.3 841.25,318.6 830.35,318.6 C820.25,318.6 813.45,322.8 808.75,330 L804.25,326.8 C809.75,318.2 819.15,313.2 830.55,313.2 C844.15,313.2 854.35,321.5 854.35,338.7 L854.35,380.9 L848.05,380.9 L848.35,370.7 C844.15,377 836.85,382.2 825.45,382.2 C810.35,382.2 800.45,375.2 800.45,361.9 C800.45,348.8 811.95,342.6 824.65,342.6 L848.05,342.6 L848.05,339.2 z M825.45,347.7 C815.35,347.7 806.85,351.6 806.85,361.6 C806.85,371.7 813.45,376.4 826.15,376.4 C837.15,376.4 848.05,369.9 848.05,359.7 L848.05,347.7 L825.45,347.7 z" fill="#54565A"/>
      <path d="M882.55,363.2 L882.55,319.9 L872.15,319.9 L872.15,314.5 L882.55,314.5 L882.55,291.3 L888.85,291.3 L888.85,314.5 L907.95,314.5 L907.95,319.9 L888.85,319.9 L888.85,363 C888.85,372.7 892.25,376.3 897.75,376.3 C903.55,376.3 905.85,374 908.25,371.4 L912.35,375.3 C909.15,379 905.25,381.9 897.75,381.9 C889.35,382 882.55,376.7 882.55,363.2" fill="#54565A"/>
      <path d="M929.55,286 C929.55,282.9 932.15,280.6 934.95,280.6 C937.75,280.6 940.35,282.9 940.35,286 C940.35,289.2 937.75,291.3 934.95,291.3 C932.15,291.4 929.55,289.3 929.55,286 M931.85,314.6 L938.15,314.6 L938.15,380.8 L931.85,380.8 L931.85,314.6 z" fill="#54565A"/>
      <path d="M957.15,347.5 C957.15,328.5 972.35,313.1 991.65,313.1 C1010.95,313.1 1025.85,328.5 1025.85,347.5 C1025.85,366.5 1010.95,382 991.65,382 C972.45,382 957.15,366.5 957.15,347.5 M1019.45,347.5 C1019.45,331.1 1008.25,318.8 991.75,318.8 C975.25,318.8 963.75,331.1 963.75,347.5 C963.75,363.9 975.25,376.4 991.75,376.4 C1008.25,376.4 1019.45,363.9 1019.45,347.5" fill="#54565A"/>
      <path d="M1043.95,314.6 L1050.25,314.6 L1050.05,329.4 C1054.45,319.4 1063.65,313.2 1075.35,313.2 C1090.15,313.2 1099.95,323.1 1099.95,339.5 L1099.95,380.8 L1093.65,380.8 L1093.65,340.6 C1093.65,327 1087.35,319 1074.55,319 C1060.25,319 1050.25,328.4 1050.25,343.8 L1050.25,380.8 L1043.95,380.8 L1043.95,314.6 z" fill="#54565A"/>
      <path d="M408.45,140.9 C408.45,99.5 440.25,69.6 480.15,69.6 C519.75,69.6 551.65,99.4 551.65,140.9 C551.65,182.3 519.75,212.2 480.15,212.2 C440.25,212.1 408.45,182.3 408.45,140.9 M529.45,140.9 C529.45,111.3 509.05,89 480.05,89 C451.05,89 430.45,111.3 430.45,140.9 C430.45,170.5 451.05,192.8 480.05,192.8 C509.05,192.7 529.45,170.5 529.45,140.9" fill="#54565A"/>
      <path d="M573.95,124.6 L594.75,124.6 L594.15,140.5 C599.65,129.9 609.85,122.7 624.55,122.7 C646.55,122.7 664.35,141.3 664.35,167.2 C664.35,193.1 646.35,212.1 624.15,212.1 C609.85,212.1 599.65,205.2 594.75,195.6 L594.75,253.6 L573.95,253.6 L573.95,124.6 z M643.15,167.2 C643.15,151.7 633.75,141.1 618.85,141.1 C603.75,141.1 593.95,151.7 593.95,167.2 C593.95,183.3 603.75,193.9 618.85,193.9 C633.85,194 643.15,183.4 643.15,167.2" fill="#54565A"/>
      <path d="M735.05,194.8 C746.25,194.8 754.45,190.3 759.35,185.6 L771.35,198.3 C763.35,206.3 752.35,212.2 735.25,212.2 C705.85,212.2 686.85,193.2 686.85,167.5 C686.85,142 706.85,122.8 732.55,122.8 C761.75,122.8 778.25,144.4 776.85,174.5 L707.85,174.5 C710.35,186.8 719.35,194.8 735.05,194.8 M756.15,160.1 C754.35,148.5 747.15,139.9 732.85,139.9 C719.55,139.9 710.35,147.2 707.95,160.1 L756.15,160.1 z" fill="#54565A"/>
      <path d="M799.75,124.6 L820.35,124.6 L819.95,140.5 C825.25,129.3 836.05,122.7 848.95,122.7 C867.95,122.7 881.05,136.2 881.05,159.4 L881.05,210.2 L860.45,210.2 L860.45,161.1 C860.45,148.8 854.75,141.7 842.65,141.7 C829.15,141.7 820.35,149.9 820.35,163.7 L820.35,210.2 L799.75,210.2 L799.75,124.6 z" fill="#54565A"/>
      <path d="M903.55,188.7 L921.15,177.9 C926.05,186.7 931.75,192.8 941.95,192.8 C953.55,192.8 961.15,187.3 961.15,171.2 L961.15,71.5 L982.75,71.5 L982.75,171.5 C982.75,199.1 966.25,212.1 942.95,212.1 C922.35,212.1 910.15,201.5 903.55,188.7" fill="#54565A"/>
      <path d="M1004.95,183.4 L1022.75,173.6 C1029.25,184.4 1037.65,193 1054.55,193 C1068.65,193 1078.65,185.4 1078.65,174 C1078.65,162 1070.45,156.6 1055.35,149.9 L1046.15,145.8 C1025.95,136.8 1013.65,126.6 1013.65,105.2 C1013.65,84.6 1029.55,69.9 1052.65,69.9 C1071.05,69.8 1083.55,76.8 1091.85,91.7 L1074.95,102.1 C1069.65,92.9 1063.55,88.6 1052.65,88.6 C1041.65,88.6 1034.65,95.3 1034.65,104.7 C1034.65,115.1 1040.55,119.8 1054.65,125.9 L1063.65,130 C1087.35,140.4 1099.95,151.4 1099.95,173.7 C1099.95,198 1080.95,212.1 1054.85,212.1 C1028.55,212.1 1012.65,199.1 1004.95,183.4" fill="#54565A"/>
    </g>
  </g>
</svg>
