<?xml version="1.0" encoding="UTF-8" standalone="no"?>
<svg
   xmlns:dc="http://purl.org/dc/elements/1.1/"
   xmlns:cc="http://creativecommons.org/ns#"
   xmlns:rdf="http://www.w3.org/1999/02/22-rdf-syntax-ns#"
   xmlns:svg="http://www.w3.org/2000/svg"
   xmlns="http://www.w3.org/2000/svg"
   xmlns:sodipodi="http://sodipodi.sourceforge.net/DTD/sodipodi-0.dtd"
   xmlns:inkscape="http://www.inkscape.org/namespaces/inkscape"
   version="1.1"
   x="0"
   y="0"
   width="512"
   height="512"
   viewBox="0 0 512 512"
   id="svg845"
   sodipodi:docname="OpenJS_Foundation-heart-color.svg"
   inkscape:version="1.0beta1 (32d4812, 2019-09-19)">
  <metadata
     id="metadata849">
    <rdf:RDF>
      <cc:Work
         rdf:about="">
        <dc:format>image/svg+xml</dc:format>
        <dc:type
           rdf:resource="http://purl.org/dc/dcmitype/StillImage" />
        <dc:title></dc:title>
      </cc:Work>
    </rdf:RDF>
  </metadata>
  <sodipodi:namedview
     pagecolor="#ffffff"
     bordercolor="#666666"
     inkscape:document-rotation="0"
     borderopacity="1"
     objecttolerance="10"
     gridtolerance="10"
     guidetolerance="10"
     inkscape:pageopacity="0"
     inkscape:pageshadow="2"
     inkscape:window-width="1600"
     inkscape:window-height="907"
     id="namedview847"
     showgrid="false"
     inkscape:zoom="0.35"
     inkscape:cx="400"
     inkscape:cy="560"
     inkscape:window-x="0"
     inkscape:window-y="23"
     inkscape:window-maximized="0"
     inkscape:current-layer="svg845" />
  <defs
     id="defs840">
    <linearGradient
       id="Gradient_1"
       gradientUnits="userSpaceOnUse"
       x1="24.952"
       y1="30.094"
       x2="103.038"
       y2="97.905998">
      <stop
         offset="0.098"
         stop-color="#0075C9"
         id="stop833" />
      <stop
         offset="0.5"
         stop-color="#80BC00"
         id="stop835" />
      <stop
         offset="0.9"
         stop-color="#F7DF1E"
         id="stop837" />
    </linearGradient>
  </defs>
  <g
     id="Layer_1"
     transform="matrix(4.5277549,0,0,4.5277549,-33.753688,-33.776314)">
    <path
       d="M 90.35,16.05 C 78.69,16.05 68.54,23.02 64,33.11 59.46,23.03 49.31,16.05 37.65,16.05 21.73,16.05 8.78,29.01 8.78,44.93 c 0,35.9 51.79,65.46 54,66.7 0.38,0.21 0.79,0.32 1.21,0.32 0.42,0 0.84,-0.11 1.21,-0.32 2.2,-1.24 54.01,-30.8 54.01,-66.7 0.01,-15.92 -12.94,-28.88 -28.86,-28.88 z"
       fill="url(#Gradient_1)"
       id="path842"
       style="fill:url(#Gradient_1)"
       inkscape:connector-curvature="0" />
  </g>
</svg>
