<?xml version="1.0" encoding="UTF-8" standalone="no"?>
<svg
   xmlns:dc="http://purl.org/dc/elements/1.1/"
   xmlns:cc="http://creativecommons.org/ns#"
   xmlns:rdf="http://www.w3.org/1999/02/22-rdf-syntax-ns#"
   xmlns:svg="http://www.w3.org/2000/svg"
   xmlns="http://www.w3.org/2000/svg"
   xmlns:sodipodi="http://sodipodi.sourceforge.net/DTD/sodipodi-0.dtd"
   xmlns:inkscape="http://www.inkscape.org/namespaces/inkscape"
   inkscape:version="1.0beta1 (32d4812, 2019-09-19)"
   height="1200"
   width="1200"
   sodipodi:docname="OpenJS_Foundation-icon-color-on_white.svg"
   xml:space="preserve"
   viewBox="0 0 1200 1200"
   y="0px"
   x="0px"
   id="ARTWORK"
   version="1.1"><metadata
   id="metadata849">
  <rdf:RDF>
    <cc:Work
   rdf:about="">
      <dc:format>image/svg+xml</dc:format>


      <dc:type
   rdf:resource="http://purl.org/dc/dcmitype/StillImage" />


      <dc:title></dc:title>


    </cc:Work>


  </rdf:RDF>


</metadata>


<defs
   id="defs847" />


<sodipodi:namedview
   inkscape:current-layer="ARTWORK"
   inkscape:window-maximized="0"
   inkscape:window-y="23"
   inkscape:window-x="0"
   inkscape:cy="560"
   inkscape:cx="400"
   inkscape:zoom="0.35"
   showgrid="false"
   id="namedview845"
   inkscape:window-height="907"
   inkscape:window-width="1600"
   inkscape:pageshadow="2"
   inkscape:pageopacity="0"
   guidetolerance="10"
   gridtolerance="10"
   objecttolerance="10"
   borderopacity="1"
   inkscape:document-rotation="0"
   bordercolor="#666666"
   pagecolor="#ffffff" />



<style
   id="style833"
   type="text/css">
	.st0{fill:url(#SVGID_1_);}
</style>



<linearGradient
   gradientTransform="translate(167,100.05)"
   y2="841.52551"
   x2="774.52271"
   y1="158.4971"
   x1="91.4944"
   gradientUnits="userSpaceOnUse"
   id="SVGID_1_">
	<stop
   id="stop835"
   style="stop-color:#0075C9"
   offset="0.2145" />



	<stop
   id="stop837"
   style="stop-color:#80BC00"
   offset="0.7067" />



	<stop
   id="stop839"
   style="stop-color:#FDE021"
   offset="1" />



</linearGradient>



<rect
   style="fill:#ffffff;fill-opacity:1;stroke:#000000;stroke-width:5.074;stroke-opacity:0.879032"
   id="rect861"
   width="1200"
   height="1200"
   x="0"
   y="0"
   ry="8.20434" />

<path
   style="fill:url(#SVGID_1_)"
   inkscape:connector-curvature="0"
   id="path842"
   d="m 1030.2,348.45 -427.4,-246.8 -2.8,-1.6 -2.8,1.6 -425.1,245.4 -2.3,1.3 -2.8,1.7 v 500 l 2.8,1.6 427.3,246.7 2.8,1.6 2.8,-1.6 421.7,-243.4 5.7,-3.3 2.9,-1.6 v -500 z m -473,-184.4 -104.5,181 h -209 z m -121.6,210.7 -49,84.9 -147.1,-84.9 z m -38.2,125.5 172.9,99.8 -172.8,99.8 -57.7,-99.8 z m -25.7,-14.8 -49,84.9 -98,-169.8 z m -170.7,-66.4 104.5,181 -104.5,181 z m 121.7,210.8 49,84.9 -147,84.9 z m 63.9,110.6 49,84.9 H 239.5 Z m -142.8,114.7 h 209 l 104.5,181 z m 341.3,169.8 -98,-169.8 h 98 z m 0,-199.6 H 469.9 l -57.6,-99.8 172.8,-99.8 z m 0,-251.1 -172.8,-99.8 57.6,-99.8 h 115.2 z m 0,-229.3 h -98 l 98,-169.8 z m 243.2,140.5 147,-84.9 -98,169.8 z m 31.9,114.6 -57.6,99.8 -172.8,-99.8 172.8,-99.8 z m -46.8,-140.4 -49,-84.9 h 196.1 z m 142.8,-114.7 h -209 L 642.8,164.05 Z m -341.3,-169.7 98,169.8 h -98 z m 0,199.5 h 115.2 l 57.6,99.8 -172.8,99.8 z m 0,251.1 172.8,99.8 -57.6,99.8 H 614.9 Z m 0,229.3 h 98 l -98,169.8 z m 27.9,180.9 104.5,-181 h 209 z m 121.6,-210.7 49,-84.9 147.1,84.9 z m 63.9,-110.6 49,-84.9 98,169.8 z m 170.7,66.3 -104.5,-181 104.5,-181 z"
   class="st0" />



</svg>
