<?xml version="1.0" encoding="UTF-8" standalone="no"?>
<svg
   xmlns:dc="http://purl.org/dc/elements/1.1/"
   xmlns:cc="http://creativecommons.org/ns#"
   xmlns:rdf="http://www.w3.org/1999/02/22-rdf-syntax-ns#"
   xmlns:svg="http://www.w3.org/2000/svg"
   xmlns="http://www.w3.org/2000/svg"
   viewBox="0 0 984.38604 250"
   height="250"
   width="984.38605"
   xml:space="preserve"
   id="svg2"
   version="1.1"><metadata
     id="metadata8"><rdf:RDF><cc:Work
         rdf:about=""><dc:format>image/svg+xml</dc:format><dc:type
           rdf:resource="http://purl.org/dc/dcmitype/StillImage" /><dc:title></dc:title></cc:Work></rdf:RDF></metadata><defs
     id="defs6" /><g
     transform="matrix(1.3333333,0,0,-1.3333333,0,250)"
     id="g10"><g
       transform="scale(0.29324964)"
       id="g12"><path
         id="path14"
         style="fill:#f89c15;fill-opacity:1;fill-rule:nonzero;stroke:none"
         d="m 1206.56,71.7734 c -0.23,-0.9882 -0.47,-2.1718 -0.5,-2.9609 -0.06,-1.9727 0.89,-2.9531 3.65,-2.9531 5.13,0 17.95,5.5195 25.17,9.0625 l 12.55,59.7461 28.75,3.945 -20.58,-97.7966 h -23.68 l 0.11,8.8711 c -15.24,-7.0977 -27.21,-10.8437 -38.26,-10.8437 -12.63,0 -17.3,7.4882 -16.88,19.5156 0.14,3.9453 0.65,7.1054 1.37,11.0469 l 13.73,65.2617 28.55,3.945 -13.98,-66.8396" /><path
         id="path16"
         style="fill:#f89c15;fill-opacity:1;fill-rule:nonzero;stroke:none"
         d="m 1277.99,45.1523 6.05,20.5079 c 7.21,-2.5625 15.41,-4.9336 25.88,-4.9336 9.25,0 9.96,2.7656 10.91,7.2968 0.94,4.3399 -1.74,6.7032 -12.4,12.4258 -19.74,10.6446 -20.29,17.7383 -17.22,32.1408 4.46,20.699 10.78,26.219 37.41,26.219 9.08,0 20.65,-1.969 28.45,-4.532 l -5.27,-20.898 c -7.03,1.969 -17.43,3.547 -24.15,3.547 -8.28,0 -9.5,-0.988 -10.66,-6.113 -0.96,-4.54 0,-5.52 9.1,-10.45 21.69,-11.8317 24.9,-15.9724 21.6,-31.1599 -4.71,-21.6836 -11.31,-30.3593 -40.12,-30.3593 -8.88,0 -21.23,2.5625 -29.58,6.3085" /><path
         id="path18"
         style="fill:#f89c15;fill-opacity:1;fill-rule:nonzero;stroke:none"
         d="m 1418.61,111.797 c 0.12,3.351 -2.78,5.523 -7.89,5.523 -10.08,0 -13.24,-5.718 -14.89,-13.605 l -1.42,-6.7033 c 4.76,1.1758 6.97,1.5742 12.75,3.3513 7.56,2.168 11.23,5.711 11.45,11.434 z m -50.65,-9.266 c 4.73,22.082 15.08,36.278 45.47,36.278 18.15,0 31.68,-7.887 31.12,-24.059 -0.65,-18.7227 -10.63,-27.4023 -34.55,-34.5 -11.76,-3.5508 -11.96,-3.5508 -20.32,-5.7227 l -1.42,-6.6992 c -0.71,-3.5508 -0.43,-6.7031 4.7,-6.7031 10.06,0 24.83,4.9258 38.05,10.6484 l 4.65,-19.7226 c -11.9,-7.293 -30.45,-13.207 -47.42,-13.207 -19.92,0 -28.11,8.6757 -27.54,25.0429 0.12,3.5469 0.65,7.4922 1.58,11.6328 l 5.68,27.0115" /><path
         id="path20"
         style="fill:#f89c15;fill-opacity:1;fill-rule:nonzero;stroke:none"
         d="m 1516.5,113.574 c -12.48,-6.711 -17.11,-9.265 -28.4,-16.1677 l -12.03,-56.5899 h -27.81 l 19.65,93.6566 24.6,4.14 -1.05,-13.011 c 9.47,5.515 17.11,9.461 25.51,13.011 l -0.47,-25.039" /><path
         id="path22"
         style="fill:#f89c15;fill-opacity:1;fill-rule:nonzero;stroke:none"
         d="m 1581.4,177.066 28.75,3.942 -6.35,-29.578 -28.55,-3.946 z m -8.96,-42.398 28.75,3.945 -20.78,-97.7966 h -27.84 l 19.87,93.8516" /><path
         id="path24"
         style="fill:#f89c15;fill-opacity:1;fill-rule:nonzero;stroke:none"
         d="m 1673.41,106.074 c 0.24,1.188 0.47,2.172 0.49,2.965 0.08,1.973 -0.88,2.758 -3.65,2.758 -5.12,0 -17.52,-5.125 -25.18,-9.067 l -13,-61.9136 h -27.82 l 19.65,93.6566 24.61,4.14 -0.57,-10.644 c 15.24,7.094 27.21,10.84 38.25,10.84 12.83,0 17.3,-7.293 16.89,-19.516 -0.12,-3.355 -0.41,-6.113 -1.39,-11.047 l -14.18,-67.4296 h -27.83 l 13.73,65.2576" /><path
         id="path26"
         style="fill:#f89c15;fill-opacity:1;fill-rule:nonzero;stroke:none"
         d="m 1758.71,114.555 -10.18,-47.9144 c -0.21,-0.9804 -0.45,-1.9687 -0.47,-2.5586 -0.06,-1.3828 0.72,-1.9726 2.7,-1.9726 4.72,0 10.11,1.9726 15.11,3.9414 l 4.87,-19.3203 c -8.05,-4.3438 -19.61,-7.8867 -30.86,-7.8867 -14.01,0 -21.27,6.7031 -20.88,18.1406 0.06,1.375 0.31,2.7578 0.55,4.1406 l 11.34,53.43 h -14.22 l 4.73,22.285 h 14.2 l 4.77,23.066 28.73,3.946 -5.69,-27.012 h 22.89 l -6.29,-22.285 h -21.3" /><path
         id="path28"
         style="fill:#f89c15;fill-opacity:1;fill-rule:nonzero;stroke:none"
         d="m 1842.44,111.797 c 0.11,3.351 -2.78,5.523 -7.89,5.523 -10.08,0 -13.25,-5.718 -14.89,-13.605 l -1.42,-6.7033 c 4.76,1.1758 6.97,1.5742 12.75,3.3513 7.56,2.168 11.23,5.711 11.45,11.434 z m -50.65,-9.266 c 4.73,22.082 15.08,36.278 45.47,36.278 18.15,0 31.68,-7.887 31.11,-24.059 -0.64,-18.7227 -10.62,-27.4023 -34.55,-34.5 -11.75,-3.5508 -11.95,-3.5508 -20.31,-5.7227 l -1.43,-6.6992 c -0.7,-3.5508 -0.42,-6.7031 4.71,-6.7031 10.06,0 24.83,4.9258 38.05,10.6484 l 4.65,-19.7226 c -11.9,-7.293 -30.45,-13.207 -47.42,-13.207 -19.93,0 -28.11,8.6757 -27.54,25.0429 0.11,3.5469 0.64,7.4922 1.58,11.6328 l 5.68,27.0115" /><path
         id="path30"
         style="fill:#f89c15;fill-opacity:1;fill-rule:nonzero;stroke:none"
         d="m 1940.31,113.574 c -12.46,-6.711 -17.09,-9.265 -28.38,-16.1677 L 1899.9,40.8164 h -27.83 l 19.64,93.6566 24.61,4.14 -1.03,-13.011 c 9.45,5.515 17.09,9.461 25.51,13.011 l -0.49,-25.039" /><path
         id="path32"
         style="fill:#f89c15;fill-opacity:1;fill-rule:nonzero;stroke:none"
         d="m 1928.02,16.5625 c 10.02,9.8555 11.56,14.9844 13.48,24.2539 l 15.57,73.3436 h -13.81 l 4.74,22.68 h 13.81 l 2.81,12.617 c 4.69,21.297 12.52,30.563 35.8,30.563 7.9,0 17.11,-1.383 24.52,-4.141 l -6.49,-21.891 c -4.29,1.578 -11.93,2.961 -16.29,2.961 -6.31,0 -8.32,-1.578 -9.49,-6.504 l -3.05,-13.605 h 24.87 l -6.7,-22.68 H 1984.9 L 1968.8,37.6602 C 1965.97,24.2539 1960.91,14.7852 1945.39,0 l -17.37,16.5625" /><path
         id="path34"
         style="fill:#f89c15;fill-opacity:1;fill-rule:nonzero;stroke:none"
         d="m 2035.41,69.9961 c -0.96,-5.1211 0.15,-7.0938 5.09,-7.0938 7.09,0 14.94,4.1329 21.43,9.461 l 8.77,41.6017 c -3.73,0.785 -7.87,0.984 -10.82,0.984 -14.42,0 -16.43,-7.097 -18.54,-16.3631 z m 24.23,-29.1797 -0.48,8.2813 c -6.9,-5.1329 -17.13,-10.2539 -30.94,-10.2539 -20.92,0 -24.63,12.6171 -20.12,34.1093 l 5.43,25.8282 c 4.75,22.8787 14.41,39.8317 52.3,39.8317 10.06,0 23.21,-1.773 36.49,-5.918 l -19.2,-91.8786 h -23.48" /><path
         id="path36"
         style="fill:#f89c15;fill-opacity:1;fill-rule:nonzero;stroke:none"
         d="m 2108.73,63.293 c 0.17,4.9258 0.72,9.0703 2.09,14.5898 l 6.26,26.8202 c 6.27,27.207 19.73,34.106 46.96,34.106 8.49,0 16.72,-1.774 22.17,-3.942 l -7.5,-22.48 c -4.67,1.578 -10.36,2.761 -15.88,2.761 -12.62,0 -16.92,-3.941 -19.28,-14.988 l -6.13,-29.1795 c -0.24,-1.1797 -0.49,-2.7617 -0.53,-3.75 -0.12,-3.1485 1.41,-4.7266 4.96,-4.7266 7.11,0 20.47,3.9414 27.25,5.9141 l 1.77,-22.2813 c -8.22,-3.9453 -21.75,-7.2929 -32.01,-7.2929 -22.11,0 -30.72,7.4882 -30.13,24.4492" /><path
         id="path38"
         style="fill:#f89c15;fill-opacity:1;fill-rule:nonzero;stroke:none"
         d="m 2245.54,111.797 c 0.12,3.351 -2.75,5.523 -7.89,5.523 -10.06,0 -13.22,-5.718 -14.88,-13.605 l -1.41,-6.7033 c 4.77,1.1758 6.96,1.5742 12.74,3.3513 7.57,2.168 11.25,5.711 11.44,11.434 z m -50.62,-9.266 c 4.7,22.082 15.06,36.278 45.45,36.278 18.14,0 31.7,-7.887 31.13,-24.059 -0.67,-18.7227 -10.63,-27.4023 -34.55,-34.5 -11.78,-3.5508 -11.97,-3.5508 -20.31,-5.7227 l -1.43,-6.6992 c -0.72,-3.5508 -0.43,-6.7031 4.69,-6.7031 10.08,0 24.84,4.9258 38.06,10.6484 l 4.63,-19.7226 c -11.89,-7.293 -30.45,-13.207 -47.42,-13.207 -19.92,0 -28.1,8.6757 -27.52,25.0429 0.12,3.5469 0.65,7.4922 1.58,11.6328 l 5.69,27.0115" /><path
         id="path40"
         style="fill:#f89c15;fill-opacity:1;fill-rule:evenodd;stroke:none"
         d="M 475.367,615.285 H 60.9844 C 28.0781,615.285 0,586.43 0,553.551 V 540.094 466.813 408.176 C 0,262.422 123.563,144.238 271.031,144.238 c 147.461,0 270.989,118.184 270.989,263.938 v 58.637 73.281 13.457 c 0,32.879 -33.739,61.734 -66.653,61.734" /><path
         id="path42"
         style="fill:#ffffff;fill-opacity:1;fill-rule:evenodd;stroke:none"
         d="m 93.1055,404.727 c 0,-97.227 78.1875,-174.786 176.5625,-174.786 98.379,0 176.598,78.77 176.598,177.305 h -89.032 c 0,-49.266 -36.39,-89.277 -85.546,-89.277 -49.215,0 -85.543,38.152 -85.543,86.758 v 84.636 H 93.1055 v -84.636" /><path
         id="path44"
         style="fill:#ffffff;fill-opacity:1;fill-rule:evenodd;stroke:none"
         d="m 93.1055,406.637 c 0,-97.203 78.1875,-175.739 176.5625,-175.739 98.379,0 176.598,77.813 176.598,176.348 h -89.032 c 0,-49.266 -36.39,-88.32 -85.546,-88.32 -49.215,0 -85.543,39.137 -85.543,87.711 v 82.726 H 93.1055 v -82.726" /><path
         id="path46"
         style="fill:#ffffff;fill-opacity:1;fill-rule:evenodd;stroke:none"
         d="M 379.477,543.078 358.695,457.98 444.809,436 l 22.269,85.086 -87.601,21.992" /><path
         id="path48"
         style="fill:#2f2d2e;fill-opacity:1;fill-rule:nonzero;stroke:none"
         d="m 2246.94,490.988 3.18,-13.433 c 0.91,-3.856 -1.54,-6.957 -5.48,-6.957" /><path
         id="path50"
         style="fill:#2f2d2e;fill-opacity:1;fill-rule:nonzero;stroke:none"
         d="m 1991.16,514.047 c -0.79,-3.719 -1.76,-8.426 -2.41,-11.531 l -28.05,-131.317 29.51,138.344 0.95,4.504" /><path
         id="path52"
         style="fill:#2f2d2e;fill-opacity:1;fill-rule:nonzero;stroke:none"
         d="m 1150.61,426.172 -15.49,-54.879 15.49,54.863 z" /><path
         id="path54"
         style="fill:#2f2d2e;fill-opacity:1;fill-rule:nonzero;stroke:none"
         d="m 2250.12,477.555 -8.07,34.187 c -6.39,24.738 -24.45,36.438 -65.07,36.438 h -170.83 c -3.94,0 -7.86,-1.778 -8.66,-5.625 l -64.82,-307.36 c -0.84,-3.89 -1.09,-6.656 -0.64,-8.574 0.46,-1.976 8.05,-1.609 11.94,-1.609 h 59.18 c 3.96,0 11.15,-0.293 13.24,0.551 2.2,0.898 3.16,6.757 3.97,10.632 l 20.9,107.77 25.54,119.535 c 0.84,3.84 4.71,6.98 8.64,6.98 l 169.2,0.118 c 3.91,0 6.39,3.113 5.48,6.957" /><path
         id="path56"
         style="fill:#2f2d2e;fill-opacity:1;fill-rule:nonzero;stroke:none"
         d="m 2490.83,602.148 c -3.95,-0.043 -75.03,0 -75.03,0 -3.93,0 -8.99,-4.222 -11.19,-7.476 l -131.7,-193.789 c -2.27,-3.25 -4.8,-3.141 -5.68,0.687 l -9.73,42.477 c -0.83,3.855 -4.76,6.992 -8.75,6.992 h -84.66 c -3.9,0 -6.25,-3.25 -5.23,-7.055 l 37.96,-133.05 c 1.1,-3.809 1.18,-10.028 0.22,-13.832 l -17.7,-67.399 c -0.93,-3.812 1.49,-4.965 5.47,-4.965 h 83.59 c 3.94,0 7.99,1.129 8.96,4.965 l 17.7,68.332 c 0.98,3.813 3.7,9 6.05,12.18 l 214.98,285.094 c 2.42,3.121 2.07,6.859 -1.85,6.859 l -23.41,-0.02" /><path
         id="path58"
         style="fill:#2f2d2e;fill-opacity:1;fill-rule:nonzero;stroke:none"
         d="m 1609.39,547.914 h -76.42 c -3.88,0 -7.89,-1.367 -8.66,-5.234 L 1499.06,424.516 1473.9,311.371 c -0.81,-3.832 -4.71,-3.566 -8.63,-3.566 h -50.23 c -49.66,0 -43.94,31.386 -33.73,78.425 0.14,0.469 31.87,156.45 31.87,156.45 0.7,3.847 -1.88,5.234 -5.76,5.234 h -72.81 c -3.92,0 -7.82,-1.387 -8.6,-5.234 l -29.28,-156.336 c -14.61,-84.528 -15.04,-158.903 82.97,-161.36 1.61,-0.058 154.79,0 154.79,0 3.96,0 7.86,1.301 8.7,5.11 l 33.24,156.781 33.12,157.438 c 0,0 1.17,3.601 -0.16,3.601" /><path
         id="path60"
         style="fill:#2f2d2e;fill-opacity:1;fill-rule:nonzero;stroke:none"
         d="m 848.328,548.18 h -81.91 c -3.938,0 -7.898,-0.938 -8.766,-4.801 l -14.785,-63.961 c -0.84,-3.789 1.676,-6.809 5.641,-6.809 h 78.43 c 3.964,0 7.898,3.567 8.73,7.391 l 14.238,64.438 c 0,0 1.133,3.742 -1.578,3.742" /><path
         id="path62"
         style="fill:#2f2d2e;fill-opacity:1;fill-rule:nonzero;stroke:none"
         d="m 743.188,451.039 c -3.895,0 -7.891,-3.109 -8.731,-6.957 l -11.051,-48.785 -24.64,-112.66 c 0,0 -13.106,-59.895 -14.368,-63.649 0,0 -11.039,-43.242 -37.418,-41.504 -12.269,0.813 -26.296,3.625 -26.296,3.625 h -0.036 c -7.371,2.219 -7.89,-5.425 -8.793,-9.254 L 595.59,101.664 c -0.938,-3.8359 1.582,-7.2929 5.473,-7.3437 0,0 35.277,-4.9726 60.171,-4.9726 h 4.098 c 61.523,0 94.023,36.1723 114.805,134.3983 l 24.351,113.695 22.84,105.786 c 0.836,3.851 -1.488,7.421 -5.41,7.421" /><path
         id="path64"
         style="fill:#2f2d2e;fill-opacity:1;fill-rule:nonzero;stroke:none"
         d="m 1839.05,413.418 c 0,-4.262 -13.49,-3.453 -13.49,-3.453 l -107.42,0.777 c -3.71,0 -4.78,5.203 -5.03,8.93 -0.01,0.125 0.26,4.461 0.58,5.531 8.32,28.805 33.08,45.262 72.35,45.262 44.19,0 53.63,-21.926 53.63,-46.223 m -36.95,124.41 c -137.79,0 -170.68,-85.175 -188.98,-169.589 -18.31,-86.075 -16.75,-154.102 125.83,-154.102 h 5.15 c 56.56,0 125.29,0 125.29,0 3.86,0.07 7.73,3.609 8.5,7.422 l 14.02,54.601 c 0.81,3.868 -1.8,5.008 -5.7,5.008 H 1758.6 c -46.46,0 -63.09,14.309 -61.47,46.438 -0.03,3.656 4.16,12.961 8.09,12.961 h 197.53 c 8.67,0.05 8.94,5.125 8.94,5.125 20.12,90.761 21.43,192.136 -108.97,192.136" /><path
         id="path66"
         style="fill:#2f2d2e;fill-opacity:1;fill-rule:nonzero;stroke:none"
         d="m 1134.38,371.293 -15.88,-54.27 c -1.09,-3.808 -5.58,-6.347 -9.51,-6.347 h -81.91 c -62.174,0 -77.279,48.039 -62.174,119.734 15.172,73.281 45.234,118.617 106.364,123.207 83.59,6.301 100.7,-52.726 80.44,-120.586 z m 72.8,-57.508 c 0,0 38.59,93.75 47.35,147.934 11.98,72.511 -24.29,177.668 -164.54,177.668 -139.42,0 -199.912,-100.395 -223.076,-209.543 -23.062,-109.942 7.133,-205.66 145.786,-204.883 l 211.61,0.129 c 3.9,0.012 7.97,3.168 8.97,6.926 l 17.83,67.925 c 0.97,3.844 -1.44,6.95 -5.41,6.965 l -17.04,0.129 -17.03,0.074 c -3.36,0.036 -5.29,2.207 -4.84,5.086 0.07,0.532 0.13,1.051 0.39,1.59" /></g></g></svg>