<?xml version="1.0" encoding="UTF-8"?>
<!DOCTYPE svg PUBLIC "-//W3C//DTD SVG 1.1//EN" "http://www.w3.org/Graphics/SVG/1.1/DTD/svg11.dtd">
<svg version="1.1" xmlns="http://www.w3.org/2000/svg" xmlns:xlink="http://www.w3.org/1999/xlink" x="0" y="0" width="555" height="300" viewBox="0, 0, 111, 60">
  <g id="Atoms/AMP-Logo/Full/Blue-Copy-3">
    <g id="Atoms/AMP-Logo/Solo/blue">
      <path d="M15,30 C15,38.284 21.716,45 30,45 C38.285,45 45,38.284 45,30 C45,21.716 38.285,15 30,15 C21.716,15 15,21.716 15,30 z" fill="#FFFFFF" id="White-Fill"/>
      <path d="M28.851,39.098 L27.711,39.098 L28.838,32.275 L25.347,32.28 C25.347,32.28 25.315,32.28 25.299,32.28 C24.985,32.28 24.73,32.025 24.73,31.711 C24.73,31.576 24.855,31.348 24.855,31.348 L31.127,20.888 L32.286,20.893 L31.131,27.727 L34.639,27.723 C34.639,27.723 34.677,27.722 34.695,27.722 C35.009,27.722 35.264,27.977 35.264,28.291 C35.264,28.419 35.214,28.531 35.143,28.626 L28.851,39.098 z M30,15 C21.716,15 15,21.716 15,30 C15,38.284 21.716,45 30,45 C38.285,45 45,38.284 45,30 C45,21.716 38.285,15 30,15 L30,15 z" fill="#005AF0" id="Main"/>
    </g>
    <path d="M63.946,34.678 L59.176,34.678 L58.384,37 L55.144,37 L59.806,24.364 L63.352,24.364 L68.014,37 L64.738,37 L63.946,34.678 z M63.154,32.338 L61.57,27.658 L59.968,32.338 L63.154,32.338 z M83.512,24.364 L83.512,37 L80.434,37 L80.434,29.098 L77.698,37 L75.034,37 L72.28,29.08 L72.28,37 L69.202,37 L69.202,24.364 L72.964,24.364 L76.402,33.166 L79.768,24.364 L83.512,24.364 z M88.714,32.536 L88.714,37 L85.636,37 L85.636,24.274 L90.622,24.274 C92.134,24.274 93.286,24.649 94.078,25.399 C94.87,26.149 95.266,27.16 95.266,28.432 C95.266,29.224 95.089,29.929 94.735,30.547 C94.381,31.165 93.856,31.651 93.16,32.005 C92.464,32.359 91.618,32.536 90.622,32.536 L88.714,32.536 z M90.28,30.07 C91.516,30.07 92.134,29.524 92.134,28.432 C92.134,27.316 91.516,26.758 90.28,26.758 L88.714,26.758 L88.714,30.07 L90.28,30.07 z" fill="#005AF0" id="AMP"/>
  </g>
</svg>
