<svg xmlns="http://www.w3.org/2000/svg" width="234" height="90" viewBox="0 0 234 90">
  <g fill="none" fill-rule="evenodd">
    <path fill="#FFF" d="M4.19642857,45 C4.19642857,67.5225781 22.3584938,85.78125 44.7619048,85.78125 C67.1664427,85.78125 85.327381,67.5225781 85.327381,45 C85.327381,22.4774218 67.1664427,4.21875 44.7619048,4.21875 C22.3584938,4.21875 4.19642857,22.4774218 4.19642857,45 Z"/>
    <path fill="#005AF0" d="M41.3326455 72.29375L37.9307407 72.29375 41.2941006 51.8237499 30.8782539 51.8387499C30.8782539 51.8387499 30.7800265 51.84125 30.7327777 51.84125 29.7952645 51.84125 29.0343122 51.07625 29.0343122 50.13375 29.0343122 49.72875 29.4098148 49.04375 29.4098148 49.04375L48.1252645 17.6649999 51.584365 17.67875 48.1364551 38.1812499 58.6057673 38.16875C58.6057673 38.16875 58.7189154 38.1662499 58.772381 38.1662499 59.7098943 38.1662499 60.4696033 38.93 60.4696033 39.87375 60.4696033 40.25625 60.3216403 40.5924999 60.1090212 40.8774999L41.3326455 72.29375zM0 45C0 69.8525 20.0408995 90 44.7619048 90 69.4841535 90 89.5238095 69.8525 89.5238095 45 89.5238095 20.1474999 69.4841535 0 44.7619048 0 20.0408995 0 0 20.1474999 0 45zM140.465841 59.034L126.231556 59.034 123.868127 66 114.199556 66 128.111556 28.092 138.69327 28.092 152.60527 66 142.82927 66 140.465841 59.034zM138.102413 52.014L133.375556 37.974 128.594984 52.014 138.102413 52.014zM198.85327 28.092L198.85327 66 189.668127 66 189.668127 42.294 181.503556 66 173.553841 66 165.335556 42.24 165.335556 66 156.150413 66 156.150413 28.092 167.376698 28.092 177.636127 54.498 187.680698 28.092 198.85327 28.092zM214.376698 52.608L214.376698 66 205.191556 66 205.191556 27.822 220.070413 27.822C224.582435 27.822 228.020115 28.9469888 230.383556 31.197 232.746996 33.4470113 233.928698 36.4799809 233.928698 40.296 233.928698 42.6720119 233.400513 44.7869907 232.344127 46.641 231.287741 48.4950093 229.72109 49.9529947 227.644127 51.015 225.567164 52.0770053 223.042618 52.608 220.070413 52.608L214.376698 52.608zM219.049841 45.21C222.738241 45.21 224.582413 43.5720164 224.582413 40.296 224.582413 36.9479833 222.738241 35.274 219.049841 35.274L214.376698 35.274 214.376698 45.21 219.049841 45.21z"/>
  </g>
</svg>
