<svg xmlns="http://www.w3.org/2000/svg" width="120" height="149" viewBox="0 0 120 149">
  <g fill="#FFF" fill-rule="evenodd">
    <g transform="translate(13.953)">
      <path d="M4.18604651,44.8598131 C4.18604651,67.3122274 22.3031783,85.5140187 44.6511628,85.5140187 C67.0002714,85.5140187 85.1162791,67.3122274 85.1162791,44.8598131 C85.1162791,22.4073987 67.0002714,4.20560748 44.6511628,4.20560748 C22.3031783,4.20560748 4.18604651,22.4073987 4.18604651,44.8598131 Z" opacity="0"/>
      <path d="M41.2303876,72.0685358 L37.8368992,72.0685358 L41.191938,51.6623052 L30.8018604,51.6772585 C30.8018604,51.6772585 30.703876,51.6797508 30.6567441,51.6797508 C29.7215503,51.6797508 28.9624806,50.9171339 28.9624806,49.9775701 C28.9624806,49.5738318 29.3370542,48.8909657 29.3370542,48.8909657 L48.0062015,17.6099688 L51.4567442,17.623676 L48.0173644,38.0623052 L58.4607753,38.0498442 C58.4607753,38.0498442 58.5736435,38.047352 58.6269768,38.047352 C59.5621706,38.047352 60.3200001,38.8087227 60.3200001,39.7495327 C60.3200001,40.1308411 60.1724032,40.4660435 59.9603101,40.7501557 L41.2303876,72.0685358 Z M0,44.8598131 C0,69.6348909 19.9913179,89.7196262 44.6511628,89.7196262 C69.3122481,89.7196262 89.3023256,69.6348909 89.3023256,44.8598131 C89.3023256,20.0847351 69.3122481,0 44.6511628,0 C19.9913179,0 0,20.0847351 0,44.8598131 Z"/>
    </g>
    <path d="M26.2013023,141.86243 L12.0022326,141.86243 L9.64465116,148.806729 L0,148.806729 L13.8775814,111.016822 L24.4331163,111.016822 L38.3106977,148.806729 L28.5588837,148.806729 L26.2013023,141.86243 Z M23.8437209,134.864299 L19.1285581,120.868037 L14.359814,134.864299 L23.8437209,134.864299 Z M84.4442791,111.016822 L84.4442791,148.806729 L75.2818605,148.806729 L75.2818605,125.174579 L67.1374884,148.806729 L59.2074419,148.806729 L51.0094884,125.120748 L51.0094884,148.806729 L41.8470698,148.806729 L41.8470698,111.016822 L53.0455814,111.016822 L63.2796279,137.340561 L73.2993488,111.016822 L84.4442791,111.016822 Z M99.9293023,135.456449 L99.9293023,148.806729 L90.7668837,148.806729 L90.7668837,110.747664 L105.60893,110.747664 C110.10979,110.747664 113.538965,111.869148 115.896558,114.11215 C118.254151,116.355151 119.43293,119.378673 119.43293,123.182804 C119.43293,125.551414 118.906052,127.659804 117.852279,129.508037 C116.798506,131.356271 115.235731,132.809714 113.163907,133.868411 C111.092083,134.927108 108.573782,135.456449 105.60893,135.456449 L99.9293023,135.456449 Z M104.590884,128.081495 C108.270158,128.081495 110.109767,126.448614 110.109767,123.182804 C110.109767,119.845217 108.270158,118.176449 104.590884,118.176449 L99.9293023,118.176449 L99.9293023,128.081495 L104.590884,128.081495 Z"/>
  </g>
</svg>
