<?xml version="1.0" encoding="UTF-8"?>
<!DOCTYPE svg PUBLIC "-//W3C//DTD SVG 1.1//EN" "http://www.w3.org/Graphics/SVG/1.1/DTD/svg11.dtd">
<svg version="1.1" xmlns="http://www.w3.org/2000/svg" xmlns:xlink="http://www.w3.org/1999/xlink" x="0" y="0" width="250" height="250" viewBox="0, 0, 50, 50">
  <g id="Atoms/AMP-Logo/Solo/blue_no_DS">
    <path d="M10,25 C10,33.284 16.716,40 25,40 C33.285,40 40,33.284 40,25 C40,16.716 33.285,10 25,10 C16.716,10 10,16.716 10,25 z" fill="#FFFFFF" id="White-Fill"/>
    <path d="M23.851,34.098 L22.711,34.098 L23.838,27.275 L20.347,27.28 C20.347,27.28 20.315,27.28 20.299,27.28 C19.985,27.28 19.73,27.025 19.73,26.711 C19.73,26.576 19.855,26.348 19.855,26.348 L26.127,15.888 L27.286,15.893 L26.131,22.727 L29.639,22.723 C29.639,22.723 29.677,22.722 29.695,22.722 C30.009,22.722 30.264,22.977 30.264,23.291 C30.264,23.419 30.214,23.531 30.143,23.626 L23.851,34.098 z M25,10 C16.716,10 10,16.716 10,25 C10,33.284 16.716,40 25,40 C33.285,40 40,33.284 40,25 C40,16.716 33.285,10 25,10 L25,10 z" fill="#005AF0" id="Main"/>
  </g>
</svg>
