<svg xmlns="http://www.w3.org/2000/svg" width="90" height="90" viewBox="0 0 90 90">
  <g fill="none" fill-rule="evenodd">
    <path fill="#FFF" d="M4.21875,45 C4.21875,67.5225781 22.4774219,85.78125 45,85.78125 C67.523711,85.78125 85.78125,67.5225781 85.78125,45 C85.78125,22.4774218 67.523711,4.21875 45,4.21875 C22.4774219,4.21875 4.21875,22.4774218 4.21875,45 Z"/>
    <path fill="#005AF0" d="M41.5525,72.29375 L38.1325,72.29375 L41.5137501,51.8237499 L31.0425,51.8387499 C31.0425,51.8387499 30.94375,51.84125 30.89625,51.84125 C29.95375,51.84125 29.18875,51.07625 29.18875,50.13375 C29.18875,49.72875 29.56625,49.04375 29.56625,49.04375 L48.38125,17.6649999 L51.85875,17.67875 L48.3925001,38.1812499 L58.9175001,38.16875 C58.9175001,38.16875 59.0312501,38.1662499 59.0850001,38.1662499 C60.0275001,38.1662499 60.7912501,38.93 60.7912501,39.87375 C60.7912501,40.25625 60.6425001,40.5924999 60.4287501,40.8774999 L41.5525,72.29375 Z M0,45 C0,69.8525 20.1475001,90 45,90 C69.8537501,90 90,69.8525 90,45 C90,20.1474999 69.8537501,0 45,0 C20.1475001,0 0,20.1474999 0,45 Z"/>
  </g>
</svg>
