<?xml version="1.0" encoding="UTF-8" standalone="no"?>
<svg
   xmlns:dc="http://purl.org/dc/elements/1.1/"
   xmlns:cc="http://creativecommons.org/ns#"
   xmlns:rdf="http://www.w3.org/1999/02/22-rdf-syntax-ns#"
   xmlns:svg="http://www.w3.org/2000/svg"
   xmlns="http://www.w3.org/2000/svg"
   xmlns:sodipodi="http://sodipodi.sourceforge.net/DTD/sodipodi-0.dtd"
   xmlns:inkscape="http://www.inkscape.org/namespaces/inkscape"
   sodipodi:docname="webhint-hex-sticker.svg"
   inkscape:version="1.0beta1 (32d4812, 2019-09-19)"
   version="1.1"
   id="svg7307"
   viewBox="0 0 345.05798 371.25001"
   height="4.125in"
   width="3.8339775in"
   inkscape:export-filename="/Users/brian/Documents/GitHub/openjs/artwork/projects/webhint/webhint-hex-sticker.png"
   inkscape:export-xdpi="96"
   inkscape:export-ydpi="96">
  <defs
     id="defs7309" />
  <sodipodi:namedview
     inkscape:document-rotation="0"
     inkscape:window-maximized="0"
     inkscape:window-y="23"
     inkscape:window-x="0"
     inkscape:window-height="1360"
     inkscape:window-width="2504"
     inkscape:guide-bbox="true"
     showguides="true"
     fit-margin-left="1"
     fit-margin-right="1"
     fit-margin-bottom="1"
     fit-margin-top="1"
     units="in"
     showgrid="false"
     inkscape:current-layer="layer1"
     inkscape:document-units="px"
     inkscape:cy="125.74074"
     inkscape:cx="61.574074"
     inkscape:zoom="1.52"
     inkscape:pageshadow="2"
     inkscape:pageopacity="0.0"
     borderopacity="1.0"
     bordercolor="#666666"
     pagecolor="#ffffff"
     id="base">
    <sodipodi:guide
       id="guide8412"
       orientation="0,1"
       position="316.53653,275.81345" />
    <sodipodi:guide
       id="guide8414"
       orientation="0,1"
       position="353.01895,96.303395" />
  </sodipodi:namedview>
  <metadata
     id="metadata7312">
    <rdf:RDF>
      <cc:Work
         rdf:about="">
        <dc:format>image/svg+xml</dc:format>
        <dc:type
           rdf:resource="http://purl.org/dc/dcmitype/StillImage" />
        <dc:title />
      </cc:Work>
    </rdf:RDF>
  </metadata>
  <g
     transform="translate(-209.97101,-189.375)"
     style="display:inline"
     inkscape:label="Background"
     id="layer3"
     inkscape:groupmode="layer">
    <path
       sodipodi:type="star"
       style="color:#000000;display:inline;overflow:visible;visibility:visible;fill:none;fill-opacity:1;fill-rule:nonzero;stroke:#0093d9;stroke-width:1.16023;stroke-linecap:round;stroke-linejoin:miter;stroke-miterlimit:4;stroke-dasharray:2.32046, 4.64092;stroke-dashoffset:7.51718;stroke-opacity:1;marker:none;enable-background:accumulate"
       id="path7936"
       sodipodi:sides="6"
       sodipodi:cx="121.90476"
       sodipodi:cy="126.57602"
       sodipodi:r1="103.56153"
       sodipodi:r2="103.56153"
       sodipodi:arg1="-0.52327829"
       sodipodi:arg2="0.0003204856"
       inkscape:flatsided="true"
       inkscape:rounded="0"
       inkscape:randomized="0"
       d="m 211.60827,74.824 -0.0332,103.56153 -89.70351,51.75202 -89.670315,-51.80951 0.03319,-103.561527 89.703505,-51.752019 z"
       inkscape:transform-center-x="0.34789098"
       inkscape:transform-center-y="-1.5566024"
       transform="matrix(0.86033594,0,0,0.86346354,277.62095,265.70622)" />
    <path
       transform="matrix(0.80621714,0,0,0.809148,284.21829,272.58127)"
       inkscape:transform-center-y="-1.4586807"
       inkscape:transform-center-x="0.32600218"
       d="m 211.60827,74.824 -0.0332,103.56153 -89.70351,51.75202 -89.670315,-51.80951 0.03319,-103.561527 89.703505,-51.752019 z"
       inkscape:randomized="0"
       inkscape:rounded="0"
       inkscape:flatsided="true"
       sodipodi:arg2="0.0003204856"
       sodipodi:arg1="-0.52327829"
       sodipodi:r2="103.56153"
       sodipodi:r1="103.56153"
       sodipodi:cy="126.57602"
       sodipodi:cx="121.90476"
       sodipodi:sides="6"
       id="path8410"
       style="color:#000000;display:inline;overflow:visible;visibility:visible;fill:none;fill-opacity:1;fill-rule:nonzero;stroke:#db3279;stroke-width:1.23811;stroke-linecap:round;stroke-linejoin:miter;stroke-miterlimit:4;stroke-dasharray:none;stroke-dashoffset:7.51718;stroke-opacity:1;marker:none;enable-background:accumulate"
       sodipodi:type="star" />
    <path
       transform="matrix(0.91445474,0,0,0.91777907,271.02361,258.83118)"
       inkscape:transform-center-y="-1.6545161"
       inkscape:transform-center-x="0.3697741"
       d="m 211.60827,74.824 -0.0332,103.56153 -89.70351,51.75202 -89.670315,-51.80951 0.03319,-103.561527 89.703505,-51.752019 z"
       inkscape:randomized="0"
       inkscape:rounded="0"
       inkscape:flatsided="true"
       sodipodi:arg2="0.0003204856"
       sodipodi:arg1="-0.52327829"
       sodipodi:r2="103.56153"
       sodipodi:r1="103.56153"
       sodipodi:cy="126.57602"
       sodipodi:cx="121.90476"
       sodipodi:sides="6"
       id="path8424"
       style="color:#000000;display:inline;overflow:visible;visibility:visible;fill:#ffffff;fill-opacity:1;fill-rule:nonzero;stroke:none;stroke-width:0.204669;stroke-linecap:round;stroke-linejoin:miter;stroke-miterlimit:4;stroke-dasharray:none;stroke-dashoffset:7.51718;stroke-opacity:1;marker:none;enable-background:accumulate"
       sodipodi:type="star" />
    <circle
       id="path852"
       style="fill:#ffff00;stroke:#000000"
       cx="380.81805"
       cy="370.09048"
       r="0.061615959" />
  </g>
  <g
     inkscape:groupmode="layer"
     id="g368"
     inkscape:label="Trim Lines copy"
     style="display:none"
     transform="translate(-209.97101,-189.375)"
     sodipodi:insensitive="true">
    <path
       transform="matrix(0.86033594,0,0,0.86346354,277.62095,265.70622)"
       inkscape:transform-center-y="-1.5566024"
       inkscape:transform-center-x="0.34789098"
       d="m 211.60827,74.824 -0.0332,103.56153 -89.70351,51.75202 -89.670315,-51.80951 0.03319,-103.561527 89.703505,-51.752019 z"
       inkscape:randomized="0"
       inkscape:rounded="0"
       inkscape:flatsided="true"
       sodipodi:arg2="0.0003204856"
       sodipodi:arg1="-0.52327829"
       sodipodi:r2="103.56153"
       sodipodi:r1="103.56153"
       sodipodi:cy="126.57602"
       sodipodi:cx="121.90476"
       sodipodi:sides="6"
       id="path362"
       style="color:#000000;display:inline;overflow:visible;visibility:visible;fill:none;fill-opacity:1;fill-rule:nonzero;stroke:#0093d9;stroke-width:1.16023;stroke-linecap:round;stroke-linejoin:miter;stroke-miterlimit:4;stroke-dasharray:2.32046, 4.64092;stroke-dashoffset:7.51718;stroke-opacity:1;marker:none;enable-background:accumulate"
       sodipodi:type="star" />
    <path
       sodipodi:type="star"
       style="color:#000000;display:inline;overflow:visible;visibility:visible;fill:none;fill-opacity:1;fill-rule:nonzero;stroke:#db3279;stroke-width:1.23811;stroke-linecap:round;stroke-linejoin:miter;stroke-miterlimit:4;stroke-dasharray:none;stroke-dashoffset:7.51718;stroke-opacity:1;marker:none;enable-background:accumulate"
       id="path364"
       sodipodi:sides="6"
       sodipodi:cx="121.90476"
       sodipodi:cy="126.57602"
       sodipodi:r1="103.56153"
       sodipodi:r2="103.56153"
       sodipodi:arg1="-0.52327829"
       sodipodi:arg2="0.0003204856"
       inkscape:flatsided="true"
       inkscape:rounded="0"
       inkscape:randomized="0"
       d="m 211.60827,74.824 -0.0332,103.56153 -89.70351,51.75202 -89.670315,-51.80951 0.03319,-103.561527 89.703505,-51.752019 z"
       inkscape:transform-center-x="0.32600218"
       inkscape:transform-center-y="-1.4586807"
       transform="matrix(0.80621714,0,0,0.809148,284.21829,272.58127)" />
    <path
       sodipodi:type="star"
       style="color:#000000;display:inline;overflow:visible;visibility:visible;fill:none;fill-opacity:1;fill-rule:nonzero;stroke:#000000;stroke-width:1.09157;stroke-linecap:round;stroke-linejoin:miter;stroke-miterlimit:4;stroke-dasharray:none;stroke-dashoffset:7.51718;stroke-opacity:1;marker:none;enable-background:accumulate"
       id="path366"
       sodipodi:sides="6"
       sodipodi:cx="121.90476"
       sodipodi:cy="126.57602"
       sodipodi:r1="103.56153"
       sodipodi:r2="103.56153"
       sodipodi:arg1="-0.52327829"
       sodipodi:arg2="0.0003204856"
       inkscape:flatsided="true"
       inkscape:rounded="0"
       inkscape:randomized="0"
       d="m 211.60827,74.824 -0.0332,103.56153 -89.70351,51.75202 -89.670315,-51.80951 0.03319,-103.561527 89.703505,-51.752019 z"
       inkscape:transform-center-x="0.3697741"
       inkscape:transform-center-y="-1.6545161"
       transform="matrix(0.91445474,0,0,0.91777907,271.02361,258.83118)" />
  </g>
  <g
     inkscape:groupmode="layer"
     id="layer1"
     inkscape:label="Project artwork"
     style="display:inline">
    <g
       transform="matrix(0.23765198,0,0,0.23765198,122.26303,126.05888)"
       id="g6454">
      <path
         inkscape:connector-curvature="0"
         style="fill:#ffffff;stroke-width:2.32557"
         id="path2"
         d="M 396.97529,396.51228 H 353.25464 A 12.092947,12.092947 0 0 1 345.58027,374.88451 211.16146,211.16146 0 0 0 423.02164,212.09484 212.09168,212.09168 0 0 0 213.02296,0.00315496 211.62657,211.62657 0 0 0 77.209874,374.88451 12.092947,12.092947 0 0 1 69.535504,396.51228 H 25.58229 A 25.813791,25.813791 0 0 0 0.00105709,422.09351 v 52.0927 A 25.581234,25.581234 0 0 0 25.58229,500 h 371.85812 a 25.581234,25.581234 0 0 0 25.58123,-25.58123 v -52.32526 a 25.813791,25.813791 0 0 0 -25.58123,-25.81379 z" />
      <g
         style="fill:#4700a3"
         transform="matrix(2.3255667,0,0,2.3255667,-81.626335,-43.019825)"
         id="g10">
        <path
           inkscape:connector-curvature="0"
           id="path4"
           d="M 126,29 A 80,80 0 1 0 206.5,109 80,80 0 0 0 126,29 Z m 70.7,80 A 71.2,71.2 0 0 1 125.6,180.1 70.6,70.6 0 0 1 54.9,109 71.2,71.2 0 0 1 126,37.9 c 39,0.4 70.7,32.1 70.7,71.1 z" />
        <path
           inkscape:connector-curvature="0"
           id="path6"
           d="m 165,90.3 2.4,-4.9 7.8,-12.6 -18,10.6 c -0.3,0.4 -0.7,0.4 -1.1,0.8 a 5.7,5.7 0 0 0 0,7.7 3.5,3.5 0 0 0 2.4,1.2 5.9,5.9 0 0 0 5.3,-1.2 5.7,5.7 0 0 0 1.2,-1.6 z" />
        <path
           inkscape:connector-curvature="0"
           id="path8"
           d="m 162.6,97.6 a 7.8,7.8 0 0 1 -3.3,0.4 9,9 0 0 1 -9,-9 6.8,6.8 0 0 1 0.5,-2.8 23.8,23.8 0 0 0 -14.6,-3.6 c -27.7,0 -32.1,13 -32.1,29.2 a 19.7,19.7 0 0 1 -2,11.8 10.8,10.8 0 0 1 -10.2,5.7 c -1.6,0 -7.7,-0.8 -8.1,-2.8 h 0.8 A 11.9,11.9 0 0 0 96.4,114.3 V 111 h -5.8 a 12.7,12.7 0 0 0 -10.1,5.3 13.1,13.1 0 0 0 -10.6,-4.9 h -5.7 v 2.5 a 12.7,12.7 0 0 0 12.6,12.6 h 2 c 0,4 5.7,20.3 47.6,20.3 16.2,0 40.6,-2.9 40.6,-33.8 a 29.6,29.6 0 0 0 -4.4,-15.4 z" />
      </g>
      <path
         inkscape:connector-curvature="0"
         style="fill:#18186d;stroke-width:2.32557"
         id="path12"
         d="m 83.256344,464.41883 -9.76738,-25.81379 h -4.88369 l -9.767379,25.81379 -9.534824,-25.81379 h -5.58136 l 12.092947,32.32538 h 5.58136 l 9.534826,-24.65101 9.53482,24.65101 h 5.58136 l 12.09295,-32.32538 h -5.34881 z m 41.627646,-24.18589 a 16.278967,16.278967 0 0 0 -8.37204,-2.09301 16.278967,16.278967 0 0 0 -8.37204,2.32556 15.116184,15.116184 0 0 0 -5.81392,5.81392 18.13942,18.13942 0 0 0 0,16.97664 15.34874,15.34874 0 0 0 6.04647,6.04647 19.302204,19.302204 0 0 0 9.30227,2.09301 18.83709,18.83709 0 0 0 7.20926,-1.39534 13.9534,13.9534 0 0 0 5.58136,-3.95346 l -3.2558,-3.72091 a 12.092947,12.092947 0 0 1 -9.30226,3.95346 12.325504,12.325504 0 0 1 -8.13949,-2.79068 9.9999369,9.9999369 0 0 1 -3.7209,-6.9767 h 26.2789 v -1.62789 a 18.13942,18.13942 0 0 0 -2.09301,-8.83716 14.883627,14.883627 0 0 0 -5.3488,-5.81391 z m -18.60454,12.3255 a 10.46505,10.46505 0 0 1 3.2558,-6.9767 11.16272,11.16272 0 0 1 13.9534,0 10.46505,10.46505 0 0 1 3.48835,6.9767 z m 59.99962,-12.3255 a 16.976637,16.976637 0 0 0 -8.37204,-2.09301 15.581297,15.581297 0 0 0 -6.51158,1.39534 12.55806,12.55806 0 0 0 -4.65114,3.95346 v -17.90687 h -6.04647 v 45.34856 h 5.58136 v -5.11625 a 12.790617,12.790617 0 0 0 4.88369,3.95346 15.581297,15.581297 0 0 0 6.74414,1.6279 16.976637,16.976637 0 0 0 8.37204,-2.32557 15.116184,15.116184 0 0 0 5.81392,-5.81391 17.44175,17.44175 0 0 0 2.32557,-8.6046 17.44175,17.44175 0 0 0 -2.32557,-8.6046 14.883627,14.883627 0 0 0 -5.81392,-5.81391 z m 0.69767,20.46498 a 10.232494,10.232494 0 0 1 -3.95346,4.18602 11.627834,11.627834 0 0 1 -11.16272,0 10.232494,10.232494 0 0 1 -3.95346,-4.18602 13.488287,13.488287 0 0 1 0,-11.86039 9.9999369,9.9999369 0 0 1 3.95346,-3.95346 11.627834,11.627834 0 0 1 11.16272,0 9.9999369,9.9999369 0 0 1 3.95346,3.95346 13.023174,13.023174 0 0 1 0,11.86039 z m 32.79049,-22.32544 a 16.976637,16.976637 0 0 0 -6.74414,1.16279 12.325504,12.325504 0 0 0 -4.65113,3.48835 v -17.44176 h -6.04648 v 45.34856 h 6.04648 v -16.74408 a 10.930164,10.930164 0 0 1 2.79068,-7.90693 9.9999369,9.9999369 0 0 1 7.44181,-2.79068 8.6045969,8.6045969 0 0 1 6.51159,2.32557 9.9999369,9.9999369 0 0 1 2.32556,6.9767 v 18.13942 h 5.81392 v -18.60454 a 13.9534,13.9534 0 0 0 -3.48835,-10.46505 13.488287,13.488287 0 0 0 -9.99994,-3.7209 z m 24.41845,0.23256 h 5.81392 v 32.55793 h -5.81392 z m 3.02324,-14.18596 a 3.9534634,3.9534634 0 0 0 -3.02324,1.39534 3.7209068,3.7209068 0 0 0 -0.93022,2.55812 3.7209068,3.7209068 0 0 0 0.93022,2.79069 3.9534634,3.9534634 0 0 0 3.02324,1.16278 3.9534634,3.9534634 0 0 0 2.79068,-1.16278 3.7209068,3.7209068 0 0 0 1.16278,-2.79069 3.4883501,3.4883501 0 0 0 -1.16278,-2.79068 3.9534634,3.9534634 0 0 0 -2.79068,-0.93022 z m 31.39515,13.9534 a 16.511524,16.511524 0 0 0 -6.9767,1.16279 11.627834,11.627834 0 0 0 -4.65113,3.95346 v -5.11625 h -5.81392 v 32.55794 h 5.81392 v -16.74408 a 10.930164,10.930164 0 0 1 2.79068,-8.13949 9.9999369,9.9999369 0 0 1 7.67437,-2.79068 8.6045969,8.6045969 0 0 1 6.51159,2.32557 9.9999369,9.9999369 0 0 1 2.32556,6.9767 v 18.13942 h 5.81392 v -18.60453 a 14.185957,14.185957 0 0 0 -3.72091,-10.46505 13.488287,13.488287 0 0 0 -9.76738,-3.72091 z m 36.27884,27.9068 a 4.8836901,4.8836901 0 0 1 -3.95346,-1.39534 5.5813601,5.5813601 0 0 1 -1.16278,-3.95346 v -17.67431 h 9.30226 v -4.65113 h -9.30226 v -7.20926 h -5.81392 v 6.9767 h -5.58136 v 4.88369 h 5.58136 v 17.90687 a 9.9999369,9.9999369 0 0 0 2.55812,7.44181 10.46505,10.46505 0 0 0 7.67437,2.79068 13.25573,13.25573 0 0 0 3.95347,-0.69767 8.3720402,8.3720402 0 0 0 3.02323,-1.6279 l -1.62789,-4.18602 a 6.9767002,6.9767002 0 0 1 -4.65114,1.6279 z" />
      <path
         inkscape:connector-curvature="0"
         style="fill:#4046dd;stroke-width:2.32557"
         id="path14"
         d="m 310.46421,463.02349 a 4.1860201,4.1860201 0 0 0 -3.02324,1.16278 3.9534634,3.9534634 0 0 0 -1.16278,3.02324 4.1860201,4.1860201 0 0 0 4.18602,4.18602 3.9534634,3.9534634 0 0 0 2.79068,-1.16278 4.1860201,4.1860201 0 0 0 1.16278,-3.02324 3.9534634,3.9534634 0 0 0 -1.16278,-3.02324 3.7209068,3.7209068 0 0 0 -2.79068,-1.16278 z m 15.34874,-38.60441 a 3.7209068,3.7209068 0 0 0 -2.79068,1.39534 3.7209068,3.7209068 0 0 0 -1.16278,2.55812 3.4883501,3.4883501 0 0 0 1.16278,2.79069 3.9534634,3.9534634 0 0 0 2.79068,1.16278 3.9534634,3.9534634 0 0 0 2.79068,-1.16278 3.9534634,3.9534634 0 0 0 1.16278,-2.79069 3.4883501,3.4883501 0 0 0 -1.16278,-2.79068 4.1860201,4.1860201 0 0 0 -2.79068,-0.93022 z m -3.02324,14.18596 h 5.81392 v 32.55793 h -5.81392 z m 45.81367,7.67437 a 15.581297,15.581297 0 0 0 -6.04648,-6.04647 18.83709,18.83709 0 0 0 -17.44175,0 15.581297,15.581297 0 0 0 -6.04647,6.04647 17.906864,17.906864 0 0 0 0,16.97664 15.581297,15.581297 0 0 0 6.04647,6.04647 18.604534,18.604534 0 0 0 17.44175,0 15.581297,15.581297 0 0 0 6.04648,-6.04647 17.906864,17.906864 0 0 0 0,-16.97664 z m -5.11625,14.41851 a 9.9999369,9.9999369 0 0 1 -3.95346,4.18602 11.627834,11.627834 0 0 1 -11.16272,0 10.46505,10.46505 0 0 1 -3.95347,-4.18602 13.023174,13.023174 0 0 1 0,-11.86039 10.232494,10.232494 0 0 1 3.95347,-3.95346 11.627834,11.627834 0 0 1 11.16272,0 9.7673802,9.7673802 0 0 1 3.95346,3.95346 13.25573,13.25573 0 0 1 0,11.86039 z" />
    </g>
  </g>
  <g
     transform="translate(-209.97101,-189.375)"
     style="display:none"
     inkscape:label="Preview Without Bleeds"
     id="layer2"
     inkscape:groupmode="layer"
     sodipodi:insensitive="true">
    <path
       inkscape:connector-curvature="0"
       id="rect8416"
       d="M 269.94336,252.9082 V 497.0918 H 495.05664 V 252.9082 Z m 112.58594,32.66992 77.14648,44.73633 -0.0293,89.42188 -77.17578,44.68555 -77.14648,-44.73633 0.0293,-89.42188 z"
       style="opacity:1;fill:#aaaaaa;fill-opacity:1;stroke:none;stroke-width:20.25;stroke-linecap:round;stroke-linejoin:round;stroke-miterlimit:4;stroke-dasharray:none;stroke-dashoffset:6.5;stroke-opacity:1" />
  </g>
</svg>
