<?xml version="1.0" encoding="UTF-8" standalone="no"?>
<svg
   xmlns:dc="http://purl.org/dc/elements/1.1/"
   xmlns:cc="http://creativecommons.org/ns#"
   xmlns:rdf="http://www.w3.org/1999/02/22-rdf-syntax-ns#"
   xmlns:svg="http://www.w3.org/2000/svg"
   xmlns="http://www.w3.org/2000/svg"
   version="1.1"
   id="svg3069"
   height="138.34541pt"
   width="375pt">
  <defs
     id="defs3071">
    <clipPath
       id="clipPath70"
       clipPathUnits="userSpaceOnUse">
      <path
         style="stroke-width:1.06666672"
         id="path72"
         d="M 0,6349.664 V 0 h 8980.16 v 6349.664 z" />
    </clipPath>
    <clipPath
       id="clipPath70-6"
       clipPathUnits="userSpaceOnUse">
      <path
         style="stroke-width:1.06666672"
         id="path72-5"
         d="M 0,6349.664 V 0 h 8980.16 v 6349.664 z" />
    </clipPath>
  </defs>
  <metadata
     id="metadata3075">
    <rdf:RDF>
      <cc:Work
         rdf:about="">
        <dc:format>image/svg+xml</dc:format>
        <dc:type
           rdf:resource="http://purl.org/dc/dcmitype/StillImage" />
        <dc:title></dc:title>
      </cc:Work>
    </rdf:RDF>
  </metadata>
  <g
     transform="translate(-343.46965,-16.954614)"
     id="layer1">
    <path
       id="path74"
       style="fill:#403c3d;fill-opacity:1;fill-rule:nonzero;stroke:none;stroke-width:1.38797808"
       d="m 418.98086,17.088207 v 33.106745 h 33.90311 V 17.088207 Z m 0.12492,182.786303 h 33.65673 V 66.023107 H 419.10578 Z M 843.46965,66.023107 794.40116,199.87451 H 768.19613 L 718.87087,66.023107 h 35.19565 L 781.29691,148.75007 808.274,66.023107 Z M 707.80347,199.87451 h -32.62788 v -12.33219 c -8.7356,9.24914 -19.87065,13.87285 -33.3965,13.87285 -13.19272,0 -23.72574,-3.93666 -31.60251,-11.81691 -9.07912,-9.07563 -13.61434,-21.74961 -13.61434,-38.02192 V 66.023107 h 33.655 v 80.927803 c 0,8.39553 2.36824,14.73512 7.10819,19.01182 3.89501,3.59834 8.80497,5.39577 14.72817,5.39577 6.09323,0 11.08995,-1.79743 14.98496,-5.39577 4.73647,-4.2767 7.10818,-10.61629 7.10818,-19.01182 V 66.023107 h 33.65673 z M 548.36991,132.82129 c 0,-11.81689 -0.93168,-20.2957 -2.79331,-25.43296 -3.3884,-8.563831 -9.90669,-12.845735 -19.55661,-12.845735 -9.65512,0 -16.17341,4.281904 -19.55835,12.845735 -1.86161,5.13726 -2.79329,13.61607 -2.79329,25.43296 0,11.81864 0.93168,20.29745 2.79329,25.43296 3.38494,8.73732 9.90323,13.10425 19.55835,13.10425 9.64992,0 16.16821,-4.36693 19.55661,-13.10425 1.86163,-5.13551 2.79331,-13.61432 2.79331,-25.43296 z m 33.65673,0 c 0,13.70282 -0.60203,23.98079 -1.79916,30.83046 -1.88592,11.13332 -5.82605,19.69715 -11.81691,25.68801 -8.05546,8.05721 -18.92681,12.07541 -32.62962,12.07541 -13.70281,0 -24.8344,-4.70872 -33.39649,-14.12962 v 12.58896 H 470.01335 V 16.954614 h 33.655 v 60.888862 c 8.02078,-8.90388 18.77934,-13.359289 32.26528,-13.359289 13.65596,0 24.49607,4.025136 32.51858,12.075405 5.97525,5.994334 9.89976,14.558167 11.77873,25.689738 1.19713,6.85142 1.7957,17.04438 1.7957,30.57196 z m -180.49786,67.05322 h -19.01009 c -12.84574,0 -22.7802,-4.02167 -29.80163,-12.07368 -6.1661,-7.02143 -9.24741,-15.75528 -9.24741,-26.20502 V 16.954614 h 33.655 V 159.54161 c 0,8.052 3.89675,12.07366 11.69199,12.07366 h 12.71214 v 28.25924" />
  </g>
</svg>
