<?xml version="1.0" encoding="UTF-8" standalone="no"?>
<svg
   xmlns:dc="http://purl.org/dc/elements/1.1/"
   xmlns:cc="http://creativecommons.org/ns#"
   xmlns:rdf="http://www.w3.org/1999/02/22-rdf-syntax-ns#"
   xmlns:svg="http://www.w3.org/2000/svg"
   xmlns="http://www.w3.org/2000/svg"
   xmlns:sodipodi="http://sodipodi.sourceforge.net/DTD/sodipodi-0.dtd"
   xmlns:inkscape="http://www.inkscape.org/namespaces/inkscape"
   inkscape:version="1.0beta1 (32d4812, 2019-09-19)"
   inkscape:export-ydpi="96"
   inkscape:export-xdpi="96"
   inkscape:export-filename="/Users/brian/Documents/GitHub/openjs/artwork/projects/libuv/libuv-logo-stacked-color.png"
   sodipodi:docname="libuv-logo-stacked-color.svg"
   width="574.20245pt"
   height="819.21527pt"
   id="svg3069"
   version="1.1">
  <sodipodi:namedview
     inkscape:current-layer="svg3069"
     inkscape:cy="620.14856"
     inkscape:cx="-695.86285"
     inkscape:zoom="0.26808489"
     showgrid="false"
     id="namedview909"
     inkscape:window-height="480"
     inkscape:window-width="640"
     inkscape:pageshadow="2"
     inkscape:pageopacity="0"
     guidetolerance="10"
     gridtolerance="10"
     objecttolerance="10"
     borderopacity="1"
     inkscape:document-rotation="0"
     bordercolor="#666666"
     pagecolor="#ffffff" />
  <defs
     id="defs3071">
    <clipPath
       clipPathUnits="userSpaceOnUse"
       id="clipPath70">
      <path
         inkscape:connector-curvature="0"
         d="M 0,6349.664 V 0 h 8980.16 v 6349.664 z"
         id="path72"
         style="stroke-width:1.06667" />
    </clipPath>
    <clipPath
       clipPathUnits="userSpaceOnUse"
       id="clipPath70-6">
      <path
         inkscape:connector-curvature="0"
         d="M 0,6349.664 V 0 h 8980.16 v 6349.664 z"
         id="path72-5"
         style="stroke-width:1.06667" />
    </clipPath>
    <clipPath
       id="clipPath70-3"
       clipPathUnits="userSpaceOnUse">
      <path
         inkscape:connector-curvature="0"
         style="stroke-width:1.06667"
         id="path72-9"
         d="M 0,6349.664 V 0 h 8980.16 v 6349.664 z" />
    </clipPath>
    <clipPath
       id="clipPath70-6-0"
       clipPathUnits="userSpaceOnUse">
      <path
         inkscape:connector-curvature="0"
         style="stroke-width:1.06667"
         id="path72-5-5"
         d="M 0,6349.664 V 0 h 8980.16 v 6349.664 z" />
    </clipPath>
  </defs>
  <metadata
     id="metadata3075">
    <rdf:RDF>
      <cc:Work
         rdf:about="">
        <dc:format>image/svg+xml</dc:format>
        <dc:type
           rdf:resource="http://purl.org/dc/dcmitype/StillImage" />
        <dc:title></dc:title>
      </cc:Work>
    </rdf:RDF>
  </metadata>
  <g
     id="layer1"
     transform="matrix(1.5312066,0,0,1.5312066,-525.92299,783.87879)">
    <path
       inkscape:connector-curvature="0"
       d="m 418.98086,17.088207 v 33.106745 h 33.90311 V 17.088207 Z m 0.12492,182.786303 h 33.65673 V 66.023107 H 419.10578 Z M 843.46965,66.023107 794.40116,199.87451 H 768.19613 L 718.87087,66.023107 h 35.19565 L 781.29691,148.75007 808.274,66.023107 Z M 707.80347,199.87451 h -32.62788 v -12.33219 c -8.7356,9.24914 -19.87065,13.87285 -33.3965,13.87285 -13.19272,0 -23.72574,-3.93666 -31.60251,-11.81691 -9.07912,-9.07563 -13.61434,-21.74961 -13.61434,-38.02192 V 66.023107 h 33.655 v 80.927803 c 0,8.39553 2.36824,14.73512 7.10819,19.01182 3.89501,3.59834 8.80497,5.39577 14.72817,5.39577 6.09323,0 11.08995,-1.79743 14.98496,-5.39577 4.73647,-4.2767 7.10818,-10.61629 7.10818,-19.01182 V 66.023107 h 33.65673 z M 548.36991,132.82129 c 0,-11.81689 -0.93168,-20.2957 -2.79331,-25.43296 -3.3884,-8.563831 -9.90669,-12.845735 -19.55661,-12.845735 -9.65512,0 -16.17341,4.281904 -19.55835,12.845735 -1.86161,5.13726 -2.79329,13.61607 -2.79329,25.43296 0,11.81864 0.93168,20.29745 2.79329,25.43296 3.38494,8.73732 9.90323,13.10425 19.55835,13.10425 9.64992,0 16.16821,-4.36693 19.55661,-13.10425 1.86163,-5.13551 2.79331,-13.61432 2.79331,-25.43296 z m 33.65673,0 c 0,13.70282 -0.60203,23.98079 -1.79916,30.83046 -1.88592,11.13332 -5.82605,19.69715 -11.81691,25.68801 -8.05546,8.05721 -18.92681,12.07541 -32.62962,12.07541 -13.70281,0 -24.8344,-4.70872 -33.39649,-14.12962 v 12.58896 H 470.01335 V 16.954614 h 33.655 v 60.888862 c 8.02078,-8.90388 18.77934,-13.359289 32.26528,-13.359289 13.65596,0 24.49607,4.025136 32.51858,12.075405 5.97525,5.994334 9.89976,14.558167 11.77873,25.689738 1.19713,6.85142 1.7957,17.04438 1.7957,30.57196 z m -180.49786,67.05322 h -19.01009 c -12.84574,0 -22.7802,-4.02167 -29.80163,-12.07368 -6.1661,-7.02143 -9.24741,-15.75528 -9.24741,-26.20502 V 16.954614 h 33.655 V 159.54161 c 0,8.052 3.89675,12.07366 11.69199,12.07366 h 12.71214 v 28.25924"
       style="fill:#403c3d;fill-opacity:1;fill-rule:nonzero;stroke:none;stroke-width:1.38798"
       id="path74" />
  </g>
  <g
     style="opacity:1;stop-opacity:1"
     id="g3197"
     transform="matrix(0.40158783,0,0,-0.4051001,-744.12876,1637.568)">
    <path
       inkscape:connector-curvature="0"
       id="path76-6"
       style="fill:#e9e9e9;fill-opacity:1;fill-rule:evenodd;stroke:none;stroke-width:1.06667"
       d="m 3738.464,3102.304 c 0,-515.8187 -417.408,-933.9733 -932.288,-933.9733 -514.8907,0 -932.2667,418.1546 -932.2667,933.9733 0,515.8507 417.376,934.0053 932.2667,934.0053 514.88,0 932.288,-418.1546 932.288,-934.0053" />
    <path
       inkscape:connector-curvature="0"
       id="path78"
       style="fill:#403c3d;fill-opacity:1;fill-rule:evenodd;stroke:none;stroke-width:1.06667"
       d="m 3714.2187,3102.304 c 0,-502.4 -406.5387,-909.6853 -908.0427,-909.6853 -501.504,0 -908.0213,407.2853 -908.0213,909.6853 0,502.4213 406.5173,909.7067 908.0213,909.7067 501.504,0 908.0427,-407.2854 908.0427,-909.7067" />
    <path
       inkscape:connector-curvature="0"
       id="path80"
       style="fill:#adda1a;fill-opacity:1;fill-rule:nonzero;stroke:none;stroke-width:1.06667"
       d="m 3704.8853,3231.9467 c -6.848,8.032 -14.7306,15.3706 -24.2773,21.6853 4.0213,-17.28 17.056,-37.5573 28.928,-58.2613 -1.2587,12.288 -2.912,24.4373 -4.6507,36.576 z m -429.952,-795.68 c -67.872,-6.24 -52.6506,-44.0747 32.3094,-36.0214 31.1573,2.9547 81.7493,35.2107 129.2053,47.5307 23.904,23.104 46.656,47.4027 67.9253,72.992 -28.8,-15.5947 -83.0933,-39.8187 -135.7866,-64.896 -30.1974,-14.3573 -68.0214,-17.248 -93.6534,-19.6053 z m 436.2667,737.184 c -9.824,11.8613 -17.7387,29.952 -28.3307,43.1573 -2.4746,4.3413 -11.3173,20.1813 -20.32,39.7227 -0.7466,1.9626 -1.44,3.904 -2.5493,5.8773 l -0.053,-0.075 c -2.6134,5.8134 -5.152,11.8614 -7.5094,17.9734 l -0.011,0.064 c -1.8774,4.8533 -3.616,9.728 -5.1627,14.5493 -7.4773,23.456 -28.992,64.032 -59.328,98.1013 -0.1813,1.952 -0.2453,3.808 0.352,5.0987 l -5.0133,-0.1173 c -17.1734,18.368 -36.864,34.432 -58.3574,44.1813 -62.432,28.2987 -117.4506,56.7787 -117.4506,56.7787 -1.9094,-16.128 13.6,-36.736 22.4746,-54.8374 1.9734,-7.1253 3.2427,-13.8773 3.36,-19.648 l -0.5653,0.512 c -0.8427,-1.8346 -0.384,-4.8106 -0.096,-7.6373 -0.672,-3.0507 -1.8667,-5.6 -3.8827,-7.2853 -10.4533,33.0453 -29.056,59.0826 -38.6346,88.544 -10.272,31.5733 -18.3894,61.9946 -42.2614,85.6213 -29.8346,29.536 -85.696,45.6853 -128.0533,64.1387 -16.2133,9.952 -31.0933,19.4666 -42.3787,27.1786 l 0.288,0.4267 c -45.0133,36.0853 -106.2293,91.68 -170.88,46.6773 -39.0186,-27.1786 -76.896,-78.9866 -122.5813,-100.9706 -5.0133,-2.4427 -10.8587,-5.0347 -17.0773,-7.2 l -0.2667,-0.3094 -1.9413,-0.4053 c -4.5014,-1.4613 -9.1307,-2.6453 -13.7387,-3.296 -11.8933,-3.2213 -21.2693,-6.784 -29.3973,-9.984 -0.9494,-1.7813 -2.5174,-1.8347 -2.9014,-1.152 -15.68,-6.144 -27.136,-10.4747 -44.896,-7.2747 -10.8373,1.9414 -38.7306,-0.011 -50.336,-1.0773 0,0 -73.6533,-0.053 16.992,9.9947 -3.488,2.624 -6.784,5.248 -9.824,7.8933 -48.4586,-3.8507 -90.8586,13.1733 -139.1893,6.24 5.4293,-8.7573 23.2213,-6.624 26.7093,-17.12 -36.9813,-12.2453 -57.5466,40.192 -94.2826,18.56 5.4933,-10.112 0.6186,-22.88 -7.3707,-29.632 3.0933,31.0293 -39.424,57.2693 -66.7307,33.8773 10.3467,-11.584 10.88,-30.784 4.7574,-45.9946 l -18.56,-20.8 c -4.352,-1.8027 -9.1627,-2.528 -14.4107,-1.4934 17.856,7.8614 30.944,22.112 30.9973,38.8907 0.096,29.664 -36.3946,37.632 -66.592,36.7893 -59.9253,-1.696 -107.0826,-28.4906 -142.7626,-63.072 l 0.256,1.0134 -20.6934,-22.3574 c 0,0 -64.64,-27.04 -87.8186,-99.296 0.7466,8.9067 1.7493,18.9974 3.04,29.76 10.4426,30.3254 26.9333,52.9707 52.736,71.2427 -30.6134,-3.8507 -74.336,-16.576 -87.872,-57.12 -6.3574,-18.9973 -12.9174,-33.1733 -18.0694,-64.96 l -0.3093,0.3627 c 0,0 -12.32,-62.56 -4.3413,-98.1867 6.9333,-30.9973 16.7893,-62.9013 21.312,-83.6907 0.3306,-2.7413 0.8533,-5.6 1.6533,-8.5546 57.0987,27.2 136.224,34.2826 211.0293,45.3013 -31.232,-5.1093 -75.6586,-17.216 -118.432,-27.5627 -42.6773,-10.3466 -104.544,-26.4533 -105.504,-64.9813 -0.5653,-22.6453 16.416,-42.56 45.2054,-43.3067 -2.56,5.5254 -2.3574,13.5894 -2.144,21.6747 -5.9414,-0.4907 -4.9174,-7.3173 -8.608,-9.8453 -2.208,43.9253 73.2053,48.416 122.72,57.088 6.7306,1.1733 13.0986,2.8053 19.392,3.9466 23.072,4.0427 57.3653,2.1014 94.3253,1.5574 50.8053,-0.7147 86.6133,5.632 133.376,-11.8934 15.0187,-5.6426 46.656,-7.5626 61.8987,-9.1946 54.0586,-5.7387 94.272,3.4773 160.4053,-2.144 26.3467,-2.2294 52.768,-12.416 77.5253,-23.6267 34.3254,-15.5093 61.3334,-34.752 103.3387,-23.6373 15.1893,-0.7787 30.464,2.08 35.4987,-0.7787 24.288,-2.1653 20.4906,-21.1307 48.48,-18.8907 32.576,2.592 58.2613,23.0507 96.896,25.6107 30.1226,1.9627 61.856,-5.536 96.896,-1.984 24.288,2.464 48.352,13.1733 68.896,21.6427 51.8293,21.408 137.056,63.4133 144.2666,120.0746 5.8454,45.8774 -28.7466,69.7067 -77.5146,57.12 49.536,25.76 95.2213,-12.7253 94.7306,-61.0453 -0.1386,-14.7413 -10.464,-28.1067 -17.216,-45.28 -6.7946,-17.2373 -6.944,-29.312 -15.0826,-39.36 -4.064,-5.056 -9.312,-9.28 -14.8267,-12.7893 -9.504,-4.704 -23.2107,-8.6507 -42.016,-13.8134 -27.7653,-7.648 -53.8987,-15.808 -53.8987,-15.808 -4.2666,-0.832 -5.9306,-1.664 -6.2186,-2.4106 -17.0987,-4.6827 -37.7067,-11.6054 -49.5574,-20.2454 -22.8266,-16.6506 -59.488,-29.8026 -94.752,-23.5733 -3.264,0.5867 -5.9306,0.704 -8.096,0.4693 -11.584,1.5147 -22.9973,3.1147 -34.2293,3.52 0,0 -64.1493,-1.6106 -60.5227,-3.7653 3.6374,-2.208 4.544,-2.1547 4.544,-2.1547 23.4774,-18.5493 34.688,-49.472 47.3707,-78.72 14.2613,-32.9066 24.96,-66.8053 28,-110.2506 9.12,35.2426 21.536,67.4773 37.6,96.4053 20.9173,34.336 62.528,88.4373 126.5067,109.536 22.528,7.072 41.184,17.6853 55.4986,32.2773 -19.7226,-29.3013 -53.7706,-41.7386 -81.8133,-61.056 -58.1867,-40.0426 -89.3333,-99.072 -116.2667,-173.2266 -6.144,-16.896 -12.2666,-33.7494 -21.5253,-49.2267 -8.9387,-14.8587 -22.5813,-28.2453 -28,-43.2853 -3.4987,-9.696 -2.1013,-20.5867 -4.2987,-29.5467 -6.08,-24.7573 -16.576,-49.344 -31.136,-68.8 -12.3626,-13.888 -37.9413,-42.4747 -42.8053,-46.912 l -0.2347,-0.384 c -33.9733,-32.9813 -74.2613,-60.1493 -117.472,-84.704 l 0.416,-0.8747 -2.3253,-1.568 -0.2347,0.48 c -5.9946,-3.8506 -11.392,-8.2346 -16.4053,-12.96 -5.1627,-4.2986 -9.504,-8.5866 -11.5733,-12.0853 -17.792,-20.6293 -31.4667,-44.9173 -51.6907,-63.5307 -11.5947,-10.688 -25.2907,-19.2746 -38.8587,-28.128 l 0.096,0.3307 c 0,0 -16.2666,-11.0187 -30.1866,-19.4027 -42.944,-20.3626 -87.296,-56.3733 -152.8214,-57.152 -35.1786,-0.384 -83.4346,2.2934 -99.0613,29.5574 0,0 -9.2587,4.4053 -8.608,-15.7547 0.832,-25.7173 43.808,-26.4747 66.1227,-37.1733 11.296,-6.5494 -10.944,-1.1094 -18.7414,-2.2187 17.152,-18.4213 27.328,-43.232 64.5867,-43.2747 0,0 -8.6933,8.128 -11.68,9.7707 -2.9973,1.6213 1.8987,4.0853 15.2427,-0.832 10.944,-4.032 25.2266,-7.6693 43.9146,-7.5627 1.2054,0 2.3787,-0.021 3.6374,0 2.944,0.085 6.0053,0.2774 9.184,0.576 0,0 33.0986,0.1814 65.0346,13.9947 31.9574,13.824 68.2454,10.1867 84.9494,22.5493 16.704,12.352 29.0453,36.3414 39.9253,40 10.9013,3.648 26.1867,12.0854 38.656,26.1867 10.624,11.9893 26.7947,5.216 40.0213,17.4613 12.0427,11.136 92.288,50.9974 92.288,50.9974 23.8507,16.4373 38.4747,35.712 65.44,49.28 39.104,27.328 -54.24,-19.2107 -81.3973,-29.7494 -33.76,-13.0773 -3.2747,4.5974 -3.2747,4.5974 l 54.6774,31.2853 c 16.4693,8.0747 32.9706,16.0747 49.8133,23.744 10.8907,4.64 29.536,12.4267 44.096,17.632 28.6827,7.264 54.0267,5.1413 78.1973,9.5893 25.664,4.704 48.1814,17.12 73.2054,21.6534 3.9786,0.704 10.72,-1.344 15.0826,0 27.168,8.3733 54.3467,34.848 79.6694,49.2053 58.4106,33.1093 101.664,64.16 118.432,135.8507 3.936,16.832 6.304,33.8666 10.7626,51.1573 9.504,36.992 16.5547,70.8907 12.9067,120.0853 -2.1547,29.2374 -19.0293,59.6054 -17.216,96.4694 1.7067,34.656 26.0267,61.024 36.5973,92.5226 12.6294,37.6107 -10.4533,63.9894 -44.8,78.208 l 0.021,0.032 c 0,0 -25.4187,12 -35.2107,12.7254 -9.8027,0.736 5.088,3.264 11.616,3.264 5.0133,0 9.3547,3.456 12.7573,8.8106 3.8827,5.4934 6.0587,13.2054 10.4,19.0187 6.1014,8.16 21.216,19.3493 21.536,27.5413 0.416,10.7094 -17.92,25.4294 -28,31.52 -17.3866,10.5174 -45.4506,16.9387 -68.896,27.5627 -26.1013,11.7867 -44.9173,24.8107 -58.1333,37.3867 -7.328,18.8586 -21.1413,30.6133 -19.3813,53.1626 0.4373,5.7174 2.5386,11.2427 4.416,16.992 l 0.7893,2.1227 c 2.176,7.3493 5.1733,18.8053 0,31.8933 -5.1627,13.0987 -23.9573,16.9067 -23.9573,16.9067 l -0.075,-0.011 c -10.1867,3.392 -22.272,5.4507 -30.6987,8.8854 -13.3013,5.3653 -23.7546,12.5866 -34.144,18.0053 12.9174,-4.096 28.6294,-10.6987 52.9387,-12.8853 10.7307,-0.9494 40.832,-6.3467 46.5067,-25.4934 l 0.5973,-2.1546 0.5013,-1.9094 c 0.2454,-1.088 0.4267,-2.1866 0.5974,-3.296 0.192,-1.44 0.4053,-2.8373 0.4373,-4.3946 l 0.096,-2.2294 c 0.1067,-7.6373 -1.4933,-15.6586 -5.088,-23.6373 -13.8133,-30.6667 1.312,-53.8773 23.8293,-65.8773 21.3014,-16.736 52.8214,-25.9307 83.8294,-37.5787 24.768,-9.2907 52.3626,-22.976 66.4106,-38.752 7.296,-12.6293 11.2107,-26.528 6.4107,-39.744 -7.68,-14.9013 -26.1227,-21.3867 -31.904,-39.616 7.2533,-9.216 20.448,-11.2533 30.144,-17.696 15.0507,-10.0373 26.1333,-23.5093 29.536,-42.8587 l 0.192,-2.0373 c 0.3627,-2.304 0.5653,-4.608 0.672,-6.944 0.032,-2.0907 -0.053,-4.1813 -0.085,-6.272 -1.792,-34.496 -28.2667,-70.1547 -35.9787,-86.6133 -8.704,-18.528 -5.984,-37.632 -5.984,-37.632 1.9307,-7.4667 3.8827,-13.376 5.8453,-17.9734 3.488,-10.1973 7.4987,-24.4906 10.5387,-41.344 10.8053,-23.8826 22.496,-51.6693 27.712,-70.496 10.9013,-39.264 26.144,-109.12 4.3627,-264.032 -21.7707,-154.8906 -230.1334,-161.4293 -293.2907,-187.6373 -43.488,-18.0267 5.0773,-32.7147 87.4773,-17.44 37.28,6.9333 85.4507,37.6747 130.6774,46.9013 19.168,3.9147 31.5093,5.7174 38.496,5.8027 122.6453,155.0933 196.064,351.0187 196.064,564.256 0,23.9787 -1.2054,47.648 -3.0187,71.1467" />
    <path
       inkscape:connector-curvature="0"
       id="path82"
       style="fill:#f4f4f4;fill-opacity:1;fill-rule:nonzero;stroke:none;stroke-width:1.06667"
       d="m 2695.6587,3716.7573 c 30.144,43.9894 29.5466,76.4054 26.1653,110.048 -0.672,2.0907 0.7253,2.0267 2.4427,3.5627 59.168,-12.032 63.872,-69.856 38.4746,-113.44 -12.0533,-20.6293 -23.8293,-31.4987 -42.3146,-25.7387 -15.3067,4.7787 -17.3974,17.0987 -24.768,25.568 z m -24.4694,28.0747 c -25.0453,7.1893 -32.2986,35.6053 -42.4,47.3493 27.296,29.152 25.728,54.7627 24.6614,78.144 -0.2667,5.376 -1.2374,11.3494 0.928,16.6507 5.0986,-0.4267 14.0373,-1.728 21.344,-5.6107 33.2266,-17.5786 46.976,-80.4693 27.6586,-117.44 -8.288,-15.8506 -16.6826,-23.552 -32.192,-19.0933 z m -52.832,59.0293 c -22.56,11.3387 -35.2426,26.4534 -41.12,43.616 -3.456,10.048 -6.112,11.264 -3.776,23.744 5.024,26.944 6.7094,56.672 -0.011,78.0694 l 1.6213,0.7893 c 65.1093,-22.976 102.464,-66.4213 43.2853,-146.2187 z m 171.0507,-22.912 c 0.4587,1.1947 1.5147,1.0027 2.592,0.7467 20.7253,-9.152 42.528,-24.5227 53.1307,-41.1627 20.1493,-31.5733 26.1226,-79.0506 9.3333,-117.216 -7.456,-1.7173 -12.256,-3.4346 -18.2613,-5.568 -1.024,-0.2666 -2.0907,-0.5653 -3.1254,-0.9386 l -5.5893,-2.048 -0.5653,-0.2347 -0.8854,-0.288 0.064,-0.021 c -2.4426,-1.0667 -4.1386,-1.8774 -4.1386,-1.8774 -7.9147,-4.0533 -16.224,-6.464 -24.128,-7.8293 -48.9494,10.5173 -63.7227,66.4107 -63.7227,66.4107 45.728,20.128 71.5733,78.1226 55.296,110.0266 z m 93.92,-76.9813 c 18.016,-9.3867 30.048,-22.2613 36.992,-36.9067 -2.2293,-1.9413 -4.512,-3.936 -6.848,-5.952 -3.0827,5.76 -7.3387,10.9654 -12.9387,15.3814 2.528,-7.36 3.9787,-14.8907 4.512,-22.6347 -3.3493,-2.8587 -6.6453,-5.664 -9.696,-8.2453 -2.8053,-5.3867 -11.4026,-12.5014 -22.3893,-17.1627 8.7147,26.5067 9.76,54.656 10.368,75.52 z m -332.704,170.784 c -9.3547,6.144 -16.64,13.5253 -21.8987,21.664 -4.16,6.464 -10.0053,17.0453 -8.7466,25.7387 0.864,5.984 5.6,14.0053 8.0106,20.704 6.9227,19.2213 9.632,36.5653 4.2027,50.3573 39.584,-17.4507 45.792,-61.3013 18.432,-118.464 z m -75.7973,114.464 c 4.5546,4.9493 8.0746,7.4027 10.944,12.448 4.7146,8.2987 0.011,12.512 2.5173,17.5467 42.528,-5.4934 46.1867,-35.4134 27.8293,-77.8454 -28.3413,9.6 -35.8933,28.576 -41.2906,47.8507 z m -17.2907,45.632 c 14.8053,-4.1173 31.3493,-12.544 15.5733,-37.728 -9.6853,10.368 -12.9706,24.0533 -15.5733,37.728" />
    <path
       inkscape:connector-curvature="0"
       id="path84"
       style="fill:#f6836c;fill-opacity:1;fill-rule:nonzero;stroke:none;stroke-width:1.06667"
       d="m 2697.6107,2935.8613 c -25.536,5.3014 -46.6347,-2.0586 -68.896,-5.888 -14.8054,-2.5066 -35.456,-8.5226 -44.448,0.7574 -3.7867,4.4906 -0.768,9.088 -0.768,9.088 8.5013,21.0453 33.2373,33.44 53.824,39.3706 64.5866,18.624 127.1573,-15.6053 189.4826,-19.68 80.32,-5.2693 137.9094,22.624 178.7094,51.1787 10.7306,7.5093 24.928,25.7707 43.0826,13.7813 -7.7333,-16.064 -28.2346,-26.6346 -45.2266,-35.4346 -29.7494,-15.392 -56.1387,-28.864 -90.432,-37.408 57.792,8.8533 98.8693,32.9706 142.112,55.136 5.2906,-11.136 11.2426,-33.4614 15.1573,-52.3734 l 0.544,0.064 c 0,0 3.936,-10.592 2.7733,-20.9386 0.1494,-4.9387 -0.8426,-9.184 -4.3626,-11.52 -1.184,-1.5147 -2.6134,-2.9227 -4.3947,-4.096 -15.7867,-10.3574 -62.624,-33.28 -100.192,-36 -1.2373,-0.064 -2.432,-0.224 -3.6587,-0.352 l -2.7626,-0.7787 -0.085,0.5227 c -34.0693,-3.9574 -56.1066,-18.0267 -12.544,-10.848 43.6054,7.2 136.9707,23.104 102.9547,10.3146 l 0.1173,0.011 c -42.4746,-16.6187 -98.1973,-32.896 -152.8853,-27.5627 -35.3493,3.4347 -71.9147,20.8107 -103.3493,37.408 -31.4027,16.5654 -61.184,38.3467 -94.752,45.248" />
    <path
       inkscape:connector-curvature="0"
       id="path86"
       style="fill:#f4f4f4;fill-opacity:1;fill-rule:nonzero;stroke:none;stroke-width:1.06667"
       d="m 2481.312,2511.6907 c 4.352,2.368 5.3013,-7.6694 8.8427,-20.2454 3.552,-12.6826 21.1626,-38.7306 21.1626,-38.7306 2.5067,-5.3654 -7.1146,-10.656 -14.4213,-13.0774 -7.2107,-2.4213 -7.2107,1.1627 -7.2107,1.1627 0,0 -13.0453,18.6667 -15.0613,36.064 -2.048,17.2053 2.3787,32.5547 6.688,34.8267 z m 43.3493,1.9306 c 5.0027,2.6987 6.0587,-8.736 10.08,-23.072 4.032,-14.3893 24.1814,-44.032 24.1814,-44.032 2.8586,-6.08 -8.2454,-12.0533 -16.6294,-14.848 -8.2773,-2.7306 -8.2666,1.344 -8.2666,1.344 0,0 -14.912,21.216 -17.1734,41.0027 -2.2933,19.5733 2.848,37.0027 7.808,39.6053 z m 43.1147,23.4667 c 6.4,3.4133 7.712,-11.0933 12.8,-29.2373 5.088,-18.272 30.784,-55.8187 30.784,-55.8187 3.6373,-7.712 -10.6133,-15.328 -21.344,-18.8267 -10.6133,-3.4666 -10.5813,1.664 -10.5813,1.664 0,0 -18.9654,26.88 -21.792,51.9254 -2.8587,24.7786 3.7653,46.9333 10.1333,50.2933 z m 61.28,26.7627 c 6.496,3.2533 7.4347,-10.7734 11.9253,-28.32 4.5974,-17.7494 29.1094,-54.24 29.1094,-54.24 3.4133,-7.456 -11.0187,-14.7094 -21.8454,-18.0374 -10.688,-3.2426 -10.5813,1.728 -10.5813,1.728 0,0 -18.112,26.112 -20.2133,50.3147 -2.112,23.9893 5.184,45.376 11.6053,48.5547 z m 47.2107,33.8986 c 6.4746,4.2454 9.216,-9.824 16.1813,-26.9546 7.0187,-17.1947 37.8773,-50.9654 37.8773,-50.9654 4.6187,-7.168 -9.8773,-16.6186 -21.0346,-21.6106 -10.9867,-4.8747 -11.4774,0.3093 -11.4774,0.3093 0,0 -22.56,24.1387 -27.84,48.48 -5.2266,24.0427 -0.1493,46.5707 6.2934,50.7413 z m 52.0213,43.6694 c 5.7707,4.768 10.0907,-7.584 18.9867,-22.1547 9.0133,-14.8587 43.3386,-41.184 43.3386,-41.184 5.44,-5.9093 -7.4026,-16.9067 -17.6746,-23.1253 -10.144,-6.1227 -11.1894,-1.4294 -11.1894,-1.4294 0,0 -25.0986,18.9547 -33.248,40.4694 -8.0533,21.312 -5.8773,42.6773 -0.2133,47.424 z m 197.7493,129.0026 c 4.4587,4 9.1414,-4.384 17.824,-13.8773 8.7574,-9.6533 39.4987,-24.7893 39.4987,-24.7893 4.9707,-3.6587 -4.9067,-12.8427 -12.9173,-18.368 -8,-5.536 -9.2694,-2.2827 -9.2694,-2.2827 0,0 -22.6453,10.72 -31.2106,25.344 -8.5227,14.4427 -8.384,29.9307 -3.9254,33.9733 z m -89.4186,-161.312 c -10.08,-6.8053 -11.552,-2.368 -11.552,-2.368 0,0 -27.168,16.6294 -37.0027,37.1307 -9.6213,20.2027 -8.8,41.1093 -3.232,46.1547 5.6213,5.0666 10.9227,-6.5814 21.0773,-20.16 10.304,-13.8027 47.4454,-36.896 47.4454,-36.896 5.952,-5.3547 -6.6134,-17.0134 -16.736,-23.8614 z m 16.512,122.4 c 5.4613,5.12 11.3066,-5.7386 22.2186,-18.08 11.04,-12.6293 49.7814,-32.7253 49.7814,-32.7253 6.304,-4.7573 -6.0267,-16.6507 -16.0214,-23.7867 -9.9946,-7.1573 -11.6693,-2.9333 -11.6693,-2.9333 0,0 -28.3307,14.368 -39.1147,33.4187 -10.688,18.7946 -10.7093,38.976 -5.1946,44.1066 z m 107.8613,381.184 c 0,0 6.2827,-1.056 3.4453,-9.952 -2.8266,-8.8746 -3.3706,-36.4053 5.216,-48.2453 8.64,-11.8933 -5.9093,-7.3813 -17.2693,4.6293 -11.3813,11.9574 -19.424,33.9734 -16.9707,48.9494 0,0 -0.6506,6.2933 25.5787,4.6186 z m -40.1387,-72.8533 c 13.7707,-15.392 -7.3173,-11.2853 -24.9706,3.8827 -17.6534,15.136 -32.1067,44.672 -30.7734,65.984 0,0 -1.8026,8.7253 35.2534,10.2293 0,0 9.0026,-0.5867 6.2186,-13.4507 -2.6453,-12.832 0.48,-51.3706 14.272,-66.6453 z m -75.8506,-9.824 c 13.4933,-19.648 -9.9414,-11.7653 -27.8614,8.2667 -17.9306,20.0426 -30.0373,56.1173 -25.4293,80.4373 0,0 -0.7893,10.208 41.6853,6.304 0,0 10.176,-2.0267 5.2374,-16.2773 -5.056,-14.3894 -7.0934,-59.0614 6.368,-78.7307 z m -115.2107,19.8187 c -18.1227,22.912 -28.992,63.3493 -22.4,89.8453 0,0 -0.1493,11.3813 45.728,5.0133 0,0 10.848,-2.752 4.5227,-18.3146 -6.336,-15.5307 -11.4774,-64.6827 1.8453,-87.0294 13.312,-22.3146 -11.5733,-12.5333 -29.696,10.4854 z m -88.736,12.1066 c -18.432,23.1467 -29.6213,64.224 -23.0933,91.3707 0,0 -0.2454,11.5093 46.1546,5.6533 0,0 10.9974,-2.6666 4.672,-18.592 -6.304,-15.9146 -11.2426,-66.1333 2.2934,-88.6933 13.6106,-22.592 -11.6054,-12.9387 -30.0267,10.2613 z m -85.856,-22.656 c -22.2827,30.0054 -37.216,83.2747 -31.3173,118.592 0,0 -0.864,15.0934 52.2453,7.8294 0,0 12.7467,-3.328 6.4427,-24.2134 -6.336,-20.7573 -9.2267,-86.048 7.488,-115.3173 16.704,-29.2267 -12.5547,-16.8533 -34.8587,13.1093 z m -86.016,18.8054 c -22.1867,25.9093 -36.8107,73.216 -30.6453,105.2373 0,0 -0.832,13.5467 52.48,9.4613 0,0 12.7573,-2.4533 6.2293,-21.4293 -6.4427,-18.9547 -9.7813,-77.8667 6.8053,-103.4453 16.6507,-25.5147 -12.6506,-15.7654 -34.8693,10.176 z m -83.4987,30.048 c -16.1706,22.56 -25.088,62.2293 -18.2506,88.1813 0,0 0.16,11.1253 42.5173,4.608 0,0 10.048,-2.7627 3.7013,-17.9093 -6.2933,-15.2214 -12.448,-63.392 -0.704,-85.3547 11.7547,-21.9413 -11.0826,-12.192 -27.264,10.4747 z m -66.1226,16.5333 c -14.8907,17.9627 -24.3094,49.6533 -19.5627,70.5387 0,0 -0.3733,8.9173 36.2453,4.2026 0,0 8.8,-2.08 3.9787,-14.3573 -4.6293,-12.224 -7.8293,-50.9333 3.2533,-68.4373 11.0294,-17.4934 -8.992,-9.888 -23.9146,8.0533 z m -76.928,-12.384 c -17.92,20.0427 -30.0267,56.1067 -25.4294,80.448 0,0 -0.7893,10.1867 41.6854,6.304 0,0 10.1866,-2.0267 5.2373,-16.2987 -5.056,-14.3786 -7.0933,-59.0506 6.3787,-78.7413 13.4826,-19.6373 -9.952,-11.7653 -27.872,8.288 z m -55.9467,0.768 c -17.664,15.1467 -32.1173,44.6933 -30.784,65.9947 0,0 -1.8027,8.7253 35.232,10.2186 0,0 9.024,-0.5653 6.2507,-13.44 -2.6667,-12.8426 0.4586,-51.3813 14.2506,-66.6453 13.7707,-15.3813 -7.3173,-11.3067 -24.9493,3.872" />
    <path
       inkscape:connector-curvature="0"
       id="path88"
       style="fill:#f4f4f4;fill-opacity:1;fill-rule:nonzero;stroke:none;stroke-width:1.06667"
       d="m 2993.9947,3575.104 c 13.728,7.4667 29.92,55.8613 63.168,35.7653 24.7146,-14.9333 36.4906,-18.72 36.4906,-18.72 0,0 -17.2586,-4.8533 -25.1093,-17.824 -7.8613,-12.9706 -17.2693,-22.9546 -44.736,-18.88 -28.8427,4.288 -34.1227,-0.2346 -48.64,-2.6026 0,0 5.0773,14.784 18.8267,22.2613" />
    <path
       inkscape:connector-curvature="0"
       id="path90"
       style="fill:#403c3d;fill-opacity:1;fill-rule:evenodd;stroke:none;stroke-width:1.06667"
       d="m 2913.472,3661.1093 c -3.0827,5.76 -7.3387,10.9654 -12.9387,15.3814 2.528,-7.36 3.9787,-14.8907 4.512,-22.6347 -3.3493,-2.8587 -6.6453,-5.664 -9.696,-8.2453 -2.8053,-5.3867 -11.4026,-12.5014 -22.3893,-17.1627 8.7147,26.5067 9.76,54.656 10.368,75.52 18.016,-9.3867 30.048,-22.2613 36.992,-36.9067 -2.2293,-1.9413 -4.512,-3.936 -6.848,-5.952 z m -59.008,-37.792 c -7.456,-1.7173 -12.256,-3.4346 -18.2613,-5.568 -1.024,-0.2666 -2.0907,-0.5653 -3.1254,-0.9386 l -5.5893,-2.048 -0.5653,-0.2347 -0.8854,-0.288 0.064,-0.021 c -2.4426,-1.0667 -4.1386,-1.8774 -4.1386,-1.8774 -7.9147,-4.0533 -16.224,-6.464 -24.128,-7.8293 -48.9494,10.5173 -63.7227,66.4107 -63.7227,66.4107 45.728,20.128 71.5733,78.1226 55.296,110.0266 0.4587,1.1947 1.5147,1.0027 2.592,0.7467 20.7253,-9.152 42.528,-24.5227 53.1307,-41.1627 20.1493,-31.5733 26.1226,-79.0506 9.3333,-117.216 z m -134.0373,67.872 c -15.3067,4.7787 -17.3974,17.0987 -24.768,25.568 30.144,43.9894 29.5466,76.4054 26.1653,110.048 -0.672,2.0907 0.7253,2.0267 2.4427,3.5627 59.168,-12.032 63.872,-69.856 38.4746,-113.44 -12.0533,-20.6293 -23.8293,-31.4987 -42.3146,-25.7387 z m -49.2374,53.6427 c -25.0453,7.1893 -32.2986,35.6053 -42.4,47.3493 27.296,29.152 25.728,54.7627 24.6614,78.144 -0.2667,5.376 -1.2374,11.3494 0.928,16.6507 5.0986,-0.4267 14.0373,-1.728 21.344,-5.6107 33.2266,-17.5786 46.976,-80.4693 27.6586,-117.44 -8.288,-15.8506 -16.6826,-23.552 -32.192,-19.0933 z m -52.832,59.0293 c -22.56,11.3387 -35.2426,26.4534 -41.12,43.616 -3.456,10.048 -6.112,11.264 -3.776,23.744 5.024,26.944 6.7094,56.672 -0.011,78.0694 l 1.6213,0.7893 c 65.1093,-22.976 102.464,-66.4213 43.2853,-146.2187 z m -427.2213,-634.592 c 0,0 9.024,-0.5653 6.2507,-13.44 -2.6667,-12.8426 0.4586,-51.3813 14.2506,-66.6453 13.7707,-15.3813 -7.3173,-11.3067 -24.9493,3.872 -17.664,15.1467 -32.1173,44.6933 -30.784,65.9947 0,0 -1.8027,8.7253 35.232,10.2186 z m 26.0693,3.4667 c 0,0 -0.7893,10.1867 41.6854,6.304 0,0 10.1866,-2.0267 5.2373,-16.2987 -5.056,-14.3786 -7.0933,-59.0506 6.3787,-78.7413 13.4826,-19.6373 -9.952,-11.7653 -27.872,8.288 -17.92,20.0427 -30.0267,56.1067 -25.4294,80.448 z m 82.7947,2.4747 c 0,0 -0.3733,8.9173 36.2453,4.2026 0,0 8.8,-2.08 3.9787,-14.3573 -4.6293,-12.224 -7.8293,-50.9333 3.2533,-68.4373 11.0294,-17.4934 -8.992,-9.888 -23.9146,8.0533 -14.8907,17.9627 -24.3094,49.6533 -19.5627,70.5387 z m 67.4347,1.1093 c 0,0 0.16,11.1253 42.5173,4.608 0,0 10.048,-2.7627 3.7013,-17.9093 -6.2933,-15.2214 -12.448,-63.392 -0.704,-85.3547 11.7547,-21.9413 -11.0826,-12.192 -27.264,10.4747 -16.1706,22.56 -25.088,62.2293 -18.2506,88.1813 z m 71.104,-12.992 c 0,0 -0.832,13.5467 52.48,9.4613 0,0 12.7573,-2.4533 6.2293,-21.4293 -6.4427,-18.9547 -9.7813,-77.8667 6.8053,-103.4453 16.6507,-25.5147 -12.6506,-15.7654 -34.8693,10.176 -22.1867,25.9093 -36.8107,73.216 -30.6453,105.2373 z m 85.344,-5.4507 c 0,0 -0.864,15.0934 52.2453,7.8294 0,0 12.7467,-3.328 6.4427,-24.2134 -6.336,-20.7573 -9.2267,-86.048 7.488,-115.3173 16.704,-29.2267 -12.5547,-16.8533 -34.8587,13.1093 -22.2827,30.0054 -37.216,83.2747 -31.3173,118.592 z m 94.08,-4.5653 c 0,0 -0.2454,11.5093 46.1546,5.6533 0,0 10.9974,-2.6666 4.672,-18.592 -6.304,-15.9146 -11.2426,-66.1333 2.2934,-88.6933 13.6106,-22.592 -11.6054,-12.9387 -30.0267,10.2613 -18.432,23.1467 -29.6213,64.224 -23.0933,91.3707 z m 89.4293,-13.632 c 0,0 -0.1493,11.3813 45.728,5.0133 0,0 10.848,-2.752 4.5227,-18.3146 -6.336,-15.5307 -11.4774,-64.6827 1.8453,-87.0294 13.312,-22.3146 -11.5733,-12.5333 -29.696,10.4854 -18.1227,22.912 -28.992,63.3493 -22.4,89.8453 z m 84.32,-20.96 c 0,0 -0.7893,10.208 41.6853,6.304 0,0 10.176,-2.0267 5.2374,-16.2773 -5.056,-14.3894 -7.0934,-59.0614 6.368,-78.7307 13.4933,-19.648 -9.9414,-11.7653 -27.8614,8.2667 -17.9306,20.0426 -30.0373,56.1173 -25.4293,80.4373 z m 108.6507,1.216 c 0,0 9.0026,-0.5867 6.2186,-13.4507 -2.6453,-12.832 0.48,-51.3706 14.272,-66.6453 13.7707,-15.392 -7.3173,-11.2853 -24.9706,3.8827 -17.6534,15.136 -32.1067,44.672 -30.7734,65.984 0,0 -1.8026,8.7253 35.2534,10.2293 z m 105.152,-109.248 c 10.7306,7.5093 24.928,25.7707 43.0826,13.7813 -7.7333,-16.064 -28.2346,-26.6346 -45.2266,-35.4346 -29.7494,-15.392 -56.1387,-28.864 -90.432,-37.408 57.792,8.8533 98.8693,32.9706 142.112,55.136 5.2906,-11.136 11.2426,-33.4614 15.1573,-52.3734 l 0.544,0.064 c 0,0 3.936,-10.592 2.7733,-20.9386 0.1494,-4.9387 -0.8426,-9.184 -4.3626,-11.52 -1.184,-1.5147 -2.6134,-2.9227 -4.3947,-4.096 -15.7867,-10.3574 -62.624,-33.28 -100.192,-36 -1.2373,-0.064 -2.432,-0.224 -3.6587,-0.352 l -2.7626,-0.7787 -0.085,0.5227 c -34.0693,-3.9574 -56.1066,-18.0267 -12.544,-10.848 43.6054,7.2 136.9707,23.104 102.9547,10.3146 l 0.1173,0.011 c -42.4746,-16.6187 -98.1973,-32.896 -152.8853,-27.5627 -35.3493,3.4347 -71.9147,20.8107 -103.3493,37.408 -31.4027,16.5654 -61.184,38.3467 -94.752,45.248 -25.536,5.3014 -46.6347,-2.0586 -68.896,-5.888 -14.8054,-2.5066 -35.456,-8.5226 -44.448,0.7574 -3.7867,4.4906 -0.768,9.088 -0.768,9.088 8.5013,21.0453 33.2373,33.44 53.824,39.3706 64.5866,18.624 127.1573,-15.6053 189.4826,-19.68 80.32,-5.2693 137.9094,22.624 178.7094,51.1787 z m -44.5227,102.0053 c 0,0 6.2827,-1.056 3.4453,-9.952 -2.8266,-8.8746 -3.3706,-36.4053 5.216,-48.2453 8.64,-11.8933 -5.9093,-7.3813 -17.2693,4.6293 -11.3813,11.9574 -19.424,33.9734 -16.9707,48.9494 0,0 -0.6506,6.2933 25.5787,4.6186 z m 9.4507,-399.3066 c -8,-5.536 -9.2694,-2.2827 -9.2694,-2.2827 0,0 -22.6453,10.72 -31.2106,25.344 -8.5227,14.4427 -8.384,29.9307 -3.9254,33.9733 4.4587,4 9.1414,-4.384 17.824,-13.8773 8.7574,-9.6533 39.4987,-24.7893 39.4987,-24.7893 4.9707,-3.6587 -4.9067,-12.8427 -12.9173,-18.368 z m -61.3334,-56.4694 c -9.9946,-7.1573 -11.6693,-2.9333 -11.6693,-2.9333 0,0 -28.3307,14.368 -39.1147,33.4187 -10.688,18.7946 -10.7093,38.976 -5.1946,44.1066 5.4613,5.12 11.3066,-5.7386 22.2186,-18.08 11.04,-12.6293 49.7814,-32.7253 49.7814,-32.7253 6.304,-4.7573 -6.0267,-16.6507 -16.0214,-23.7867 z m -72.4906,-47.808 c -10.08,-6.8053 -11.552,-2.368 -11.552,-2.368 0,0 -27.168,16.6294 -37.0027,37.1307 -9.6213,20.2027 -8.8,41.1093 -3.232,46.1547 5.6213,5.0666 10.9227,-6.5814 21.0773,-20.16 10.304,-13.8027 47.4454,-36.896 47.4454,-36.896 5.952,-5.3547 -6.6134,-17.0134 -16.736,-23.8614 z m -63.68,-54.1546 c -10.144,-6.1227 -11.1894,-1.4294 -11.1894,-1.4294 0,0 -25.0986,18.9547 -33.248,40.4694 -8.0533,21.312 -5.8773,42.6773 -0.2133,47.424 5.7707,4.768 10.0907,-7.584 18.9867,-22.1547 9.0133,-14.8587 43.3386,-41.184 43.3386,-41.184 5.44,-5.9093 -7.4026,-16.9067 -17.6746,-23.1253 z m -63.648,-56.736 c -10.9867,-4.8747 -11.4774,0.3093 -11.4774,0.3093 0,0 -22.56,24.1387 -27.84,48.48 -5.2266,24.0427 -0.1493,46.5707 6.2934,50.7413 6.4746,4.2454 9.216,-9.824 16.1813,-26.9546 7.0187,-17.1947 37.8773,-50.9654 37.8773,-50.9654 4.6187,-7.168 -9.8773,-16.6186 -21.0346,-21.6106 z m -61.0454,-34.9654 c -10.688,-3.2426 -10.5813,1.728 -10.5813,1.728 0,0 -18.112,26.112 -20.2133,50.3147 -2.112,23.9893 5.184,45.376 11.6053,48.5547 6.496,3.2533 7.4347,-10.7734 11.9253,-28.32 4.5974,-17.7494 29.1094,-54.24 29.1094,-54.24 3.4133,-7.456 -11.0187,-14.7094 -21.8454,-18.0374 z m -58.2293,-30.048 c -10.6133,-3.4666 -10.5813,1.664 -10.5813,1.664 0,0 -18.9654,26.88 -21.792,51.9254 -2.8587,24.7786 3.7653,46.9333 10.1333,50.2933 6.4,3.4133 7.712,-11.0933 12.8,-29.2373 5.088,-18.272 30.784,-55.8187 30.784,-55.8187 3.6373,-7.712 -10.6133,-15.328 -21.344,-18.8267 z m -47.7227,-1.536 c -8.2773,-2.7306 -8.2666,1.344 -8.2666,1.344 0,0 -14.912,21.216 -17.1734,41.0027 -2.2933,19.5733 2.848,37.0027 7.808,39.6053 5.0027,2.6987 6.0587,-8.736 10.08,-23.072 4.032,-14.3893 24.1814,-44.032 24.1814,-44.032 2.8586,-6.08 -8.2454,-12.0533 -16.6294,-14.848 z m -45.3973,7.968 c -7.2107,-2.4213 -7.2107,1.1627 -7.2107,1.1627 0,0 -13.0453,18.6667 -15.0613,36.064 -2.048,17.2053 2.3787,32.5547 6.688,34.8267 4.352,2.368 5.3013,-7.6694 8.8427,-20.2454 3.552,-12.6826 21.1626,-38.7306 21.1626,-38.7306 2.5067,-5.3654 -7.1146,-10.656 -14.4213,-13.0774 z m 53.728,1435.1147 c -9.3547,6.144 -16.64,13.5253 -21.8987,21.664 -4.16,6.464 -10.0053,17.0453 -8.7466,25.7387 0.864,5.984 5.6,14.0053 8.0106,20.704 6.9227,19.2213 9.632,36.5653 4.2027,50.3573 39.584,-17.4507 45.792,-61.3013 18.432,-118.464 z m -75.7973,114.464 c 4.5546,4.9493 8.0746,7.4027 10.944,12.448 4.7146,8.2987 0.011,12.512 2.5173,17.5467 42.528,-5.4934 46.1867,-35.4134 27.8293,-77.8454 -28.3413,9.6 -35.8933,28.576 -41.2906,47.8507 z m -17.2907,45.632 c 14.8053,-4.1173 31.3493,-12.544 15.5733,-37.728 -9.6853,10.368 -12.9706,24.0533 -15.5733,37.728 z m 1252,-839.4773 c -11.872,20.704 -24.9067,40.9813 -28.928,58.2613 9.5467,-6.3147 17.4293,-13.6533 24.2773,-21.6853 -1.4293,10.0373 -3.1146,19.9893 -4.8746,29.9306 -10.3574,8.2454 -22.0054,15.488 -35.7227,21.216 -22.0693,98.6667 -69.5573,160.9707 -167.1147,196.5867 -32.704,11.936 -63.68,25.76 -95.936,39.8293 1.8667,105.024 -119.968,102.816 -195.8826,156.8747 -33.0134,23.5733 -70.4534,67.0613 -108.224,75.104 -73.0454,15.5733 -117.9947,-35.4453 -161.1307,-71.072 -10.592,11.5733 -26.4533,22.88 -49.472,33.1733 0,0 -41.1733,58.8267 -60.3733,69.888 -1.2694,0.736 -2.1334,1.408 -2.688,2.0587 -10.6027,4.992 -23.904,7.7973 -33.2907,14.016 -9.28,6.112 -11.04,20.5653 -20.32,27.5627 -4.544,3.4133 -11.5947,7.1146 -17.76,9.5893 -7.4453,2.9973 -20.2027,2.4427 -27.7013,6.5493 -9.2267,5.0667 -9.9627,21.5467 -16.6507,29.728 -7.3707,9.0347 -16.8533,16.4267 -32.192,21.5894 -6.2187,2.0693 -15.6053,2.208 -21.2267,5.2266 -6.272,3.392 -7.808,14.0267 -12.6613,20.544 -11.2853,15.2107 -30.3467,26.9974 -52.0853,34.688 -4.6827,1.6534 -10.9654,1.6534 -14.3894,3.9574 -4.2986,2.88 -4.4693,10.3786 -7.4026,15.616 -4.5334,8.0853 -10.5814,16.2986 -20.3307,21.3226 -4.1707,2.176 -10.5813,1.9734 -14.6667,4.2987 -4.8,2.752 -6.0906,9.472 -10.1333,13.408 -8.1707,7.9787 -17.8773,14.0373 -38.048,8.864 -7.1467,9.2693 -16.5867,16.7147 -31.9573,19.8827 l -0.4694,-0.8214 c 1.9414,-18.3893 4.576,-36.9706 18.5387,-49.696 -3.5413,-21.1306 6.3787,-36.6506 22.4107,-49.152 3.8613,-3.0186 10.2613,-4.608 13.568,-8.5866 4.384,-5.2907 2.5706,-16.0427 4.48,-22.6774 5.9306,-20.48 18.5706,-39.296 39.584,-54.6666 3.072,-2.2614 8.9386,-3.3494 11.6053,-6.368 5.8667,-6.6667 4.16,-17.856 8.5867,-25.5467 4.6506,-8.096 12.576,-17.8667 22.3573,-25.3973 5.3653,-4.1387 13.3653,-6.3467 18.3787,-11.2747 4.064,-3.9787 5.184,-11.136 8.0853,-17.088 7.84,-16.1067 28.5973,-34.7627 38.56,-51.5947 1.312,-2.2186 2.3467,-4.5866 3.2107,-6.976 4.1493,-8.5653 14.1866,-26.72 27.872,-35.104 0,0 1.4293,-25.2053 26.5173,-53.9413 -50.8267,2.752 -99.8613,31.5307 -137.5573,2.944 -10.88,11.8933 -45.792,21.2267 -60.736,4.5333 -11.0187,19.2107 -69.5254,31.4667 -80.9067,1.1094 -83.1787,37.3866 -183.552,-15.9147 -215.8187,-69.4187 -5.984,-2.8587 -11.584,-5.8773 -16.8746,-8.9707 -22.7627,6.8587 -53.6,9.2907 -86.976,-14.816 -32.896,-23.776 -67.2854,-130.4106 -61.3654,-204.2453 0.64,-7.904 15.616,-26.5813 20.992,-63.9893 5.3547,-37.12 9.4187,-49.3014 9.4187,-49.3014 -7.3173,-12.7893 -16.0427,-18.5066 -17.2267,-33.472 -2.5813,-32.384 25.056,-49.9733 50.944,-66.56 9.2267,-4.3093 19.648,-7.392 30.976,-7.808 6.8374,-10.8266 33.184,-47.52 76.736,-47.52 1.0774,0 2.176,0.075 3.2427,0.1387 16.6293,-14.0053 33.984,-17.7707 22.0053,-0.5013 -0.992,1.4186 -1.8346,3.0186 -2.624,4.672 8.0107,-4.768 17.696,-9.408 26.336,-10.2507 0.1707,-0.021 4.2454,-1.0453 7.616,-1.0453 1.216,0 4.7787,0 6.0374,2.7413 1.2586,2.7733 -1.28,5.7387 -2.1227,6.6987 -3.488,4.0213 -7.4133,14.496 -10.368,24.2773 3.2,-5.8667 6.6667,-11.424 10.56,-16.224 20.7253,-25.4827 49.7387,-37.5467 33.536,-12.1707 -5.1947,8.1174 -8.16,19.1894 -9.6107,30.944 8.032,-9.8986 21.856,-21.4293 44.3307,-26.0266 18.5813,-17.696 41.6747,-24.9387 27.84,-6.1227 -3.5413,4.8107 -5.8453,11.0187 -7.2213,17.792 11.2,-13.4613 30.144,-30.752 53.3653,-30.752 l 1.696,0.032 0.4693,0.021 c 15.936,-10.784 29.28,-12.5866 17.3547,2.976 -5.1627,6.784 -7.9787,16.1707 -9.248,26.08 10.528,-21.504 30.8373,-51.1146 65.8027,-60.6186 0.256,-0.1067 6.2826,-1.76 11.2533,-1.76 3.872,0 6.3253,0.992 7.488,3.1146 1.696,3.0614 -0.5333,6.6027 -1.2693,7.7654 -2.2507,3.6373 -4.352,8.1493 -6.1654,12.608 15.6907,-9.216 27.296,-10.0054 15.072,5.0133 -6.304,7.744 -9.664,18.6667 -11.0506,29.952 8.5333,-22.8373 25.9093,-54.912 60.2453,-75.936 0.2453,-0.1173 6.432,-3.0187 13.28,-3.0187 3.3067,0 6.2613,0.6827 8.8107,1.9627 2.1866,1.1413 3.616,2.9867 4.2026,5.3333 1.792,7.1574 -4.992,17.3334 -5.6,18.1654 -2.8266,5.568 -8,17.3333 -10.5493,27.6373 l 0.256,-0.2133 c 24.8107,-20.0534 57.024,-29.344 37.152,-9.3334 -12.064,12.16 -16.7147,33.0027 -17.1307,50.016 7.2534,-20.3733 24.8747,-55.6586 61.376,-62.656 0.2454,-0.021 5.8987,-1.1093 10.08,-1.1093 2.3147,0 5.1094,0.256 6.0907,2.496 0.416,0.9387 0.5867,2.4747 -1.0667,4.3307 -2.7306,3.0826 -6.6026,12.352 -8.6613,19.8506 1.728,-1.3226 3.4133,-2.7306 5.216,-3.8933 17.7067,-11.6373 38.6027,-17.7173 41.3333,-13.952 5.6534,-4.6507 14.5174,-10.7627 26.5494,-16.064 1.1306,-2.5813 2.24,-5.1627 3.1466,-7.7547 0,0 5.6107,-15.648 7.776,-24.1173 -28.64,7.4347 -77.6533,21.8347 -114.1226,13.7707 -28.8107,-6.3574 -103.8934,-47.9467 -85.7387,-77.184 1.216,-1.952 2.7627,-3.3067 4.544,-4.416 l 1.12,-0.4267 c 7.1787,-3.8293 19.8187,-6.0693 33.12,-5.9627 l 4.832,0.1387 c 7.7333,0.4267 27.9787,3.3387 34.848,5.568 20.0747,6.5387 38.016,2.6133 38.016,2.6133 l -0.2667,-0.1813 c 14.272,-1.6747 29.3334,-6.688 44.8854,-14.6453 16.704,-8.512 39.4346,-22.5707 45.2266,-29.5147 10.432,-12.5653 -5.5573,-42.0267 -11.52,-60.1707 -0.288,-1.0666 -0.6506,-2.1866 -1.0026,-3.296 l -0.416,-1.504 -0.064,0.043 c -0.8427,-2.5493 -1.8774,-5.216 -2.9974,-7.9467 -1.0133,1.28 -1.92,2.5174 -2.592,3.6694 -5.7066,9.632 -8.7893,18.0586 -11.7333,14.1866 -2.9547,-3.8826 -3.0933,-19.2533 2.5173,-33.7706 0.576,-1.4934 1.28,-2.912 2.0374,-4.3307 -6.464,-11.8613 -14.3147,-24.288 -22.592,-36.1813 -6.432,6.1013 -12.9387,12.9813 -16.096,18.464 -7.3494,12.6186 -11.264,23.6906 -15.0187,18.592 -3.7973,-5.056 -3.8933,-25.4827 3.3067,-44.6507 2.3466,-6.2613 5.9413,-11.9253 9.696,-16.8747 -5.7067,-7.2106 -11.2747,-13.8773 -16.3627,-19.5306 -2.2827,-2.528 -4.9707,-5.3547 -7.8293,-8.32 -7.8507,8.128 -17.792,19.232 -21.8134,27.2853 -6.9973,14.0693 -10.6026,26.0587 -14.5813,20.9493 -3.968,-5.1413 -4.7467,-26.7413 1.8773,-47.6266 2.72,-8.5547 7.4134,-16.3627 12.0534,-22.72 -8.512,-8.1067 -17.76,-16.6934 -27.2534,-25.376 -5.76,7.6586 -11.4346,16.064 -14.0373,22.5066 -6.24,15.2107 -9.1947,28.1067 -13.4187,23.168 -4.1493,-4.9813 -5.9733,-27.424 -0.3733,-49.792 1.376,-5.5146 3.4773,-10.816 5.8773,-15.7226 -9.408,-8.416 -18.5066,-16.48 -26.8586,-23.7974 -2.4534,5.344 -4.5014,10.4 -5.632,14.5707 -4.9067,18.112 -6.7414,33.0667 -11.5627,28.4907 -4.832,-4.48 -8.9387,-28.608 -5.408,-54.2507 0.3307,-2.4533 0.8107,-4.896 1.3547,-7.3387 l -2.3574,-2.0266 c -5.4506,-4.7254 -11.392,-10.4214 -17.536,-16.6827 -1.5253,4.8213 -2.7093,9.3227 -3.3386,13.0667 -3.104,18.88 -3.584,33.9733 -8.5227,30.368 -4.928,-3.5414 -10.8267,-26.8267 -9.6427,-52.8747 0.1814,-4.096 0.6827,-8.2347 1.3547,-12.288 -7.2107,-8.128 -14.3467,-16.544 -21.0667,-24.7253 -3.8933,10.0053 -7.4133,20.3733 -8.7786,27.8506 -3.5627,19.7654 -4.2987,35.6267 -9.344,31.7334 -4.6187,-3.5094 -9.6854,-24.6614 -9.1307,-49.2694 -5.024,-3.68 -11.5413,-20.832 -11.7547,-40.2773 -0.096,-6.6133 1.0774,-13.3867 2.6774,-19.5093 -3.2534,-4.5974 -8.96,-7.776 -12.9494,-13.408 -20.5866,-28.8534 -12.192,-63.2214 32.2987,-70.8694 13.632,-42.0906 48.1813,-62.5173 101.1947,-62.9866 7.1253,-0.075 14.5493,2.4213 21.5253,1.984 7.872,-0.5334 14.3573,-3.7334 21.5467,-3.9574 38.6346,-1.1626 58.9013,11.1254 88.256,19.712 21.92,6.3574 44.5226,8.416 58.1546,13.76 20.8747,8.192 30.7947,30.688 47.36,41.344 6.1654,3.9574 17.8027,5.824 28,11.7974 8.608,5.0666 16.0534,14.2826 23.68,17.7066 6.656,3.04 17.76,2.432 25.8347,5.92 13.5147,5.8774 28.4587,18.56 45.2267,27.584 35.104,18.8054 63.68,32.7254 101.1946,49.184 17.92,7.872 36.8854,26.368 47.3707,27.5627 12.4267,1.44 26.9013,-8.96 36.5973,-7.8613 19.7547,-23.5307 26.6454,-56.416 25.8134,-98.688 1.1733,-0.1174 0.3093,-10.4854 0.3093,-10.4854 0,0 6.9013,-90.7626 -134.5813,-139.7653 -44,-15.232 -124.8747,-55.264 -184.9494,-86.1013 233.504,7.264 444.704,102.752 601.6107,254.4213 -47.456,-12.32 -98.048,-44.576 -129.2053,-47.5307 -84.96,-8.0533 -100.1814,29.7814 -32.3094,36.0214 25.632,2.3573 63.456,5.248 93.6534,19.6053 52.6933,25.0773 106.9866,49.3013 135.7866,64.896 4.704,5.664 9.2054,11.4987 13.7814,17.28 -6.9867,-0.085 -19.328,-1.888 -38.496,-5.8027 -45.2267,-9.2266 -93.3974,-39.968 -130.6774,-46.9013 -82.4,-15.2747 -130.9653,-0.5867 -87.4773,17.44 63.1573,26.208 271.52,32.7467 293.2907,187.6373 21.7813,154.912 6.5386,224.768 -4.3627,264.032 -5.216,18.8267 -16.9067,46.6134 -27.712,70.496 -3.04,16.8534 -7.0507,31.1467 -10.5387,41.344 -1.9626,4.5974 -3.9146,10.5067 -5.8453,17.9734 0,0 -2.72,19.104 5.984,37.632 7.712,16.4586 34.1867,52.1173 35.9787,86.6133 0.032,2.0907 0.1173,4.1813 0.085,6.272 -0.1067,2.336 -0.3093,4.64 -0.672,6.944 l -0.192,2.0373 c -3.4027,19.3494 -14.4853,32.8214 -29.536,42.8587 -9.696,6.4427 -22.8907,8.48 -30.144,17.696 5.7813,18.2293 24.224,24.7147 31.904,39.616 4.8,13.216 0.8853,27.1147 -6.4107,39.744 -14.048,15.776 -41.6426,29.4613 -66.4106,38.752 -31.008,11.648 -62.528,20.8427 -83.8294,37.5787 -22.5173,12 -37.6426,35.2106 -23.8293,65.8773 3.5947,7.9787 5.1947,16 5.088,23.6373 l -0.096,2.2294 c -0.032,1.5573 -0.2453,2.9546 -0.4373,4.3946 -0.1707,1.1094 -0.352,2.208 -0.5974,3.296 l -0.5013,1.9094 -0.5973,2.1546 c -5.6747,19.1467 -35.776,24.544 -46.5067,25.4934 -24.3093,2.1866 -40.0213,8.7893 -52.9387,12.8853 10.3894,-5.4187 20.8427,-12.64 34.144,-18.0053 8.4267,-3.4347 20.512,-5.4934 30.6987,-8.8854 l 0.075,0.011 c 0,0 18.7946,-3.808 23.9573,-16.9067 5.1733,-13.088 2.176,-24.544 0,-31.8933 l -0.7893,-2.1227 c -1.8774,-5.7493 -3.9787,-11.2746 -4.416,-16.992 -1.76,-22.5493 12.0533,-34.304 19.3813,-53.1626 13.216,-12.576 32.032,-25.6 58.1333,-37.3867 23.4454,-10.624 51.5094,-17.0453 68.896,-27.5627 10.08,-6.0906 28.416,-20.8106 28,-31.52 -0.32,-8.192 -15.4346,-19.3813 -21.536,-27.5413 -4.3413,-5.8133 -6.5173,-13.5253 -10.4,-19.0187 -3.4026,-5.3546 -7.744,-8.8106 -12.7573,-8.8106 -6.528,0 -21.4187,-2.528 -11.616,-3.264 9.792,-0.7254 35.2107,-12.7254 35.2107,-12.7254 l -0.021,-0.032 c 34.3467,-14.2186 57.4294,-40.5973 44.8,-78.208 -10.5706,-31.4986 -34.8906,-57.8666 -36.5973,-92.5226 -1.8133,-36.864 15.0613,-67.232 17.216,-96.4694 3.648,-49.1946 -3.4027,-83.0933 -12.9067,-120.0853 -4.4586,-17.2907 -6.8266,-34.3253 -10.7626,-51.1573 -16.768,-71.6907 -60.0214,-102.7414 -118.432,-135.8507 -25.3227,-14.3573 -52.5014,-40.832 -79.6694,-49.2053 -4.3626,-1.344 -11.104,0.704 -15.0826,0 -25.024,-4.5334 -47.5414,-16.9494 -73.2054,-21.6534 -24.1706,-4.448 -49.5146,-2.3253 -78.1973,-9.5893 -14.56,-5.2053 -33.2053,-12.992 -44.096,-17.632 -16.8427,-7.6693 -33.344,-15.6693 -49.8133,-23.744 l -54.6774,-31.2853 c 0,0 -30.4853,-17.6747 3.2747,-4.5974 27.1573,10.5387 120.5013,57.0774 81.3973,29.7494 -26.9653,-13.568 -41.5893,-32.8427 -65.44,-49.28 0,0 -80.2453,-39.8614 -92.288,-50.9974 -13.2266,-12.2453 -29.3973,-5.472 -40.0213,-17.4613 -12.4693,-14.1013 -27.7547,-22.5387 -38.656,-26.1867 -10.88,-3.6586 -23.2213,-27.648 -39.9253,-40 -16.704,-12.3626 -52.992,-8.7253 -84.9494,-22.5493 -31.936,-13.8133 -65.0346,-13.9947 -65.0346,-13.9947 -3.1787,-0.2986 -6.24,-0.4906 -9.184,-0.576 -1.2587,-0.021 -2.432,0 -3.6374,0 -18.688,-0.1066 -32.9706,3.5307 -43.9146,7.5627 -13.344,4.9173 -18.24,2.4533 -15.2427,0.832 2.9867,-1.6427 11.68,-9.7707 11.68,-9.7707 -37.2587,0.043 -47.4347,24.8534 -64.5867,43.2747 7.7974,1.1093 30.0374,-4.3307 18.7414,2.2187 -22.3147,10.6986 -65.2907,11.456 -66.1227,37.1733 -0.6507,20.16 8.608,15.7547 8.608,15.7547 15.6267,-27.264 63.8827,-29.9414 99.0613,-29.5574 65.5254,0.7787 109.8774,36.7894 152.8214,57.152 13.92,8.384 30.1866,19.4027 30.1866,19.4027 l -0.096,-0.3307 c 13.568,8.8534 27.264,17.44 38.8587,28.128 20.224,18.6134 33.8987,42.9014 51.6907,63.5307 2.0693,3.4987 6.4106,7.7867 11.5733,12.0853 5.0133,4.7254 10.4107,9.1094 16.4053,12.96 l 0.2347,-0.48 2.3253,1.568 -0.416,0.8747 c 43.2107,24.5547 83.4987,51.7227 117.472,84.704 l 0.2347,0.384 c 4.864,4.4373 30.4427,33.024 42.8053,46.912 14.56,19.456 25.056,44.0427 31.136,68.8 2.1974,8.96 0.8,19.8507 4.2987,29.5467 5.4187,15.04 19.0613,28.4266 28,43.2853 9.2587,15.4773 15.3813,32.3307 21.5253,49.2267 26.9334,74.1546 58.08,133.184 116.2667,173.2266 28.0427,19.3174 62.0907,31.7547 81.8133,61.056 -14.3146,-14.592 -32.9706,-25.2053 -55.4986,-32.2773 -63.9787,-21.0987 -105.5894,-75.2 -126.5067,-109.536 -16.064,-28.928 -28.48,-61.1627 -37.6,-96.4053 -3.04,43.4453 -13.7387,77.344 -28,110.2506 -12.6827,29.248 -23.8933,60.1707 -47.3707,78.72 0,0 -0.9066,-0.053 -4.544,2.1547 -3.6266,2.1547 60.5227,3.7653 60.5227,3.7653 11.232,-0.4053 22.6453,-2.0053 34.2293,-3.52 2.1654,0.2347 4.832,0.1174 8.096,-0.4693 35.264,-6.2293 71.9254,6.9227 94.752,23.5733 11.8507,8.64 32.4587,15.5627 49.5574,20.2454 0.288,0.7466 1.952,1.5786 6.2186,2.4106 0,0 26.1334,8.16 53.8987,15.808 18.8053,5.1627 32.512,9.1094 42.016,13.8134 5.5147,3.5093 10.7627,7.7333 14.8267,12.7893 8.1386,10.048 8.288,22.1227 15.0826,39.36 6.752,17.1733 17.0774,30.5387 17.216,45.28 0.4907,48.32 -45.1946,86.8053 -94.7306,61.0453 48.768,12.5867 83.36,-11.2426 77.5146,-57.12 -7.2106,-56.6613 -92.4373,-98.6666 -144.2666,-120.0746 -20.544,-8.4694 -44.608,-19.1787 -68.896,-21.6427 -35.04,-3.552 -66.7734,3.9467 -96.896,1.984 -38.6347,-2.56 -64.32,-23.0187 -96.896,-25.6107 -27.9894,-2.24 -24.192,16.7254 -48.48,18.8907 -5.0347,2.8587 -20.3094,0 -35.4987,0.7787 -42.0053,-11.1147 -69.0133,8.128 -103.3387,23.6373 -24.7573,11.2107 -51.1786,21.3973 -77.5253,23.6267 -66.1333,5.6213 -106.3467,-3.5947 -160.4053,2.144 -15.2427,1.632 -46.88,3.552 -61.8987,9.1946 -46.7627,17.5254 -82.5707,11.1787 -133.376,11.8934 -36.96,0.544 -71.2533,2.4853 -94.3253,-1.5574 -6.2934,-1.1413 -12.6614,-2.7733 -19.392,-3.9466 -49.5147,-8.672 -124.928,-13.1627 -122.72,-57.088 3.6906,2.528 2.6666,9.3546 8.608,9.8453 -0.2134,-8.0853 -0.416,-16.1493 2.144,-21.6747 -28.7894,0.7467 -45.7707,20.6614 -45.2054,43.3067 0.96,38.528 62.8267,54.6347 105.504,64.9813 42.7734,10.3467 87.2,22.4534 118.432,27.5627 -74.8053,-11.0187 -153.9306,-18.1013 -211.0293,-45.3013 -0.8,2.9546 -1.3227,5.8133 -1.6533,8.5546 -4.5227,20.7894 -14.3787,52.6934 -21.312,83.6907 -7.9787,35.6267 4.3413,98.1867 4.3413,98.1867 l 0.3093,-0.3627 c 5.152,31.7867 11.712,45.9627 18.0694,64.96 13.536,40.544 57.2586,53.2693 87.872,57.12 -25.8027,-18.272 -42.2934,-40.9173 -52.736,-71.2427 -1.2907,-10.7626 -2.2934,-20.8533 -3.04,-29.76 23.1786,72.256 87.8186,99.296 87.8186,99.296 l 20.6934,22.3574 -0.256,-1.0134 c 35.68,34.5814 82.8373,61.376 142.7626,63.072 30.1974,0.8427 66.688,-7.1253 66.592,-36.7893 -0.053,-16.7787 -13.1413,-31.0293 -30.9973,-38.8907 5.248,-1.0346 10.0587,-0.3093 14.4107,1.4934 l 18.56,20.8 c 6.1226,15.2106 5.5893,34.4106 -4.7574,45.9946 27.3067,23.392 69.824,-2.848 66.7307,-33.8773 7.9893,6.752 12.864,19.52 7.3707,29.632 36.736,21.632 57.3013,-30.8053 94.2826,-18.56 -3.488,10.496 -21.28,8.3627 -26.7093,17.12 48.3307,6.9333 90.7307,-10.0907 139.1893,-6.24 3.04,-2.6453 6.336,-5.2693 9.824,-7.8933 -90.6453,-10.048 -16.992,-9.9947 -16.992,-9.9947 11.6054,1.0667 39.4987,3.0187 50.336,1.0773 17.76,-3.2 29.216,1.1307 44.896,7.2747 0.384,-0.6827 1.952,-0.6293 2.9014,1.152 8.128,3.2 17.504,6.7627 29.3973,9.984 4.608,0.6507 9.2373,1.8347 13.7387,3.296 l 1.9413,0.4053 0.2667,0.3094 c 6.2186,2.1653 12.064,4.7573 17.0773,7.2 45.6853,21.984 83.5627,73.792 122.5813,100.9706 64.6507,45.0027 125.8667,-10.592 170.88,-46.6773 l -0.288,-0.4267 c 11.2854,-7.712 26.1654,-17.2266 42.3787,-27.1786 42.3573,-18.4534 98.2187,-34.6027 128.0533,-64.1387 23.872,-23.6267 31.9894,-54.048 42.2614,-85.6213 9.5786,-29.4614 28.1813,-55.4987 38.6346,-88.544 2.016,1.6853 3.2107,4.2346 3.8827,7.2853 -0.288,2.8267 -0.7467,5.8027 0.096,7.6373 l 0.5653,-0.512 c -0.1173,5.7707 -1.3866,12.5227 -3.36,19.648 -8.8746,18.1014 -24.384,38.7094 -22.4746,54.8374 0,0 55.0186,-28.48 117.4506,-56.7787 21.4934,-9.7493 41.184,-25.8133 58.3574,-44.1813 l 5.0133,0.1173 c -0.5973,-1.2907 -0.5333,-3.1467 -0.352,-5.0987 30.336,-34.0693 51.8507,-74.6453 59.328,-98.1013 1.5467,-4.8213 3.2853,-9.696 5.1627,-14.5493 l 0.011,-0.064 c 2.3574,-6.112 4.896,-12.16 7.5094,-17.9734 l 0.053,0.075 c 1.1093,-1.9733 1.8027,-3.9147 2.5493,-5.8773 9.0027,-19.5414 17.8454,-35.3814 20.32,-39.7227 10.592,-13.2053 18.5067,-31.296 28.3307,-43.1573 -0.5653,7.3066 -0.9387,14.6666 -1.664,21.92 z m -881.2693,295.5626 c 93.088,-86.1973 104.544,-179.5946 111.6906,-206.5706 7.04,-26.7947 10.4747,-17.728 10.4747,-17.728 1.2907,91.2853 -70.9013,206.9013 -135.8507,244.928 -64,37.536 -229.4506,31.008 -268.3093,34.0266 -38.24,2.9227 -57.3547,-45.792 -57.3547,-45.792 -0.4906,-10.3146 7.9254,1.5147 7.9254,1.5147 24.9813,45.0987 46.944,36.8533 46.944,36.8533 79.168,-23.168 93.28,-139.6693 96.576,-166.6773 3.2746,-26.784 10.0373,-9.344 10.0373,-9.344 7.6907,67.04 -41.0987,148.7467 -51.36,159.2533 -10.2507,10.4107 -0.4587,16.32 32.2453,7.1467 98.4747,-27.6907 107.6907,-185.6853 113.6214,-204.8427 5.9413,-19.0826 9.632,-0.7253 9.632,-0.7253 -13.312,145.2693 -68.4374,181.088 -83.1254,201.0667 -6.1013,8.288 43.6907,9.536 65.6,-4.7467 123.744,-80.0853 109.856,-233.4827 120.992,-211.584 11.2854,22.3467 -31.136,161.1627 -90.752,208.3947 -11.9253,9.4293 41.376,-7.04 61.0134,-25.1734 z m 228.896,119.936 c 24.7146,-14.9333 36.4906,-18.72 36.4906,-18.72 0,0 -17.2586,-4.8533 -25.1093,-17.824 -7.8613,-12.9706 -17.2693,-22.9546 -44.736,-18.88 -28.8427,4.288 -34.1227,-0.2346 -48.64,-2.6026 0,0 5.0773,14.784 18.8267,22.2613 13.728,7.4667 29.92,55.8613 63.168,35.7653 z m 2.1866,35.68 c 9.0347,2.6027 38.1974,-1.8453 19.3814,1.9734 -18.9014,5.2906 -30.6347,-0.096 -43.0507,-7.8934 -28.544,-17.8666 -51.7973,-58.9013 -81.8347,-76.7466 -13.0346,-7.7974 -25.7813,-6.0054 -36.6186,-19.712 7.0186,-14.048 14.144,-5.7814 23.7013,-7.872 21.184,-4.608 40.704,-12.8427 60.288,-25.5574 21.6853,-14.1333 45.1733,-40.064 77.5147,-37.4293 10.3146,0.8213 29.056,10.8267 36.608,15.7547 9.4293,6.1546 31.8186,20.8426 25.8346,43.3066 -2.656,9.952 -14.496,11.552 -21.5466,19.6907 -9.76,11.3173 -9.3867,22.432 -17.2054,35.424 17.0454,-3.4347 26.8054,-13.5573 45.1947,-15.7547 -28.96,26.016 -62.336,48 -103.3387,63.008 3.072,1.7494 5.0347,8.9067 15.072,11.808 z M 2372.224,3528.4267 c -2.336,17.2586 -18.56,32.5866 -47.3707,23.6373 0,0 -37.248,-8.512 -47.392,-74.496 0,0 -1.7706,-33.2907 8.64,-25.9307 -8.768,40 29.1947,58.1227 37.8987,62.1867 12.2453,5.472 22.368,3.6267 23.136,-6.7947 0.8427,-11.2426 -11.9893,-16.2133 -15.8293,-27.808 13.6213,7.7014 44.0853,25.7387 40.9173,49.2054 z m 712.864,-141.9627 c 29.1627,4.6613 83.744,24.8533 105.6427,38.56 23.7653,14.8587 41.4293,71.8507 17.2053,103.4027 -10.848,14.1226 -36.8213,32.032 -43.072,33.472 -7.1253,-4.1387 4.48,-7.904 6.4533,-9.8347 8.2134,-8.1067 26.5387,-22.944 32.2987,-35.4347 11.7653,-25.5466 8.16,-64.64 -12.928,-78.7733 -14.208,-9.4933 -83.7013,-35.4667 -114.1013,-35.424 -85.5147,0.1173 -94.1974,94.176 -146.4214,125.9947 0.928,-8.992 7.488,-27.872 14.9547,-37.632 29.3653,-38.4 57.4187,-117.5574 139.968,-104.3307" />
    <path
       inkscape:connector-curvature="0"
       id="path92"
       style="fill:#5d802f;fill-opacity:1;fill-rule:nonzero;stroke:none;stroke-width:1.06667"
       d="m 2595.552,2528.6507 c 0.4693,-4.4587 2.4747,-8.7467 3.8827,-12.832 0.288,20.7893 1.1626,51.1466 22.9226,63.9253 3.4134,1.984 6.8054,3.0293 10.1547,3.0293 8.544,0 14.016,-6.0266 17.4507,-12.8213 -0.3734,16.9067 2.0586,33.1413 13.28,40.8213 5.5253,3.8294 10.6666,5.6747 15.584,5.6747 14.0906,0 19.776,-14.56 22.8266,-22.3787 0.5014,-1.2266 0.9174,-2.3253 1.3547,-3.3173 5.792,-13.248 21.2267,-40.2773 28.448,-46.2187 2.8587,2.272 6.432,5.2267 7.552,6.848 -0.3947,0.5334 -1.056,1.248 -1.8987,2.24 -44.864,51.9254 -30.9866,86.8587 -11.4133,107.04 1.3973,1.6107 5.088,5.1734 10.528,5.1734 6.6773,0 11.8933,-4.864 15.4987,-14.3894 5.6853,-15.04 28.2773,-44.384 32.5866,-47.392 l 1.056,-0.5226 c 2.208,-1.12 4.9707,-2.5174 6.5494,-2.5174 l 1.28,0.7894 c 1.408,1.504 2.1546,2.8266 2.5706,3.8186 -9.408,11.3707 -41.7706,53.8774 -29.792,88.16 1.7707,5.0987 7.1894,20.6294 19.8934,20.6294 11.7226,0 19.5946,-14.0694 22.2826,-19.6694 6.8694,-8.7573 25.0454,-30.4106 34.7094,-36.1066 2.3893,-1.3547 5.0986,-2.08 8.064,-2.08 4.7786,0 8.9173,1.792 10.9546,2.9973 -11.36,8.576 -33.408,42.5707 -26.3253,72.096 3.136,13.12 14.1547,18.9973 23.68,18.9973 4.6613,0 8.8,-1.3546 11.6587,-3.8506 1.0773,-0.928 3.3173,-3.3494 6.336,-6.688 8.3946,-9.184 28.0213,-30.784 39.7546,-34.9547 2.2827,-0.8 4.3627,-1.2267 6.2614,-1.2267 4.4053,0 7.3173,2.2294 10.1333,5.1414 -0.7787,0.5973 -1.7707,1.3013 -3.0507,2.1546 -5.3013,3.584 -31.744,30.7094 -20.8533,64.64 3.968,12.4054 12.8107,13.7387 16.4267,13.7387 8.48,0 16.192,-6.2293 19.4026,-9.9307 5.7067,-6.496 28.544,-25.6746 34.304,-26.08 4.2774,0.7574 2.4,2.8907 8.864,11.0614 5.3334,12.2666 -11.1786,12.8853 -26.816,17.9093 -8.544,2.7413 -27.552,23.328 -44.6933,15.104 -17.1307,-8.2027 -183.712,-121.2587 -110.2293,-31.7013 30.9226,37.6746 71.1253,53.7066 68.1493,63.4133 -4.544,14.752 -51.4133,15.6693 -64.8,25.3867 -6.9653,5.0453 -12.9707,-5.7494 -17.1413,-15.68 -41.6107,-163.136 -187.4987,-249.408 -201.376,-258.6454 0,0 -38.3467,-23.5093 -28.2987,-23.1253 10.0587,0.3627 28.8213,3.8827 32.288,-28.6613" />
    <path
       inkscape:connector-curvature="0"
       id="path94"
       style="fill:#5d802f;fill-opacity:1;fill-rule:nonzero;stroke:none;stroke-width:1.06667"
       d="M 2930.3573,2997.4187 C 2863.68,2976.096 2803.3387,2985.28 2803.3387,2985.28 c -23.6587,0.5547 -25.5787,29.376 -29.088,53.312 -3.584,24.5333 23.5413,-25.0667 56.736,-32.512 31.6053,-7.1893 43.52,-4.8747 40.32,19.616 -3.424,25.664 29.6533,-3.8933 49.6213,-7.616 0,0 2.4533,-1.5787 12.8,-1.024 10.3253,0.5653 29.312,-7.3707 -3.3707,-19.6373" />
  </g>
</svg>
