<?xml version="1.0" encoding="UTF-8" standalone="no"?>
<svg
   xmlns:dc="http://purl.org/dc/elements/1.1/"
   xmlns:cc="http://creativecommons.org/ns#"
   xmlns:rdf="http://www.w3.org/1999/02/22-rdf-syntax-ns#"
   xmlns:svg="http://www.w3.org/2000/svg"
   xmlns="http://www.w3.org/2000/svg"
   version="1.1"
   id="svg3069"
   height="374.99997pt"
   width="375pt">
  <defs
     id="defs3071">
    <clipPath
       id="clipPath70"
       clipPathUnits="userSpaceOnUse">
      <path
         style="stroke-width:1.06666672"
         id="path72"
         d="M 0,6349.664 V 0 h 8980.16 v 6349.664 z" />
    </clipPath>
    <clipPath
       id="clipPath70-6"
       clipPathUnits="userSpaceOnUse">
      <path
         style="stroke-width:1.06666672"
         id="path72-5"
         d="M 0,6349.664 V 0 h 8980.16 v 6349.664 z" />
    </clipPath>
  </defs>
  <metadata
     id="metadata3075">
    <rdf:RDF>
      <cc:Work
         rdf:about="">
        <dc:format>image/svg+xml</dc:format>
        <dc:type
           rdf:resource="http://purl.org/dc/dcmitype/StillImage" />
        <dc:title></dc:title>
      </cc:Work>
    </rdf:RDF>
  </metadata>
  <g
     transform="translate(-569.09621,-254.65241)"
     id="layer1">
    <g
       id="g66"
       transform="matrix(0.26482302,0,0,-0.26482302,71.960555,1324.9696)">
      <g
         clip-path="url(#clipPath70)"
         id="g68">
        <path
           id="path76"
           style="fill:#403c3d;fill-opacity:1;fill-rule:evenodd;stroke:none;stroke-width:1.06666672"
           d="m 3492.6187,2530.3467 c -45.088,-9.184 -93.0987,-39.776 -130.2614,-46.6667 -82.144,-15.2 -130.56,-0.5653 -87.2106,17.3547 62.9653,26.08 270.6666,32.5866 292.3733,186.72 21.7173,154.1333 6.5067,223.6373 -4.3413,262.7093 -5.1947,18.7413 -16.864,46.3893 -27.6267,70.144 -3.04,16.7787 -7.0293,31.008 -10.5173,41.1413 -1.9414,4.576 -3.8934,10.464 -5.824,17.8987 0,0 -2.7094,18.9973 5.9733,37.44 7.68,16.3627 34.08,51.8613 35.8613,86.176 0.032,2.08 0.1174,4.16 0.085,6.24 -0.1067,2.3253 -0.2987,4.6187 -0.672,6.912 l -0.192,2.0267 c -3.3814,19.2533 -14.432,32.6613 -29.44,42.6453 -9.664,6.4213 -22.8267,8.448 -30.048,17.6107 5.76,18.144 24.1386,24.5973 31.808,39.4133 4.7786,13.1627 0.8746,26.9867 -6.3894,39.552 -14.0053,15.7013 -41.5146,29.3227 -66.208,38.56 -30.9013,11.5947 -62.336,20.7467 -83.5733,37.3973 -22.432,11.936 -37.5147,35.0187 -23.744,65.5467 3.5733,7.936 5.1733,15.9253 5.0667,23.5093 l -0.096,2.2294 c -0.032,1.5466 -0.2454,2.944 -0.4374,4.3733 -0.16,1.1093 -0.3413,2.1973 -0.5866,3.2853 l -0.5014,1.888 -0.5973,2.1547 c -5.6533,19.0507 -35.6693,24.4053 -46.368,25.3653 -24.2347,2.176 -39.8933,8.7467 -52.7573,12.8107 10.3466,-5.376 20.7573,-12.5653 34.0266,-17.9093 8.3947,-3.424 20.448,-5.4614 30.592,-8.8427 l 0.096,0.021 c 0,0 18.72,-3.7973 23.872,-16.832 5.1627,-13.0133 2.1654,-24.4266 0,-31.7333 l -0.7893,-2.1227 c -1.8667,-5.7066 -3.968,-11.2106 -4.4053,-16.896 -1.76,-22.4426 12.0106,-34.1333 19.328,-52.9066 13.1733,-12.512 31.9253,-25.472 57.9413,-37.2054 23.3813,-10.56 51.36,-16.9493 68.6933,-27.4133 10.0374,-6.0587 28.32,-20.704 27.904,-31.36 -0.32,-8.16 -15.392,-19.296 -21.4613,-27.4133 -4.3413,-5.7814 -6.496,-13.4614 -10.3787,-18.9227 -3.3813,-5.3333 -7.7226,-8.768 -12.7146,-8.768 -6.5067,0 -21.344,-2.5173 -11.584,-3.2427 9.7706,-0.7253 35.104,-12.6613 35.104,-12.6613 l -0.021,-0.032 c 34.24,-14.1653 57.248,-40.4053 44.6614,-77.824 -10.5387,-31.3493 -34.784,-57.568 -36.48,-92.0533 -1.8134,-36.6934 15.008,-66.9014 17.1626,-96 3.6374,-48.96 -3.392,-82.6774 -12.864,-119.4774 -4.448,-17.216 -6.816,-34.176 -10.7306,-50.9226 -16.7254,-71.328 -59.8294,-102.2294 -118.0587,-135.1787 -25.248,-14.2827 -52.3413,-40.608 -79.4133,-48.96 -4.3627,-1.344 -11.0827,0.704 -15.0507,0 -24.9387,-4.5013 -47.3813,-16.864 -72.9707,-21.536 -24.096,-4.448 -49.3546,-2.3147 -77.952,-9.5573 -14.5066,-5.1734 -33.0986,-12.9174 -43.9573,-17.5254 -16.7893,-7.648 -33.2373,-15.6053 -49.6533,-23.6266 l -54.5174,-31.1467 c 0,0 -30.3786,-17.5893 3.264,-4.5653 27.072,10.4853 120.128,56.8 81.152,29.6 -26.88,-13.504 -41.4613,-32.6827 -65.2373,-49.0454 0,0 -79.9893,-39.6693 -91.9893,-50.7413 -13.1947,-12.1813 -29.3227,-5.44 -39.904,-17.3867 -12.4267,-14.0053 -27.6694,-22.4106 -38.5387,-26.0373 -10.848,-3.648 -23.1467,-27.4987 -39.7973,-39.7973 -16.6507,-12.3094 -52.8214,-8.6934 -84.672,-22.4427 -31.84,-13.7493 -64.8427,-13.9307 -64.8427,-13.9307 -3.1573,-0.2986 -6.2187,-0.4906 -9.152,-0.5653 -1.2587,-0.032 -2.4213,-0.021 -3.6267,-0.021 -18.624,-0.096 -32.864,3.5413 -43.776,7.552 -13.3013,4.8853 -18.1866,2.432 -15.2,0.8106 2.9867,-1.6106 11.648,-9.7173 11.648,-9.7173 -37.152,0.043 -47.2853,24.7253 -64.3946,43.0613 7.776,1.1094 29.952,-4.3093 18.688,2.2187 -22.24,10.6347 -65.0774,11.4027 -65.92,36.9813 -0.64,20.064 8.5973,15.6694 8.5973,15.6694 15.584,-27.136 63.6693,-29.792 98.7413,-29.408 65.3227,0.7893 109.5254,36.608 152.3414,56.8746 13.8773,8.3414 30.0906,19.3067 30.0906,19.3067 l -0.085,-0.32 c 13.5147,8.8 27.1787,17.3333 38.7307,27.968 20.16,18.528 33.7813,42.7093 51.5306,63.2213 2.0587,3.488 6.3894,7.744 11.5307,12.032 5.0027,4.6934 10.3787,9.0667 16.3627,12.896 l 0.224,-0.48 2.3253,1.5574 -0.416,0.8746 c 43.0827,24.4267 83.232,51.4667 117.1093,84.288 l 0.224,0.384 c 4.864,4.4054 30.3574,32.864 42.6667,46.6774 14.5173,19.36 24.9813,43.8186 31.0507,68.4586 2.1866,8.9174 0.8,19.744 4.2773,29.3974 5.408,14.9653 18.9973,28.2773 27.9147,43.0826 9.2266,15.392 15.328,32.1494 21.4613,48.96 26.848,73.7814 57.8987,132.5334 115.904,172.3734 27.9467,19.2106 61.888,31.6053 81.5573,60.7466 -14.2826,-14.496 -32.8746,-25.0666 -55.328,-32.096 -63.776,-21.0133 -105.2586,-74.8266 -126.112,-109.0133 -16.0106,-28.7787 -28.384,-60.8427 -37.4826,-95.9253 -3.0187,43.2426 -13.696,76.96 -27.9147,109.696 -12.64,29.1093 -23.8187,59.8933 -47.2213,78.3573 0,0 -0.896,-0.064 -4.5334,2.1227 -3.616,2.1546 60.3414,3.7653 60.3414,3.7653 11.1893,-0.4053 22.5813,-2.016 34.1226,-3.5093 2.1654,0.2346 4.8107,0.1066 8.064,-0.4587 35.1574,-6.208 71.6907,6.88 94.4534,23.4453 11.8186,8.5974 32.3626,15.488 49.408,20.1494 0.2773,0.736 1.9413,1.568 6.1973,2.3786 0,0 26.048,8.1387 53.728,15.744 18.752,5.1307 32.4053,9.0667 41.888,13.7494 5.4933,3.4986 10.72,7.7013 14.7733,12.704 8.1174,10.016 8.2774,22.0373 15.04,39.1786 6.7307,17.0987 17.024,30.3894 17.1734,45.056 0.48,48.0854 -45.0667,86.3787 -94.4427,60.7467 48.6187,12.5333 83.0933,-11.1893 77.2693,-56.832 -7.1893,-56.3947 -92.1493,-98.1867 -143.8186,-119.4773 -20.48,-8.4374 -44.4587,-19.0934 -68.672,-21.536 -34.9227,-3.5414 -66.5707,3.9146 -96.5974,1.9626 -38.5066,-2.5386 -64.1173,-22.9013 -96.5866,-25.4826 -27.904,-2.208 -24.1174,16.6506 -48.3307,18.7946 -5.0133,2.8587 -20.2453,0 -35.392,0.7894 -41.8667,-11.0614 -68.8,8.0746 -103.0187,23.5093 -24.6826,11.1467 -51.008,21.2907 -77.2693,23.5093 -65.9307,5.5894 -106.016,-3.5733 -159.904,2.144 -15.2,1.6107 -46.7307,3.5307 -61.7067,9.1414 -46.624,17.44 -82.3146,11.1146 -132.96,11.84 -36.8426,0.5333 -71.0293,2.464 -94.0266,-1.568 -6.272,-1.1307 -12.6294,-2.7414 -19.328,-3.9147 -49.3547,-8.6293 -124.544,-13.0987 -122.336,-56.8107 3.6693,2.5067 2.6453,9.3227 8.576,9.792 -0.2134,-8.032 -0.416,-16.0533 2.144,-21.5573 -28.704,0.7467 -45.632,20.5653 -45.0667,43.104 0.96,38.3253 62.624,54.3467 105.1627,64.6507 42.6453,10.2826 86.9333,22.336 118.0693,27.4133 -74.5707,-10.9547 -153.4507,-18.0053 -210.368,-45.0667 -0.8,2.944 -1.312,5.7814 -1.6533,8.512 -4.5014,20.6934 -14.3254,52.4267 -21.2374,83.2747 -7.9573,35.456 4.3307,97.696 4.3307,97.696 l 0.3093,-0.3627 c 5.1307,31.6374 11.6694,45.7387 18.0054,64.6507 13.4933,40.3413 57.088,53.0027 87.6053,56.832 -25.728,-18.176 -42.176,-40.7147 -52.576,-70.8907 -1.28,-10.7093 -2.2827,-20.7573 -3.0293,-29.6213 23.0933,71.904 87.5413,98.816 87.5413,98.816 l 20.6293,22.2507 -0.2666,-1.0134 c 35.584,34.4107 82.5813,61.0774 142.3253,62.752 30.1013,0.8427 66.4747,-7.0826 66.3787,-36.608 -0.043,-16.6933 -13.0987,-30.8586 -30.9014,-38.688 5.2374,-1.0346 10.0267,-0.3093 14.368,1.4827 l 18.496,20.704 c 6.1227,15.1253 5.5787,34.24 -4.736,45.76 27.2214,23.2747 69.6107,-2.8267 66.5174,-33.7067 7.968,6.72 12.832,19.4134 7.3493,29.4827 36.6293,21.5253 57.1307,-30.656 93.984,-18.464 -3.4667,10.4427 -21.216,8.3307 -26.6133,17.0347 48.1813,6.8906 90.432,-10.048 138.752,-6.208 3.0293,-2.6347 6.304,-5.2587 9.8026,-7.8507 -90.3786,-10.0053 -16.96,-9.952 -16.96,-9.952 11.5734,1.056 39.3814,2.9973 50.1974,1.0773 17.6853,-3.2 29.1093,1.1094 44.7466,7.2214 0.3734,-0.6827 1.9414,-0.6187 2.8907,1.152 8.1067,3.2 17.44,6.7306 29.3013,9.9306 4.5974,0.6507 9.216,1.8347 13.696,3.296 l 1.9307,0.3947 0.2773,0.3093 c 6.1867,2.1547 12.0214,4.736 17.024,7.1574 45.536,21.888 83.3067,73.4293 122.1974,100.4693 64.448,44.7893 125.472,-10.5387 170.336,-46.4427 l -0.288,-0.416 c 11.2533,-7.68 26.0906,-17.152 42.2506,-27.04 42.2187,-18.3786 97.9094,-34.432 127.648,-63.8293 23.7974,-23.5093 31.8934,-53.7813 42.1227,-85.2053 9.5573,-29.3014 28.096,-55.2214 38.528,-88.1067 2.0053,1.6853 3.1893,4.224 3.872,7.2533 -0.288,2.8054 -0.7467,5.7707 0.085,7.6054 l 0.5654,-0.512 c -0.1174,5.7386 -1.3867,12.4693 -3.3494,19.552 -8.8426,18.0053 -24.2986,38.5173 -22.4,54.56 0,0 54.848,-28.3414 117.0774,-56.4907 21.4293,-9.696 41.0453,-25.6853 58.1653,-43.9573 l 5.0027,0.1066 c -0.5867,-1.28 -0.5334,-3.1253 -0.352,-5.0773 30.2506,-33.8987 51.6906,-74.272 59.1466,-97.6107 1.536,-4.7893 3.2747,-9.6426 5.152,-14.4746 l 0.011,-0.053 c 2.3467,-6.0906 4.8747,-12.1066 7.488,-17.8986 l 0.053,0.085 c 1.0987,-1.9733 1.792,-3.904 2.528,-5.856 8.9814,-19.4347 17.8027,-35.2107 20.256,-39.5307 7.904,-9.824 14.2827,-22.4426 21.0987,-33.12 2.368,-26.5493 3.6373,-53.4293 3.6373,-80.5973 0,-212.7573 -73.984,-408.2027 -197.5466,-562.1333 -7.1467,-0.832 -16.8854,-2.4854 -29.76,-5.12 z m -56.448,-88.032 c -43.2214,-14.112 -87.2854,-40.6507 -115.424,-43.3174 -84.6934,-8 -99.872,29.6427 -32.2027,35.8507 25.536,2.3467 63.2427,5.2373 93.3547,19.5093 44.416,21.0987 89.9093,41.5787 120.2773,56.7787 -20.768,-24.1067 -42.8267,-47.0507 -66.0053,-68.8213 z m -923.232,-4.1067 c -7.1787,-2.4107 -7.1787,1.1413 -7.1787,1.1413 0,0 -13.0133,18.5814 -15.0293,35.8827 -2.0374,17.1413 2.3786,32.4053 6.6773,34.6667 4.3413,2.3466 5.28,-7.6374 8.8107,-20.1387 3.552,-12.6293 21.0986,-38.5387 21.0986,-38.5387 2.496,-5.3333 -7.0933,-10.6133 -14.3786,-13.0133 z m 45.2586,-7.9253 c -8.2453,-2.7414 -8.2346,1.344 -8.2346,1.344 0,0 -14.8694,21.0986 -17.1307,40.7893 -2.2827,19.4773 2.8373,36.8213 7.7867,39.4133 4.9813,2.6774 6.048,-8.704 10.048,-22.9546 4.0106,-14.3254 24.1066,-43.8294 24.1066,-43.8294 2.848,-6.0586 -8.224,-12 -16.576,-14.7626 z m 15.296,54.848 c -2.8373,24.6613 3.7654,46.6986 10.1014,50.0373 6.3786,3.4027 7.6906,-11.04 12.7573,-29.088 5.0773,-18.176 30.688,-55.552 30.688,-55.552 3.6267,-7.6587 -10.5813,-15.2427 -21.2693,-18.72 -10.5814,-3.456 -10.5494,1.6427 -10.5494,1.6427 0,0 -18.9013,26.752 -21.728,51.68 z m 367.2534,282.2293 c 4.4373,3.968 9.1093,-4.3733 17.76,-13.8347 8.7253,-9.5786 39.3813,-24.6506 39.3813,-24.6506 4.9387,-3.648 -4.896,-12.768 -12.8853,-18.272 -7.968,-5.504 -9.2374,-2.272 -9.2374,-2.272 0,0 -22.5706,10.656 -31.1146,25.2266 -8.5014,14.3574 -8.3627,29.7707 -3.904,33.8027 z m -72.6934,-38.7413 c 5.4507,5.1093 11.2747,-5.7067 22.1547,-17.984 10.9973,-12.5654 49.6213,-32.5547 49.6213,-32.5547 6.2934,-4.736 -6.0053,-16.5867 -15.9573,-23.6907 -9.984,-7.104 -11.648,-2.9013 -11.648,-2.9013 0,0 -28.224,14.2933 -38.9867,33.248 -10.656,18.6987 -10.6666,38.7947 -5.184,43.8827 z M 2803.2,2641.4293 c -9.6,20.0854 -8.768,40.896 -3.2213,45.9307 5.6,5.0453 10.88,-6.5493 21.0026,-20.0747 10.272,-13.7386 47.3067,-36.704 47.3067,-36.704 5.9307,-5.3333 -6.6027,-16.9173 -16.6933,-23.744 -10.0374,-6.7733 -11.52,-2.3573 -11.52,-2.3573 0,0 -27.072,16.544 -36.8747,36.9493 z m -59.3707,-49.6213 c -8.032,21.1947 -5.8773,42.464 -0.224,47.1787 5.76,4.7253 10.0694,-7.552 18.9227,-22.0374 8.992,-14.784 43.2107,-40.992 43.2107,-40.992 5.4293,-5.8773 -7.3814,-16.8213 -17.6214,-23.008 -10.112,-6.1013 -11.1573,-1.408 -11.1573,-1.408 0,0 -25.0133,18.8374 -33.1307,40.2667 z m -80.0106,-130.112 c -10.6454,-3.2213 -10.5494,1.7173 -10.5494,1.7173 0,0 -18.048,26.0054 -20.16,50.0694 -2.0906,23.8826 5.1734,45.1626 11.584,48.3306 6.4747,3.2214 7.4027,-10.72 11.8827,-28.192 4.5867,-17.664 29.024,-53.9626 29.024,-53.9626 3.392,-7.424 -10.9867,-14.6454 -21.7813,-17.9627 z m 21.6533,83.3387 c -5.2053,23.936 -0.1387,46.3573 6.272,50.5066 6.464,4.2134 9.184,-9.7813 16.128,-26.816 7.008,-17.1093 37.7707,-50.7413 37.7707,-50.7413 4.5973,-7.1147 -9.8454,-16.5333 -20.9707,-21.4827 -10.9547,-4.8533 -11.4347,0.2987 -11.4347,0.2987 0,0 -22.5066,24.0213 -27.7653,48.2347 z m 290.112,562.8906 c 0,0 6.2613,-1.056 3.4347,-9.9093 -2.816,-8.832 -3.36,-36.2027 5.2053,-48 8.608,-11.8293 -5.8987,-7.3387 -17.2267,4.608 -11.3386,11.8933 -19.36,33.8133 -16.9173,48.704 0,0 -0.6507,6.2613 25.504,4.5973 z m -40.0213,-72.4906 c 13.7386,-15.328 -7.296,-11.232 -24.896,3.872 -17.5787,15.0506 -31.9894,44.4373 -30.6667,65.6426 0,0 -1.8027,8.6934 35.136,10.176 0,0 8.9813,-0.5653 6.1973,-13.3653 -2.6346,-12.7787 0.48,-51.1253 14.2294,-66.3253 z m -93.7494,-79.9254 c 80.0747,-5.248 137.4827,22.5174 178.144,50.912 10.7094,7.4667 24.864,25.6534 42.9547,13.7067 -7.712,-15.9787 -28.1493,-26.5067 -45.0773,-35.2427 -29.664,-15.328 -55.968,-28.736 -90.1547,-37.2266 57.6213,8.8106 98.56,32.8106 141.664,54.848 5.28,-11.072 11.2107,-33.2907 15.104,-52.096 l 0.5547,0.053 c 0,0 3.9146,-10.5387 2.752,-20.832 0.16,-4.9067 -0.832,-9.1307 -4.3414,-11.456 -1.184,-1.5147 -2.6026,-2.912 -4.384,-4.0747 -15.7333,-10.3146 -62.4213,-33.1093 -99.872,-35.8186 -1.2373,-0.075 -2.4213,-0.2347 -3.648,-0.352 l -2.7626,-0.7787 -0.075,0.512 c -33.9627,-3.936 -55.936,-17.9307 -12.5013,-10.7947 43.456,7.168 136.5333,23.008 102.624,10.2614 l 0.1173,0.021 c -42.336,-16.544 -97.888,-32.736 -152.416,-27.424 -35.232,3.4133 -71.68,20.6933 -103.0187,37.216 -31.296,16.48 -60.992,38.1547 -94.4426,45.0347 -25.4614,5.2693 -46.496,-2.0694 -68.6827,-5.8667 -14.7733,-2.496 -35.36,-8.48 -44.3093,0.7467 -3.776,4.4693 -0.768,9.056 -0.768,9.056 8.4693,20.928 33.1413,33.2693 53.6533,39.168 64.384,18.528 126.752,-15.52 188.8853,-19.5734 z m 18.144,70.144 c 13.4614,-19.5306 -9.9093,-11.712 -27.776,8.2347 -17.8773,19.936 -29.9413,55.84 -25.3546,80.032 0,0 -0.7787,10.1653 41.5573,6.2827 0,0 10.1547,-2.016 5.2267,-16.2027 -5.0454,-14.3147 -7.0827,-58.7733 6.3466,-78.3467 z m -85.248,9.3014 c 13.2694,-22.208 -11.5413,-12.4694 -29.6,10.432 -18.0693,22.7946 -28.896,63.04 -22.3253,89.3866 0,0 -0.1493,11.328 45.5787,4.992 0,0 10.816,-2.7306 4.512,-18.2293 -6.3254,-15.4453 -11.4347,-64.352 1.8346,-86.5813 z m -88.128,12.2666 c 13.568,-22.4853 -11.5733,-12.8853 -29.9306,10.2187 -18.3787,23.0293 -29.536,63.8933 -23.0187,90.8907 0,0 -0.2453,11.456 46.0053,5.6426 0,0 10.9654,-2.6666 4.6614,-18.5066 -6.2827,-15.8294 -11.2107,-65.8134 2.2826,-88.2454 z m -80.768,-25.3866 c 16.6507,-29.088 -12.512,-16.768 -34.7413,13.056 -22.208,29.8346 -37.1093,82.8586 -31.232,117.9946 0,0 -0.8533,15.008 52.0853,7.7867 0,0 12.7147,-3.296 6.4214,-24.0853 -6.3147,-20.6507 -9.1947,-85.632 7.4666,-114.752 z m -85.7386,21.6426 c 16.5973,-25.3866 -12.608,-15.6906 -34.752,10.112 -22.1227,25.7814 -36.6934,72.864 -30.56,104.7254 0,0 -0.832,13.472 52.32,9.408 0,0 12.704,-2.4427 6.2186,-21.312 -6.432,-18.8694 -9.76,-77.4827 6.7734,-102.9334 z m -90.816,29.5894 c 11.712,-21.824 -11.0507,-12.1174 -27.1787,10.432 -16.128,22.432 -25.0027,61.92 -18.1867,87.7333 0,0 0.1494,11.0827 42.3787,4.5867 0,0 10.0267,-2.752 3.6907,-17.824 -6.272,-15.1467 -12.4054,-63.0827 -0.704,-84.928 z M 2360,3091.936 c 10.9973,-17.408 -8.96,-9.8453 -23.8293,8.0107 -14.848,17.8773 -24.2347,49.408 -19.4987,70.176 0,0 -0.384,8.8853 36.128,4.192 0,0 8.768,-2.0694 3.9573,-14.2934 -4.608,-12.16 -7.808,-50.6773 3.2427,-68.0853 z m -72.736,-12.5653 c 13.44,-19.5307 -9.92,-11.712 -27.7867,8.256 -17.8666,19.936 -29.9306,55.8293 -25.344,80.032 0,0 -0.7893,10.144 41.5467,6.2826 0,0 10.1547,-2.016 5.2267,-16.224 -5.056,-14.304 -7.072,-58.7413 6.3573,-78.3466 z m -58.688,5.1733 c 13.7387,-15.3067 -7.2853,-11.2533 -24.8747,3.84 -17.6,15.072 -32.0106,44.4693 -30.688,65.664 0,0 -1.792,8.6933 35.136,10.176 0,0 8.9814,-0.5653 6.2187,-13.3867 -2.6453,-12.7786 0.4587,-51.1253 14.208,-66.2933 z m 805.6213,-805.728 c -40.6826,-14.0587 -112.9706,-49.344 -171.04,-78.8693 -13.8773,-0.64 -27.8506,-1.0027 -41.9093,-1.0027 -496.32,0 -898.6453,402.336 -898.6453,898.656 0,384.512 241.5466,712.5333 581.1413,840.8427 1.7173,-1.5894 3.5307,-3.1254 5.4507,-4.6187 3.8506,-2.9973 10.2186,-4.5867 13.5146,-8.5333 4.384,-5.2694 2.56,-15.968 4.4694,-22.5707 5.92,-20.384 18.5066,-39.0933 39.4666,-54.3893 3.0614,-2.2614 8.9067,-3.3494 11.5734,-6.3467 5.8346,-6.624 4.1386,-17.76 8.544,-25.4187 4.64,-8.0533 12.544,-17.7813 22.2933,-25.2693 5.344,-4.1173 13.3333,-6.3147 18.3253,-11.2213 4.0427,-3.9574 5.1627,-11.0827 8.0534,-17.0134 7.8293,-16.0106 28.512,-34.5706 38.4426,-51.328 1.312,-2.208 2.336,-4.5546 3.2,-6.944 4.1387,-8.5226 14.144,-26.5813 27.7867,-34.9333 0,0 1.4187,-25.0773 26.432,-53.664 -50.6667,2.7307 -99.5413,31.3813 -137.1307,2.9227 -10.848,11.84 -45.6426,21.12 -60.5333,4.512 -10.9973,19.1146 -69.3227,31.3173 -80.6613,1.1093 -82.912,37.1947 -182.976,-15.84 -215.136,-69.0773 -5.9734,-2.848 -11.552,-5.8454 -16.8214,-8.928 -22.6986,6.8266 -53.44,9.248 -86.7093,-14.7414 -32.7893,-23.6586 -67.072,-129.7706 -61.1733,-203.232 0.64,-7.872 15.5626,-26.4533 20.928,-63.68 5.3333,-36.928 9.3973,-49.056 9.3973,-49.056 -7.296,-12.7253 -16,-18.4106 -17.184,-33.3013 -2.5707,-32.224 24.9813,-49.7387 50.7947,-66.24 9.184,-4.2773 19.584,-7.3493 30.8693,-7.7547 6.816,-10.7946 33.0773,-47.2853 76.5013,-47.2853 1.0667,0 2.1654,0.075 3.232,0.1387 16.576,-13.9414 33.8667,-17.6854 21.9307,-0.5014 -0.9813,1.4187 -1.824,3.008 -2.6133,4.64 7.9786,-4.7253 17.6426,-9.3546 26.2506,-10.1973 0.1707,-0.011 4.224,-1.0347 7.6054,-1.0347 1.1946,0 4.7573,0 6.016,2.7414 1.248,2.752 -1.2907,5.7066 -2.1227,6.6453 -3.4773,4.0107 -7.392,14.4427 -10.336,24.16 3.1787,-5.824 6.6453,-11.3707 10.528,-16.1387 20.6613,-25.3653 49.568,-37.3546 33.4293,-12.1173 -5.184,8.0853 -8.1386,19.104 -9.5786,30.8053 8,-9.8666 21.7813,-21.3226 44.192,-25.9093 18.5173,-17.6107 41.536,-24.8107 27.744,-6.0907 -3.52,4.7894 -5.824,10.9547 -7.2,17.696 11.168,-13.3866 30.048,-30.592 53.2053,-30.592 l 1.6853,0.043 0.4694,0.021 c 15.8826,-10.7413 29.184,-12.5333 17.3013,2.9547 -5.152,6.7413 -7.9573,16.0853 -9.216,25.9627 10.496,-21.4187 30.7413,-50.8694 65.5893,-60.3414 0.256,-0.096 6.2614,-1.76 11.2214,-1.76 3.872,0 6.304,0.992 7.4666,3.1147 1.6854,3.04 -0.5333,6.5813 -1.2586,7.744 -2.2507,3.6053 -4.3414,8.096 -6.1547,12.5227 15.648,-9.1734 27.2107,-9.952 15.04,4.992 -6.2933,7.7013 -9.6533,18.5813 -11.0293,29.8133 8.5013,-22.7307 25.8346,-54.6453 60.0533,-75.552 0.256,-0.1173 6.4107,-3.0293 13.248,-3.0293 3.296,0 6.2293,0.6933 8.7787,1.9733 2.176,1.12 3.6053,2.9547 4.192,5.312 1.7813,7.1253 -4.9814,17.2373 -5.5894,18.0587 -2.816,5.5466 -7.9786,17.2586 -10.5173,27.4986 l 0.256,-0.2026 c 24.736,-19.9574 56.8427,-29.1947 37.0347,-9.3014 -12.0214,12.1067 -16.6614,32.8427 -17.0667,49.7814 7.2213,-20.2774 24.7893,-55.4027 61.1733,-62.3467 0.2454,-0.021 5.888,-1.1093 10.048,-1.1093 2.3147,0 5.0987,0.2666 6.0694,2.4853 0.4266,0.9387 0.5973,2.4533 -1.056,4.3093 -2.72,3.0507 -6.592,12.288 -8.64,19.7547 1.728,-1.3227 3.4026,-2.72 5.216,-3.872 17.6426,-11.5733 38.464,-17.6427 41.184,-13.888 5.6426,-4.6293 14.4746,-10.6987 26.4746,-15.9893 1.12,-2.5494 2.2294,-5.1414 3.1254,-7.7227 0,0 5.6,-15.5627 7.7546,-23.9787 -28.544,7.392 -77.3973,21.7067 -113.76,13.6854 -28.7146,-6.3147 -103.5733,-47.7014 -85.4613,-76.7894 1.2053,-1.9413 2.752,-3.296 4.5227,-4.384 l 1.12,-0.4266 c 7.1466,-3.808 19.7546,-6.048 33.0133,-5.9414 l 4.8213,0.1387 c 7.7014,0.416 27.8934,3.328 34.7307,5.5467 20.0213,6.5066 37.8987,2.592 37.8987,2.592 l -0.256,-0.1814 c 14.2293,-1.6533 29.2373,-6.656 44.736,-14.5706 16.6506,-8.4694 39.3066,-22.464 45.0773,-29.3654 10.4107,-12.512 -5.536,-41.824 -11.4773,-59.872 -0.288,-1.0666 -0.6507,-2.176 -0.992,-3.2853 l -0.4267,-1.4933 -0.053,0.032 c -0.8427,-2.528 -1.8774,-5.184 -2.9867,-7.8934 -1.0133,1.2694 -1.9093,2.496 -2.592,3.648 -5.696,9.5787 -8.7573,17.9627 -11.7013,14.112 -2.944,-3.8613 -3.0827,-19.1573 2.5173,-33.5893 0.576,-1.4933 1.28,-2.912 2.0373,-4.3307 -6.4533,-11.7973 -14.272,-24.1493 -22.5173,-36 -6.4213,6.08 -12.9173,12.9174 -16.0533,18.3787 -7.328,12.544 -11.232,23.5627 -14.976,18.5067 -3.776,-5.0347 -3.8827,-25.3547 3.296,-44.448 2.3466,-6.2187 5.92,-11.8507 9.6746,-16.7787 -5.696,-7.1893 -11.2533,-13.8133 -16.32,-19.4453 -2.272,-2.496 -4.96,-5.3227 -7.808,-8.256 -7.8293,8.064 -17.7386,19.136 -21.7386,27.1466 -6.976,13.9947 -10.5707,25.92 -14.5387,20.8427 -3.9573,-5.12 -4.7253,-26.6133 1.8667,-47.392 2.72,-8.512 7.392,-16.288 12.0213,-22.6027 -8.4907,-8.0853 -17.7067,-16.6293 -27.168,-25.248 -5.7387,7.616 -11.4027,15.9787 -13.9947,22.3787 -6.2186,15.136 -9.1733,27.9787 -13.376,23.0507 -4.1386,-4.9387 -5.952,-27.2747 -0.3733,-49.536 1.376,-5.4934 3.4773,-10.7627 5.8667,-15.648 -9.376,-8.384 -18.4534,-16.4054 -26.784,-23.6694 -2.4427,5.3014 -4.48,10.336 -5.6107,14.4854 -4.8853,18.0266 -6.72,32.9066 -11.5307,28.3413 -4.8106,-4.4587 -8.9066,-28.4587 -5.3866,-53.9627 0.3306,-2.4533 0.8106,-4.8746 1.3546,-7.3066 l -2.3466,-2.016 c -5.4507,-4.704 -11.3707,-10.368 -17.4827,-16.5974 -1.5253,4.7894 -2.7093,9.28 -3.328,13.0027 -3.104,18.784 -3.5733,33.8133 -8.512,30.2187 -4.9067,-3.5307 -10.784,-26.6987 -9.6,-52.6187 0.1813,-4.0747 0.672,-8.192 1.3547,-12.2133 -7.1894,-8.1067 -14.304,-16.4694 -21.0027,-24.6294 -3.8827,9.9734 -7.392,20.2774 -8.7467,27.7334 -3.552,19.648 -4.2986,35.4453 -9.3226,31.5733 -4.5974,-3.5093 -9.6534,-24.544 -9.0987,-49.024 -5.0133,-3.6693 -11.5093,-20.736 -11.7227,-40.0747 -0.096,-6.5813 1.0774,-13.3226 2.6774,-19.4133 -3.2534,-4.5867 -8.9387,-7.7653 -12.9174,-13.3547 -20.5226,-28.704 -12.1493,-62.912 32.192,-70.5173 13.5894,-41.8667 48.0427,-62.1973 100.8854,-62.6773 7.0933,-0.064 14.5066,2.4106 21.4613,1.9733 7.8507,-0.5227 14.3147,-3.712 21.472,-3.936 38.5173,-1.1733 58.7093,11.0827 87.9893,19.616 21.8347,6.336 44.3734,8.3627 57.9627,13.696 20.8107,8.16 30.6987,30.528 47.2107,41.1307 6.1546,3.9466 17.7493,5.8026 27.9146,11.744 8.576,5.0453 16,14.208 23.6054,17.632 6.6453,3.008 17.7066,2.4106 25.7493,5.8773 13.4827,5.8453 28.3733,18.464 45.088,27.4453 34.9973,18.72 63.4773,32.5654 100.8747,48.9494 17.8666,7.8293 36.768,26.24 47.2213,27.424 12.3947,1.4293 26.8267,-8.9174 36.4907,-7.8294 19.6906,-23.4133 26.5493,-56.128 25.728,-98.1973 1.1626,-0.1173 0.3093,-10.432 0.3093,-10.432 0,0 6.88,-90.304 -134.1547,-139.072 z m -560.4906,1746.6987 c 14.752,-4.1067 31.2426,-12.4907 15.5306,-37.5574 -9.664,10.3254 -12.9386,23.936 -15.5306,37.5574 z m 28.1386,-33.024 c 4.7147,8.256 0.021,12.4586 2.5174,17.4613 42.3893,-5.4613 46.048,-35.232 27.7333,-77.4613 -28.256,9.5466 -35.776,28.4373 -41.152,47.616 4.5333,4.9173 8.0533,7.36 10.9013,12.384 z m 46.2827,-8.3947 c 39.456,-17.3867 45.6533,-61.0027 18.368,-117.8987 -9.3227,6.1227 -16.5867,13.4614 -21.824,21.568 -4.1493,6.432 -9.9733,16.96 -8.7253,25.6107 0.8746,5.952 5.5893,13.9413 8,20.5973 6.9013,19.1254 9.5893,36.384 4.1813,50.1227 z m 189.0453,-165.6 c -0.6826,2.08 0.7147,2.016 2.432,3.552 58.976,-11.968 63.6694,-69.5147 38.3467,-112.8853 -12.0107,-20.5334 -23.7547,-31.3387 -42.1867,-25.6107 -15.2533,4.7573 -17.3333,17.0133 -24.6826,25.44 30.048,43.776 29.4613,76.0213 26.0906,109.504 z m -68.1706,43.3173 c -0.256,5.344 -1.2267,11.2854 0.928,16.5547 5.088,-0.4267 13.9946,-1.7173 21.28,-5.5787 33.12,-17.4933 46.8266,-80.0746 27.5733,-116.864 -8.2667,-15.7653 -16.6293,-23.424 -32.096,-18.9973 -24.96,7.168 -32.2027,35.424 -42.2613,47.1147 27.2106,29.0133 25.6426,54.4853 24.576,77.7706 z m -79.744,78.56 1.6213,0.7894 c 64.896,-22.8694 102.1227,-66.1014 43.1467,-145.4934 -22.4854,11.2747 -35.136,26.3254 -40.992,43.392 -3.4454,10.0054 -6.1014,11.2107 -3.7654,23.6267 5.0027,26.816 6.688,56.3947 -0.011,77.6853 z m 251.8506,-333.3973 c -2.4213,-1.0773 -4.128,-1.8773 -4.128,-1.8773 -7.8826,-4.032 -16.1706,-6.432 -24.0426,-7.7974 -48.7894,10.4747 -63.5307,66.08 -63.5307,66.08 45.5893,20.0427 71.3493,77.7494 55.1253,109.4934 0.4587,1.184 1.5147,0.992 2.5814,0.7466 20.6613,-9.1093 42.4,-24.4053 52.9706,-40.9706 20.0854,-31.4134 26.0374,-78.6667 9.312,-116.6294 -7.4453,-1.7173 -12.224,-3.424 -18.2186,-5.536 -1.0134,-0.2666 -2.0694,-0.576 -3.1147,-0.9386 l -5.568,-2.048 -0.5653,-0.224 -0.8747,-0.288 z m 78.6987,39.424 c -3.3387,-2.8373 -6.624,-5.6213 -9.664,-8.2027 -2.7947,-5.3546 -11.3707,-12.4373 -22.3253,-17.0773 8.6933,26.368 9.7386,54.3893 10.3466,75.1467 17.9627,-9.3334 29.952,-22.1547 36.8747,-36.7254 -2.2187,-1.92 -4.4907,-3.904 -6.8267,-5.92 -3.072,5.728 -7.328,10.912 -12.896,15.3067 2.5174,-7.3173 3.9574,-14.8267 4.4907,-22.528 z m -98.56,349.8667 c 440.2133,0 806.4533,-316.5227 883.6373,-734.3787 -8.416,5.9307 -17.696,11.2 -28.2133,15.584 -22.0053,98.1867 -69.344,160.1813 -166.592,195.6267 -32.5973,11.872 -63.4773,25.6213 -95.6373,39.6266 1.856,104.5014 -119.584,102.304 -195.264,156.096 -32.9174,23.456 -70.2294,66.7307 -107.8827,74.7307 -72.8213,15.488 -117.6213,-35.264 -160.6293,-70.72 -10.5494,11.52 -26.368,22.7733 -49.312,33.0027 0,0 -41.0454,58.5386 -60.192,69.5573 -1.2694,0.7253 -2.112,1.3867 -2.6667,2.048 -10.5813,4.96 -23.8293,7.7547 -33.1947,13.9413 -9.248,6.08 -10.9973,20.4694 -20.256,27.4134 -4.5333,3.4026 -11.5626,7.0933 -17.7066,9.5573 -7.424,2.976 -20.1387,2.4213 -27.6054,6.5067 -9.2053,5.0453 -9.9413,21.4506 -16.608,29.5893 -7.3493,8.992 -16.8,16.3413 -32.0853,21.4827 -6.1973,2.0586 -15.5627,2.1973 -21.1627,5.1946 -6.2506,3.3814 -7.776,13.9627 -12.6186,20.448 -11.2534,15.1254 -30.2507,26.8587 -51.9254,34.5174 -4.6613,1.6426 -10.9333,1.6426 -14.3466,3.936 -4.0214,2.6773 -4.4907,9.3653 -6.9227,14.4853 75.5733,20.64 155.072,31.7547 237.184,31.7547 z m 892.3627,-792.064 c -9.1307,15.648 -17.5787,30.6986 -20.672,43.9573 6.1973,-4.096 11.6373,-8.6613 16.6186,-13.5253 1.536,-10.08 2.848,-20.2347 4.0534,-30.432 z M 2821.248,4041.632 c -97.1947,0 -190.9333,-14.7733 -279.1787,-42.0587 -0.992,1.7494 -2.048,3.456 -3.4453,4.8214 -8.1493,7.936 -17.824,13.9733 -37.9307,8.8213 -7.1253,9.2267 -16.5226,16.64 -31.8506,19.7867 l -0.48,-0.8214 c 1.9413,-18.2933 4.5653,-36.7786 18.4853,-49.44 l -0.2027,-2.2186 c -356.192,-135.072 -609.408,-479.3707 -609.408,-882.9227 0,-521.376 422.6454,-944.0213 944.0107,-944.0213 521.3653,0 944.0427,422.6453 944.0427,944.0213 0,521.3973 -422.6774,944.032 -944.0427,944.032 z M 2341.44,3545.1093 c 0,0 -37.1307,-8.4586 -47.2427,-74.112 0,0 -1.76,-33.1413 8.6187,-25.8026 -8.7467,39.7973 29.088,57.824 37.7707,61.8773 12.2133,5.4293 22.304,3.6053 23.072,-6.7627 0.832,-11.1893 -11.9574,-16.1386 -15.7867,-27.6693 13.5787,7.6587 43.9467,25.6 40.7893,48.96 -2.3253,17.1733 -18.496,32.4267 -47.2213,23.5093 z m 488.192,-40.2986 c -63.808,37.3546 -228.736,30.8693 -267.4667,33.8666 -38.1226,2.9014 -57.1733,-45.568 -57.1733,-45.568 -0.5013,-10.2613 7.8933,1.504 7.8933,1.504 24.9067,44.8854 46.8054,36.672 46.8054,36.672 78.9226,-23.0506 92.9813,-138.976 96.2666,-165.8453 3.264,-26.6667 10.0054,-9.3013 10.0054,-9.3013 7.6693,66.7093 -40.9707,148.0106 -51.2,158.4533 -10.2187,10.3787 -0.4587,16.2453 32.1386,7.1253 98.1654,-27.5626 107.36,-184.768 113.28,-203.8293 5.9094,-18.9867 9.6,-0.7253 9.6,-0.7253 -13.28,144.544 -68.224,180.1813 -82.8693,200.064 -6.08,8.2453 43.5413,9.4933 65.3973,-4.7254 123.3494,-79.6906 109.504,-232.3093 120.608,-210.528 11.2534,22.24 -31.04,160.3627 -90.464,207.3707 -11.8933,9.376 41.2374,-7.0187 60.8214,-25.056 92.8,-85.7707 104.2133,-178.6987 111.3493,-205.5467 7.008,-26.6666 10.432,-17.632 10.432,-17.632 1.2907,90.8267 -70.6773,205.8774 -135.424,243.7014 z m 178.848,63.2426 c 13.6853,7.424 29.824,55.5734 62.976,35.5734 24.64,-14.8587 36.3733,-18.624 36.3733,-18.624 0,0 -17.2053,-4.832 -25.0346,-17.7387 -7.8294,-12.9067 -17.216,-22.8373 -44.5974,-18.7947 -28.7466,4.288 -34.0053,-0.224 -48.4906,-2.5813 0,0 5.0773,14.7093 18.7733,22.1653 z m -52.896,-38.6133 c 21.1093,-4.5867 40.576,-12.7893 60.096,-25.4507 21.6213,-14.048 45.024,-39.8506 77.2693,-37.2373 10.2827,0.8213 28.9707,10.7733 36.4907,15.68 9.408,6.1333 31.7227,20.7467 25.76,43.0827 -2.6453,9.92 -14.4427,11.4986 -21.472,19.5946 -9.7387,11.264 -9.3653,22.3254 -17.1627,35.2534 16.992,-3.4134 26.7307,-13.4827 45.056,-15.68 -28.8746,25.8986 -62.144,47.7653 -103.0186,62.6986 3.072,1.7387 5.024,8.864 15.0293,11.744 9.0133,2.6027 38.08,-1.8346 19.3173,1.9734 -18.8373,5.2693 -30.528,-0.096 -42.912,-7.8507 -28.4586,-17.7813 -51.6373,-58.6133 -81.5786,-76.3733 -12.992,-7.7547 -25.696,-5.9734 -36.5014,-19.616 6.9974,-13.9734 14.0907,-5.7494 23.6267,-7.8187 z m 223.232,25.472 c -7.104,-4.128 4.4693,-7.872 6.432,-9.8027 8.1813,-8.0533 26.4533,-22.8266 32.192,-35.2533 11.7333,-25.4187 8.128,-64.32 -12.8853,-78.3787 -14.1547,-9.4506 -83.4347,-35.2853 -113.7387,-35.2533 -85.2587,0.1173 -93.9093,93.7173 -145.9627,125.376 0.928,-8.96 7.4667,-27.7227 14.912,-37.4507 29.2694,-38.2186 57.2374,-116.9706 139.5307,-103.8186 29.0773,4.6506 83.4773,24.736 105.3013,38.3786 23.7014,14.7734 41.3014,71.4987 17.152,102.8907 -10.816,14.0587 -36.704,31.872 -42.9333,33.312" />
      </g>
    </g>
  </g>
</svg>
