<?xml version="1.0" encoding="UTF-8" standalone="no"?>
<svg
   xmlns:dc="http://purl.org/dc/elements/1.1/"
   xmlns:cc="http://creativecommons.org/ns#"
   xmlns:rdf="http://www.w3.org/1999/02/22-rdf-syntax-ns#"
   xmlns:svg="http://www.w3.org/2000/svg"
   xmlns="http://www.w3.org/2000/svg"
   xmlns:sodipodi="http://sodipodi.sourceforge.net/DTD/sodipodi-0.dtd"
   xmlns:inkscape="http://www.inkscape.org/namespaces/inkscape"
   inkscape:version="1.0beta1 (32d4812, 2019-09-19)"
   inkscape:export-ydpi="96"
   inkscape:export-xdpi="96"
   inkscape:export-filename="/Users/brian/Documents/GitHub/openjs/artwork/projects/libuv/libuv-logo-stacked-grayscale.png"
   sodipodi:docname="libuv-logo-stacked-grayscale.svg"
   width="574.20245pt"
   height="816.47699pt"
   id="svg3069"
   version="1.1">
  <sodipodi:namedview
     inkscape:current-layer="svg3069"
     inkscape:cy="616.49755"
     inkscape:cx="-695.86285"
     inkscape:zoom="0.26808489"
     showgrid="false"
     id="namedview909"
     inkscape:window-height="480"
     inkscape:window-width="640"
     inkscape:pageshadow="2"
     inkscape:pageopacity="0"
     guidetolerance="10"
     gridtolerance="10"
     objecttolerance="10"
     borderopacity="1"
     inkscape:document-rotation="0"
     bordercolor="#666666"
     pagecolor="#ffffff" />
  <defs
     id="defs3071">
    <clipPath
       clipPathUnits="userSpaceOnUse"
       id="clipPath70">
      <path
         inkscape:connector-curvature="0"
         d="M 0,6349.664 V 0 h 8980.16 v 6349.664 z"
         id="path72"
         style="stroke-width:1.06667" />
    </clipPath>
    <clipPath
       clipPathUnits="userSpaceOnUse"
       id="clipPath70-6">
      <path
         inkscape:connector-curvature="0"
         d="M 0,6349.664 V 0 h 8980.16 v 6349.664 z"
         id="path72-5"
         style="stroke-width:1.06667" />
    </clipPath>
    <clipPath
       id="clipPath70-3"
       clipPathUnits="userSpaceOnUse">
      <path
         inkscape:connector-curvature="0"
         style="stroke-width:1.06667"
         id="path72-9"
         d="M 0,6349.664 V 0 h 8980.16 v 6349.664 z" />
    </clipPath>
    <clipPath
       id="clipPath70-6-0"
       clipPathUnits="userSpaceOnUse">
      <path
         inkscape:connector-curvature="0"
         style="stroke-width:1.06667"
         id="path72-5-5"
         d="M 0,6349.664 V 0 h 8980.16 v 6349.664 z" />
    </clipPath>
    <clipPath
       clipPathUnits="userSpaceOnUse"
       id="clipPath70-7">
      <path
         inkscape:connector-curvature="0"
         d="M 0,6349.664 V 0 h 8980.16 v 6349.664 z"
         id="path72-1"
         style="stroke-width:1.06667" />
    </clipPath>
    <clipPath
       clipPathUnits="userSpaceOnUse"
       id="clipPath70-6-3">
      <path
         inkscape:connector-curvature="0"
         d="M 0,6349.664 V 0 h 8980.16 v 6349.664 z"
         id="path72-5-8"
         style="stroke-width:1.06667" />
    </clipPath>
  </defs>
  <metadata
     id="metadata3075">
    <rdf:RDF>
      <cc:Work
         rdf:about="">
        <dc:format>image/svg+xml</dc:format>
        <dc:type
           rdf:resource="http://purl.org/dc/dcmitype/StillImage" />
        <dc:title />
      </cc:Work>
    </rdf:RDF>
  </metadata>
  <path
     id="path76"
     style="opacity:1;fill:#403c3d;fill-opacity:1;fill-rule:evenodd;stroke:none;stroke-width:0.427889;stop-opacity:1"
     d="m 652.11148,606.24296 c -18.08677,3.6841 -37.34598,15.95591 -52.25357,18.72006 -32.95157,6.09739 -52.37335,0.22677 -34.984,-6.96173 25.25815,-10.46184 108.57627,-13.07191 117.28378,-74.9016 8.71176,-61.82963 2.61012,-89.71074 -1.74149,-105.38425 -2.08382,-7.51795 -6.76489,-18.60878 -11.08228,-28.13783 -1.21947,-6.73068 -2.81976,-12.43868 -4.21896,-16.50359 -0.77877,-1.83564 -1.56181,-4.19756 -2.33625,-7.17995 0,0 -1.08687,-7.62066 2.39614,-15.01883 3.08079,-6.5638 13.67099,-20.80384 14.38555,-34.56899 0.0121,-0.83437 0.0471,-1.66875 0.0341,-2.50313 -0.0429,-0.93277 -0.11982,-1.85276 -0.26956,-2.77271 l -0.077,-0.813 c -1.35643,-7.72334 -5.7893,-13.10188 -11.80968,-17.1069 -3.87666,-2.57586 -9.15679,-3.38887 -12.05357,-7.06442 2.31059,-7.27836 9.68306,-9.86706 12.75958,-15.81041 1.91692,-5.28014 0.35085,-10.82555 -2.56307,-15.86605 -5.61813,-6.29848 -16.65332,-11.76263 -26.55893,-15.46811 -12.39588,-4.65114 -25.00571,-8.32241 -33.52492,-15.00169 -8.99846,-4.78806 -15.0488,-14.04755 -9.52476,-26.29367 1.4334,-3.18347 2.07524,-6.38833 2.03248,-9.43061 l -0.0385,-0.89432 c -0.0121,-0.6204 -0.0985,-1.18097 -0.17545,-1.75432 -0.0642,-0.44499 -0.13694,-0.88142 -0.23531,-1.31787 l -0.20114,-0.75737 -0.23961,-0.86434 c -2.26778,-7.64208 -14.30852,-9.79004 -18.60023,-10.17514 -9.72161,-0.87288 -16.00295,-3.50867 -21.16328,-5.13892 4.15048,2.15653 8.32666,5.04049 13.64957,7.1842 3.36748,1.37351 8.20259,2.1908 12.2718,3.54719 l 0.0385,-0.009 c 0,0 7.50942,1.52326 9.5761,6.75206 2.07099,5.2202 0.86864,9.79859 0,12.72962 l -0.31662,0.85151 c -0.74882,2.28917 -1.59174,4.49706 -1.76717,6.77773 -0.706,9.00271 4.81799,13.69236 7.75331,21.22315 5.2844,5.01912 12.80665,10.21795 23.24281,14.92473 9.37927,4.23608 20.60275,6.79911 27.5559,10.99667 4.02645,2.43042 11.3604,8.30529 11.19352,12.57988 -0.1283,3.27334 -6.1744,7.74048 -8.60906,10.99669 -1.74149,2.31916 -2.60583,5.39994 -4.16336,7.59071 -1.35639,2.13942 -3.09788,3.51724 -5.10038,3.51724 -2.61013,0 -8.56201,1.0098 -4.64685,1.30078 3.91941,0.29096 14.08176,5.07902 14.08176,5.07902 l -0.009,0.0121 c 13.73517,5.68233 22.96469,16.20834 17.91565,31.21864 -4.22753,12.57557 -13.95338,23.09305 -14.63372,36.92661 -0.72744,14.71934 6.02036,26.83709 6.88467,38.50982 1.45912,19.64002 -1.36068,33.16554 -5.16031,47.92765 -1.7843,6.90608 -2.73421,13.70949 -4.30452,20.42728 -6.70929,28.6128 -24.00021,41.0087 -47.35854,54.22611 -10.12808,5.72942 -20.9964,16.28967 -31.85617,19.64002 -1.75006,0.53913 -4.44575,-0.28242 -6.03749,0 -10.00401,1.80567 -19.00672,6.76488 -29.27175,8.63903 -9.66596,1.78429 -19.7983,0.92852 -31.26997,3.83385 -5.81923,2.07529 -13.2773,5.18175 -17.63321,7.03021 -6.73492,3.06796 -13.33294,6.25997 -19.91811,9.47767 l -21.86934,12.49431 c 0,0 -12.18619,7.05584 1.30935,1.83135 10.85975,-4.20612 48.18862,-22.78498 32.55362,-11.87386 -10.78275,5.41705 -16.63194,13.11046 -26.16955,19.67426 0,0 -32.08721,15.9131 -36.90095,20.35456 -5.29297,4.88646 -11.76263,2.18223 -16.00725,6.97457 -4.98488,5.61815 -11.0994,8.98987 -15.45956,10.44471 -4.35161,1.46337 -9.28516,11.03093 -15.96444,15.96445 -6.67933,4.93783 -21.189,3.4873 -33.96567,9.00274 -12.77241,5.51545 -26.01125,5.58822 -26.01125,5.58822 -1.26653,0.11982 -2.49459,0.1968 -3.67127,0.22678 -0.50492,0.0121 -0.97128,0.009 -1.45483,0.009 -7.47091,0.0385 -13.1832,-1.42057 -17.56047,-3.02945 -5.33574,-1.9597 -7.29544,-0.97558 -6.09739,-0.32515 1.19809,0.64607 4.67251,3.89802 4.67251,3.89802 -14.90329,-0.0173 -18.9682,-9.9184 -25.8315,-17.27377 3.11931,-0.44504 12.01507,1.72865 7.49658,-0.89001 -8.92144,-4.26606 -26.1054,-4.57413 -26.44341,-14.83483 -0.25673,-8.04855 3.44875,-6.28569 3.44875,-6.28569 6.25144,10.88545 25.54056,11.95089 39.60948,11.79684 26.20381,-0.31662 43.93545,-14.68508 61.11083,-22.8149 5.5668,-3.34609 12.07067,-7.74477 12.07067,-7.74477 l -0.0341,0.12845 c 5.42133,-3.53007 10.90256,-6.95315 15.53658,-11.21919 8.08706,-7.43241 13.55116,-17.13258 20.67119,-25.36085 0.82584,-1.39918 2.56307,-3.10646 4.62547,-4.82656 2.0068,-1.88273 4.16335,-3.63705 6.5638,-5.17316 l 0.0898,0.19256 0.93278,-0.62475 -0.16687,-0.35083 c 17.28236,-9.79864 33.38801,-20.64556 46.97769,-33.81163 l 0.0898,-0.15404 c 1.95117,-1.7672 12.17768,-13.18319 17.11549,-18.72436 5.82353,-7.76614 10.02109,-17.57756 12.4558,-27.46174 0.87713,-3.57716 0.32091,-7.9202 1.71581,-11.7926 2.16938,-6.00324 7.62065,-11.34326 11.19781,-17.28231 3.7012,-6.17442 6.14874,-12.89654 8.60907,-19.64002 10.76992,-29.59696 23.22572,-53.16496 46.4942,-69.14654 11.21065,-7.70621 24.82598,-12.67827 32.71621,-24.36813 -5.72938,5.81497 -13.18744,10.05531 -22.19449,12.87512 -25.58336,8.42934 -42.22385,30.01622 -50.58907,43.73002 -6.42256,11.5444 -11.38607,24.40668 -15.03592,38.47985 -1.21093,-17.34651 -5.49406,-30.87203 -11.19781,-44.00389 -5.07045,-11.67701 -9.55472,-24.02582 -18.94254,-31.43256 0,0 -0.35942,0.0257 -1.81855,-0.85151 -1.45053,-0.86429 24.20559,-1.51041 24.20559,-1.51041 4.48853,0.16258 9.05835,0.8087 13.68807,1.40773 0.86864,-0.0941 1.92979,-0.0427 3.23484,0.184 14.10318,2.49031 28.75827,-2.75987 37.8894,-9.40494 4.74096,-3.44879 12.98206,-6.21292 19.81973,-8.08281 0.11118,-0.29525 0.77873,-0.62899 2.48601,-0.95415 0,0 10.449,-3.2648 21.55266,-6.31562 7.52225,-2.05814 12.99919,-3.63705 16.80311,-5.51548 2.20361,-1.40344 4.30027,-3.08934 5.92622,-5.09614 3.25625,-4.01785 3.32043,-8.84013 6.0332,-15.71626 2.69999,-6.85904 6.82908,-12.19051 6.88901,-18.07394 0.19255,-19.28917 -18.07824,-34.6503 -37.88512,-24.36817 19.5031,-5.02766 33.33238,4.48852 30.99611,22.79781 -2.88394,22.62239 -36.96512,39.38701 -57.69195,47.9276 -8.21543,3.38461 -17.83434,7.6592 -27.54736,8.63904 -14.00904,1.4206 -26.70443,-1.57033 -38.74947,-0.78729 -15.44668,1.01835 -25.72026,9.18672 -38.74512,10.2222 -11.19352,0.88571 -9.67455,-6.6793 -19.38757,-7.53935 -2.01106,-1.14675 -8.12127,0 -14.19729,-0.31667 -16.79458,4.43721 -27.5987,-3.23907 -41.32532,-9.4306 -9.90128,-4.47144 -20.46156,-8.54064 -30.99611,-9.43063 -26.44771,-2.24215 -42.52768,1.43342 -64.14452,-0.86005 -6.09739,-0.64612 -18.74575,-1.41632 -24.75328,-3.66701 -18.70294,-6.99594 -33.01996,-4.45855 -53.3361,-4.74954 -14.77924,-0.21393 -28.49299,-0.98842 -37.71819,0.62899 -2.51602,0.45357 -5.06628,1.09969 -7.75331,1.57036 -19.7984,3.46159 -49.96005,5.25447 -49.07436,22.78926 1.47189,-1.00554 1.06109,-3.73973 3.44017,-3.928 -0.0863,3.22199 -0.16677,6.43969 0.86008,8.64758 -11.51446,-0.29953 -18.304998,-8.24964 -18.078239,-17.29091 0.385053,-15.37396 25.121279,-21.80084 42.185379,-25.93423 17.10697,-4.1248 34.87271,-8.95995 47.36284,-10.99667 -29.91368,4.3944 -61.55586,7.2227 -84.38787,18.07823 -0.32098,-1.18097 -0.52638,-2.31918 -0.66316,-3.41455 -1.805759,-8.30103 -5.746565,-21.03065 -8.519337,-33.40514 -3.192059,-14.22295 1.737281,-39.19016 1.737281,-39.19016 l 0.12421,0.14557 c 2.058108,-12.69117 4.681071,-18.3478 7.222696,-25.93425 5.41286,-16.18266 22.90048,-21.2617 35.14234,-22.79781 -10.32053,7.29119 -16.91853,16.33246 -21.09049,28.43738 -0.51351,4.29597 -0.91568,8.32666 -1.21514,11.8824 9.26368,-28.84385 35.11658,-39.63944 35.11658,-39.63944 l 8.2753,-8.92573 -0.10755,0.40651 c 14.27436,-13.80363 33.1271,-24.50082 57.09291,-25.17258 12.07508,-0.33805 26.666,2.84115 26.62749,14.68508 -0.0173,6.69642 -5.25447,12.37874 -12.396,15.51945 2.10098,0.41503 4.0223,0.12406 5.76367,-0.59477 l 7.41961,-8.30528 c 2.45608,-6.06742 2.23787,-13.73516 -1.89981,-18.35635 10.91969,-9.3365 27.9239,1.13392 26.68305,13.52123 3.1963,-2.69568 5.14747,-7.78756 2.94812,-11.82679 14.69362,-8.63475 22.91763,12.29746 37.70112,7.40672 -1.39066,-4.18903 -8.51068,-3.34181 -10.67577,-6.83337 19.32764,-2.76412 36.27625,4.03069 55.65952,2.4903 1.21519,1.0569 2.52882,2.10949 3.93226,3.14927 -36.25482,4.01356 -6.8034,3.99217 -6.8034,3.99217 4.64259,-0.4236 15.7976,-1.20234 20.13638,-0.43215 7.09435,1.28366 11.67702,-0.44502 17.94983,-2.89681 0.14981,0.27385 0.77877,0.24817 1.15958,-0.46213 3.25195,-1.28365 6.99595,-2.69994 11.75404,-3.9836 1.84423,-0.26102 3.69695,-0.73597 5.49408,-1.32217 l 0.77448,-0.15832 0.11118,-0.12406 c 2.48176,-0.86436 4.82231,-1.89982 6.82907,-2.87116 18.26649,-8.78023 33.41797,-29.45572 49.01875,-40.30265 25.85292,-17.96696 50.33233,4.22754 68.32925,18.6302 l -0.11558,0.16688 c 4.51419,3.08079 10.46609,6.88043 16.94857,10.84695 16.93579,7.37245 39.27578,13.81217 51.20523,25.60472 9.54618,9.43062 12.79385,21.57405 16.89726,34.1796 3.83387,11.75407 11.27055,22.15173 15.45528,35.34346 0.80441,-0.67603 1.27936,-1.69442 1.55323,-2.90961 -0.11557,-1.12537 -0.29953,-2.31488 0.0341,-3.05086 l 0.22681,0.20539 c -0.0471,-2.30201 -0.55627,-5.00199 -1.34359,-7.84317 -3.54715,-7.22272 -9.74724,-15.45098 -8.98562,-21.88642 0,0 22.00194,11.36899 46.96489,22.66091 8.59623,3.88948 16.46507,10.3035 23.33266,17.63319 l 2.0068,-0.0427 c -0.23535,0.51347 -0.21398,1.25371 -0.14118,2.03673 12.13484,13.59827 20.73537,29.79377 23.7263,39.15594 0.61616,1.92121 1.31363,3.86807 2.0667,5.80641 l 0.005,0.0212 c 0.94137,2.44321 1.95545,4.8565 3.00378,7.17992 l 0.0212,-0.0341 c 0.44074,0.79159 0.71886,1.56607 1.01409,2.34911 3.60285,7.7961 7.14145,14.12455 8.12558,15.8575 3.17064,3.94084 5.72942,9.00272 8.46361,13.28589 0.94991,10.65009 1.45908,21.43283 1.45908,32.33112 0,85.3463 -29.67822,163.74804 -79.24462,225.49636 -2.86686,0.33376 -6.77348,0.99701 -11.93804,2.05386 z m -22.64377,35.31351 c -17.338,5.66094 -35.01401,16.30678 -46.30164,17.3765 -33.97424,3.20915 -40.06304,-11.89099 -12.91792,-14.38129 10.24361,-0.94136 25.36944,-2.10091 37.44868,-7.82603 17.81721,-8.46362 36.06657,-16.67905 48.2485,-22.77644 -8.33095,9.67026 -17.17966,18.87411 -26.47762,27.60726 z m -370.34892,1.64736 c -2.8797,0.96704 -2.8797,-0.45782 -2.8797,-0.45782 0,0 -5.2202,-7.45381 -6.0289,-14.39412 -0.81729,-6.87613 0.95415,-12.99919 2.67855,-13.90634 1.74148,-0.94133 2.11803,3.0637 3.53435,8.07852 1.42488,5.06617 8.46359,15.45956 8.46359,15.45956 1.00125,2.13942 -2.84544,4.25747 -5.76789,5.2202 z m 18.1552,3.1792 c -3.30754,1.09969 -3.30325,-0.53915 -3.30325,-0.53915 0,0 -5.96477,-8.46357 -6.87187,-16.36237 -0.91569,-7.81321 1.13816,-14.77065 3.12359,-15.81041 1.99821,-1.07403 2.42612,3.49156 4.03069,9.20811 1.60883,5.74653 9.67021,17.58189 9.67021,17.58189 1.14246,2.43037 -3.299,4.81373 -6.64937,5.92193 z m 6.13591,-22.00195 c -1.13816,-9.89273 1.51046,-18.73286 4.05211,-20.07216 2.55874,-1.36497 3.08504,4.42863 5.11752,11.66848 2.03672,7.29119 12.31031,22.28434 12.31031,22.28434 1.45482,3.07224 -4.24464,6.11452 -8.53205,7.50942 -4.24467,1.38635 -4.23184,-0.65895 -4.23184,-0.65895 0,0 -7.58214,-10.73141 -8.71605,-20.73113 z M 430.73137,511.16651 c 1.78,-1.59174 3.65414,1.75432 7.12432,5.5497 3.5001,3.8424 15.79757,9.88844 15.79757,9.88844 1.98114,1.46338 -1.964,5.12181 -5.16886,7.32971 -3.19631,2.20789 -3.70553,0.91139 -3.70553,0.91139 0,0 -9.05405,-4.27459 -12.48143,-10.11949 -3.41029,-5.75939 -3.35464,-11.94235 -1.56607,-13.55975 z m -29.16051,15.54084 c 2.18652,-2.04956 4.52278,2.2892 8.88722,7.21416 4.4115,5.04054 19.90528,13.05913 19.90528,13.05913 2.52456,1.89982 -2.40899,6.65366 -6.40117,9.50338 -4.00502,2.84972 -4.67253,1.16384 -4.67253,1.16384 0,0 -11.32188,-5.73367 -15.63927,-13.33724 -4.2746,-7.50086 -4.27884,-15.56226 -2.07953,-17.60327 z m -26.01551,34.9755 c -3.85098,-8.05714 -3.51723,-16.40519 -1.2922,-18.42483 2.24639,-2.02388 4.36444,2.62721 8.42506,8.05284 4.12055,5.51116 18.9768,14.7236 18.9768,14.7236 2.37907,2.13942 -2.64864,6.78627 -6.69642,9.52475 -4.02644,2.71708 -4.62118,0.94562 -4.62118,0.94562 0,0 -10.85977,-6.63652 -14.79206,-14.82198 z m -23.8162,19.90528 c -3.22199,-8.50213 -2.35764,-17.03418 -0.0898,-18.92545 2.31058,-1.89553 4.03928,3.02944 7.59073,8.84016 3.60709,5.93053 17.33371,16.4437 17.33371,16.4437 2.17793,2.35764 -2.96101,6.74777 -7.06873,9.22953 -4.05637,2.44749 -4.47568,0.56481 -4.47568,0.56481 0,0 -10.03392,-7.55652 -13.29018,-16.15275 z m -32.09577,52.19364 c -4.27033,1.29221 -4.23182,-0.68889 -4.23182,-0.68889 0,0 -7.23985,-10.43191 -8.08706,-20.08503 -0.83863,-9.58036 2.07527,-18.11671 4.64685,-19.38752 2.59729,-1.29226 2.96954,4.30026 4.76667,11.30905 1.83992,7.0858 11.6428,21.64675 11.6428,21.64675 1.36068,2.9781 -4.40725,5.87492 -8.73744,7.20564 z m 8.6861,-33.43082 c -2.08808,-9.60178 -0.0556,-18.59595 2.51598,-20.26042 2.59298,-1.69017 3.6841,3.92372 6.46964,10.75709 2.81122,6.86328 15.15148,20.35456 15.15148,20.35456 1.84418,2.85402 -3.94942,6.63223 -8.41226,8.61766 -4.39441,1.94686 -4.58696,-0.11982 -4.58696,-0.11982 0,0 -9.02839,-9.63599 -11.13788,-19.34906 z M 444.70615,374.55081 c 0,0 2.51168,0.4236 1.37781,3.97505 -1.12962,3.54289 -1.34785,14.5225 2.08807,19.2549 3.45305,4.74525 -2.36623,2.94388 -6.91038,-1.84846 -4.54842,-4.77093 -7.76615,-13.564 -6.78629,-19.53732 0,0 -0.26102,-2.51168 10.23079,-1.84417 z m -16.0543,29.07916 c 5.51116,6.14873 -2.92675,4.50565 -9.98688,-1.55324 -7.0516,-6.03744 -12.83235,-17.82575 -12.30176,-26.33212 0,0 -0.72315,-3.48731 14.09459,-4.08205 0,0 3.60279,0.22676 2.48601,5.36141 -1.05686,5.1261 0.19254,20.50861 5.70804,26.606 z m -37.60701,32.06158 c 32.12148,2.1052 55.15035,-9.03271 71.46138,-20.42304 4.29602,-2.99521 9.97405,-10.2907 17.23103,-5.49836 -3.09363,6.40976 -11.29193,10.63301 -18.08249,14.1374 -11.89953,6.14874 -22.45123,11.52727 -36.16501,14.93322 23.11444,-3.53431 39.53675,-13.16177 56.82766,-22.00193 2.11803,4.44146 4.4971,13.35435 6.05886,20.89799 l 0.22252,-0.0212 c 0,0 1.57033,4.22754 1.10395,8.35665 0.0642,1.96828 -0.33375,3.66272 -1.74153,4.5955 -0.47495,0.60761 -1.04401,1.16812 -1.7586,1.63453 -6.31132,4.13765 -25.03993,13.2816 -40.06306,14.36842 -0.49633,0.0301 -0.97128,0.0942 -1.46337,0.14117 l -1.1082,0.31238 -0.0301,-0.20539 c -13.62394,1.5789 -22.43839,7.19279 -5.01482,4.33022 17.4321,-2.8754 54.76951,-9.22951 41.16699,-4.11629 l 0.0471,-0.009 c -16.98284,6.63652 -39.26719,13.13184 -61.14077,11.00096 -14.13309,-1.36922 -28.75399,-8.30099 -41.32532,-14.92897 -12.5542,-6.61084 -24.46658,-15.30552 -37.88508,-18.0654 -10.21368,-2.11374 -18.65159,0.83014 -27.55165,2.3534 -5.92622,1.00125 -14.18445,3.4017 -17.77441,-0.29953 -1.51471,-1.79283 -0.30807,-3.63277 -0.30807,-3.63277 3.3974,-8.39513 13.29443,-13.34577 21.5227,-15.71201 25.82724,-7.43239 50.84578,6.22577 75.77018,7.85176 z m 7.27836,-28.13783 c 5.39996,7.83458 -3.97506,4.69819 -11.14217,-3.3033 -7.17138,-7.9972 -12.01078,-22.39988 -10.17086,-32.10436 0,0 -0.31236,-4.07774 16.67046,-2.52026 0,0 4.0735,0.8087 2.09666,6.49962 -2.02392,5.74225 -2.84118,23.57655 2.54591,31.4283 z m -34.19672,-3.73121 c 5.32294,8.90861 -4.62973,5.00202 -11.87386,-4.18472 -7.24839,-9.14393 -11.59146,-25.28813 -8.95566,-35.8569 0,0 -0.0598,-4.54416 18.28362,-2.00251 0,0 4.33878,1.09537 1.80996,7.31257 -2.5374,6.19579 -4.58696,25.81441 0.73594,34.73156 z m -35.35202,-4.92067 c 5.44272,9.01985 -4.64255,5.16887 -12.00648,-4.09916 -7.3725,-9.23807 -11.84818,-25.63042 -9.23381,-36.46026 0,0 -0.0985,-4.59551 18.45475,-2.26349 0,0 4.3987,1.06968 1.8699,7.42381 -2.52028,6.34986 -4.49711,26.40064 0.91564,35.3991 z m -32.39959,10.18368 c 6.67933,11.66848 -5.01912,6.72638 -13.93626,-5.23733 -8.90861,-11.96797 -14.88618,-33.23824 -12.52853,-47.33283 0,0 -0.34229,-6.02036 20.89371,-3.12357 0,0 5.10042,1.32216 2.5759,9.66167 -2.53311,8.2839 -3.6884,34.35075 2.99518,46.03206 z m -34.39352,-8.6818 c 6.65791,10.18369 -5.05763,6.29419 -13.94056,-4.05636 -8.87439,-10.34206 -14.71935,-29.22895 -12.25896,-42.00997 0,0 -0.33374,-5.4042 20.98786,-3.77395 0,0 5.09613,0.97987 2.49455,8.54918 -2.58015,7.56934 -3.91516,31.08171 2.71711,41.2911 z m -36.43034,-11.8696 c 4.69819,8.75456 -4.4328,4.86081 -10.9025,-4.18474 -6.4697,-8.99846 -10.0297,-24.83883 -7.29555,-35.19369 0,0 0.0606,-4.44575 17.00002,-1.83992 0,0 4.02215,1.10395 1.48053,7.15 -2.51602,6.076 -4.97645,25.30524 -0.2825,34.06835 z m -27.78271,-7.56931 c 4.41159,6.98311 -3.59423,3.94938 -9.55891,-3.21345 -5.9562,-7.17137 -9.72159,-19.81971 -7.82178,-28.15067 0,0 -0.15405,-3.56429 14.49249,-1.6816 0,0 3.51728,0.83013 1.58747,5.73372 -1.84846,4.8779 -3.13207,20.32888 1.30073,27.312 z m -29.17751,5.04049 c 5.39135,7.83463 -3.97943,4.6982 -11.14653,-3.31184 -7.16709,-7.99721 -12.00646,-22.39558 -10.16663,-32.10435 0,0 -0.31658,-4.06921 16.66633,-2.52023 0,0 4.0735,0.8087 2.09658,6.50816 -2.02812,5.73797 -2.83685,23.56372 2.55025,31.42826 z m -23.54243,-2.07524 c 5.51131,6.1402 -2.92243,4.51421 -9.97835,-1.54039 -7.06,-6.04604 -12.84079,-17.83858 -12.31017,-26.34072 0,0 -0.71891,-3.48725 14.09456,-4.08204 0,0 3.60286,0.22678 2.49451,5.37 -1.06109,5.12606 0.18405,20.50861 5.69945,26.59315 z m 323.17015,323.21291 c -16.31958,5.63956 -45.31746,19.79405 -68.61166,31.63794 -5.56679,0.25674 -11.1721,0.40223 -16.81165,0.40223 -199.09571,0 -360.486077,-161.39465 -360.486077,-360.49041 0,-154.24466 96.894967,-285.82842 233.121267,-337.298954 0.68889,0.637579 1.41632,1.253723 2.18652,1.852751 1.54465,1.202358 4.09913,1.839937 5.4213,3.423091 1.75861,2.11379 1.02692,6.40546 1.79287,9.054098 2.37477,8.176914 7.42381,15.682031 15.83179,21.81794 1.22806,0.907146 3.57287,1.343594 4.64259,2.545937 2.34052,2.657181 1.66018,7.124321 3.42738,10.196562 1.86131,3.230534 5.03195,7.132847 8.94282,10.136625 2.14371,1.65162 5.34857,2.5331 7.35108,4.50135 1.62171,1.58749 2.07099,4.44576 3.23058,6.82483 3.14068,6.42254 11.43741,13.86778 15.42101,20.5899 0.5263,0.88573 0.93708,1.82707 1.28367,2.78555 1.66021,3.4188 5.67377,10.66292 11.14645,14.01329 0,0 0.56912,10.05961 10.60305,21.52699 -20.32464,-1.0954 -39.93039,-12.58842 -55.00915,-1.17241 -4.35161,-4.74956 -18.30925,-8.47218 -24.28257,-1.80998 -4.4115,-7.6677 -27.80838,-12.56274 -32.35682,-0.44498 -33.25964,-14.92043 -73.39963,6.35411 -86.30041,27.70993 -2.3962,1.14247 -4.63411,2.34485 -6.74781,3.58141 -9.10554,-2.73844 -21.43722,-3.70977 -34.78303,5.91344 -13.153146,9.4905 -26.905522,52.05669 -24.539312,81.52528 0.256752,3.15781 6.242942,10.61158 8.395268,25.54485 2.139298,14.81344 3.769637,19.67852 3.769637,19.67852 -2.926824,5.10467 -6.418351,7.3853 -6.893229,13.35861 -1.03125,12.92645 10.021062,19.95238 20.375986,26.57177 3.68405,1.71581 7.85601,2.94813 12.38303,3.11076 2.73415,4.33019 13.26871,18.9682 30.68803,18.9682 0.42792,0 0.86856,-0.0301 1.29648,-0.0556 6.64935,5.59252 13.58545,7.09439 8.79729,0.20113 -0.39354,-0.5691 -0.73163,-1.20663 -1.04822,-1.86129 3.20054,1.89551 7.07712,3.75253 10.53017,4.09058 0.0682,0.005 1.69442,0.41506 3.05089,0.41506 0.47927,0 1.90845,0 2.41332,-1.0997 0.50063,-1.10395 -0.51775,-2.28917 -0.85145,-2.66573 -1.39495,-1.60886 -2.9653,-5.7936 -4.14636,-9.69163 1.27513,2.33627 2.66583,4.56129 4.22331,6.47395 8.28817,10.17512 19.88383,14.98457 13.40989,4.86078 -2.07947,-3.24337 -3.26462,-7.66346 -3.84235,-12.35736 3.20918,3.95792 8.73745,8.55343 17.72742,10.39336 7.42809,7.06441 16.66193,9.95266 11.12926,2.44324 -1.41206,-1.92124 -2.33622,-4.3944 -2.8882,-7.09863 4.47991,5.36994 12.05357,12.27178 21.343,12.27178 l 0.67604,-0.0173 0.18829,-0.009 c 6.37121,4.30881 11.70699,5.02766 6.94032,-1.18526 -2.0667,-2.70423 -3.19203,-6.45252 -3.69694,-10.41478 4.2104,8.59198 12.33168,20.40596 26.31074,24.20559 0.1027,0.0385 2.51173,0.70601 4.5014,0.70601 1.55322,0 2.5288,-0.39794 2.99518,-1.24944 0.67609,-1.21948 -0.21392,-2.64004 -0.50488,-3.10645 -0.90286,-1.44625 -1.74152,-3.24767 -2.46893,-5.02341 6.2771,3.67984 10.91541,3.99219 6.03321,-2.00252 -2.52452,-3.08932 -3.87235,-7.45378 -4.42433,-11.95942 3.41024,9.11827 10.3634,21.92064 24.09002,30.30722 0.1027,0.0471 2.57161,1.21519 5.31435,1.21519 1.32217,0 2.49884,-0.27811 3.52152,-0.79158 0.87289,-0.44928 1.44625,-1.18526 1.6816,-2.13088 0.71455,-2.85826 -1.99826,-6.91463 -2.24216,-7.24414 -1.12961,-2.22497 -3.20057,-6.92317 -4.21894,-11.03089 l 0.1027,0.0813 c 9.92269,8.00578 22.80211,11.71127 14.85624,3.73119 -4.8223,-4.85652 -6.68361,-13.17464 -6.84619,-19.9695 2.89677,8.13415 9.94406,22.22446 24.53928,25.01 0.0985,0.009 2.36194,0.44499 4.03071,0.44499 0.92852,0 2.04531,-0.10694 2.43469,-0.99697 0.17114,-0.37656 0.23961,-0.98413 -0.4236,-1.72865 -1.09111,-1.22376 -2.64434,-4.92925 -3.46588,-7.92448 0.69317,0.53059 1.36493,1.09112 2.09237,1.55324 7.07721,4.64255 15.4296,7.07726 16.52071,5.57108 2.26349,1.85703 5.80639,4.29172 10.62012,6.41401 0.44928,1.02267 0.89432,2.06245 1.25374,3.09791 0,0 2.24641,6.24288 3.11071,9.61893 -11.45025,-2.96527 -31.04746,-8.70752 -45.63414,-5.48982 -11.51869,2.53309 -41.54781,19.13511 -34.28228,30.8036 0.4835,0.77874 1.10394,1.32216 1.81425,1.75861 l 0.44929,0.17112 c 2.86681,1.52756 7.92443,2.42612 13.24308,2.38336 l 1.93404,-0.0556 c 3.08937,-0.16687 11.18926,-1.33501 13.93201,-2.22502 8.03142,-2.61009 15.20283,-1.03976 15.20283,-1.03976 l -0.1027,0.0727 c 5.70801,0.66321 11.72837,2.67001 17.94558,5.84491 6.67929,3.39745 15.76761,9.01129 18.08249,11.77975 4.17618,5.01912 -2.22074,16.77744 -4.60405,24.01728 -0.11557,0.42788 -0.26102,0.8729 -0.39794,1.31789 l -0.17117,0.59903 -0.0212,-0.0121 c -0.33805,1.0141 -0.75311,2.07954 -1.1981,3.1664 -0.40647,-0.50922 -0.76591,-1.00126 -1.03976,-1.46338 -2.28491,-3.84244 -3.51295,-7.20562 -4.6939,-5.66094 -1.18097,1.54893 -1.23661,7.68484 1.00978,13.47414 0.23107,0.59903 0.51348,1.16814 0.81726,1.73724 -2.58869,4.73242 -5.72513,9.68734 -9.03267,14.44118 -2.57587,-2.43896 -5.1817,-5.18174 -6.43968,-7.3725 -2.9396,-5.03195 -4.50566,-9.45204 -6.00754,-7.42385 -1.51473,2.01963 -1.55752,10.17087 1.32216,17.83004 0.94134,2.49459 2.37479,4.75384 3.88092,6.73068 -2.28492,2.88394 -4.51419,5.54112 -6.54667,7.80036 -0.9114,1.00126 -1.98967,2.13517 -3.13214,3.31185 -3.14067,-3.23484 -7.11573,-7.6763 -8.7203,-10.8897 -2.79839,-5.6139 -4.24038,-10.39765 -5.83211,-8.36092 -1.58745,2.05385 -1.89553,10.67576 0.74881,19.01101 1.09111,3.41453 2.96525,6.53384 4.82228,9.06693 -3.40599,3.24338 -7.10294,6.67076 -10.89828,10.1281 -2.30204,-3.05513 -4.57413,-6.40977 -5.61389,-8.97709 -2.49456,-6.07171 -3.67981,-11.22348 -5.36571,-9.24666 -1.66017,1.98115 -2.3876,10.94109 -0.14966,19.87108 0.55196,2.20365 1.3949,4.31739 2.35338,6.2771 -3.76113,3.36318 -7.40246,6.58093 -10.74424,9.49483 -0.97987,-2.12662 -1.79712,-4.14622 -2.2507,-5.81073 -1.9597,-7.23126 -2.69568,-13.20028 -4.62546,-11.36894 -1.92975,1.78858 -3.57284,11.41603 -2.16081,21.64681 0.13254,0.98413 0.32518,1.95543 0.54339,2.93101 l -0.94132,0.8087 c -2.18651,1.88698 -4.56129,4.15905 -7.01309,6.65794 -0.61186,-1.92123 -1.08681,-3.72262 -1.335,-5.21595 -1.24515,-7.53509 -1.43341,-13.564 -3.41454,-12.12205 -1.96829,1.41632 -4.32593,10.71002 -3.85098,21.10767 0.0727,1.63455 0.26957,3.28617 0.54344,4.8993 -2.88399,3.25195 -5.73796,6.60659 -8.42511,9.87993 -1.55752,-4.00077 -2.96527,-8.13415 -3.50869,-11.12508 -1.42486,-7.88169 -1.72436,-14.21868 -3.7397,-12.66544 -1.84423,1.40773 -3.8724,9.84568 -3.6499,19.66567 -2.01104,1.47193 -4.61687,8.31812 -4.70249,16.07574 -0.0385,2.64004 0.43219,5.34427 1.07403,7.78751 -1.30507,1.83994 -3.5857,3.115 -5.18173,5.35717 -8.23258,11.51444 -4.87363,25.23676 12.91362,28.28758 5.4513,16.79458 19.27204,24.95008 40.46957,25.14262 2.84543,0.0258 5.81924,-0.967 8.60907,-0.79157 3.14926,0.20967 5.74225,1.48904 8.61336,1.5789 15.45098,0.47066 23.55089,-4.44576 35.29637,-7.86885 8.75886,-2.54165 17.80012,-3.35464 23.25139,-5.49406 8.34808,-3.27334 12.31459,-12.24612 18.93829,-16.49933 2.46888,-1.58316 7.12002,-2.32768 11.19777,-4.71103 3.44021,-2.02389 6.41831,-5.69946 9.46916,-7.07297 2.66572,-1.20665 7.1029,-0.967 10.32918,-2.35766 5.4085,-2.3448 11.38177,-7.40672 18.08678,-11.0095 14.03895,-7.50942 25.46353,-13.06342 40.46527,-19.63576 7.16708,-3.14068 14.74927,-10.52602 18.94254,-11.00098 4.97206,-0.57335 10.76137,3.57717 14.63803,3.14073 7.89876,9.3921 10.65008,22.51539 10.32062,39.39124 0.46638,0.0471 0.12406,4.18474 0.12406,4.18474 0,0 2.75988,36.22491 -53.81534,55.78788 z M 243.38111,6.4653695 c 5.91768,1.647364 12.53278,5.0105625 6.23001,15.0659175 -3.87666,-4.141966 -5.19025,-9.601775 -6.23001,-15.0659175 z M 254.66874,19.71274 c 1.89127,-3.311846 0.009,-4.997686 1.00983,-7.004489 17.00422,2.190771 18.47188,14.133096 11.12505,31.073123 -11.33472,-3.829562 -14.35133,-11.407448 -16.50788,-19.100865 1.81851,-1.97254 3.23054,-2.952423 4.373,-4.967769 z m 18.56602,3.367483 c 15.82754,6.974572 18.31355,24.470864 7.36821,47.294349 -3.73973,-2.45608 -6.65365,-5.399961 -8.75457,-8.651867 -1.66446,-2.580155 -4.00073,-6.803404 -3.5001,-10.273588 0.35085,-2.3876 2.24212,-5.592457 3.20916,-8.262468 2.76841,-7.672044 3.8467,-14.595236 1.6773,-20.106426 z m 75.83438,66.429433 c -0.27382,-0.834376 0.2867,-0.808701 0.97558,-1.424861 23.65786,4.800888 25.54059,27.885395 15.38255,45.283255 -4.81802,8.23684 -9.52905,12.57134 -16.92294,10.27358 -6.11878,-1.90836 -6.95315,-6.82478 -9.90127,-10.20511 12.05357,-17.56047 11.81822,-30.49548 10.46608,-43.926864 z M 321.72292,72.133181 c -0.1027,-2.143707 -0.49208,-4.527064 0.37226,-6.640809 2.04102,0.171168 5.61384,0.688883 8.53635,2.237864 13.28587,7.017334 18.7842,32.121425 11.06085,46.879274 -3.31613,6.32416 -6.67074,9.3964 -12.87511,7.62066 -10.01255,-2.87539 -12.91793,-14.21012 -16.95288,-18.89978 10.91538,-11.638507 10.28639,-21.856442 9.85853,-31.197209 z m -31.98882,-31.513859 0.65037,-0.316661 c 26.03263,9.173916 40.9659,26.516173 17.30804,58.363791 -9.01989,-4.522773 -14.0946,-10.560269 -16.4437,-17.406433 -1.3821,-4.013605 -2.44754,-4.497102 -1.51046,-9.477717 2.0068,-10.75707 2.68284,-22.622385 -0.005,-31.162979 z M 390.76243,174.35963 c -0.97128,0.43216 -1.65591,0.75306 -1.65591,0.75306 -3.16207,1.61742 -6.48674,2.58018 -9.64455,3.1279 -19.57157,-4.20188 -25.48495,-26.5076 -25.48495,-26.5076 18.28787,-8.04001 28.62134,-31.1887 22.11318,-43.92263 0.184,-0.47495 0.60761,-0.39793 1.0355,-0.29948 8.28816,3.65414 17.00851,9.79003 21.24885,16.43509 8.05713,12.60131 10.44474,31.55669 3.73545,46.7852 -2.98664,0.68888 -4.90359,1.37351 -7.30829,2.22073 -0.40652,0.10694 -0.83012,0.23106 -1.24944,0.37651 l -2.23356,0.82155 -0.22678,0.0898 -0.35088,0.11558 z m 31.56951,-15.81469 c -1.33929,1.13816 -2.65718,2.25495 -3.87666,3.29045 -1.12107,2.14798 -4.56128,4.98916 -8.95565,6.85047 3.48727,-10.57737 3.90657,-21.81795 4.15048,-30.14465 7.20562,3.74402 12.01506,8.88722 14.79206,14.73217 -0.89003,0.7702 -1.80141,1.56607 -2.73849,2.37477 -1.23232,-2.29774 -2.93958,-4.37728 -5.17316,-6.1402 1.00985,2.93531 1.58749,5.94766 1.80142,9.03699 z M 382.7952,18.198022 c 176.58889,0 323.50385,126.971168 354.46574,294.591578 -3.37603,-2.37907 -7.09863,-4.49282 -11.31759,-6.25143 -8.82729,-39.387 -27.81692,-64.25576 -66.82736,-78.47447 -13.07622,-4.76239 -25.46354,-10.27783 -38.36433,-15.89596 0.74452,-41.92011 -47.9704,-41.03864 -78.32897,-62.61698 -13.20462,-9.40923 -28.17211,-26.76862 -43.2765,-29.97777 -29.21181,-6.21292 -47.18308,14.14594 -64.43546,28.3689 -4.23184,-4.62118 -10.57737,-9.13537 -19.78122,-13.23883 0,0 -16.46511,-23.48241 -24.14565,-27.9025 -0.50922,-0.29094 -0.84722,-0.55626 -1.06974,-0.82153 -4.24462,-1.98969 -9.55897,-3.11076 -13.31585,-5.59247 -3.70977,-2.438949 -4.4115,-8.211179 -8.12556,-10.996722 -1.81852,-1.364937 -4.63828,-2.845434 -7.10291,-3.833848 -2.97808,-1.193815 -8.07851,-0.971296 -11.07373,-2.610133 -3.69265,-2.023889 -3.9879,-8.604774 -6.66219,-11.869556 -2.94814,-3.607089 -6.73923,-6.555225 -12.87083,-8.617665 -2.48602,-0.825788 -6.24289,-0.881425 -8.48929,-2.083783 -2.50739,-1.356424 -3.11929,-5.601046 -5.06188,-8.20259 -4.51424,-6.067456 -12.13489,-10.774201 -20.82956,-13.846442 -1.86986,-0.658922 -4.38583,-0.658922 -5.75505,-1.578898 -1.61317,-1.073981 -1.80142,-3.756838 -2.777,-5.810704 30.31577,-8.2796 62.2062,-12.738197 95.14493,-12.738197 z M 740.76109,335.9297 c -3.66273,-6.2771 -7.05159,-12.31455 -8.29245,-17.6332 2.48601,1.64308 4.66823,3.47443 6.66646,5.42559 0.61616,4.04354 1.14244,8.11702 1.62599,12.20761 z M 382.7952,0 c -38.98907,0 -76.59174,5.9262199 -111.99085,16.871605 -0.39794,-0.701774 -0.82154,-1.386355 -1.38207,-1.934078 -3.26904,-3.183485 -7.14998,-5.6053035 -15.21566,-3.538621 -2.85827,-3.7012325 -6.62794,-6.6750287 -12.77668,-7.9373105 l -0.19255,0.3295063 c 0.77875,7.3382372 1.83135,14.7535142 7.41527,19.8325562 l -0.0813,0.88997 C 105.68711,78.69695 4.1110706,216.81029 4.1110706,378.69273 c 0,209.14683 169.5416094,378.68841 378.6841294,378.68841 209.14253,0 378.697,-169.54158 378.697,-378.68841 C 761.4922,169.53737 591.93773,0 382.7952,0 Z M 190.32309,199.17709 c 0,0 -14.89466,3.39311 -18.95104,29.72957 0,0 -0.70603,13.29444 3.45729,10.35057 -3.50864,-15.96446 11.66852,-23.19575 15.15141,-24.82171 4.89935,-2.17793 8.94725,-1.44624 9.2552,2.71281 0.33385,4.48852 -4.79665,6.4739 -6.33261,11.09938 5.44693,-3.07224 17.62895,-10.26929 16.36231,-19.64001 -0.93279,-6.88896 -7.41961,-13.00777 -18.94256,-9.43061 z m 195.83529,16.16554 c -25.59619,-14.98457 -91.75606,-12.38304 -107.29264,-13.58539 -15.29265,-1.16388 -22.93472,18.27934 -22.93472,18.27934 -0.2011,4.11624 3.16634,-0.60333 3.16634,-0.60333 9.99118,-18.00551 18.77571,-14.71075 18.77571,-14.71075 31.65932,9.24661 37.29888,55.74939 38.61676,66.52784 1.30934,10.69718 4.0136,3.73115 4.0136,3.73115 3.0765,-26.76002 -16.43514,-59.37355 -20.53857,-63.56258 -4.09916,-4.16335 -0.184,-6.5167 12.89222,-2.85826 39.37844,11.05657 43.06681,74.11856 45.44158,81.76489 2.37051,7.6164 3.85098,0.29095 3.85098,0.29095 -5.32719,-57.98295 -27.36765,-72.27864 -33.24252,-80.25447 -2.43895,-3.30755 17.46633,-3.80818 26.23373,1.89557 49.48087,31.96739 43.92687,93.18947 48.38118,84.45203 4.51422,-8.92145 -12.45151,-64.32853 -36.28909,-83.18551 -4.77092,-3.76112 16.54213,2.81552 24.39813,10.05107 37.22616,34.40641 41.80453,71.68391 44.6671,82.45382 2.81122,10.69715 4.18473,7.07297 4.18473,7.07297 0.51776,-36.43458 -28.35176,-82.58648 -54.32452,-97.75934 z m 71.7438,-25.36939 c 5.48977,-2.9781 11.96371,-22.29294 25.26243,-14.27006 9.88419,5.96048 14.59094,7.47091 14.59094,7.47091 0,0 -6.90181,1.93832 -10.04248,7.11577 -3.14071,5.17745 -6.90609,9.16105 -17.88998,7.53938 -11.53153,-1.72011 -13.64101,0.0898 -19.4517,1.03547 0,0 2.03672,-5.90054 7.53079,-8.89147 z m -21.21891,15.48949 c 8.46787,1.83992 16.27682,5.13035 24.10714,10.20939 8.67325,5.63528 18.06111,15.98584 30.99611,14.93753 4.12485,-0.32946 11.62142,-4.32165 14.63803,-6.28995 3.77397,-2.46033 12.72536,-8.3224 10.33346,-17.28236 -1.06113,-3.97934 -5.7936,-4.61259 -8.61336,-7.86025 -3.90662,-4.51849 -3.75682,-8.9557 -6.88472,-14.14169 6.81625,1.36926 10.72287,5.40851 18.07395,6.28993 -11.58287,-10.38906 -24.92868,-19.16076 -41.32529,-25.15116 1.23232,-0.69747 2.01535,-3.55574 6.02892,-4.71103 3.61563,-1.04406 15.27556,0.73593 7.74901,-0.79161 -7.55647,-2.11376 -12.24611,0.0385 -17.21388,3.14925 -11.41599,7.13286 -20.714,23.51237 -32.72476,30.63669 -5.21166,3.11074 -10.30779,2.39618 -14.64231,7.86884 2.80696,5.60535 5.65239,2.30633 9.4777,3.13642 z m 89.54816,-10.21793 c -2.84972,1.65592 1.79284,3.15781 2.58015,3.93229 3.28189,3.23053 10.6116,9.15675 12.91364,14.14164 4.70675,10.19656 3.2605,25.80158 -5.16887,31.44115 -5.67807,3.79104 -33.46932,14.15448 -45.62558,14.14164 -34.20102,-0.0471 -37.67116,-37.59412 -58.55206,-50.29382 0.37226,3.59425 2.99523,11.12079 5.98187,15.02312 11.74124,15.33117 22.96043,46.92205 55.97189,41.64621 11.66417,-1.86557 33.48641,-9.92271 42.24097,-15.39535 9.50768,-5.92626 16.56782,-28.68126 6.88043,-41.27398 -4.33878,-5.63956 -14.72358,-12.78527 -17.22244,-13.3629"
     inkscape:connector-curvature="0" />
  <g
     id="layer1"
     transform="matrix(1.5312066,0,0,1.5312066,-525.92299,780.22778)">
    <path
       inkscape:connector-curvature="0"
       d="m 418.98086,17.088207 v 33.106745 h 33.90311 V 17.088207 Z m 0.12492,182.786303 h 33.65673 V 66.023107 H 419.10578 Z M 843.46965,66.023107 794.40116,199.87451 H 768.19613 L 718.87087,66.023107 h 35.19565 L 781.29691,148.75007 808.274,66.023107 Z M 707.80347,199.87451 h -32.62788 v -12.33219 c -8.7356,9.24914 -19.87065,13.87285 -33.3965,13.87285 -13.19272,0 -23.72574,-3.93666 -31.60251,-11.81691 -9.07912,-9.07563 -13.61434,-21.74961 -13.61434,-38.02192 V 66.023107 h 33.655 v 80.927803 c 0,8.39553 2.36824,14.73512 7.10819,19.01182 3.89501,3.59834 8.80497,5.39577 14.72817,5.39577 6.09323,0 11.08995,-1.79743 14.98496,-5.39577 4.73647,-4.2767 7.10818,-10.61629 7.10818,-19.01182 V 66.023107 h 33.65673 z M 548.36991,132.82129 c 0,-11.81689 -0.93168,-20.2957 -2.79331,-25.43296 -3.3884,-8.563831 -9.90669,-12.845735 -19.55661,-12.845735 -9.65512,0 -16.17341,4.281904 -19.55835,12.845735 -1.86161,5.13726 -2.79329,13.61607 -2.79329,25.43296 0,11.81864 0.93168,20.29745 2.79329,25.43296 3.38494,8.73732 9.90323,13.10425 19.55835,13.10425 9.64992,0 16.16821,-4.36693 19.55661,-13.10425 1.86163,-5.13551 2.79331,-13.61432 2.79331,-25.43296 z m 33.65673,0 c 0,13.70282 -0.60203,23.98079 -1.79916,30.83046 -1.88592,11.13332 -5.82605,19.69715 -11.81691,25.68801 -8.05546,8.05721 -18.92681,12.07541 -32.62962,12.07541 -13.70281,0 -24.8344,-4.70872 -33.39649,-14.12962 v 12.58896 H 470.01335 V 16.954614 h 33.655 v 60.888862 c 8.02078,-8.90388 18.77934,-13.359289 32.26528,-13.359289 13.65596,0 24.49607,4.025136 32.51858,12.075405 5.97525,5.994334 9.89976,14.558167 11.77873,25.689738 1.19713,6.85142 1.7957,17.04438 1.7957,30.57196 z m -180.49786,67.05322 h -19.01009 c -12.84574,0 -22.7802,-4.02167 -29.80163,-12.07368 -6.1661,-7.02143 -9.24741,-15.75528 -9.24741,-26.20502 V 16.954614 h 33.655 V 159.54161 c 0,8.052 3.89675,12.07366 11.69199,12.07366 h 12.71214 v 28.25924"
       style="fill:#403c3d;fill-opacity:1;fill-rule:nonzero;stroke:none;stroke-width:1.38798"
       id="path74" />
  </g>
</svg>
