<?xml version="1.0" encoding="UTF-8" standalone="no"?>
<svg
   xmlns:dc="http://purl.org/dc/elements/1.1/"
   xmlns:cc="http://creativecommons.org/ns#"
   xmlns:rdf="http://www.w3.org/1999/02/22-rdf-syntax-ns#"
   xmlns:svg="http://www.w3.org/2000/svg"
   xmlns="http://www.w3.org/2000/svg"
   xmlns:sodipodi="http://sodipodi.sourceforge.net/DTD/sodipodi-0.dtd"
   xmlns:inkscape="http://www.inkscape.org/namespaces/inkscape"
   inkscape:export-ydpi="96"
   inkscape:export-xdpi="96"
   inkscape:export-filename="/Users/brian/Documents/GitHub/openjs/artwork/projects/libuv/libuv-logo-horizontal-grayscale.png"
   version="1.1"
   id="svg3069"
   height="349.18964pt"
   width="975.99823pt"
   sodipodi:docname="libuv-logo-horizontal-grayscale.svg"
   inkscape:version="1.0beta1 (32d4812, 2019-09-19)">
  <sodipodi:namedview
     pagecolor="#ffffff"
     bordercolor="#666666"
     inkscape:document-rotation="0"
     borderopacity="1"
     objecttolerance="10"
     gridtolerance="10"
     guidetolerance="10"
     inkscape:pageopacity="0"
     inkscape:pageshadow="2"
     inkscape:window-width="640"
     inkscape:window-height="480"
     id="namedview909"
     showgrid="false"
     inkscape:zoom="1.2494992"
     inkscape:cx="301.69091"
     inkscape:cy="196.23556"
     inkscape:current-layer="svg3069" />
  <defs
     id="defs3071">
    <clipPath
       id="clipPath70"
       clipPathUnits="userSpaceOnUse">
      <path
         style="stroke-width:1.06667"
         id="path72"
         d="M 0,6349.664 V 0 h 8980.16 v 6349.664 z"
         inkscape:connector-curvature="0" />
    </clipPath>
    <clipPath
       id="clipPath70-6"
       clipPathUnits="userSpaceOnUse">
      <path
         style="stroke-width:1.06667"
         id="path72-5"
         d="M 0,6349.664 V 0 h 8980.16 v 6349.664 z"
         inkscape:connector-curvature="0" />
    </clipPath>
    <clipPath
       clipPathUnits="userSpaceOnUse"
       id="clipPath70-3">
      <path
         d="M 0,6349.664 V 0 h 8980.16 v 6349.664 z"
         id="path72-9"
         style="stroke-width:1.06667"
         inkscape:connector-curvature="0" />
    </clipPath>
    <clipPath
       clipPathUnits="userSpaceOnUse"
       id="clipPath70-6-0">
      <path
         d="M 0,6349.664 V 0 h 8980.16 v 6349.664 z"
         id="path72-5-5"
         style="stroke-width:1.06667"
         inkscape:connector-curvature="0" />
    </clipPath>
    <clipPath
       id="clipPath70-8"
       clipPathUnits="userSpaceOnUse">
      <path
         inkscape:connector-curvature="0"
         style="stroke-width:1.06667"
         id="path72-3"
         d="M 0,6349.664 V 0 h 8980.16 v 6349.664 z" />
    </clipPath>
    <clipPath
       id="clipPath70-6-8"
       clipPathUnits="userSpaceOnUse">
      <path
         inkscape:connector-curvature="0"
         style="stroke-width:1.06667"
         id="path72-5-1"
         d="M 0,6349.664 V 0 h 8980.16 v 6349.664 z" />
    </clipPath>
  </defs>
  <metadata
     id="metadata3075">
    <rdf:RDF>
      <cc:Work
         rdf:about="">
        <dc:format>image/svg+xml</dc:format>
        <dc:type
           rdf:resource="http://purl.org/dc/dcmitype/StillImage" />
        <dc:title />
      </cc:Work>
    </rdf:RDF>
  </metadata>
  <path
     inkscape:connector-curvature="0"
     d="m 398.34642,372.67676 c -11.11852,2.26473 -22.95776,9.8086 -32.12193,11.50781 -20.25637,3.74826 -32.19556,0.13941 -21.50577,-4.27959 15.52698,-6.43123 66.74527,-8.03572 72.09805,-46.04439 5.3554,-38.00864 1.60452,-55.14804 -1.07055,-64.78304 -1.28098,-4.62152 -4.15859,-11.43941 -6.81262,-17.29722 -0.74965,-4.13756 -1.7334,-7.64645 -2.59353,-10.14528 -0.47874,-1.12842 -0.9601,-2.58037 -1.43617,-4.41374 0,0 -0.66813,-4.68466 1.47299,-9.23255 1.89385,-4.03498 8.40398,-12.78878 8.84325,-21.25065 0.007,-0.51292 0.029,-1.02584 0.0209,-1.53875 -0.0263,-0.57341 -0.0737,-1.13896 -0.16571,-1.70448 l -0.0473,-0.49978 c -0.83383,-4.74777 -3.55886,-8.05414 -7.25978,-10.51615 -2.3831,-1.58346 -5.62897,-2.08324 -7.40971,-4.34272 1.42039,-4.47424 5.95248,-6.0656 7.84372,-9.71916 1.17839,-3.24587 0.21568,-6.65481 -1.5756,-9.75336 -3.45364,-3.87188 -10.23733,-7.23086 -16.32662,-9.50874 -7.62014,-2.85921 -15.3718,-5.11605 -20.60883,-9.22202 -5.53164,-2.94337 -9.25097,-8.63547 -5.85517,-16.16355 0.88116,-1.95698 1.27571,-3.92711 1.24943,-5.79729 l -0.0237,-0.54977 c -0.007,-0.38138 -0.0605,-0.72598 -0.10785,-1.07844 -0.0395,-0.27355 -0.0842,-0.54184 -0.14465,-0.81013 l -0.12365,-0.46558 -0.14729,-0.53134 c -1.39408,-4.69783 -8.79591,-6.01825 -11.43416,-6.25498 -5.97618,-0.53659 -9.83752,-2.15689 -13.00974,-3.15906 2.55144,1.32569 5.11867,3.09855 8.39083,4.41636 2.0701,0.84434 5.04239,1.34675 7.54386,2.18057 l 0.0237,-0.006 c 0,0 4.61628,0.9364 5.88674,4.1507 1.27311,3.20903 0.53398,6.02351 0,7.82531 l -0.19464,0.52345 c -0.46032,1.40722 -0.97849,2.76448 -1.08633,4.16648 -0.434,5.53426 2.96177,8.41713 4.76621,13.04654 3.24848,3.08542 7.87265,6.2813 14.28808,9.17471 5.76574,2.60405 12.66517,4.17963 16.93949,6.76 2.47519,1.49406 6.9836,5.10553 6.88101,7.73325 -0.0789,2.01223 -3.7956,4.75832 -5.29226,6.76001 -1.07055,1.42566 -1.60189,3.31952 -2.55935,4.66626 -0.83382,1.31517 -1.90437,2.16215 -3.13537,2.16215 -1.60453,0 -5.26334,0.62076 -2.85656,0.79964 2.40939,0.17886 8.6565,3.12223 8.6565,3.12223 l -0.006,0.007 c 8.44345,3.4931 14.11713,9.96377 11.01332,19.19108 -2.5988,7.7306 -8.57758,14.19603 -8.99581,22.69996 -0.44718,9.04845 3.70091,16.49761 4.23222,23.67321 0.89698,12.07334 -0.83645,20.3879 -3.1722,29.46264 -1.09687,4.24539 -1.68081,8.42766 -2.64612,12.55729 -4.12442,17.5892 -14.75369,25.20936 -29.1128,33.33451 -6.22605,3.52206 -12.90715,10.01378 -19.583,12.07334 -1.07582,0.33143 -2.73294,-0.1736 -3.71143,0 -6.14978,1.11001 -11.68404,4.15859 -17.99428,5.31069 -5.94197,1.09686 -12.17064,0.57079 -19.22264,2.35679 -3.57726,1.27575 -8.16198,3.18539 -10.83969,4.3217 -4.14017,1.88596 -8.19618,3.8482 -12.2443,5.82622 l -13.44377,7.68065 c 0,0 -7.49124,4.33744 0.8049,1.12578 6.67583,-2.58563 29.62307,-14.00665 20.01174,-7.29923 -6.6285,3.33003 -10.22418,8.05941 -16.08725,12.09439 0,0 -19.72503,9.78228 -22.68418,12.51259 -3.25376,3.00386 -7.23086,1.34149 -9.84017,4.28749 -3.06436,3.45365 -6.82315,5.52636 -9.50348,6.4207 -2.67507,0.89957 -5.70788,6.78105 -9.81385,9.81385 -4.10599,3.03544 -13.02554,2.14375 -20.87977,5.53427 -7.85161,3.39052 -15.98994,3.43525 -15.98994,3.43525 -0.77857,0.0737 -1.5335,0.12098 -2.25685,0.13941 -0.31039,0.007 -0.59707,0.006 -0.89432,0.006 -4.59261,0.0236 -8.10414,-0.87328 -10.79498,-1.8623 -3.28005,-1.2047 -4.48474,-0.59972 -3.74826,-0.19989 0.7365,0.39717 2.87234,2.39624 2.87234,2.39624 -9.16153,-0.0106 -11.66036,-6.09715 -15.87944,-10.61873 1.91753,-0.27358 7.38604,1.06265 4.60838,-0.54712 -5.48429,-2.62248 -16.04782,-2.81186 -16.2556,-9.11944 -0.15782,-4.9477 2.12006,-3.86401 2.12006,-3.86401 3.84296,6.69163 15.70059,7.34659 24.3492,7.25189 16.10831,-0.19464 27.00851,-9.02739 37.56676,-14.02504 3.42209,-2.05695 7.42023,-4.76096 7.42023,-4.76096 l -0.021,0.079 c 3.33267,-2.17005 6.70216,-4.27433 9.55084,-6.8968 4.97137,-4.56894 8.33032,-10.53194 12.70723,-15.59011 0.50767,-0.86013 1.5756,-1.90964 2.84342,-2.96705 1.23364,-1.15737 2.55935,-2.23581 4.03497,-3.1801 l 0.0552,0.11837 0.57341,-0.38405 -0.10258,-0.21567 c 10.62402,-6.02353 20.52467,-12.69148 28.87868,-20.78508 l 0.0552,-0.0947 c 1.19945,-1.08635 7.48601,-8.10413 10.52143,-11.51046 3.57991,-4.77409 6.16029,-10.80548 7.65698,-16.8816 0.5392,-2.199 0.19728,-4.8688 1.05476,-7.24928 1.33359,-3.69039 4.68466,-6.97307 6.88365,-10.62399 2.27525,-3.79561 3.77982,-7.92791 5.29227,-12.07334 6.62061,-18.19419 14.27759,-32.68219 28.58145,-42.50657 6.89155,-4.73726 15.26132,-7.79374 20.1117,-14.97986 -3.52203,3.57465 -8.10674,6.18131 -13.64366,7.91474 -15.7269,5.18179 -25.95634,18.45192 -31.0987,26.88223 -3.94815,7.09671 -6.99938,15.00356 -9.24306,23.65479 -0.7444,-10.66345 -3.37737,-18.97802 -6.88365,-27.05059 -3.11696,-7.17823 -5.87359,-14.76944 -11.64458,-19.32259 0,0 -0.22095,0.0158 -1.11792,-0.52345 -0.89169,-0.53131 14.87994,-0.9285 14.87994,-0.9285 2.75924,0.0999 5.56846,0.49713 8.4145,0.86538 0.53398,-0.0578 1.1863,-0.0263 1.98855,0.1131 8.66967,1.53088 17.67863,-1.69657 23.29182,-5.78151 2.91442,-2.12008 7.98048,-3.81927 12.18381,-4.96876 0.0683,-0.18149 0.47872,-0.38666 1.52823,-0.58654 0,0 6.42333,-2.00698 13.24911,-3.88242 4.62416,-1.2652 7.99101,-2.23581 10.3294,-3.39053 1.35463,-0.86275 2.64351,-1.89912 3.64303,-3.13277 2.00173,-2.46989 2.04118,-5.4343 3.70881,-9.66127 1.65977,-4.21647 4.19805,-7.4939 4.23489,-11.11063 0.11837,-11.85766 -11.11327,-21.30064 -23.28918,-14.97988 11.98917,-3.09067 20.49046,2.75923 19.05429,14.01453 -1.77285,13.9067 -22.72363,24.21244 -35.46507,29.46261 -5.05029,2.08063 -10.96334,4.70836 -16.93424,5.31069 -8.6118,0.87329 -16.41606,-0.96532 -23.82052,-0.48396 -9.49557,0.626 -15.81106,5.64736 -23.81786,6.2839 -6.88101,0.54448 -5.94725,-4.10598 -11.91815,-4.63468 -1.23626,-0.70494 -4.99241,0 -8.72752,-0.19466 -10.32416,2.72769 -16.9658,-1.99116 -25.40399,-5.79729 -6.08663,-2.74874 -12.57837,-5.2502 -19.05429,-5.7973 -16.25824,-1.37833 -26.14312,0.88116 -39.43167,-0.5287 -3.74826,-0.3972 -11.52361,-0.87066 -15.21663,-2.25423 -11.49728,-4.30063 -20.29844,-2.74082 -32.78739,-2.91969 -9.08522,-0.13151 -17.51553,-0.60762 -23.18656,0.38666 -1.546648,0.27882 -3.11436,0.67601 -4.766204,0.96534 -12.17067,2.12795 -30.712045,3.23009 -30.16756,14.00929 0.904829,-0.61814 0.652314,-2.29894 2.114804,-2.41467 -0.05261,1.98066 -0.102587,3.95868 0.528701,5.31594 -7.078288,-0.18413 -11.25266,-5.07132 -11.113263,-10.62927 0.236732,-9.45086 15.442824,-13.40167 25.932695,-15.94259 10.516153,-2.53565 21.437387,-5.50797 29.115397,-6.76001 -18.388817,2.70138 -37.840305,4.44003 -51.875886,11.11327 -0.197269,-0.72598 -0.323526,-1.42568 -0.407695,-2.09903 -1.110023,-5.10291 -3.53258,-12.92822 -5.237053,-20.53521 -1.962241,-8.7433 1.067933,-24.09143 1.067933,-24.09143 l 0.07626,0.0895 c 1.265212,-7.80166 2.87763,-11.27898 4.440054,-15.94261 3.327396,-9.94799 14.077669,-13.07024 21.603107,-14.01453 -6.344413,4.48212 -10.400423,10.04008 -12.965021,17.48135 -0.315639,2.64087 -0.562903,5.11867 -0.747014,7.30449 5.694715,-17.73122 21.587323,-24.36761 21.587323,-24.36761 l 5.087101,-5.48694 -0.06574,0.2499 c 8.774871,-8.48553 20.364211,-15.06143 35.096841,-15.47438 7.42286,-0.20781 16.39238,1.74654 16.36871,9.02738 -0.0106,4.1165 -3.23009,7.60961 -7.62016,9.5403 1.29152,0.25513 2.47255,0.0763 3.54309,-0.36563 l 4.56104,-5.10551 c 1.50983,-3.72984 1.37569,-8.44344 -1.16788,-11.28424 6.71269,-5.739437 17.16571,0.69706 16.40292,8.31194 1.96487,-1.65713 3.16431,-4.78726 1.81231,-7.27031 9.03263,-5.30805 14.08819,7.55964 23.17607,4.55315 -0.85488,-2.57513 -5.23179,-2.05432 -6.56274,-4.20069 11.88132,-1.6992 22.30017,2.47779 34.21567,1.53086 0.74702,0.64971 1.55455,1.29677 2.41729,1.93596 -22.28699,2.46726 -4.18227,2.45411 -4.18227,2.45411 2.85395,-0.2604 9.71129,-0.73912 12.37848,-0.26565 4.36111,0.7891 7.17823,-0.27357 11.03432,-1.78077 0.0921,0.16835 0.47874,0.15257 0.71284,-0.28408 1.99907,-0.7891 4.30062,-1.65974 7.22558,-2.44884 1.1337,-0.16046 2.27263,-0.45243 3.37738,-0.81279 l 0.4761,-0.0973 0.0683,-0.0763 c 1.52562,-0.53135 2.96443,-1.16788 4.19805,-1.765 11.22899,-5.39748 20.54308,-18.10736 30.13338,-24.775308 15.89261,-11.04486 30.94087,2.598799 42.00415,11.452573 l -0.0711,0.102587 c 2.77502,1.893859 6.43384,4.229621 10.41883,6.667961 10.41096,4.532077 24.14406,8.490777 31.47747,15.740037 5.86834,5.7973 7.86479,13.26225 10.38729,21.01128 2.35679,7.2256 6.92836,13.61737 9.50084,21.72675 0.4945,-0.41559 0.78647,-1.04162 0.95482,-1.78864 -0.071,-0.69179 -0.18413,-1.42302 0.021,-1.87545 l 0.13942,0.12625 c -0.029,-1.41512 -0.34195,-3.07488 -0.82595,-4.82144 -2.18054,-4.44003 -5.99194,-9.49821 -5.52374,-13.45428 0,0 13.52529,6.98888 28.8708,13.93038 5.28438,2.39099 10.12161,6.33389 14.34333,10.83969 l 1.23364,-0.0263 c -0.14467,0.31565 -0.13154,0.77069 -0.0868,1.25204 7.45967,8.35929 12.74669,18.31518 14.5853,24.0704 0.37878,1.18102 0.80754,2.37782 1.27047,3.56938 l 0.003,0.013 c 0.57869,1.50192 1.20208,2.98545 1.84652,4.41372 l 0.013,-0.0209 c 0.27094,0.48662 0.44191,0.96271 0.62339,1.44408 2.21479,4.79251 4.39008,8.68281 4.99506,9.7481 1.94909,2.42256 3.52205,5.53426 5.20285,8.16726 0.58394,6.54694 0.89694,13.17544 0.89694,19.87496 0,52.46508 -18.24414,100.66111 -48.71418,138.61976 -1.76235,0.20517 -4.16387,0.6129 -7.33869,1.26258 z m -13.91985,21.70833 c -10.65822,3.47996 -21.52422,10.02429 -28.46308,10.68189 -20.88504,1.97276 -24.62802,-7.30977 -7.94106,-8.84064 6.29707,-0.57868 15.5954,-1.2915 23.02089,-4.81091 10.95281,-5.20285 22.17127,-10.25314 29.65989,-14.0014 -5.1213,5.94462 -10.56089,11.60251 -16.27664,16.97106 z m -227.66521,1.01269 c -1.77024,0.59447 -1.77024,-0.28144 -1.77024,-0.28144 0,0 -3.20903,-4.5821 -3.70616,-8.84852 -0.50242,-4.22698 0.58654,-7.99102 1.64659,-8.54867 1.07054,-0.57867 1.30202,1.88335 2.17268,4.96612 0.87591,3.11433 5.20283,9.50348 5.20283,9.50348 0.6155,1.31517 -1.74918,2.6172 -3.5457,3.20903 z m 11.16058,1.95435 c -2.03326,0.67601 -2.03062,-0.33143 -2.03062,-0.33143 0,0 -3.66674,-5.20283 -4.22436,-10.05847 -0.5629,-4.80303 0.69967,-9.07998 1.92017,-9.71916 1.22837,-0.66024 1.49141,2.14637 2.4778,5.66051 0.98899,3.53258 5.94458,10.80815 5.94458,10.80815 0.70231,1.49403 -2.028,2.95915 -4.08757,3.6404 z m 3.77193,-13.5253 c -0.69966,-6.08137 0.92853,-11.51568 2.49096,-12.33899 1.57294,-0.83909 1.89648,2.72242 3.1459,7.17299 1.25204,4.48212 7.56754,13.69888 7.56754,13.69888 0.89433,1.88861 -2.60931,3.75879 -5.24492,4.61628 -2.60933,0.85224 -2.60145,-0.40508 -2.60145,-0.40508 0,0 -4.66098,-6.59693 -5.35803,-12.74408 z m 90.56318,-69.59658 c 1.09422,-0.97849 2.24631,1.07844 4.37954,3.41157 2.15163,2.36205 9.71127,6.07874 9.71127,6.07874 1.21787,0.89959 -1.20733,3.14854 -3.17746,4.50581 -1.96488,1.35726 -2.27791,0.56026 -2.27791,0.56026 0,0 -5.56581,-2.62773 -7.67273,-6.22077 -2.09641,-3.54048 -2.0622,-7.34134 -0.96271,-8.33561 z m -17.92589,9.55345 c 1.34412,-1.25993 2.78029,1.40724 5.46325,4.43477 2.71189,3.09858 12.23641,8.02786 12.23641,8.02786 1.55193,1.16788 -1.48088,4.09022 -3.935,5.84203 -2.46201,1.75181 -2.87235,0.71545 -2.87235,0.71545 0,0 -6.95992,-3.52467 -9.61396,-8.19883 -2.62773,-4.61101 -2.63034,-9.56661 -1.27835,-10.82128 z m -15.99256,21.50055 c -2.36732,-4.95298 -2.16215,-10.0848 -0.79436,-11.32633 1.38093,-1.24415 2.68296,1.61503 5.17916,4.95034 2.53303,3.38788 11.66563,9.05106 11.66563,9.05106 1.46249,1.31517 -1.6282,4.17173 -4.1165,5.85516 -2.47517,1.67028 -2.84078,0.58131 -2.84078,0.58131 0,0 -6.67585,-4.07968 -9.09315,-9.11154 z m -14.64057,12.2364 c -1.98066,-5.22653 -1.44932,-10.47145 -0.0552,-11.63408 1.42039,-1.16524 2.48307,1.8623 4.66626,5.43434 2.21739,3.64568 10.65558,10.10846 10.65558,10.10846 1.33884,1.44931 -1.82022,4.14807 -4.34537,5.67368 -2.49357,1.50455 -2.75134,0.34721 -2.75134,0.34721 0,0 -6.16817,-4.64523 -8.16989,-9.92961 z m -19.73029,32.08508 c -2.62511,0.79437 -2.60143,-0.42347 -2.60143,-0.42347 0,0 -4.45057,-6.41283 -4.97138,-12.34691 -0.51553,-5.88935 1.27574,-11.13692 2.85657,-11.91813 1.59664,-0.79439 1.82547,2.64351 2.93022,6.95204 1.13106,4.35586 7.1572,13.30694 7.1572,13.30694 0.83645,1.83073 -2.70927,3.6115 -5.37118,4.42953 z m 5.33962,-20.55098 c -1.28361,-5.90252 -0.0342,-11.43152 1.54665,-12.45472 1.59399,-1.039 2.26473,2.41203 3.9771,6.61272 1.72814,4.21908 9.31409,12.51259 9.31409,12.51259 1.13368,1.75446 -2.42783,4.07705 -5.17128,5.29755 -2.70139,1.1968 -2.81975,-0.0736 -2.81975,-0.0736 0,0 -5.55004,-5.92355 -6.84681,-11.89448 z m 71.54042,-138.8065 c 0,0 1.54402,0.2604 0.84699,2.44359 -0.69441,2.17793 -0.82857,8.92744 1.2836,11.8366 2.1227,2.91705 -1.45459,1.80969 -4.24803,-1.13631 -2.79605,-2.93284 -4.7741,-8.33822 -4.17174,-12.01021 0,0 -0.16046,-1.54401 6.28918,-1.13367 z m -9.86908,17.87588 c 3.38788,3.77982 -1.79917,2.76977 -6.13925,-0.95482 -4.33484,-3.71141 -7.88846,-10.95806 -7.56228,-16.1872 0,0 -0.44455,-2.14375 8.66439,-2.50936 0,0 2.21474,0.1394 1.52823,3.29583 -0.64969,3.15117 0.11836,12.60729 3.50891,16.35555 z m -23.11822,19.70927 c 19.74609,1.29414 33.90267,-5.55269 43.92958,-12.55469 2.64089,-1.84125 6.13136,-6.32602 10.59246,-3.38001 -1.90176,3.94028 -6.94151,6.53644 -11.11588,8.6907 -7.31503,3.77983 -13.80149,7.08618 -22.23178,9.17993 14.20918,-2.17266 24.30449,-8.09096 34.93376,-13.52529 1.30202,2.73031 2.76451,8.20935 3.72458,12.84666 l 0.13679,-0.013 c 0,0 0.96532,2.5988 0.67863,5.1371 0.0395,1.20996 -0.20517,2.25159 -1.07057,2.825 -0.29197,0.37352 -0.6418,0.71808 -1.08108,1.0048 -3.87976,2.54354 -15.39284,8.16462 -24.62803,8.83272 -0.3051,0.0185 -0.59707,0.0579 -0.89957,0.0868 l -0.68125,0.19203 -0.0185,-0.12626 c -8.37507,0.9706 -13.79359,4.42163 -3.08277,2.66192 10.71607,-1.76759 33.66855,-5.67367 25.30665,-2.53041 l 0.029,-0.006 c -10.43988,4.07968 -24.13878,8.07256 -37.58516,6.76264 -8.68806,-0.8417 -17.67599,-5.10288 -25.40399,-9.17731 -7.71746,-4.0639 -15.04038,-9.40879 -23.28916,-11.10537 -6.27867,-1.29939 -11.46572,0.51031 -16.93687,1.4467 -3.64304,0.61551 -8.71963,2.09114 -10.92649,-0.18413 -0.93114,-1.10211 -0.18938,-2.23317 -0.18938,-2.23317 2.08849,-5.16076 8.17251,-8.20407 13.23068,-9.65867 15.87683,-4.56893 31.25652,3.82717 46.57834,4.82672 z m 4.47424,-17.29721 c 3.31952,4.81616 -2.4436,2.88812 -6.84945,-2.03065 -4.40847,-4.91613 -7.3834,-13.76992 -6.25234,-19.73557 0,0 -0.19202,-2.50671 10.24786,-1.54928 0,0 2.5041,0.49713 1.28888,3.99552 -1.24417,3.52995 -1.74657,14.49325 1.56505,19.31998 z m -21.02181,-2.2937 c 3.27218,5.47641 -2.84604,3.0749 -7.29923,-2.57248 -4.45582,-5.62106 -7.12564,-15.54541 -5.50534,-22.04237 0,0 -0.0368,-2.79344 11.23952,-1.23101 0,0 2.66719,0.67336 1.11264,4.49527 -1.55981,3.80875 -2.81975,15.86894 0.45241,21.35059 z M 199.5809,245.2176 c 3.34582,5.54479 -2.85392,3.17747 -7.38076,-2.51988 -4.53211,-5.67894 -7.28345,-15.75583 -5.67631,-22.41328 0,0 -0.0605,-2.82501 11.34471,-1.39144 0,0 2.70403,0.65757 1.14949,4.56365 -1.5493,3.90346 -2.76451,16.22931 0.56287,21.76095 z m -19.91705,6.26023 c 4.106,7.17298 -3.08541,4.13492 -8.56706,-3.21955 -5.47641,-7.35709 -9.15101,-20.4326 -7.70168,-29.09699 0,0 -0.21042,-3.70091 12.84402,-1.92016 0,0 3.13539,0.81277 1.58349,5.93933 -1.55718,5.09238 -2.26738,21.1165 1.84123,28.29737 z m -21.14279,-5.33697 c 4.09283,6.26023 -3.10908,3.86923 -8.5697,-2.49358 -5.45537,-6.35759 -9.04844,-17.96796 -7.53597,-25.82486 0,0 -0.20516,-3.32213 12.9019,-2.31997 0,0 3.13275,0.60236 1.53348,5.25546 -1.5861,4.65311 -2.40677,19.10691 1.67029,25.38295 z m -22.39485,-7.29662 c 2.88813,5.3817 -2.72505,2.98809 -6.70216,-2.5725 -3.9771,-5.53164 -6.16556,-15.26921 -4.48476,-21.63467 0,0 0.0369,-2.73295 10.45041,-1.13106 0,0 2.47255,0.67863 0.91011,4.39533 -1.54665,3.73511 -3.05911,15.55593 -0.1736,20.9429 z m -17.07891,-4.6531 c 2.71189,4.29274 -2.2095,2.42781 -5.87621,-1.97541 -3.66145,-4.40847 -5.97618,-12.1838 -4.80829,-17.30511 0,0 -0.0947,-2.19108 8.90901,-1.03373 0,0 2.16215,0.51031 0.97586,3.5247 -1.13632,2.9986 -1.92543,12.49681 0.79963,16.78955 z m -17.9364,3.09855 c 3.31425,4.81619 -2.446222,2.88813 -6.852083,-2.0359 -4.405828,-4.91613 -7.380765,-13.76727 -6.249726,-19.73555 0,0 -0.194643,-2.50148 10.245247,-1.54927 0,0 2.504102,0.49713 1.288882,4.00077 -1.246784,3.52731 -1.743928,14.48537 1.56768,19.31995 z m -14.472216,-1.27572 c 3.387904,3.77458 -1.796529,2.77503 -6.134005,-0.94692 -4.340083,-3.71669 -7.893679,-10.96595 -7.567526,-16.19248 0,0 -0.441907,-2.14372 8.664391,-2.50936 0,0 2.214775,0.13941 1.533502,3.30111 -0.652314,3.15115 0.113119,12.60729 3.503638,16.34765 z M 285.30158,434.70319 c -10.03216,3.46682 -27.85808,12.16803 -42.17776,19.44884 -3.42209,0.15782 -6.86784,0.24726 -10.33465,0.24726 -122.39049,0 -221.602251,-99.2144 -221.602251,-221.60487 0,-94.81908 59.5644,-175.707787 143.307061,-207.348355 0.42348,0.39194 0.87066,0.770703 1.34412,1.138945 0.94955,0.739127 2.51987,1.131067 3.33265,2.104282 1.08107,1.299414 0.63128,3.937639 1.10213,5.565841 1.45985,5.026608 4.56365,9.640251 9.7323,13.412179 0.75493,0.557651 2.19636,0.82595 2.85395,1.565068 1.43879,1.633454 1.02057,4.379546 2.10692,6.26815 1.14421,1.985912 3.0933,4.384798 5.49744,6.231304 1.3178,1.015313 3.28793,1.557181 4.51894,2.767127 0.99691,0.975878 1.2731,2.732945 1.98594,4.195435 1.93067,3.948143 7.03094,8.524967 9.47978,12.657268 0.32354,0.544485 0.57605,1.123153 0.78911,1.712371 1.02059,2.101637 3.48785,6.554839 6.85208,8.614406 0,0 0.34985,6.183965 6.51803,13.233319 -12.4942,-0.67338 -24.54648,-7.738496 -33.81587,-0.72072 -2.67507,-2.9197 -11.25528,-5.208107 -14.92726,-1.11265 -2.71189,-4.71357 -17.0947,-7.722709 -19.89075,-0.27354 -20.44576,-9.172062 -45.121125,3.90608 -53.051655,17.03417 -1.473012,0.70231 -2.84867,1.44146 -4.148084,2.20161 -5.59738,-1.68341 -13.178083,-2.28052 -21.382159,3.63518 -8.085705,5.83411 -16.53968,32.00089 -15.085086,50.11617 0.157825,1.94121 3.837678,6.52327 5.160763,15.70323 1.315169,9.10629 2.317334,12.09701 2.317334,12.09701 -1.799165,3.138 -3.945536,4.53998 -4.237505,8.21196 -0.633924,7.9463 6.160292,12.26536 12.525768,16.33451 2.264733,1.05476 4.82933,1.81231 7.612242,1.91228 1.680794,2.66191 8.156725,11.66035 18.864901,11.66035 0.263047,0 0.533981,-0.0185 0.797,-0.0342 4.08758,3.4379 8.351391,4.36115 5.408029,0.12364 -0.241983,-0.34984 -0.449793,-0.74175 -0.644436,-1.14419 1.967493,1.16523 4.350588,2.3068 6.473288,2.51461 0.0421,0.003 1.04162,0.25515 1.87546,0.25515 0.29459,0 1.17313,0 1.48353,-0.67602 0.30775,-0.67863 -0.31829,-1.40723 -0.52345,-1.63871 -0.85749,-0.98902 -1.82284,-3.56151 -2.54882,-5.95775 0.78385,1.43617 1.63871,2.80396 2.59616,3.97974 5.09499,6.25497 12.22326,9.21149 8.24353,2.98807 -1.27835,-1.9938 -2.00695,-4.71097 -2.36204,-7.59646 1.97276,2.43307 5.37118,5.25807 10.89756,6.38913 4.56629,4.34272 10.24261,6.11821 6.84156,1.50194 -0.86802,-1.18105 -1.43618,-2.70138 -1.77549,-4.36376 2.75398,3.30108 7.40971,7.54386 13.12021,7.54386 l 0.41559,-0.0106 0.11574,-0.006 c 3.91659,2.64876 7.19666,3.09066 4.26644,-0.72862 -1.27047,-1.66237 -1.96224,-3.96657 -2.27263,-6.40229 2.58827,5.28176 7.58067,12.54419 16.17405,14.87994 0.0631,0.0236 1.54404,0.43401 2.76715,0.43401 0.95482,0 1.55454,-0.24463 1.84124,-0.76807 0.41561,-0.74966 -0.13151,-1.62292 -0.31037,-1.90964 -0.55502,-0.88905 -1.07057,-1.99644 -1.51773,-3.08805 3.85873,2.26212 6.71005,2.45413 3.7088,-1.23101 -1.5519,-1.8991 -2.38045,-4.58207 -2.71977,-7.35184 2.09638,5.6053 6.37071,13.47532 14.8089,18.63082 0.0631,0.029 1.58085,0.74701 3.26689,0.74701 0.81279,0 1.53612,-0.17096 2.16479,-0.48661 0.5366,-0.27618 0.88906,-0.72861 1.03374,-1.30992 0.43926,-1.75706 -1.2284,-4.25064 -1.37833,-4.4532 -0.69441,-1.36776 -1.96749,-4.25589 -2.59352,-6.78104 l 0.0631,0.05 c 6.09979,4.9214 14.01718,7.19928 9.1326,2.29368 -2.96442,-2.98546 -4.10863,-8.09887 -4.20857,-12.27589 1.78074,5.00032 6.11293,13.66208 15.08508,15.37444 0.0605,0.006 1.45195,0.27355 2.4778,0.27355 0.57079,0 1.25731,-0.0657 1.49668,-0.61287 0.10521,-0.23148 0.14729,-0.60497 -0.2604,-1.06265 -0.67074,-0.75229 -1.62556,-3.03017 -2.13059,-4.87143 0.42612,0.32617 0.83907,0.67074 1.28625,0.95482 4.35059,2.85392 9.48506,4.35062 10.1558,3.42472 1.39144,1.14157 3.56937,2.63826 6.52853,3.9429 0.27618,0.62867 0.54976,1.26785 0.77071,1.90438 0,0 1.38094,3.8377 1.91226,5.91306 -7.03884,-1.82285 -19.08586,-5.35279 -28.05276,-3.37477 -7.0809,1.55718 -25.54075,11.76297 -21.0744,18.93595 0.29722,0.47872 0.67863,0.81278 1.11527,1.08108 l 0.2762,0.10519 c 1.76232,0.93904 4.8714,1.49141 8.14094,1.46513 l 1.18891,-0.0342 c 1.89914,-0.10258 6.8784,-0.82067 8.56445,-1.36779 4.93717,-1.6045 9.34567,-0.63917 9.34567,-0.63917 l -0.0631,0.0447 c 3.50889,0.4077 7.2098,1.64134 11.03171,3.59305 4.10598,2.08852 9.69286,5.53953 11.11588,7.24139 2.56724,3.08541 -1.36515,10.31363 -2.83025,14.76418 -0.0711,0.26303 -0.16046,0.5366 -0.24463,0.81015 l -0.10522,0.36824 -0.013,-0.007 c -0.20781,0.6234 -0.46296,1.27836 -0.73651,1.94649 -0.24987,-0.31303 -0.47082,-0.61551 -0.63917,-0.89959 -1.40461,-2.36207 -2.15952,-4.42952 -2.88549,-3.47996 -0.72598,0.95218 -0.76018,4.72412 0.62075,8.28299 0.14204,0.36824 0.31565,0.71809 0.50239,1.06793 -1.59135,2.90917 -3.51942,5.95512 -5.55267,8.87745 -1.58347,-1.49931 -3.18536,-3.18538 -3.95868,-4.53211 -1.80706,-3.0933 -2.76977,-5.81047 -3.69302,-4.56367 -0.93115,1.24153 -0.95746,6.25235 0.81278,10.96069 0.57866,1.5335 1.45985,2.92233 2.38572,4.13756 -1.40461,1.77285 -2.77502,3.4063 -4.02445,4.79513 -0.56027,0.6155 -1.22311,1.31255 -1.92542,2.0359 -1.93067,-1.98856 -4.37427,-4.71887 -5.36065,-6.69425 -1.72025,-3.45104 -2.60669,-6.39176 -3.58518,-5.13972 -0.97586,1.26257 -1.16524,6.56273 0.46032,11.68667 0.67074,2.09902 1.82283,4.01656 2.9644,5.57373 -2.09377,1.99381 -4.3664,4.10073 -6.69951,6.22606 -1.41514,-1.87808 -2.81186,-3.94028 -3.45104,-5.5185 -1.53348,-3.73247 -2.2621,-6.89943 -3.29847,-5.68421 -1.02056,1.21787 -1.46774,6.72583 -0.092,12.21538 0.33931,1.35465 0.85749,2.65404 1.44669,3.85873 -2.31208,2.06746 -4.55052,4.04551 -6.60482,5.83678 -0.60236,-1.3073 -1.10474,-2.54882 -1.38357,-3.57205 -1.2047,-4.44528 -1.65713,-8.11462 -2.84342,-6.98884 -1.18628,1.0995 -2.19634,7.01779 -1.32832,13.30698 0.0815,0.60497 0.1999,1.20206 0.33404,1.80178 l -0.57866,0.49714 c -1.34412,1.15999 -2.80397,2.5567 -4.31117,4.09284 -0.37613,-1.18104 -0.6681,-2.28841 -0.82067,-3.20641 -0.76543,-4.63206 -0.88116,-8.33822 -2.09902,-7.45181 -1.20997,0.87066 -2.65929,6.58379 -2.36732,12.97556 0.0447,1.00481 0.16571,2.02011 0.33407,3.01175 -1.77288,1.99908 -3.52731,4.06128 -5.17918,6.07351 -0.95746,-2.4594 -1.82285,-5.00032 -2.15691,-6.83894 -0.8759,-4.84512 -1.06001,-8.74067 -2.29891,-7.78585 -1.1337,0.86538 -2.38049,6.05245 -2.24371,12.08911 -1.23625,0.90484 -2.83814,5.11342 -2.89077,9.88227 -0.0237,1.62292 0.26569,3.2853 0.66024,4.78723 -0.80227,1.13107 -2.20424,1.91489 -3.18537,3.29322 -5.06079,7.07829 -2.99597,15.51384 7.93841,17.38927 3.35109,10.32416 11.84713,15.33761 24.87793,15.45597 1.74917,0.0158 3.57727,-0.59445 5.29226,-0.48661 1.93596,0.1289 3.52995,0.91537 5.29491,0.9706 9.49821,0.28934 14.47748,-2.73294 21.6978,-4.83722 5.38434,-1.56244 10.9423,-2.06221 14.29336,-3.37738 5.13183,-2.01222 7.57017,-7.52808 11.64197,-10.14266 1.5177,-0.97322 4.3769,-1.4309 6.88363,-2.89602 2.1148,-1.24415 3.94553,-3.50364 5.82099,-4.34798 1.6387,-0.74176 4.36638,-0.59444 6.34967,-1.44932 3.32478,-1.44143 6.99674,-4.55315 11.11852,-6.7679 8.63019,-4.61627 15.65324,-8.03049 24.87528,-12.07072 4.40583,-1.93067 9.06684,-6.47068 11.64458,-6.76265 3.05648,-0.35246 6.61536,2.199 8.99846,1.9307 4.85562,5.77363 6.54694,13.84093 6.34441,24.21505 0.2867,0.029 0.0763,2.57249 0.0763,2.57249 0,0 1.69658,22.2686 -33.082,34.29458 z M 147.08691,3.9744674 c 3.63778,1.0126872 7.70429,3.0801507 3.82978,9.2614966 -2.38311,-2.546198 -3.19061,-5.9025156 -3.82978,-9.2614966 z m 6.93886,8.1435776 c 1.16262,-2.035897 0.006,-3.0722358 0.62078,-4.3058809 10.45303,1.346736 11.35524,8.6880619 6.83892,19.1016339 -6.96782,-2.354153 -8.82222,-7.01252 -10.14792,-11.741908 1.11789,-1.212582 1.98591,-1.814948 2.68822,-3.053845 z m 11.41312,2.070099 c 9.72969,4.28749 11.25792,15.043016 4.52947,29.073335 -2.29893,-1.509831 -4.09021,-3.319527 -5.38171,-5.318577 -1.0232,-1.586104 -2.45937,-4.182268 -2.15162,-6.315491 0.21568,-1.467742 1.3783,-3.43787 1.97277,-5.07921 1.70183,-4.716249 2.36469,-8.972145 1.03109,-12.360057 z m 46.6178,40.836278 c -0.16833,-0.512918 0.17624,-0.497135 0.59972,-0.875908 14.54324,2.951258 15.70061,17.142047 9.45614,27.837055 -2.96179,5.063455 -5.85781,7.727996 -10.40307,6.315491 -3.76141,-1.173128 -4.27432,-4.195407 -6.08663,-6.273402 7.40971,-10.794979 7.26504,-18.74654 6.43384,-27.003236 z M 195.2461,44.342561 c -0.0631,-1.317814 -0.3025,-2.782939 0.22884,-4.082325 1.25468,0.105222 3.451,0.423479 5.24756,1.375686 8.16725,4.313777 11.54725,19.74607 6.79946,28.818185 -2.03853,3.887654 -4.10072,5.776258 -7.91474,4.684654 -6.15503,-1.767598 -7.94106,-8.735412 -10.42147,-11.618294 6.71003,-7.154561 6.32337,-13.43585 6.06035,-19.177906 z m -19.66455,-19.372577 0.39981,-0.194661 c 16.00309,5.639497 25.18304,16.300331 10.6398,35.878073 -5.54481,-2.780294 -8.6644,-6.491734 -10.10846,-10.700288 -0.84962,-2.467291 -1.50458,-2.764512 -0.92853,-5.826244 1.23365,-6.612721 1.64923,-13.906706 -0.003,-19.15688 z m 62.10532,82.214406 c -0.59707,0.26566 -1.01794,0.46293 -1.01794,0.46293 -1.94382,0.99428 -3.9876,1.58611 -5.92881,1.92282 -12.03126,-2.58303 -15.66641,-16.295061 -15.66641,-16.295061 11.24214,-4.942452 17.59445,-19.172685 13.59368,-27.000633 0.11311,-0.291969 0.37352,-0.244619 0.63656,-0.184102 5.09499,2.246314 10.45567,6.018242 13.06233,10.103184 4.95297,7.746414 6.42072,19.398885 2.2963,28.760332 -1.83598,0.42348 -3.01439,0.84434 -4.49263,1.36515 -0.2499,0.0657 -0.51031,0.14204 -0.76807,0.23146 l -1.37304,0.50503 -0.13941,0.0552 -0.2157,0.071 z m 19.40678,-9.721792 c -0.8233,0.699665 -1.63345,1.38619 -2.3831,2.022749 -0.68916,1.320423 -2.80397,3.066993 -5.50533,4.211193 2.14374,-6.502241 2.4015,-13.412185 2.55143,-18.530868 4.42953,2.301579 7.38605,5.463254 9.09315,9.056334 -0.54712,0.473464 -1.10738,0.962712 -1.68343,1.459846 -0.75755,-1.412495 -1.80706,-2.690856 -3.18011,-3.774575 0.62079,1.804428 0.97588,3.656214 1.10739,5.555321 z M 232.78917,11.186901 c 108.55478,0 198.86806,78.0532 217.90132,181.094779 -2.07535,-1.46249 -4.36376,-2.76188 -6.95729,-3.84295 -5.42641,-24.21244 -17.09993,-39.50006 -41.08089,-48.24075 -8.03837,-2.92759 -15.65324,-6.31811 -23.58377,-9.77175 0.45768,-25.76962 -29.48893,-25.22775 -48.1513,-38.492638 -8.1173,-5.784155 -17.31829,-16.455521 -26.60344,-18.428284 -17.95742,-3.819279 -29.00493,8.695958 -39.61052,17.439257 -2.60144,-2.840783 -6.50224,-5.615798 -12.16014,-8.138326 0,0 -10.12162,-14.435379 -14.84309,-17.15254 -0.31303,-0.17886 -0.52082,-0.341954 -0.6576,-0.505031 -2.60931,-1.223113 -5.87621,-1.912283 -8.18568,-3.43787 -2.28052,-1.499299 -2.71189,-5.047671 -4.99504,-6.760032 -1.1179,-0.83907 -2.8513,-1.74918 -4.36638,-2.356788 -1.83072,-0.733876 -4.96612,-0.597087 -6.80738,-1.604531 -2.26999,-1.244149 -2.45148,-5.289628 -4.09546,-7.296593 -1.81231,-2.217391 -4.14281,-4.029704 -7.91211,-5.297552 -1.52823,-0.507637 -3.83769,-0.541839 -5.21863,-1.280967 -1.54137,-0.833837 -1.91753,-3.44314 -3.1117,-5.042392 -2.77504,-3.729857 -7.4597,-6.623243 -12.80459,-8.511847 -1.14946,-0.40506 -2.69611,-0.40506 -3.53781,-0.970598 -0.99166,-0.660211 -1.10739,-2.309447 -1.70711,-3.572015 18.63607,-5.089742 38.24012,-7.830582 58.48861,-7.830582 z M 452.84214,206.50663 c -2.2516,-3.85873 -4.33483,-7.57014 -5.09763,-10.83969 1.52823,1.01006 2.8697,2.13584 4.09808,3.33529 0.37877,2.48569 0.7023,4.98979 0.99955,7.5044 z M 232.78917,0 c -23.96782,0 -47.08338,3.6430352 -68.84433,10.37151 -0.24463,-0.4313931 -0.50503,-0.8522369 -0.8496,-1.1889395 -2.00958,-1.9569891 -4.39532,-3.4457569 -9.35355,-2.1752932 -1.75707,-2.2752732 -4.0744,-4.1033602 -7.85423,-4.8793248 l -0.11837,0.2025579 c 0.47873,4.5110462 1.12579,9.0694516 4.55841,12.1917006 l -0.05,0.547092 C 62.442029,48.377508 0,133.28015 0,232.79442 0,361.3636 104.22262,465.58618 232.78917,465.58618 361.3557,465.58618 465.58621,361.3636 465.58621,232.79442 465.58621,104.21999 361.3557,0 232.78917,0 Z M 114.47048,122.44047 c 0,0 -9.15628,2.08585 -11.64985,18.27571 0,0 -0.43401,8.17251 2.12533,6.36282 -2.1569,-9.81386 7.17298,-14.25916 9.3141,-15.25869 3.01175,-1.33884 5.50007,-0.88905 5.68946,1.66765 0.20517,2.75923 -2.94865,3.97971 -3.89294,6.82314 3.34846,-1.8886 10.83708,-6.31286 10.05848,-12.07334 -0.57341,-4.23486 -4.56104,-7.99628 -11.64458,-5.79729 z m 120.38614,9.93747 c -15.73479,-9.21149 -56.40536,-7.61225 -65.95619,-8.35137 -9.40087,-0.71548 -14.0987,11.23689 -14.0987,11.23689 -0.12362,2.53038 1.94645,-0.37089 1.94645,-0.37089 6.1419,-11.06856 11.54202,-9.04316 11.54202,-9.04316 19.46199,5.68418 22.92881,34.27091 23.73895,40.89677 0.8049,6.57589 2.46729,2.29366 2.46729,2.29366 1.89122,-16.45024 -10.1032,-36.49881 -12.62571,-39.07394 -2.51988,-2.55934 -0.11311,-4.00602 7.92526,-1.75706 24.20717,6.79682 26.47453,45.56303 27.93438,50.26347 1.45723,4.68204 2.36732,0.17885 2.36732,0.17885 -3.2748,-35.64395 -16.82377,-44.43197 -20.43523,-49.33496 -1.4993,-2.03325 10.7371,-2.34101 16.1267,1.16527 30.41746,19.65137 27.00324,57.28652 29.74144,51.91534 2.77504,-5.4843 -7.65434,-39.54479 -22.30805,-51.13677 -2.93284,-2.31208 10.16897,1.73079 14.9983,6.17871 22.88411,21.15071 25.69857,44.06637 27.45828,50.68697 1.72815,6.57588 2.57249,4.34798 2.57249,4.34798 0.31828,-22.39749 -17.42873,-50.76852 -33.395,-60.09576 z m 44.10318,-15.59537 c 3.37474,-1.83073 7.35448,-13.70418 15.52962,-8.77226 6.07613,3.6641 8.96951,4.59261 8.96951,4.59261 0,0 -4.24275,1.19155 -6.17343,4.37428 -1.93069,3.18275 -4.24539,5.63159 -10.99754,4.6347 -7.08879,-1.0574 -8.38556,0.0552 -11.95757,0.63654 0,0 1.25203,-3.62725 4.62941,-5.46587 z m -13.04393,9.52188 c 5.20546,1.13106 10.00587,3.15379 14.81942,6.27604 5.33173,3.46418 11.10274,9.827 19.05429,9.18257 2.53568,-0.20253 7.14406,-2.65666 8.99846,-3.86663 2.31998,-1.51245 7.82269,-5.11605 6.35231,-10.62402 -0.65231,-2.44622 -3.56151,-2.8355 -5.29491,-4.83194 -2.40152,-2.77766 -2.30943,-5.50536 -4.23225,-8.69335 4.19016,0.84173 6.59169,3.32478 11.11063,3.86662 -7.12036,-6.38648 -15.32445,-11.77872 -25.40397,-15.46121 0.75755,-0.42876 1.2389,-2.185827 3.70617,-2.896019 2.22264,-0.64182 9.39037,0.452402 4.76356,-0.486631 -4.6452,-1.299395 -7.52807,0.02365 -10.58192,1.93594 -7.01777,4.3848 -12.73355,14.4538 -20.11694,18.83335 -3.20378,1.91227 -6.33653,1.47301 -9.0011,4.83722 1.72553,3.44579 3.47471,1.41778 5.82625,1.92806 z m 55.04809,-6.28129 c -1.75182,1.01795 1.10212,1.94121 1.5861,2.41731 2.01748,1.98591 6.52328,5.62894 7.93842,8.69331 2.89339,6.26815 2.00433,15.86105 -3.17746,19.32787 -3.49049,2.33047 -20.57466,8.70121 -28.04749,8.69332 -21.02445,-0.029 -23.15766,-23.1103 -35.99381,-30.91721 0.22884,2.2095 1.84126,6.8363 3.67724,9.23519 7.21772,9.42456 14.11451,28.84447 34.4077,25.60125 7.17033,-1.14683 20.58516,-6.09981 25.96686,-9.46401 5.84467,-3.64307 10.18476,-17.63129 4.22962,-25.37243 -2.66719,-3.46681 -9.05105,-7.85951 -10.58718,-8.2146"
     style="opacity:1;fill:#403c3d;fill-opacity:1;fill-rule:evenodd;stroke:none;stroke-width:0.263037;stop-opacity:1"
     id="path76" />
  <g
     transform="matrix(1.5312066,0,0,1.5312066,9.8046571,74.423369)"
     id="layer1">
    <path
       id="path74"
       style="fill:#403c3d;fill-opacity:1;fill-rule:nonzero;stroke:none;stroke-width:1.38798"
       d="m 418.98086,17.088207 v 33.106745 h 33.90311 V 17.088207 Z m 0.12492,182.786303 h 33.65673 V 66.023107 H 419.10578 Z M 843.46965,66.023107 794.40116,199.87451 H 768.19613 L 718.87087,66.023107 h 35.19565 L 781.29691,148.75007 808.274,66.023107 Z M 707.80347,199.87451 h -32.62788 v -12.33219 c -8.7356,9.24914 -19.87065,13.87285 -33.3965,13.87285 -13.19272,0 -23.72574,-3.93666 -31.60251,-11.81691 -9.07912,-9.07563 -13.61434,-21.74961 -13.61434,-38.02192 V 66.023107 h 33.655 v 80.927803 c 0,8.39553 2.36824,14.73512 7.10819,19.01182 3.89501,3.59834 8.80497,5.39577 14.72817,5.39577 6.09323,0 11.08995,-1.79743 14.98496,-5.39577 4.73647,-4.2767 7.10818,-10.61629 7.10818,-19.01182 V 66.023107 h 33.65673 z M 548.36991,132.82129 c 0,-11.81689 -0.93168,-20.2957 -2.79331,-25.43296 -3.3884,-8.563831 -9.90669,-12.845735 -19.55661,-12.845735 -9.65512,0 -16.17341,4.281904 -19.55835,12.845735 -1.86161,5.13726 -2.79329,13.61607 -2.79329,25.43296 0,11.81864 0.93168,20.29745 2.79329,25.43296 3.38494,8.73732 9.90323,13.10425 19.55835,13.10425 9.64992,0 16.16821,-4.36693 19.55661,-13.10425 1.86163,-5.13551 2.79331,-13.61432 2.79331,-25.43296 z m 33.65673,0 c 0,13.70282 -0.60203,23.98079 -1.79916,30.83046 -1.88592,11.13332 -5.82605,19.69715 -11.81691,25.68801 -8.05546,8.05721 -18.92681,12.07541 -32.62962,12.07541 -13.70281,0 -24.8344,-4.70872 -33.39649,-14.12962 v 12.58896 H 470.01335 V 16.954614 h 33.655 v 60.888862 c 8.02078,-8.90388 18.77934,-13.359289 32.26528,-13.359289 13.65596,0 24.49607,4.025136 32.51858,12.075405 5.97525,5.994334 9.89976,14.558167 11.77873,25.689738 1.19713,6.85142 1.7957,17.04438 1.7957,30.57196 z m -180.49786,67.05322 h -19.01009 c -12.84574,0 -22.7802,-4.02167 -29.80163,-12.07368 -6.1661,-7.02143 -9.24741,-15.75528 -9.24741,-26.20502 V 16.954614 h 33.655 V 159.54161 c 0,8.052 3.89675,12.07366 11.69199,12.07366 h 12.71214 v 28.25924"
       inkscape:connector-curvature="0" />
  </g>
</svg>
