<?xml version="1.0" encoding="UTF-8" standalone="no"?>
<svg
   xmlns:dc="http://purl.org/dc/elements/1.1/"
   xmlns:cc="http://creativecommons.org/ns#"
   xmlns:rdf="http://www.w3.org/1999/02/22-rdf-syntax-ns#"
   xmlns:svg="http://www.w3.org/2000/svg"
   xmlns="http://www.w3.org/2000/svg"
   xmlns:xlink="http://www.w3.org/1999/xlink"
   xml:space="preserve"
   enable-background="new 0 0 360 424"
   viewBox="0 0 424.06387 500"
   height="500"
   width="424.06387"
   y="0px"
   x="0px"
   id="Layer_1"
   version="1.1"><metadata
     id="metadata223"><rdf:RDF><cc:Work
         rdf:about=""><dc:format>image/svg+xml</dc:format><dc:type
           rdf:resource="http://purl.org/dc/dcmitype/StillImage" /><dc:title></dc:title></cc:Work></rdf:RDF></metadata><defs
     id="defs221" /><g
     transform="translate(-0.193,75.999)"
     style="display:none"
     display="none"
     id="Layer_2"><g
       style="display:inline"
       display="inline"
       id="O3btSA_1_"><image
         xlink:href="9AEA89CAF88516A3.jpeg"
         overflow="visible"
         enable-background="new    "
         width="190"
         height="225"
         id="O3btSA_2_"
         transform="matrix(1.8929,0,0,1.8844,0.1777,-0.7471)"
         style="overflow:visible" /></g></g><g
     transform="matrix(1.1792425,0,0,1.1792425,-0.2275938,0)"
     id="Layer_1_1_"><g
       id="g203"><path
         style="fill:#fba919"
         id="path5"
         d="m 67.892,81.419 c 0,0 5.737,22.127 6.555,29.504 0.821,7.375 -14.751,23.765 -14.751,31.961 0,8.196 3.274,22.947 21.306,30.324 18.032,7.376 20.488,26.224 20.488,37.7 0,11.473 -6.555,33.598 -6.555,33.598 0,0 -4.096,54.908 18.029,64.742 22.125,9.833 17.21,9.833 22.125,9.833 4.916,0 40.977,14.755 62.283,9.018 21.308,-5.737 27.041,-12.292 27.041,-12.292 0,0 21.31,1.637 27.865,-17.214 6.559,-18.847 10.654,-58.183 8.195,-76.214 -2.459,-18.032 -5.736,-41.794 9.014,-49.991 14.755,-8.196 30.324,-18.027 27.865,-26.224 -2.459,-8.196 -15.568,-19.67 -15.568,-19.67 0,0 -3.279,-20.486 -0.822,-25.404 2.457,-4.917 17.21,-17.213 9.014,-26.226 -8.191,-9.014 -22.947,-9.014 -22.947,-9.014 l -18.847,1.637 c 0,0 -31.961,-28.682 -73.757,-27.043 -41.794,1.639 -68.021,27.043 -68.021,27.043 0,0 -13.93,-4.917 -26.224,0 -12.294,4.919 -14.745,-10e-4 -12.288,13.932 z" /><path
         style="fill:#e78724"
         id="path7"
         d="m 142.775,203.437 c 0,0 -16.229,24.815 -28.133,42.425 -1.842,2.724 11.904,2.913 11.904,2.913 z" /><path
         style="fill:#e78724"
         id="path9"
         d="m 150.502,151.989 c 0,0 -4.892,12.205 -7.572,18.675 -2.909,7.034 -14,10.533 -14,10.533 0,0 5.749,-6.03 5.749,-21.306 0,-6.409 8.274,-8.957 8.274,-8.957 z" /><path
         style="fill:#e78724"
         id="path11"
         d="m 145.56,158.89 c 0,0 -10.023,11.931 -28.633,5.249 -18.614,-6.68 -20.522,-30.545 -20.522,-37.227 0,-6.682 35.317,6.682 40.091,9.546 4.774,2.864 13.836,14.317 9.064,22.432 z" /><path
         style="fill:#e78724"
         id="path13"
         d="m 75.261,31.399 c 0,0 17.18,-3.343 28.633,5.726 11.458,9.067 14.794,16.228 14.794,16.228 L 99.383,68.656 c 0,0 -9.328,-4.325 -12.192,-16.735 C 84.328,39.512 86.237,33.786 75.261,31.399 Z" /><path
         style="fill:#e78724"
         id="path15"
         d="m 140.549,124.427 c -7.397,-10.5 -19.587,-15.08 -29.32,-15.839 -16.596,-1.298 -24.475,4.569 -24.475,4.569 0,0 27.18,1.151 35.014,11.44 14.584,19.15 35.86,20.706 39.262,16.5 -3.934,0.196 -8.262,-1.753 -12.894,-6.133 -2.894,-2.74 -5.24,-7.204 -7.587,-10.537 z" /><path
         style="fill:#e78724"
         id="path17"
         d="m 94.666,161.554 c 0,0 -30.157,-10.367 -24.425,-20.865 5.726,-10.501 1.168,-16.222 1.168,-16.222 0,0 -16.839,12.57 -12.548,25.932 2.637,8.202 7.061,14.14 31.354,25.525 11.652,21.643 2.406,60.6 2.96,60.783 0.923,0.307 16.36,-7.63 15.306,-44.077 -0.321,-11.192 -1.216,-26.471 -13.815,-31.076 z" /><path
         style="fill:#e78724"
         id="path19"
         d="m 134.184,50.074 c -12.645,6.424 -29.968,15.37 -29.968,15.37 l 6.818,3.411 c -0.651,1.054 -0.965,1.683 -0.965,1.683 l 6.998,3.182 c 0,0 17.083,12.375 27.55,20.331 -3.49,-10.746 -13.734,-27.628 -13.734,-27.628 0,0 -2.903,-7.757 3.301,-16.349 z" /><path
         style="fill:#e78724"
         id="path21"
         d="m 176.191,311.934 c -38.866,0 -52.031,-19.731 -52.031,-19.731 l 6.074,14.791 c 2.296,6.399 26.788,26.311 45.898,26.311" /><path
         style="fill:#e78724"
         id="path23"
         d="m 128.419,278.871 c 0,0 3.576,21.854 17.894,21.854 12.167,0 15.752,-18.46 15.752,-22.275 z" /><path
         style="fill:#e78724"
         id="path25"
         d="m 104.592,245.912 c 1.272,-3.502 5.726,-17.66 7.157,-30.545 1.715,-15.432 1.09,-38.003 1.09,-38.003 0,0 -3.82,14.795 -7.161,17.186 -3.339,2.385 -9.545,18.61 -9.545,18.61 0,0 -3.324,24.156 -4.906,32.275 4.378,0.877 8.064,-1.703 13.365,0.477 z" /><path
         style="fill:#e78724"
         id="path27"
         d="m 70.016,150.162 c 0,0 8.111,-2.866 10.5,-20.522 2.385,-17.66 -2.866,-32.932 -2.866,-32.932 0,0 0.477,24.34 -2.385,29.114 -2.866,4.771 -5.249,6.203 -8.592,12.409 -3.343,6.207 1.431,10.021 3.343,11.931 z" /><path
         style="fill:#87ccee"
         id="path29"
         d="M 113.063,69.061" /><path
         style="fill:#fdc168"
         id="path31"
         d="m 79.701,35.576 -1.656,-1.049 c -4.883,0.165 1.656,1.049 1.656,1.049 z" /><path
         style="fill:#fba919"
         id="path33"
         d="m 140.786,44.846 c 0,0 -7.634,-1.272 -11.454,-6.998 C 125.512,32.12 114.696,20.664 97.453,20.536 80.211,20.407 63.152,25.119 63.152,25.119 l 14.891,9.409 c 1.575,-0.051 4.329,-0.03 8.883,0.122 18.688,0.621 21.565,19.106 21.565,19.106 l 65.862,-9.069" /><path
         style="fill:#ffffff"
         id="path35"
         d="m 147.151,146.942 c 0,0 -8.91,8.91 -22.593,6.044 -13.683,-2.862 -21.957,-8.908 -22.593,-19.409 -0.636,-10.5 2.866,-14.636 2.866,-14.636 0,0 15.271,4.776 22.593,11.14 7.318,6.362 12.726,16.544 19.727,16.861 z" /><path
         style="fill:#c9c9c9"
         id="path37"
         d="m 136.368,143.759 c 0,0 -7.727,3.53 -16.364,0.655 -11.306,-3.771 -12.059,-15.529 -12.059,-15.529 0,0 -6.936,20.354 12.51,24.272 15.597,3.142 24.821,-5.896 24.821,-5.896 z" /><path
         style="fill:#463014"
         id="path39"
         d="M 145.249,257.84" /><path
         style="fill:#463014"
         id="path41"
         d="M 141.859,40.528 C 141.028,23.072 155.338,9.169 160.296,8.577 160.57,11.535 160.02,23.073 164.977,26.621 166.42,17.197 171.3,6.807 190.57,0 c -4.127,10.946 -0.551,20.115 1.152,24.365 13.159,-11.944 22.025,-9.97 22.025,-9.97 0,0 -9.143,15.777 -5.567,26.129 -26.416,-2.071 -66.192,2.807 -66.321,0.004 z" /><path
         style="fill:#463014"
         id="path43"
         d="M 85.857,67.117 C 79.554,61.888 84.252,57.035 83.754,51.094 83.483,47.933 83.233,44.95 82.191,43.305 76.391,34.146 62.708,31.367 62.571,31.338 L 56.149,30.08 60.4,25.107 c 0.551,-0.644 18.009,-17.301 45.025,-8.579 18.898,6.095 32.888,26.763 33.409,27.598 l -9.476,4.456 C 129.247,48.406 118.187,28.979 101.974,23.751 88.868,19.522 76.789,23.545 71.615,26.182 c 5.5,2.196 12.691,6.195 17.024,13.036 2.044,3.231 2.389,7.299 2.722,11.238 0.439,5.215 0.85,10.138 4.688,13.326 z" /><path
         style="fill:#463014"
         id="path45"
         d="m 69.023,143.45 c 0,0 7.941,-9.847 10.293,-29.008 0.924,-7.547 -0.717,-22.433 -3.343,-28.16 0.477,14.079 -3.102,28.16 -3.102,28.16 0,0 -2.413,26.144 -3.848,29.008 z" /><path
         style="fill:#463014"
         id="path47"
         d="m 110.896,57.172 c -0.004,-0.021 -2.548,-11.138 -9.601,-16.75 -9.949,-7.914 -22.097,-3.704 -22.214,-3.667 l -1.764,-5.449 c 0.588,-0.191 14.473,-4.566 27.269,4.429 12.873,9.046 14.418,17.246 14.552,18.152 z" /><path
         style="fill:#463014"
         id="path49"
         d="m 93.964,136.388 c 0,0 -4.166,-5.964 -3.417,-12.523 0.373,-3.239 1.874,-6.564 4.554,-7.744 4.98,-2.188 7.187,3.457 7.187,3.457 0,0 -7.009,1.73 -8.324,16.81 z" /><path
         style="fill:#463014"
         id="path51"
         d="M 145.249,257.84" /><path
         style="fill:#463014"
         id="path53"
         d="m 139.707,145.478 c 0.174,0.325 0.263,0.507 0.263,0.507 0,0 -12.994,9.752 -26.311,-0.144 -7.128,-5.302 -6.455,-18.417 -4.271,-23.979 5.679,1.287 10.496,3.607 14.522,6.316 -5.088,-4.541 -9.542,-7.884 -9.53,-7.961 l -5.783,-1.637 -11.24,-3.854 c -0.144,0.857 -4.244,20.074 7.59,33.168 5.245,5.806 29.835,18.808 41.51,-3.424 z" /><path
         style="fill:#463014"
         id="path55"
         d="m 138.49,146.907 c 7.316,11.135 25.775,4.772 25.457,-7 0,0 -12.334,6.807 -23.231,-5.726 -6.362,-7.317 -26.748,-27.492 -54.394,-20.787 19.092,4.198 44.367,21.641 52.168,33.513 z" /><g
         id="g59"><path
           style="fill:#463014"
           id="path57"
           d="M 145.249,257.84" /></g><path
         style="fill:#463014"
         id="path61"
         d="m 83.739,178.333 c 1.76,1.017 7.967,7.445 7.971,17.059 0,4.821 -0.48,29.04 -2.866,43.836 3.589,2.332 6.089,2.828 9.663,5.205 1.789,-17.136 3.072,-41.972 2.474,-51.998 -0.684,-11.429 -6.803,-19.099 -12.478,-22.37 -1.777,-1.022 -3.634,-2.027 -5.504,-3.038 -9.72,-5.252 -19.771,-10.685 -19.771,-19.962 0,-7.257 2.821,-9.527 5.808,-11.933 l 0.322,-0.261 c 1.982,-1.601 4.225,-3.417 5.554,-6.399 3.626,-8.153 4.219,-28.921 0,-34.193 -2.103,-2.627 -7.738,-11.461 -6.118,-17.397 0.617,-2.266 2.044,-3.945 4.367,-5.135 2.458,-1.259 5.779,-1.897 9.867,-1.897 8.03,0 16.936,2.444 21.531,3.899 16.419,5.204 36.231,20.208 41.91,24.683 0.163,0.125 0.259,0.198 0.276,0.21 l 3.634,2.527 -2.273,-3.803 c -0.14,-0.237 -14.534,-23.905 -40.271,-32.583 -5.007,-1.688 -14.844,-4.521 -24.511,-4.521 -5.756,0 -10.64,1.005 -14.507,2.985 -4.713,2.411 -7.905,6.258 -9.231,11.121 -3.25,11.921 7.335,25.194 7.696,25.618 1.234,2.203 1.757,18.206 -1.094,24.611 -0.392,0.884 -1.467,1.753 -2.828,2.851 -0.426,0.345 -0.903,0.703 -1.408,1.086 -4.022,3.036 -10.104,7.623 -10.104,18.196 0,14.467 14.662,22.311 26.445,28.618 1.933,1.04 3.778,2.024 5.446,2.985 z" /><g
         id="g71"><g
           id="g65"><path
             style="fill:#463014"
             id="path63"
             d="M 85.857,67.117 C 79.554,61.888 84.252,57.035 83.754,51.094 83.483,47.933 83.233,44.95 82.191,43.305 76.391,34.146 62.708,31.367 62.571,31.338 L 56.149,30.08 60.4,25.107 c 0.551,-0.644 18.009,-17.301 45.025,-8.579 18.898,6.095 32.888,26.763 33.409,27.598 l -9.476,4.456 C 129.247,48.406 118.187,28.979 101.974,23.751 88.868,19.522 76.789,23.545 71.615,26.182 c 5.5,2.196 12.691,6.195 17.024,13.036 2.044,3.231 2.389,7.299 2.722,11.238 0.439,5.215 0.85,10.138 4.688,13.326 z" /></g><g
           id="g69"><path
             style="fill:#463014"
             id="path67"
             d="m 85.652,68.188 -0.407,-0.337 c -4.674,-3.879 -3.845,-7.7 -3.042,-11.397 0.365,-1.706 0.75,-3.47 0.594,-5.279 -0.255,-3.042 -0.5,-5.912 -1.416,-7.361 C 75.858,35.094 62.511,32.3 62.379,32.273 L 54.358,30.7 59.675,24.484 c 0.097,-0.116 11.306,-11.431 30.29,-11.431 5.175,0 10.477,0.861 15.752,2.565 19.724,6.36 33.795,27.789 33.928,28.001 l 0.569,0.91 -11.209,5.272 -0.45,-0.714 C 127.349,47.031 116.721,29.504 101.686,24.654 97.993,23.462 94.103,22.86 90.126,22.86 c -7.203,0 -13.044,1.963 -16.152,3.281 5.194,2.339 11.493,6.276 15.479,12.562 2.167,3.424 2.518,7.609 2.862,11.652 0.422,5.028 0.821,9.756 4.348,12.684 l 1.331,1.104 z" /></g></g><g
         id="g81"><g
           id="g75"><path
             style="fill:#463014"
             id="path73"
             d="m 110.896,57.172 c -0.004,-0.021 -2.548,-11.138 -9.601,-16.75 -9.949,-7.914 -22.097,-3.704 -22.214,-3.667 l -1.764,-5.449 c 0.588,-0.191 14.473,-4.566 27.269,4.429 12.873,9.046 14.418,17.246 14.552,18.152 z" /></g><g
           id="g79"><path
             style="fill:#463014"
             id="path77"
             d="m 110.212,58.472 -0.248,-1.094 c -0.026,-0.107 -2.521,-10.844 -9.266,-16.207 -3.844,-3.061 -8.48,-4.615 -13.771,-4.615 -4.13,0 -7.199,0.986 -7.534,1.102 l -0.912,0.303 -2.366,-7.269 0.907,-0.293 c 0.407,-0.129 4.092,-1.278 9.305,-1.278 6.877,0 13.379,2.018 18.811,5.832 13.195,9.273 14.806,17.848 14.944,18.794 l 0.116,0.748 z M 86.928,34.65 c 5.652,0 10.829,1.738 14.961,5.024 5.989,4.77 8.806,13.191 9.658,16.21 l 6.492,-2.587 c -0.588,-2.292 -3.176,-9.171 -14,-16.78 -5.179,-3.64 -11.136,-5.484 -17.711,-5.484 -3.608,0 -6.411,0.574 -7.796,0.924 l 1.171,3.619 c 1.358,-0.365 3.971,-0.926 7.225,-0.926 z" /></g></g><path
         style="fill:#463014"
         id="path83"
         d="m 145.715,295.482 v 0 c -2.82,0 -5.698,-1.023 -7.693,-2.75 -1.527,-1.316 -6.691,-6.059 -8.968,-11.87 -0.85,-2.173 -0.659,-3.911 0.574,-5.162 0.85,-0.857 2.614,-1.882 6.195,-1.882 l 2.548,-0.004 c 3.036,-0.003 8.148,-0.003 12.517,-0.003 h 4.189 c 2.724,0 4.677,0.589 5.8,1.737 1.442,1.482 0.98,3.367 0.577,4.359 -0.702,1.738 -3.607,7.394 -8.525,12.652 -1.761,1.884 -4.324,2.923 -7.214,2.923 z" /><path
         style="fill:#463014"
         id="path85"
         d="m 148.671,147.562 -10.182,-0.655 c 0,0 2.603,4.588 4.289,10.522 1.904,6.712 -1.741,16.521 -1.741,16.521 0,0 13.576,-15.37 7.634,-26.388 z" /><g
         id="g89"><path
           style="fill:#463014"
           id="path87"
           d="M 135.961,322.367 C 99.722,319.582 86.972,285.339 86.972,278.207 l 9.464,0.004 -4.732,-0.004 h 4.732 c 0.047,3.083 9.678,32.375 40.25,34.726 z" /></g><path
         style="fill:#ffffff"
         id="path91"
         d="m 125.777,261.016 c -0.566,-3.273 -0.625,-6.377 0.066,-9.427 -2.754,-2.07 -7.696,-2.839 -11.404,-4.041 -3.032,-1.919 -18.548,1.967 -29.805,-11.656 -14.104,-17.059 -11.136,-27.244 -11.136,-27.244 -3.616,4.018 -7.121,2.487 -12.633,21.221 -5.52,18.738 2.591,31.801 17.708,44.915 7.142,6.195 17.238,8.747 25.922,9.724 -2.909,-2.921 4.969,-3.213 10.399,-5.245 -0.433,-4.384 0.292,-8.64 3.561,-12.067 1.971,-2.066 4.507,-3.301 7.138,-4.285 0.147,-0.34 0.271,-0.654 0.411,-0.98 -0.087,-0.298 -0.172,-0.599 -0.227,-0.915 z" /><path
         style="fill:#c9c9c9"
         id="path93"
         d="m 114.821,279.149 c -0.314,-0.92 -0.551,-1.858 -0.784,-2.802 -0.251,-1.031 -1.501,-3.952 0.04,-0.617 -0.396,-0.854 -0.655,-1.734 -0.846,-2.621 -24.482,-0.031 -45.781,-16.84 -41.666,-52.179 -3.205,-4.255 -7.693,8.58 -7.693,8.58 0,0 -12.256,35.588 19.398,49.381 10.547,4.6 19.868,7.897 22.067,6.566 4.581,0.931 8.716,-2.263 10.267,-4.363 -0.291,-0.645 -0.556,-1.291 -0.783,-1.945 z" /><path
         style="fill:#463014"
         id="path95"
         d="m 125.336,255.892 c 0.038,-2.983 0.647,-5.872 2.089,-8.751 0.101,-0.198 0.218,-0.388 0.326,-0.581 -9.421,-0.081 -20.271,-0.983 -29.51,-4.681 C 88.086,237.817 75.383,223.92 73.2,207.592 c 0,0 -19.125,14.758 -13.505,46.346 5.275,29.662 30.096,39.332 58.404,40.968 0.015,-0.192 -3.184,-6.8 -2.173,-10.845 -16.074,1.168 -34.049,-5.042 -42.726,-19.32 -7.944,-13.068 -5.716,-35.379 -2.451,-38.648 7.964,25.129 36.62,30.237 54.587,29.799 z" /><path
         style="fill:#463014"
         id="path97"
         d="M 176.191,294.839" /><path
         style="fill:#463014"
         id="path99"
         d="m 128.302,237.902 c -5.094,14.949 -15.499,27.047 -15.499,27.047 0,0 14.313,-0.651 15.103,-3.184 0.585,-1.867 12.924,-30.752 17.66,-64.589 -4.455,7.319 -16.828,39.446 -17.264,40.726 z" /><path
         style="fill:#e78724"
         id="path101"
         d="m 209.393,203.437 c 0,0 16.225,24.815 28.133,42.425 1.842,2.724 -11.908,2.913 -11.908,2.913 z" /><path
         style="fill:#e78724"
         id="path103"
         d="m 201.664,151.989 c 0,0 4.893,12.205 7.569,18.675 2.909,7.034 13.999,10.533 13.999,10.533 0,0 -5.748,-6.03 -5.748,-21.306 0,-6.409 -8.273,-8.957 -8.273,-8.957 z" /><path
         style="fill:#e78724"
         id="path105"
         d="m 206.605,158.89 c 0,0 10.023,11.931 28.638,5.249 18.615,-6.682 20.522,-30.545 20.522,-37.227 0,-6.682 -35.317,6.682 -40.091,9.546 -4.774,2.864 -13.84,14.317 -9.069,22.432 z" /><path
         style="fill:#e78724"
         id="path107"
         d="m 276.906,31.399 c 0,0 -17.18,-3.343 -28.637,5.726 -11.453,9.067 -14.795,16.228 -14.795,16.228 l 19.306,15.302 c 0,0 9.332,-4.325 12.196,-16.735 2.862,-12.408 0.954,-18.134 11.93,-20.521 z" /><path
         style="fill:#e78724"
         id="path109"
         d="m 211.618,124.427 c 7.397,-10.5 19.583,-15.08 29.32,-15.839 16.597,-1.298 24.472,4.569 24.472,4.569 0,0 -27.18,1.151 -35.015,11.44 -14.585,19.15 -35.854,20.706 -39.256,16.5 3.933,0.196 8.263,-1.753 12.892,-6.133 2.893,-2.74 5.24,-7.204 7.587,-10.537 z" /><path
         style="fill:#e78724"
         id="path111"
         d="m 257.501,161.554 c 0,0 30.153,-10.367 24.426,-20.865 -5.726,-10.501 -1.172,-16.222 -1.172,-16.222 0,0 16.843,12.57 12.548,25.932 -2.637,8.202 -7.061,14.14 -31.354,25.525 -11.652,21.643 -2.406,60.6 -2.957,60.783 -0.924,0.307 -16.359,-7.63 -15.305,-44.077 0.32,-11.192 1.215,-26.471 13.814,-31.076 z" /><path
         style="fill:#e78724"
         id="path113"
         d="m 217.984,50.074 c 12.641,6.424 29.967,15.37 29.967,15.37 l -6.817,3.411 c 0.651,1.054 0.966,1.683 0.966,1.683 l -6.998,3.182 c 0,0 -17.084,12.375 -27.551,20.331 3.486,-10.746 13.73,-27.628 13.73,-27.628 0,0 2.908,-7.757 -3.297,-16.349 z" /><path
         style="fill:#e78724"
         id="path115"
         d="m 175.978,311.934 c 38.86,0 52.025,-19.731 52.025,-19.731 l -6.07,14.791 c -2.296,6.399 -26.79,26.311 -45.896,26.311" /><path
         style="fill:#e78724"
         id="path117"
         d="m 223.748,278.871 c 0,0 -3.58,21.854 -17.894,21.854 -12.165,0 -15.751,-18.46 -15.751,-22.275 z" /><path
         style="fill:#e78724"
         id="path119"
         d="m 247.575,245.912 c -1.272,-3.502 -5.726,-17.66 -7.161,-30.545 -1.715,-15.432 -1.086,-38.003 -1.086,-38.003 0,0 3.819,14.795 7.156,17.186 3.344,2.385 9.546,18.61 9.546,18.61 0,0 3.324,24.156 4.906,32.275 -4.377,0.877 -8.059,-1.703 -13.361,0.477 z" /><path
         style="fill:#e78724"
         id="path121"
         d="m 282.154,150.162 c 0,0 -8.115,-2.866 -10.5,-20.522 -2.385,-17.66 2.865,-32.932 2.865,-32.932 0,0 -0.48,24.34 2.385,29.114 2.866,4.773 5.25,6.203 8.592,12.409 3.338,6.206 -1.434,10.021 -3.342,11.931 z" /><path
         style="fill:#87ccee"
         id="path123"
         d="M 239.106,69.061" /><path
         style="fill:#fdc168"
         id="path125"
         d="m 272.465,35.576 1.659,-1.049 c 4.884,0.165 -1.659,1.049 -1.659,1.049 z" /><path
         style="fill:#fba919"
         id="path127"
         d="m 211.378,44.846 c 0,0 7.638,-1.272 11.454,-6.998 3.819,-5.728 14.639,-17.184 31.883,-17.312 17.242,-0.129 34.301,4.583 34.301,4.583 l -14.892,9.409 c -1.575,-0.051 -4.329,-0.03 -8.887,0.122 -18.685,0.621 -21.562,19.106 -21.562,19.106 l -65.86,-9.069" /><path
         style="fill:#ffffff"
         id="path129"
         d="m 205.016,146.942 c 0,0 8.91,8.91 22.59,6.044 13.684,-2.862 21.957,-8.908 22.594,-19.409 0.635,-10.5 -2.863,-14.636 -2.863,-14.636 0,0 -15.275,4.776 -22.593,11.14 -7.318,6.364 -12.726,16.544 -19.728,16.861 z" /><path
         style="fill:#c9c9c9"
         id="path131"
         d="m 215.796,143.759 c 0,0 7.73,3.53 16.364,0.655 11.309,-3.771 12.062,-15.529 12.062,-15.529 0,0 6.932,20.354 -12.514,24.272 -15.594,3.142 -24.82,-5.896 -24.82,-5.896 z" /><path
         style="fill:#463014"
         id="path133"
         d="M 206.916,257.84" /><path
         style="fill:#463014"
         id="path135"
         d="m 266.309,67.117 c 6.303,-5.229 1.609,-10.082 2.107,-16.023 0.266,-3.161 0.516,-6.144 1.559,-7.789 5.801,-9.159 19.483,-11.938 19.624,-11.967 l 6.423,-1.258 -4.252,-4.973 c -0.551,-0.644 -18.009,-17.301 -45.029,-8.579 -18.895,6.095 -32.885,26.763 -33.405,27.598 l 9.472,4.456 c 0.115,-0.176 11.176,-19.603 27.389,-24.831 13.105,-4.229 25.184,-0.206 30.355,2.431 -5.497,2.196 -12.691,6.195 -17.024,13.036 -2.044,3.231 -2.386,7.299 -2.718,11.238 -0.439,5.215 -0.854,10.138 -4.693,13.326 z" /><path
         style="fill:#463014"
         id="path137"
         d="m 283.14,143.45 c 0,0 -7.937,-9.847 -10.289,-29.008 -0.924,-7.547 0.714,-22.433 3.339,-28.16 -0.477,14.079 3.105,28.16 3.105,28.16 0,0 2.414,26.144 3.845,29.008 z" /><path
         style="fill:#463014"
         id="path139"
         d="m 241.271,57.172 c 0.004,-0.021 2.548,-11.138 9.602,-16.75 9.948,-7.914 22.097,-3.704 22.21,-3.667 l 1.769,-5.449 c -0.59,-0.191 -14.473,-4.566 -27.273,4.429 -12.873,9.046 -14.414,17.246 -14.552,18.152 z" /><path
         style="fill:#463014"
         id="path141"
         d="m 258.203,136.388 c 0,0 4.166,-5.964 3.413,-12.523 -0.369,-3.239 -1.87,-6.564 -4.55,-7.744 -4.98,-2.188 -7.188,3.457 -7.188,3.457 0,0 7.01,1.73 8.325,16.81 z" /><path
         style="fill:#463014"
         id="path143"
         d="M 206.916,257.84" /><path
         style="fill:#463014"
         id="path145"
         d="m 212.461,145.478 c -0.174,0.325 -0.264,0.507 -0.264,0.507 0,0 12.99,9.752 26.307,-0.144 7.133,-5.302 6.459,-18.417 4.271,-23.979 -5.676,1.287 -10.492,3.607 -14.52,6.316 5.089,-4.541 9.543,-7.884 9.527,-7.961 l 5.787,-1.637 11.239,-3.852 c 0.144,0.857 4.243,20.074 -7.595,33.168 -5.244,5.806 -29.834,18.808 -41.506,-3.424 z" /><path
         style="fill:#463014"
         id="path147"
         d="m 213.674,146.907 c -7.316,11.135 -25.77,4.772 -25.451,-7 0,0 12.33,6.807 23.227,-5.726 6.362,-7.317 26.752,-27.492 54.397,-20.787 -19.091,4.198 -44.368,21.641 -52.173,33.513 z" /><g
         id="g151"><path
           style="fill:#463014"
           id="path149"
           d="M 206.916,257.84" /></g><path
         style="fill:#463014"
         id="path153"
         d="m 268.431,178.333 c -1.761,1.017 -7.971,7.445 -7.971,17.059 -0.004,4.821 0.477,29.04 2.866,43.836 -3.59,2.332 -6.09,2.828 -9.664,5.205 -1.789,-17.136 -3.076,-41.972 -2.474,-51.998 0.683,-11.429 6.8,-19.099 12.474,-22.37 1.777,-1.022 3.635,-2.027 5.509,-3.038 9.72,-5.252 19.771,-10.685 19.771,-19.962 0,-7.257 -2.824,-9.527 -5.811,-11.933 l -0.318,-0.261 c -1.982,-1.601 -4.229,-3.417 -5.554,-6.399 -3.627,-8.153 -4.222,-28.921 -0.004,-34.193 2.103,-2.627 7.742,-11.461 6.122,-17.397 -0.621,-2.266 -2.049,-3.945 -4.371,-5.135 -2.459,-1.259 -5.775,-1.897 -9.867,-1.897 -8.025,0 -16.936,2.444 -21.527,3.899 -16.419,5.204 -36.231,20.208 -41.914,24.683 -0.162,0.125 -0.256,0.198 -0.274,0.21 l -3.636,2.527 2.273,-3.803 c 0.144,-0.237 14.535,-23.905 40.271,-32.583 5.008,-1.688 14.844,-4.521 24.512,-4.521 5.756,0 10.635,1.005 14.506,2.985 4.714,2.411 7.904,6.258 9.232,11.121 3.25,11.921 -7.336,25.194 -7.697,25.618 -1.234,2.203 -1.756,18.206 1.091,24.611 0.392,0.884 1.467,1.753 2.831,2.851 0.426,0.345 0.899,0.703 1.408,1.086 4.023,3.036 10.102,7.623 10.102,18.196 0,14.467 -14.662,22.311 -26.441,28.618 -1.935,1.04 -3.782,2.024 -5.445,2.985 z" /><path
         style="fill:#463014"
         id="path155"
         d="m 250.94,65.415 c -2.332,-3.95 -8.296,-11.577 -22.042,-18.279 -15.34,-7.477 -33.094,-11.272 -52.777,-11.281 v -0.004 c 0,0 -0.026,0 -0.038,0 0,0 -0.026,0 -0.038,0 v 0.002 c -19.686,0.01 -37.443,3.805 -52.779,11.281 -13.746,6.703 -19.708,14.329 -22.042,18.279 l -1.001,1.325 11.771,2.62 0.373,-0.471 0.197,-0.432 c 0.182,-0.778 1.76,-4.978 14.884,-11.378 14.03,-6.843 30.394,-10.312 48.633,-10.318 18.241,0.006 34.598,3.475 48.627,10.318 13.125,6.4 14.708,10.6 14.888,11.378 l 0.196,0.432 0.369,0.471 11.775,-2.62 z" /><g
         id="g165"><g
           id="g159"><path
             style="fill:#463014"
             id="path157"
             d="m 266.309,67.117 c 6.303,-5.229 1.609,-10.082 2.107,-16.023 0.266,-3.161 0.516,-6.144 1.559,-7.789 5.801,-9.159 19.483,-11.938 19.624,-11.967 l 6.423,-1.258 -4.252,-4.973 c -0.551,-0.644 -18.009,-17.301 -45.029,-8.579 -18.895,6.095 -32.885,26.763 -33.405,27.598 l 9.472,4.456 c 0.115,-0.176 11.176,-19.603 27.389,-24.831 13.105,-4.229 25.184,-0.206 30.355,2.431 -5.497,2.196 -12.691,6.195 -17.024,13.036 -2.044,3.231 -2.386,7.299 -2.718,11.238 -0.439,5.215 -0.854,10.138 -4.693,13.326 z" /></g><g
           id="g163"><path
             style="fill:#463014"
             id="path161"
             d="m 254.178,64.147 1.326,-1.104 c 3.53,-2.928 3.926,-7.657 4.352,-12.684 0.342,-4.045 0.695,-8.23 2.862,-11.652 3.982,-6.284 10.286,-10.222 15.479,-12.563 -3.109,-1.317 -8.951,-3.28 -16.155,-3.28 -3.979,0 -7.862,0.602 -11.556,1.794 -15.039,4.85 -25.666,22.377 -26.869,24.433 l -0.451,0.713 -11.209,-5.271 0.57,-0.91 c 0.132,-0.212 14.199,-21.641 33.924,-28.001 5.275,-1.704 10.576,-2.564 15.756,-2.564 18.983,0 30.193,11.317 30.289,11.431 l 5.317,6.216 -8.022,1.573 c -0.133,0.027 -13.479,2.819 -19.006,11.541 -0.916,1.45 -1.156,4.317 -1.416,7.361 -0.151,1.81 0.229,3.574 0.599,5.279 0.802,3.697 1.63,7.521 -3.046,11.397 l -0.406,0.337 z" /></g></g><g
         id="g175"><g
           id="g169"><path
             style="fill:#463014"
             id="path167"
             d="m 241.271,57.172 c 0.004,-0.021 2.548,-11.138 9.602,-16.75 9.948,-7.914 22.097,-3.704 22.21,-3.667 l 1.769,-5.449 c -0.59,-0.191 -14.473,-4.566 -27.273,4.429 -12.873,9.046 -14.414,17.246 -14.552,18.152 z" /></g><g
           id="g173"><path
             style="fill:#463014"
             id="path171"
             d="m 231.975,54.495 0.111,-0.748 c 0.14,-0.946 1.752,-9.519 14.945,-18.794 5.428,-3.814 11.932,-5.832 18.809,-5.832 5.216,0 8.901,1.147 9.309,1.278 l 0.906,0.293 -2.365,7.269 -0.913,-0.303 c -0.341,-0.115 -3.409,-1.102 -7.537,-1.102 -5.29,0 -9.923,1.552 -13.767,4.615 -6.746,5.365 -9.243,16.101 -9.266,16.207 l -0.248,1.092 z m 40.49,-18.919 1.175,-3.619 c -1.386,-0.352 -4.192,-0.924 -7.8,-0.924 -6.574,0 -12.533,1.846 -17.709,5.484 -10.828,7.611 -13.416,14.488 -14.003,16.78 l 6.497,2.587 c 0.85,-3.021 3.664,-11.442 9.656,-16.21 4.135,-3.286 9.306,-5.024 14.958,-5.024 3.25,0 5.868,0.561 7.226,0.926 z" /></g></g><path
         style="fill:#463014"
         id="path177"
         d="m 199.242,292.559 c -4.917,-5.257 -7.826,-10.914 -8.529,-12.652 -0.402,-0.99 -0.86,-2.877 0.582,-4.359 1.124,-1.148 3.072,-1.737 5.796,-1.737 h 4.192 c 4.369,0 9.478,0 12.516,0.003 l 2.548,0.004 c 3.579,0 5.342,1.024 6.191,1.882 1.234,1.249 1.427,2.987 0.577,5.162 -2.277,5.812 -7.442,10.555 -8.969,11.87 -2,1.727 -4.871,2.75 -7.691,2.75 v 0 c -2.891,0 -5.452,-1.039 -7.213,-2.923 z" /><path
         style="fill:#463014"
         id="path179"
         d="m 203.498,147.562 10.176,-0.655 c 0,0 -2.599,4.588 -4.285,10.522 -1.904,6.712 1.741,16.521 1.741,16.521 0,0 -13.577,-15.37 -7.632,-26.388 z" /><path
         style="fill:#e78724"
         id="path181"
         d="m 176.085,111.211 c -6.489,0 -14.95,-0.178 -21.298,-4.74 0,0 8.312,14.571 21.287,14.571 l 0.011,-1.844 0.011,1.844 c 12.976,0 21.287,-14.571 21.287,-14.571 -6.348,4.562 -14.815,4.74 -21.298,4.74 z" /><path
         style="fill:#463014"
         id="path183"
         d="m 193.952,111.141 c -6.509,3.939 -12.322,5.304 -17.867,5.425 -5.546,-0.121 -11.357,-1.486 -17.867,-5.425 0,0 9.479,11.567 17.819,11.656 v 0.007 c 0.015,0 0.03,-0.004 0.047,-0.004 0.015,0 0.03,0.004 0.047,0.004 v -0.007 c 8.338,-0.089 17.821,-11.656 17.821,-11.656 z" /><g
         id="g187"><path
           style="fill:#463014"
           id="path185"
           d="m 216.207,322.367 -0.726,-9.435 c 30.565,-2.351 40.196,-31.643 40.246,-34.726 h 9.464 c 0.004,7.131 -12.75,41.376 -48.984,44.161 z" /></g><path
         style="fill:#ffffff"
         id="path189"
         d="m 226.389,261.016 c 0.569,-3.273 0.624,-6.377 -0.066,-9.427 2.758,-2.07 7.696,-2.839 11.404,-4.041 3.032,-1.919 18.552,1.967 29.809,-11.656 14.104,-17.059 11.132,-27.244 11.132,-27.244 3.619,4.018 7.121,2.487 12.637,21.221 5.52,18.738 -2.595,31.801 -17.712,44.915 -7.141,6.195 -17.238,8.747 -25.922,9.724 2.909,-2.921 -4.969,-3.213 -10.396,-5.245 0.434,-4.384 -0.295,-8.64 -3.563,-12.067 -1.967,-2.066 -4.507,-3.301 -7.136,-4.285 -0.148,-0.34 -0.275,-0.654 -0.411,-0.98 0.087,-0.298 0.169,-0.599 0.224,-0.915 z" /><path
         style="fill:#c9c9c9"
         id="path191"
         d="m 237.342,279.149 c 0.318,-0.92 0.551,-1.858 0.784,-2.802 0.255,-1.031 1.505,-3.952 -0.038,-0.617 0.396,-0.854 0.655,-1.734 0.846,-2.621 24.482,-0.031 45.781,-16.84 41.662,-52.179 3.205,-4.255 7.696,8.58 7.696,8.58 0,0 12.257,35.588 -19.397,49.381 -10.547,4.6 -19.867,7.897 -22.067,6.566 -4.585,0.931 -8.72,-2.263 -10.267,-4.363 0.289,-0.645 0.56,-1.291 0.781,-1.945 z" /><path
         style="fill:#463014"
         id="path193"
         d="m 226.827,255.892 c -0.034,-2.983 -0.647,-5.872 -2.085,-8.751 -0.102,-0.198 -0.219,-0.388 -0.326,-0.581 9.42,-0.081 20.271,-0.983 29.51,-4.681 10.154,-4.062 22.857,-17.959 25.041,-34.287 0,0 19.125,14.758 13.505,46.346 -5.279,29.662 -30.097,39.332 -58.404,40.968 -0.015,-0.192 3.185,-6.8 2.173,-10.845 16.07,1.168 34.045,-5.042 42.727,-19.32 7.939,-13.068 5.712,-35.379 2.447,-38.648 -7.961,25.129 -36.62,30.237 -54.588,29.799 z" /><g
         id="g199"><path
           style="fill:#463014"
           id="path195"
           d="M 175.978,294.839" /><path
           style="fill:#463014"
           id="path197"
           d="m 238.258,263.332 c -3.382,-3.656 -9.6,-8.014 -23.937,-8.014 0,0 -27.182,-0.016 -38.188,-0.023 v 0 c -0.015,0 -0.034,0 -0.047,0 0,0 -0.034,0 -0.047,0 v 0 c -11.005,0.008 -38.194,0.023 -38.194,0.023 -14.333,0 -20.551,4.359 -23.935,8.014 -4.929,5.321 -5.702,12.723 -2.292,21.975 9.061,24.626 21.794,49.645 64.419,49.68 v 0.004 c 0.016,0 0.03,-0.004 0.047,-0.004 0.015,0 0.03,0.004 0.047,0.004 v -0.004 c 42.621,-0.037 55.354,-25.054 64.418,-49.68 3.41,-9.252 2.635,-16.654 -2.291,-21.975 z m -6.636,20.248 c -4.317,12.366 -15.919,42.298 -55.539,42.35 -39.625,-0.052 -51.223,-29.983 -55.54,-42.35 -2.389,-6.861 -2.207,-11.938 0.559,-15.092 1.889,-2.156 6.229,-4.729 16.12,-4.729 l 10.333,-0.004 c 7.623,-0.007 17.194,-0.015 28.529,-0.019 11.331,0.004 20.907,0.012 28.528,0.019 l 10.329,0.004 c 9.894,0 14.233,2.572 16.123,4.729 2.763,3.157 2.947,8.231 0.558,15.092 z" /></g><path
         style="fill:#463014"
         id="path201"
         d="m 223.863,237.902 c 5.094,14.949 15.498,27.047 15.498,27.047 0,0 -14.312,-0.651 -15.103,-3.184 -0.581,-1.867 -12.921,-30.752 -17.657,-64.589 4.452,7.319 16.825,39.446 17.262,40.726 z" /></g><g
       id="g215"><path
         style="fill:#463014"
         id="path205"
         d="m 62.229,357.738 c -1.906,-1.15 -4.042,-2.159 -6.349,-2.996 -2.291,-0.831 -4.823,-1.493 -7.53,-1.969 -2.711,-0.479 -5.637,-0.719 -8.7,-0.719 -5.934,0 -11.395,0.888 -16.229,2.639 -4.85,1.762 -9.048,4.266 -12.478,7.444 -3.443,3.184 -6.125,7.024 -7.973,11.417 -1.844,4.377 -2.777,9.236 -2.777,14.453 0,5.127 0.979,9.95 2.909,14.332 1.929,4.38 4.632,8.217 8.029,11.41 3.392,3.189 7.456,5.725 12.09,7.532 4.623,1.802 9.716,2.72 15.141,2.72 2.979,0 5.803,-0.14 8.396,-0.424 2.603,-0.282 5.1,-0.734 7.424,-1.34 2.321,-0.604 4.543,-1.388 6.606,-2.336 2.062,-0.943 4.07,-2.088 5.966,-3.395 0.347,-0.236 0.551,-0.628 0.551,-1.047 v -28.667 c 0,-0.7 -0.568,-1.271 -1.27,-1.271 h -25.69 c -0.703,0 -1.272,0.57 -1.272,1.271 v 6.892 1.779 2.8 c 0,0.704 0.569,1.272 1.272,1.272 h 9.243 v 8.143 c -1.282,0.456 -2.639,0.835 -4.051,1.128 -1.688,0.354 -3.668,0.534 -5.887,0.534 -2.866,0 -5.541,-0.482 -7.942,-1.429 -2.383,-0.938 -4.469,-2.321 -6.195,-4.106 -1.738,-1.792 -3.124,-4.027 -4.113,-6.649 -1,-2.64 -1.507,-5.718 -1.507,-9.151 0,-3.1 0.46,-5.941 1.363,-8.446 0.897,-2.485 2.187,-4.64 3.826,-6.396 1.633,-1.752 3.647,-3.131 5.979,-4.097 2.345,-0.975 5.035,-1.463 7.997,-1.463 1.634,0 3.12,0.073 4.415,0.222 1.287,0.146 2.523,0.39 3.672,0.707 1.155,0.326 2.3,0.748 3.403,1.258 1.159,0.537 6.553,3.609 7.804,4.312 0.856,0.479 1.382,0.509 1.954,-0.3 l 7.269,-10.613 c 0.369,-0.521 0.288,-1.246 -0.193,-1.674 -1.514,-1.353 -3.248,-2.621 -5.153,-3.777 z" /><path
         style="fill:#463014"
         id="path207"
         d="m 126.014,397.661 c -0.793,-1.225 -1.745,-2.283 -2.828,-3.146 -0.343,-0.273 -0.691,-0.531 -1.051,-0.775 1.482,-0.683 2.849,-1.481 4.081,-2.373 1.898,-1.376 3.526,-2.963 4.836,-4.723 1.319,-1.77 2.326,-3.721 2.994,-5.8 0.667,-2.078 1.003,-4.304 1.003,-6.634 0,-3.05 -0.57,-5.916 -1.692,-8.522 -1.141,-2.644 -2.983,-4.963 -5.472,-6.89 -2.455,-1.895 -5.641,-3.387 -9.468,-4.439 -3.78,-1.033 -8.389,-1.555 -13.701,-1.555 H 81.208 c -0.702,0 -1.27,0.568 -1.27,1.27 v 67.912 c 0,0.698 0.568,1.27 1.27,1.27 h 16.763 c 0.702,0 1.27,-0.571 1.27,-1.27 v -23.857 h 2.995 c 1.336,0 2.05,0.229 2.41,0.418 0.501,0.263 0.958,0.734 1.365,1.396 l 12.004,19.724 c 1.463,2.384 3.865,3.589 7.132,3.589 h 15.177 c 0.017,0.002 0.034,0 0.042,0 0.705,0 1.272,-0.571 1.272,-1.27 0,-0.365 -0.153,-0.695 -0.399,-0.926 z m -10.493,-18.546 c -0.397,1.109 -1.022,2.051 -1.902,2.883 -0.894,0.834 -2.063,1.502 -3.483,1.981 -1.463,0.497 -3.286,0.749 -5.419,0.749 h -5.476 v -17.594 h 5.476 c 4.009,0 6.968,0.754 8.794,2.235 1.77,1.438 2.629,3.401 2.629,6.005 0.003,1.341 -0.207,2.597 -0.619,3.741 z" /><path
         style="fill:#463014"
         id="path209"
         d="M 210.252,352.804 H 193.49 c -0.704,0 -1.27,0.569 -1.27,1.271 v 40.223 c 0,2.241 -0.305,4.258 -0.901,5.999 -0.585,1.698 -1.435,3.151 -2.526,4.321 -1.089,1.158 -2.444,2.065 -4.03,2.691 -3.224,1.272 -7.894,1.272 -11.119,0 -1.582,-0.626 -2.934,-1.537 -4.022,-2.712 -1.094,-1.184 -1.946,-2.645 -2.531,-4.351 -0.594,-1.731 -0.899,-3.751 -0.899,-5.996 v -40.178 c 0,-0.7 -0.568,-1.27 -1.27,-1.27 h -16.763 c -0.702,0 -1.27,0.569 -1.27,1.27 v 40.223 c 0,4.314 0.75,8.335 2.226,11.948 1.484,3.636 3.655,6.814 6.455,9.443 2.79,2.622 6.226,4.69 10.205,6.141 3.954,1.44 8.47,2.171 13.43,2.171 4.924,0 9.424,-0.732 13.383,-2.171 3.979,-1.452 7.408,-3.519 10.202,-6.141 2.8,-2.631 4.979,-5.804 6.479,-9.436 1.495,-3.621 2.252,-7.644 2.252,-11.954 v -40.223 c 0,-0.7 -0.566,-1.269 -1.269,-1.269 z" /><path
         style="fill:#463014"
         id="path211"
         d="m 289.203,352.804 h -14.781 c -0.701,0 -1.269,0.569 -1.269,1.271 v 35.936 c 0,1.075 0.03,2.217 0.093,3.428 l -31.793,-37.781 c -0.513,-0.581 -0.967,-1.043 -1.366,-1.385 -0.466,-0.396 -0.96,-0.705 -1.462,-0.92 -0.503,-0.219 -1.068,-0.365 -1.688,-0.443 -0.536,-0.068 -1.204,-0.102 -1.992,-0.102 h -8.83 c -0.698,0 -1.268,0.568 -1.268,1.27 v 67.912 c 0,0.698 0.569,1.27 1.268,1.27 h 14.781 c 0.701,0 1.274,-0.571 1.274,-1.27 v -36.4 c 0,-0.904 -0.028,-1.854 -0.083,-2.869 l 31.554,37.471 c 0.956,1.147 1.987,1.961 3.068,2.414 1.045,0.434 2.313,0.654 3.763,0.654 h 8.729 c 0.698,0 1.268,-0.571 1.268,-1.27 v -67.912 c 0.002,-0.705 -0.566,-1.274 -1.266,-1.274 z" /><path
         style="fill:#463014"
         id="path213"
         d="m 358.532,352.804 h -57.431 c -0.701,0 -1.272,0.569 -1.272,1.271 v 12.49 c 0,0.701 0.571,1.272 1.272,1.272 h 19.064 v 54.149 c 0,0.698 0.57,1.27 1.272,1.27 h 16.759 c 0.702,0 1.272,-0.571 1.272,-1.27 v -54.149 h 19.061 c 0.7,0 1.271,-0.571 1.271,-1.272 v -12.49 c 0.003,-0.702 -0.568,-1.271 -1.268,-1.271 z" /></g></g></svg>