<?xml version="1.0" encoding="UTF-8" standalone="no"?>
<svg
   xmlns:dc="http://purl.org/dc/elements/1.1/"
   xmlns:cc="http://creativecommons.org/ns#"
   xmlns:rdf="http://www.w3.org/1999/02/22-rdf-syntax-ns#"
   xmlns:svg="http://www.w3.org/2000/svg"
   xmlns="http://www.w3.org/2000/svg"
   id="svg88"
   preserveAspectRatio="xMidYMid"
   version="1.1"
   viewBox="0 0 500 416.99219"
   height="416.99219"
   width="500">
  <metadata
     id="metadata92">
    <rdf:RDF>
      <cc:Work
         rdf:about="">
        <dc:format>image/svg+xml</dc:format>
        <dc:type
           rdf:resource="http://purl.org/dc/dcmitype/StillImage" />
        <dc:title></dc:title>
      </cc:Work>
    </rdf:RDF>
  </metadata>
  <defs
     id="defs52">
    <linearGradient
       gradientUnits="userSpaceOnUse"
       gradientTransform="scale(1.1880675,0.84170301)"
       id="linearGradient-1"
       y2="29.177988"
       x2="98.768127"
       y1="82.87793"
       x1="98.768127">
      <stop
         id="stop2"
         offset="0%"
         stop-color="#8AC23E" />
      <stop
         id="stop4"
         offset="100%"
         stop-opacity="0"
         stop-color="#8AC23E" />
    </linearGradient>
    <linearGradient
       gradientUnits="userSpaceOnUse"
       gradientTransform="scale(1.1871361,0.84236342)"
       id="linearGradient-2"
       y2="53.692024"
       x2="111.47795"
       y1="0.034187242"
       x1="111.47795">
      <stop
         id="stop7"
         offset="0%"
         stop-color="#698932" />
      <stop
         id="stop9"
         offset="100%"
         stop-opacity="0"
         stop-color="#698932" />
    </linearGradient>
    <linearGradient
       gradientUnits="userSpaceOnUse"
       gradientTransform="scale(1.1880675,0.84170301)"
       id="linearGradient-3"
       y2="53.73415"
       x2="134.70447"
       y1="0.034214064"
       x1="134.70447">
      <stop
         id="stop12"
         offset="0%"
         stop-color="#FFED01" />
      <stop
         id="stop14"
         offset="100%"
         stop-opacity="0"
         stop-color="#FFED01" />
    </linearGradient>
    <linearGradient
       gradientUnits="userSpaceOnUse"
       gradientTransform="scale(1.1880675,0.84170301)"
       id="linearGradient-4"
       y2="53.750431"
       x2="175.92509"
       y1="0.034214064"
       x1="175.92509">
      <stop
         id="stop17"
         offset="0%"
         stop-color="#E02A89" />
      <stop
         id="stop19"
         offset="100%"
         stop-opacity="0"
         stop-color="#E02A89" />
    </linearGradient>
    <linearGradient
       gradientUnits="userSpaceOnUse"
       gradientTransform="scale(1.1880675,0.84170301)"
       id="linearGradient-5"
       y2="136.57787"
       x2="188.60587"
       y1="82.87793"
       x1="188.60587">
      <stop
         id="stop22"
         offset="0%"
         stop-color="#7F1E4F" />
      <stop
         id="stop24"
         offset="100%"
         stop-opacity="0"
         stop-color="#7F1E4F" />
    </linearGradient>
    <linearGradient
       gradientUnits="userSpaceOnUse"
       gradientTransform="scale(1.1880675,0.84170301)"
       id="linearGradient-6"
       y2="136.57787"
       x2="147.36351"
       y1="82.87793"
       x1="147.36351">
      <stop
         id="stop27"
         offset="0%"
         stop-color="#E95506" />
      <stop
         id="stop29"
         offset="100%"
         stop-opacity="0"
         stop-color="#E95506" />
    </linearGradient>
    <linearGradient
       gradientUnits="userSpaceOnUse"
       gradientTransform="scale(1.1880675,0.84170301)"
       id="linearGradient-7"
       y2="29.212204"
       x2="26.837786"
       y1="82.87793"
       x1="26.837786">
      <stop
         id="stop32"
         offset="0%"
         stop-color="#88D0F1" />
      <stop
         id="stop34"
         offset="100%"
         stop-opacity="0"
         stop-color="#88D0F1" />
    </linearGradient>
    <linearGradient
       gradientUnits="userSpaceOnUse"
       gradientTransform="scale(1.1880675,0.84170301)"
       id="linearGradient-8"
       y2="53.69994"
       x2="39.486897"
       y1="0.034214064"
       x1="39.486897">
      <stop
         id="stop37"
         offset="0%"
         stop-color="#00828B" />
      <stop
         id="stop39"
         offset="83.25%"
         stop-opacity="0"
         stop-color="#00828B" />
    </linearGradient>
    <linearGradient
       gradientUnits="userSpaceOnUse"
       gradientTransform="scale(1.1871361,0.84236342)"
       id="linearGradient-9"
       y2="111.9848"
       x2="39.506592"
       y1="165.59219"
       x1="39.506592">
      <stop
         id="stop42"
         offset="0%"
         stop-color="#2073BA" />
      <stop
         id="stop44"
         offset="100%"
         stop-opacity="0"
         stop-color="#2073BA" />
    </linearGradient>
    <linearGradient
       gradientUnits="userSpaceOnUse"
       gradientTransform="scale(1.1880675,0.84170301)"
       id="linearGradient-10"
       y2="53.69994"
       x2="62.800556"
       y1="0.034214064"
       x1="62.800556">
      <stop
         id="stop47"
         offset="0%"
         stop-color="#8ED0E1" />
      <stop
         id="stop49"
         offset="100%"
         stop-opacity="0"
         stop-color="#88D0F1" />
    </linearGradient>
  </defs>
  <g
     transform="scale(1.953125)"
     id="g86">
    <path
       style="fill:#272525"
       id="path54"
       d="m 80.9,176 c -1.2,-1.6 -2.8,-2.9 -4.8,-3.8 -2,-0.9 -4.6,-1.4 -7.8,-1.4 -1.2,0 -2.5,0.1 -3.7,0.4 -1.2,0.3 -2.4,0.6 -3.5,1 -1.1,0.4 -2.1,0.8 -3,1.3 -0.9,0.5 -1.6,0.9 -2.2,1.3 -1.2,-1.2 -2.7,-2.2 -4.5,-2.9 -1.8,-0.7 -4.1,-1.1 -6.9,-1.1 -3.3,0 -6.4,0.2 -9.3,0.7 -2.9,0.5 -5.3,1 -7.1,1.5 v 39.3 h 9.4 v -32.8 c 0.6,-0.1 1.6,-0.2 2.8,-0.4 1.2,-0.2 2.4,-0.2 3.4,-0.2 2.9,0 4.9,0.9 5.9,2.8 1.1,1.9 1.6,5 1.6,9.2 v 21.4 h 9.4 v -22.5 c 0,-1.7 -0.1,-3.2 -0.2,-4.7 -0.2,-1.5 -0.4,-2.8 -0.9,-4.1 0.7,-0.5 1.7,-0.9 3,-1.4 1.3,-0.5 2.8,-0.7 4.3,-0.7 3,0 4.9,0.9 6,2.8 1,1.9 1.6,5 1.6,9.2 v 21.4 H 84 v -22.8 c 0,-2.7 -0.2,-5.3 -0.7,-7.6 -0.4,-2.3 -1.2,-4.3 -2.4,-5.9 z m 36.5,-0.9 c -1.3,-1.4 -3,-2.5 -5.1,-3.3 -2.1,-0.8 -4.6,-1.1 -7.7,-1.2 h -0.2 c -2.6,0 -5,0.2 -7.3,0.6 -2.3,0.4 -4,0.8 -5.2,1.2 l 1.2,7.6 c 1.1,-0.4 2.6,-0.8 4.4,-1.1 1.8,-0.3 3.8,-0.5 6,-0.5 h 1.1 c 1.1,0.1 2.1,0.3 2.9,0.6 1.1,0.4 1.9,1 2.6,1.7 0.6,0.8 1.1,1.6 1.4,2.6 0.3,1 0.4,2 0.4,3.1 v 1.6 c -1.3,-0.3 -2.5,-0.5 -3.7,-0.7 -1.1,-0.1 -2.2,-0.2 -3.3,-0.2 h -0.3 c -2.1,0 -4.2,0.2 -6.1,0.7 -2,0.4 -3.8,1.2 -5.4,2.2 -1.6,1 -2.8,2.3 -3.7,3.9 -0.9,1.6 -1.4,3.6 -1.4,5.9 0,2.4 0.4,4.5 1.2,6.1 0.8,1.7 1.9,3 3.3,4 1.4,1 3.1,1.8 5.2,2.3 2,0.5 4.2,0.7 6.7,0.7 h 0.2 c 3.6,0 6.8,-0.2 9.7,-0.7 2.9,-0.4 5.1,-0.8 6.6,-1.1 v -24.6 c 0,-2.4 -0.3,-4.6 -0.8,-6.6 -0.5,-1.7 -1.4,-3.4 -2.7,-4.8 z m -5.5,30.2 c -1.5,0.3 -3.7,0.5 -6.6,0.5 h -0.6 c -2.1,-0.1 -3.8,-0.5 -5.1,-1.3 -1.4,-0.9 -2.1,-2.4 -2.1,-4.6 0,-1.1 0.3,-2.1 0.8,-2.8 0.5,-0.8 1.2,-1.3 2.1,-1.7 0.9,-0.4 1.8,-0.7 2.9,-0.9 0.5,-0.1 1,-0.1 1.5,-0.2 0.6,0 1.1,-0.1 1.7,-0.1 1.2,0 2.3,0.1 3.3,0.2 1,0.2 1.7,0.3 2.3,0.5 v 10.4 z m 36.5,-34 c -0.8,-0.1 -1.7,-0.2 -2.5,-0.3 -0.8,-0.1 -1.6,-0.1 -2.2,-0.1 -3.3,0 -6.3,0.3 -9.1,0.9 -2.7,0.6 -5,1.2 -6.8,1.9 v 38.7 h 9.4 v -32.6 c 0.5,-0.2 1.3,-0.3 2.4,-0.5 1.2,-0.2 2.3,-0.3 3.3,-0.3 1.8,0 3.4,0.1 4.8,0.4 1.4,0.3 2.4,0.6 3.2,0.8 l 1.6,-7.9 c -0.5,-0.2 -1.1,-0.3 -1.9,-0.5 -0.5,-0.3 -1.3,-0.4 -2.2,-0.5 z m 34.3,29.1 c -1.6,-2.1 -3.3,-4 -5,-5.9 -1.7,-1.8 -3.3,-3.4 -4.9,-4.7 2.9,-3 5.8,-6 8.6,-9.1 2.9,-3.1 5.6,-6.1 8.2,-9 h -11.1 c -0.8,1 -1.8,2.1 -3,3.5 -1.2,1.3 -2.4,2.7 -3.7,4.1 -1.3,1.4 -2.6,2.8 -4,4.3 -1.3,1.4 -2.6,2.8 -3.8,4 V 152 l -9.4,1.6 v 58.7 h 9.4 v -18.6 c 1.4,1 2.8,2.3 4.3,3.8 1.5,1.5 2.9,3 4.3,4.7 1.4,1.7 2.7,3.4 3.9,5.1 1.2,1.8 2.3,3.4 3.2,5.1 h 10.9 c -0.9,-1.8 -2.1,-3.7 -3.5,-5.8 -1.3,-2.1 -2.8,-4.2 -4.4,-6.2 z m 43.6,-17.2 c -1,-2.6 -2.3,-4.9 -4,-6.7 -1.7,-1.9 -3.8,-3.3 -6.2,-4.3 -2.4,-1 -5,-1.5 -7.9,-1.5 -2.8,0 -5.5,0.5 -7.8,1.5 -2.4,1 -4.4,2.4 -6.2,4.3 -1.7,1.9 -3.1,4.1 -4,6.7 -1,2.6 -1.4,5.5 -1.4,8.7 0,3.2 0.5,6.1 1.4,8.8 1,2.6 2.3,4.9 4,6.8 1.7,1.9 3.8,3.3 6.1,4.4 2.4,1 5,1.6 7.9,1.6 2.9,0 5.6,-0.5 8,-1.6 2.4,-1 4.5,-2.5 6.2,-4.4 1.7,-1.9 3,-4.1 4,-6.8 0.9,-2.6 1.4,-5.6 1.4,-8.8 0,-3.2 -0.5,-6.1 -1.5,-8.7 z m -10.8,18.5 c -1.7,2.4 -4.2,3.6 -7.3,3.6 -3.1,0 -5.5,-1.2 -7.3,-3.6 -1.7,-2.4 -2.6,-5.6 -2.6,-9.7 0,-4 0.9,-7.2 2.6,-9.6 1.7,-2.4 4.2,-3.5 7.3,-3.5 3.1,0 5.5,1.2 7.3,3.5 1.7,2.4 2.6,5.6 2.6,9.6 0,4.1 -0.9,7.3 -2.6,9.7 z" />
    <path
       style="fill:#8dc220"
       id="path56"
       d="m 128.1,0 h 36.1 c -13.3,21.8 -28,45.8 -42.7,69.7 H 85.4 C 100.1,45.8 114.8,21.8 128.1,0 Z" />
    <path
       style="fill:#44bfef"
       id="path58"
       d="M 42.7,0 H 78.8 C 71.7,11.6 64.5,23.3 57.4,34.9 50.3,46.5 43.2,58.1 36.1,69.7 c 7.1,11.6 14.2,23.3 21.3,34.9 7.1,11.6 14.2,23.2 21.4,34.8 H 42.7 C 35.6,127.8 28.4,116.2 21.3,104.6 14.2,93.1 7.1,81.4 0,69.8 7.1,58.2 14.2,46.6 21.3,35 28.4,23.3 35.6,11.7 42.7,0 Z" />
    <path
       style="fill:#00ac71"
       id="path60"
       d="m 42.7,0 v 0 c 14.7,24 29.4,48 42.7,69.7 h 36.1 C 108.2,48 93.5,24 78.8,0 v 0 z" />
    <path
       style="fill:#f9bc00"
       id="path62"
       d="m 164.2,0 h -36.1 c 7.1,11.6 14.2,23.3 21.4,34.9 7.1,11.6 14.2,23.2 21.4,34.8 -7.1,11.6 -14.3,23.3 -21.4,34.9 -7.1,11.6 -14.2,23.2 -21.4,34.8 h 36.1 c 7.1,-11.6 14.2,-23.2 21.4,-34.8 C 192.7,93 199.8,81.4 207,69.7 199.8,58.1 192.7,46.5 185.6,34.9 178.5,23.3 171.3,11.7 164.2,0 Z" />
    <path
       style="fill:url(#linearGradient-1)"
       id="path64"
       d="m 149.3,24.6 h -36.1 c -4.6,7.5 -9.2,15.1 -13.8,22.6 -4.6,7.5 -9.2,15.1 -13.9,22.6 h 36.1 c 4.6,-7.5 9.3,-15.1 13.9,-22.6 4.5,-7.6 9.1,-15.1 13.8,-22.6 z" />
    <path
       style="fill:url(#linearGradient-2)"
       id="path66"
       d="m 100.5,45.2 h 36.1 c 4.6,-7.5 9.2,-15.1 13.8,-22.6 C 155,15.1 159.6,7.5 164.2,0 h -36.1 c -4.6,7.5 -9.2,15.1 -13.8,22.6 -4.6,7.6 -9.2,15.1 -13.8,22.6 z" />
    <path
       style="fill:url(#linearGradient-3)"
       id="path68"
       d="M 191.9,45.2 H 155.8 C 151.2,37.7 146.5,30.1 141.9,22.6 137.3,15.1 132.7,7.5 128.1,0 h 36.1 c 4.6,7.5 9.2,15.1 13.8,22.6 4.7,7.6 9.3,15.1 13.9,22.6 z" />
    <path
       style="fill:#df1b1c"
       id="path70"
       d="m 213.2,0 h -36.1 c 7.1,11.7 14.2,23.3 21.3,34.9 7.1,11.6 14.3,23.2 21.4,34.8 -7.1,11.6 -14.3,23.3 -21.4,34.9 -7.1,11.6 -14.2,23.2 -21.4,34.8 h 36.1 c 7.1,-11.6 14.2,-23.2 21.4,-34.8 C 241.6,93 248.7,81.4 255.9,69.7 248.8,58.1 241.7,46.5 234.5,34.9 227.5,23.3 220.3,11.7 213.2,0 Z" />
    <path
       style="fill:url(#linearGradient-4)"
       id="path72"
       d="M 240.9,45.2 H 204.8 C 200.1,37.7 195.5,30.1 190.9,22.6 186.3,15.1 181.7,7.5 177.1,0 h 36.1 c 4.6,7.5 9.2,15.1 13.8,22.6 4.6,7.6 9.3,15.1 13.9,22.6 z" />
    <path
       style="fill:url(#linearGradient-5)"
       id="path74"
       d="m 192.2,115 h 36.1 c 4.6,-7.5 9.2,-15 13.8,-22.6 4.6,-7.5 9.2,-15.1 13.9,-22.6 h -36.2 c -4.6,7.5 -9.2,15.1 -13.8,22.6 -4.6,7.5 -9.2,15 -13.8,22.6 z" />
    <path
       style="fill:url(#linearGradient-6)"
       id="path76"
       d="m 143.2,115 h 36.1 c 4.6,-7.5 9.2,-15.1 13.8,-22.6 4.6,-7.5 9.2,-15.1 13.9,-22.6 h -36.1 c -4.6,7.5 -9.2,15.1 -13.8,22.6 -4.7,7.5 -9.3,15 -13.9,22.6 z" />
    <path
       style="fill:url(#linearGradient-7)"
       id="path78"
       d="M 63.8,24.6 H 27.7 C 23.1,32.1 18.5,39.7 13.9,47.2 9.2,54.7 4.6,62.3 0,69.8 h 36.1 c 4.6,-7.5 9.2,-15 13.8,-22.6 4.6,-7.5 9.2,-15.1 13.9,-22.6 z" />
    <path
       style="fill:url(#linearGradient-8)"
       id="path80"
       d="M 15,45.2 H 51.1 C 55.7,37.7 60.3,30.1 64.9,22.6 69.6,15.1 74.2,7.5 78.8,0 H 42.7 C 38.1,7.5 33.5,15 28.9,22.6 24.3,30.1 19.7,37.7 15,45.2 Z" />
    <path
       style="fill:url(#linearGradient-9)"
       id="path82"
       d="m 15,94.3 h 36.1 c 4.6,7.5 9.2,15.1 13.8,22.6 4.6,7.5 9.2,15.1 13.8,22.6 H 42.6 C 38,132 33.3,124.5 28.7,116.9 24.2,109.4 19.6,101.9 15,94.3 Z" />
    <path
       style="fill:url(#linearGradient-10)"
       id="path84"
       d="M 106.5,45.2 H 70.4 C 65.8,37.7 61.2,30.1 56.6,22.6 51.9,15.1 47.3,7.5 42.7,0 h 36.1 c 4.6,7.5 9.2,15 13.8,22.6 4.7,7.5 9.3,15.1 13.9,22.6 z" />
  </g>
</svg>
