<?xml version="1.0" encoding="UTF-8" standalone="no"?>
<svg
   xmlns:dc="http://purl.org/dc/elements/1.1/"
   xmlns:cc="http://creativecommons.org/ns#"
   xmlns:rdf="http://www.w3.org/1999/02/22-rdf-syntax-ns#"
   xmlns:svg="http://www.w3.org/2000/svg"
   xmlns="http://www.w3.org/2000/svg"
   id="svg88"
   preserveAspectRatio="xMidYMid"
   version="1.1"
   viewBox="0 0 500 272.46094"
   height="272.46094"
   width="500">
  <metadata
     id="metadata92">
    <rdf:RDF>
      <cc:Work
         rdf:about="">
        <dc:format>image/svg+xml</dc:format>
        <dc:type
           rdf:resource="http://purl.org/dc/dcmitype/StillImage" />
        <dc:title></dc:title>
      </cc:Work>
    </rdf:RDF>
  </metadata>
  <defs
     id="defs52">
    <linearGradient
       gradientUnits="userSpaceOnUse"
       gradientTransform="scale(2.3204443,1.6439512)"
       id="linearGradient-1"
       y2="29.177988"
       x2="98.768127"
       y1="82.87793"
       x1="98.768127">
      <stop
         id="stop2"
         offset="0%"
         stop-color="#8AC23E" />
      <stop
         id="stop4"
         offset="100%"
         stop-opacity="0"
         stop-color="#8AC23E" />
    </linearGradient>
    <linearGradient
       gradientUnits="userSpaceOnUse"
       gradientTransform="scale(2.3186252,1.6452411)"
       id="linearGradient-2"
       y2="53.692024"
       x2="111.47795"
       y1="0.034187242"
       x1="111.47795">
      <stop
         id="stop7"
         offset="0%"
         stop-color="#698932" />
      <stop
         id="stop9"
         offset="100%"
         stop-opacity="0"
         stop-color="#698932" />
    </linearGradient>
    <linearGradient
       gradientUnits="userSpaceOnUse"
       gradientTransform="scale(2.3204443,1.6439512)"
       id="linearGradient-3"
       y2="53.73415"
       x2="134.70447"
       y1="0.034214064"
       x1="134.70447">
      <stop
         id="stop12"
         offset="0%"
         stop-color="#FFED01" />
      <stop
         id="stop14"
         offset="100%"
         stop-opacity="0"
         stop-color="#FFED01" />
    </linearGradient>
    <linearGradient
       gradientUnits="userSpaceOnUse"
       gradientTransform="scale(2.3204443,1.6439512)"
       id="linearGradient-4"
       y2="53.750431"
       x2="175.92509"
       y1="0.034214064"
       x1="175.92509">
      <stop
         id="stop17"
         offset="0%"
         stop-color="#E02A89" />
      <stop
         id="stop19"
         offset="100%"
         stop-opacity="0"
         stop-color="#E02A89" />
    </linearGradient>
    <linearGradient
       gradientUnits="userSpaceOnUse"
       gradientTransform="scale(2.3204443,1.6439512)"
       id="linearGradient-5"
       y2="136.57787"
       x2="188.60587"
       y1="82.87793"
       x1="188.60587">
      <stop
         id="stop22"
         offset="0%"
         stop-color="#7F1E4F" />
      <stop
         id="stop24"
         offset="100%"
         stop-opacity="0"
         stop-color="#7F1E4F" />
    </linearGradient>
    <linearGradient
       gradientUnits="userSpaceOnUse"
       gradientTransform="scale(2.3204443,1.6439512)"
       id="linearGradient-6"
       y2="136.57787"
       x2="147.36351"
       y1="82.87793"
       x1="147.36351">
      <stop
         id="stop27"
         offset="0%"
         stop-color="#E95506" />
      <stop
         id="stop29"
         offset="100%"
         stop-opacity="0"
         stop-color="#E95506" />
    </linearGradient>
    <linearGradient
       gradientUnits="userSpaceOnUse"
       gradientTransform="scale(2.3204443,1.6439512)"
       id="linearGradient-7"
       y2="29.212204"
       x2="26.837786"
       y1="82.87793"
       x1="26.837786">
      <stop
         id="stop32"
         offset="0%"
         stop-color="#88D0F1" />
      <stop
         id="stop34"
         offset="100%"
         stop-opacity="0"
         stop-color="#88D0F1" />
    </linearGradient>
    <linearGradient
       gradientUnits="userSpaceOnUse"
       gradientTransform="scale(2.3204443,1.6439512)"
       id="linearGradient-8"
       y2="53.69994"
       x2="39.486897"
       y1="0.034214064"
       x1="39.486897">
      <stop
         id="stop37"
         offset="0%"
         stop-color="#00828B" />
      <stop
         id="stop39"
         offset="83.25%"
         stop-opacity="0"
         stop-color="#00828B" />
    </linearGradient>
    <linearGradient
       gradientUnits="userSpaceOnUse"
       gradientTransform="scale(2.3186252,1.6452411)"
       id="linearGradient-9"
       y2="111.9848"
       x2="39.506592"
       y1="165.59219"
       x1="39.506592">
      <stop
         id="stop42"
         offset="0%"
         stop-color="#2073BA" />
      <stop
         id="stop44"
         offset="100%"
         stop-opacity="0"
         stop-color="#2073BA" />
    </linearGradient>
    <linearGradient
       gradientUnits="userSpaceOnUse"
       gradientTransform="scale(2.3204443,1.6439512)"
       id="linearGradient-10"
       y2="53.69994"
       x2="62.800556"
       y1="0.034214064"
       x1="62.800556">
      <stop
         id="stop47"
         offset="0%"
         stop-color="#8ED0E1" />
      <stop
         id="stop49"
         offset="100%"
         stop-opacity="0"
         stop-color="#88D0F1" />
    </linearGradient>
  </defs>
  <path
     d="m 250.19531,0 h 70.50781 c -25.97656,42.578125 -54.6875,89.453125 -83.39843,136.13281 H 166.79687 C 195.50781,89.453125 224.21875,42.578125 250.19531,0 Z"
     id="path56"
     style="fill:#8dc220;stroke-width:1.953125" />
  <path
     d="M 83.398437,0 H 153.90625 C 140.03906,22.65625 125.97656,45.507812 112.10938,68.164062 98.242187,90.820312 84.375,113.47656 70.507812,136.13281 c 13.867188,22.65625 27.734375,45.50781 41.601568,68.16406 13.86718,22.65625 27.73437,45.3125 41.79687,67.96875 H 83.398437 C 69.53125,249.60937 55.46875,226.95312 41.601562,204.29687 27.734375,181.83594 13.867188,158.98437 0,136.32812 13.867188,113.67188 27.734375,91.015625 41.601562,68.359375 55.46875,45.507812 69.53125,22.851562 83.398437,0 Z"
     id="path58"
     style="fill:#44bfef;stroke-width:1.953125" />
  <path
     d="m 83.398437,0 v 0 c 28.710943,46.875 57.421873,93.75 83.398433,136.13281 h 70.50782 C 211.32812,93.75 182.61719,46.875 153.90625,0 v 0 z"
     id="path60"
     style="fill:#00ac71;stroke-width:1.953125" />
  <path
     d="m 320.70312,0 h -70.50781 c 13.86719,22.65625 27.73438,45.507812 41.79688,68.164062 13.86718,22.65625 27.73437,45.312498 41.79687,67.968748 -13.86719,22.65625 -27.92969,45.50781 -41.79687,68.16406 -13.86719,22.65625 -27.73438,45.3125 -41.79688,67.96875 h 70.50781 c 13.86719,-22.65625 27.73438,-45.3125 41.79688,-67.96875 13.86719,-22.65625 27.73437,-45.3125 41.79687,-68.16406 C 390.23437,113.47656 376.36719,90.820312 362.5,68.164062 348.63281,45.507812 334.57031,22.851562 320.70312,0 Z"
     id="path62"
     style="fill:#f9bc00;stroke-width:1.953125" />
  <path
     d="M 291.60156,48.046875 H 221.09375 C 212.10938,62.695312 203.125,77.539062 194.14063,92.1875 c -8.98438,14.64844 -17.96875,29.49219 -27.14844,44.14063 H 237.5 c 8.98438,-14.64844 18.16406,-29.49219 27.14844,-44.14063 8.78906,-14.84375 17.77344,-29.492187 26.95312,-44.140625 z"
     id="path64"
     style="fill:url(#linearGradient-1);stroke-width:1.953125" />
  <path
     d="m 196.28906,88.28125 h 70.50781 C 275.78125,73.632812 284.76562,58.789062 293.75,44.140625 302.73437,29.492187 311.71875,14.648438 320.70312,0 h -70.50781 c -8.98437,14.648438 -17.96875,29.492187 -26.95312,44.140625 -8.98438,14.84375 -17.96875,29.492187 -26.95313,44.140625 z"
     id="path66"
     style="fill:url(#linearGradient-2);stroke-width:1.953125" />
  <path
     d="M 374.80469,88.28125 H 304.29687 C 295.3125,73.632812 286.13281,58.789062 277.14844,44.140625 268.16406,29.492187 259.17969,14.648438 250.19531,0 h 70.50781 c 8.98438,14.648438 17.96875,29.492187 26.95313,44.140625 9.17969,14.84375 18.16406,29.492187 27.14844,44.140625 z"
     id="path68"
     style="fill:url(#linearGradient-3);stroke-width:1.953125" />
  <path
     d="m 416.40625,0 h -70.50781 c 13.86718,22.851562 27.73437,45.507812 41.60156,68.164062 13.86719,22.65625 27.92969,45.312498 41.79687,67.968748 -13.86718,22.65625 -27.92968,45.50781 -41.79687,68.16406 -13.86719,22.65625 -27.73437,45.3125 -41.79688,67.96875 h 70.50782 c 13.86718,-22.65625 27.73437,-45.3125 41.79687,-67.96875 13.86719,-22.65625 27.73438,-45.3125 41.79688,-68.16406 C 485.9375,113.47656 472.07031,90.820312 458.00781,68.164062 444.33594,45.507812 430.27344,22.851562 416.40625,0 Z"
     id="path70"
     style="fill:#df1b1c;stroke-width:1.953125" />
  <path
     d="M 470.50781,88.28125 H 400 C 390.82031,73.632812 381.83594,58.789062 372.85156,44.140625 363.86719,29.492187 354.88281,14.648438 345.89844,0 h 70.50781 c 8.98437,14.648438 17.96875,29.492187 26.95312,44.140625 8.98438,14.84375 18.16407,29.492187 27.14844,44.140625 z"
     id="path72"
     style="fill:url(#linearGradient-4);stroke-width:1.953125" />
  <path
     d="m 375.39062,224.60937 h 70.50782 c 8.98437,-14.64843 17.96875,-29.29687 26.95312,-44.14062 8.98438,-14.64844 17.96875,-29.49219 27.14844,-44.14062 h -70.70313 c -8.98437,14.64843 -17.96874,29.49218 -26.95312,44.14062 -8.98438,14.64844 -17.96875,29.29687 -26.95313,44.14062 z"
     id="path74"
     style="fill:url(#linearGradient-5);stroke-width:1.953125" />
  <path
     d="m 279.6875,224.60937 h 70.50781 c 8.98438,-14.64843 17.96875,-29.49218 26.95313,-44.14062 8.98437,-14.64844 17.96875,-29.49219 27.14843,-44.14062 h -70.50781 c -8.98437,14.64843 -17.96875,29.49218 -26.95312,44.14062 -9.17969,14.64844 -18.16407,29.29687 -27.14844,44.14062 z"
     id="path76"
     style="fill:url(#linearGradient-6);stroke-width:1.953125" />
  <path
     d="M 124.60938,48.046875 H 54.101562 C 45.117187,62.695312 36.132812,77.539062 27.148437,92.1875 17.96875,106.83594 8.984375,121.67969 0,136.32812 H 70.507812 C 79.492187,121.67969 88.476562,107.03125 97.460938,92.1875 106.44531,77.539062 115.42969,62.695312 124.60938,48.046875 Z"
     id="path78"
     style="fill:url(#linearGradient-7);stroke-width:1.953125" />
  <path
     d="M 29.296875,88.28125 H 99.804687 C 108.78906,73.632812 117.77344,58.789062 126.75781,44.140625 135.9375,29.492187 144.92187,14.648438 153.90625,0 H 83.398437 C 74.414062,14.648438 65.429687,29.296875 56.445312,44.140625 47.460937,58.789062 38.476562,73.632812 29.296875,88.28125 Z"
     id="path80"
     style="fill:url(#linearGradient-8);stroke-width:1.953125" />
  <path
     d="m 29.296875,184.17969 h 70.507812 c 8.984373,14.64843 17.968753,29.49218 26.953123,44.14062 8.98438,14.64844 17.96875,29.49219 26.95313,44.14063 H 83.203125 C 74.21875,257.8125 65.039062,243.16406 56.054687,228.32031 47.265625,213.67187 38.28125,199.02344 29.296875,184.17969 Z"
     id="path82"
     style="fill:url(#linearGradient-9);stroke-width:1.953125" />
  <path
     d="M 208.00781,88.28125 H 137.5 C 128.51562,73.632812 119.53125,58.789062 110.54688,44.140625 101.36719,29.492187 92.382812,14.648438 83.398437,0 h 70.507813 c 8.98437,14.648438 17.96875,29.296875 26.95313,44.140625 9.17968,14.648437 18.16406,29.492187 27.14843,44.140625 z"
     id="path84"
     style="fill:url(#linearGradient-10);stroke-width:1.953125" />
</svg>
