<?xml version="1.0" encoding="UTF-8"?>
<svg id="Layer_1" data-name="Layer 1" xmlns="http://www.w3.org/2000/svg" xmlns:xlink="http://www.w3.org/1999/xlink" viewBox="0 0 575.19 500">
  <defs>
    <style>
      .cls-1 {
        fill: none;
      }

      .cls-2 {
        fill: #fff;
      }

      .cls-3 {
        clip-path: url(#clippath);
      }
    </style>
    <clipPath id="clippath">
      <rect class="cls-1" x="-.08" width="500" height="500" rx="125" ry="125"/>
    </clipPath>
  </defs>
  <g class="cls-3">
    <g>
      <g id="Background">
        <rect class="cls-1" x="-.08" width="500" height="500"/>
      </g>
      <g id="NativeScript-Logo">
        <path class="cls-2" d="M411.54,249.93v.54c0,.12-.1.23-.22.24-16.29,1.52-29.04,14.76-29.04,31.45v66.87c0,4.67-.98,9.18-2.75,13.3-5.05,11.75-16.52,20.3-29.86,20.3h-33.79l-.23-.29-131.44-164.71v165h-34.02c-18.01,0-32.62-14.6-32.62-32.62v-67.84c0-16.69-12.75-29.92-29.04-31.45-.12-.01-.22-.12-.22-.24v-.54c0-.12.09-.23.22-.24,16.23-1.58,28.92-15.15,28.92-31.8v-67.9c0-4.54.93-8.86,2.6-12.78,4.97-11.66,16.54-19.83,30.01-19.83h34.01l.14.17,131.44,164.71V117.38h34.15c18.01,0,32.62,14.6,32.62,32.62v67.9c0,16.65,12.68,30.21,28.92,31.8.12.01.22.12.22.24"/>
      </g>
    </g>
  </g>
  <g>
    <path class="cls-2" d="M518.3,38.12h-8.08V6.73h-10.35V0h28.79v6.73h-10.35v31.39Z"/>
    <path class="cls-2" d="M550.65,38.12l-9.18-29.91h-.23c.03.71.09,1.79.17,3.22s.15,2.96.22,4.58c.07,1.62.1,3.08.1,4.38v17.73h-7.22V0h11l9.02,29.15h.16l9.57-29.15h11v38.12h-7.54v-18.04c0-1.2.02-2.58.07-4.15s.1-3.06.17-4.47c.07-1.42.12-2.48.16-3.19h-.23l-9.83,29.86h-7.41Z"/>
  </g>
</svg>