<?xml version="1.0" encoding="UTF-8"?>
<svg id="Layer_1" data-name="Layer 1" xmlns="http://www.w3.org/2000/svg" xmlns:xlink="http://www.w3.org/1999/xlink" viewBox="0 0 554.19 500">
  <defs>
    <style>
      .cls-1 {
        fill: none;
      }

      .cls-2 {
        fill: #fff;
      }

      .cls-3 {
        clip-path: url(#clippath);
      }

      .cls-4 {
        fill: #68aded;
      }
    </style>
    <clipPath id="clippath">
      <rect class="cls-1" width="500" height="500" rx="125" ry="125"/>
    </clipPath>
  </defs>
  <g class="cls-3">
    <g>
      <g id="Background">
        <rect class="cls-2" width="500" height="500"/>
      </g>
      <g id="NativeScript-Logo">
        <path class="cls-4" d="M411.62,249.93v.54c0,.12-.1.23-.22.24-16.29,1.52-29.04,14.76-29.04,31.45v66.87c0,4.67-.98,9.18-2.75,13.3-5.05,11.75-16.52,20.3-29.86,20.3h-33.79l-.23-.29-131.44-164.71v165h-34.02c-18.01,0-32.62-14.6-32.62-32.62v-67.84c0-16.69-12.75-29.92-29.04-31.45-.12-.01-.22-.12-.22-.24v-.54c0-.12.09-.23.22-.24,16.23-1.58,28.92-15.15,28.92-31.8v-67.9c0-4.54.93-8.86,2.6-12.78,4.97-11.66,16.54-19.83,30.01-19.83h34.01l.14.17,131.44,164.71V117.38h34.15c18.01,0,32.62,14.6,32.62,32.62v67.9c0,16.65,12.68,30.21,28.92,31.8.12.01.22.12.22.24"/>
      </g>
    </g>
  </g>
  <g>
    <path class="cls-2" d="M532.08,39.79c-9.75,0-17.69-7.93-17.69-17.69s7.93-17.69,17.69-17.69,17.69,7.93,17.69,17.69-7.93,17.69-17.69,17.69ZM532.08,0c-12.19,0-22.11,9.92-22.11,22.11s9.92,22.11,22.11,22.11,22.11-9.92,22.11-22.11-9.92-22.11-22.11-22.11Z"/>
    <path class="cls-2" d="M532.76,23.88h-4.92v-10.32h4.92c7.83,0,7.83,10.32,0,10.32ZM532.31,10.61h-8.19v22.99h3.68v-6.79h6.23l3.89,6.79h3.89l-4.44-7.95c6.8-3.05,6.8-15.05-5.06-15.05Z"/>
  </g>
</svg>