<?xml version="1.0" encoding="UTF-8" standalone="no"?>
<svg
   xmlns:dc="http://purl.org/dc/elements/1.1/"
   xmlns:cc="http://creativecommons.org/ns#"
   xmlns:rdf="http://www.w3.org/1999/02/22-rdf-syntax-ns#"
   xmlns:svg="http://www.w3.org/2000/svg"
   xmlns="http://www.w3.org/2000/svg"
   viewBox="0 0 500 499.9737"
   height="499.97369"
   width="500"
   xml:space="preserve"
   id="svg2"
   version="1.1"><metadata
     id="metadata8"><rdf:RDF><cc:Work
         rdf:about=""><dc:format>image/svg+xml</dc:format><dc:type
           rdf:resource="http://purl.org/dc/dcmitype/StillImage" /><dc:title></dc:title></cc:Work></rdf:RDF></metadata><defs
     id="defs6" /><g
     transform="matrix(1.3333333,0,0,-1.3333333,0,513.72512)"
     id="g10"><g
       transform="matrix(2.1163036,0,0,2.1163036,0,-11.513072)"
       id="g107"><path
         id="path24"
         style="fill:#992094;fill-opacity:1;fill-rule:nonzero;stroke:none;stroke-width:0.29385307"
         d="m 177.19575,30.045301 c 0,-9.584635 -9.66629,-19.731734 -19.28411,-19.731734 H 18.291208 C 8.697375,10.313567 0,20.460666 0,30.045301 V 169.69427 C 0,179.27917 8.697375,187.5 18.291208,187.5 H 157.91164 c 9.61782,0 19.28411,-8.22083 19.28411,-17.80573 V 30.045301" /><path
         id="path26"
         style="fill:#ffffff;fill-opacity:1;fill-rule:nonzero;stroke:none;stroke-width:0.29385307"
         d="m 156.08535,92.244593 -4.53856,-21.329619 4.53856,21.329619" /><path
         id="path28"
         style="fill:#ffffff;fill-opacity:1;fill-rule:nonzero;stroke:none;stroke-width:0.29385307"
         d="m 144.43113,92.244593 -3.44131,-15.934477 3.44131,15.934477" /><path
         id="path30"
         style="fill:#ffffff;fill-opacity:1;fill-rule:nonzero;stroke:none;stroke-width:0.29385307"
         d="m 155.30135,93.792023 h -9.68217 c -0.54539,0 -1.09049,-0.72905 -1.18805,-1.254753 l -3.44131,-16.072293 -3.42985,-16.693499 c -0.12166,-0.547449 -0.66705,-1.752834 -1.20304,-1.752834 h -5.87236 -0.98382 c -6.7883,0 -6.009,5.395142 -4.63141,11.823178 0.0297,0.09756 0.0482,0.505134 0.0629,0.564786 l 0.14252,0.992929 c 0.009,0.03996 0.0273,0.186891 0.0273,0.233026 l 0.32147,1.695238 0.32736,1.794267 c 0.10196,0.524528 0.25359,1.325571 0.3441,1.819244 l 1.56917,7.646939 1.57388,7.949019 c 0.11255,0.525703 -0.24331,1.254753 -0.77959,1.254753 h -9.95868 c -0.54069,0 -1.07227,-0.72905 -1.17306,-1.254753 L 115.73785,82.233019 113.39966,71.399537 C 110.92601,60.14232 111.03855,49.484269 124.4215,49.484269 h 0.38789 21.02548 c 0.54539,0 1.0755,0 1.17776,0.545392 l 4.53416,21.117163 4.53856,21.506518 c 0.12165,0.507191 -0.2342,1.138681 -0.784,1.138681" /><path
         id="path32"
         style="fill:#ffffff;fill-opacity:1;fill-rule:nonzero;stroke:none;stroke-width:0.29385307"
         d="M 84.964971,101.27264 81.031159,85.58118 77.207543,72.52999 c -0.24331,-0.962956 -1.504821,-0.874507 -2.410476,-0.874507 H 56.242008 c -14.043238,0 -17.472797,11.461446 -14.043238,29.685917 3.433379,18.62177 10.454998,29.74469 24.300474,30.93274 18.939712,1.58974 23.038668,-13.77201 18.465727,-31.0015 M 97.038218,70.972275 c 0,0 8.745362,23.814734 10.723282,37.596145 2.69287,18.40814 -5.50298,45.11321 -37.254982,45.11321 -31.556,0 -45.279908,-25.49616 -50.510728,-53.21709 C 14.770701,72.5391 21.623443,48.043802 53.003748,48.23892 l 24.77769,0.109019 23.157092,0.0861 c 0.86657,0 1.78604,0.817206 2.01231,1.773404 l 4.02784,17.237715 c 0.22715,0.984701 -0.31354,1.773403 -1.20421,1.773403 l -3.86152,0.03791 -3.86711,0.02292 c -0.774597,0.01704 -1.193631,0.545098 -1.114585,1.293542 0.01851,0.127532 0.03908,0.261823 0.106963,0.399346" /></g></g></svg>