<?xml version="1.0" encoding="UTF-8" standalone="no"?>
<svg
   xmlns:dc="http://purl.org/dc/elements/1.1/"
   xmlns:cc="http://creativecommons.org/ns#"
   xmlns:rdf="http://www.w3.org/1999/02/22-rdf-syntax-ns#"
   xmlns:svg="http://www.w3.org/2000/svg"
   xmlns="http://www.w3.org/2000/svg"
   viewBox="0 0 931.57891 250"
   height="250"
   width="931.57892"
   xml:space="preserve"
   id="svg2"
   version="1.1"><metadata
     id="metadata8"><rdf:RDF><cc:Work
         rdf:about=""><dc:format>image/svg+xml</dc:format><dc:type
           rdf:resource="http://purl.org/dc/dcmitype/StillImage" /><dc:title></dc:title></cc:Work></rdf:RDF></metadata><defs
     id="defs6" /><g
     transform="matrix(1.3333333,0,0,-1.3333333,0,250)"
     id="g10"><g
       transform="scale(0.29385307)"
       id="g12"><path
         id="path14"
         style="fill:#ffffff;fill-opacity:1;fill-rule:nonzero;stroke:none"
         d="m 1591.4,614.574 h -89.26 c -4.94,0 -9.85,-5.176 -10.98,-10.008 l -31.69,-147.168 -31.65,-149.816 c -1.09,-4.844 -5.99,-12 -10.96,-12 h -63.19 c -62.44,0 -55.21,46.141 -42.42,105.398 0.14,0.598 25.59,132.024 25.59,132.024 l 14.38,71.562 c 1.03,4.832 -2.19,10.008 -7.16,10.008 h -91.68 c -4.94,0 -9.8,-5.176 -10.84,-10.008 l -41.26,-196.855 c -22.67,-103.645 -16.64,-199.738 106.73,-202.785 1.95,-0.028 197.41,0 197.41,0 4.94,0 9.88,1.269 10.87,6.074 l 41.47,197.539 41.79,196.75 c 1.07,4.844 -2.18,9.285 -7.15,9.285" /><path
         id="path16"
         style="fill:#ffffff;fill-opacity:1;fill-rule:nonzero;stroke:none"
         d="m 1054.01,421.965 -18.13,-64.106 -17.5,-56.472 c -1.12,-3.914 -6.83,-6.535 -10.87,-6.535 h -85.084 c -64.567,0 -80.242,49.882 -64.567,124.328 15.696,76.172 47.961,123.172 111.465,128.008 86.806,6.562 105.676,-54.786 84.686,-125.223 m 55.45,-123.899 c 0,0 40.08,97.481 49.26,153.661 12.32,75.371 -25.32,184.55 -170.962,184.55 -144.813,0 -207.703,-104.265 -231.684,-217.625 -23.965,-114.187 7.473,-214.316 151.406,-213.457 l 219.81,0.762 c 4.05,0.039 8.23,3.281 9.28,7.188 l 18.5,70.566 c 1.03,3.945 -1.49,7.227 -5.6,7.266 l -17.63,0.058 -17.81,0.137 c -3.43,0.066 -5.43,2.258 -5,5.234 0.07,0.567 0.17,1.133 0.43,1.66" /><path
         id="path18"
         style="fill:#ffffff;fill-opacity:1;fill-rule:nonzero;stroke:none"
         d="m 1876.45,219.117 c -1.3,-6.535 -7.8,-13.926 -14.43,-13.926 h -78.65 c -6.63,0 -10.9,7.391 -9.61,13.887 0,0 31.69,153.035 33.21,159.461 0,0 13.56,57.609 -29.1,57.609 h -36.06 c -6.7,0 -13.2,-5.402 -14.58,-11.867 l -43.86,-205.164 c -1.36,-6.504 -7.89,-13.926 -14.51,-13.926 h -76.04 c -6.56,0 -10.91,7.391 -9.51,13.887 l 62.51,296.258 c 1.39,6.496 7.89,14.348 14.51,14.348 0,0 130.73,0 160.2,0 129.1,0 90.05,-144.309 90.05,-144.309 -1.75,-6.297 -34.13,-166.258 -34.13,-166.258" /><path
         id="path20"
         style="fill:#ffffff;fill-opacity:1;fill-rule:nonzero;stroke:none"
         d="m 2062.65,546.195 c -28.44,0 -49.25,8.879 -41.69,44.18 7.61,35.363 32.21,44.18 60.58,44.18 27.15,0 48.63,-8.817 41,-44.18 -7.52,-34.637 -32.15,-44.18 -59.89,-44.18 m -25.19,-327.117 c -1.36,-6.496 -7.96,-13.887 -14.58,-13.887 h -79.29 c -6.63,0 -10.81,7.391 -9.41,13.829 l 63.93,293.683 c 1.45,6.43 7.94,12.922 14.51,12.922 h 77.06 c 6.66,0 10.91,-7.449 9.58,-13.953 l -61.8,-292.594" /><path
         id="path22"
         style="fill:#ffffff;fill-opacity:1;fill-rule:nonzero;stroke:none"
         d="m 2154.25,204.926 c -6.54,0.265 -10.66,7.855 -9.23,14.351 l 49.18,223.836 c 1.4,6.399 -2.81,11.731 -9.44,11.731 h -37.86 c -6.59,0 -10.77,5.246 -9.2,11.699 l 10.66,46.102 c 1.56,6.437 8.26,13.195 14.85,13.195 h 41.47 c 6.53,0 13.12,3.711 14.55,10.273 l 12.43,53.301 c 1.36,6.465 7.92,7.891 14.58,7.891 h 62.08 c 6.6,0 10.87,-2.188 9.48,-8.653 l -12.07,-54.121 c -1.35,-6.504 2.92,-8.691 9.48,-8.691 h 52.91 c 6.56,0 10.74,-6.758 9.24,-13.195 l -10.84,-46.395 c -1.45,-6.465 -8.15,-11.965 -14.74,-11.965 h -48.9 c -6.59,0 -13.15,-5.769 -14.65,-12.234 l -49.18,-225.586 c -1.33,-6.465 -7.89,-11.738 -14.45,-11.535 l -70.35,-0.004" /><path
         id="path24"
         style="fill:#992094;fill-opacity:1;fill-rule:nonzero;stroke:none"
         d="m 603.008,102.246 c 0,-32.6171 -32.895,-67.1483 -65.625,-67.1483 H 62.2461 C 29.5977,35.0977 0,69.6289 0,102.246 V 577.48 c 0,32.618 29.5977,60.594 62.2461,60.594 H 537.383 c 32.73,0 65.625,-27.976 65.625,-60.594 V 102.246" /><path
         id="path26"
         style="fill:#ffffff;fill-opacity:1;fill-rule:nonzero;stroke:none"
         d="m 531.168,313.914 -15.445,-72.586 15.445,72.586" /><path
         id="path28"
         style="fill:#ffffff;fill-opacity:1;fill-rule:nonzero;stroke:none"
         d="m 491.508,313.914 -11.711,-54.226 11.711,54.226" /><path
         id="path30"
         style="fill:#ffffff;fill-opacity:1;fill-rule:nonzero;stroke:none"
         d="m 528.5,319.18 h -32.949 c -1.856,0 -3.711,-2.481 -4.043,-4.27 l -11.711,-54.695 -11.672,-56.809 c -0.414,-1.863 -2.27,-5.965 -4.094,-5.965 h -19.984 -3.348 c -23.101,0 -20.449,18.36 -15.761,40.235 0.101,0.332 0.164,1.719 0.214,1.922 l 0.485,3.379 c 0.031,0.136 0.093,0.636 0.093,0.793 l 1.094,5.769 1.114,6.106 c 0.347,1.785 0.863,4.511 1.171,6.191 l 5.34,26.023 5.356,27.051 c 0.383,1.789 -0.828,4.27 -2.653,4.27 h -33.89 c -1.84,0 -3.649,-2.481 -3.992,-4.27 l -5.407,-35.066 -7.957,-36.867 c -8.418,-38.309 -8.035,-74.579 37.508,-74.579 h 1.32 71.551 c 1.856,0 3.66,0 4.008,1.856 l 15.43,71.863 15.445,73.188 c 0.414,1.726 -0.797,3.875 -2.668,3.875" /><path
         id="path32"
         style="fill:#ffffff;fill-opacity:1;fill-rule:nonzero;stroke:none"
         d="m 289.141,344.637 -13.387,-53.399 -13.012,-44.414 c -0.828,-3.277 -5.121,-2.976 -8.203,-2.976 h -63.144 c -47.79,0 -59.461,39.004 -47.79,101.023 11.684,63.371 35.579,101.223 82.696,105.266 64.453,5.41 78.402,-46.867 62.84,-105.5 m 41.086,-103.114 c 0,0 29.761,81.043 36.492,127.942 9.164,62.644 -18.727,153.523 -126.781,153.523 C 132.551,522.988 85.8477,436.223 68.0469,341.887 50.2656,246.855 73.5859,163.496 180.375,164.16 l 84.32,0.371 78.805,0.293 c 2.949,0 6.078,2.781 6.848,6.035 l 13.707,58.661 c 0.773,3.351 -1.067,6.035 -4.098,6.035 l -13.141,0.129 -13.16,0.078 c -2.636,0.058 -4.062,1.855 -3.793,4.402 0.063,0.434 0.133,0.891 0.364,1.359" /><path
         id="path34"
         style="fill:#ffffff;fill-opacity:1;fill-rule:nonzero;stroke:none"
         d="m 1295.6,150.906 24.49,3.367 -5.41,-25.21 -24.34,-3.36 z M 1254.76,16.3047 c 12.08,9.0781 14.64,10.418 16.27,18.4844 l 16.91,79.9919 24.51,3.36 -18.51,-87.2191 C 1291.71,20.1719 1288.3,14.2852 1265.78,0 l -11.02,16.3047" /><path
         id="path36"
         style="fill:#ffffff;fill-opacity:1;fill-rule:nonzero;stroke:none"
         d="m 1313.86,38.4844 5.14,17.4765 c 6.15,-2.1875 13.14,-4.1992 22.04,-4.1992 7.92,0 8.5,2.3477 9.3,6.2149 0.8,3.6992 -1.47,5.7148 -10.55,10.5937 -16.83,9.0703 -17.3,15.1211 -14.68,27.3867 3.81,17.645 9.19,22.348 31.88,22.348 7.74,0 17.6,-1.672 24.25,-3.864 l -4.48,-17.8082 c -6,1.6758 -14.88,3.0235 -20.59,3.0235 -7.06,0 -8.09,-0.8399 -9.09,-5.2149 -0.81,-3.8594 0.01,-4.6992 7.76,-8.9062 18.48,-10.0743 21.21,-13.6055 18.41,-26.5469 -4,-18.4844 -9.65,-25.8789 -34.2,-25.8789 -7.56,0 -18.08,2.1836 -25.19,5.375" /><path
         id="path38"
         style="fill:#ffffff;fill-opacity:1;fill-rule:nonzero;stroke:none"
         d="m 1445.1,61.1758 c -0.2,-0.8438 -0.4,-1.8516 -0.42,-2.5235 -0.06,-1.6796 0.75,-2.5195 3.1,-2.5195 4.38,0 15.31,4.707 21.46,7.7305 l 10.68,50.9177 24.5,3.36 -17.54,-83.3519 h -20.17 l 0.09,7.5625 c -12.98,-6.0469 -23.19,-9.2422 -32.61,-9.2422 -10.76,0 -14.74,6.3828 -14.38,16.6367 0.12,3.3633 0.55,6.0508 1.18,9.4102 l 11.69,55.6247 24.32,3.36 -11.9,-56.9652" /><path
         id="path40"
         style="fill:#ffffff;fill-opacity:1;fill-rule:nonzero;stroke:none"
         d="m 1566.15,90.4141 c 0.21,1.0078 0.4,1.8515 0.42,2.5195 0.06,1.6797 -0.75,2.3555 -3.1,2.3555 -4.38,0 -14.95,-4.3711 -21.47,-7.7344 l -11.09,-52.7656 h -23.71 l 16.76,79.8239 20.96,3.528 -0.49,-9.075 c 13,6.051 23.2,9.239 32.61,9.239 10.94,0 14.76,-6.215 14.4,-16.633 -0.11,-2.8556 -0.36,-5.2072 -1.18,-9.4064 l -12.1,-57.4765 h -23.71 l 11.7,55.625" /><path
         id="path42"
         style="fill:#ffffff;fill-opacity:1;fill-rule:nonzero;stroke:none"
         d="m 1622.22,150.906 24.5,3.367 -5.42,-25.21 -24.34,-3.36 z m -7.66,-36.125 24.49,3.36 -17.7,-83.3519 h -23.71 l 16.92,79.9919" /><path
         id="path44"
         style="fill:#ffffff;fill-opacity:1;fill-rule:nonzero;stroke:none"
         d="m 1682.89,97.6406 -8.65,-40.8398 c -0.21,-0.8399 -0.4,-1.6797 -0.42,-2.1836 -0.04,-1.1758 0.61,-1.6797 2.29,-1.6797 4.05,0 8.64,1.6797 12.9,3.3633 l 4.13,-16.4727 c -6.85,-3.6914 -16.7,-6.7187 -26.29,-6.7187 -11.94,0 -18.13,5.707 -17.79,15.4609 0.04,1.1758 0.26,2.3516 0.46,3.5274 l 9.66,45.5429 h -12.1 l 4.02,18.9924 h 12.11 l 4.05,19.656 24.5,3.363 -4.85,-23.019 h 19.52 l -5.38,-18.9924 h -18.16" /><path
         id="path46"
         style="fill:#ffffff;fill-opacity:1;fill-rule:nonzero;stroke:none"
         d="m 1778.37,97.6406 -8.65,-40.8398 c -0.2,-0.8399 -0.4,-1.6797 -0.42,-2.1836 -0.04,-1.1758 0.61,-1.6797 2.29,-1.6797 4.04,0 8.64,1.6797 12.9,3.3633 l 4.13,-16.4727 c -6.85,-3.6914 -16.71,-6.7187 -26.3,-6.7187 -11.93,0 -18.12,5.707 -17.78,15.4609 0.04,1.1758 0.25,2.3516 0.46,3.5274 l 9.66,45.5429 h -12.1 l 4.02,18.9924 h 12.11 l 4.04,19.656 24.51,3.363 -4.84,-23.019 h 19.5 l -5.37,-18.9924 h -18.16" /><path
         id="path48"
         style="fill:#ffffff;fill-opacity:1;fill-rule:nonzero;stroke:none"
         d="m 1849.74,95.2891 c 0.09,2.8554 -2.36,4.707 -6.73,4.707 -8.58,0 -11.28,-4.8789 -12.69,-11.5977 l -1.2,-5.7148 c 4.06,1.0078 5.92,1.3437 10.86,2.8516 6.45,1.8515 9.58,4.8789 9.76,9.7539 z m -43.17,-7.9024 c 4.03,18.8243 12.85,30.9183 38.75,30.9183 15.47,0 27,-6.719 26.53,-20.4964 -0.56,-15.9688 -9.06,-23.3594 -29.45,-29.4063 -10.02,-3.0273 -10.19,-3.0273 -17.32,-4.8789 l -1.2,-5.7109 c -0.62,-3.0273 -0.37,-5.7148 3.99,-5.7148 8.59,0 21.17,4.2031 32.44,9.0781 l 3.96,-16.8047 c -10.15,-6.2227 -25.96,-11.2617 -40.42,-11.2617 -16.98,0 -23.96,7.3945 -23.47,21.3398 0.1,3.0274 0.57,6.3906 1.36,9.9141 l 4.83,23.0234" /><path
         id="path50"
         style="fill:#ffffff;fill-opacity:1;fill-rule:nonzero;stroke:none"
         d="m 1873.8,38.4844 5.15,17.4765 c 6.14,-2.1875 13.13,-4.1992 22.04,-4.1992 7.91,0 8.48,2.3477 9.29,6.2149 0.81,3.6992 -1.47,5.7148 -10.55,10.5937 -16.83,9.0703 -17.3,15.1211 -14.68,27.3867 3.81,17.645 9.19,22.348 31.88,22.348 7.74,0 17.6,-1.672 24.25,-3.864 l -4.48,-17.8082 c -6,1.6758 -14.87,3.0235 -20.59,3.0235 -7.06,0 -8.1,-0.8399 -9.09,-5.2149 -0.81,-3.8594 0.01,-4.6992 7.77,-8.9062 18.47,-10.0743 21.21,-13.6055 18.4,-26.5469 -4,-18.4844 -9.65,-25.8789 -34.2,-25.8789 -7.56,0 -18.08,2.1836 -25.19,5.375" /><path
         id="path52"
         style="fill:#ffffff;fill-opacity:1;fill-rule:nonzero;stroke:none"
         d="m 1984.12,97.6406 -8.65,-40.8398 c -0.21,-0.8399 -0.4,-1.6797 -0.42,-2.1836 -0.04,-1.1758 0.61,-1.6797 2.29,-1.6797 4.05,0 8.64,1.6797 12.9,3.3633 l 4.14,-16.4727 c -6.86,-3.6914 -16.71,-6.7187 -26.3,-6.7187 -11.94,0 -18.13,5.707 -17.79,15.4609 0.04,1.1758 0.26,2.3516 0.46,3.5274 l 9.66,45.5429 h -12.1 l 4.02,18.9924 h 12.11 l 4.05,19.656 24.5,3.363 -4.85,-23.019 h 19.52 l -5.37,-18.9924 h -18.17" /><path
         id="path54"
         style="fill:#ffffff;fill-opacity:1;fill-rule:nonzero;stroke:none"
         d="m 2029.19,150.906 24.5,3.367 -5.42,-25.21 -24.33,-3.36 z m -7.66,-36.125 24.5,3.36 -17.71,-83.3519 h -23.71 l 16.92,79.9919" /><path
         id="path56"
         style="fill:#ffffff;fill-opacity:1;fill-rule:nonzero;stroke:none"
         d="m 2107.6,90.4141 c 0.2,1.0078 0.4,1.8515 0.42,2.5195 0.06,1.6797 -0.75,2.3555 -3.11,2.3555 -4.37,0 -14.95,-4.3711 -21.46,-7.7344 l -11.1,-52.7656 h -23.71 l 16.76,79.8239 20.97,3.528 -0.49,-9.075 c 13,6.051 23.19,9.239 32.61,9.239 10.93,0 14.75,-6.215 14.39,-16.633 -0.11,-2.8556 -0.35,-5.2072 -1.17,-9.4064 l -12.1,-57.4765 h -23.71 l 11.7,55.625" /><path
         id="path58"
         style="fill:#ffffff;fill-opacity:1;fill-rule:nonzero;stroke:none"
         d="m 2166.12,62.6836 c -0.99,-4.3672 0.12,-6.3828 4.32,-6.3828 5.21,0 13.74,3.3633 18.72,6.3828 l 7.45,35.2891 c -2.83,0.3359 -5.86,0.5078 -9.23,0.5078 -12.27,0 -14.83,-6.0508 -16.63,-13.9453 z m 19.02,-19.1523 c -7.04,-4.0391 -15.23,-7.0625 -24.13,-7.0625 -17.83,0 -21.82,10.9218 -17.98,29.2382 l 4.01,18.6563 c 4.42,20.6717 10.1,33.9417 45.08,33.9417 8.57,0 21.3,-1.504 31.61,-4.867 L 2204.41,22.6836 C 2200.59,4.375 2192.52,0 2170.66,0 c -9.75,0 -26.28,3.02734 -36.26,6.38672 l 4.78,16.63668 c 12.51,-3.0195 22.7,-4.7031 32.45,-4.7031 7.07,0 8.85,2.6914 10.05,8.2383 l 3.46,16.9727" /></g></g></svg>