<svg width="439" height="500" viewBox="0 0 439 500" fill="none" xmlns="http://www.w3.org/2000/svg">
<path fill-rule="evenodd" clip-rule="evenodd" d="M207.344 3.75412C210.964 1.69213 215.059 0.607849 219.226 0.607849C223.392 0.607849 227.487 1.69213 231.107 3.75412L426.798 116.998C434.258 121.198 438.451 129.122 438.451 137.509V363.082C438.412 367.21 437.321 371.259 435.282 374.847C433.243 378.436 430.323 381.446 426.798 383.593L231.107 496.843C227.487 498.905 223.392 499.989 219.226 499.989C215.059 499.989 210.965 498.905 207.344 496.843L11.6465 383.593C4.19351 379.399 0 371.476 0 363.082V137.045C0.0397678 132.919 1.12995 128.872 3.16765 125.284C5.20535 121.697 8.12339 118.688 11.6465 116.541L207.344 3.75412Z" fill="url(#paint0_linear_29_98)"/>
<path opacity="0.66" d="M425.864 116.534L231.101 3.28372C229.165 2.30625 227.137 1.52506 225.046 0.951843L4.65082 377.995C6.5189 380.327 8.84434 382.188 11.1762 383.586L207.337 496.843C213.393 500.103 219.918 501.037 225.973 498.705L431.919 121.662C430.339 119.494 428.262 117.736 425.864 116.534Z" fill="#4B4B4B"/>
<path d="M230.63 496.843L425.864 383.586C433.317 379.393 436.576 371.47 436.576 363.083V362.149L225.039 0.952231C218.984 -0.915848 212.458 0.0181882 206.867 3.28411L13.0375 115.13L223.641 499.169C226.437 498.699 228.768 498.241 230.63 496.843Z" fill="url(#paint1_linear_29_98)"/>
<defs>
<linearGradient id="paint0_linear_29_98" x1="-0.0450916" y1="250.231" x2="438.889" y2="250.231" gradientUnits="userSpaceOnUse">
<stop offset="0.005" stop-color="white"/>
<stop offset="0.194" stop-color="#E8E8E8"/>
<stop offset="0.542" stop-color="#C2C2C2"/>
<stop offset="0.824" stop-color="#ABABAB"/>
<stop offset="1" stop-color="#A3A3A3"/>
</linearGradient>
<linearGradient id="paint1_linear_29_98" x1="-3.08598" y1="249.909" x2="449.704" y2="249.909" gradientUnits="userSpaceOnUse">
<stop stop-color="#A3A3A3"/>
<stop offset="0.176" stop-color="#ABABAB"/>
<stop offset="0.458" stop-color="#C2C2C2"/>
<stop offset="0.806" stop-color="#E8E8E8"/>
<stop offset="0.995" stop-color="white"/>
</linearGradient>
</defs>
</svg>
