<svg id="Layer_1" data-name="Layer 1" xmlns="http://www.w3.org/2000/svg" xmlns:xlink="http://www.w3.org/1999/xlink" viewBox="0 0 442.41 270.95"><defs><style>.cls-1,.cls-6{fill:none;}.cls-1{clip-rule:evenodd;}.cls-2,.cls-3{fill:#333;}.cls-3,.cls-4{fill-rule:evenodd;}.cls-4{fill:url(#linear-gradient);}.cls-5{clip-path:url(#clip-path);}.cls-7{fill:#b4b4b4;opacity:0.66;}.cls-8{fill:url(#linear-gradient-2);}</style><linearGradient id="linear-gradient" x1="194.2" y1="279.8" x2="288.4" y2="279.8" gradientUnits="userSpaceOnUse"><stop offset="0.01"/><stop offset="0.19" stop-color="#171717"/><stop offset="0.54" stop-color="#3c3c3c"/><stop offset="0.82" stop-color="#545454"/><stop offset="1" stop-color="#5c5c5c"/></linearGradient><clipPath id="clip-path" transform="translate(-78.02 -164.27)"><path class="cls-1" d="M243.84,226.87a5,5,0,0,0-5.07,0l-42,24.25a5.06,5.06,0,0,0-2.54,4.4v48.55a5.07,5.07,0,0,0,2.53,4.39l42,24.28a5.12,5.12,0,0,0,5.08,0l42-24.28a5.08,5.08,0,0,0,2.54-4.39V255.52a5.08,5.08,0,0,0-2.54-4.4Z"/></clipPath><linearGradient id="linear-gradient-2" x1="193.55" y1="279.73" x2="290.72" y2="279.73" gradientUnits="userSpaceOnUse"><stop offset="0" stop-color="#5c5c5c"/><stop offset="0.18" stop-color="#545454"/><stop offset="0.46" stop-color="#3c3c3c"/><stop offset="0.81" stop-color="#171717"/><stop offset="0.99"/></linearGradient></defs><title>NodeJS_New_Black_RGB</title><path class="cls-2" d="M296.69,435.23a8.35,8.35,0,0,1-4.19-1.12l-13.34-7.9c-2-1.11-1-1.51-.37-1.74a26.5,26.5,0,0,0,6-2.74,1,1,0,0,1,1,.08l10.25,6.08a1.28,1.28,0,0,0,1.23,0l40-23.06a1.26,1.26,0,0,0,.61-1.08V357.64a1.29,1.29,0,0,0-.62-1.1l-39.94-23a1.23,1.23,0,0,0-1.23,0l-39.93,23.05a1.26,1.26,0,0,0-.63,1.09v46.11a1.22,1.22,0,0,0,.63,1.07l10.94,6.32c5.94,3,9.58-.53,9.58-4V361.58a1.15,1.15,0,0,1,1.16-1.15h5.06a1.15,1.15,0,0,1,1.16,1.15V407.1c0,7.93-4.31,12.47-11.83,12.47-2.31,0-4.12,0-9.2-2.5l-10.48-6a8.44,8.44,0,0,1-4.19-7.29V357.64a8.42,8.42,0,0,1,4.19-7.28l40-23.09a8.74,8.74,0,0,1,8.39,0l39.95,23.09a8.44,8.44,0,0,1,4.2,7.28v46.11a8.46,8.46,0,0,1-4.2,7.29l-39.95,23.07A8.33,8.33,0,0,1,296.69,435.23Z" transform="translate(-78.02 -164.27)"/><path class="cls-2" d="M309,403.46c-17.49,0-21.15-8-21.15-14.76a1.15,1.15,0,0,1,1.16-1.15h5.16a1.16,1.16,0,0,1,1.15,1c.78,5.26,3.1,7.91,13.68,7.91,8.41,0,12-1.9,12-6.37,0-2.57-1-4.48-14.1-5.76-10.93-1.08-17.69-3.5-17.69-12.24,0-8.06,6.79-12.87,18.19-12.87,12.79,0,19.13,4.44,19.93,14a1.15,1.15,0,0,1-1.15,1.26H321a1.15,1.15,0,0,1-1.12-.9c-1.24-5.54-4.27-7.31-12.47-7.31-9.19,0-10.26,3.21-10.26,5.6,0,2.91,1.26,3.76,13.67,5.4S329,381.14,329,389.77,321.69,403.46,309,403.46Z" transform="translate(-78.02 -164.27)"/><path class="cls-2" d="M366.64,355.11a7.7,7.7,0,1,1-7.7-7.71A7.73,7.73,0,0,1,366.64,355.11Zm-14.16,0a6.46,6.46,0,1,0,6.44-6.43A6.46,6.46,0,0,0,352.48,355.08Zm3.56-4.29h3c1,0,3,0,3,2.28a2,2,0,0,1-1.64,2.12c1.19.08,1.27.85,1.43,1.95a8.43,8.43,0,0,0,.45,2.28h-1.83c-.05-.4-.33-2.6-.33-2.73-.12-.48-.29-.73-.9-.73h-1.5v3.46H356Zm1.64,3.79H359a1.16,1.16,0,0,0,1.3-1.23c0-1.18-.81-1.18-1.26-1.18h-1.38Z" transform="translate(-78.02 -164.27)"/><path class="cls-3" d="M173,254.83a5.11,5.11,0,0,0-2.55-4.44L128.05,226a5,5,0,0,0-2.34-.67h-.43a5,5,0,0,0-2.34.67L80.58,250.39A5.12,5.12,0,0,0,78,254.83l.09,65.64a2.51,2.51,0,0,0,1.28,2.21,2.46,2.46,0,0,0,2.54,0l25.17-14.41a5.15,5.15,0,0,0,2.56-4.44V273.16a5.09,5.09,0,0,1,2.56-4.43l10.72-6.17a5.1,5.1,0,0,1,2.56-.69,5,5,0,0,1,2.55.69l10.71,6.17a5.09,5.09,0,0,1,2.56,4.43v30.67a5.17,5.17,0,0,0,2.57,4.44l25.16,14.41a2.5,2.5,0,0,0,2.56,0,2.54,2.54,0,0,0,1.27-2.21Z" transform="translate(-78.02 -164.27)"/><path class="cls-3" d="M376.78,164.6a2.56,2.56,0,0,0-3.8,2.23v65a1.8,1.8,0,0,1-2.69,1.55l-10.61-6.11a5.1,5.1,0,0,0-5.11,0l-42.38,24.45a5.14,5.14,0,0,0-2.56,4.43v48.93a5.14,5.14,0,0,0,2.56,4.43L354.56,334a5.09,5.09,0,0,0,5.12,0l42.38-24.47a5.12,5.12,0,0,0,2.56-4.43V183.14a5.11,5.11,0,0,0-2.62-4.47ZM372.85,289a1.27,1.27,0,0,1-.64,1.11l-14.55,8.39a1.32,1.32,0,0,1-1.28,0l-14.55-8.39a1.29,1.29,0,0,1-.64-1.11v-16.8a1.31,1.31,0,0,1,.64-1.11l14.55-8.4a1.27,1.27,0,0,1,1.28,0l14.55,8.4a1.28,1.28,0,0,1,.64,1.11Z" transform="translate(-78.02 -164.27)"/><path class="cls-3" d="M517.88,271.77a5.1,5.1,0,0,0,2.55-4.42V255.49a5.1,5.1,0,0,0-2.55-4.42l-42.1-24.45a5.14,5.14,0,0,0-5.13,0l-42.36,24.46a5.12,5.12,0,0,0-2.56,4.43v48.91a5.09,5.09,0,0,0,2.59,4.44l42.09,24a5.1,5.1,0,0,0,5,0l25.46-14.15a2.56,2.56,0,0,0,0-4.46L458.3,289.79a2.54,2.54,0,0,1-1.29-2.21V272.25a2.57,2.57,0,0,1,1.28-2.22l13.27-7.65a2.58,2.58,0,0,1,2.55,0L487.39,270a2.57,2.57,0,0,1,1.28,2.22v12.06a2.55,2.55,0,0,0,3.84,2.21Z" transform="translate(-78.02 -164.27)"/><path class="cls-3" d="M472.59,269.48a1,1,0,0,1,1,0l8.13,4.69a1,1,0,0,1,.5.85v9.39a1,1,0,0,1-.5.85L473.57,290a1,1,0,0,1-1,0l-8.12-4.69a1,1,0,0,1-.49-.85V275a1,1,0,0,1,.49-.85Z" transform="translate(-78.02 -164.27)"/><path class="cls-4" d="M238.76,226.87a5,5,0,0,1,5.07,0l42,24.25a5.08,5.08,0,0,1,2.54,4.4v48.55a5.08,5.08,0,0,1-2.54,4.39l-42,24.28a5.12,5.12,0,0,1-5.08,0l-42-24.28a5.07,5.07,0,0,1-2.53-4.39V255.52a5.06,5.06,0,0,1,2.54-4.4Z" transform="translate(-78.02 -164.27)"/><g class="cls-5"><path class="cls-6" d="M238.71,226.87l-42.07,24.25a5.18,5.18,0,0,0-2.64,4.4v48.55a5,5,0,0,0,1.18,3.18l47.3-80.91A5.09,5.09,0,0,0,238.71,226.87Z" transform="translate(-78.02 -164.27)"/><path class="cls-6" d="M242.75,333.17a5.31,5.31,0,0,0,1-.43l41.93-24.28a4.9,4.9,0,0,0,2.34-4.39V255.52a5.24,5.24,0,0,0-1.07-3.27Z" transform="translate(-78.02 -164.27)"/><path class="cls-7" d="M285.65,251.12l-41.84-24.25a5.07,5.07,0,0,0-1.33-.53l-47.3,80.91a5.38,5.38,0,0,0,1.43,1.21l42.09,24.28a5,5,0,0,0,4.05.43l44.18-80.92A4.38,4.38,0,0,0,285.65,251.12Z" transform="translate(-78.02 -164.27)"/><path class="cls-6" d="M197.11,250.85l-.47.27a5.18,5.18,0,0,0-2.64,4.4v48.55a5.14,5.14,0,0,0,2.61,4.39l42.09,24.28a5,5,0,0,0,3.66.54Z" transform="translate(-78.02 -164.27)"/><path class="cls-6" d="M288,255.52a4.91,4.91,0,0,0-2.35-4.4l-41.84-24.25a5.18,5.18,0,0,0-1.17-.49L288,303.88Z" transform="translate(-78.02 -164.27)"/><path class="cls-8" d="M243.73,332.74l41.93-24.28a4.9,4.9,0,0,0,2.34-4.39v-.19l-45.36-77.5a5.15,5.15,0,0,0-3.93.49l-41.6,24,45.25,82.43A5.5,5.5,0,0,0,243.73,332.74Z" transform="translate(-78.02 -164.27)"/></g></svg>