<svg id="Layer_1" data-name="Layer 1" xmlns="http://www.w3.org/2000/svg" xmlns:xlink="http://www.w3.org/1999/xlink" viewBox="0 0 442.37 270.93"><defs><style>.cls-1,.cls-6{fill:none;}.cls-1{clip-rule:evenodd;}.cls-2,.cls-3{fill:#fff;}.cls-3,.cls-4{fill-rule:evenodd;}.cls-4{fill:url(#linear-gradient);}.cls-5{clip-path:url(#clip-path);}.cls-7{fill:#4b4b4b;opacity:0.66;}.cls-8{fill:url(#linear-gradient-2);}</style><linearGradient id="linear-gradient" x1="194.2" y1="279.8" x2="288.4" y2="279.8" gradientUnits="userSpaceOnUse"><stop offset="0.01" stop-color="#fff"/><stop offset="0.19" stop-color="#e8e8e8"/><stop offset="0.54" stop-color="#c3c3c3"/><stop offset="0.82" stop-color="#ababab"/><stop offset="1" stop-color="#a3a3a3"/></linearGradient><clipPath id="clip-path" transform="translate(-78.31 -164.02)"><path class="cls-1" d="M243.84,226.87a5,5,0,0,0-5.07,0l-42,24.25a5.06,5.06,0,0,0-2.54,4.4v48.55a5.07,5.07,0,0,0,2.53,4.39l42,24.28a5.12,5.12,0,0,0,5.08,0l42-24.28a5.08,5.08,0,0,0,2.54-4.39V255.52a5.08,5.08,0,0,0-2.54-4.4Z"/></clipPath><linearGradient id="linear-gradient-2" x1="193.55" y1="279.73" x2="290.72" y2="279.73" gradientUnits="userSpaceOnUse"><stop offset="0" stop-color="#a3a3a3"/><stop offset="0.18" stop-color="#ababab"/><stop offset="0.46" stop-color="#c3c3c3"/><stop offset="0.81" stop-color="#e8e8e8"/><stop offset="0.99" stop-color="#fff"/></linearGradient></defs><title>NodeJS_New_White_RGB</title><path class="cls-2" d="M297,434.94a8.38,8.38,0,0,1-4.19-1.12l-13.34-7.89c-2-1.11-1-1.51-.36-1.74a26.25,26.25,0,0,0,6-2.74,1,1,0,0,1,1,.08l10.24,6.08a1.3,1.3,0,0,0,1.24,0l39.95-23.06a1.26,1.26,0,0,0,.61-1.08v-46.1a1.28,1.28,0,0,0-.62-1.1l-39.93-23a1.23,1.23,0,0,0-1.23,0l-39.93,23a1.28,1.28,0,0,0-.63,1.1v46.1a1.22,1.22,0,0,0,.63,1.07l10.94,6.32c5.94,3,9.58-.53,9.58-4V361.3a1.15,1.15,0,0,1,1.16-1.15h5.06a1.15,1.15,0,0,1,1.16,1.15v45.52c0,7.93-4.31,12.47-11.83,12.47-2.31,0-4.12,0-9.2-2.5l-10.48-6a8.46,8.46,0,0,1-4.19-7.29v-46.1a8.42,8.42,0,0,1,4.19-7.28L292.76,327a8.76,8.76,0,0,1,8.4,0l39.95,23.09a8.43,8.43,0,0,1,4.19,7.28v46.1a8.47,8.47,0,0,1-4.19,7.29l-39.95,23.06A8.4,8.4,0,0,1,297,434.94Z" transform="translate(-78.31 -164.02)"/><path class="cls-2" d="M309.29,403.18c-17.48,0-21.14-8-21.14-14.75a1.14,1.14,0,0,1,1.15-1.15h5.17a1.15,1.15,0,0,1,1.15,1c.78,5.26,3.1,7.92,13.67,7.92,8.42,0,12-1.91,12-6.37,0-2.58-1-4.49-14.09-5.77-10.93-1.08-17.69-3.5-17.69-12.24,0-8.06,6.79-12.87,18.18-12.87,12.8,0,19.13,4.44,19.93,14a1.15,1.15,0,0,1-.3.88,1.17,1.17,0,0,1-.85.37h-5.18a1.15,1.15,0,0,1-1.12-.9c-1.25-5.53-4.27-7.3-12.48-7.3-9.19,0-10.26,3.2-10.26,5.6,0,2.9,1.26,3.75,13.67,5.39s18.11,3.92,18.11,12.55S322,403.18,309.29,403.18Z" transform="translate(-78.31 -164.02)"/><path class="cls-2" d="M366.9,354.83a7.7,7.7,0,1,1-7.7-7.7A7.72,7.72,0,0,1,366.9,354.83Zm-14.16,0a6.46,6.46,0,1,0,6.44-6.44A6.46,6.46,0,0,0,352.74,354.81Zm3.57-4.3h3c1,0,3,0,3,2.28a2,2,0,0,1-1.63,2.12c1.18.08,1.26.86,1.42,2a8.51,8.51,0,0,0,.45,2.28h-1.83c0-.41-.33-2.61-.33-2.73-.12-.49-.29-.73-.9-.73H358v3.46h-1.67Zm1.63,3.79h1.34a1.16,1.16,0,0,0,1.31-1.22c0-1.18-.82-1.18-1.27-1.18h-1.38Z" transform="translate(-78.31 -164.02)"/><path class="cls-3" d="M173.24,254.57a5.11,5.11,0,0,0-2.56-4.45l-42.35-24.37a5.11,5.11,0,0,0-2.33-.68h-.44a5.18,5.18,0,0,0-2.34.68L80.87,250.12a5.14,5.14,0,0,0-2.56,4.45l.09,65.63a2.51,2.51,0,0,0,1.28,2.21,2.46,2.46,0,0,0,2.54,0L107.39,308a5.17,5.17,0,0,0,2.56-4.44V272.89a5.1,5.1,0,0,1,2.55-4.42l10.72-6.18a5.1,5.1,0,0,1,2.57-.68,5,5,0,0,1,2.54.68l10.72,6.18a5.1,5.1,0,0,1,2.55,4.42v30.67a5.17,5.17,0,0,0,2.57,4.44l25.16,14.41a2.5,2.5,0,0,0,2.56,0,2.56,2.56,0,0,0,1.27-2.21Z" transform="translate(-78.31 -164.02)"/><path class="cls-3" d="M377,164.34a2.56,2.56,0,0,0-3.8,2.23v65a1.82,1.82,0,0,1-.9,1.56,1.79,1.79,0,0,1-1.79,0L359.94,227a5.1,5.1,0,0,0-5.11,0l-42.37,24.45a5.09,5.09,0,0,0-2.56,4.43v48.92a5.12,5.12,0,0,0,2.56,4.43l42.37,24.47a5.12,5.12,0,0,0,5.11,0l42.38-24.47a5.14,5.14,0,0,0,2.56-4.43V182.88a5.11,5.11,0,0,0-2.63-4.47Zm-3.93,124.4a1.27,1.27,0,0,1-.64,1.11l-14.55,8.39a1.32,1.32,0,0,1-1.28,0l-14.54-8.39a1.27,1.27,0,0,1-.64-1.11v-16.8a1.28,1.28,0,0,1,.63-1.1l14.55-8.41a1.27,1.27,0,0,1,1.28,0l14.55,8.41a1.27,1.27,0,0,1,.64,1.1Z" transform="translate(-78.31 -164.02)"/><path class="cls-3" d="M518.13,271.5a5.1,5.1,0,0,0,2.55-4.42V255.23a5.12,5.12,0,0,0-2.55-4.43L476,226.36a5.14,5.14,0,0,0-5.13,0l-42.35,24.46a5.09,5.09,0,0,0-2.56,4.43v48.9a5.12,5.12,0,0,0,2.58,4.44l42.1,24a5.13,5.13,0,0,0,5,0l25.46-14.15a2.56,2.56,0,0,0,0-4.46l-42.62-24.46a2.57,2.57,0,0,1-1.29-2.22V272a2.55,2.55,0,0,1,1.28-2.21l13.27-7.65a2.53,2.53,0,0,1,2.55,0l13.28,7.65a2.55,2.55,0,0,1,1.28,2.21V284a2.55,2.55,0,0,0,3.84,2.21Z" transform="translate(-78.31 -164.02)"/><path class="cls-3" d="M472.84,269.21a1,1,0,0,1,1,0L482,273.9a1,1,0,0,1,.5.86v9.38a1,1,0,0,1-.5.85l-8.13,4.7a1,1,0,0,1-1,0l-8.12-4.7a1,1,0,0,1-.49-.85v-9.38a1,1,0,0,1,.49-.86Z" transform="translate(-78.31 -164.02)"/><path class="cls-4" d="M238.76,226.87a5,5,0,0,1,5.07,0l42,24.25a5.08,5.08,0,0,1,2.54,4.4v48.55a5.08,5.08,0,0,1-2.54,4.39l-42,24.28a5.12,5.12,0,0,1-5.08,0l-42-24.28a5.07,5.07,0,0,1-2.53-4.39V255.52a5.06,5.06,0,0,1,2.54-4.4Z" transform="translate(-78.31 -164.02)"/><g class="cls-5"><path class="cls-6" d="M238.71,226.87l-42.07,24.25a5.18,5.18,0,0,0-2.64,4.4v48.55a5,5,0,0,0,1.18,3.18l47.3-80.91A5.09,5.09,0,0,0,238.71,226.87Z" transform="translate(-78.31 -164.02)"/><path class="cls-6" d="M242.75,333.17a5.31,5.31,0,0,0,1-.43l41.93-24.28a4.9,4.9,0,0,0,2.34-4.39V255.52a5.24,5.24,0,0,0-1.07-3.27Z" transform="translate(-78.31 -164.02)"/><path class="cls-7" d="M285.65,251.12l-41.84-24.25a5.07,5.07,0,0,0-1.33-.53l-47.3,80.91a5.38,5.38,0,0,0,1.43,1.21l42.09,24.28a5,5,0,0,0,4.05.43l44.18-80.92A4.38,4.38,0,0,0,285.65,251.12Z" transform="translate(-78.31 -164.02)"/><path class="cls-6" d="M197.11,250.85l-.47.27a5.18,5.18,0,0,0-2.64,4.4v48.55a5.14,5.14,0,0,0,2.61,4.39l42.09,24.28a5,5,0,0,0,3.66.54Z" transform="translate(-78.31 -164.02)"/><path class="cls-6" d="M288,255.52a4.91,4.91,0,0,0-2.35-4.4l-41.84-24.25a5.18,5.18,0,0,0-1.17-.49L288,303.88Z" transform="translate(-78.31 -164.02)"/><path class="cls-8" d="M243.73,332.74l41.93-24.28a4.9,4.9,0,0,0,2.34-4.39v-.19l-45.36-77.5a5.15,5.15,0,0,0-3.93.49l-41.6,24,45.25,82.43A5.5,5.5,0,0,0,243.73,332.74Z" transform="translate(-78.31 -164.02)"/></g></svg>