<svg width="438" height="500" viewBox="0 0 438 500" fill="none" xmlns="http://www.w3.org/2000/svg">
<path fill-rule="evenodd" clip-rule="evenodd" d="M206.839 3.2833C210.449 1.22223 214.534 0.138184 218.691 0.138184C222.848 0.138184 226.933 1.22223 230.543 3.2833L425.753 116.537C433.192 120.734 437.374 128.651 437.374 137.045V363.075C437.374 371.469 432.722 379.386 425.753 383.583L230.543 496.829C226.933 498.892 222.848 499.977 218.691 499.977C214.533 499.977 210.448 498.892 206.839 496.829L11.6288 383.583C4.18946 379.386 0 371.469 0 363.075V136.583C0 128.189 4.65153 120.264 11.6288 116.067L206.839 3.2833Z" fill="url(#paint0_linear_29_97)"/>
<path opacity="0.66" d="M424.821 116.067L230.543 2.82139C228.611 1.84278 226.586 1.06101 224.497 0.487915L4.65155 378C6.51524 380.326 8.84101 382.19 11.1591 383.591L206.839 496.845C212.876 500.103 219.392 501.034 225.429 498.709L430.866 121.674C429.472 119.34 427.147 117.469 424.821 116.067Z" fill="#B4B4B4"/>
<path d="M230.073 496.83L424.821 383.584C432.26 379.386 435.51 371.47 435.51 363.075V362.151L224.497 0.950022C218.459 -0.913666 211.944 0.0181632 206.376 3.27577L13.0225 115.136L223.111 499.163C225.537 498.747 227.885 497.96 230.073 496.83Z" fill="url(#paint1_linear_29_97)"/>
<defs>
<linearGradient id="paint0_linear_29_97" x1="-0.0924143" y1="249.96" x2="437.751" y2="249.96" gradientUnits="userSpaceOnUse">
<stop offset="0.005"/>
<stop offset="0.194" stop-color="#171717"/>
<stop offset="0.542" stop-color="#3D3D3D"/>
<stop offset="0.824" stop-color="#545454"/>
<stop offset="1" stop-color="#5C5C5C"/>
</linearGradient>
<linearGradient id="paint1_linear_29_97" x1="-3.11917" y1="249.637" x2="448.548" y2="249.637" gradientUnits="userSpaceOnUse">
<stop stop-color="#5C5C5C"/>
<stop offset="0.176" stop-color="#545454"/>
<stop offset="0.458" stop-color="#3D3D3D"/>
<stop offset="0.806" stop-color="#171717"/>
<stop offset="0.995"/>
</linearGradient>
</defs>
</svg>
