<svg width="267" height="164" viewBox="0 0 267 164" fill="none" xmlns="http://www.w3.org/2000/svg">
<g clip-path="url(#clip0_1_1687)">
<mask id="mask0_1_1687" style="mask-type:luminance" maskUnits="userSpaceOnUse" x="0" y="0" width="267" height="164">
<path d="M0 0H267V164H0V0Z" fill="white"/>
</mask>
<g mask="url(#mask0_1_1687)">
<mask id="mask1_1_1687" style="mask-type:luminance" maskUnits="userSpaceOnUse" x="0" y="0" width="267" height="164">
<path d="M267 0H0V164H267V0Z" fill="white"/>
</mask>
<g mask="url(#mask1_1_1687)">
<path d="M131.991 164C131.086 164 130.241 163.758 129.457 163.334L121.43 158.554C120.223 157.888 120.826 157.646 121.188 157.525C122.818 156.98 123.119 156.859 124.809 155.891C124.99 155.77 125.232 155.83 125.413 155.951L131.569 159.643C131.81 159.764 132.112 159.764 132.293 159.643L156.434 145.663C156.676 145.542 156.796 145.3 156.796 144.998V117.1C156.796 116.797 156.676 116.555 156.434 116.434L132.353 102.515C132.112 102.394 131.81 102.394 131.629 102.515L107.549 116.434C107.307 116.555 107.186 116.858 107.186 117.1V144.998C107.186 145.24 107.307 145.542 107.549 145.663L114.127 149.476C117.688 151.292 119.921 149.173 119.921 147.055V119.52C119.921 119.157 120.223 118.794 120.645 118.794H123.723C124.085 118.794 124.447 119.097 124.447 119.52V147.055C124.447 151.836 121.852 154.62 117.326 154.62C115.938 154.62 114.851 154.62 111.773 153.107L105.436 149.476C104.664 149.026 104.024 148.381 103.579 147.605C103.134 146.83 102.9 145.952 102.901 145.058V117.16C102.901 115.345 103.867 113.65 105.436 112.742L129.577 98.7629C131.086 97.9159 133.138 97.9159 134.647 98.7629L158.788 112.742C159.56 113.192 160.2 113.838 160.645 114.613C161.09 115.388 161.324 116.266 161.323 117.16V145.058C161.324 145.952 161.09 146.83 160.645 147.605C160.2 148.381 159.56 149.026 158.788 149.476L134.647 163.455C133.742 163.758 132.836 164 131.991 164Z" fill="#5FA04E"/>
<path d="M139.415 144.756C128.853 144.756 126.68 139.914 126.68 135.799C126.68 135.436 126.982 135.073 127.404 135.073H130.543C130.905 135.073 131.207 135.315 131.207 135.678C131.689 138.886 133.078 140.459 139.475 140.459C144.545 140.459 146.717 139.309 146.717 136.586C146.717 135.013 146.114 133.863 138.208 133.076C131.629 132.41 127.525 130.958 127.525 125.693C127.525 120.791 131.629 117.886 138.509 117.886C146.234 117.886 150.037 120.549 150.519 126.359C150.519 126.54 150.459 126.722 150.338 126.903C150.218 127.024 150.037 127.145 149.856 127.145H146.657C146.502 127.14 146.353 127.084 146.233 126.985C146.113 126.887 146.029 126.752 145.993 126.601C145.269 123.272 143.398 122.183 138.449 122.183C132.896 122.183 132.233 124.12 132.233 125.572C132.233 127.327 133.017 127.872 140.501 128.84C147.924 129.808 151.425 131.2 151.425 136.465C151.425 141.73 147.079 144.756 139.415 144.756ZM174.178 115.466C174.178 118.007 172.065 120.125 169.53 120.125C168.296 120.123 167.114 119.631 166.242 118.757C165.371 117.884 164.882 116.7 164.883 115.466C164.883 112.803 167.056 110.806 169.53 110.806C170.764 110.808 171.947 111.3 172.819 112.174C173.69 113.048 174.179 114.232 174.178 115.466ZM165.668 115.466C165.668 117.644 167.418 119.399 169.53 119.399C171.703 119.399 173.453 117.584 173.453 115.466C173.453 113.287 171.703 111.593 169.53 111.593C169.022 111.592 168.518 111.692 168.048 111.886C167.579 112.081 167.152 112.366 166.793 112.726C166.434 113.086 166.15 113.514 165.957 113.984C165.764 114.454 165.666 114.958 165.668 115.466ZM167.78 112.863H169.591C170.194 112.863 171.401 112.863 171.401 114.255C171.401 115.224 170.798 115.405 170.436 115.526C171.16 115.587 171.22 116.071 171.281 116.737C171.341 117.16 171.401 117.886 171.522 118.128H170.436C170.436 117.886 170.255 116.555 170.255 116.494C170.194 116.192 170.074 116.071 169.712 116.071H168.806V118.189H167.78V112.863ZM168.806 115.163H169.591C170.255 115.163 170.375 114.679 170.375 114.437C170.375 113.711 169.893 113.711 169.591 113.711H168.746V115.163H168.806Z" fill="#5FA04E"/>
<path fill-rule="evenodd" clip-rule="evenodd" d="M57.275 54.828C57.2712 54.2851 57.124 53.7529 56.8483 53.2853C56.5726 52.8176 56.1781 52.4311 55.705 52.165L30.177 37.34C29.755 37.098 29.272 36.977 28.789 36.916H28.548C28.065 36.916 27.582 37.098 27.16 37.34L1.56897 52.105C1.08886 52.3783 0.69034 52.7747 0.414533 53.2533C0.138727 53.732 -0.00438051 54.2756 -2.55631e-05 54.828L0.0599744 94.527C0.0599744 95.072 0.361974 95.617 0.844974 95.858C1.32797 96.161 1.93097 96.161 2.35397 95.858L17.563 87.144C18.036 86.8777 18.4302 86.4912 18.7057 86.0236C18.9812 85.5559 19.1283 85.0238 19.132 84.481V65.903C19.1356 65.3603 19.2825 64.8283 19.5578 64.3606C19.8332 63.893 20.2272 63.5064 20.7 63.24L27.158 59.488C27.641 59.185 28.184 59.064 28.727 59.064C29.27 59.064 29.813 59.185 30.236 59.488L36.693 63.24C37.1661 63.5061 37.5606 63.8926 37.8363 64.3603C38.112 64.8279 38.2592 65.3601 38.263 65.903V84.48C38.2667 85.0228 38.4137 85.5549 38.6892 86.0226C38.9648 86.4902 39.359 86.8767 39.832 87.143L54.92 95.857C55.1549 96.0054 55.4271 96.0842 55.705 96.0842C55.9829 96.0842 56.255 96.0054 56.49 95.857C56.972 95.615 57.274 95.071 57.274 94.526V54.828H57.275ZM180.334 0.182006C179.851 -0.0609941 179.247 -0.0609941 178.825 0.182006C178.342 0.484006 178.04 0.968006 178.04 1.51201V40.85C178.04 41.213 177.859 41.576 177.497 41.818C177.33 41.9074 177.143 41.9541 176.954 41.9541C176.765 41.9541 176.578 41.9074 176.411 41.818L170.014 38.127C169.545 37.8593 169.015 37.7185 168.475 37.7185C167.935 37.7185 167.405 37.8593 166.936 38.127L141.346 52.953C140.873 53.2193 140.479 53.6058 140.203 54.0734C139.928 54.5411 139.781 55.0732 139.777 55.616V85.208C139.781 85.7508 139.928 86.2829 140.203 86.7506C140.479 87.2182 140.873 87.6047 141.346 87.871L166.936 102.698C167.405 102.965 167.935 103.106 168.475 103.106C169.015 103.106 169.545 102.965 170.014 102.698L195.603 87.871C196.076 87.6047 196.47 87.2182 196.746 86.7506C197.021 86.2829 197.168 85.7508 197.172 85.208V11.438C197.172 10.288 196.569 9.26001 195.603 8.71501L180.334 0.182006ZM177.92 75.464C177.92 75.767 177.799 76.009 177.558 76.13L168.806 81.213C168.684 81.2727 168.55 81.3038 168.414 81.3038C168.278 81.3038 168.144 81.2727 168.022 81.213L159.271 76.13C159.029 76.009 158.909 75.706 158.909 75.464V65.297C158.909 64.995 159.029 64.753 159.271 64.632L168.022 59.548C168.144 59.4883 168.278 59.4573 168.414 59.4573C168.55 59.4573 168.684 59.4883 168.806 59.548L177.558 64.632C177.799 64.752 177.92 65.055 177.92 65.297V75.464ZM265.491 65.055C266.457 64.511 267 63.482 267 62.393V55.19C267 54.1 266.397 53.072 265.491 52.527L240.083 37.761C239.614 37.4933 239.084 37.3525 238.544 37.3525C238.004 37.3525 237.474 37.4933 237.005 37.761L211.415 52.588C210.942 52.8544 210.548 53.241 210.273 53.7086C209.997 54.1762 209.85 54.7083 209.846 55.251V84.843C209.846 85.933 210.45 86.961 211.415 87.506L236.824 102.03C237.789 102.575 238.936 102.575 239.841 102.03L255.231 93.437C255.714 93.195 256.016 92.65 256.016 92.105C256.016 91.561 255.714 91.016 255.231 90.774L229.521 75.947C229.038 75.645 228.737 75.161 228.737 74.616V65.356C228.737 64.812 229.038 64.268 229.521 64.026L237.548 59.426C237.783 59.2778 238.055 59.1992 238.332 59.1992C238.61 59.1992 238.882 59.2778 239.117 59.426L247.144 64.026C247.627 64.328 247.929 64.812 247.929 65.356V72.619C247.929 73.164 248.23 73.709 248.713 73.95C248.948 74.0982 249.22 74.1768 249.497 74.1768C249.775 74.1768 250.047 74.0982 250.282 73.95L265.491 65.055Z" fill="#333333"/>
<path fill-rule="evenodd" clip-rule="evenodd" d="M238.152 63.6631C238.241 63.6038 238.346 63.5723 238.453 63.5723C238.561 63.5723 238.666 63.6038 238.755 63.6631L243.644 66.5081C243.737 66.5653 243.813 66.6453 243.866 66.7406C243.919 66.8359 243.946 66.9431 243.946 67.0521V72.7411C243.947 72.8502 243.919 72.9576 243.866 73.0531C243.813 73.1485 243.737 73.2288 243.644 73.2861L238.755 76.1301C238.666 76.1893 238.561 76.2209 238.453 76.2209C238.346 76.2209 238.241 76.1893 238.152 76.1301L233.263 73.2861C233.17 73.2288 233.094 73.1485 233.041 73.0531C232.988 72.9576 232.96 72.8502 232.961 72.7411V67.0521C232.961 66.8101 233.082 66.6291 233.263 66.5081L238.152 63.6641V63.6631Z" fill="#5FA04E"/>
<path fill-rule="evenodd" clip-rule="evenodd" d="M96.987 37.8829C97.4557 37.6153 97.9862 37.4745 98.526 37.4745C99.0658 37.4745 99.5962 37.6153 100.065 37.8829L125.413 52.5889C126.379 53.1339 126.922 54.1619 126.922 55.2519V84.6019C126.922 85.6919 126.318 86.7199 125.413 87.2649L100.065 101.97C99.5963 102.238 99.0658 102.379 98.526 102.379C97.9861 102.379 97.4557 102.238 96.987 101.97L71.639 87.2649C70.673 86.7199 70.129 85.6919 70.129 84.6019V55.1919C70.129 54.1019 70.733 53.0729 71.639 52.5279L96.987 37.8829Z" fill="url(#paint0_linear_1_1687)"/>
<path opacity="0.66" d="M125.292 52.5279L100.065 37.8229C99.8141 37.6958 99.5511 37.5943 99.28 37.5199L70.733 86.5399C70.975 86.8419 71.277 87.0839 71.578 87.2659L96.987 101.972C97.771 102.395 98.617 102.516 99.401 102.214L126.077 53.2559C125.896 52.9529 125.594 52.7099 125.292 52.5279Z" fill="#B4B4B4"/>
<path d="M100.004 101.97L125.292 87.2649C126.258 86.7199 126.68 85.6919 126.68 84.6019V84.4819L99.2799 37.5799C98.4959 37.3379 97.6499 37.4589 96.9269 37.8819L71.8199 52.4069L99.0999 102.273C99.415 102.219 99.7199 102.117 100.004 101.97Z" fill="url(#paint1_linear_1_1687)"/>
</g>
</g>
</g>
<defs>
<linearGradient id="paint0_linear_1_1687" x1="70.117" y1="69.9139" x2="126.971" y2="69.9139" gradientUnits="userSpaceOnUse">
<stop offset="0.005"/>
<stop offset="0.194" stop-color="#171717"/>
<stop offset="0.542" stop-color="#3D3D3D"/>
<stop offset="0.824" stop-color="#545454"/>
<stop offset="1" stop-color="#5C5C5C"/>
</linearGradient>
<linearGradient id="paint1_linear_1_1687" x1="69.7239" y1="69.8719" x2="128.373" y2="69.8719" gradientUnits="userSpaceOnUse">
<stop stop-color="#5C5C5C"/>
<stop offset="0.176" stop-color="#545454"/>
<stop offset="0.458" stop-color="#3D3D3D"/>
<stop offset="0.806" stop-color="#171717"/>
<stop offset="0.995"/>
</linearGradient>
<clipPath id="clip0_1_1687">
<rect width="267" height="164" fill="white"/>
</clipPath>
</defs>
</svg>
