<?xml version="1.0" encoding="UTF-8" standalone="no"?>
<svg
   xmlns:dc="http://purl.org/dc/elements/1.1/"
   xmlns:cc="http://creativecommons.org/ns#"
   xmlns:rdf="http://www.w3.org/1999/02/22-rdf-syntax-ns#"
   xmlns:svg="http://www.w3.org/2000/svg"
   xmlns="http://www.w3.org/2000/svg"
   viewBox="0 0 439.26321 499.99999"
   height="500"
   width="439.26321"
   xml:space="preserve"
   id="svg2"
   version="1.1"><metadata
     id="metadata8"><rdf:RDF><cc:Work
         rdf:about=""><dc:format>image/svg+xml</dc:format><dc:type
           rdf:resource="http://purl.org/dc/dcmitype/StillImage" /><dc:title></dc:title></cc:Work></rdf:RDF></metadata><defs
     id="defs6"><clipPath
       id="clipPath18"
       clipPathUnits="userSpaceOnUse"><path
         id="path16"
         d="M 0,600 H 600 V 0 H 0 Z" /></clipPath><clipPath
       id="clipPath54"
       clipPathUnits="userSpaceOnUse"><path
         id="path52"
         d="m 239.032,373.393 -42.134,-24.315 c -1.576,-0.909 -2.545,-2.588 -2.545,-4.407 v 0 -48.666 c 0,-1.818 0.969,-3.497 2.544,-4.408 v 0 l 42.134,-24.333 c 1.575,-0.91 3.515,-0.91 5.09,0 v 0 l 42.124,24.333 c 1.574,0.911 2.543,2.59 2.543,4.408 v 0 48.667 c 0,1.818 -0.969,3.497 -2.545,4.406 v 0 l -42.123,24.315 c -0.787,0.454 -1.666,0.681 -2.544,0.681 v 0 c -0.879,0 -1.757,-0.227 -2.544,-0.681" /></clipPath><linearGradient
       id="linearGradient66"
       spreadMethod="pad"
       gradientTransform="matrix(-38.064877,-77.652351,-77.652351,38.064877,258.70169,355.28543)"
       gradientUnits="userSpaceOnUse"
       y2="0"
       x2="1"
       y1="0"
       x1="0"><stop
         id="stop60"
         offset="0"
         style="stop-opacity:1;stop-color:#41873f" /><stop
         id="stop62"
         offset="0.5288042"
         style="stop-opacity:1;stop-color:#41873f" /><stop
         id="stop64"
         offset="1"
         style="stop-opacity:1;stop-color:#3fae2a" /></linearGradient><clipPath
       id="clipPath76"
       clipPathUnits="userSpaceOnUse"><path
         id="path74"
         d="m 195.4,292.914 c 0.401,-0.525 0.906,-0.975 1.497,-1.317 v 0 l 36.315,-20.973 5.845,-3.36 c 0.9,-0.52 1.928,-0.741 2.938,-0.665 v 0 c 0.337,0.028 0.671,0.089 0.999,0.184 v 0 l 44.43,81.357 c -0.34,0.365 -0.736,0.682 -1.181,0.938 v 0 l -27.588,15.925 -14.579,8.39 c -0.417,0.24 -0.864,0.413 -1.323,0.525 v 0 z" /></clipPath><linearGradient
       id="linearGradient92"
       spreadMethod="pad"
       gradientTransform="matrix(106.80725,78.914902,78.914902,-106.80725,235.15767,314.64658)"
       gradientUnits="userSpaceOnUse"
       y2="0"
       x2="1"
       y1="0"
       x1="0"><stop
         id="stop82"
         offset="0"
         style="stop-opacity:1;stop-color:#41873f" /><stop
         id="stop84"
         offset="0.137556"
         style="stop-opacity:1;stop-color:#41873f" /><stop
         id="stop86"
         offset="0.69737407"
         style="stop-opacity:1;stop-color:#6cc04a" /><stop
         id="stop88"
         offset="0.908084"
         style="stop-opacity:1;stop-color:#6cc04a" /><stop
         id="stop90"
         offset="1"
         style="stop-opacity:1;stop-color:#6cc04a" /></linearGradient><clipPath
       id="clipPath102"
       clipPathUnits="userSpaceOnUse"><path
         id="path100"
         d="m 239.032,373.393 -42.134,-24.315 c -1.575,-0.909 -2.545,-2.588 -2.545,-4.407 v -48.666 c 0,-1.818 0.97,-3.497 2.544,-4.408 l 42.134,-24.333 c 1.575,-0.91 3.515,-0.91 5.09,0 l 42.124,24.333 c 1.574,0.911 2.543,2.59 2.543,4.408 v 48.667 c 0,1.818 -0.969,3.497 -2.545,4.406 l -42.123,24.315 c -0.787,0.454 -1.666,0.681 -2.544,0.681 -0.879,0 -1.757,-0.227 -2.544,-0.681" /></clipPath><clipPath
       id="clipPath110"
       clipPathUnits="userSpaceOnUse"><path
         id="path108"
         d="M 237.626,382.332 237.047,382 h 0.774 z" /></clipPath><linearGradient
       id="linearGradient126"
       spreadMethod="pad"
       gradientTransform="matrix(97.416992,0,0,-97.416992,192.8623,382.16568)"
       gradientUnits="userSpaceOnUse"
       y2="0"
       x2="1"
       y1="0"
       x1="0"><stop
         id="stop116"
         offset="0"
         style="stop-opacity:1;stop-color:#6cc04a" /><stop
         id="stop118"
         offset="0.0919165"
         style="stop-opacity:1;stop-color:#6cc04a" /><stop
         id="stop120"
         offset="0.30262629"
         style="stop-opacity:1;stop-color:#6cc04a" /><stop
         id="stop122"
         offset="0.862444"
         style="stop-opacity:1;stop-color:#41873f" /><stop
         id="stop124"
         offset="1"
         style="stop-opacity:1;stop-color:#41873f" /></linearGradient><clipPath
       id="clipPath136"
       clipPathUnits="userSpaceOnUse"><path
         id="path134"
         d="m 241.07,374.049 c -0.706,-0.071 -1.402,-0.29 -2.038,-0.656 v 0 l -42.014,-24.245 45.293,-82.513 c 0.628,0.092 1.243,0.301 1.81,0.629 v 0 l 42.124,24.333 c 1.301,0.753 2.188,2.03 2.457,3.476 v 0 l -46.177,78.891 c -0.341,0.068 -0.688,0.102 -1.035,0.102 v 0 c -0.14,0 -0.28,-0.006 -0.42,-0.017" /></clipPath><linearGradient
       id="linearGradient152"
       spreadMethod="pad"
       gradientTransform="matrix(97.416992,0,0,-97.416992,192.8623,320.34848)"
       gradientUnits="userSpaceOnUse"
       y2="0"
       x2="1"
       y1="0"
       x1="0"><stop
         id="stop142"
         offset="0"
         style="stop-opacity:1;stop-color:#6cc04a" /><stop
         id="stop144"
         offset="0.0919165"
         style="stop-opacity:1;stop-color:#6cc04a" /><stop
         id="stop146"
         offset="0.30262629"
         style="stop-opacity:1;stop-color:#6cc04a" /><stop
         id="stop148"
         offset="0.862444"
         style="stop-opacity:1;stop-color:#41873f" /><stop
         id="stop150"
         offset="1"
         style="stop-opacity:1;stop-color:#41873f" /></linearGradient><clipPath
       id="clipPath162"
       clipPathUnits="userSpaceOnUse"><path
         id="path160"
         d="m 239.032,373.393 -42.134,-24.315 c -1.575,-0.909 -2.545,-2.588 -2.545,-4.407 v -48.666 c 0,-1.818 0.97,-3.497 2.544,-4.408 l 42.134,-24.333 c 1.575,-0.91 3.515,-0.91 5.09,0 l 42.124,24.333 c 1.574,0.911 2.543,2.59 2.543,4.408 v 48.667 c 0,1.818 -0.969,3.497 -2.545,4.406 l -42.123,24.315 c -0.787,0.454 -1.666,0.681 -2.544,0.681 -0.879,0 -1.757,-0.227 -2.544,-0.681" /></clipPath><clipPath
       id="clipPath170"
       clipPathUnits="userSpaceOnUse"><path
         id="path168"
         d="M 290.279,292.38 290,292.857 v -0.638 z" /></clipPath><linearGradient
       id="linearGradient186"
       spreadMethod="pad"
       gradientTransform="matrix(97.416992,0,0,-97.416992,192.8623,292.53787)"
       gradientUnits="userSpaceOnUse"
       y2="0"
       x2="1"
       y1="0"
       x1="0"><stop
         id="stop176"
         offset="0"
         style="stop-opacity:1;stop-color:#6cc04a" /><stop
         id="stop178"
         offset="0.0919165"
         style="stop-opacity:1;stop-color:#6cc04a" /><stop
         id="stop180"
         offset="0.30262629"
         style="stop-opacity:1;stop-color:#6cc04a" /><stop
         id="stop182"
         offset="0.862444"
         style="stop-opacity:1;stop-color:#41873f" /><stop
         id="stop184"
         offset="1"
         style="stop-opacity:1;stop-color:#41873f" /></linearGradient><clipPath
       id="clipPath196"
       clipPathUnits="userSpaceOnUse"><path
         id="path194"
         d="m 239.032,373.393 -42.134,-24.315 c -1.575,-0.909 -2.545,-2.588 -2.545,-4.407 v -48.666 c 0,-1.818 0.97,-3.497 2.544,-4.408 l 42.134,-24.333 c 1.575,-0.91 3.515,-0.91 5.09,0 l 42.124,24.333 c 1.574,0.911 2.543,2.59 2.543,4.408 v 48.667 c 0,1.818 -0.969,3.497 -2.545,4.406 l -42.123,24.315 c -0.787,0.454 -1.666,0.681 -2.544,0.681 -0.879,0 -1.757,-0.227 -2.544,-0.681" /></clipPath><clipPath
       id="clipPath204"
       clipPathUnits="userSpaceOnUse"><path
         id="path202"
         d="m 286.351,291.598 -42.177,-24.334 c -0.58,-0.335 -1.214,-0.544 -1.861,-0.633 l 0.84,-1.53 46.847,27.118 v 0.638 l -1.158,1.979 c -0.347,-1.348 -1.263,-2.528 -2.491,-3.238" /></clipPath><linearGradient
       id="linearGradient220"
       spreadMethod="pad"
       gradientTransform="matrix(97.416992,0,0,-97.416992,192.8623,279.9682)"
       gradientUnits="userSpaceOnUse"
       y2="0"
       x2="1"
       y1="0"
       x1="0"><stop
         id="stop210"
         offset="0"
         style="stop-opacity:1;stop-color:#6cc04a" /><stop
         id="stop212"
         offset="0.0919165"
         style="stop-opacity:1;stop-color:#6cc04a" /><stop
         id="stop214"
         offset="0.30262629"
         style="stop-opacity:1;stop-color:#6cc04a" /><stop
         id="stop216"
         offset="0.862444"
         style="stop-opacity:1;stop-color:#41873f" /><stop
         id="stop218"
         offset="1"
         style="stop-opacity:1;stop-color:#41873f" /></linearGradient><clipPath
       id="clipPath230"
       clipPathUnits="userSpaceOnUse"><path
         id="path228"
         d="m 239.032,373.393 -42.134,-24.315 c -1.575,-0.909 -2.545,-2.588 -2.545,-4.407 v -48.666 c 0,-1.818 0.97,-3.497 2.544,-4.408 l 42.134,-24.333 c 1.575,-0.91 3.515,-0.91 5.09,0 l 42.124,24.333 c 1.574,0.911 2.543,2.59 2.543,4.408 v 48.667 c 0,1.818 -0.969,3.497 -2.545,4.406 l -42.123,24.315 c -0.787,0.454 -1.666,0.681 -2.544,0.681 -0.879,0 -1.757,-0.227 -2.544,-0.681" /></clipPath><clipPath
       id="clipPath238"
       clipPathUnits="userSpaceOnUse"><path
         id="path236"
         d="m 286.351,291.598 -42.177,-24.334 c -0.58,-0.335 -1.214,-0.544 -1.861,-0.633 l 0.84,-1.53 46.847,27.118 v 0.638 l -1.158,1.979 c -0.347,-1.348 -1.263,-2.528 -2.491,-3.238" /></clipPath><linearGradient
       id="linearGradient250"
       spreadMethod="pad"
       gradientTransform="matrix(-60.080605,-122.56444,-122.56444,60.080605,304.47177,357.58765)"
       gradientUnits="userSpaceOnUse"
       y2="0"
       x2="1"
       y1="0"
       x1="0"><stop
         id="stop244"
         offset="0"
         style="stop-opacity:1;stop-color:#41873f" /><stop
         id="stop246"
         offset="0.5288042"
         style="stop-opacity:1;stop-color:#41873f" /><stop
         id="stop248"
         offset="1"
         style="stop-opacity:1;stop-color:#3fae2a" /></linearGradient></defs><g
     transform="matrix(1.3333333,0,0,-1.3333333,-259.13734,855.44201)"
     id="g10"><g
       transform="matrix(3.4886156,0,0,3.4886156,-483.6699,-663.41887)"
       id="g326"><g
         id="g48"><g
           id="g50"
           clip-path="url(#clipPath54)"><g
             id="g56"><g
               id="g58"><path
                 d="m 239.032,373.393 -42.134,-24.315 c -1.576,-0.909 -2.545,-2.588 -2.545,-4.407 v 0 -48.666 c 0,-1.818 0.969,-3.497 2.544,-4.408 v 0 l 42.134,-24.333 c 1.575,-0.91 3.515,-0.91 5.09,0 v 0 l 42.124,24.333 c 1.574,0.911 2.543,2.59 2.543,4.408 v 0 48.667 c 0,1.818 -0.969,3.497 -2.545,4.406 v 0 l -42.123,24.315 c -0.787,0.454 -1.666,0.681 -2.544,0.681 v 0 c -0.879,0 -1.757,-0.227 -2.544,-0.681"
                 style="fill:url(#linearGradient66);stroke:none"
                 id="path68" /></g></g></g></g><g
         id="g70"><g
           id="g72"
           clip-path="url(#clipPath76)"><g
             id="g78"><g
               id="g80"><path
                 d="m 195.4,292.914 c 0.401,-0.525 0.906,-0.975 1.497,-1.317 v 0 l 36.315,-20.973 5.845,-3.36 c 0.9,-0.52 1.928,-0.741 2.938,-0.665 v 0 c 0.337,0.028 0.671,0.089 0.999,0.184 v 0 l 44.43,81.357 c -0.34,0.365 -0.736,0.682 -1.181,0.938 v 0 l -27.588,15.925 -14.579,8.39 c -0.417,0.24 -0.864,0.413 -1.323,0.525 v 0 z"
                 style="fill:url(#linearGradient92);stroke:none"
                 id="path94" /></g></g></g></g><g
         id="g96"><g
           id="g98"
           clip-path="url(#clipPath102)"><g
             id="g104"><g
               id="g106"
               clip-path="url(#clipPath110)"><g
                 id="g112"><g
                   id="g114"><path
                     d="M 237.626,382.332 237.047,382 h 0.774 z"
                     style="fill:url(#linearGradient126);stroke:none"
                     id="path128" /></g></g></g></g></g></g><g
         id="g130"><g
           id="g132"
           clip-path="url(#clipPath136)"><g
             id="g138"><g
               id="g140"><path
                 d="m 241.07,374.049 c -0.706,-0.071 -1.402,-0.29 -2.038,-0.656 v 0 l -42.014,-24.245 45.293,-82.513 c 0.628,0.092 1.243,0.301 1.81,0.629 v 0 l 42.124,24.333 c 1.301,0.753 2.188,2.03 2.457,3.476 v 0 l -46.177,78.891 c -0.341,0.068 -0.688,0.102 -1.035,0.102 v 0 c -0.14,0 -0.28,-0.006 -0.42,-0.017"
                 style="fill:url(#linearGradient152);stroke:none"
                 id="path154" /></g></g></g></g><g
         id="g156"><g
           id="g158"
           clip-path="url(#clipPath162)"><g
             id="g164"><g
               id="g166"
               clip-path="url(#clipPath170)"><g
                 id="g172"><g
                   id="g174"><path
                     d="M 290.279,292.38 290,292.857 v -0.638 z"
                     style="fill:url(#linearGradient186);stroke:none"
                     id="path188" /></g></g></g></g></g></g><g
         id="g190"><g
           id="g192"
           clip-path="url(#clipPath196)"><g
             id="g198"><g
               id="g200"
               clip-path="url(#clipPath204)"><g
                 id="g206"><g
                   id="g208"><path
                     d="m 286.351,291.598 -42.177,-24.334 c -0.58,-0.335 -1.214,-0.544 -1.861,-0.633 l 0.84,-1.53 46.847,27.118 v 0.638 l -1.158,1.979 c -0.347,-1.348 -1.263,-2.528 -2.491,-3.238"
                     style="fill:url(#linearGradient220);stroke:none"
                     id="path222" /></g></g></g></g></g></g><g
         id="g224"><g
           id="g226"
           clip-path="url(#clipPath230)"><g
             id="g232"><g
               id="g234"
               clip-path="url(#clipPath238)"><g
                 id="g240"><g
                   id="g242"><path
                     d="m 286.351,291.598 -42.177,-24.334 c -0.58,-0.335 -1.214,-0.544 -1.861,-0.633 l 0.84,-1.53 46.847,27.118 v 0.638 l -1.158,1.979 c -0.347,-1.348 -1.263,-2.528 -2.491,-3.238"
                     style="fill:url(#linearGradient250);stroke:none"
                     id="path252" /></g></g></g></g></g></g></g></g></svg>