<svg xmlns="http://www.w3.org/2000/svg" role="img" xmlns:xlink="http://www.w3.org/1999/xlink" viewBox="-8.84 -8.84 459.94 288.44"><defs><linearGradient id="linear-gradient" x1="258.7" x2="220.64" y1="244.71" y2="322.37" gradientUnits="userSpaceOnUse"><stop offset="0" stop-color="#41873f"/><stop offset=".33" stop-color="#418b3d"/><stop offset=".64" stop-color="#409637"/><stop offset=".93" stop-color="#3fa92d"/><stop offset="1" stop-color="#3fae2a"/></linearGradient><linearGradient id="linear-gradient-3" x1="235.16" x2="341.96" y1="285.35" y2="206.44" gradientUnits="userSpaceOnUse"><stop offset=".14" stop-color="#41873f"/><stop offset=".4" stop-color="#54a044"/><stop offset=".71" stop-color="#66b748"/><stop offset=".91" stop-color="#6cc04a"/></linearGradient><linearGradient id="linear-gradient-4" x1="114.56" x2="211.97" y1="53.82" y2="53.82" gradientUnits="userSpaceOnUse"><stop offset=".09" stop-color="#6cc04a"/><stop offset=".29" stop-color="#66b748"/><stop offset=".6" stop-color="#54a044"/><stop offset=".86" stop-color="#41873f"/></linearGradient><linearGradient id="linear-gradient-5" x1="192.86" x2="290.28" y1="279.65" y2="279.65" xlink:href="#linear-gradient-4"/><linearGradient id="linear-gradient-6" x1="114.56" x2="211.97" y1="143.45" y2="143.45" xlink:href="#linear-gradient-4"/><linearGradient id="linear-gradient-7" x1="192.86" x2="290.28" y1="320.03" y2="320.03" xlink:href="#linear-gradient-4"/><linearGradient id="linear-gradient-8" x1="304.47" x2="244.39" y1="242.41" y2="364.98" xlink:href="#linear-gradient"/><clipPath id="clip-path" transform="translate(-78.31 -164.02)"><path fill="url(#linear-gradient)" d="M244.12 226.61a5.09 5.09 0 0 0-5.09 0l-42.13 24.31a5.09 5.09 0 0 0-2.55 4.41V304a5.08 5.08 0 0 0 2.55 4.4l42.1 24.34a5.09 5.09 0 0 0 5.09 0l42.13-24.34a5.09 5.09 0 0 0 2.54-4.4v-48.67a5.09 5.09 0 0 0-2.55-4.41z" clip-rule="evenodd"/></clipPath><style>.cls-2{fill:#699f63}.cls-7{fill:none}</style></defs><path d="M218.69 270.92a8.38 8.38 0 0 1-4.19-1.12l-13.34-7.89c-2-1.11-1-1.51-.36-1.74a26.25 26.25 0 0 0 6-2.74 1 1 0 0 1 1 .08l10.24 6.08a1.3 1.3 0 0 0 1.24 0l39.95-23.06a1.26 1.26 0 0 0 .61-1.08v-46.1a1.28 1.28 0 0 0-.62-1.1l-39.93-23a1.23 1.23 0 0 0-1.23 0l-39.93 23a1.28 1.28 0 0 0-.63 1.1v46.1a1.22 1.22 0 0 0 .63 1.07l10.94 6.32c5.94 3 9.58-.53 9.58-4v-45.56a1.15 1.15 0 0 1 1.16-1.15h5.06a1.15 1.15 0 0 1 1.16 1.15v45.52c0 7.93-4.31 12.47-11.83 12.47-2.31 0-4.12 0-9.2-2.5l-10.48-6a8.46 8.46 0 0 1-4.19-7.29v-46.1a8.42 8.42 0 0 1 4.19-7.28l39.93-23.12a8.76 8.76 0 0 1 8.4 0l39.95 23.09a8.43 8.43 0 0 1 4.19 7.28v46.1a8.47 8.47 0 0 1-4.19 7.29l-39.95 23.06a8.4 8.4 0 0 1-4.16 1.12z" class="cls-2"/><path d="M230.98 239.16c-17.48 0-21.14-8-21.14-14.75a1.14 1.14 0 0 1 1.15-1.15h5.17a1.15 1.15 0 0 1 1.15 1c.78 5.26 3.1 7.92 13.67 7.92 8.42 0 12-1.91 12-6.37 0-2.58-1-4.49-14.09-5.77-10.93-1.08-17.69-3.5-17.69-12.24 0-8.06 6.79-12.87 18.18-12.87 12.8 0 19.13 4.44 19.93 14a1.15 1.15 0 0 1-.3.88 1.17 1.17 0 0 1-.85.37h-5.18a1.15 1.15 0 0 1-1.12-.9c-1.25-5.53-4.27-7.3-12.48-7.3-9.19 0-10.26 3.2-10.26 5.6 0 2.9 1.26 3.75 13.67 5.39s18.11 3.92 18.11 12.55-7.21 13.64-19.92 13.64zm57.61-48.35a7.7 7.7 0 1 1-7.7-7.7 7.72 7.72 0 0 1 7.7 7.7zm-14.16 0a6.46 6.46 0 1 0 6.44-6.44 6.46 6.46 0 0 0-6.44 6.42zm3.57-4.3h3c1 0 3 0 3 2.28a2 2 0 0 1-1.63 2.12c1.18.08 1.26.86 1.42 2a8.51 8.51 0 0 0 .45 2.28h-1.83c0-.41-.33-2.61-.33-2.73-.12-.49-.29-.73-.9-.73h-1.49v3.46h-1.67zm1.63 3.79h1.34a1.16 1.16 0 0 0 1.31-1.22c0-1.18-.82-1.18-1.27-1.18h-1.38z" class="cls-2"/><path fill="#333" fill-rule="evenodd" d="M94.93 90.55a5.11 5.11 0 0 0-2.56-4.45L50.02 61.73a5.11 5.11 0 0 0-2.33-.68h-.44a5.18 5.18 0 0 0-2.34.68L2.56 86.1A5.14 5.14 0 0 0 0 90.55l.09 65.63a2.51 2.51 0 0 0 1.28 2.21 2.46 2.46 0 0 0 2.54 0l25.17-14.41a5.17 5.17 0 0 0 2.56-4.44v-30.67a5.1 5.1 0 0 1 2.55-4.42l10.72-6.18a5.1 5.1 0 0 1 2.57-.68 5 5 0 0 1 2.54.68l10.72 6.18a5.1 5.1 0 0 1 2.55 4.42v30.67a5.17 5.17 0 0 0 2.57 4.44l25.16 14.41a2.5 2.5 0 0 0 2.56 0 2.56 2.56 0 0 0 1.27-2.21zM298.69.32a2.56 2.56 0 0 0-3.8 2.23v65a1.82 1.82 0 0 1-.9 1.56 1.79 1.79 0 0 1-1.79 0l-10.57-6.13a5.1 5.1 0 0 0-5.11 0l-42.37 24.45a5.09 5.09 0 0 0-2.56 4.43v48.92a5.12 5.12 0 0 0 2.56 4.43l42.37 24.47a5.12 5.12 0 0 0 5.11 0l42.38-24.47a5.14 5.14 0 0 0 2.56-4.43V18.86a5.11 5.11 0 0 0-2.63-4.47zm-3.93 124.4a1.27 1.27 0 0 1-.64 1.11l-14.55 8.39a1.32 1.32 0 0 1-1.28 0l-14.54-8.39a1.27 1.27 0 0 1-.64-1.11v-16.8a1.28 1.28 0 0 1 .63-1.1l14.55-8.41a1.27 1.27 0 0 1 1.28 0l14.55 8.41a1.27 1.27 0 0 1 .64 1.1zm145.06-17.24a5.1 5.1 0 0 0 2.55-4.42V91.21a5.12 5.12 0 0 0-2.55-4.43l-42.13-24.44a5.14 5.14 0 0 0-5.13 0L350.21 86.8a5.09 5.09 0 0 0-2.56 4.43v48.9a5.12 5.12 0 0 0 2.58 4.44l42.1 24a5.13 5.13 0 0 0 5 0l25.46-14.15a2.56 2.56 0 0 0 0-4.46l-42.62-24.46a2.57 2.57 0 0 1-1.29-2.22v-15.3a2.55 2.55 0 0 1 1.28-2.21l13.27-7.65a2.53 2.53 0 0 1 2.55 0l13.28 7.65a2.55 2.55 0 0 1 1.28 2.21v12a2.55 2.55 0 0 0 3.84 2.21z"/><path fill="#699f63" fill-rule="evenodd" d="M394.53 105.19a1 1 0 0 1 1 0l8.16 4.69a1 1 0 0 1 .5.86v9.38a1 1 0 0 1-.5.85l-8.13 4.7a1 1 0 0 1-1 0l-8.12-4.7a1 1 0 0 1-.49-.85v-9.38a1 1 0 0 1 .49-.86z"/><path fill="url(#linear-gradient)" fill-rule="evenodd" d="M244.12 226.61a5.09 5.09 0 0 0-5.09 0l-42.13 24.31a5.09 5.09 0 0 0-2.55 4.41V304a5.08 5.08 0 0 0 2.55 4.4l42.1 24.34a5.09 5.09 0 0 0 5.09 0l42.13-24.34a5.09 5.09 0 0 0 2.54-4.4v-48.67a5.09 5.09 0 0 0-2.55-4.41z" transform="translate(-78.31 -164.02)"/><g clip-path="url(#clip-path)"><path d="M160.63 62.59L118.41 86.9a5.27 5.27 0 0 0-2.72 4.41v48.67a4.9 4.9 0 0 0 1.31 3.23l47.44-81.15a5.19 5.19 0 0 0-3.81.53zm4.06 106.62a5.07 5.07 0 0 0 1.18-.49l42.18-24.34a5.2 5.2 0 0 0 2.64-4.4V91.31a5.05 5.05 0 0 0-1.54-3.54z" class="cls-7"/><path fill="url(#linear-gradient-3)" d="M286.33 250.92l-42.25-24.31a5.07 5.07 0 0 0-1.33-.53l-47.44 81.15a5.91 5.91 0 0 0 1.42 1.17l42.33 24.34a5.15 5.15 0 0 0 3.93.49l44.47-81.44a6 6 0 0 0-1.13-.87z" transform="translate(-78.31 -164.02)"/><path d="M210.69 139.98V91.31a5.22 5.22 0 0 0-2.67-4.41l-42.25-24.31a5 5 0 0 0-1.56-.57l46.32 79.12a4.51 4.51 0 0 0 .16-1.16zM118.41 86.9a5.27 5.27 0 0 0-2.72 4.41v48.67a5.28 5.28 0 0 0 2.73 4.4l42.33 24.34a5.14 5.14 0 0 0 3.25.63l-45.31-82.59z" class="cls-7"/><path fill="url(#linear-gradient-4)" d="M159.32 53.65l-.58.33h.77l-.19-.33z"/><path fill="url(#linear-gradient-5)" d="M286.35 308.4a5.32 5.32 0 0 0 2.49-3.24L242.52 226a5.16 5.16 0 0 0-3.58.57l-42 24.17 45.33 82.59a5.19 5.19 0 0 0 1.86-.63z" transform="translate(-78.31 -164.02)"/><path fill="url(#linear-gradient-6)" d="M211.97 143.6l-.28-.47v.63l.28-.16z"/><path fill="url(#linear-gradient-7)" d="M286.35 308.4l-42.18 24.34a5.19 5.19 0 0 1-1.86.63l.84 1.53L290 307.78v-.64l-1.16-2a5.32 5.32 0 0 1-2.49 3.26z" transform="translate(-78.31 -164.02)"/><path fill="url(#linear-gradient-8)" d="M286.35 308.4l-42.18 24.34a5.19 5.19 0 0 1-1.86.63l.84 1.53L290 307.78v-.64l-1.16-2a5.32 5.32 0 0 1-2.49 3.26z" transform="translate(-78.31 -164.02)"/></g></svg>