<?xml version="1.0" encoding="UTF-8" standalone="no"?>
<svg
   xmlns:dc="http://purl.org/dc/elements/1.1/"
   xmlns:cc="http://creativecommons.org/ns#"
   xmlns:rdf="http://www.w3.org/1999/02/22-rdf-syntax-ns#"
   xmlns:svg="http://www.w3.org/2000/svg"
   xmlns="http://www.w3.org/2000/svg"
   viewBox="0 0 666.66664 399.99999"
   height="400"
   width="666.66663"
   xml:space="preserve"
   id="svg2"
   version="1.1"><metadata
     id="metadata8"><rdf:RDF><cc:Work
         rdf:about=""><dc:format>image/svg+xml</dc:format><dc:type
           rdf:resource="http://purl.org/dc/dcmitype/StillImage" /><dc:title></dc:title></cc:Work></rdf:RDF></metadata><defs
     id="defs6"><clipPath
       id="clipPath20"
       clipPathUnits="userSpaceOnUse"><path
         id="path18"
         d="M 0,300 H 500 V 0 H 0 Z" /></clipPath></defs><g
     transform="matrix(1.3333333,0,0,-1.3333333,0,399.99999)"
     id="g10"><path
       id="path12"
       style="fill:#56c6c8;fill-opacity:1;fill-rule:nonzero;stroke:none"
       d="M 0,0 H 500 V 300 H 0 Z" /><g
       id="g14"><g
         clip-path="url(#clipPath20)"
         id="g16"><g
           transform="translate(195,105.3477)"
           id="g22"><path
             id="path24"
             style="fill:#ffffff;fill-opacity:1;fill-rule:nonzero;stroke:none"
             d="m 0,0 c 0,1.07 0.192,2.136 0.578,3.199 0.383,1.062 0.943,2.011 1.68,2.847 0.736,0.837 1.636,1.514 2.698,2.033 1.061,0.518 2.27,0.777 3.625,0.777 1.588,0 2.968,-0.36 4.139,-1.078 1.17,-0.72 2.04,-1.657 2.61,-2.811 L 12.169,2.76 C 11.984,3.228 11.75,3.617 11.466,3.927 11.181,4.236 10.872,4.486 10.538,4.679 10.202,4.871 9.856,5.005 9.496,5.081 9.136,5.156 8.797,5.193 8.48,5.193 7.744,5.193 7.108,5.034 6.574,4.717 6.038,4.399 5.595,3.989 5.243,3.487 4.893,2.986 4.629,2.416 4.453,1.781 4.278,1.146 4.19,0.501 4.19,-0.15 c 0,-0.703 0.104,-1.381 0.313,-2.033 0.209,-0.652 0.502,-1.23 0.878,-1.731 0.377,-0.502 0.833,-0.899 1.368,-1.192 0.535,-0.292 1.129,-0.439 1.781,-0.439 0.335,0 0.682,0.045 1.042,0.138 0.359,0.092 0.706,0.234 1.041,0.426 0.334,0.192 0.636,0.443 0.904,0.753 0.267,0.31 0.484,0.69 0.652,1.142 l 3.386,-1.982 C 15.288,-5.721 14.898,-6.306 14.389,-6.825 13.878,-7.343 13.297,-7.778 12.645,-8.129 11.992,-8.48 11.302,-8.748 10.574,-8.932 9.847,-9.116 9.132,-9.208 8.429,-9.208 c -1.238,0 -2.37,0.264 -3.398,0.791 -1.029,0.526 -1.917,1.225 -2.66,2.095 -0.745,0.869 -1.325,1.856 -1.744,2.96 C 0.208,-2.258 0,-1.137 0,0" /></g><g
           transform="translate(228.7456,114.1035)"
           id="g26"><path
             id="path28"
             style="fill:#ffffff;fill-opacity:1;fill-rule:nonzero;stroke:none"
             d="m 0,0 v -17.813 h -4.115 v 7.3 h -7.1 v -7.3 h -4.116 V 0 h 4.116 v -6.899 h 7.1 V 0 Z" /></g><g
           transform="translate(239.6597,109.7383)"
           id="g30"><path
             id="path32"
             style="fill:#ffffff;fill-opacity:1;fill-rule:nonzero;stroke:none"
             d="m 0,0 -2.133,-6.624 h 4.19 z m -8.506,-13.448 6.85,17.813 H 1.68 L 8.504,-13.448 H 4.139 l -1.38,3.989 h -5.544 l -1.356,-3.989 z" /></g><g
           transform="translate(261.1113,108.8853)"
           id="g34"><path
             id="path36"
             style="fill:#ffffff;fill-opacity:1;fill-rule:nonzero;stroke:none"
             d="M 0,0 C -0.066,0.066 -0.252,0.191 -0.553,0.376 -0.854,0.56 -1.229,0.752 -1.682,0.953 -2.133,1.154 -2.627,1.33 -3.162,1.48 -3.697,1.631 -4.232,1.706 -4.768,1.706 -5.47,1.706 -6.01,1.581 -6.386,1.33 -6.762,1.079 -6.949,0.711 -6.949,0.226 c 0,-0.302 0.082,-0.552 0.25,-0.753 0.167,-0.201 0.404,-0.381 0.715,-0.54 0.309,-0.159 0.694,-0.305 1.154,-0.438 0.46,-0.135 0.99,-0.286 1.593,-0.452 0.852,-0.234 1.623,-0.49 2.307,-0.766 0.686,-0.275 1.272,-0.618 1.758,-1.028 0.485,-0.411 0.857,-0.907 1.115,-1.493 0.26,-0.586 0.39,-1.288 0.39,-2.107 0,-1.003 -0.187,-1.853 -0.564,-2.546 -0.377,-0.695 -0.875,-1.255 -1.494,-1.682 -0.619,-0.426 -1.334,-0.736 -2.145,-0.928 -0.812,-0.192 -1.644,-0.289 -2.496,-0.289 -0.653,0 -1.318,0.051 -1.995,0.151 -0.677,0.1 -1.342,0.246 -1.994,0.438 -0.653,0.193 -1.288,0.423 -1.907,0.69 -0.619,0.268 -1.187,0.578 -1.707,0.929 L -10.162,-7 c 0.084,-0.083 0.308,-0.243 0.678,-0.477 0.367,-0.234 0.819,-0.468 1.354,-0.703 0.536,-0.234 1.138,-0.443 1.808,-0.627 0.668,-0.184 1.345,-0.276 2.031,-0.276 1.455,0 2.184,0.443 2.184,1.33 0,0.335 -0.11,0.61 -0.328,0.828 -0.216,0.217 -0.518,0.414 -0.903,0.589 -0.385,0.177 -0.836,0.339 -1.354,0.49 -0.519,0.151 -1.087,0.317 -1.705,0.502 -0.821,0.251 -1.531,0.522 -2.134,0.815 -0.602,0.293 -1.104,0.632 -1.505,1.016 -0.402,0.386 -0.698,0.828 -0.891,1.33 -0.192,0.502 -0.288,1.087 -0.288,1.757 0,0.936 0.174,1.764 0.527,2.483 0.35,0.719 0.828,1.326 1.429,1.819 0.603,0.494 1.302,0.866 2.096,1.116 0.794,0.252 1.634,0.377 2.521,0.377 0.636,0 1.254,-0.059 1.857,-0.176 C -2.183,5.076 -1.61,4.926 -1.067,4.742 -0.523,4.558 -0.01,4.349 0.476,4.115 0.961,3.88 1.396,3.646 1.781,3.412 Z" /></g><g
           transform="translate(277.3184,108.8853)"
           id="g38"><path
             id="path40"
             style="fill:#ffffff;fill-opacity:1;fill-rule:nonzero;stroke:none"
             d="M 0,0 C -0.067,0.066 -0.251,0.191 -0.552,0.376 -0.853,0.56 -1.229,0.752 -1.681,0.953 -2.132,1.154 -2.626,1.33 -3.161,1.48 -3.697,1.631 -4.231,1.706 -4.767,1.706 -5.47,1.706 -6.009,1.581 -6.385,1.33 -6.762,1.079 -6.95,0.711 -6.95,0.226 c 0,-0.302 0.084,-0.552 0.252,-0.753 0.166,-0.201 0.404,-0.381 0.715,-0.54 0.308,-0.159 0.693,-0.305 1.153,-0.438 0.46,-0.135 0.991,-0.286 1.595,-0.452 0.851,-0.234 1.621,-0.49 2.307,-0.766 0.685,-0.275 1.271,-0.618 1.756,-1.028 0.485,-0.411 0.858,-0.907 1.117,-1.493 0.258,-0.586 0.388,-1.288 0.388,-2.107 0,-1.003 -0.187,-1.853 -0.563,-2.546 -0.376,-0.695 -0.874,-1.255 -1.494,-1.682 -0.619,-0.426 -1.334,-0.736 -2.145,-0.928 -0.812,-0.192 -1.644,-0.289 -2.496,-0.289 -0.653,0 -1.318,0.051 -1.995,0.151 -0.678,0.1 -1.342,0.246 -1.994,0.438 -0.653,0.193 -1.289,0.423 -1.907,0.69 -0.62,0.268 -1.189,0.578 -1.707,0.929 L -10.161,-7 c 0.083,-0.083 0.31,-0.243 0.678,-0.477 0.367,-0.234 0.818,-0.468 1.355,-0.703 0.534,-0.234 1.137,-0.443 1.805,-0.627 0.67,-0.184 1.347,-0.276 2.033,-0.276 1.455,0 2.182,0.443 2.182,1.33 0,0.335 -0.109,0.61 -0.325,0.828 -0.218,0.217 -0.519,0.414 -0.904,0.589 -0.385,0.177 -0.836,0.339 -1.354,0.49 -0.519,0.151 -1.087,0.317 -1.706,0.502 -0.821,0.251 -1.532,0.522 -2.133,0.815 -0.602,0.293 -1.104,0.632 -1.506,1.016 -0.401,0.386 -0.698,0.828 -0.891,1.33 -0.191,0.502 -0.289,1.087 -0.289,1.757 0,0.936 0.178,1.764 0.528,2.483 0.352,0.719 0.828,1.326 1.43,1.819 0.603,0.494 1.3,0.866 2.095,1.116 0.795,0.252 1.635,0.377 2.521,0.377 0.637,0 1.255,-0.059 1.857,-0.176 C -2.183,5.076 -1.61,4.926 -1.065,4.742 -0.522,4.558 -0.009,4.349 0.477,4.115 0.962,3.88 1.396,3.646 1.782,3.412 Z" /></g><path
           id="path42"
           style="fill:#ffffff;fill-opacity:1;fill-rule:nonzero;stroke:none"
           d="m 282.813,114.104 h 4.114 V 96.291 h -4.114 z" /><g
           transform="translate(301.8057,108.8853)"
           id="g44"><path
             id="path46"
             style="fill:#ffffff;fill-opacity:1;fill-rule:nonzero;stroke:none"
             d="M 0,0 C -0.066,0.066 -0.252,0.191 -0.552,0.376 -0.854,0.56 -1.229,0.752 -1.682,0.953 -2.133,1.154 -2.627,1.33 -3.162,1.48 -3.697,1.631 -4.232,1.706 -4.768,1.706 -5.47,1.706 -6.01,1.581 -6.386,1.33 -6.762,1.079 -6.95,0.711 -6.95,0.226 c 0,-0.302 0.083,-0.552 0.251,-0.753 0.168,-0.201 0.405,-0.381 0.715,-0.54 0.309,-0.159 0.695,-0.305 1.154,-0.438 0.46,-0.135 0.991,-0.286 1.593,-0.452 0.852,-0.234 1.623,-0.49 2.307,-0.766 0.687,-0.275 1.272,-0.618 1.758,-1.028 0.485,-0.411 0.857,-0.907 1.115,-1.493 0.26,-0.586 0.389,-1.288 0.389,-2.107 0,-1.003 -0.186,-1.853 -0.563,-2.546 -0.376,-0.695 -0.874,-1.255 -1.494,-1.682 -0.619,-0.426 -1.334,-0.736 -2.144,-0.928 -0.813,-0.192 -1.644,-0.289 -2.498,-0.289 -0.651,0 -1.317,0.051 -1.993,0.151 -0.677,0.1 -1.343,0.246 -1.995,0.438 -0.653,0.193 -1.289,0.423 -1.907,0.69 -0.619,0.268 -1.187,0.578 -1.707,0.929 L -10.162,-7 c 0.084,-0.083 0.309,-0.243 0.678,-0.477 0.368,-0.234 0.819,-0.468 1.355,-0.703 0.535,-0.234 1.137,-0.443 1.807,-0.627 0.668,-0.184 1.345,-0.276 2.032,-0.276 1.454,0 2.183,0.443 2.183,1.33 0,0.335 -0.11,0.61 -0.328,0.828 -0.216,0.217 -0.517,0.414 -0.902,0.589 -0.386,0.177 -0.837,0.339 -1.354,0.49 -0.52,0.151 -1.088,0.317 -1.707,0.502 -0.82,0.251 -1.53,0.522 -2.132,0.815 -0.603,0.293 -1.105,0.632 -1.505,1.016 -0.403,0.386 -0.7,0.828 -0.892,1.33 -0.192,0.502 -0.288,1.087 -0.288,1.757 0,0.936 0.175,1.764 0.527,2.483 0.35,0.719 0.828,1.326 1.43,1.819 0.602,0.494 1.301,0.866 2.095,1.116 0.794,0.252 1.634,0.377 2.52,0.377 0.636,0 1.255,-0.059 1.858,-0.176 C -2.182,5.076 -1.609,4.926 -1.066,4.742 -0.523,4.558 -0.009,4.349 0.477,4.115 0.961,3.88 1.396,3.646 1.781,3.412 Z" /></g><g
           transform="translate(250,132.0557)"
           id="g48"><path
             id="path50"
             style="fill:#ffffff;fill-opacity:1;fill-rule:nonzero;stroke:none"
             d="m 0,0 v 5.24 c 9,0.378 13.096,2.776 17.861,6.879 L 21.104,8.421 C 15.334,3.331 9,0.392 0,0 M 17.348,56.257 C 12.645,60.083 7,62.313 0,62.647 v 5.244 C 9,67.544 14.947,64.778 20.652,59.977 Z M 9.826,48.736 C 7.168,50.655 5,51.813 0,52.104 v 6.142 c 7,-0.32 9.961,-2.091 13.814,-5.11 z M -3,15.892 V 9.718 c -6,0.558 -9.651,2.74 -13.34,6.024 l 4.234,4.341 C -9.548,17.893 -7,16.397 -3,15.892 M -19.451,12.631 C -14.956,8.559 -9,5.888 -3,5.307 V 0.062 c -9,0.603 -14.806,3.855 -20.257,8.871 z m -9.163,18.313 c 0.456,-5 2.76,-11.107 6.353,-15.521 l -3.714,-3.913 c -4.525,5.384 -7.409,12.434 -7.887,19.434 z m 6.852,21.607 c -3.876,-4.511 -6.376,-9.607 -6.852,-16.607 h -5.248 c 0.495,9 3.578,14.793 8.392,20.266 z M -3,62.558 c -6,-0.584 -11.42,-3.053 -15.79,-6.806 l -3.774,3.707 C -17.231,64.15 -12,67.195 -3,67.806 Z m -12.68,-9.916 c 3.558,2.97 6.68,4.944 12.68,5.499 v -6.172 c -4,-0.487 -5.985,-1.79 -8.394,-3.682 z m -2.372,-16.698 h -6.162 c 0.455,5 2.47,9.796 5.562,13.497 l 4.355,-4.402 c -2.006,-2.559 -3.346,-6.095 -3.755,-9.095 m -1.085,-17.398 c -2.817,3.596 -4.646,8.398 -5.077,12.398 h 6.162 c 0.376,-2 1.54,-5.792 3.289,-8.224 z m 29.524,1.049 3.91,-4.364 C 10.373,11.945 7,10.007 0,9.644 v 6.148 c 5,0.333 7.645,1.641 10.387,3.803 M 11.381,25.714 9.83,24.16 C 7.209,21.536 3.737,20.091 0.053,20.091 c -7.639,0 -13.853,6.213 -13.853,13.849 0,7.637 6.214,13.849 13.853,13.849 3.416,0 6.711,-1.287 9.28,-3.626 l 1.549,-1.41 17.338,17.34 -1.616,1.552 C 19.427,68.53 9.998,72.321 0.053,72.321 c -21.165,0 -38.386,-17.217 -38.386,-38.381 0,-21.162 17.221,-38.381 38.386,-38.381 10.23,0 19.86,4.001 27.117,11.263 l 1.552,1.551 z" /></g></g></g></g></svg>