<?xml version="1.0" encoding="UTF-8" standalone="no"?>
<svg
   xmlns:dc="http://purl.org/dc/elements/1.1/"
   xmlns:cc="http://creativecommons.org/ns#"
   xmlns:rdf="http://www.w3.org/1999/02/22-rdf-syntax-ns#"
   xmlns:svg="http://www.w3.org/2000/svg"
   xmlns="http://www.w3.org/2000/svg"
   viewBox="0 0 666.66663 400"
   height="400"
   width="666.66663"
   xml:space="preserve"
   id="svg2"
   version="1.1"><metadata
     id="metadata8"><rdf:RDF><cc:Work
         rdf:about=""><dc:format>image/svg+xml</dc:format><dc:type
           rdf:resource="http://purl.org/dc/dcmitype/StillImage" /><dc:title></dc:title></cc:Work></rdf:RDF></metadata><defs
     id="defs6"><clipPath
       id="clipPath20"
       clipPathUnits="userSpaceOnUse"><path
         id="path18"
         d="M 0,300 H 500 V 0 H 0 Z" /></clipPath></defs><g
     transform="matrix(1.3333333,0,0,-1.3333333,0,399.99999)"
     id="g10"><path
       id="path12"
       style="fill:#56c6c8;fill-opacity:1;fill-rule:nonzero;stroke:none"
       d="M 0,0 H 500 V 300 H 0 Z" /><g
       id="g14"><g
         clip-path="url(#clipPath20)"
         id="g16"><g
           transform="translate(250,132.0557)"
           id="g22"><path
             id="path24"
             style="fill:#ffffff;fill-opacity:1;fill-rule:nonzero;stroke:none"
             d="m 0,0 v 5.24 c 9,0.378 13.096,2.776 17.861,6.879 L 21.104,8.421 C 15.334,3.331 9,0.392 0,0 M 17.348,56.257 C 12.645,60.083 7,62.313 0,62.647 v 5.244 C 9,67.544 14.947,64.778 20.652,59.977 Z M 9.826,48.736 C 7.168,50.655 5,51.813 0,52.104 v 6.142 c 7,-0.32 9.961,-2.091 13.814,-5.11 z M -3,15.892 V 9.718 c -6,0.558 -9.651,2.74 -13.34,6.024 l 4.234,4.341 C -9.548,17.893 -7,16.397 -3,15.892 M -19.451,12.631 C -14.956,8.559 -9,5.888 -3,5.307 V 0.062 c -9,0.603 -14.806,3.855 -20.257,8.871 z m -9.163,18.313 c 0.456,-5 2.76,-11.107 6.353,-15.521 l -3.714,-3.913 c -4.525,5.384 -7.409,12.434 -7.887,19.434 z m 6.852,21.607 c -3.876,-4.511 -6.376,-9.607 -6.852,-16.607 h -5.248 c 0.495,9 3.578,14.793 8.392,20.266 z M -3,62.558 c -6,-0.584 -11.42,-3.053 -15.79,-6.806 l -3.774,3.707 C -17.231,64.15 -12,67.195 -3,67.806 Z m -12.68,-9.916 c 3.558,2.97 6.68,4.944 12.68,5.499 v -6.172 c -4,-0.487 -5.985,-1.79 -8.394,-3.682 z m -2.372,-16.698 h -6.162 c 0.455,5 2.47,9.796 5.562,13.497 l 4.355,-4.402 c -2.006,-2.559 -3.346,-6.095 -3.755,-9.095 m -1.085,-17.398 c -2.817,3.596 -4.646,8.398 -5.077,12.398 h 6.162 c 0.376,-2 1.54,-5.792 3.289,-8.224 z m 29.524,1.049 3.91,-4.364 C 10.373,11.945 7,10.007 0,9.644 v 6.148 c 5,0.333 7.645,1.641 10.387,3.803 M 11.381,25.714 9.83,24.16 C 7.209,21.536 3.737,20.091 0.053,20.091 c -7.639,0 -13.853,6.213 -13.853,13.849 0,7.637 6.214,13.849 13.853,13.849 3.416,0 6.711,-1.287 9.28,-3.626 l 1.549,-1.41 17.338,17.34 -1.616,1.552 C 19.427,68.53 9.998,72.321 0.053,72.321 c -21.165,0 -38.386,-17.217 -38.386,-38.381 0,-21.162 17.221,-38.381 38.386,-38.381 10.23,0 19.86,4.001 27.117,11.263 l 1.552,1.551 z" /></g></g></g></g></svg>