<?xml version="1.0" encoding="UTF-8" standalone="no"?>
<svg
   xmlns:dc="http://purl.org/dc/elements/1.1/"
   xmlns:cc="http://creativecommons.org/ns#"
   xmlns:rdf="http://www.w3.org/1999/02/22-rdf-syntax-ns#"
   xmlns:svg="http://www.w3.org/2000/svg"
   xmlns="http://www.w3.org/2000/svg"
   viewBox="0 0 1530.63 379.04944"
   height="379.04944"
   width="1530.63"
   xml:space="preserve"
   id="svg2"
   version="1.1"><metadata
     id="metadata8"><rdf:RDF><cc:Work
         rdf:about=""><dc:format>image/svg+xml</dc:format><dc:type
           rdf:resource="http://purl.org/dc/dcmitype/StillImage" /><dc:title></dc:title></cc:Work></rdf:RDF></metadata><defs
     id="defs6"><clipPath
       id="clipPath18"
       clipPathUnits="userSpaceOnUse"><path
         id="path16"
         d="M 0,375 H 1252 V 0 H 0 Z" /></clipPath></defs><g
     transform="matrix(1.3333333,0,0,-1.3333333,-66.665198,432.41009)"
     id="g10"><g
       id="g12"><g
         clip-path="url(#clipPath18)"
         id="g14"><g
           transform="translate(178.019,199.7588)"
           id="g20"><path
             id="path22"
             style="fill:#368662;fill-opacity:1;fill-rule:nonzero;stroke:none"
             d="m 0,0 -2.551,1.561 c -21.345,9.744 -40.37,0 -40.37,0 l -2.667,-2.319 v -4.397 l 2.667,0.824 c 0,0 19.025,9.745 40.37,0 l 3.247,-1.647 z" /></g><g
           transform="translate(117.0962,201.9531)"
           id="g24"><path
             id="path26"
             style="fill:#368662;fill-opacity:1;fill-rule:nonzero;stroke:none"
             d="m 0,0 c 0,-10.211 -8.278,-18.493 -18.495,-18.493 -10.221,0 -18.496,8.282 -18.496,18.493 0,10.213 8.275,18.497 18.496,18.497 C -8.279,18.497 0,10.213 0,0" /></g><g
           transform="translate(193.6509,231.3008)"
           id="g28"><path
             id="path30"
             style="fill:#368662;fill-opacity:1;fill-rule:nonzero;stroke:none"
             d="m 0,0 c 5.316,3.068 11.477,4.828 18.056,4.828 9.366,0 17.903,-3.557 24.33,-9.396 0.266,-0.07 0.529,-0.138 0.767,-0.213 0,0 45.078,69.228 -12.784,41.563 0,0 -64.651,89.43 -130.857,42.715 0,0 10.129,-5.456 13.721,-10.426 0,0 -48.808,-2.78 -56.885,-26.84 0,0 14.251,1.503 14.048,-2.058 0,0 -18.732,-2.742 4.401,-50.955 6.479,9.788 17.582,16.244 30.195,16.244 10.95,0 20.756,-4.869 27.393,-12.55 8.982,1.585 19.836,4.8 26.899,11.334 C -40.715,4.247 12.542,15.754 0,0" /></g><g
           transform="translate(98.0581,173.3408)"
           id="g32"><path
             id="path34"
             style="fill:#368662;fill-opacity:1;fill-rule:nonzero;stroke:none"
             d="m 0,0 c -15.76,0 -28.536,12.776 -28.536,28.535 0,15.76 12.776,28.538 28.536,28.538 15.762,0 28.537,-12.778 28.537,-28.538 C 28.537,12.776 15.762,0 0,0 m 0.542,64.803 c -19.989,0 -36.191,-16.201 -36.191,-36.191 0,-19.988 16.202,-36.191 36.191,-36.191 19.989,0 36.193,16.203 36.193,36.191 0,19.99 -16.205,36.191 -36.193,36.191" /></g><g
           transform="translate(211.1191,172.707)"
           id="g36"><path
             id="path38"
             style="fill:#368662;fill-opacity:1;fill-rule:nonzero;stroke:none"
             d="m 0,0 c -15.761,0 -28.537,12.775 -28.537,28.538 0,15.76 12.776,28.535 28.537,28.535 15.762,0 28.536,-12.775 28.536,-28.535 C 28.536,12.775 15.761,0 0,0 m 0.542,64.807 c -19.988,0 -36.192,-16.204 -36.192,-36.193 0,-19.988 16.204,-36.191 36.192,-36.191 19.989,0 36.192,16.203 36.192,36.191 0,19.989 -16.203,36.193 -36.192,36.193" /></g><g
           transform="translate(230.1563,201.3198)"
           id="g40"><path
             id="path42"
             style="fill:#368662;fill-opacity:1;fill-rule:nonzero;stroke:none"
             d="m 0,0 c 0,-10.211 -8.278,-18.495 -18.495,-18.495 -10.22,0 -18.496,8.284 -18.496,18.495 0,10.212 8.276,18.495 18.496,18.495 C -8.279,18.495 0,10.213 0,0" /></g><g
           transform="translate(189.8032,172.666)"
           id="g44"><path
             id="path46"
             style="fill:#368662;fill-opacity:1;fill-rule:nonzero;stroke:none"
             d="m 0,0 34.101,-2.785 c 0,0 25.416,-38.744 -72.522,-49.881 l -25.051,4.009 C -63.473,-48.657 15.603,-29.813 0,0" /></g><g
           transform="translate(301.7451,129.3242)"
           id="g48"><path
             id="path50"
             style="fill:#231f20;fill-opacity:1;fill-rule:nonzero;stroke:none"
             d="m 0,0 h 8.64 c 1.44,0 2.16,1.199 2.16,3.6 v 71.854 c 0,1.44 -0.144,2.376 -0.432,2.808 C 10.08,78.694 9.504,78.91 8.64,78.91 H 0 v 8.352 H 35.567 V 78.91 h -8.64 c -0.864,0 -1.44,-0.216 -1.728,-0.648 -0.288,-0.432 -0.432,-1.368 -0.432,-2.808 V 3.6 c 0,-2.401 0.72,-3.6 2.16,-3.6 h 8.64 V -8.352 H 0 Z" /></g><g
           transform="translate(367.9829,175.834)"
           id="g52"><path
             id="path54"
             style="fill:#231f20;fill-opacity:1;fill-rule:nonzero;stroke:none"
             d="M 0,0 C 4.704,11.137 12.912,16.704 24.624,16.704 39.408,16.704 46.8,8.4 46.8,-8.207 v -34.992 c 0,-1.344 0.168,-2.233 0.504,-2.664 0.336,-0.432 0.888,-0.648 1.656,-0.648 h 8.063 v -8.352 H 23.616 v 8.352 h 7.488 c 1.344,0 2.016,1.104 2.016,3.312 v 34.56 c 0,5.472 -1.079,9.455 -3.24,11.952 C 27.72,5.809 24.288,7.057 19.584,7.057 13.536,7.057 8.784,4.609 5.328,-0.287 1.872,-5.184 0.144,-12.189 0.144,-21.311 v -21.887 c 0,-1.344 0.168,-2.232 0.504,-2.663 0.336,-0.433 0.888,-0.649 1.656,-0.649 h 7.632 v -8.351 h -33.695 v 8.351 h 8.064 c 0.768,0 1.32,0.216 1.656,0.649 0.336,0.431 0.504,1.319 0.504,2.663 V 2.736 c 0,2.592 -0.72,3.888 -2.16,3.888 h -8.064 v 8.352 h 7.776 c 6.144,0 11.472,0.432 15.983,1.296 z" /></g><g
           transform="translate(444.2305,123.9961)"
           id="g56"><path
             id="path58"
             style="fill:#231f20;fill-opacity:1;fill-rule:nonzero;stroke:none"
             d="m 0,0 c -3.024,3.072 -4.536,8.16 -4.536,15.264 v 43.199 h -10.513 v 7.488 l 6.912,0.432 c 2.017,0.288 3.529,0.864 4.536,1.728 1.008,0.864 1.609,2.304 1.8,4.32 l 1.296,12.672 H 9.144 V 66.815 H 24.552 V 58.463 H 8.712 V 15.408 c 0,-3.936 0.767,-6.744 2.304,-8.424 1.536,-1.68 4.032,-2.52 7.488,-2.52 2.11,0 4.559,0.432 7.344,1.296 V -2.88 C 22.392,-4.032 18.743,-4.607 14.903,-4.607 7.991,-4.607 3.023,-3.072 0,0" /></g><g
           transform="translate(497.6523,178.1387)"
           id="g60"><path
             id="path62"
             style="fill:#231f20;fill-opacity:1;fill-rule:nonzero;stroke:none"
             d="M 0,0 C -3.696,-3.936 -5.784,-9.6 -6.265,-16.992 H 34.486 C 34.198,-1.728 27.767,5.904 15.19,5.904 8.76,5.903 3.695,3.937 0,0 m -6.264,-24.623 c 0.192,-7.681 2.305,-13.849 6.336,-18.505 4.032,-4.655 9.743,-6.983 17.136,-6.983 11.231,0 18.575,5.423 22.031,16.271 l 8.353,-3.456 c -1.824,-6.528 -5.376,-11.76 -10.655,-15.696 -5.281,-3.936 -12.193,-5.904 -20.737,-5.904 -11.424,0 -20.351,3.384 -26.782,10.152 -6.432,6.768 -9.647,15.625 -9.647,26.567 0,10.752 3.288,19.536 9.863,26.353 6.576,6.815 15.095,10.223 25.559,10.223 10.272,0 18.336,-3.168 24.192,-9.503 5.855,-6.335 8.784,-15.023 8.784,-26.062 v -3.457 z" /></g><g
           transform="translate(576.9229,175.834)"
           id="g64"><path
             id="path66"
             style="fill:#231f20;fill-opacity:1;fill-rule:nonzero;stroke:none"
             d="m 0,0 c 3.36,11.137 9.792,16.704 19.296,16.704 4.896,0 8.712,-1.392 11.447,-4.176 2.736,-2.784 4.104,-6.432 4.104,-10.944 0,-3.648 -0.96,-6.576 -2.88,-8.784 -1.92,-2.208 -4.416,-3.312 -7.488,-3.312 -2.111,0 -3.912,0.744 -5.399,2.233 -1.488,1.487 -2.231,3.239 -2.231,5.256 0,1.727 0.551,3.311 1.655,4.752 1.104,1.439 2.567,2.351 4.392,2.735 C 21.84,6.576 19.729,7.632 16.561,7.632 11.185,7.632 7.128,5.184 4.394,0.288 1.657,-4.607 0.289,-11.279 0.289,-19.729 V -43.2 c 0,-2.208 0.672,-3.312 2.017,-3.312 h 8.783 v -8.351 h -34.703 v 8.351 h 8.063 c 0.769,0 1.321,0.216 1.656,0.649 0.336,0.431 0.504,1.319 0.504,2.663 V 2.736 c 0,2.592 -0.719,3.888 -2.16,3.888 h -8.351 v 8.352 h 7.774 c 6.24,0 11.616,0.432 16.128,1.296 z" /></g><g
           transform="translate(641.1465,175.834)"
           id="g68"><path
             id="path70"
             style="fill:#231f20;fill-opacity:1;fill-rule:nonzero;stroke:none"
             d="m 0,0 c 4.703,11.137 12.91,16.704 24.622,16.704 14.784,0 22.177,-8.304 22.177,-24.911 v -34.992 c 0,-1.344 0.168,-2.233 0.504,-2.664 0.336,-0.432 0.887,-0.648 1.656,-0.648 h 8.062 v -8.352 H 23.614 v 8.352 h 7.489 c 1.343,0 2.015,1.104 2.015,3.312 v 34.56 c 0,5.472 -1.08,9.455 -3.239,11.952 -2.16,2.496 -5.593,3.744 -10.297,3.744 -6.048,0 -10.8,-2.448 -14.256,-7.344 C 1.871,-5.184 0.143,-12.189 0.143,-21.311 v -21.887 c 0,-1.344 0.168,-2.232 0.503,-2.663 0.336,-0.433 0.889,-0.649 1.657,-0.649 h 7.632 v -8.351 h -33.696 v 8.351 h 8.064 c 0.768,0 1.32,0.216 1.656,0.649 0.336,0.431 0.504,1.319 0.504,2.663 V 2.736 c 0,2.592 -0.721,3.888 -2.16,3.888 h -8.064 v 8.352 h 7.776 c 6.145,0 11.472,0.432 15.984,1.296 L -0.001,0 Z" /></g><g
           transform="translate(715.4482,119.2441)"
           id="g72"><path
             id="path74"
             style="fill:#231f20;fill-opacity:1;fill-rule:nonzero;stroke:none"
             d="m 0,0 c -2.688,0 -4.872,0.863 -6.552,2.592 -1.681,1.728 -2.521,3.935 -2.521,6.624 0,2.688 0.84,4.895 2.521,6.624 1.68,1.728 3.863,2.592 6.552,2.592 2.688,0 4.896,-0.864 6.624,-2.592 C 8.352,14.111 9.216,11.904 9.216,9.216 9.216,6.527 8.352,4.32 6.624,2.592 4.896,0.863 2.688,0 0,0" /></g><g
           transform="translate(303.3838,58.168)"
           id="g76"><path
             id="path78"
             style="fill:#231f20;fill-opacity:1;fill-rule:nonzero;stroke:none"
             d="M 0,0 V 11.161 H 3.024 V 1.729 c 3.648,-1.873 7.969,-2.809 12.961,-2.809 3.792,0 6.792,0.888 9.001,2.664 2.208,1.776 3.312,4.176 3.312,7.201 0,3.072 -1.116,5.34 -3.348,6.805 -2.232,1.465 -5.581,2.676 -10.045,3.637 -4.705,1.007 -8.305,2.507 -10.801,4.5 -2.497,1.991 -3.745,4.859 -3.745,8.603 0,3.888 1.452,7.044 4.356,9.469 2.904,2.426 6.685,3.637 11.341,3.637 5.52,0 10.345,-1.248 14.473,-3.745 V 30.674 h -3.024 v 9.361 c -3.264,1.68 -7.081,2.522 -11.449,2.522 -3.697,0 -6.637,-0.889 -8.821,-2.666 -2.185,-1.776 -3.276,-4.127 -3.276,-7.057 0,-2.93 1.032,-5.124 3.096,-6.588 2.064,-1.465 5.112,-2.628 9.145,-3.492 5.088,-1.104 8.988,-2.652 11.701,-4.645 2.713,-1.993 4.068,-4.908 4.068,-8.749 0,-3.984 -1.452,-7.201 -4.356,-9.649 C 24.709,-2.737 20.809,-3.961 15.912,-3.961 10.009,-3.96 4.705,-2.64 0,0" /></g><g
           transform="translate(367.8618,61.084)"
           id="g80"><path
             id="path82"
             style="fill:#231f20;fill-opacity:1;fill-rule:nonzero;stroke:none"
             d="m 0,0 c 2.424,2.76 3.636,6.469 3.636,11.125 v 0.359 c 0,4.659 -1.212,8.366 -3.636,11.125 -2.424,2.761 -5.677,4.142 -9.757,4.142 -4.176,0 -7.477,-1.38 -9.9,-4.142 -2.424,-2.759 -3.637,-6.466 -3.637,-11.125 v -0.359 c 0,-4.656 1.212,-8.365 3.637,-11.125 2.424,-2.76 5.676,-4.14 9.757,-4.14 4.175,0 7.476,1.38 9.9,4.14 m -22.215,-1.8 c -3.168,3.384 -4.752,7.765 -4.752,13.141 0,5.329 1.608,9.673 4.825,13.033 3.217,3.36 7.369,5.041 12.457,5.041 4.992,0 9.061,-1.668 12.205,-5.004 3.144,-3.336 4.716,-7.693 4.716,-13.069 0,-5.376 -1.584,-9.757 -4.752,-13.141 -3.168,-3.384 -7.296,-5.076 -12.385,-5.076 -5.041,-0.001 -9.145,1.691 -12.314,5.075" /></g><g
           transform="translate(379.1992,89.7793)"
           id="g84"><path
             id="path86"
             style="fill:#231f20;fill-opacity:1;fill-rule:nonzero;stroke:none"
             d="m 0,0 h 5.328 v 5.185 c 0,3.12 0.672,5.413 2.017,6.876 1.344,1.464 3.408,2.196 6.192,2.196 1.92,0 3.552,-0.361 4.896,-1.08 v -2.808 c -1.296,0.768 -2.76,1.152 -4.393,1.152 -1.824,0 -3.144,-0.492 -3.96,-1.476 C 9.264,9.061 8.88,7.345 8.928,4.896 V 0 h 7.633 V -2.663 H 8.928 v -28.083 c 0,-0.912 0.288,-1.368 0.864,-1.368 h 5.4 v -2.665 H 0.07 v 2.664 h 4.393 c 0.576,0 0.864,0.456 0.864,1.368 V -2.664 H -0.001 V 0 Z" /></g><g
           transform="translate(406.5234,56.3682)"
           id="g88"><path
             id="path90"
             style="fill:#231f20;fill-opacity:1;fill-rule:nonzero;stroke:none"
             d="m 0,0 c -1.32,1.344 -1.98,3.552 -1.98,6.625 v 24.122 h -5.688 v 2.304 l 4.248,0.288 c 0.673,0.048 1.141,0.191 1.404,0.432 0.265,0.24 0.42,0.72 0.468,1.44 l 0.505,6.265 h 2.808 v -8.065 h 8.569 V 30.747 H 1.62 V 6.625 c 0,-2.064 0.421,-3.564 1.261,-4.5 0.84,-0.937 2.195,-1.404 4.067,-1.404 0.96,0 2.328,0.24 4.105,0.719 V -1.224 C 9.469,-1.751 7.908,-2.015 6.373,-2.015 3.444,-2.017 1.319,-1.344 0,0" /></g><g
           transform="translate(425.1338,85.7471)"
           id="g92"><path
             id="path94"
             style="fill:#231f20;fill-opacity:1;fill-rule:nonzero;stroke:none"
             d="M 0,0 C -0.336,0.912 -0.792,1.368 -1.368,1.368 H -5.544 V 4.032 H 8.929 V 1.368 H 4.825 c -1.103,0 -1.464,-0.48 -1.08,-1.44 l 8.137,-25.995 c 0.288,0.816 1.86,5.341 4.717,13.573 2.855,8.233 4.284,12.373 4.284,12.421 0.385,0.96 0.049,1.44 -1.008,1.44 H 16.852 V 4.03 H 30.604 V 1.367 h -3.097 c -1.104,0 -1.464,-0.48 -1.08,-1.44 0,-0.048 0.744,-2.172 2.232,-6.373 1.488,-4.201 2.988,-8.485 4.5,-12.853 1.513,-4.369 2.34,-6.697 2.485,-6.985 0.095,0.288 0.803,2.616 2.124,6.985 1.319,4.368 2.628,8.652 3.924,12.853 1.296,4.2 1.943,6.324 1.943,6.373 0.288,0.96 -0.048,1.44 -1.008,1.44 H 38.091 V 4.03 H 51.988 V 1.367 h -3.961 c -0.527,0 -0.983,-0.456 -1.368,-1.368 L 36.65,-31.18 H 33.842 L 23.401,-0.937 12.816,-31.18 h -2.808 z" /></g><g
           transform="translate(501.5625,60.7959)"
           id="g96"><path
             id="path98"
             style="fill:#231f20;fill-opacity:1;fill-rule:nonzero;stroke:none"
             d="m 0,0 c 2.327,2.568 3.492,5.894 3.492,9.974 v 3.168 C -3.901,12.421 -9.193,11.317 -12.386,9.829 -15.577,8.341 -17.174,6.06 -17.174,2.988 c 0,-2.016 0.744,-3.66 2.233,-4.932 1.487,-1.272 3.431,-1.908 5.832,-1.908 3.745,0 6.781,1.285 9.109,3.852 m -16.453,22.79 c 1.584,-0.336 2.376,-1.248 2.376,-2.736 0,-0.816 -0.265,-1.463 -0.792,-1.944 -0.527,-0.48 -1.225,-0.72 -2.088,-0.72 -0.912,0 -1.656,0.324 -2.232,0.972 -0.577,0.649 -0.865,1.5 -0.865,2.556 0,2.496 1.381,4.584 4.142,6.265 2.761,1.68 6.06,2.52 9.9,2.52 4.512,0 7.836,-0.996 9.974,-2.988 2.136,-1.991 3.204,-5.052 3.204,-9.181 V -1.764 c 0,-0.912 0.287,-1.368 0.863,-1.368 h 4.968 V -5.796 H 4.356 C 4.021,-3.78 3.78,-1.116 3.637,2.197 2.629,-0.539 0.9,-2.687 -1.549,-4.247 c -2.447,-1.561 -5.231,-2.34 -8.352,-2.34 -3.265,0 -5.894,0.852 -7.885,2.556 -1.992,1.704 -2.988,3.925 -2.988,6.661 0,3.792 1.908,6.685 5.724,8.678 3.818,1.992 9.997,3.395 18.542,4.211 v 1.944 c 0,3.36 -0.779,5.809 -2.341,7.345 -1.559,1.537 -4.044,2.304 -7.452,2.304 -4.992,-10e-4 -8.376,-1.441 -10.152,-4.322" /></g><g
           transform="translate(526.8701,81.9297)"
           id="g100"><path
             id="path102"
             style="fill:#231f20;fill-opacity:1;fill-rule:nonzero;stroke:none"
             d="m 0,0 c 1.728,5.713 4.992,8.569 9.793,8.569 2.256,0 3.996,-0.6 5.22,-1.799 1.225,-1.201 1.837,-2.688 1.837,-4.465 0,-1.295 -0.301,-2.316 -0.9,-3.06 -0.599,-0.743 -1.404,-1.116 -2.412,-1.116 -0.721,0 -1.332,0.24 -1.836,0.721 -0.504,0.479 -0.758,1.055 -0.758,1.727 0,1.536 0.817,2.401 2.449,2.593 C 13.249,3.842 12.841,4.453 12.169,5.006 11.497,5.557 10.561,5.834 9.359,5.834 6.336,5.834 4.056,4.369 2.52,1.441 0.983,-1.486 0.215,-5.375 0.215,-10.224 v -12.672 c 0,-0.913 0.288,-1.369 0.864,-1.369 h 5.4 V -26.93 H -9.363 v 2.664 h 5.041 c 0.576,0 0.864,0.456 0.864,1.369 V 3.602 c 0,1.055 -0.288,1.584 -0.864,1.584 H -9.435 V 7.85 h 1.801 c 2.977,0 5.521,0.168 7.633,0.504 V 0 Z" /></g><g
           transform="translate(555.4541,84.1992)"
           id="g104"><path
             id="path106"
             style="fill:#231f20;fill-opacity:1;fill-rule:nonzero;stroke:none"
             d="M 0,0 C -2.354,-2.473 -3.696,-5.725 -4.033,-9.758 H 21.386 C 21.337,-5.629 20.245,-2.354 18.11,0.072 15.973,2.496 13.033,3.708 9.289,3.708 5.448,3.708 2.352,2.472 0,0 m -4.033,-12.278 c 0,-4.321 1.225,-7.896 3.673,-10.729 2.448,-2.832 5.736,-4.248 9.864,-4.248 6.865,0 11.09,3.264 12.674,9.792 l 2.736,-0.792 c -0.769,-3.553 -2.474,-6.396 -5.112,-8.533 -2.641,-2.136 -6.097,-3.204 -10.369,-3.204 -5.185,0 -9.349,1.704 -12.493,5.112 -3.144,3.407 -4.717,7.753 -4.717,13.032 0,5.33 1.584,9.686 4.753,13.07 3.168,3.383 7.296,5.076 12.385,5.076 4.752,0 8.557,-1.548 11.413,-4.646 2.856,-3.095 4.284,-7.164 4.284,-12.205 V -12.28 H -4.033 Z" /></g><g
           transform="translate(608.4082,56.3682)"
           id="g108"><path
             id="path110"
             style="fill:#231f20;fill-opacity:1;fill-rule:nonzero;stroke:none"
             d="m 0,0 c -1.32,1.344 -1.98,3.552 -1.98,6.625 v 24.122 h -5.688 v 2.304 l 4.249,0.288 c 0.672,0.048 1.14,0.191 1.403,0.432 0.265,0.24 0.42,0.72 0.469,1.44 l 0.504,6.265 h 2.808 v -8.065 h 8.569 V 30.747 H 1.621 V 6.625 c 0,-2.064 0.42,-3.564 1.26,-4.5 0.841,-0.937 2.196,-1.404 4.068,-1.404 0.96,0 2.328,0.24 4.104,0.719 V -1.224 C 9.469,-1.751 7.908,-2.015 6.372,-2.015 3.445,-2.017 1.32,-1.344 0,0" /></g><g
           transform="translate(631.1963,84.1992)"
           id="g112"><path
             id="path114"
             style="fill:#231f20;fill-opacity:1;fill-rule:nonzero;stroke:none"
             d="m 0,0 c -2.354,-2.473 -3.696,-5.725 -4.033,-9.758 h 25.419 c -0.049,4.129 -1.141,7.404 -3.277,9.83 C 15.973,2.496 13.032,3.708 9.289,3.708 5.448,3.708 2.352,2.472 0,0 m -4.033,-12.278 c 0,-4.321 1.224,-7.896 3.673,-10.729 2.448,-2.832 5.736,-4.248 9.864,-4.248 6.865,0 11.09,3.264 12.674,9.792 l 2.736,-0.792 c -0.769,-3.553 -2.474,-6.396 -5.112,-8.533 -2.641,-2.136 -6.097,-3.204 -10.369,-3.204 -5.185,0 -9.349,1.704 -12.494,5.112 -3.143,3.407 -4.716,7.753 -4.716,13.032 0,5.33 1.584,9.686 4.753,13.07 3.168,3.383 7.295,5.076 12.384,5.076 4.752,0 8.558,-1.548 11.413,-4.646 2.857,-3.095 4.285,-7.164 4.285,-12.205 V -12.28 H -4.033 Z" /></g><g
           transform="translate(661.7949,66.2334)"
           id="g116"><path
             id="path118"
             style="fill:#231f20;fill-opacity:1;fill-rule:nonzero;stroke:none"
             d="M 0,0 H 2.952 V -7.128 C 5.4,-8.616 8.521,-9.36 12.313,-9.36 c 3.072,0 5.412,0.599 7.021,1.799 1.607,1.201 2.412,2.928 2.412,5.186 0,1.199 -0.24,2.22 -0.721,3.06 C 20.546,1.524 19.79,2.209 18.757,2.736 17.724,3.265 16.74,3.673 15.805,3.96 14.868,4.249 13.561,4.561 11.88,4.896 10.056,5.28 8.568,5.653 7.416,6.013 6.264,6.372 5.052,6.9 3.779,7.597 c -1.272,0.695 -2.22,1.62 -2.843,2.771 -0.625,1.153 -0.938,2.521 -0.938,4.105 0,2.927 1.141,5.292 3.42,7.092 2.28,1.801 5.316,2.701 9.109,2.701 4.464,0 8.328,-1.056 11.593,-3.168 V 12.53 h -2.952 v 6.912 c -2.353,1.489 -5.209,2.233 -8.568,2.233 -2.881,0 -5.125,-0.6 -6.733,-1.801 -1.607,-1.199 -2.412,-2.855 -2.412,-4.967 0,-1.009 0.204,-1.885 0.612,-2.629 0.408,-0.744 0.84,-1.32 1.296,-1.728 C 5.819,10.142 6.6,9.758 7.704,9.397 8.809,9.038 9.672,8.786 10.296,8.642 c 0.624,-0.145 1.682,-0.36 3.168,-0.649 3.745,-0.767 6.625,-1.859 8.641,-3.275 2.017,-1.416 3.024,-3.613 3.024,-6.588 0,-3.12 -1.128,-5.592 -3.384,-7.417 -2.257,-1.824 -5.4,-2.736 -9.432,-2.736 -4.706,0 -8.811,1.104 -12.314,3.312 V 0 Z" /></g><g
           transform="translate(699.127,56.3682)"
           id="g120"><path
             id="path122"
             style="fill:#231f20;fill-opacity:1;fill-rule:nonzero;stroke:none"
             d="m 0,0 c -1.32,1.344 -1.979,3.552 -1.979,6.625 v 24.122 h -5.689 v 2.304 l 4.249,0.288 c 0.672,0.048 1.14,0.191 1.403,0.432 0.265,0.24 0.42,0.72 0.469,1.44 l 0.504,6.265 h 2.809 v -8.065 h 8.568 V 30.747 H 1.621 V 6.625 c 0,-2.064 0.42,-3.564 1.26,-4.5 0.841,-0.937 2.196,-1.404 4.068,-1.404 0.96,0 2.328,0.24 4.104,0.719 V -1.224 C 9.469,-1.751 7.908,-2.015 6.372,-2.015 3.444,-2.017 1.32,-1.344 0,0" /></g><g
           transform="translate(718.9971,97.8438)"
           id="g124"><path
             id="path126"
             style="fill:#231f20;fill-opacity:1;fill-rule:nonzero;stroke:none"
             d="m 0,0 c -0.552,0.576 -0.828,1.297 -0.828,2.16 0,0.817 0.276,1.512 0.828,2.088 0.553,0.576 1.261,0.864 2.124,0.864 0.816,0 1.523,-0.288 2.125,-0.864 C 4.849,3.672 5.147,2.977 5.147,2.16 5.147,1.297 4.848,0.576 4.249,0 3.647,-0.576 2.94,-0.863 2.124,-0.863 1.261,-0.865 0.553,-0.576 0,0 m -5.508,-40.18 h 5.112 c 0.527,0 0.792,0.456 0.792,1.368 v 25.203 c 0,1.103 -0.108,1.859 -0.324,2.268 -0.216,0.408 -0.636,0.612 -1.26,0.612 h -4.32 v 2.665 h 1.943 c 3.024,0 5.593,0.168 7.705,0.503 v -31.251 c 0,-0.912 0.264,-1.368 0.792,-1.368 h 5.041 v -2.664 H -5.508 Z" /></g><g
           transform="translate(742.0732,80.4902)"
           id="g128"><path
             id="path130"
             style="fill:#231f20;fill-opacity:1;fill-rule:nonzero;stroke:none"
             d="m 0,0 c 1.2,3.216 2.893,5.688 5.077,7.417 2.184,1.728 4.739,2.592 7.668,2.592 7.249,0 10.873,-3.864 10.873,-11.593 v -19.874 c 0,-0.912 0.288,-1.368 0.863,-1.368 h 5.04 V -25.49 H 14.4 v 2.664 h 4.682 c 0.576,0 0.864,0.456 0.864,1.368 v 19.657 c 0,3.025 -0.624,5.27 -1.872,6.734 -1.248,1.463 -3.24,2.196 -5.977,2.196 C 8.496,7.129 5.58,5.533 3.348,2.341 1.116,-0.852 -0.001,-5.16 -0.001,-10.584 v -10.873 c 0,-0.912 0.288,-1.368 0.864,-1.368 H 5.904 V -25.49 H -9.577 v 2.664 h 5.04 c 0.576,0 0.864,0.456 0.864,1.368 V 5.041 c 0,1.056 -0.288,1.584 -0.864,1.584 h -5.04 v 2.664 h 1.943 c 2.977,0 5.521,0.168 7.633,0.504 V 0 Z" /></g><g
           transform="translate(798.0547,70.4805)"
           id="g132"><path
             id="path134"
             style="fill:#231f20;fill-opacity:1;fill-rule:nonzero;stroke:none"
             d="m 0,0 c 1.896,1.729 2.845,4.104 2.845,7.129 v 0.216 c 0,3.071 -0.96,5.544 -2.881,7.417 -1.92,1.873 -4.44,2.807 -7.561,2.807 -3.168,0 -5.736,-0.936 -7.705,-2.807 -1.968,-1.872 -2.952,-4.297 -2.952,-7.273 V 7.273 c 0,-3.072 0.938,-5.484 2.81,-7.236 1.872,-1.752 4.416,-2.628 7.632,-2.628 C -4.5,-2.592 -1.896,-1.728 0,0 m -11.629,-15.265 c -2.881,-0.479 -5.195,-1.355 -6.949,-2.628 -1.752,-1.271 -2.628,-2.771 -2.628,-4.5 0,-2.015 1.08,-3.467 3.24,-4.355 2.16,-0.889 5.522,-1.332 10.081,-1.332 10.465,0 15.698,2.544 15.698,7.633 0,1.824 -0.685,3.143 -2.052,3.96 -1.368,0.815 -3.518,1.223 -6.446,1.223 h -10.944 z m -12.817,-7.488 c 0,1.969 0.768,3.637 2.304,5.005 1.537,1.367 3.648,2.388 6.336,3.06 -2.015,0.24 -3.588,0.864 -4.715,1.872 -1.129,1.007 -1.693,2.328 -1.693,3.96 0,1.343 0.492,2.58 1.477,3.708 0.983,1.127 2.315,1.956 3.997,2.484 -3.408,2.256 -5.113,5.617 -5.113,10.08 0,3.601 1.369,6.602 4.104,9.002 2.736,2.399 6.121,3.6 10.153,3.6 4.849,0 8.569,-1.561 11.161,-4.68 0.384,2.16 1.092,3.791 2.124,4.895 1.033,1.105 2.245,1.657 3.637,1.657 1.008,0 1.813,-0.288 2.412,-0.865 0.6,-0.576 0.9,-1.296 0.9,-2.16 0,-0.816 -0.24,-1.475 -0.721,-1.979 -0.479,-0.505 -1.104,-0.757 -1.872,-0.757 -1.44,0 -2.279,0.768 -2.521,2.305 C 6.276,17.426 5.389,15.793 4.86,13.537 5.916,11.666 6.444,9.578 6.444,7.272 6.444,3.528 5.137,0.541 2.521,-1.692 -0.096,-3.925 -3.564,-5.04 -7.885,-5.04 c -2.496,0 -4.728,0.432 -6.696,1.296 -3.12,-0.672 -4.681,-2.137 -4.681,-4.393 0,-2.399 1.92,-3.6 5.761,-3.6 H -0.18 c 7.393,0 11.089,-2.689 11.089,-8.065 0,-3.504 -1.704,-6.157 -5.112,-7.957 -3.408,-1.8 -7.992,-2.701 -13.754,-2.701 -10.992,0.002 -16.489,2.57 -16.489,7.707" /></g><g
           transform="translate(828.8311,89.7793)"
           id="g136"><path
             id="path138"
             style="fill:#231f20;fill-opacity:1;fill-rule:nonzero;stroke:none"
             d="m 0,0 h 5.328 v 5.185 c 0,3.12 0.672,5.413 2.017,6.876 1.343,1.464 3.408,2.196 6.192,2.196 1.92,0 3.553,-0.361 4.896,-1.08 v -2.808 c -1.296,0.768 -2.761,1.152 -4.393,1.152 -1.824,0 -3.145,-0.492 -3.96,-1.476 C 9.264,9.061 8.88,7.345 8.928,4.896 V 0 h 7.633 V -2.663 H 8.928 v -28.083 c 0,-0.912 0.288,-1.368 0.864,-1.368 h 5.4 v -2.665 H 0.071 v 2.664 h 4.392 c 0.576,0 0.864,0.456 0.864,1.368 V -2.664 H -0.001 V 0 Z" /></g><g
           transform="translate(876.5332,61.084)"
           id="g140"><path
             id="path142"
             style="fill:#231f20;fill-opacity:1;fill-rule:nonzero;stroke:none"
             d="m 0,0 c 2.424,2.76 3.636,6.469 3.636,11.125 v 0.359 c 0,4.659 -1.212,8.366 -3.636,11.125 -2.425,2.761 -5.677,4.142 -9.757,4.142 -4.178,0 -7.477,-1.38 -9.901,-4.142 -2.424,-2.759 -3.636,-6.466 -3.636,-11.125 v -0.359 c 0,-4.656 1.212,-8.365 3.636,-11.125 2.425,-2.76 5.677,-4.14 9.757,-4.14 4.176,0 7.476,1.38 9.901,4.14 m -22.214,-1.8 c -3.169,3.384 -4.753,7.765 -4.753,13.141 0,5.329 1.608,9.673 4.823,13.033 3.218,3.36 7.37,5.041 12.457,5.041 4.994,0 9.063,-1.668 12.206,-5.004 3.145,-3.336 4.716,-7.693 4.716,-13.069 0,-5.376 -1.584,-9.757 -4.752,-13.141 -3.169,-3.384 -7.296,-5.076 -12.385,-5.076 -5.039,-0.001 -9.144,1.691 -12.312,5.075" /></g><g
           transform="translate(897.375,81.9297)"
           id="g144"><path
             id="path146"
             style="fill:#231f20;fill-opacity:1;fill-rule:nonzero;stroke:none"
             d="m 0,0 c 1.729,5.713 4.992,8.569 9.793,8.569 2.256,0 3.996,-0.6 5.22,-1.799 1.225,-1.201 1.837,-2.688 1.837,-4.465 0,-1.295 -0.301,-2.316 -0.9,-3.06 -0.599,-0.743 -1.404,-1.116 -2.412,-1.116 -0.72,0 -1.332,0.24 -1.836,0.721 -0.504,0.479 -0.757,1.055 -0.757,1.727 0,1.536 0.816,2.401 2.448,2.593 C 13.249,3.842 12.841,4.453 12.169,5.006 11.497,5.557 10.561,5.834 9.36,5.834 6.336,5.834 4.056,4.369 2.52,1.441 0.984,-1.486 0.215,-5.375 0.215,-10.224 v -12.672 c 0,-0.913 0.288,-1.369 0.864,-1.369 h 5.4 V -26.93 H -9.363 v 2.664 h 5.041 c 0.576,0 0.864,0.456 0.864,1.369 V 3.602 c 0,1.055 -0.288,1.584 -0.864,1.584 H -9.434 V 7.85 h 1.8 c 2.977,0 5.521,0.168 7.633,0.504 V 0 Z" /></g><g
           transform="translate(943.2373,80.7773)"
           id="g148"><path
             id="path150"
             style="fill:#231f20;fill-opacity:1;fill-rule:nonzero;stroke:none"
             d="m 0,0 c 1.2,3.121 2.903,5.521 5.111,7.201 2.208,1.681 4.753,2.521 7.634,2.521 7.2,0 10.801,-3.792 10.801,-11.377 v -20.09 c 0,-0.912 0.288,-1.368 0.864,-1.368 h 5.041 v -2.664 H 14.329 v 2.664 h 4.681 c 0.576,0 0.864,0.456 0.864,1.368 v 19.802 c 0,3.023 -0.612,5.245 -1.836,6.661 -1.225,1.416 -3.229,2.124 -6.014,2.124 -3.552,0 -6.443,-1.608 -8.676,-4.824 -2.234,-3.216 -3.349,-7.513 -3.349,-12.889 v -10.873 c 0,-0.912 0.288,-1.368 0.863,-1.368 h 4.97 v -2.665 h -15.41 v 2.664 h 5.041 c 0.576,0 0.864,0.456 0.864,1.368 v 39.532 c 0,1.056 -0.288,1.584 -0.864,1.584 h -5.112 v 2.664 h 2.016 c 2.977,0 5.521,0.168 7.633,0.504 z" /></g><g
           transform="translate(1004.1514,54.4961)"
           id="g152"><path
             id="path154"
             style="fill:#231f20;fill-opacity:1;fill-rule:nonzero;stroke:none"
             d="M 0,0 V 9.073 C -1.152,6.096 -2.81,3.792 -4.97,2.16 c -2.159,-1.632 -4.68,-2.448 -7.56,-2.448 -7.201,0 -10.801,3.72 -10.801,11.161 V 31.25 c 0,0.912 -0.288,1.368 -0.864,1.368 h -5.04 v 2.663 h 9.576 V 11.088 c 0,-3.072 0.66,-5.245 1.979,-6.517 1.321,-1.272 3.277,-1.908 5.868,-1.908 3.505,0 6.337,1.476 8.498,4.428 2.16,2.953 3.24,6.709 3.24,11.268 v 12.89 c 0,0.912 -0.288,1.368 -0.864,1.368 h -5.113 v 2.664 H 3.598 V 4.751 c 0,-1.056 0.288,-1.584 0.864,-1.584 H 9.503 V 0.504 H 7.631 C 4.561,0.504 2.016,0.336 0,0" /></g><g
           transform="translate(1016.8213,57.6641)"
           id="g156"><path
             id="path158"
             style="fill:#231f20;fill-opacity:1;fill-rule:nonzero;stroke:none"
             d="m 0,0 h 5.04 c 0.576,0 0.863,0.456 0.863,1.368 v 26.499 c 0,1.056 -0.287,1.584 -0.863,1.584 H 0 v 2.664 h 1.872 c 2.976,0 5.521,0.168 7.633,0.504 V 25.49 c 2.016,4.896 5.472,7.345 10.368,7.345 5.761,0 9.169,-2.88 10.226,-8.642 2.063,5.761 5.712,8.642 10.944,8.642 3.793,0 6.563,-1.056 8.316,-3.168 1.752,-2.112 2.628,-5.376 2.628,-9.792 V 1.369 c 0,-0.912 0.288,-1.368 0.865,-1.368 h 5.04 V -2.664 H 42.843 V 0 h 4.608 c 0.575,0 0.862,0.456 0.862,1.368 v 18.218 c 0,3.648 -0.623,6.289 -1.871,7.92 -1.248,1.632 -3.288,2.448 -6.12,2.448 -3.024,0 -5.364,-1.248 -7.021,-3.744 -1.657,-2.496 -2.484,-6.024 -2.484,-10.585 V 1.368 C 30.817,0.456 31.104,0 31.681,0 h 5.328 V -2.664 H 21.6 V 0 h 4.681 c 0.576,0 0.863,0.456 0.863,1.368 v 19.443 c 0,6.095 -2.64,9.144 -7.92,9.144 -3.12,0 -5.509,-1.248 -7.165,-3.744 C 10.403,23.715 9.575,20.188 9.575,15.626 V 1.369 c 0,-0.912 0.288,-1.368 0.863,-1.368 h 4.97 V -2.664 H -0.001 V 0 Z" /></g><g
           transform="translate(1100.3057,60.7959)"
           id="g160"><path
             id="path162"
             style="fill:#231f20;fill-opacity:1;fill-rule:nonzero;stroke:none"
             d="m 0,0 c 2.328,2.568 3.493,5.894 3.493,9.974 v 3.168 C -3.9,12.421 -9.192,11.317 -12.385,9.829 -15.577,8.341 -17.173,6.06 -17.173,2.988 c 0,-2.016 0.744,-3.66 2.233,-4.932 1.487,-1.272 3.431,-1.908 5.832,-1.908 3.744,0 6.781,1.285 9.108,3.852 m -16.452,22.79 c 1.584,-0.336 2.375,-1.248 2.375,-2.736 0,-0.816 -0.264,-1.463 -0.791,-1.944 -0.528,-0.48 -1.225,-0.72 -2.089,-0.72 -0.911,0 -1.655,0.324 -2.231,0.972 -0.577,0.649 -0.865,1.5 -0.865,2.556 0,2.496 1.381,4.584 4.141,6.265 2.762,1.68 6.061,2.52 9.901,2.52 4.512,0 7.836,-0.996 9.973,-2.988 2.137,-1.991 3.204,-5.052 3.204,-9.181 V -1.764 c 0,-0.912 0.288,-1.368 0.864,-1.368 h 4.968 V -5.796 H 4.357 C 4.021,-3.78 3.781,-1.116 3.638,2.197 2.629,-0.539 0.901,-2.687 -1.548,-4.247 -3.996,-5.808 -6.78,-6.587 -9.9,-6.587 c -3.266,0 -5.894,0.852 -7.886,2.556 -1.992,1.704 -2.987,3.925 -2.987,6.661 0,3.792 1.907,6.685 5.724,8.678 3.818,1.992 9.997,3.395 18.542,4.211 v 1.944 c 0,3.36 -0.78,5.809 -2.341,7.345 -1.56,1.537 -4.044,2.304 -7.452,2.304 -4.993,-10e-4 -8.377,-1.441 -10.152,-4.322" /></g><g
           transform="translate(1125.7559,80.4902)"
           id="g164"><path
             id="path166"
             style="fill:#231f20;fill-opacity:1;fill-rule:nonzero;stroke:none"
             d="m 0,0 c 1.2,3.216 2.893,5.688 5.077,7.417 2.184,1.728 4.74,2.592 7.668,2.592 7.249,0 10.873,-3.864 10.873,-11.593 v -19.874 c 0,-0.912 0.288,-1.368 0.864,-1.368 h 5.04 V -25.49 H 14.401 v 2.664 h 4.681 c 0.576,0 0.864,0.456 0.864,1.368 v 19.657 c 0,3.025 -0.624,5.27 -1.872,6.734 -1.248,1.463 -3.24,2.196 -5.976,2.196 -3.602,0 -6.518,-1.596 -8.749,-4.788 -2.233,-3.193 -3.35,-7.501 -3.35,-12.925 v -10.873 c 0,-0.912 0.288,-1.368 0.864,-1.368 h 5.041 v -2.665 h -15.48 v 2.664 h 5.039 c 0.576,0 0.864,0.456 0.864,1.368 V 5.041 c 0,1.056 -0.288,1.584 -0.864,1.584 h -5.039 v 2.664 h 1.942 c 2.978,0 5.522,0.168 7.633,0.504 V 0 Z" /></g><g
           transform="translate(1160.0273,66.2334)"
           id="g168"><path
             id="path170"
             style="fill:#231f20;fill-opacity:1;fill-rule:nonzero;stroke:none"
             d="m 0,0 h 2.951 v -7.128 c 2.448,-1.488 5.569,-2.232 9.362,-2.232 3.072,0 5.412,0.599 7.021,1.799 1.606,1.201 2.412,2.928 2.412,5.186 0,1.199 -0.24,2.22 -0.722,3.06 C 20.546,1.524 19.79,2.209 18.757,2.736 17.724,3.265 16.74,3.673 15.805,3.96 14.867,4.249 13.561,4.561 11.88,4.896 10.056,5.28 8.567,5.653 7.416,6.013 6.264,6.372 5.052,6.9 3.778,7.597 2.507,8.292 1.559,9.217 0.935,10.368 c -0.624,1.153 -0.937,2.521 -0.937,4.105 0,2.927 1.141,5.292 3.42,7.092 2.279,1.801 5.315,2.701 9.108,2.701 4.464,0 8.328,-1.056 11.594,-3.168 V 12.53 h -2.952 v 6.912 c -2.354,1.489 -5.209,2.233 -8.568,2.233 -2.881,0 -5.125,-0.6 -6.733,-1.801 -1.607,-1.199 -2.412,-2.855 -2.412,-4.967 0,-1.009 0.203,-1.885 0.611,-2.629 0.409,-0.744 0.84,-1.32 1.297,-1.728 0.455,-0.408 1.236,-0.792 2.341,-1.153 1.104,-0.359 1.968,-0.611 2.592,-0.755 0.624,-0.145 1.681,-0.36 3.168,-0.649 3.745,-0.767 6.625,-1.859 8.64,-3.275 2.018,-1.416 3.025,-3.613 3.025,-6.588 0,-3.12 -1.128,-5.592 -3.384,-7.417 -2.257,-1.824 -5.4,-2.736 -9.433,-2.736 -4.706,0 -8.81,1.104 -12.313,3.312 V 0 Z" /></g><g
           transform="translate(1192.6074,55.1436)"
           id="g172"><path
             id="path174"
             style="fill:#231f20;fill-opacity:1;fill-rule:nonzero;stroke:none"
             d="m 0,0 c -0.601,0.624 -0.899,1.368 -0.899,2.232 0,0.913 0.288,1.668 0.864,2.269 0.574,0.601 1.318,0.9 2.23,0.9 0.912,0 1.669,-0.299 2.27,-0.9 C 5.064,3.901 5.364,3.146 5.364,2.232 5.364,1.368 5.063,0.624 4.465,0 3.865,-0.624 3.108,-0.936 2.195,-0.936 1.332,-0.936 0.601,-0.624 0,0" /></g></g></g></g></svg>