<?xml version="1.0" encoding="UTF-8" standalone="no"?>
<svg
   xmlns:dc="http://purl.org/dc/elements/1.1/"
   xmlns:cc="http://creativecommons.org/ns#"
   xmlns:rdf="http://www.w3.org/1999/02/22-rdf-syntax-ns#"
   xmlns:svg="http://www.w3.org/2000/svg"
   xmlns="http://www.w3.org/2000/svg"
   viewBox="0 0 498.09313 500.00001"
   height="500"
   width="498.09314"
   xml:space="preserve"
   id="svg2"
   version="1.1"><metadata
     id="metadata8"><rdf:RDF><cc:Work
         rdf:about=""><dc:format>image/svg+xml</dc:format><dc:type
           rdf:resource="http://purl.org/dc/dcmitype/StillImage" /><dc:title></dc:title></cc:Work></rdf:RDF></metadata><defs
     id="defs6"><clipPath
       id="clipPath18"
       clipPathUnits="userSpaceOnUse"><path
         id="path16"
         d="M 0,375 H 1252 V 0 H 0 Z" /></clipPath></defs><g
     transform="matrix(1.3333333,0,0,-1.3333333,-66.665196,659.99998)"
     id="g10"><g
       transform="matrix(1.8354679,0,0,1.8354679,-41.772478,-100.25615)"
       id="g366"><g
         id="g20"
         transform="translate(178.019,199.7588)"><path
           d="m 0,0 -2.551,1.561 c -21.345,9.744 -40.37,0 -40.37,0 l -2.667,-2.319 v -4.397 l 2.667,0.824 c 0,0 19.025,9.745 40.37,0 l 3.247,-1.647 z"
           style="fill:#368662;fill-opacity:1;fill-rule:nonzero;stroke:none"
           id="path22" /></g><g
         id="g24"
         transform="translate(117.0962,201.9531)"><path
           d="m 0,0 c 0,-10.211 -8.278,-18.493 -18.495,-18.493 -10.221,0 -18.496,8.282 -18.496,18.493 0,10.213 8.275,18.497 18.496,18.497 C -8.279,18.497 0,10.213 0,0"
           style="fill:#368662;fill-opacity:1;fill-rule:nonzero;stroke:none"
           id="path26" /></g><g
         id="g28"
         transform="translate(193.6509,231.3008)"><path
           d="m 0,0 c 5.316,3.068 11.477,4.828 18.056,4.828 9.366,0 17.903,-3.557 24.33,-9.396 0.266,-0.07 0.529,-0.138 0.767,-0.213 0,0 45.078,69.228 -12.784,41.563 0,0 -64.651,89.43 -130.857,42.715 0,0 10.129,-5.456 13.721,-10.426 0,0 -48.808,-2.78 -56.885,-26.84 0,0 14.251,1.503 14.048,-2.058 0,0 -18.732,-2.742 4.401,-50.955 6.479,9.788 17.582,16.244 30.195,16.244 10.95,0 20.756,-4.869 27.393,-12.55 8.982,1.585 19.836,4.8 26.899,11.334 C -40.715,4.247 12.542,15.754 0,0"
           style="fill:#368662;fill-opacity:1;fill-rule:nonzero;stroke:none"
           id="path30" /></g><g
         id="g32"
         transform="translate(98.0581,173.3408)"><path
           d="m 0,0 c -15.76,0 -28.536,12.776 -28.536,28.535 0,15.76 12.776,28.538 28.536,28.538 15.762,0 28.537,-12.778 28.537,-28.538 C 28.537,12.776 15.762,0 0,0 m 0.542,64.803 c -19.989,0 -36.191,-16.201 -36.191,-36.191 0,-19.988 16.202,-36.191 36.191,-36.191 19.989,0 36.193,16.203 36.193,36.191 0,19.99 -16.205,36.191 -36.193,36.191"
           style="fill:#368662;fill-opacity:1;fill-rule:nonzero;stroke:none"
           id="path34" /></g><g
         id="g36"
         transform="translate(211.1191,172.707)"><path
           d="m 0,0 c -15.761,0 -28.537,12.775 -28.537,28.538 0,15.76 12.776,28.535 28.537,28.535 15.762,0 28.536,-12.775 28.536,-28.535 C 28.536,12.775 15.761,0 0,0 m 0.542,64.807 c -19.988,0 -36.192,-16.204 -36.192,-36.193 0,-19.988 16.204,-36.191 36.192,-36.191 19.989,0 36.192,16.203 36.192,36.191 0,19.989 -16.203,36.193 -36.192,36.193"
           style="fill:#368662;fill-opacity:1;fill-rule:nonzero;stroke:none"
           id="path38" /></g><g
         id="g40"
         transform="translate(230.1563,201.3198)"><path
           d="m 0,0 c 0,-10.211 -8.278,-18.495 -18.495,-18.495 -10.22,0 -18.496,8.284 -18.496,18.495 0,10.212 8.276,18.495 18.496,18.495 C -8.279,18.495 0,10.213 0,0"
           style="fill:#368662;fill-opacity:1;fill-rule:nonzero;stroke:none"
           id="path42" /></g><g
         id="g44"
         transform="translate(189.8032,172.666)"><path
           d="m 0,0 34.101,-2.785 c 0,0 25.416,-38.744 -72.522,-49.881 l -25.051,4.009 C -63.473,-48.657 15.603,-29.813 0,0"
           style="fill:#368662;fill-opacity:1;fill-rule:nonzero;stroke:none"
           id="path46" /></g></g></g></svg>