<?xml version="1.0" encoding="UTF-8"?><svg id="a" xmlns="http://www.w3.org/2000/svg" viewBox="0 0 595.28 285.06"><defs><style>.b{fill:#f4dd4b;}.c,.d,.e{fill:#333;}.d,.f,.e{fill-rule:evenodd;}.e{stroke:#333;stroke-linecap:round;stroke-linejoin:round;stroke-width:2px;}</style></defs><path class="c" d="M563.97,151.51c0,16.21,.02,32.43,0,48.64-.01,6.65-2.33,7.95-8.14,4.64-11.61-6.61-23.17-13.32-34.85-19.81-4.2-2.33-6.09-5.42-6.01-10.32,.22-14.26-.02-28.53,.13-42.8,.05-5.1-1.76-8.63-6.37-11-4.61-2.37-9.06-5.07-13.51-7.72-3.33-1.99-6.57-2.1-9.93-.14-5.05,2.94-10.11,5.84-15.18,8.74-2.95,1.69-4.32,4.02-4.31,7.6,.07,23.48-.03,46.95-.09,70.43-.02,7.18-2.22,8.43-8.51,4.84-11.49-6.56-22.93-13.21-34.5-19.64-4.21-2.34-6.08-5.43-6-10.32,.22-14.26-.02-28.53,.13-42.8,.05-5.1-1.78-8.63-6.38-10.99-4.5-2.3-8.86-4.89-13.17-7.54-3.74-2.3-7.24-2.21-10.95,.06-4.31,2.64-8.68,5.22-13.17,7.55-4.42,2.3-6.31,5.66-6.25,10.65,.16,14.53-.04,29.05,.12,43.58,.05,4.41-1.63,7.31-5.43,9.45-12.1,6.8-24.11,13.77-36.17,20.63-4.78,2.72-7.4,1.21-7.41-4.34-.06-32.94-.06-65.89-.14-98.83,0-4.03,1.58-6.88,5.11-8.89,21.29-12.16,42.56-24.36,63.8-36.6,3.51-2.02,6.76-1.97,10.26,.06,13.7,7.93,27.48,15.71,41.16,23.68,2.08,1.21,3.54,1.2,5.61,0,13.33-7.79,26.8-15.33,40.1-23.16,4.28-2.52,8.04-2.56,12.36-.05,20.64,12,41.35,23.87,62.1,35.65,4.09,2.32,5.82,5.48,5.79,10.11-.11,16.21-.04,32.43-.04,48.64h-.14Z"/><path class="c" d="M31.28,151.21c0-15.95,.11-31.9-.07-47.85-.06-4.97,1.7-8.24,6.07-10.72,20.88-11.83,41.68-23.8,62.44-35.83,3.78-2.19,7.12-2.27,10.92-.07,20.87,12.1,41.79,24.13,62.77,36.04,4.08,2.32,5.88,5.42,5.86,10.06-.12,32.42-.12,64.84-.19,97.26-.01,6.59-2.44,8-8.11,4.76-11.71-6.69-23.38-13.47-35.16-20.04-3.95-2.2-5.76-5.1-5.71-9.68,.16-14.39-.04-28.79,.11-43.18,.05-5.07-1.66-8.65-6.3-11.03-4.73-2.42-9.27-5.21-13.86-7.9-3.21-1.89-6.34-1.92-9.56-.03-4.92,2.89-9.84,5.78-14.85,8.52-3.88,2.12-5.34,5.31-5.32,9.59,.07,14.52-.1,29.05,.1,43.57,.07,4.88-1.76,7.96-6,10.31-11.69,6.48-23.22,13.21-34.82,19.84-5.71,3.26-8.21,1.88-8.22-4.6-.02-16.34,0-32.68,0-49.02h-.09Z"/><polygon class="d" points="157.29 92.03 149.55 92.03 154.1 99.91 161.84 99.91 157.29 92.03 157.29 92.03"/><polygon class="e" points="214.38 116.65 212.67 113.54 207.49 104.64 201.75 104.71 203.32 107.41 188.72 107.49 185.52 101.98 174.77 102.06 232.71 193.14 254.44 154.33 237.01 124.4 235.23 121.35 231.18 114.38 231.18 114.38 214.38 116.65"/><path class="b" d="M268.27,107.94c4.58-7.89,9.16-15.77,13.66-23.7,.98-1.72,2.23-2.43,4.2-2.42,13.38,.05,26.76,.02,40.14,.03,3.81,0,4.75,1.48,3.21,4.98-4.18,7.09-8.45,14.13-12.29,21.42-4.49,7.66-9,15.3-13.45,22.98-9.94,17.16-19.75,34.4-29.83,51.48-4.85,8.22-9.69,16.45-15.26,24.22-1.21,1.68-2.45,3.37-3.86,4.88-3.58,3.82-6.63,3.77-10.23-.05-1.73-1.83-7.16-9.79-4.26-5.13-4.72-7.4-10.39-15.82-15.07-23.23,1.52-3.53,17.99-33.3,22.31-40.75,.34-.58,14.44-23.88,20.72-34.71Z"/><polyline class="f" points="225.24 183.4 248 141.49 241.8 131.14"/><g><polygon class="e" points="180.28 78.68 173.88 78.81 177.78 85.25 180.07 85.2 183.7 91.2 194.19 90.98 187.81 80.44 181.43 80.57 180.28 78.68 180.28 78.68"/><polygon class="e" points="179.37 47.79 173.13 47.92 176.93 54.19 183.17 54.06 179.37 47.79 179.37 47.79"/><polygon class="e" points="168.17 56.65 162.91 56.76 166.12 62.04 171.38 61.93 168.17 56.65 168.17 56.65"/><polygon class="e" points="190.62 37.1 186.21 37.19 188.52 41 192.93 40.91 190.62 37.1 190.62 37.1"/><polygon class="e" points="180.38 65.84 174.84 65.96 177.74 70.75 183.28 70.63 180.38 65.84 180.38 65.84"/><polygon class="e" points="207.55 68.9 198.59 69.09 197.15 66.72 189.03 66.89 193.27 73.9 198.83 73.79 203.04 80.74 214.58 80.5 207.55 68.9 207.55 68.9"/><polygon class="e" points="198.1 53.31 190.26 53.48 194.36 60.26 202.2 60.09 198.1 53.31 198.1 53.31"/><polygon class="e" points="163.58 38.98 159.97 39.06 161.86 42.18 165.47 42.1 163.58 38.98 163.58 38.98"/><polygon class="e" points="223.03 92.96 208.71 93.27 211.55 97.95 215.93 97.86 218.57 102.2 228.5 101.99 223.03 92.96 223.03 92.96"/></g><polygon class="e" points="166.92 68.49 162.5 68.58 164.81 72.39 169.23 72.3 166.92 68.49 166.92 68.49"/></svg>