<?xml version="1.0" encoding="UTF-8" standalone="no"?>
<svg
   xmlns:dc="http://purl.org/dc/elements/1.1/"
   xmlns:cc="http://creativecommons.org/ns#"
   xmlns:rdf="http://www.w3.org/1999/02/22-rdf-syntax-ns#"
   xmlns:svg="http://www.w3.org/2000/svg"
   xmlns="http://www.w3.org/2000/svg"
   style="fill:none"
   id="svg68"
   version="1.1"
   viewBox="0 0 500 488.88513"
   height="488.88513"
   width="500">
  <metadata
     id="metadata72">
    <rdf:RDF>
      <cc:Work
         rdf:about="">
        <dc:format>image/svg+xml</dc:format>
        <dc:type
           rdf:resource="http://purl.org/dc/dcmitype/StillImage" />
        <dc:title></dc:title>
      </cc:Work>
    </rdf:RDF>
  </metadata>
  <g
     transform="matrix(2.5409831,0,0,2.5409831,-0.57367521,-6.6065813)"
     id="g46"
     clip-path="url(#clip0)">
    <g
       style="filter:url(#filter0_d)"
       id="g44">
      <path
         style="fill:#ffffff"
         id="path2"
         d="m 153.1,109.9 c 3.8,-11.7 2.3,-24.9 0,-36.2 C 148.3,63.4 142.3,52.5 132.5,45.4 122.5,38.1 109.8,35.6 98.4,34.3 87.1,35.7 74.9,37.6 65,44.7 55,52 48.7,63.7 43.9,74.1 c -2.2,11.2 -3.8,24.2 0,35.8 3.8,11.7 12.6,20.6 21.1,28.3 9.9,5.5 21.2,10.9 33.4,10.9 12.3,0 24.1,-5.4 34.1,-11.1 8.3,-7.7 16.9,-16.5 20.6,-28.1 z" />
      <path
         style="fill:#bbe2da"
         id="path4"
         d="m 98.6,146.9 c -12.2,0 -23.6,-3.1 -33.5,-8.7 0.4,7.8 15.5,17 33.8,17 18.3,0 32.6,-11.3 33.7,-17.2 -10.1,5.7 -21.7,8.9 -34,8.9 z" />
      <path
         style="fill:#ecd9d9"
         id="path6"
         d="M 65,138.3 C 56.5,130.5 49.9,120.5 46,108.8 42.2,97.2 41.7,85.4 43.9,74.2 c -6.7,1.6 -10.2,24.2 -5.7,37.4 4.5,13.2 20.2,29.5 26.8,26.7 z" />
      <path
         style="fill:#fcddd1"
         id="path8"
         d="M 66.2,47 C 76,39.8 87.2,35.7 98.4,34.3 92.9,29.5 70.7,33 61,40.4 51.3,47.8 40,67.2 43.9,74.1 48.7,63.7 56.2,54.2 66.2,47 Z" />
      <path
         style="fill:#f9e1c1"
         id="path10"
         d="m 98.4,34.3 c 11.4,1.3 22.7,5.5 32.7,12.8 9.8,7.2 17.3,16.4 22,26.7 4.1,-7 -5.1,-25.6 -17.3,-33.6 -12.2,-8 -34.3,-10.2 -37.4,-5.9 z" />
      <path
         style="fill:#e7edd7"
         id="path12"
         d="m 153.1,73.8 c 2.3,11.3 1.8,23.3 -2,35 -3.8,11.6 -10.3,21.5 -18.6,29.2 9.5,0.9 22.6,-11.7 26.6,-26.9 4,-15.2 -0.1,-36.5 -6,-37.3 z" />
      <path
         style="fill:#9ec7d0"
         id="path14"
         d="m 38.2,111.6 c -4,5.1 1.1,26.5 18.2,38.7 17.1,12.2 38.7,9.5 42.4,5.1 C 86.2,153 74.5,147.1 65,138.4 53.8,132 44.5,122.8 38.2,111.6 Z" />
      <path
         style="fill:#90d1c2"
         id="path16"
         d="m 159.1,111.2 c -6.2,11.2 -15.5,20.6 -26.6,26.9 -9.4,8.7 -21.1,14.7 -33.7,17.2 4.5,5.5 29.1,2.7 42.4,-5.3 13.3,-8.1 20.5,-31.9 17.9,-38.8 z" />
      <path
         style="fill:#f2b3bc"
         id="path18"
         d="M 43.9,74.1 C 46.4,61.5 52.3,49.8 61,40.3 52,37 35.1,52 29.8,69.5 c -5.3,17.5 -1,37.7 8.3,41.9 -1.5,-12.6 0.5,-25.6 5.8,-37.3 z" />
      <path
         style="fill:#fbc9b4"
         id="path20"
         d="m 98.4,34.3 c 12.8,-1.5 25.7,0.5 37.4,5.9 3.8,-7.2 -20.5,-20.6 -37.4,-20.6 -16.9,0 -37,11.7 -37.3,20.9 11.6,-5.6 24.6,-7.7 37.3,-6.2 z" />
      <path
         style="fill:#f1dda6"
         id="path22"
         d="m 159.1,111.2 c 8.1,-1.6 14.1,-21.6 8,-42 -6.1,-20.4 -24.8,-31.1 -31.4,-29 8.8,9.4 14.8,21.1 17.3,33.6 5.6,11.6 7.6,24.6 6.1,37.4 z" />
      <path
         style="fill:#978ba4"
         id="path24"
         d="m 56.4,150.2 c -1.9,-2.1 -3.8,-4.3 -5.5,-6.7 -7.1,-9.8 -11.3,-20.8 -12.7,-32 -5.6,-10 -8.8,-21.5 -8.8,-33.8 0,-2.8 0.2,-5.5 0.5,-8.2 -6.5,1.8 -14.3,27.8 -7.2,47 7.1,19.2 27.6,34.8 33.7,33.7 z" />
      <path
         style="fill:#56c3c1"
         id="path26"
         d="m 141.2,150 c -2.6,1.2 -5.3,2.3 -8,3.2 -11.5,3.7 -23.3,4.3 -34.4,2.2 -11.2,2.2 -23.2,1.7 -34.8,-2.1 -2.6,-0.9 -5.2,-1.9 -7.6,-3 3,9.4 18.5,21.4 42.5,21.4 24,0 37.9,-11.9 42.3,-21.7 z" />
      <path
         style="fill:#81c88e"
         id="path28"
         d="m 167.2,69.2 c 0.4,2.8 0.5,5.7 0.5,8.6 0,12.1 -3.1,23.5 -8.6,33.4 -1.3,11.4 -5.5,22.6 -12.7,32.5 -1.6,2.2 -3.4,4.3 -5.2,6.3 11.1,0.7 27.5,-11.5 33.5,-33.8 6,-22.3 -1.5,-44.3 -7.5,-47 z" />
      <path
         style="fill:#f49398"
         id="path30"
         d="m 29.9,69.6 c 1.4,-2.5 2.9,-4.9 4.6,-7.3 C 41.6,52.5 50.8,45.1 61,40.3 68.8,31.9 78.7,25.3 90.4,21.5 93,20.6 95.7,20 98.3,19.4 88.9,14.7 66,17.5 51.3,27.1 36.6,36.7 27.2,60.6 29.9,69.6 Z" />
      <path
         style="fill:#f9bd89"
         id="path32"
         d="m 98.4,19.5 c 2.8,0.5 5.6,1.3 8.4,2.2 11.5,3.7 21.4,10.2 29.1,18.5 10.4,4.8 19.7,12.2 27,22.1 1.6,2.2 3.1,4.5 4.4,6.9 4.2,-8.1 -8.6,-32.3 -21.8,-42.3 -13.2,-10 -37.3,-11.8 -47.1,-7.4 z" />
      <path
         style="fill:#835677"
         id="path34"
         d="M 29.9,69.6 C 31.9,52.9 39.8,38.1 51.4,27.2 36.8,35.4 25.2,48.9 19.6,66.1 14,83.4 15.6,101.4 22.7,116.7 19.5,101 21.8,84.3 29.9,69.6 Z" />
      <path
         style="fill:#51797c"
         id="path36"
         d="m 56.4,150.2 c -15.3,-7 -27,-19.1 -33.7,-33.6 3.3,16.4 12.5,31.7 27.1,42.3 14.7,10.7 32.3,14.7 49.1,12.7 C 83,169.8 67.8,162.5 56.4,150.2 Z" />
      <path
         style="fill:#489789"
         id="path38"
         d="m 141.2,150 c -11.4,12.3 -26.5,19.7 -42.3,21.7 16.6,1.9 34,-2.1 48.6,-12.7 14.7,-10.7 24,-26.2 27.2,-42.7 -6.7,14.4 -18.3,26.5 -33.5,33.7 z" />
      <path
         style="fill:#6e985f"
         id="path40"
         d="m 167.2,69.2 c 8.2,14.6 10.6,31.3 7.5,47 7,-15.2 8.5,-33 2.9,-50.2 -5.6,-17.3 -17.5,-30.9 -32.2,-39.1 11.7,10.8 19.7,25.6 21.8,42.3 z" />
      <path
         style="fill:#f37f64"
         id="path42"
         d="m 98.4,19.5 c 16.5,-3.3 33,-0.4 47,7.4 C 133,15.6 116.6,8.60001 98.6,8.60001 80.4,8.60001 63.8,15.6 51.5,27.2 65.3,19.4 81.9,16.3 98.4,19.5 Z" />
    </g>
  </g>
  <defs
     id="defs66">
    <filter
       style="color-interpolation-filters:sRGB"
       filterUnits="userSpaceOnUse"
       height="195.556"
       width="196.79201"
       y="2.6000099"
       x="0.225769"
       id="filter0_d">
      <feFlood
         id="feFlood48"
         result="BackgroundImageFix"
         flood-opacity="0" />
      <feColorMatrix
         id="feColorMatrix50"
         values="0 0 0 0 0 0 0 0 0 0 0 0 0 0 0 0 0 0 127 0"
         type="matrix"
         in="SourceAlpha" />
      <feOffset
         id="feOffset52"
         dy="10" />
      <feGaussianBlur
         id="feGaussianBlur54"
         stdDeviation="8" />
      <feColorMatrix
         id="feColorMatrix56"
         values="0 0 0 0 0 0 0 0 0 0 0 0 0 0 0 0 0 0 0.1 0"
         type="matrix" />
      <feBlend
         id="feBlend58"
         result="effect1_dropShadow"
         in2="BackgroundImageFix"
         mode="normal" />
      <feBlend
         id="feBlend60"
         result="shape"
         in2="effect1_dropShadow"
         in="SourceGraphic"
         mode="normal" />
    </filter>
    <clipPath
       id="clip0">
      <rect
         style="fill:#ffffff"
         y="0"
         x="0"
         id="rect63"
         height="195"
         width="197" />
    </clipPath>
  </defs>
</svg>
