<svg xmlns="http://www.w3.org/2000/svg" role="img" viewBox="-6.35 -6.35 512.20 504.20"><style>svg {fill:none}</style><g id="g46" clip-path="url(#clip0)" transform="translate(-.574 -6.607) scale(2.54098)"><g id="g44" filter="url(#filter0_d)"><path id="path2" fill="#fff" d="M153.1 109.9c3.8-11.7 2.3-24.9 0-36.2-4.8-10.3-10.8-21.2-20.6-28.3-10-7.3-22.7-9.8-34.1-11.1-11.3 1.4-23.5 3.3-33.4 10.4-10 7.3-16.3 19-21.1 29.4-2.2 11.2-3.8 24.2 0 35.8 3.8 11.7 12.6 20.6 21.1 28.3 9.9 5.5 21.2 10.9 33.4 10.9 12.3 0 24.1-5.4 34.1-11.1 8.3-7.7 16.9-16.5 20.6-28.1z"/><path id="path4" fill="#bbe2da" d="M98.6 146.9c-12.2 0-23.6-3.1-33.5-8.7.4 7.8 15.5 17 33.8 17 18.3 0 32.6-11.3 33.7-17.2-10.1 5.7-21.7 8.9-34 8.9z"/><path id="path6" fill="#ecd9d9" d="M65 138.3c-8.5-7.8-15.1-17.8-19-29.5-3.8-11.6-4.3-23.4-2.1-34.6-6.7 1.6-10.2 24.2-5.7 37.4 4.5 13.2 20.2 29.5 26.8 26.7z"/><path id="path8" fill="#fcddd1" d="M66.2 47c9.8-7.2 21-11.3 32.2-12.7-5.5-4.8-27.7-1.3-37.4 6.1-9.7 7.4-21 26.8-17.1 33.7C48.7 63.7 56.2 54.2 66.2 47z"/><path id="path10" fill="#f9e1c1" d="M98.4 34.3c11.4 1.3 22.7 5.5 32.7 12.8 9.8 7.2 17.3 16.4 22 26.7 4.1-7-5.1-25.6-17.3-33.6-12.2-8-34.3-10.2-37.4-5.9z"/><path id="path12" fill="#e7edd7" d="M153.1 73.8c2.3 11.3 1.8 23.3-2 35-3.8 11.6-10.3 21.5-18.6 29.2 9.5.9 22.6-11.7 26.6-26.9s-.1-36.5-6-37.3z"/><path id="path14" fill="#9ec7d0" d="M38.2 111.6c-4 5.1 1.1 26.5 18.2 38.7 17.1 12.2 38.7 9.5 42.4 5.1-12.6-2.4-24.3-8.3-33.8-17-11.2-6.4-20.5-15.6-26.8-26.8z"/><path id="path16" fill="#90d1c2" d="M159.1 111.2c-6.2 11.2-15.5 20.6-26.6 26.9-9.4 8.7-21.1 14.7-33.7 17.2 4.5 5.5 29.1 2.7 42.4-5.3 13.3-8.1 20.5-31.9 17.9-38.8z"/><path id="path18" fill="#f2b3bc" d="M43.9 74.1c2.5-12.6 8.4-24.3 17.1-33.8C52 37 35.1 52 29.8 69.5c-5.3 17.5-1 37.7 8.3 41.9-1.5-12.6.5-25.6 5.8-37.3z"/><path id="path20" fill="#fbc9b4" d="M98.4 34.3c12.8-1.5 25.7.5 37.4 5.9 3.8-7.2-20.5-20.6-37.4-20.6s-37 11.7-37.3 20.9c11.6-5.6 24.6-7.7 37.3-6.2z"/><path id="path22" fill="#f1dda6" d="M159.1 111.2c8.1-1.6 14.1-21.6 8-42s-24.8-31.1-31.4-29c8.8 9.4 14.8 21.1 17.3 33.6 5.6 11.6 7.6 24.6 6.1 37.4z"/><path id="path24" fill="#978ba4" d="M56.4 150.2c-1.9-2.1-3.8-4.3-5.5-6.7-7.1-9.8-11.3-20.8-12.7-32-5.6-10-8.8-21.5-8.8-33.8 0-2.8.2-5.5.5-8.2-6.5 1.8-14.3 27.8-7.2 47 7.1 19.2 27.6 34.8 33.7 33.7z"/><path id="path26" fill="#56c3c1" d="M141.2 150c-2.6 1.2-5.3 2.3-8 3.2-11.5 3.7-23.3 4.3-34.4 2.2-11.2 2.2-23.2 1.7-34.8-2.1-2.6-.9-5.2-1.9-7.6-3 3 9.4 18.5 21.4 42.5 21.4s37.9-11.9 42.3-21.7z"/><path id="path28" fill="#81c88e" d="M167.2 69.2c.4 2.8.5 5.7.5 8.6 0 12.1-3.1 23.5-8.6 33.4-1.3 11.4-5.5 22.6-12.7 32.5-1.6 2.2-3.4 4.3-5.2 6.3 11.1.7 27.5-11.5 33.5-33.8 6-22.3-1.5-44.3-7.5-47z"/><path id="path30" fill="#f49398" d="M29.9 69.6c1.4-2.5 2.9-4.9 4.6-7.3 7.1-9.8 16.3-17.2 26.5-22 7.8-8.4 17.7-15 29.4-18.8 2.6-.9 5.3-1.5 7.9-2.1-9.4-4.7-32.3-1.9-47 7.7-14.7 9.6-24.1 33.5-21.4 42.5z"/><path id="path32" fill="#f9bd89" d="M98.4 19.5c2.8.5 5.6 1.3 8.4 2.2 11.5 3.7 21.4 10.2 29.1 18.5 10.4 4.8 19.7 12.2 27 22.1 1.6 2.2 3.1 4.5 4.4 6.9 4.2-8.1-8.6-32.3-21.8-42.3-13.2-10-37.3-11.8-47.1-7.4z"/><path id="path34" fill="#835677" d="M29.9 69.6c2-16.7 9.9-31.5 21.5-42.4-14.6 8.2-26.2 21.7-31.8 38.9-5.6 17.3-4 35.3 3.1 50.6-3.2-15.7-.9-32.4 7.2-47.1z"/><path id="path36" fill="#51797c" d="M56.4 150.2c-15.3-7-27-19.1-33.7-33.6 3.3 16.4 12.5 31.7 27.1 42.3 14.7 10.7 32.3 14.7 49.1 12.7-15.9-1.8-31.1-9.1-42.5-21.4z"/><path id="path38" fill="#489789" d="M141.2 150c-11.4 12.3-26.5 19.7-42.3 21.7 16.6 1.9 34-2.1 48.6-12.7 14.7-10.7 24-26.2 27.2-42.7-6.7 14.4-18.3 26.5-33.5 33.7z"/><path id="path40" fill="#6e985f" d="M167.2 69.2c8.2 14.6 10.6 31.3 7.5 47 7-15.2 8.5-33 2.9-50.2-5.6-17.3-17.5-30.9-32.2-39.1 11.7 10.8 19.7 25.6 21.8 42.3z"/><path id="path42" fill="#f37f64" d="M98.4 19.5c16.5-3.3 33-.4 47 7.4C133 15.6 116.6 8.60001 98.6 8.60001 80.4 8.60001 63.8 15.6 51.5 27.2c13.8-7.8 30.4-10.9 46.9-7.7z"/></g></g><defs id="defs66"><clipPath id="clip0"><path id="rect63" fill="#fff" d="M0 0h197v195H0z"/></clipPath><filter id="filter0_d" width="196.792" height="195.556" x=".226" y="2.6" color-interpolation-filters="sRGB" filterUnits="userSpaceOnUse"><feFlood id="feFlood48" flood-opacity="0" result="BackgroundImageFix"/><feColorMatrix id="feColorMatrix50" in="SourceAlpha" type="matrix" values="0 0 0 0 0 0 0 0 0 0 0 0 0 0 0 0 0 0 127 0"/><feOffset id="feOffset52" dy="10"/><feGaussianBlur id="feGaussianBlur54" stdDeviation="8"/><feColorMatrix id="feColorMatrix56" type="matrix" values="0 0 0 0 0 0 0 0 0 0 0 0 0 0 0 0 0 0 0.1 0"/><feBlend id="feBlend58" in2="BackgroundImageFix" mode="normal" result="effect1_dropShadow"/><feBlend id="feBlend60" in="SourceGraphic" in2="effect1_dropShadow" mode="normal" result="shape"/></filter></defs></svg>