<svg id="Layer_1" data-name="Layer 1" xmlns="http://www.w3.org/2000/svg" viewBox="0 0 698.23416 792"><defs><style>.cls-1{fill:none;}.cls-2{fill:#2aabe2;}.cls-3{fill:#fbbf12;}.cls-4{fill:#6ebe44;}.cls-5{fill:#32803e;}.cls-6{fill:#016699;}.cls-7{fill:#f3931f;}.cls-8{fill:#5c7d48;}.cls-9{fill:#9cd7f2;}.cls-10{fill:#f6de18;}</style></defs><path class="cls-1" d="M282.40011,304.63685c1.51294,2.34687,3.06983,4.76075,4.6919,7.28541v-.00013C285.46994,309.39754,283.91305,306.98372,282.40011,304.63685Z"/><polygon class="cls-1" points="123.717 330.788 124.041 331.723 124.041 331.723 123.717 330.788"/><path class="cls-1" d="M379.3945,407.05324c-5.57276-.02552-11.13038-.25574-16.67774-.61884C368.26388,406.7975,373.8215,407.02772,379.3945,407.05324Z"/><path class="cls-1" d="M317.427,390.16438a17.34416,17.34416,0,0,0,1.65185-5.63617A17.35006,17.35006,0,0,1,317.427,390.16438Z"/><path class="cls-1" d="M318.76242,376.9294a23.728,23.728,0,0,1,.3164,7.59881A23.72111,23.72111,0,0,0,318.76242,376.9294Z"/><path class="cls-1" d="M278.88009,395.80971c1.1543-.25165,2.32471-.474,3.39136-.76508C281.2048,395.33571,280.03414,395.55806,278.88009,395.80971Z"/><path class="cls-1" d="M111.35787,349.17909a3.94588,3.94588,0,0,1-1.39209-.61053A3.9439,3.9439,0,0,0,111.35787,349.17909Z"/><path class="cls-1" d="M570.04806,480.85853a37.52837,37.52837,0,0,0,6.156-4.51281l-9.38965,6.3797Z"/><polygon class="cls-1" points="118.026 326.742 118.026 326.742 120.031 328.403 118.026 326.742"/><path class="cls-1" d="M236.70577,300.85774a15.59056,15.59056,0,0,1,1.98414-.10925A15.586,15.586,0,0,0,236.70577,300.85774Z"/><path class="cls-1" d="M217.73312,203.76753c9.93213-6.12475,21.16015-10.25629,32.04223-14.70972C238.82687,193.34517,227.66525,197.64278,217.73312,203.76753Z"/><path class="cls-1" d="M201.55636,301.71669c-.95288,1.49792-1.96582,2.95758-2.99487,4.40692C199.59054,304.67427,200.60372,303.21461,201.55636,301.71669Z"/><path class="cls-2" d="M428.14425,264.0807q16.7926,28.1467,33.70654,56.22052a71.47831,71.47831,0,0,1,12.08887-1.04449c1.93653,0,3.84912.09936,5.74658.25128-4.15429-15.1228-10.45288-29.73291-17.35547-44.11316-13.08618-27.263-28.85815-55.55743-53.09765-73.044-6.05322-4.36688-17.61182-10.79565-26.83765-15.13165,2.68262,4.31342,5.33936,8.58521,7.99488,12.8548C402.96749,221.41389,415.45358,242.80842,428.14425,264.0807Z"/><path class="cls-2" d="M146.75558,324.39979c1.95312,2.50116-1.45874,1.73035-2.22754,2.63147-1.36719,1.60291-.04394,2.49683.85986,3.27491,1.49683,1.28875,3.20166,2.33606,4.415,3.19824-1.45947,3.35632-4.55273,1.14392-5.31176,3.74328,1.65112,3.28418,5.12329,4.82258,7.45629,7.36207-2.54443,3.461-8.12646.40887-10.69921,5.96313,6.80322-1.04633,12.66381-1.96429,18.53076-2.841,2.04516-.30561,2.3479-1.77527,2.41723-3.41791.08863-2.10327-1.42749-2.58246-3.04126-2.83118-3.00073-.46222-6.08349-.59631-9.10547-2.50079,3.05372-3.50134,7.92579-5.21063,9.47779-10.30365-2.46509-.51648-4.45654-.9336-5.16406-1.08185-2.37867-5.03271,11.5437-5.5141,1.40405-11.94885,3.12256-3.54059,6.29736-7.14,9.60156-10.88654,3.42651,3.88275,6.626,7.50818,10.31983,11.69416-7.03663.5863-5.86524,2.901-2.26294,6.15515,1.46752,1.32568,3.9248,2.12548,3.93383,4.54315-1.87256,1.52069-4.77343-.17529-6.59106,3.92163,1.57788,1.16486,3.6665,2.496,5.49878,4.117,1.98266,1.754,3.2102,1.67163,4.60229-.72461,4.70288-8.09692,10.54126-15.50537,14.59986-23.99871a8.6516,8.6516,0,0,1-1.0979-1.195,8.89435,8.89435,0,0,1-.81885-1.30267,12.67685,12.67685,0,0,1-1.14453-3.56739c-.09009-.49341-.16187-.99054-.22364-1.48724-.12353-.99347-.20605-1.98541-.3125-2.94336q-.03992-.35925-.0852-.71161-.2439-1.87335-.40918-3.72375-.331-3.7002-.352-7.30054c-.21753-34.78516,20.8894-62.03888,55.10742-70.133a68.90786,68.90786,0,0,1,15.47754-1.86413q3.03956-.018,6.01978.23187,2.97839.24729,5.88427.74829,2.90406.4986,5.72339,1.2367a70.11444,70.11444,0,0,1,23.0957,10.857q2.27271,1.62956,4.39185,3.42151,1.05872.89475,2.07593,1.82727,2.03466,1.86438,3.897,3.87006a64.57916,64.57916,0,0,1,8.1062,10.76867q1.36926,2.28947,2.52246,4.67121c-1.30713,2.32214-2.54248,4.691-3.87817,6.9967,1.33569-2.30572,2.57153-4.67486,3.88037-6.99786l42.2688-65.85633a47.787,47.787,0,0,0,3.82544-5.96191,149.67173,149.67173,0,0,0-56.814-7.15814,208.46874,208.46874,0,0,0-62.83423,14.16253c-10.88208,4.45343-22.1101,8.585-32.04223,14.70972a171.356,171.356,0,0,0-38.02637,31.13483,204.88573,204.88573,0,0,0-20.93432,27.47229,186.23062,186.23062,0,0,0-13.08814,25.217,123.3974,123.3974,0,0,0-9.14722,31.27319,22.13287,22.13287,0,0,1,2.39136-2.07733A60.65279,60.65279,0,0,1,146.75558,324.39979Z"/><path class="cls-3" d="M514.68331,266.35573q-1.47876-3.05952-3.07226-6.05573-1.59265-2.99652-3.2959-5.93121-1.70252-2.935-3.511-5.81-3.61523-5.75043-7.62964-11.26929-3.00659-4.14074-6.21826-8.158-1.06969-1.33941-2.16113-2.66552-2.41333-2.93317-4.93335-5.73841-2.51916-2.80645-5.1394-5.49188-6.54931-6.71667-13.68677-12.74371-5.70007-4.83636-11.7312-9.29706-4.51832-3.35258-9.20313-6.523a181.30072,181.30072,0,0,0-28.06543-15.46643c-7.58056-3.37952-15.38086-6.32477-23.36035-8.966a184.5742,184.5742,0,0,0-25.22021-6.39728,204.39777,204.39777,0,0,0-25.54273-2.93677q-5.13354-.27237-10.28345-.31006c-6.86572-.05359-13.74951.19232-20.64282.69818a197.83377,197.83377,0,0,0-38.259,6.59809q-3.09375.85437-6.15552,1.80841-6.1234,1.908-12.11572,4.21069-8.98828,3.45264-17.67578,7.77753a215.94751,215.94751,0,0,0-22.61133,13.03424q-4.95227,3.26248-9.64917,6.77435-2.34888,1.75544-4.63477,3.57178a198.23025,198.23025,0,0,0-17.29565,15.48053A206.511,206.511,0,0,0,163.696,234.46413q-5.22437,6.98382-9.92822,14.43945-1.56849,2.484-3.08033,5.01855-1.4652,2.45591-2.84228,4.95856-2.75574,5.00436-5.17847,10.1803-3.64159,7.75818-6.60888,15.84234-1.98889,5.38083-3.71582,10.87592c-.8,2.53644-1.51221,5.08759-2.15748,7.65033-1.29028,5.12555-2.3125,10.29773-3.23315,15.49322q-.34533,1.94824-.67432,3.90058-.33,1.95209-.65161,3.9071a6.67377,6.67377,0,0,1-.988,3.2284,3.08849,3.08849,0,0,1-.93946.77288,2.60989,2.60989,0,0,1,.23413.43183c.01538.03357.03931.06457.05347.09851.03784.09027.05908.18573.08887.27862l.00122.00348c.02978.09412.06762.18561.08984.28205v.00006a4.38211,4.38211,0,0,1,.072.46319,9.52892,9.52892,0,0,1-.03418,1.97925l-.01049.11322c-.03907.3949-.08033.7909-.10572,1.182l-.00439.0672a5.96174,5.96174,0,0,0,.11987,1.824,3.15272,3.15272,0,0,0,.511,1.097,4.12706,4.12706,0,0,0,1.81738,1.32208,2.62952,2.62952,0,0,1-.26733,1.00171c-1.50269,2.8103-1.50977,2.80652,1.918,2.79871,1.28711-1.7735,3.34424-2.90845,4.76514-4.577a6.1348,6.1348,0,0,0,1.42359-2.75854c-1.59864-.9336-3.87281.12445-3.97.00244-1.8413-5.22016,9.79322-5.65741,1.04175-10.76557.48194-.70941.9292-1.44555,1.45264-2.1228,1.19434-1.5448,2.42578-3.06073,3.64233-4.58838a123.3974,123.3974,0,0,1,9.14722-31.27319,186.23062,186.23062,0,0,1,13.08814-25.217,204.88573,204.88573,0,0,1,20.93432-27.47229,171.356,171.356,0,0,1,38.02637-31.13483c9.93213-6.12475,21.09375-10.42236,32.04223-14.70972a208.46874,208.46874,0,0,1,62.83423-14.16253,149.67173,149.67173,0,0,1,56.814,7.15814c.375-.64343.75317-1.28564,1.148-1.91736a26.56567,26.56567,0,0,1,2.42724-3.32837,16.80746,16.80746,0,0,1,1.79248-1.81488c.59082.9502,1.17139,1.88355,1.75782,2.82636q2.9513,4.7449,5.84643,9.4c9.22583,4.336,20.78443,10.76477,26.83765,15.13165,24.2395,17.48658,40.01147,45.781,53.09765,73.044,6.90259,14.38025,13.20118,28.99036,17.35547,44.11316a70.73572,70.73572,0,0,1,39.75684,16.22577l.01318-.01306q.98218-1.00909,1.93946-2.0387c1.91284-2.06036,3.7434-4.18872,5.46045-6.41339q.85839-1.11237,1.678-2.25781.81922-1.146,1.59546-2.32819.77564-1.18277,1.50586-2.40491c-1.63061-16.81671-7.48535-32.51013-14.11328-47.73846Q516.16244,269.415,514.68331,266.35573Z"/><path class="cls-2" d="M578.35787,347.8965c-2.64184-9.4303-2.0017-19.28723-3.90258-28.84839-10.00415-50.32263-32.125-93.57587-70.721-128.46082a257.51375,257.51375,0,0,0-45.39868-32.42071c-34.58228-19.79456-72.26416-28.64691-111.71924-28.97382-17.40381-.14416-34.83814,2.30274-52.16943,5.87714-26.18506,5.40051-50.29981,15.65112-72.62671,29.42053-27.32837,16.8537-50.06909,39.27442-68.35083,65.84271A220.47888,220.47888,0,0,0,119.13961,311.664c-1.01147,4.90985-2.68384,9.91882-1.21948,15.08892.0376-.00164.06592-.01049.10547-.01086l2.00513,1.66046,4.01025,3.32062-.32373-.93482-.01929-.05566-.00024-.00073.00024.0003a2.93874,2.93874,0,0,1,.23389.431l.00024.00037a2.60989,2.60989,0,0,0-.23413-.43183,3.08849,3.08849,0,0,0,.93946-.77288,6.67377,6.67377,0,0,0,.988-3.2284q.323-1.95483.65161-3.9071.33033-1.95217.67432-3.90058c.92065-5.19549,1.94287-10.36767,3.23315-15.49322.64527-2.56274,1.35743-5.11389,2.15748-7.65033q1.73144-5.49124,3.71582-10.87592,2.98316-8.07129,6.60888-15.84234,2.42762-5.17218,5.17847-10.1803,1.37769-2.50214,2.84228-4.95856,1.51209-2.53445,3.08033-5.01855,4.7058-7.452,9.92822-14.43945a206.511,206.511,0,0,1,18.89331-21.91492A198.23025,198.23025,0,0,1,199.885,197.06868q2.28589-1.81632,4.63477-3.57178,4.69776-3.51077,9.64917-6.77435a215.94751,215.94751,0,0,1,22.61133-13.03424q8.68616-4.32147,17.67578-7.77753,5.99231-2.30172,12.11572-4.21069,3.06153-.954,6.15552-1.80841a197.83377,197.83377,0,0,1,38.259-6.59809c6.89331-.50586,13.7771-.75177,20.64282-.69818q5.14893.04029,10.28345.31006a204.39777,204.39777,0,0,1,25.54273,2.93677,184.5742,184.5742,0,0,1,25.22021,6.39728c7.97949,2.64123,15.77979,5.58648,23.36035,8.966A181.30072,181.30072,0,0,1,444.10128,186.672q4.682,3.17432,9.20313,6.523,6.0249,4.47015,11.7312,9.29706,7.125,6.0454,13.68677,12.74371,2.61949,2.68662,5.1394,5.49188,2.51916,2.80636,4.93335,5.73841,1.09131,1.32614,2.16113,2.66552,3.20948,4.01808,6.21826,8.158,4.00818,5.521,7.62964,11.26929,1.80762,2.87531,3.511,5.81,1.70216,2.93508,3.2959,5.93121,1.593,2.99643,3.07226,6.05573,1.4784,3.0596,2.83887,6.18353c6.62793,15.22833,12.48267,30.92175,14.11328,47.73846v.00006c6.41748,8.42878,13.01758,16.7013,22.24243,24.07972-4.07031.99762-6.58642,1.84985-9.17016,2.196-4.66724.62531-4.65332,2.41632-1.62671,5.2807,4.978,4.711,9.95044,9.42816,15.07544,14.28546-5.14551,2.516-10.58252,1.70325-16.32056,2.66333,5.6084,9.38385,13.76563,14.83521,21.60816,20.6236,1.52221,1.12341,2.50293.13171,3.41406-.76459,2.323-2.28546,4.97363-4.34314,6.291-7.49359-1.81567-1.57153-3.67456-.80481-5.33593-1.09344-1.94825-.33838-3.95142-.43048-5.85816-1.86939,1.87354-1.68732,3.677-3.30084,5.469-4.92682,7.78442-7.06366,7.7832-7.06506-1.22217-11.26013,3.9939-4.79248,9.25171-8.45245,12.15576-14.10174a1.40809,1.40809,0,0,0,.812-.606A1.40772,1.40772,0,0,1,578.35787,347.8965Z"/><path class="cls-2" d="M124.16549,331.82625c-.02222-.09644-.06006-.18793-.08984-.28205l-.00122-.00348c.03027.09516.06836.18775.09082.28534Z"/><path class="cls-2" d="M116.22628,329.13405a3.81007,3.81007,0,0,0-.64551.51416,3.8094,3.8094,0,0,1,.64551-.514Z"/><path class="cls-2" d="M570.04806,168.35817,374.948,55.72133c-13.41992-7.74671-36.94726-7.74671-50.35522-.003L129.49,168.36122v-.00305c-13.41088,7.74676-25.17749,28.12445-25.17749,43.61181V357.3138l2.39331-1.00373c-.79907-1.15222-.155-2.10223-.04443-7.313a244.435,244.435,0,0,1,14.44483-77.5877c12.502-35.05024,32.55908-64.71546,58.74731-90.96363,22.71606-22.76806,49.22534-39.4021,78.42212-51.80414,22.16431-9.41491,45.56909-14.81585,69.65137-17.39032,27.55737-2.946,54.63842-.64,81.65185,4.93049a230.51887,230.51887,0,0,1,72.71948,28.69647,250.9218,250.9218,0,0,1,56.28345,45.60229A257.77672,257.77672,0,0,1,580.823,252.4518a226.21756,226.21756,0,0,1,14.40235,37.66656V211.97C595.22531,196.48262,583.4587,176.10493,570.04806,168.35817Z"/><path class="cls-4" d="M479.70431,461.198v33.84632H468.52755V461.22487a70.6359,70.6359,0,0,1-29.65967-9.03534c-55.60131,6.96789-111.43823,10.64886-167.57763,9.29895-40.07373-.96356-79.98-3.91767-118.69141-15.51087a158.35887,158.35887,0,0,1-35.12866-14.84753c-.77124-.45355-1.54175-.90906-2.29688-1.38824-14.14526-8.9762-14.07666-18.36933.50953-26.39686,14.57226-8.0202,30.467-12.743,46.25463-17.6831,4.68433-1.46576,9.3169-3.11395,13.90845-4.84979,1.84839-.69879,4.06006-1.67255,3.78076-4.09888-.22509-1.95313-2.2998-2.59113-3.95507-3.2536-10.87818-4.3537-22.46143-5.77478-33.82862-8.10169-11.12622-2.27752-22.56689-2.82128-32.63672-5.77661,27.02344.41675,54.92774,1.057,82.77124,3.11786,19.84717,1.46893,39.69947,3.01874,59.15259,7.514,4.21289.97357,10.49365,1.36926,10.86621,6.16992.38086,4.91059-5.86181,5.943-9.86352,7.52631-13.1128,5.18835-26.91065,8.20166-40.34693,12.37182a58.25722,58.25722,0,0,0-10.59106,4.07618c-6.96533,3.78448-7.22974,7.95715-.95142,12.7044,6.511,4.9231,14.144,7.60724,21.77906,10.15546,25.418,8.48364,51.87719,11.63336,78.30688,14.50677a1021.96119,1021.96119,0,0,0,126.03955,5.45887,71.34638,71.34638,0,0,1-15.54834-20.11786c-2.604.00744-5.208.01489-7.81177.00042q-3.88293-.0216-7.76513-.07794-7.76478-.11361-15.52686-.38049-3.8811-.13522-7.76147-.31335-5.1742-.238-10.34668-.55744c-10.34522-.641-20.686-1.539-31.02173-2.75128q-3.03626-.35615-6.07227-.72968a218.80067,218.80067,0,0,1-31.52807-5.77777c-3.43775-.952-6.84473-2.04315-10.21167-3.30945-4.24976-1.59832-10.69458-2.94531-10.59766-7.91162a4.38477,4.38477,0,0,1,1.19214-3.09314,6.12994,6.12994,0,0,1,2.01929-1.32922,13.3332,13.3332,0,0,1,1.67724-.58191c.58789-.16577,1.19873-.30829,1.81421-.4425,1.154-.25165,2.32471-.474,3.39136-.76508.35547-.097.69946-.20172,1.02759-.31763,4.62011-1.633,9.50146-2.52313,13.82519-4.99572.59644-.34113,1.19019-.68915,1.76245-1.05652q.286-.18366.56421-.37421a14.12139,14.12139,0,0,0,1.5625-1.22766,8.80436,8.80436,0,0,0,1.27857-1.443,6.868,6.868,0,0,0,1.2434-3.83008c.00782-.25983.00293-.51215-.01318-.7572a6.93134,6.93134,0,0,0-.23242-1.38672,6.84094,6.84094,0,0,0-1.16187-2.32294,8.789,8.789,0,0,0-.85839-.97052,12.49727,12.49727,0,0,0-1.53394-1.26538,23.8382,23.8382,0,0,0-2.31812-1.42194q-.84118-.461-1.69409-.88287-1.70618-.84476-3.45508-1.548a77.02152,77.02152,0,0,0-12.602-3.713c-1.83813-.39917-3.686-.76147-5.53564-1.11187s-3.70093-.68879-5.5459-1.04023c-10.15234-1.9339-20.33545-3.48761-30.543-4.733q-7.656-.934-15.32959-1.64569-3.83642-.35807-7.677-.6662-7.68128-.61725-15.37671-1.05261-3.84741-.21992-7.69824-.39984-7.701-.36108-15.41357-.58063c-10.28272-.29858-20.57789-.43225-30.88013-.47265l-41.354,1.48529v79.939c0,15.48737,11.76368,35.86511,25.17749,43.60577l195.10279,112.643c13.408,7.74359,36.94116,7.74963,50.35522,0L566.81442,482.72542l9.38965-6.3797c9.29565-8.28882,16.83471-21.916,18.615-33.926a35.3654,35.3654,0,0,0,.40625-5.16693v-16.298H538.12619A71.11512,71.11512,0,0,1,479.70431,461.198Z"/><path class="cls-2" d="M373.34152,205.052c-.05518.18671-.10987.37354-.16529.56031.05542-.18677.11011-.37354.16529-.56024Z"/><path class="cls-2" d="M169.2507,345.68989a.14033.14033,0,0,0,.08642.03931,16.281,16.281,0,0,0,2.1416-.18524,6.90915,6.90915,0,0,0,1.01954-.25159,4.69864,4.69864,0,0,0,1.71972-.99585,7.16928,7.16928,0,0,0,1.95557-4.03033,5.51856,5.51856,0,0,1-.99756.47833,6.65961,6.65961,0,0,1-.9978.27271c-.33081.06475-.65894.10742-.98145.14032-.32251.03283-.6394.05584-.948.08123a6.95039,6.95039,0,0,0-1.95166.35694,2.84246,2.84246,0,0,0-.81469.47986,3.45405,3.45405,0,0,0-.95,1.40411.73619.73619,0,0,0-.04322.26507,1.81188,1.81188,0,0,0,.03345.33472A3.6326,3.6326,0,0,0,169.2507,345.68989Z"/><path class="cls-4" d="M197.34811,341.91969a4.60541,4.60541,0,0,0,.8479.28388,9.7972,9.7972,0,0,0,1.62695.22631c2.32959.152,4.65747.21454,6.98682.27582,2.32959.06128,4.66064.12146,6.99756.26874,1.55786.09821,3.11816.23511,4.68237.43695,4.50855.58185,9.04077,1.00971,13.574,1.45575,3.40014.33453,6.801.67932,10.19311,1.10693q1.69593.21387,3.38892.458a9.59207,9.59207,0,0,0,1.167.10144,5.67828,5.67828,0,0,0,1.85815-.23669,3.71918,3.71918,0,0,0,1.31714-.72772,3.81531,3.81531,0,0,0,.49072-.51246,5.9291,5.9291,0,0,0,.97095-1.96057c.37744-1.21814.5437-2.59173.792-3.82415a11.53925,11.53925,0,0,1,.3562-1.39216c.60889-1.80737.35181-2.6875-.31909-3.10748a2.2558,2.2558,0,0,0-.79223-.28387,5.86092,5.86092,0,0,0-.96753-.08081c-.6814-.00922-1.41236.04773-2.05982.03253a4.5233,4.5233,0,0,1-.89135-.0943c-.864-.19891-1.73218-.37891-2.60328-.547-2.61279-.50415-5.25073-.90082-7.87085-1.3764-.40332-.07318-.77661-.15711-1.1184-.255a6.32219,6.32219,0,0,1-.9292-.33886,2.48724,2.48724,0,0,1-1.62256-2.13178,4.03122,4.03122,0,0,1,.04272-.96081q.04065-.2634.11158-.55133a10.0534,10.0534,0,0,1,.41064-1.2569c.94873-2.40759,1.77173-4.86591,2.56982-7.33368,1.33057-4.11292,2.59253-8.252,4.25489-12.22583,1.00439-2.40112,1.48-4.19592.95312-5.30689a1.95385,1.95385,0,0,0-1.04053-.95721,3.50818,3.50818,0,0,0-.56079-.18658,6.69726,6.69726,0,0,0-1.47509-.16907,15.59056,15.59056,0,0,0-1.98414.10925,11.54,11.54,0,0,1-1.679.07727,5.883,5.883,0,0,1-1.15015-.14422,3.22352,3.22352,0,0,1-.87207-.33484,2.1213,2.1213,0,0,1-.98462-1.2143,3.37983,3.37983,0,0,1-.15405-1.003,7.6872,7.6872,0,0,1,.251-1.89923c.11426-.47253.26538-.97791.44848-1.5144q.82619-2.42222,1.575-4.87079c1.50781-4.89362,2.84619-9.84522,4.29687-14.75849q-.71484-.265-1.42969-.53021-19.9607,31.58652-39.91259,63.17822a6.8419,6.8419,0,0,0-.77833,1.59809,2.86,2.86,0,0,0-.13891.84655A1.74336,1.74336,0,0,0,197.34811,341.91969Z"/><path class="cls-2" d="M362.207,275.99653c1.22216-6.55834,2.50927-13.113,3.5747-19.697-1.06543,6.584-2.35254,13.13861-3.5747,19.6969Z"/><path class="cls-2" d="M372.82565,206.79494q-1.463,1.88763-2.85449,3.8222,1.39342-1.93314,2.85449-3.82214Z"/><path class="cls-4" d="M282.95529,352.3578a3.11153,3.11153,0,0,0,.50512.32654,8.44591,8.44591,0,0,0,2.47535.73193,58.022,58.022,0,0,1,7.814,1.879,54.242,54.242,0,0,1,9.82935,4.20008q1.17882.64892,2.32934,1.3609.81958.5071,1.60156,1.03588a36.226,36.226,0,0,1,4.314,3.3913,27.3303,27.3303,0,0,1,2.4126,2.52692,22.88483,22.88483,0,0,1,1.98974,2.76745,20.26026,20.26026,0,0,1,2.53614,6.35157,23.72111,23.72111,0,0,1,.3164,7.59881,17.34416,17.34416,0,0,1-1.65185,5.63617q-.41676.87268-.90723,1.7157a43.54626,43.54626,0,0,1-2.51318,3.78864c-1.13965,1.56634-2.36451,3.14007-3.561,4.80676,7.58911,1.08075,14.596,2.26739,21.64844,3.04425q4.42163.48716,8.845.95935c2.949.3136,5.89868.62,8.85034.90076q3.68958.35091,7.38355.64984,2.77038.22184,5.54394.40472c5.54736.3631,11.105.59332,16.67774.61884a11.78721,11.78721,0,0,0,1.59936-.08765,6.36654,6.36654,0,0,0,.92285-.18835q.21643-.06245.4187-.14167a3.976,3.976,0,0,0,.48291-.22729c1.07495-.59925,1.7854-1.69647,2.13306-3.60944,1.23389-6.78607,2.53491-13.55993,3.86231-20.329q.99535-5.07678,2.00537-10.15088,1.00745-5.07448,2.01416-10.14911c.79516-4.01806-.26368-5.9306-3.8479-6.25482a14.45787,14.45787,0,0,0-1.69263-.04321c-5.36572.14777-10.73535.18018-16.10547.16516-5.37036-.01495-10.7417-.07739-16.11133-.11914a9.66317,9.66317,0,0,0-1.1416.07629c-.66064.07483-1.35059.17933-1.99658.19172a4.93365,4.93365,0,0,1-.74951-.03711,3.22072,3.22072,0,0,1-.35035-.06635,2.28916,2.28916,0,0,1-.63378-.25757,1.99434,1.99434,0,0,1-.73169-.786,2.55212,2.55212,0,0,1-.30616-1.59338,3.39751,3.39751,0,0,1,.377-1.1131,14.1711,14.1711,0,0,1,1.82373-2.3913c.1853-.21722.36352-.43212.52588-.64514,12.97387-17.024,25.88574-34.09759,39.07519-50.95379a12.12222,12.12222,0,0,0,1.90674-3.07172c.0398-.11011.06445-.21454.09326-.3205a3.05947,3.05947,0,0,0,.11695-.66864,2.10861,2.10861,0,0,0-.36158-1.28912,3.8784,3.8784,0,0,0-1.25488-1.11487,12.2432,12.2432,0,0,0-2.24048-1.00763c-2.41675-.85376-4.81714-1.7539-7.21264-2.66809-3.23389-1.23413-6.457-2.49945-9.68042-3.7633q-2.80555-1.1-5.61744-2.18262c-2.88916-1.10724-5.22558-2.42255-4.51049-6.2591v-.00012c1.22216-6.55829,2.50927-13.11291,3.5747-19.6969q.53285-3.292.981-6.59509c1.19971-8.9491,3.105-17.79877,4.467-26.72418.27246-1.7851.52344-3.57318.74219-5.36572q.32886-2.68883.552-5.39228.1095-1.35215.186-2.70874.0758-1.35672.11572-2.7185-1.463,1.88763-2.85449,3.82214c-1.85791,2.57758-3.6316,5.21014-5.35572,7.875-4.30981,6.66217-8.30957,13.52612-12.54126,20.23645q-1.59558,2.53052-3.18506,5.06519Q333.34677,268.45744,317.852,293.151q-17.09034,27.2244-34.19458,54.43982a15.71708,15.71708,0,0,0-.92774,1.64917,3.345,3.345,0,0,0-.41675,2.16046A1.76365,1.76365,0,0,0,282.95529,352.3578Z"/><path class="cls-5" d="M176.5466,356.30116q7.712.22393,15.41357.58063,3.85071.18054,7.69824.39984,7.6952.43972,15.37671,1.05261,3.84045.30862,7.677.6662,7.6736.71613,15.32959,1.64569c10.20752,1.24536,20.39063,2.79907,30.543,4.733,1.845.35144,3.69629.68988,5.5459,1.04023s3.69751.7127,5.53564,1.11187a77.02152,77.02152,0,0,1,12.602,3.713q1.74794.707,3.45508,1.548.85254.42243,1.69409.88287a23.8382,23.8382,0,0,1,2.31812,1.42194,12.49727,12.49727,0,0,1,1.53394,1.26538,8.789,8.789,0,0,1,.85839.97052,6.84094,6.84094,0,0,1,1.16187,2.32294,6.93134,6.93134,0,0,1,.23242,1.38672c.01611.245.021.49737.01318.7572a6.868,6.868,0,0,1-1.2434,3.83008,8.80436,8.80436,0,0,1-1.27857,1.443,14.12139,14.12139,0,0,1-1.5625,1.22766q-.278.19089-.56421.37421c-.57226.36737-1.166.71539-1.76245,1.05652-4.32373,2.47259-9.20508,3.36273-13.82519,4.99572-.32813.11591-.67212.22058-1.02759.31763-1.06665.29108-2.23706.51343-3.39136.76508-.61548.13421-1.22632.27673-1.81421.4425a13.3332,13.3332,0,0,0-1.67724.58191,6.12994,6.12994,0,0,0-2.01929,1.32922,4.38477,4.38477,0,0,0-1.19214,3.09314c-.09692,4.96631,6.3479,6.3133,10.59766,7.91162,3.36694,1.2663,6.77392,2.35749,10.21167,3.30945a218.80067,218.80067,0,0,0,31.52807,5.77777q3.03516.37694,6.07227.72968c10.33569,1.21228,20.67651,2.11029,31.02173,2.75128q5.17236.32043,10.34668.55744,3.88036.17852,7.76147.31335,7.76221.27054,15.52686.38049,3.88219.05676,7.76513.07794c2.60376.01447,5.20777.007,7.81177-.00042a71.04112,71.04112,0,0,1,51.03027-102.76386q-16.88854-28.0891-33.70654-56.22052c-12.69067-21.27228-25.17676-42.66681-37.7539-64.00671-2.65552-4.26959-5.31226-8.54138-7.99488-12.8548q-2.8938-4.65252-5.84643-9.4c-.58643-.94281-1.167-1.87616-1.75782-2.82636a16.80746,16.80746,0,0,0-1.79248,1.81488,26.56567,26.56567,0,0,0-2.42724,3.32837c-.39478.63172-.773,1.27393-1.148,1.91736a47.787,47.787,0,0,1-3.82544,5.96191l-42.2688,65.85633c-1.30884,2.323-2.54468,4.69214-3.88037,6.99786-.44556.76856-.90186,1.53-1.37622,2.28046q-1.89588,3.00082-3.79614,6.00134c-5.06788,8.0036-10.167,16.024-15.35181,24.17279q-5.83265,9.16726-11.83276,18.59815c-1.62207-2.52466-3.179-4.93854-4.6919-7.28541-2.521-3.91149-4.91943-7.6369-7.2915-11.37908q-3.861-6.092-7.73145-12.17823c-7.73559-12.176-15.46557-24.35547-23.03686-36.63269q-.24647-.39972-.47876-.74786a12.7105,12.7105,0,0,0-.88355-1.18829q-.21021-.2462-.41186-.44178a2.20262,2.20262,0,0,0-1.53174-.76574,1.63567,1.63567,0,0,0-.74707.2088,8.29782,8.29782,0,0,0-2.51123,2.93145q-8.963,14.37552-18.04541,28.677-4.53407,7.15493-9.08106,14.30194-4.5454,7.148-9.09326,14.29431c-.95264,1.49792-1.96582,2.95758-2.99487,4.40692-1.0293,1.4494-2.07447,2.88849-3.092,4.34528-4.0586,8.49334-9.897,15.90179-14.59986,23.99871-1.39209,2.39624-2.61963,2.47858-4.60229.72461-1.83228-1.621-3.9209-2.95214-5.49878-4.117,1.81763-4.09692,4.7185-2.40094,6.59106-3.92163-.009-2.41767-2.46631-3.21747-3.93383-4.54315-3.6023-3.25415-4.77369-5.56885,2.26294-6.15515-3.69385-4.186-6.89332-7.81141-10.31983-11.69416-3.3042,3.74658-6.479,7.346-9.60156,10.88654,10.13965,6.43475-3.78272,6.91614-1.40405,11.94885.70752.14825,2.699.56537,5.16406,1.08185-1.552,5.093-6.42407,6.80231-9.47779,10.30365,3.022,1.90448,6.10474,2.03857,9.10547,2.50079,1.61377.24872,3.12989.72791,3.04126,2.83118-.06933,1.64264-.37207,3.1123-2.41723,3.41791-5.867.87671-11.72754,1.79467-18.53076,2.841,2.57275-5.55426,8.15478-2.50214,10.69921-5.96313-2.333-2.53949-5.80517-4.07789-7.45629-7.36207.759-2.59936,3.85229-.387,5.31176-3.74328-1.21338-.86218-2.91821-1.90949-4.415-3.19824-.9038-.77808-2.227-1.672-.85986-3.27491.7688-.90112,4.18066-.13031,2.22754-2.63147a60.65279,60.65279,0,0,0-7.82715-7.61224,22.13287,22.13287,0,0,0-2.39136,2.07733c-1.21655,1.52765-2.448,3.04358-3.64233,4.58838-.52344.67725-.9707,1.41339-1.45264,2.1228,8.75147,5.10816-2.883,5.54541-1.04175,10.76557.09717.122,2.37134-.936,3.97-.00244a6.1348,6.1348,0,0,1-1.42359,2.75854c-1.4209,1.66858-3.478,2.80353-4.76514,4.577-3.42773.00781-3.42065.01159-1.918-2.79871a2.62952,2.62952,0,0,0,.26733-1.00171,4.12706,4.12706,0,0,1-1.81738-1.32208,3.15272,3.15272,0,0,1-.511-1.097,5.96174,5.96174,0,0,1-.11987-1.824l.00439-.0672c.02539-.39111.06665-.78711.10572-1.182l.01049-.11322a9.52892,9.52892,0,0,0,.03418-1.97925,4.38211,4.38211,0,0,0-.072-.46319v-.00006l-.00024-.00019c-.02246-.09759-.06055-.19018-.09082-.28534-.02979-.09289-.051-.18835-.08887-.27862-.01416-.03394-.03809-.06494-.05347-.09851l-.00024-.00037a2.93874,2.93874,0,0,0-.23389-.431l-.00024-.0003.00024.00073.01929.05566.324.93506-.00024-.00024-4.01025-3.32062-2.00513-1.6604-.08081.10736q-.8595,1.14231-1.71826,2.28436v.00007l-.00025.00006v.00024a3.8094,3.8094,0,0,0-.64551.514,3.20641,3.20641,0,0,0-.28051.34979c-.06079.07947-.13623.15277-.18848.23566a3.925,3.925,0,0,0-.51269,1.32684,8.001,8.001,0,0,0-.13843,1.48218l-.00147.03412c-.00293.25848.00733.5238.01319.78662s.00732.52313.01318.78668c.00562.26355.009.52655.00562.78735a8.32092,8.32092,0,0,1-.13941,1.523,4.254,4.254,0,0,1-.47436,1.30231,3.5942,3.5942,0,0,1-.5918.76526,4.70423,4.70423,0,0,1-1.43457.94159c-.41846.18432-.25488.46844.10693.72046a3.53716,3.53716,0,0,0,1.29639.528c1.91479.28626,2.02637.89276,1.61011,1.60382a4.14533,4.14533,0,0,1-.30274.4375c-.23047.29773-.50439.60523-.74072.90876a6.11463,6.11463,0,0,1-1.03857,1.00567c-.19141.15235-.38794.30054-.58423.44959a10.86738,10.86738,0,0,0-1.13086.94623,3.74211,3.74211,0,0,0-1.10157,1.9989,3.94588,3.94588,0,0,0,1.39209.61053c.16871.042.34082.07745.51539.10834.52368.09265,1.06787.14459,1.60009.21069.355.04413.70459.09442,1.03931.16748a2.97668,2.97668,0,0,1,2.55518,2.29889l-10.06592,4.27466-.26807.11383c-.0105-.01447-.01807-.02856-.02808-.04291l-2.39331,1.00373,41.354-1.48529C155.96871,355.86891,166.26388,356.00258,176.5466,356.30116ZM372.8337,206.77583q.17139-.58173.34253-1.16357c.05542-.18677.11011-.3736.16529-.56031.08081.06141.19873.1471.29541.21894.04834.03589.09131.06836.12158.09259.03052.02423.04834.04022.04639.04327-.06617.10169-.13965.19892-.21094.29749s-.14063.19842-.21094.29748c-.18359.25775-.3623.51886-.54932.77411l-.00415.01428-.00366-.00372Zm-90.104,142.46411a15.71708,15.71708,0,0,1,.92774-1.64917Q300.77559,320.38406,317.852,293.151q15.4995-24.69048,31.0371-49.35717,1.59486-2.53107,3.18506-5.06519c4.23169-6.71033,8.23145-13.57428,12.54126-20.23645,1.72412-2.66486,3.49781-5.29742,5.35572-7.875q1.39342-1.93314,2.85449-3.8222v.00006q-.0392,1.36184-.11572,2.7185-.07619,1.35672-.186,2.70874-.21827,2.7042-.552,5.39228c-.21875,1.79254-.46973,3.58062-.74219,5.36572-1.36206,8.92541-3.26733,17.77508-4.467,26.72418q-.44275,3.30367-.981,6.59509c-1.06543,6.584-2.35254,13.13868-3.5747,19.697-.71509,3.83655,1.62133,5.15186,4.51049,6.2591q2.81324,1.07813,5.61744,2.18262c3.22338,1.26385,6.44653,2.52917,9.68042,3.7633,2.3955.91419,4.79589,1.81433,7.21264,2.66809a12.2432,12.2432,0,0,1,2.24048,1.00763,3.8784,3.8784,0,0,1,1.25488,1.11487,2.10861,2.10861,0,0,1,.36158,1.28912,3.05947,3.05947,0,0,1-.11695.66864c-.02881.106-.05346.21039-.09326.3205a12.12222,12.12222,0,0,1-1.90674,3.07172c-13.18945,16.8562-26.10132,33.92981-39.07519,50.95379-.16236.213-.34058.42792-.52588.64514a14.1711,14.1711,0,0,0-1.82373,2.3913,3.39751,3.39751,0,0,0-.377,1.1131,2.55212,2.55212,0,0,0,.30616,1.59338,1.99434,1.99434,0,0,0,.73169.786,2.28916,2.28916,0,0,0,.63378.25757,3.22072,3.22072,0,0,0,.35035.06635,4.93365,4.93365,0,0,0,.74951.03711c.646-.01239,1.33594-.11689,1.99658-.19172a9.66317,9.66317,0,0,1,1.1416-.07629c5.36963.04175,10.741.10419,16.11133.11914,5.37012.015,10.73975-.01739,16.10547-.16516a14.45787,14.45787,0,0,1,1.69263.04321c3.58422.32422,4.64306,2.23676,3.8479,6.25482q-1.00416,5.07506-2.01416,10.14911-1.00745,5.07459-2.00537,10.15088c-1.3274,6.769-2.62842,13.54291-3.86231,20.329-.34766,1.913-1.05811,3.01019-2.13306,3.60944a3.976,3.976,0,0,1-.48291.22729q-.20214.07947-.4187.14167a6.36654,6.36654,0,0,1-.92285.18835,11.78721,11.78721,0,0,1-1.59936.08765c-5.573-.02552-11.13062-.25574-16.67774-.61884q-2.77368-.18154-5.54394-.40472-3.694-.29581-7.38355-.64984c-2.95166-.28077-5.90137-.58716-8.85034-.90076q-4.42347-.47049-8.845-.95935c-7.05249-.77686-14.05933-1.9635-21.64844-3.04425,1.19653-1.66669,2.42139-3.24042,3.561-4.80676a43.54626,43.54626,0,0,0,2.51318-3.78864q.48852-.84485.90723-1.7157a17.35006,17.35006,0,0,0,1.65185-5.63617,23.728,23.728,0,0,0-.3164-7.59881,20.26026,20.26026,0,0,0-2.53614-6.35157,22.88483,22.88483,0,0,0-1.98974-2.76745,27.3303,27.3303,0,0,0-2.4126-2.52692,36.226,36.226,0,0,0-4.314-3.3913q-.78186-.529-1.60156-1.03588-1.15026-.71211-2.32934-1.3609a54.242,54.242,0,0,0-9.82935-4.20008,58.022,58.022,0,0,0-7.814-1.879,8.44591,8.44591,0,0,1-2.47535-.73193,3.11153,3.11153,0,0,1-.50512-.32654,1.76365,1.76365,0,0,1-.64234-.9574A3.345,3.345,0,0,1,282.7297,349.23994Zm-86.41309-9.79815a6.8419,6.8419,0,0,1,.77833-1.59809q19.93651-31.60134,39.91259-63.17822.71448.26523,1.42969.53021c-1.45068,4.91327-2.78906,9.86487-4.29687,14.75849q-.754,2.44683-1.575,4.87079c-.1831.53649-.33422,1.04187-.44848,1.5144a7.6872,7.6872,0,0,0-.251,1.89923,3.37983,3.37983,0,0,0,.15405,1.003,2.1213,2.1213,0,0,0,.98462,1.2143,3.22352,3.22352,0,0,0,.87207.33484,5.883,5.883,0,0,0,1.15015.14422,11.54,11.54,0,0,0,1.679-.07727,15.586,15.586,0,0,1,1.98414-.10925,6.69726,6.69726,0,0,1,1.47509.16907,3.50818,3.50818,0,0,1,.56079.18658,1.95385,1.95385,0,0,1,1.04053.95721c.52686,1.111.05127,2.90577-.95312,5.30689-1.66236,3.97381-2.92432,8.11291-4.25489,12.22583-.79809,2.46777-1.62109,4.92609-2.56982,7.33368a10.0534,10.0534,0,0,0-.41064,1.2569q-.07106.28811-.11158.55133a4.03122,4.03122,0,0,0-.04272.96081,2.48724,2.48724,0,0,0,1.62256,2.13178,6.32219,6.32219,0,0,0,.9292.33886c.34179.0979.71508.18183,1.1184.255,2.62012.47558,5.25806.87225,7.87085,1.3764.8711.16809,1.73926.34809,2.60328.547a4.5233,4.5233,0,0,0,.89135.0943c.64746.0152,1.37842-.04175,2.05982-.03253a5.86092,5.86092,0,0,1,.96753.08081,2.2558,2.2558,0,0,1,.79223.28387c.6709.42.928,1.30011.31909,3.10748a11.53925,11.53925,0,0,0-.3562,1.39216c-.24829,1.23242-.41455,2.606-.792,3.82415a5.9291,5.9291,0,0,1-.97095,1.96057,3.81531,3.81531,0,0,1-.49072.51246,3.71918,3.71918,0,0,1-1.31714.72772,5.67828,5.67828,0,0,1-1.85815.23669,9.59207,9.59207,0,0,1-1.167-.10144q-1.69263-.24553-3.38892-.458c-3.39209-.42761-6.793-.7724-10.19311-1.10693-4.53321-.446-9.06543-.8739-13.574-1.45575-1.56421-.20184-3.12451-.33874-4.68237-.43695-2.33692-.14728-4.668-.20746-6.99756-.26874-2.32935-.06128-4.65723-.12378-6.98682-.27582a9.7972,9.7972,0,0,1-1.62695-.22631,4.60541,4.60541,0,0,1-.8479-.28388,1.74336,1.74336,0,0,1-1.17041-1.63135A2.86,2.86,0,0,1,196.31661,339.44179Zm-27.78417,4.0379a3.45405,3.45405,0,0,1,.95-1.40411,2.84246,2.84246,0,0,1,.81469-.47986,6.95039,6.95039,0,0,1,1.95166-.35694c.3086-.02539.62549-.0484.948-.08123.32251-.0329.65064-.07557.98145-.14032a6.65961,6.65961,0,0,0,.9978-.27271,5.51856,5.51856,0,0,0,.99756-.47833,7.16928,7.16928,0,0,1-1.95557,4.03033,4.69864,4.69864,0,0,1-1.71972.99585,6.90915,6.90915,0,0,1-1.01954.25159,16.281,16.281,0,0,1-2.1416.18524.14033.14033,0,0,1-.08642-.03931,3.6326,3.6326,0,0,1-.728-1.61041,1.81188,1.81188,0,0,1-.03345-.33472A.73619.73619,0,0,1,168.53244,343.47969Z"/><path class="cls-3" d="M587.66281,365.6971a45.13488,45.13488,0,0,0,7.5625,7.91064v-11.0119C592.71676,364.27577,589.63961,363.35377,587.66281,365.6971Z"/><path class="cls-3" d="M595.22531,388.61714v-8.72382a31.42222,31.42222,0,0,0-6.59912.96467A41.55558,41.55558,0,0,0,595.22531,388.61714Z"/><path class="cls-3" d="M538.58175,190.48048a250.9218,250.9218,0,0,0-56.28345-45.60229,230.51887,230.51887,0,0,0-72.71948-28.69647c-27.01343-5.5705-54.09448-7.87653-81.65185-4.93049-24.08228,2.57447-47.48706,7.97541-69.65137,17.39032-29.19678,12.402-55.70606,29.03608-78.42212,51.80414-26.18823,26.24817-46.24536,55.91339-58.74731,90.96363a244.435,244.435,0,0,0-14.44483,77.5877c-.11059,5.21082-.75464,6.16083.04443,7.313.01.01435.01758.02844.02808.04291l.26807-.11383,10.06592-4.27466a2.97668,2.97668,0,0,0-2.55518-2.29889c-.33472-.07306-.68433-.12335-1.03931-.16748-.53222-.0661-1.07641-.118-1.60009-.21069-.17457-.03089-.34668-.06635-.51539-.10834a3.9439,3.9439,0,0,1-1.39209-.61053,3.74211,3.74211,0,0,1,1.10157-1.9989,10.86738,10.86738,0,0,1,1.13086-.94623c.19629-.149.39282-.29724.58423-.44959a6.11463,6.11463,0,0,0,1.03857-1.00567c.23633-.30353.51025-.611.74072-.90876a4.14533,4.14533,0,0,0,.30274-.4375c.41626-.71106.30468-1.31756-1.61011-1.60382a3.53716,3.53716,0,0,1-1.29639-.528c-.36181-.252-.52539-.53614-.10693-.72046a4.70423,4.70423,0,0,0,1.43457-.94159,3.5942,3.5942,0,0,0,.5918-.76526,4.254,4.254,0,0,0,.47436-1.30231,8.32092,8.32092,0,0,0,.13941-1.523c.00341-.2608,0-.5238-.00562-.78735-.00586-.26355-.00732-.52387-.01318-.78668s-.01612-.52814-.01319-.78662l.00147-.03412a8.001,8.001,0,0,1,.13843-1.48218,3.925,3.925,0,0,1,.51269-1.32684c.05225-.08289.12769-.15619.18848-.23566a3.20641,3.20641,0,0,1,.28051-.34979,3.81007,3.81007,0,0,1,.64551-.51416V329.134l.00025-.00006v-.00007q.85913-1.14194,1.71826-2.28436l.08081-.10736v-.00006c-.03955.00037-.06787.00922-.10547.01086-1.46436-5.1701.208-10.17907,1.21948-15.08892a220.47888,220.47888,0,0,1,34.32984-81.33088c18.28174-26.56829,41.02246-48.989,68.35083-65.84271,22.3269-13.76941,46.44165-24.02,72.62671-29.42053,17.33129-3.5744,34.76562-6.0213,52.16943-5.87714,39.45508.32691,77.137,9.17926,111.71924,28.97382a257.51375,257.51375,0,0,1,45.39868,32.42071c38.596,34.885,60.7168,78.13819,70.721,128.46082,1.90088,9.56116,1.26074,19.41809,3.90258,28.84839a1.40772,1.40772,0,0,0,.81177-.60559c.33179-.42719.62964-.98645.96778-1.3891a1.27626,1.27626,0,0,1,.73193-.4989c.45874-.07367,1.02368.26709,1.7915,1.399,3.57276,5.26557,8.093,9.74164,12.56446,14.08643v-70.77A226.21756,226.21756,0,0,0,580.823,252.4518,257.77672,257.77672,0,0,0,538.58175,190.48048Z"/><path class="cls-6" d="M300.32931,437.72407c-26.42969-2.87341-52.88892-6.02313-78.30688-14.50677-7.635-2.54822-15.26807-5.23236-21.77906-10.15546-6.27832-4.74725-6.01391-8.91992.95142-12.7044a58.25722,58.25722,0,0,1,10.59106-4.07618c13.43628-4.17016,27.23413-7.18347,40.34693-12.37182,4.00171-1.58332,10.24438-2.61572,9.86352-7.52631-.37256-4.80066-6.65332-5.19635-10.86621-6.16992-19.45312-4.4953-39.30542-6.04511-59.15259-7.514-27.8435-2.06085-55.7478-2.70111-82.77124-3.11786,10.06983,2.95533,21.5105,3.49909,32.63672,5.77661,11.36719,2.32691,22.95044,3.748,33.82862,8.10169,1.65527.66247,3.73,1.30047,3.95507,3.2536.2793,2.42633-1.93237,3.40009-3.78076,4.09888-4.59155,1.73584-9.22412,3.384-13.90845,4.84979-15.78759,4.94006-31.68237,9.6629-46.25463,17.6831-14.58619,8.02753-14.65479,17.42066-.50953,26.39686.75513.47918,1.52564.93469,2.29688,1.38824a158.35887,158.35887,0,0,0,35.12866,14.84753c38.71143,11.5932,78.61768,14.54731,118.69141,15.51087,56.1394,1.34991,111.97632-2.33106,167.57763-9.29895a71.28208,71.28208,0,0,1-12.499-9.00659A1021.96119,1021.96119,0,0,1,300.32931,437.72407ZM244.15621,373.358c1.929.60559,3.91822,1.33227,3.89185,3.88092-.02222,2.17358-1.75781,3.0484-3.3999,3.65918-4.10669,1.52709-8.16382,3.381-13.61865,3.34814,4.365-5.7547.458-7.77832-3.48462-9.7514-5.53492-2.77021-11.5437-4.19611-17.40943-6.17261C221.698,368.60347,233.08932,369.88344,244.15621,373.358Zm-68.73266,70.64514c-14.57422-3.38666-28.97778-7.47351-42.30225-14.47443-5.65234-2.97-12.78564-5.85467-12.602-13.38336.196-8.02521,8.06128-9.85938,13.97437-12.72156,1.88769-.9137,3.97729-2.02228,6.29126-1.60992.35522,1.95794-1.19483,2.38043-2.05078,3.23541-5.72071,5.71661-5.7417,9.81488.54663,15.123,8.16919,6.8963,18.15747,10.381,28.01147,13.96563,22.65186,8.2403,46.03418,13.69629,69.62866,18.18225C215.9504,452.525,195.61422,448.69484,175.42355,444.00313Z"/><path class="cls-7" d="M320.80465,249.20161a64.57916,64.57916,0,0,0-8.1062-10.76867q-1.86034-2.00337-3.897-3.87006-1.017-.93219-2.07593-1.82727-2.11707-1.78968-4.39185-3.42151a70.11444,70.11444,0,0,0-23.0957-10.857q-2.81725-.73581-5.72339-1.2367-2.904-.49851-5.88427-.74829-2.978-.24738-6.01978-.23187a68.90786,68.90786,0,0,0-15.47754,1.86413c-34.218,8.09412-55.32495,35.34784-55.10742,70.133q.02271,3.59848.352,7.30054.16553,1.85008.40918,3.72375.04578.35211.0852.71161c.10645.95795.189,1.94989.3125,2.94336.06177.4967.13355.99383.22364,1.48724a12.67685,12.67685,0,0,0,1.14453,3.56739,8.89435,8.89435,0,0,0,.81885,1.30267,8.6516,8.6516,0,0,0,1.0979,1.195c1.01757-1.45679,2.06274-2.89588,3.092-4.34528,1.02905-1.44934,2.042-2.909,2.99487-4.40692q4.54614-7.14743,9.09326-14.29431,4.545-7.148,9.08106-14.30194,9.06885-14.30988,18.04541-28.677a8.29782,8.29782,0,0,1,2.51123-2.93145,1.63567,1.63567,0,0,1,.74707-.2088,2.20262,2.20262,0,0,1,1.53174.76574q.20214.19565.41186.44178a12.7105,12.7105,0,0,1,.88355,1.18829q.23255.34818.47876.74786c7.57129,12.27722,15.30127,24.45673,23.03686,36.63269q3.86756,6.088,7.73145,12.17823c2.37207,3.74218,4.7705,7.46759,7.2915,11.37908,1.51294,2.34687,3.06983,4.76069,4.6919,7.28528v.00013q6.01172-9.45438,11.83276-18.59815c5.18481-8.14874,10.28393-16.16919,15.35181-24.17279q1.90064-3.00138,3.79614-6.00134c.47436-.75043.93066-1.5119,1.37622-2.28046,1.33569-2.30566,2.571-4.67456,3.87817-6.9967Q322.17612,251.49345,320.80465,249.20161Z"/><path class="cls-8" d="M373.594,205.70424c.07129-.09857.14477-.1958.21094-.29749.002-.00305-.01587-.019-.04639-.04327-.03027-.02423-.07324-.0567-.12158-.09259-.09668-.07184-.2146-.15753-.29541-.21894v.00007c-.05518.1867-.10987.37347-.16529.56024q-.171.58182-.34253,1.16357c.187-.25525.36573-.51636.54932-.77411C373.45333,205.90266,373.52267,205.80281,373.594,205.70424Z"/><path class="cls-8" d="M372.8337,206.77583l-.00781.01056.00366.00372Z"/><path class="cls-9" d="M139.28073,420.17226c-6.28833-5.30811-6.26734-9.40638-.54663-15.123.85595-.855,2.406-1.27747,2.05078-3.23541-2.314-.41236-4.40357.69622-6.29126,1.60992-5.91309,2.86218-13.77832,4.69635-13.97437,12.72156-.18359,7.52869,6.94971,10.41339,12.602,13.38336,13.32447,7.00092,27.728,11.08777,42.30225,14.47443,20.19067,4.69171,40.52685,8.52185,61.49731,8.317-23.59448-4.486-46.9768-9.94195-69.62866-18.18225C157.4382,430.55324,147.44992,427.06856,139.28073,420.17226Z"/><path class="cls-9" d="M231.02951,384.24623c5.45483.03284,9.512-1.82105,13.61865-3.34814,1.64209-.61078,3.37768-1.4856,3.3999-3.65918.02637-2.54865-1.96289-3.27533-3.89185-3.88092-11.06689-3.47455-22.45825-4.75452-34.02075-5.03577,5.86573,1.9765,11.87451,3.4024,17.40943,6.17261C231.48751,376.46791,235.3945,378.49153,231.02951,384.24623Z"/><path d="M479.70431,495.04433V461.198c-1.90332.1529-3.82178.25269-5.76465.25269-1.823,0-3.62353-.09107-5.41211-.22583v33.81946Z"/><path class="cls-5" d="M583.97555,144.23549,388.8757,31.59566c-21.93433-12.66126-56.28809-12.65528-78.21045,0l-195.103,112.63983v.00305C93.634,156.89986,76.457,186.65047,76.457,211.97V437.25276c0,25.31958,17.177,55.07013,39.10522,67.73145l195.103,112.63989c10.7124,6.18756,24.39184,9.342,38.14209,9.48315.321.0033.64184.01355.96313.01355,1.57007,0,3.13989-.04565,4.70581-.12451,12.46387-.62762,24.6604-3.74658,34.39942-9.3692L583.97555,504.98421c21.92822-12.66132,39.10547-42.41187,39.10547-67.73145V211.97C623.081,186.65047,605.90377,156.89986,583.97555,144.23549Zm11.24976,244.38165a41.55558,41.55558,0,0,1-6.59912-7.75915,31.42222,31.42222,0,0,1,6.59912-.96467Zm0-15.0094a45.13488,45.13488,0,0,1-7.5625-7.91064c1.9768-2.34333,5.05395-1.42133,7.5625-3.10126Zm0-83.48938v70.77c-4.47144-4.34479-8.9917-8.82086-12.56446-14.08643-.76782-1.13189-1.33276-1.47265-1.7915-1.399a1.27626,1.27626,0,0,0-.73193.4989c-.33814.40265-.636.96191-.96778,1.3891a1.40809,1.40809,0,0,1-.812.606c-2.904,5.64929-8.16186,9.30926-12.15576,14.10174,9.00537,4.19507,9.00659,4.19647,1.22217,11.26013-1.792,1.626-3.59546,3.2395-5.469,4.92682,1.90674,1.43891,3.90991,1.531,5.85816,1.86939,1.66137.28863,3.52026-.47809,5.33593,1.09344-1.31738,3.15045-3.968,5.20813-6.291,7.49359-.91113.8963-1.89185,1.888-3.41406.76459-7.84253-5.78839-15.99976-11.23975-21.60816-20.6236,5.738-.96008,11.175-.14733,16.32056-2.66333-5.125-4.8573-10.09741-9.57446-15.07544-14.28546-3.02661-2.86438-3.04053-4.65539,1.62671-5.2807,2.58374-.34619,5.09985-1.19842,9.17016-2.196-9.22485-7.37842-15.82495-15.65094-22.24243-24.07972v-.00006q-.72949,1.2226-1.50586,2.40491-.776,1.18276-1.59546,2.32819-.81884,1.146-1.678,2.25781c-1.717,2.22467-3.54761,4.353-5.46045,6.41339q-.95655,1.03015-1.93946,2.0387l-.01318.01306a71.12218,71.12218,0,0,1,18.68311,85.221h57.09912v16.298a35.3654,35.3654,0,0,1-.40625,5.16693c-1.78028,12.01007-9.31934,25.63721-18.615,33.926a37.52837,37.52837,0,0,1-6.156,4.51281l-3.23364,1.86689L374.948,593.50148c-13.41406,7.74963-36.94726,7.74359-50.35522,0L129.49,480.85853c-13.41381-7.74066-25.17749-28.1184-25.17749-43.60577V211.97c0-15.48736,11.76661-35.865,25.17749-43.61181v.00305L324.59274,55.71834c13.408-7.74372,36.9353-7.74372,50.35522.003l195.1001,112.63684c13.41064,7.74676,25.17725,28.12445,25.17725,43.61181Z"/><path class="cls-10" d="M479.68624,319.508c-1.89746-.15192-3.81-.25128-5.74658-.25128a71.47831,71.47831,0,0,0-12.08887,1.04449,71.07848,71.07848,0,0,0-51.03027,102.76386,71.07763,71.07763,0,0,0,28.04736,29.12445,70.6359,70.6359,0,0,0,29.65967,9.03534c1.78858.13476,3.58911.22583,5.41211.22583,1.94287,0,3.86133-.09979,5.76465-.25269a71.07173,71.07173,0,0,0-.01807-141.69Zm-10.0708,48.28937c-3.33227,1.40667-3.40283,4.36786-3.4209,7.31067-.03149,5.0343.00782,10.07025-.01049,15.10455-.01026,2.935-.0354,5.86969-.11792,8.80273-.29029,10.307-5.06275,16.024-15.21314,18.17957-7.20141,1.52924-14.40674,1.38965-21.30444-1.61047-4.31519-1.87684-7.70313-4.7862-9.1604-9.4289-1.16724-3.7182-.91089-7.27472,2.44726-9.82464,3.46314-2.62964,7.356-3.18781,11.1897-.94172,3.666,2.14783,4.198,5.57837,3.16455,9.47541-.60327,2.27581-1.30713,4.76373,1.08667,6.46112,2.39575,1.69879,4.95386.82708,7.21777-.35449a9.73755,9.73755,0,0,0,5.405-8.82276l.19947-14.66583c0-4.16614.02026-8.3324-.00684-12.49835-.0188-2.92719.06665-5.9336-3.40405-7.2533a1.8161,1.8161,0,0,1-1.13745-2.17688c.17749-1.46478,1.34326-1.53094,2.42236-1.535,1.67017-.00623,3.34009.00165,5.01-.001q7.27625-.01136,14.55225-.00275c1.16943.00263,2.15283.37525,2.37939,1.7063A1.79074,1.79074,0,0,1,469.61544,367.79738Zm40.64649-3.96717c.69848.20649,1.39673.431,2.0935.69294,3.12329,1.17431,5.92554,2.86944,7.20386,5.90307a8.77077,8.77077,0,0,1,.5459,1.74359c.08154.41925.1394.83179.17847,1.23719.30761,3.21777-.81177,5.90509-4.74439,6.57147-.29443.04993-.58105.08594-.8623.11316-3.8042.36786-6.36695-1.35755-6.477-5.72821-.07422-2.9455-1.084-4.78357-4.00757-5.5929-3.52735-.97626-6.92212-.95386-9.67578,1.65686-2.05738,1.95075-1.86817,4.365.333,6.13007a41.90957,41.90957,0,0,0,6.3938,4.06415c2.62964,1.41552,5.27735,2.80206,7.853,4.30407a60.26718,60.26718,0,0,1,6.99365,4.67035,16.36154,16.36154,0,0,1,5.56714,7.53009,12.56027,12.56027,0,0,1-.16455,8.63239,16.81959,16.81959,0,0,1-5.20508,6.92456c-5.0061,4.10126-10.96142,5.34295-17.28613,5.34546-8.67041-.158-16.48486-2.37732-21.97534-9.677a9.27524,9.27524,0,0,1-1.0083-10.24775c1.42407-2.81158,3.99414-4.06146,7.13427-4.16284,6.43946-.208,9.75757,4.876,6.54468,10.44507-1.19116,2.0647-1.58325,3.46716.28,5.1532,3.85425,3.48761,13.30859,2.47894,16.22461-1.87122,2.08862-3.1156,2.05127-6.24109-1.02808-8.67846a59.284,59.284,0,0,0-6.85156-4.34833c-4.20532-2.47406-8.5769-4.68762-12.65014-7.35852-4.41749-2.89649-7.85889-6.69422-6.85254-12.5434.87475-5.0841,4.09838-7.97314,8.324-9.65991a24.60821,24.60821,0,0,1,2.78272-.91669C496.70236,362.35585,503.52438,361.83943,510.26193,363.83021Z"/><path d="M487.143,365.07936c-4.22559,1.68677-7.44922,4.57581-8.324,9.65991-1.00635,5.84918,2.43505,9.64691,6.85254,12.5434,4.07324,2.6709,8.44482,4.88446,12.65014,7.35852a59.284,59.284,0,0,1,6.85156,4.34833c3.07935,2.43737,3.1167,5.56286,1.02808,8.67846-2.916,4.35016-12.37036,5.35883-16.22461,1.87122-1.86328-1.686-1.47119-3.0885-.28-5.1532,3.21289-5.569-.10522-10.65308-6.54468-10.44507-3.14013.10138-5.7102,1.35126-7.13427,4.16284a9.27524,9.27524,0,0,0,1.0083,10.24775c5.49048,7.29968,13.30493,9.519,21.97534,9.677,6.32471-.00251,12.28-1.2442,17.28613-5.34546a16.81959,16.81959,0,0,0,5.20508-6.92456,12.56027,12.56027,0,0,0,.16455-8.63239,16.36154,16.36154,0,0,0-5.56714-7.53009,60.26718,60.26718,0,0,0-6.99365-4.67035c-2.57568-1.502-5.22339-2.88855-7.853-4.30407a41.90957,41.90957,0,0,1-6.3938-4.06415c-2.20117-1.76508-2.39038-4.17932-.333-6.13007,2.75366-2.61072,6.14843-2.63312,9.67578-1.65686,2.92358.80933,3.93335,2.6474,4.00757,5.5929.1101,4.37066,2.67285,6.09607,6.477,5.72821.28125-.02722.56787-.06323.8623-.11316,3.93262-.66638,5.052-3.3537,4.74439-6.57147-.03907-.4054-.09693-.81794-.17847-1.23719a8.77077,8.77077,0,0,0-.5459-1.74359c-1.27832-3.03363-4.08057-4.72876-7.20386-5.90307-.69677-.262-1.395-.48645-2.0935-.69294-6.73755-1.99078-13.55957-1.47436-20.33618.33246A24.60821,24.60821,0,0,0,487.143,365.07936Z"/><path d="M468.53488,364.01539q-7.27624-.016-14.55225.00275c-1.66992.00263-3.33984-.00525-5.01.001-1.0791.004-2.24487.07019-2.42236,1.535a1.8161,1.8161,0,0,0,1.13745,2.17688c3.4707,1.3197,3.38525,4.32611,3.40405,7.2533.0271,4.166.00684,8.33221.00684,12.49835l-.19947,14.66583a9.73755,9.73755,0,0,1-5.405,8.82276c-2.26391,1.18157-4.822,2.05328-7.21777.35449-2.3938-1.69739-1.68994-4.18531-1.08667-6.46112,1.03345-3.897.50147-7.32758-3.16455-9.47541-3.83374-2.24609-7.72656-1.68792-11.1897.94172-3.35815,2.54992-3.6145,6.10644-2.44726,9.82464,1.45727,4.6427,4.84521,7.55206,9.1604,9.4289,6.8977,3.00012,14.103,3.13971,21.30444,1.61047,10.15039-2.15552,14.92285-7.87256,15.21314-18.17957.08252-2.933.10766-5.86773.11792-8.80273.01831-5.0343-.021-10.07025.01049-15.10455.01807-2.94281.08863-5.904,3.4209-7.31067a1.79074,1.79074,0,0,0,1.29883-2.07569C470.68771,364.39064,469.70431,364.018,468.53488,364.01539Z"/><g id="hLQQtO.tif"><path class="cls-7" d="M581.7716,712.89245c0,6.84185-.01981,13.68379.00913,20.52552.01267,3.00845.3031,5.853,3.87442,7.02155,2.25548.738,2.099,2.61028,1.4591,4.34788-1.70115,4.6192-8.15175,7.53741-12.65276,5.59972a6.94532,6.94532,0,0,0-5.009-.31107c-8.90286,2.4388-16.2707-.21376-21.68186-7.49915-4.8098-6.47574-5.93719-13.69473-1.772-20.897,4.45811-7.70863,11.21589-11.91115,20.42426-10.56211,3.8624.56584,4.59643-.87692,4.26955-4.14131-.39448-3.93908,1.05748-8.15968-2.352-11.59084-1.40648-1.41543.00832-2.71025,1.12728-3.64535a25.86036,25.86036,0,0,1,7.51313-4.45143c3.663-1.371,4.85029-.66645,4.91939,3.31495.129,7.4274.0371,14.85858.0371,22.2882Zm-11.14,16.63347-.17977-.00658c0-1.4532.063-2.90973-.01482-4.35881-.11511-2.14585,1.26662-4.76022-1.94276-5.97319-3.17846-1.20126-6.2637-1.58549-9.09326.74307-5.93574,4.88487-4.72771,18.45518,1.9643,22.38088,4.00795,2.35119,8.10729.53987,8.79241-4.10071C570.57939,735.35418,570.491,732.42334,570.63158,729.52592Z"/><path class="cls-7" d="M224.70921,751.47282c-8.72881-.10886-14.2601-3.15842-18.24251-8.99375-2.68533-3.93473-.30159-12.08988,4.11653-13.86531,2.52722-1.01556,2.65458,1.05437,2.66913,2.61248.035,3.75033.60041,7.2392,3.45523,10.02027,3.68808,3.59282,8.5658,4.548,11.4091,2.16917,2.94946-2.46763,3.1903-8.03719.44412-12.03839-2.35733-3.43464-5.657-5.8859-9.073-8.1579a53.91311,53.91311,0,0,1-8.84255-7.15553c-7.00184-7.1752-7.852-15.08938-2.42841-22.37682,5.81279-7.81044,15.99193-10.33042,24.23329-5.96565a12.41364,12.41364,0,0,1,2.90892,1.94275c2.02964,1.98714,5.49221,3.66828,4.67882,6.83146-.89606,3.48465-4.92,4.3259-7.92807,5.55859-2.63975,1.08173-3.53841-1.1763-3.91652-3.35288-.58525-3.3695-2.15547-5.69746-5.9298-5.86446-5.32225-.23551-8.43444,4.31665-6.10339,9.09464,2.04815,4.19815,5.76367,6.9089,9.302,9.7325,3.64945,2.91223,7.79032,5.18207,11.0826,8.57264,6.03194,6.212,8.1826,14.171,4.95961,20.77634C237.84076,748.52133,231.11222,751.2016,224.70921,751.47282Z"/><path class="cls-7" d="M357.63509,755.22408c.16682,2.57815-.42337,4.84976,1.5837,6.843,1.37231,1.36285-.11394,2.72919-1.29859,3.56385-4.12082,2.90344-8.87341,2.79956-13.538,2.24046-2.17313-.26046-2.471-2.31412-.86792-3.5167,2.03166-1.524,1.90642-3.38025,1.91976-5.41065q.12356-18.79878.27454-37.59737c.00939-1.41922.41058-3.01543-1.07808-4.00033-3.83117-2.53473-1.2916-4.31354.77044-5.99456a7.62822,7.62822,0,0,1,6.67475-1.464c4.11268,1.36509,8.05019.00205,12.02883.35391,10.28212.90929,19.22259,11.54644,18.20723,21.61446-1.08075,10.71626-11.30787,19.32725-21.88006,18.32146C354.75085,749.63719,359.28864,754.12864,357.63509,755.22408Zm.189-25.23733c0,2.03.0215,4.06024-.006,6.08985-.028,2.06728-.1367,4.21719,2.20192,5.20647,2.60461,1.10182,5.38845.99225,7.40158-.92978,3.57344-3.41174,3.95869-7.95032,3.15493-12.52309-.7401-4.21058-2.76711-7.66247-7.17851-9.07358-3.25169-1.04015-5.4361.47221-5.55495,3.83582C357.75606,725.05437,357.826,727.52178,357.824,729.98675Z"/><path class="cls-7" d="M536.38651,732.28475c0,2.6222.06937,5.24677-.0211,7.86587-.07786,2.25248-.24764,4.35721,2.6536,5.172a2.17914,2.17914,0,0,1,1.46834,2.82083,2.63272,2.63272,0,0,1-2.48367,2.14027c-4.39481.06154-8.79241.13023-13.18524.03123-2.2123-.04986-3.03552-1.55191-1.68579-3.20779,2.18712-2.68313,1.78888-5.69,1.86308-8.70395q.16116-6.549.38187-13.09659c.14368-4.4396-2.06889-7.225-5.75308-7.20705-3.55038.01732-5.12375,1.94489-5.07408,6.622.05713,5.38055.26857,10.76019.4704,16.13809a6.736,6.736,0,0,0,1.40155,4.49755c2.58531,2.908.831,3.98914-1.98975,4.57119a35.8257,35.8257,0,0,1-10.94142.21892c-3.49852-.35865-4.1518-1.92909-1.83377-4.49269a6.32163,6.32163,0,0,0,1.61036-4.70224c.04418-4.95137.288-9.901.453-14.85129.106-3.17811.57033-6.3054-3.27671-8.14724-1.93724-.92747-1.2788-3.016.42315-3.78979,4.19384-1.90661,8.37233-5.44923,13.1548-1.09179,1.26871,1.15592,2.11367-.197,3.05474-.6949,9.123-4.82706,18.8566.81748,19.17425,11.16757.08934,2.91067.01369,5.82636.01369,8.73975Z"/><path class="cls-7" d="M434.3299,750.33759c-5.12941,0-10.25888-.01079-15.38826.00676-1.487.0051-3.171.14462-3.72765-1.54477-.59908-1.81823,1.23649-2.086,2.32968-2.5573,2.10612-.9081,2.67178-2.62508,2.66638-4.597-.04268-15.59023-.14542-31.1803-.19345-46.77053a4.15049,4.15049,0,0,0-3.05177-4.26189c-.97254-.36425-1.832-1.09861-1.394-2.34554.3614-1.02891,1.41835-.99246,2.23966-.99547,5.27443-.01932,10.54924.02456,15.82362.07923a2.12759,2.12759,0,0,1,2.32826,1.58772,1.662,1.662,0,0,1-1.248,2.02306c-2.42931.82255-2.14554,2.78457-2.14237,4.67829.02469,14.71586.10569,29.43221.00123,44.14723-.02225,3.13717,1.14084,4.65843,4.23075,4.75859,1.75356.05685,3.5124.15369,5.26214.07855,2.59047-.11123,4.64755-.92461,4.52883-4.08-.04123-1.09471.23614-2.03969,1.46173-2.368a2.69708,2.69708,0,0,1,3.0817,1.11963,14.95966,14.95966,0,0,1,3.06774,7.61409c.2217,3.00068-2.169,3.46408-4.48754,3.494-5.12879.0661-10.259.02057-15.38863.02057Z"/><path class="cls-7" d="M490.39957,731.49034c0,1.89078.03753,3.78248-.00886,5.67213-.06787,2.7619.45349,4.77967,3.95109,4.97011,2.4215.13186,2.9101,1.93676,1.42936,3.71115a12.8105,12.8105,0,0,1-8.91376,5.01956c-1.7128.13833-3.42877-.254-4.03776-1.96638-1.296-3.64453-2.961-2.353-4.98908-.71543a13.88489,13.88489,0,0,1-13.19748,2.59349c-3.8043-1.08446-6.50988-3.34509-7.34743-7.29789-.89769-4.23666-.264-8.11048,3.3224-11.0791a24.70712,24.70712,0,0,1,9.38169-4.566c1.82755-.50764,3.73343-.76791,5.51979-1.38175,1.698-.58348,4.17225-.4381,4.48029-2.83208.26825-2.0849-1.29851-3.40805-2.99665-4.451-1.91678-1.17721-3.84355-1.53163-5.6458.08433a22.63334,22.63334,0,0,0-3.25357,3.50426,3.42521,3.42521,0,0,1-4.16447,1.50322c-1.81783-.58981-2.22342-2.16582-2.29322-3.83674a6.77991,6.77991,0,0,1,3.01039-6c5.08487-3.6307,10.54925-5.57658,16.8603-3.30227,6.12641,2.20777,8.03341,7.2549,8.77856,12.96409a57.65783,57.65783,0,0,1,.05294,7.40625Zm-10.91312,4.23946c-.7139-1.11967,1.46034-3.84552-1.95533-4.00516-4.88933-.22851-10.14381,3.56324-9.93049,7.21437.19641,3.36255,2.59084,4.31863,5.43667,4.36121C477.31645,743.36425,479.504,740.79691,479.48645,735.7298Z"/><path class="cls-7" d="M115.83756,731.55047c0,2.037.01364,4.07413-.0035,6.111-.02072,2.45968.61536,4.21412,3.59923,4.39413,2.578.15552,3.5209,1.70058,1.79828,3.8a12.68827,12.68827,0,0,1-8.913,5.01471c-1.71255.13641-3.40857-.28483-4.04083-1.98192-1.33465-3.5825-2.947-2.32641-5.00367-.67253a13.93757,13.93757,0,0,1-13.21284,2.55136,9.81006,9.81006,0,0,1-7.47761-7.75079c-.86493-4.11533.11036-7.79951,3.49927-10.61679a24.80983,24.80983,0,0,1,9.38063-4.57222c1.96594-.55354,3.99144-.90525,5.94267-1.50132,2.16131-.66026,5.02609-.913,3.711-4.44769-.93751-2.51984-4.94329-4.31357-7.23771-3.26427a9.46776,9.46776,0,0,0-4.09872,3.84c-1.06787,1.75817-2.508,2.46521-4.40585,1.796-1.98826-.70105-2.31046-2.53724-2.24673-4.31363a6.38,6.38,0,0,1,2.374-4.98452c5.07618-3.92071,10.565-6.10948,17.11358-3.94,6.38989,2.11687,8.40963,7.2284,9.14545,13.12576a60.28337,60.28337,0,0,1,.05038,7.41279Zm-10.71274,4.66537c.0069-4.38405-.04216-4.4804-2.28241-4.48288-4.92012-.00544-9.89021,3.47908-9.80338,6.98891.08277,3.34556,2.39609,4.4602,5.288,4.5786C102.599,743.47536,105.11767,740.76464,105.12482,736.21584Z"/><path class="cls-7" d="M195.01179,730.6499c0,2.90206-.02526,5.08389.007,7.26487.03314,2.239.602,3.9111,3.38589,4.129,3.42494.26805,3.54533,2.20073,1.53993,4.34953a13.22678,13.22678,0,0,1-6.99974,4.23716c-2.51327.51725-4.75574.37934-5.862-2.34195-.97039-2.387-2.09256-2.20926-3.84108-.69283a14.5,14.5,0,0,1-11.7517,3.69422c-4.82065-.61274-8.64586-3.59652-9.69251-7.67124-1.26276-4.916.37449-9.20489,4.6679-12.19285,3.80581-2.64861,8.27989-3.5004,12.62383-4.76865,2.03507-.59415,5.14587-.1277,5.425-3.31314.20313-2.31882-1.699-3.46895-3.56077-4.5126-2.8247-1.58345-4.69741-.04179-6.548,1.74823a5.32093,5.32093,0,0,0-.86307.98577c-1.31571,2.13847-3.05791,4.12269-5.59032,2.35017-2.56335-1.79418-2.00336-4.681-.76445-7.13708,1.94765-3.86109,10.07654-7.30006,15.43063-6.53407,5.69321.81451,9.73964,3.77765,11.38166,9.45687A29.43556,29.43556,0,0,1,195.01179,730.6499Zm-10.70573,5.39155c-.66891-1.26584,1.43027-4.15291-2.19639-4.31206-4.635-.20339-9.83487,3.39706-9.88165,6.86656-.04581,3.39837,2.22009,4.53152,5.10871,4.705C181.502,743.5511,184.27482,740.69331,184.30606,736.04145Z"/><path class="cls-7" d="M644.86094,730.62642c0,2.99043-.08993,5.17792.02513,7.35469.116,2.1943.80072,3.84553,3.5535,4.06889,3.5739.29,3.28471,2.41848,1.44084,4.43266a12.68373,12.68373,0,0,1-7.90535,4.332c-1.89692.22912-3.84226-.05283-4.48271-1.90159-1.31843-3.80605-2.98285-2.35521-4.9813-.73416a14.15973,14.15973,0,0,1-11.5148,3.04114c-4.76771-.7305-8.08517-3.56969-9.06925-7.71585-1.20058-5.05808.17321-8.89181,4.30858-11.88794,3.88687-2.81609,8.50414-3.71346,13.00945-4.97253,2.07377-.57955,5.21711-.28532,5.411-3.38255.13589-2.17077-1.80988-3.40929-3.70454-4.45008-2.87192-1.57763-4.68491.06067-6.549,1.78687a4.16045,4.16045,0,0,0-.56839.66463c-1.56456,2.23092-3.46759,4.85314-6.24,2.333-2.49709-2.26983-1.80263-5.61963.42734-7.862,4.46483-4.48963,9.99352-6.603,16.36794-5.1228,6.12307,1.42183,9.40537,5.48973,10.29882,12.11078A33.48311,33.48311,0,0,1,644.86094,730.62642Zm-10.71983,5.18624c-1.15031-.80141,1.81316-3.97267-2.0473-4.07255-4.68282-.12116-10.03954,3.48764-9.96416,6.861.07877,3.51968,2.5444,4.7012,5.644,4.70012C631.89321,743.29984,634.12742,740.76038,634.14111,735.81266Z"/><path class="cls-7" d="M63.85112,717.34325c0-7.8118-.07717-14.06923.036-20.32325.0488-2.69651-.36056-4.9439-3.23427-5.96168-1.10828-.39251-1.78-1.12434-1.52088-2.28631.26166-1.17323,1.31428-1.50313,2.38078-1.518,4.828-.06747,9.65657-.093,14.485-.1294a2.5957,2.5957,0,0,1,2.7481,1.73694c.44138,1.24162-.36754,1.95522-1.3095,2.42144-2.048,1.01367-1.68714,2.84737-1.68708,4.5577.00036,11.49089.038,22.98185-.00031,34.47258a6.49377,6.49377,0,0,0,1.51993,4.84876c1.9436,2.032,1.65277,4.22651.49933,6.44214-4.26917,8.20055-17.29539,12.04313-25.29341,7.49048a7.60019,7.60019,0,0,1-3.35957-10.06884c1.18011-2.30517,3.03869-3.31625,5.3956-2.28135a4.20884,4.20884,0,0,1,2.45564,5.71622c-.301.87364-1.795,1.57883-.76983,2.61354,1.09721,1.1074,2.51856.42485,3.71029-.06276,2.13214-.87241,2.83255-2.71511,3.18816-4.84906C64.44427,732.06629,63.478,723.90776,63.85112,717.34325Z"/><path class="cls-7" d="M268.06971,750.69558c-9.99851.03105-17.66107-5.90383-20.26745-15.38912-2.47159-8.99471,1.28819-17.42052,10.02388-22.464a19.60713,19.60713,0,0,1,23.79108,3.33237c3.03512,3.02287,2.77017,6.2083-.7684,9.23884-2.606,2.23182-5.18154,1.64152-7.69091-1.78152a24.606,24.606,0,0,0-2.28154-3.17454c-2.58523-2.53622-6.70913-2.52841-8.40792.32606-3.08323,5.18071-4.50432,10.78867-1.84966,16.63,2.82491,6.216,9.27648,7.45892,14.45888,2.91591a30.15,30.15,0,0,0,2.15891-2.16964c1.48192-1.59292,2.90835-3.83153,5.3666-1.66213a4.68287,4.68287,0,0,1,.68195,6.7088c-3.20022,4.28868-7.75687,6.46345-12.98792,7.309C269.43456,750.65518,268.5497,750.65907,268.06971,750.69558Z"/><path class="cls-7" d="M145.38954,732.17971c1.95372-7.26767,7.55888-12.00007,5.95774-19.22351-.26117-1.1783.91892-1.64893,1.96048-1.94621a16.48014,16.48014,0,0,1,9.10038-.12216c.84874.23536,1.784.39786,1.92075,1.47469a1.82912,1.82912,0,0,1-1.29391,2.06271c-3.19795.89808-3.875,3.71171-4.98764,6.20476-3.796,8.50571-7.54741,17.03129-11.38986,25.51615-.94225,2.08071-1.689,4.86542-4.35373,5.01244-3.002.16562-3.81709-2.83206-4.87-4.963-4.44877-9.00336-8.74939-18.079-13.13107-27.11529a17.61781,17.61781,0,0,0-2.15229-3.76981c-2.82213-3.33244-2.69443-4.14859,1.514-4.85048a35.10481,35.10481,0,0,1,12.2432-.01245c1.90642.35812,5.15312.91574,2.02654,4.08189-.9586.97075-.46409,1.94279-.08595,2.82261A104.42592,104.42592,0,0,0,145.38954,732.17971Z"/><path class="cls-7" d="M403.48578,702.37368c.15859,2.57725-1.318,6.65693,4.4462,6.13393a2.43035,2.43035,0,0,1,2.42936,2.62074,3.01416,3.01416,0,0,1-3.10683,3.07433c-3.45975.09088-3.9017,1.93958-3.78961,4.80449.21587,5.518.10387,11.04784.21923,16.57088.056,2.67955.17474,5.3282,4.03681,5.44269,2.13405.06326,2.4877,1.59042,1.95463,3.46344-1.13353,3.98289-7.16622,8.09035-11.23425,7.58942-4.17618-.51426-6.27468-2.8997-6.37678-7.95783-.15837-7.84663-.14591-15.7-.01605-23.54736.04918-2.97356-.18105-4.91694-4.00576-5.15326-3.30895-.20444-3.69175-2.0798-1.04317-4.66747,4.30426-4.20523,7.75327-9.06869,11.35273-13.82686.85361-1.1284,1.50845-2.8504,3.253-2.46489,2.02687.44788,1.78093,2.384,1.86776,3.94561C403.53754,699.561,403.48578,700.72684,403.48578,702.37368Z"/><path class="cls-7" d="M301.831,733.44055c.00124,2.47121.06145,4.94436-.01836,7.413-.06067,1.87629.22683,3.33314,2.25845,4.19167,2.46467,1.04154,1.84186,2.54163.21617,3.96923-1.64,1.44014-14.47687,2.45164-16.20361,1.18976-1.6245-1.18717-1.06886-2.81324-.00241-3.75073,2.07088-1.82045,1.93783-4.06183,1.94191-6.38419.01022-5.8146.059-11.62915.06094-17.44373.00051-1.43379.30033-2.97888-.73841-4.19774-2.72607-3.19872-.95568-4.99715,2.02287-6.25627,2.52926-1.06918,6.61947-3.52978,7.60487-2.15184,3.65331,5.10853,6.67171.62088,9.87891.23545,3.58258-.43055,6.24461.95637,7.1343,4.31368.89077,3.3611-.72039,6.23671-3.43524,8.35092-1.1109.86515-2.12561.09786-3.19542-.48483-5.76545-3.1402-7.482-2.1001-7.524,4.46414C301.818,729.07949,301.82975,731.26006,301.831,733.44055Z"/><path class="cls-7" d="M335.72428,728.00656c0,3.78808.0719,7.578-.02429,11.36363-.06849,2.69457.07181,5.16843,2.36619,7.1335,1.84512,1.58035.94322,3.219-.95616,3.4396-4.78782.55615-9.64968.90591-14.42345-.20281-2.64969-.6154-2.7574-2.16192-.59506-3.46478a4.052,4.052,0,0,0,2.156-3.91346c.01071-5.52815.12567-11.05678.07477-16.58409-.02722-2.96012.6045-6.0607-2.78755-8.14175-1.55387-.9533-.57655-2.657.81058-3.555a24.59721,24.59721,0,0,1,9.30266-3.7373c2.9375-.48775,4.23555,1.15878,4.167,4.12218-.10438,4.51118-.0273,9.02651-.0273,13.54009Z"/><path class="cls-7" d="M605.001,727.88722c0,3.78713.0786,7.57642-.02653,11.36065-.07517,2.70541.13332,5.14382,2.38826,7.13152,1.99292,1.75681,1.09882,3.4065-1.13136,3.62623-4.64937.45809-9.35345.77151-14.00309-.20419-.84276-.17685-1.8196-.30615-2.08731-1.32375-.32946-1.25257.55567-1.9506,1.49991-2.34064,1.92451-.79495,1.87651-2.37526,1.88038-4.00434.01385-5.82276.04859-11.64548.0597-17.46825.00494-2.59706.33789-5.2007-2.5525-6.90426-1.38565-.81669-.92432-2.31054.2762-3.30685a12.52609,12.52609,0,0,1,1.83307-1.18533c9.48194-5.39092,11.71561-4.20267,11.84319,6.31476.03361,2.76777.0051,5.53628.0051,8.30445Z"/><path class="cls-7" d="M335.62385,698.57119a5.6579,5.6579,0,0,1-5.8926,5.74833c-3.10285-.10659-4.84567-1.95284-5.16246-4.92253a5.54294,5.54294,0,1,1,11.05506-.8258Z"/><path class="cls-7" d="M604.94763,698.5613A5.48815,5.48815,0,0,1,599.17,704.323c-3.12605-.085-5.01609-1.96282-5.1-4.907-.09052-3.176,1.36289-5.68369,5.02688-5.95521A5.208,5.208,0,0,1,604.94763,698.5613Z"/></g></svg>