<?xml version="1.0" encoding="UTF-8"?>
<!DOCTYPE svg PUBLIC "-//W3C//DTD SVG 1.1//EN" "http://www.w3.org/Graphics/SVG/1.1/DTD/svg11.dtd">
<svg version="1.1" xmlns="http://www.w3.org/2000/svg" xmlns:xlink="http://www.w3.org/1999/xlink" x="0" y="0" width="650" height="125" viewBox="0, 0, 650, 125">
  <g id="hLQQtO.tif">
    <g>
      <path d="M556.987,54.504 C556.987,61.346 556.967,68.188 556.996,75.03 C557.009,78.038 557.299,80.883 560.871,82.051 C563.126,82.789 562.97,84.661 562.33,86.399 C560.629,91.018 554.178,93.936 549.677,91.999 C548.105,91.274 546.318,91.163 544.668,91.688 C535.765,94.126 528.397,91.474 522.986,84.188 C518.176,77.713 517.049,70.494 521.214,63.291 C525.672,55.583 532.43,51.38 541.638,52.729 C545.501,53.295 546.235,51.852 545.908,48.588 C545.514,44.649 546.966,40.428 543.556,36.997 C542.15,35.582 543.564,34.287 544.683,33.352 C546.917,31.453 549.458,29.948 552.196,28.9 C555.859,27.529 557.047,28.234 557.116,32.215 C557.245,39.643 557.153,47.074 557.153,54.504 z M545.847,71.137 L545.667,71.131 C545.667,69.678 545.73,68.221 545.653,66.772 C545.537,64.626 546.919,62.012 543.71,60.799 C540.531,59.598 537.446,59.213 534.617,61.542 C528.681,66.427 529.889,79.997 536.581,83.923 C540.589,86.274 544.688,84.463 545.373,79.822 C545.795,76.966 545.707,74.035 545.847,71.137 z" fill="#F3931F"/>
      <path d="M199.925,93.084 C191.196,92.976 185.665,89.926 181.682,84.091 C178.997,80.156 181.381,72.001 185.799,70.225 C188.326,69.21 188.453,71.28 188.468,72.838 C188.503,76.588 189.068,80.077 191.923,82.858 C195.611,86.451 200.489,87.406 203.332,85.027 C206.282,82.56 206.523,76.99 203.776,72.989 C201.419,69.554 198.119,67.103 194.703,64.831 C191.512,62.764 188.548,60.366 185.861,57.675 C178.859,50.5 178.009,42.586 183.432,35.299 C189.245,27.488 199.424,24.968 207.666,29.333 C208.722,29.84 209.702,30.494 210.575,31.276 C212.604,33.263 216.067,34.944 215.254,38.107 C214.357,41.592 210.334,42.433 207.325,43.666 C204.686,44.747 203.787,42.489 203.409,40.313 C202.824,36.943 201.253,34.615 197.479,34.448 C192.157,34.213 189.045,38.765 191.376,43.543 C193.424,47.741 197.139,50.452 200.678,53.276 C204.327,56.188 208.468,58.458 211.76,61.848 C217.792,68.06 219.943,76.019 216.72,82.625 C213.056,90.133 206.328,92.813 199.925,93.084 z" fill="#F3931F"/>
      <path d="M332.851,96.836 C333.018,99.414 332.427,101.685 334.434,103.679 C335.807,105.041 334.32,106.408 333.136,107.242 C329.015,110.146 324.262,110.042 319.598,109.483 C317.425,109.222 317.127,107.169 318.73,105.966 C320.762,104.442 320.636,102.586 320.65,100.556 Q320.773,81.757 320.924,62.958 C320.934,61.539 321.335,59.943 319.846,58.958 C316.015,56.423 318.555,54.644 320.617,52.963 C322.486,51.45 324.96,50.908 327.291,51.499 C331.404,52.864 335.341,51.501 339.32,51.853 C349.602,52.763 358.543,63.4 357.527,73.468 C356.447,84.184 346.219,92.795 335.647,91.789 C329.966,91.249 334.504,95.74 332.851,96.836 z M333.04,71.598 C333.04,73.628 333.061,75.659 333.034,77.688 C333.006,79.755 332.897,81.905 335.236,82.895 C337.84,83.996 340.624,83.887 342.637,81.965 C346.211,78.553 346.596,74.015 345.792,69.442 C345.052,65.231 343.025,61.779 338.614,60.368 C335.362,59.328 333.178,60.84 333.059,64.204 C332.972,66.666 333.042,69.133 333.04,71.598 z" fill="#F3931F"/>
      <path d="M511.602,73.896 C511.602,76.519 511.672,79.143 511.581,81.762 C511.503,84.015 511.333,86.119 514.235,86.934 C514.815,87.097 515.302,87.492 515.58,88.026 C515.858,88.561 515.903,89.187 515.703,89.755 C515.475,90.96 514.445,91.847 513.219,91.895 C508.824,91.957 504.427,92.026 500.034,91.927 C497.822,91.877 496.999,90.375 498.348,88.719 C500.535,86.036 500.137,83.029 500.211,80.015 Q500.373,73.466 500.593,66.918 C500.737,62.479 498.524,59.693 494.84,59.711 C491.29,59.728 489.716,61.656 489.766,66.333 C489.823,71.714 490.035,77.093 490.236,82.471 C490.147,84.09 490.645,85.687 491.638,86.969 C494.223,89.877 492.469,90.958 489.648,91.54 C486.034,92.173 482.344,92.247 478.707,91.759 C475.208,91.4 474.555,89.83 476.873,87.266 C478.029,85.984 478.611,84.285 478.483,82.564 C478.528,77.613 478.771,72.663 478.936,67.713 C479.042,64.535 479.507,61.407 475.66,59.565 C473.722,58.638 474.381,56.549 476.083,55.776 C480.277,53.869 484.455,50.326 489.238,54.684 C490.506,55.84 491.351,54.487 492.292,53.989 C501.415,49.162 511.149,54.806 511.467,65.157 C511.556,68.067 511.48,70.983 511.48,73.896 z" fill="#F3931F"/>
      <path d="M409.546,91.949 C404.416,91.949 399.287,91.938 394.157,91.956 C392.67,91.961 390.986,92.101 390.43,90.411 C389.831,88.593 391.666,88.325 392.759,87.854 C394.865,86.946 395.431,85.229 395.426,83.257 C395.383,67.667 395.28,52.077 395.232,36.486 C395.354,34.522 394.08,32.742 392.18,32.224 C391.208,31.86 390.348,31.126 390.786,29.879 C391.148,28.85 392.205,28.886 393.026,28.883 C398.301,28.864 403.575,28.908 408.85,28.963 C409.915,28.828 410.914,29.509 411.178,30.55 C411.286,30.984 411.215,31.444 410.98,31.825 C410.745,32.205 410.366,32.475 409.93,32.573 C407.501,33.396 407.784,35.358 407.788,37.252 C407.812,51.968 407.893,66.684 407.789,81.399 C407.767,84.536 408.93,86.057 412.02,86.158 C413.773,86.214 415.532,86.311 417.282,86.236 C419.872,86.125 421.929,85.311 421.811,82.156 C421.769,81.061 422.047,80.116 423.272,79.788 C424.435,79.422 425.698,79.881 426.354,80.908 C428.067,83.11 429.129,85.747 429.422,88.522 C429.643,91.522 427.253,91.986 424.934,92.016 C419.805,92.082 414.675,92.036 409.546,92.036 z" fill="#F3931F"/>
      <path d="M465.615,73.102 C465.615,74.993 465.653,76.884 465.606,78.774 C465.538,81.536 466.06,83.554 469.557,83.744 C471.979,83.876 472.467,85.681 470.987,87.455 C468.841,90.294 465.612,92.112 462.073,92.475 C460.36,92.613 458.644,92.221 458.035,90.508 C456.739,86.864 455.074,88.155 453.046,89.793 C449.387,92.873 444.401,93.853 439.849,92.387 C436.044,91.302 433.339,89.041 432.501,85.089 C431.604,80.852 432.237,76.978 435.824,74.01 C438.59,71.837 441.789,70.28 445.205,69.444 C447.033,68.936 448.939,68.676 450.725,68.062 C452.423,67.478 454.897,67.624 455.205,65.23 C455.474,63.145 453.907,61.822 452.209,60.779 C450.292,59.601 448.365,59.247 446.563,60.863 C445.358,61.913 444.267,63.088 443.309,64.367 C442.475,65.819 440.714,66.455 439.145,65.871 C437.327,65.281 436.922,63.705 436.852,62.034 C436.725,59.642 437.869,57.362 439.862,56.034 C444.947,52.403 450.411,50.457 456.722,52.731 C462.849,54.939 464.756,59.986 465.501,65.696 C465.677,68.161 465.695,70.635 465.554,73.102 z M454.702,77.341 C453.988,76.222 456.162,73.496 452.747,73.336 C447.857,73.108 442.603,76.899 442.816,80.551 C443.013,83.913 445.407,84.869 448.253,84.912 C452.532,84.976 454.72,82.408 454.702,77.341 z" fill="#F3931F"/>
      <path d="M91.053,73.162 C91.053,75.199 91.067,77.236 91.05,79.273 C91.029,81.733 91.665,83.487 94.649,83.667 C97.227,83.823 98.17,85.368 96.447,87.467 C94.311,90.315 91.077,92.135 87.534,92.482 C85.822,92.618 84.126,92.197 83.493,90.5 C82.159,86.917 80.546,88.174 78.49,89.827 C74.815,92.889 69.827,93.852 65.277,92.379 C61.462,91.517 58.524,88.471 57.799,84.628 C56.934,80.513 57.91,76.828 61.299,74.011 C64.066,71.839 67.263,70.281 70.679,69.439 C72.645,68.885 74.671,68.534 76.622,67.938 C78.783,67.277 81.648,67.025 80.333,63.49 C79.395,60.97 75.39,59.176 73.095,60.226 C71.372,61.062 69.943,62.401 68.996,64.066 C67.929,65.824 66.488,66.531 64.591,65.862 C62.602,65.161 62.28,63.324 62.344,61.548 C62.338,59.612 63.211,57.779 64.718,56.564 C69.794,52.643 75.283,50.454 81.831,52.624 C88.221,54.74 90.241,59.852 90.977,65.749 C91.146,68.217 91.163,70.692 91.027,73.162 z M80.34,77.827 C80.347,73.443 80.298,73.347 78.058,73.345 C73.138,73.339 68.168,76.824 68.255,80.333 C68.337,83.679 70.651,84.794 73.543,84.912 C77.815,85.087 80.333,82.376 80.34,77.827 z" fill="#F3931F"/>
      <path d="M170.227,72.261 C170.227,75.164 170.202,77.345 170.234,79.526 C170.268,81.765 170.836,83.437 173.62,83.655 C177.045,83.923 177.166,85.856 175.16,88.005 C173.333,90.122 170.883,91.605 168.161,92.242 C165.647,92.759 163.405,92.621 162.299,89.9 C161.328,87.513 160.206,87.691 158.457,89.207 C155.284,92.124 150.977,93.478 146.706,92.901 C141.885,92.289 138.06,89.305 137.013,85.23 C135.75,80.314 137.388,76.025 141.681,73.037 C145.487,70.389 149.961,69.537 154.305,68.269 C156.34,67.675 159.451,68.141 159.73,64.956 C159.933,62.637 158.031,61.487 156.169,60.443 C153.344,58.86 151.472,60.401 149.621,62.191 C149.294,62.483 149.004,62.814 148.758,63.177 C147.442,65.315 145.7,67.3 143.168,65.527 C140.604,63.733 141.164,60.846 142.403,58.39 C144.351,54.529 152.48,51.09 157.834,51.856 C163.527,52.67 167.574,55.634 169.216,61.313 C170.238,64.866 170.581,68.581 170.227,72.261 z M159.522,77.653 C158.853,76.387 160.952,73.5 157.325,73.341 C152.69,73.138 147.49,76.738 147.444,80.207 C147.398,83.606 149.664,84.739 152.552,84.912 C156.718,85.163 159.49,82.305 159.522,77.653 z" fill="#F3931F"/>
      <path d="M620.077,72.238 C620.077,75.228 619.987,77.416 620.102,79.593 C620.218,81.787 620.902,83.438 623.655,83.662 C627.229,83.952 626.94,86.08 625.096,88.094 C623.08,90.457 620.267,91.999 617.191,92.426 C615.294,92.655 613.348,92.373 612.708,90.525 C611.39,86.719 609.725,88.169 607.727,89.79 C604.522,92.448 600.311,93.56 596.212,92.832 C591.444,92.101 588.127,89.262 587.143,85.116 C585.942,80.058 587.316,76.224 591.451,73.228 C595.338,70.412 599.955,69.514 604.461,68.255 C606.534,67.676 609.678,67.97 609.872,64.873 C610.008,62.702 608.062,61.463 606.167,60.423 C603.295,58.845 601.482,60.483 599.618,62.21 C599.406,62.41 599.215,62.633 599.05,62.874 C597.485,65.105 595.582,67.727 592.81,65.207 C590.313,62.937 591.007,59.588 593.237,57.345 C597.702,52.856 603.231,50.742 609.605,52.222 C615.728,53.644 619.01,57.712 619.904,64.333 C620.273,66.952 620.331,69.605 620.077,72.238 z M609.357,77.424 C608.206,76.623 611.17,73.452 607.309,73.352 C602.627,73.231 597.27,76.839 597.345,80.213 C597.424,83.732 599.89,84.914 602.989,84.913 C607.109,84.911 609.343,82.372 609.357,77.424 z" fill="#F3931F"/>
      <path d="M39.067,58.955 C39.067,51.143 38.99,44.886 39.103,38.632 C39.152,35.935 38.742,33.688 35.868,32.67 C34.76,32.277 34.088,31.546 34.348,30.384 C34.609,29.21 35.662,28.88 36.728,28.866 C41.556,28.798 46.385,28.773 51.213,28.736 C52.423,28.599 53.566,29.321 53.961,30.473 C54.403,31.715 53.594,32.428 52.652,32.895 C50.604,33.908 50.965,35.742 50.965,37.452 C50.965,48.943 51.003,60.434 50.965,71.925 C50.792,73.68 51.34,75.431 52.485,76.774 C54.428,78.806 54.137,81 52.984,83.216 C48.715,91.416 35.688,95.259 27.69,90.706 C24.024,88.817 22.533,84.349 24.331,80.637 C25.511,78.332 27.37,77.321 29.726,78.356 C30.845,78.743 31.749,79.584 32.216,80.672 C32.684,81.76 32.671,82.994 32.182,84.072 C31.881,84.946 30.387,85.651 31.412,86.686 C32.509,87.793 33.931,87.111 35.123,86.623 C37.255,85.751 37.955,83.908 38.311,81.774 C39.66,73.678 38.694,65.519 39.067,58.955 z" fill="#F3931F"/>
      <path d="M243.285,92.307 C233.287,92.338 225.624,86.403 223.018,76.918 C220.546,67.923 224.306,59.498 233.042,54.454 C240.804,50.008 250.591,51.379 256.833,57.786 C259.868,60.809 259.603,63.995 256.064,67.025 C253.458,69.257 250.883,68.667 248.374,65.244 C247.698,64.127 246.936,63.065 246.092,62.069 C243.507,59.533 239.383,59.541 237.684,62.395 C234.601,67.576 233.18,73.184 235.834,79.025 C238.659,85.241 245.111,86.484 250.293,81.941 C251.049,81.255 251.77,80.531 252.452,79.772 C253.934,78.179 255.361,75.94 257.819,78.109 C258.819,78.895 259.457,80.054 259.586,81.319 C259.714,82.584 259.323,83.847 258.501,84.818 C255.301,89.107 250.744,91.282 245.513,92.127 C244.65,92.267 243.765,92.271 243.285,92.307 z" fill="#F3931F"/>
      <path d="M120.605,73.791 C122.559,66.524 128.164,61.791 126.563,54.568 C126.302,53.389 127.482,52.919 128.523,52.622 C131.485,51.727 134.639,51.685 137.624,52.499 C138.473,52.735 139.408,52.897 139.545,53.974 C139.7,54.891 139.143,55.778 138.251,56.037 C135.053,56.935 134.376,59.748 133.263,62.242 C129.467,70.747 125.716,79.273 121.873,87.758 C120.931,89.838 120.184,92.623 117.519,92.77 C114.517,92.936 113.702,89.938 112.649,87.807 C108.201,78.804 103.9,69.728 99.518,60.692 C98.959,59.351 98.236,58.085 97.366,56.922 C94.544,53.59 94.672,52.773 98.88,52.072 C102.929,51.35 107.073,51.346 111.123,52.059 C113.03,52.417 116.276,52.975 113.15,56.141 C112.191,57.112 112.686,58.084 113.064,58.964 C115.179,64.099 117.701,69.057 120.605,73.791 z" fill="#F3931F"/>
      <path d="M378.701,43.985 C378.86,46.563 377.383,50.642 383.148,50.119 C383.826,50.117 384.475,50.4 384.936,50.897 C385.398,51.395 385.63,52.063 385.577,52.74 C385.594,53.566 385.271,54.363 384.684,54.944 C384.096,55.525 383.296,55.84 382.47,55.814 C379.01,55.905 378.568,57.754 378.681,60.619 C378.896,66.137 378.784,71.667 378.9,77.19 C378.956,79.869 379.074,82.518 382.937,82.632 C385.071,82.696 385.424,84.223 384.891,86.096 C383.758,90.079 377.725,94.186 373.657,93.685 C369.481,93.171 367.382,90.785 367.28,85.727 C367.122,77.881 367.134,70.027 367.264,62.18 C367.313,59.206 367.083,57.263 363.258,57.027 C359.949,56.822 359.567,54.947 362.215,52.359 C366.519,48.154 369.968,43.291 373.568,38.532 C374.422,37.404 375.076,35.682 376.821,36.068 C378.848,36.515 378.602,38.452 378.689,40.013 C378.753,41.173 378.701,42.338 378.701,43.985 z" fill="#F3931F"/>
      <path d="M277.047,75.052 C277.048,77.523 277.108,79.996 277.028,82.465 C276.968,84.341 277.255,85.798 279.287,86.657 C281.751,87.698 281.129,89.198 279.503,90.626 C277.863,92.066 265.026,93.078 263.299,91.816 C261.675,90.629 262.23,89.002 263.297,88.065 C265.368,86.245 265.235,84.003 265.239,81.681 C265.249,75.866 265.298,70.052 265.3,64.237 C265.3,62.803 265.6,61.258 264.561,60.039 C261.835,56.841 263.606,55.042 266.584,53.783 C269.113,52.714 273.204,50.253 274.189,51.631 C277.842,56.74 280.861,52.252 284.068,51.867 C287.651,51.436 290.313,52.823 291.202,56.18 C292.093,59.541 290.482,62.417 287.767,64.531 C286.656,65.396 285.641,64.629 284.572,64.046 C278.806,60.906 277.09,61.946 277.048,68.511 C277.034,70.691 277.045,72.872 277.047,75.052 z" fill="#F3931F"/>
      <path d="M310.94,69.618 C310.94,73.406 311.012,77.196 310.916,80.982 C310.847,83.676 310.987,86.15 313.282,88.115 C315.127,89.696 314.225,91.334 312.326,91.555 C307.538,92.111 302.676,92.461 297.902,91.352 C295.253,90.737 295.145,89.19 297.307,87.887 C298.745,87.133 299.594,85.592 299.463,83.974 C299.474,78.446 299.589,72.917 299.538,67.39 C299.511,64.43 300.142,61.329 296.75,59.248 C295.196,58.295 296.174,56.591 297.561,55.693 C300.372,53.822 303.539,52.55 306.864,51.956 C309.801,51.468 311.099,53.114 311.031,56.078 C310.926,60.589 311.003,65.104 311.003,69.618 z" fill="#F3931F"/>
      <path d="M580.217,69.499 C580.217,73.286 580.295,77.075 580.19,80.859 C580.115,83.565 580.323,86.003 582.578,87.991 C584.571,89.748 583.677,91.397 581.447,91.617 C576.798,92.075 572.094,92.389 567.444,91.413 C566.601,91.236 565.624,91.107 565.357,90.089 C565.027,88.837 565.912,88.139 566.856,87.749 C568.781,86.954 568.733,85.373 568.737,83.744 C568.751,77.922 568.785,72.099 568.797,66.276 C568.802,63.679 569.134,61.075 566.244,59.372 C564.858,58.555 565.32,57.061 566.52,56.065 C567.096,55.617 567.709,55.221 568.353,54.88 C577.835,49.489 580.069,50.677 580.197,61.194 C580.23,63.962 580.202,66.731 580.202,69.499 z" fill="#F3931F"/>
      <path d="M310.839,40.183 C310.866,41.74 310.248,43.24 309.133,44.328 C308.018,45.416 306.504,45.996 304.947,45.931 C301.844,45.824 300.101,43.978 299.784,41.009 C299.633,39.032 300.549,37.124 302.187,36.007 C303.825,34.889 305.935,34.731 307.72,35.593 C309.506,36.455 310.695,38.205 310.839,40.183 z" fill="#F3931F"/>
      <path d="M580.163,40.173 C580.243,41.727 579.659,43.242 578.558,44.34 C577.456,45.439 575.939,46.019 574.386,45.935 C571.26,45.85 569.37,43.972 569.286,41.028 C569.195,37.852 570.648,35.344 574.312,35.072 C575.783,34.889 577.261,35.341 578.378,36.315 C579.495,37.288 580.144,38.691 580.163,40.173 z" fill="#F3931F"/>
    </g>
  </g>
</svg>
