<?xml version="1.0" encoding="UTF-8"?>
<!DOCTYPE svg PUBLIC "-//W3C//DTD SVG 1.1//EN" "http://www.w3.org/Graphics/SVG/1.1/DTD/svg11.dtd">
<svg version="1.1" xmlns="http://www.w3.org/2000/svg" xmlns:xlink="http://www.w3.org/1999/xlink" x="0" y="0" width="2311.4" height="436.4" viewBox="0, 0, 9245.6, 1745.6">
  <g id="Background">
    <rect x="0" y="0" width="9245.6" height="1745.6" fill="#FFFFFF"/>
  </g>
  <g id="Layer_1">
    <path d="M986.251,739.232 Q1024.693,803.666 1063.412,867.933 C1072.552,866.353 1081.81,865.553 1091.086,865.542 C1095.519,865.542 1099.898,865.769 1104.241,866.117 C1094.731,831.498 1080.312,798.052 1064.511,765.133 C1034.554,702.722 998.448,637.95 942.959,597.919 C929.102,587.922 902.642,573.206 881.522,563.28 C887.663,573.154 893.745,582.933 899.824,592.707 C928.616,641.559 957.199,690.535 986.251,739.232 z M342.091,877.316 C346.562,883.041 338.752,881.277 336.992,883.34 C333.862,887.009 336.891,889.055 338.96,890.837 C342.387,893.787 346.29,896.184 349.067,898.158 C345.726,905.841 338.645,900.777 336.908,906.727 C340.687,914.245 348.636,917.767 353.977,923.581 C348.152,931.503 335.373,924.517 329.484,937.231 C345.058,934.836 358.474,932.735 371.905,930.728 C376.586,930.028 377.28,926.664 377.438,922.903 C377.641,918.089 374.17,916.992 370.476,916.422 C363.607,915.364 356.55,915.057 349.632,910.697 C356.622,902.682 367.776,898.769 371.328,887.11 C365.685,885.928 361.126,884.973 359.507,884.634 C354.062,873.113 385.933,872.011 362.721,857.28 C369.869,849.175 377.137,840.935 384.701,832.358 C392.545,841.247 399.869,849.546 408.325,859.129 C392.217,860.471 394.899,865.77 403.145,873.219 C406.504,876.254 412.13,878.085 412.15,883.62 C407.864,887.101 401.223,883.218 397.062,892.597 C400.674,895.264 405.455,898.311 409.65,902.022 C414.189,906.037 416.999,905.848 420.186,900.363 C430.951,881.827 444.317,864.868 453.608,845.425 C452.686,844.594 451.845,843.678 451.094,842.689 C450.385,841.751 449.757,840.753 449.22,839.707 C447.947,837.13 447.064,834.377 446.6,831.54 C446.394,830.411 446.229,829.273 446.088,828.136 C445.805,825.862 445.616,823.591 445.373,821.398 Q445.281,820.575 445.177,819.769 Q444.619,815.48 444.241,811.244 Q443.483,802.774 443.435,794.532 C442.937,714.901 491.255,652.511 569.588,633.982 C581.199,631.224 593.085,629.792 605.019,629.715 Q611.977,629.674 618.8,630.246 Q625.618,630.812 632.27,631.959 Q638.918,633.1 645.372,634.79 C664.368,639.77 682.288,648.195 698.243,659.644 Q703.446,663.374 708.297,667.476 Q710.721,669.525 713.049,671.659 Q717.707,675.927 721.97,680.519 C728.999,688.066 735.218,696.329 740.527,705.171 Q743.662,710.412 746.302,715.864 C743.309,721.18 740.481,726.603 737.424,731.881 C740.481,726.603 743.311,721.179 746.307,715.861 L843.069,565.102 C846.322,560.776 849.249,556.214 851.826,551.454 C809.932,537.672 765.771,532.108 721.767,535.067 C672.43,538.357 623.904,549.295 577.926,567.488 C553.014,577.683 527.311,587.141 504.574,601.162 C472.283,620.614 442.965,644.619 417.524,672.437 C399.808,692.014 383.776,713.052 369.601,735.326 C358.158,753.778 348.142,773.076 339.639,793.054 C329.525,815.887 322.484,839.96 318.699,864.645 C320.408,862.931 322.237,861.342 324.173,859.889 C330.658,865.148 336.655,870.98 342.091,877.316 z" fill="#2AABE2"/>
    <path d="M1184.357,744.44 Q1180.972,737.436 1177.324,730.577 Q1173.678,723.718 1169.779,716.999 Q1165.882,710.281 1161.742,703.699 Q1153.466,690.535 1144.276,677.901 Q1137.393,668.422 1130.041,659.226 Q1127.592,656.16 1125.094,653.124 Q1119.569,646.409 1113.8,639.987 Q1108.033,633.563 1102.035,627.415 Q1087.042,612.039 1070.703,598.242 Q1057.654,587.171 1043.848,576.959 Q1033.504,569.284 1022.78,562.027 C1002.451,548.351 980.951,536.503 958.532,526.621 C941.178,518.884 923.322,512.142 905.055,506.096 C886.179,499.862 866.886,494.968 847.321,491.451 C827.99,487.985 808.46,485.74 788.848,484.728 Q777.096,484.104 765.307,484.018 C749.59,483.895 733.831,484.458 718.051,485.616 C688.432,487.767 659.096,492.827 630.468,500.721 Q623.385,502.677 616.376,504.861 Q602.359,509.229 588.641,514.5 Q568.065,522.404 548.177,532.304 C530.337,541.198 513.052,551.162 496.415,562.143 Q485.078,569.611 474.326,577.65 Q468.949,581.669 463.716,585.827 C449.837,596.856 436.617,608.689 424.123,621.265 C408.55,636.956 394.098,653.72 380.872,671.433 Q368.912,687.421 358.144,704.488 Q354.553,710.175 351.092,715.977 Q347.738,721.599 344.586,727.328 Q338.277,738.784 332.731,750.633 Q324.395,768.393 317.602,786.9 Q313.049,799.217 309.096,811.797 C307.264,817.603 305.634,823.444 304.157,829.31 C301.203,841.044 298.863,852.884 296.755,864.778 Q295.965,869.238 295.212,873.707 Q294.456,878.176 293.72,882.651 C293.612,885.268 292.833,887.813 291.458,890.042 C290.866,890.768 290.135,891.369 289.308,891.811 C289.517,892.123 289.696,892.454 289.843,892.799 C289.879,892.876 289.933,892.947 289.966,893.025 C290.053,893.232 290.101,893.45 290.169,893.663 L290.172,893.671 C290.24,893.886 290.327,894.096 290.378,894.316 C290.452,894.667 290.507,895.021 290.543,895.377 C290.674,896.886 290.648,898.404 290.464,899.908 L290.44,900.167 C290.351,901.071 290.256,901.977 290.198,902.873 L290.188,903.027 C290.065,904.424 290.157,905.833 290.463,907.202 C290.687,908.107 291.084,908.96 291.632,909.713 C292.713,911.088 294.153,912.135 295.793,912.74 C295.743,913.537 295.535,914.317 295.181,915.033 C291.741,921.466 291.725,921.458 299.572,921.44 C302.518,917.38 307.227,914.782 310.48,910.962 C312.09,909.171 313.212,906.997 313.739,904.647 C310.079,902.51 304.873,904.932 304.651,904.653 C300.436,892.703 327.07,891.702 307.036,880.008 C308.139,878.384 309.163,876.699 310.361,875.149 C313.095,871.612 315.914,868.142 318.699,864.645 C322.484,839.96 329.525,815.887 339.639,793.054 C348.142,773.076 358.158,753.778 369.601,735.327 C383.776,713.052 399.808,692.014 417.524,672.437 C442.965,644.619 472.283,620.614 504.574,601.162 C527.311,587.141 552.862,577.303 577.926,567.488 C623.904,549.295 672.43,538.357 721.767,535.067 C765.771,532.108 809.932,537.672 851.826,551.454 C852.685,549.981 853.551,548.511 854.454,547.065 C856.107,544.385 857.964,541.837 860.011,539.445 C861.271,537.958 862.643,536.57 864.114,535.291 C865.467,537.466 866.796,539.602 868.138,541.761 Q874.895,552.623 881.522,563.279 C902.642,573.205 929.102,587.922 942.959,597.919 C998.449,637.95 1034.554,702.722 1064.511,765.133 C1080.313,798.052 1094.732,831.498 1104.242,866.117 C1137.695,868.769 1169.498,881.748 1195.254,903.261 L1195.284,903.231 Q1197.532,900.921 1199.724,898.564 C1204.103,893.848 1208.293,888.976 1212.224,883.883 Q1214.189,881.336 1216.065,878.714 Q1217.941,876.091 1219.717,873.384 Q1221.493,870.677 1223.165,867.879 C1219.432,829.382 1206.029,793.456 1190.856,758.595 Q1187.743,751.443 1184.357,744.44 z" fill="#FBBF12"/>
    <path d="M1330.122,931.105 C1324.074,909.517 1325.54,886.952 1321.188,865.064 C1298.287,749.865 1247.647,650.849 1159.293,570.99 C1127.44,542.56 1092.593,517.675 1055.365,496.772 C976.199,451.458 889.937,431.193 799.616,430.445 C759.775,430.115 719.864,435.716 680.189,443.899 C620.245,456.262 565.042,479.727 513.93,511.249 C451.37,549.83 399.312,601.156 357.461,661.977 C318.981,718.105 292.249,781.436 278.872,848.161 C276.557,859.4 272.728,870.867 276.081,882.702 C276.167,882.699 276.232,882.678 276.322,882.678 L280.912,886.479 L290.093,894.08 L289.352,891.94 L289.307,891.813 L289.307,891.811 L289.307,891.812 C289.513,892.125 289.692,892.455 289.843,892.799 C289.696,892.454 289.517,892.123 289.307,891.811 C290.135,891.37 290.866,890.768 291.458,890.042 C292.833,887.813 293.612,885.268 293.72,882.651 Q294.459,878.176 295.211,873.707 Q295.968,869.238 296.755,864.778 C298.863,852.884 301.203,841.044 304.157,829.31 C305.634,823.444 307.264,817.603 309.095,811.797 Q313.059,799.226 317.602,786.9 Q324.431,768.423 332.731,750.633 Q338.288,738.793 344.586,727.328 Q347.739,721.6 351.092,715.977 Q354.554,710.175 358.144,704.488 Q368.916,687.429 380.872,671.433 C394.098,653.72 408.55,636.956 424.122,621.265 C436.617,608.689 449.837,596.856 463.716,585.827 Q468.949,581.669 474.326,577.651 Q485.08,569.614 496.415,562.143 C513.052,551.162 530.337,541.198 548.177,532.304 Q568.062,522.412 588.641,514.5 Q602.359,509.231 616.376,504.861 Q623.385,502.677 630.468,500.721 C659.096,492.827 688.432,487.768 718.051,485.617 C733.831,484.459 749.59,483.896 765.307,484.018 Q777.094,484.11 788.848,484.728 C808.46,485.74 827.99,487.985 847.321,491.451 C866.886,494.968 886.179,499.862 905.055,506.096 C923.322,512.142 941.178,518.884 958.532,526.621 C980.951,536.503 1002.451,548.352 1022.78,562.027 Q1033.498,569.294 1043.848,576.959 Q1057.64,587.193 1070.703,598.242 Q1087.014,612.082 1102.035,627.416 Q1108.031,633.566 1113.8,639.988 Q1119.567,646.412 1125.094,653.124 Q1127.592,656.16 1130.041,659.226 Q1137.388,668.424 1144.276,677.902 Q1153.451,690.54 1161.742,703.699 Q1165.88,710.282 1169.779,717 Q1173.676,723.719 1177.324,730.578 Q1180.971,737.437 1184.357,744.44 Q1187.742,751.444 1190.856,758.596 C1206.029,793.457 1219.432,829.382 1223.164,867.879 L1223.164,867.88 C1237.855,887.175 1252.964,906.112 1274.082,923.003 C1264.764,925.287 1259.004,927.238 1253.09,928.03 C1242.405,929.462 1242.437,933.562 1249.366,940.119 C1260.761,950.904 1272.144,961.702 1283.877,972.822 C1272.097,978.581 1259.651,976.721 1246.515,978.919 C1259.354,1000.4 1278.028,1012.88 1295.981,1026.13 C1299.466,1028.702 1301.711,1026.432 1303.797,1024.38 C1309.114,1019.148 1315.182,1014.438 1318.198,1007.226 C1314.042,1003.628 1309.786,1005.383 1305.983,1004.722 C1301.523,1003.948 1296.937,1003.737 1292.572,1000.443 C1296.861,996.58 1300.99,992.887 1305.092,989.165 C1322.912,972.994 1322.909,972.991 1302.294,963.388 C1311.437,952.417 1323.473,944.038 1330.122,931.106 C1330.892,930.89 1331.554,930.396 1331.98,929.718 C1331.554,930.395 1330.892,930.889 1330.122,931.105 z" fill="#2AABE2"/>
    <path d="M290.378,894.316 C290.327,894.096 290.24,893.886 290.172,893.671 L290.169,893.663 C290.239,893.881 290.326,894.093 290.377,894.316 z M272.203,888.153 C271.669,888.491 271.174,888.886 270.725,889.33 C271.174,888.886 271.669,888.491 272.203,888.154 z" fill="#2AABE2"/>
    <path d="M1311.099,520.103 L864.473,262.253 C833.752,244.519 779.893,244.519 749.199,262.246 L302.567,520.11 L302.567,520.103 C271.866,537.837 244.93,584.486 244.93,619.939 L244.93,952.663 L250.409,950.365 C248.58,947.727 250.054,945.553 250.307,933.624 C251.636,873.019 262.804,813.032 283.374,756.009 C311.994,675.771 357.909,607.861 417.86,547.774 C469.862,495.653 530.547,457.574 597.385,429.183 C648.124,407.63 701.702,395.266 756.832,389.373 C819.917,382.629 881.911,387.907 943.75,400.66 C1002.576,412.919 1058.876,435.136 1110.221,466.352 C1157.993,494.735 1201.393,529.899 1239.066,570.745 C1278.043,613.067 1310.62,660.861 1335.765,712.611 C1349.3,740.315 1360.334,769.171 1368.735,798.838 L1368.735,619.939 C1368.735,584.486 1341.799,537.837 1311.099,520.103 z" fill="#2AABE2"/>
    <path d="M1104.283,1190.476 L1104.283,1267.958 L1078.697,1267.958 L1078.697,1190.538 C1054.812,1188.757 1031.621,1181.692 1010.799,1169.854 C883.516,1185.805 755.693,1194.231 627.178,1191.141 C535.441,1188.935 444.087,1182.173 355.468,1155.633 C327.391,1147.585 300.389,1136.172 275.051,1121.644 C273.285,1120.606 271.521,1119.563 269.793,1118.466 C237.411,1097.918 237.568,1076.415 270.959,1058.038 C304.318,1039.678 340.705,1028.867 376.846,1017.558 C387.569,1014.202 398.174,1010.429 408.685,1006.455 C412.917,1004.856 417.98,1002.627 417.34,997.072 C416.825,992.601 412.076,991.141 408.286,989.624 C383.384,979.657 356.867,976.404 330.845,971.078 C305.375,965.864 279.185,964.619 256.133,957.854 C317.995,958.808 381.874,960.273 445.614,964.991 C491.049,968.354 536.495,971.902 581.027,982.192 C590.671,984.421 605.049,985.327 605.902,996.317 C606.774,1007.558 592.483,1009.921 583.322,1013.546 C553.304,1025.423 521.718,1032.321 490.96,1041.868 C482.593,1044.182 474.473,1047.307 466.714,1051.199 C450.769,1059.862 450.164,1069.415 464.536,1080.282 C479.441,1091.552 496.915,1097.697 514.393,1103.53 C572.581,1122.951 633.151,1130.161 693.655,1136.739 C789.483,1146.843 885.844,1151.016 982.186,1149.236 C967.66,1136.139 955.604,1120.54 946.593,1103.182 C940.632,1103.199 934.671,1103.216 928.71,1103.183 Q919.821,1103.133 910.934,1103.004 Q893.159,1102.744 875.39,1102.133 Q866.505,1101.824 857.622,1101.416 Q845.777,1100.871 833.936,1100.14 C810.254,1098.672 786.582,1096.617 762.921,1093.841 Q755.97,1093.026 749.02,1092.171 C724.671,1089.533 700.548,1085.112 676.846,1078.944 C668.976,1076.765 661.176,1074.267 653.469,1071.368 C643.74,1067.709 628.987,1064.626 629.209,1053.257 C629.157,1050.631 630.136,1048.088 631.938,1046.176 C633.261,1044.865 634.833,1043.831 636.56,1043.133 C637.809,1042.604 639.092,1042.159 640.4,1041.801 C641.745,1041.422 643.144,1041.095 644.553,1040.788 C647.195,1040.212 649.875,1039.703 652.316,1039.037 C653.13,1038.815 653.918,1038.575 654.669,1038.31 C665.245,1034.571 676.42,1032.534 686.318,1026.873 C687.683,1026.092 689.042,1025.296 690.352,1024.455 Q691.007,1024.034 691.644,1023.598 C692.901,1022.746 694.096,1021.807 695.221,1020.788 C696.314,1019.797 697.296,1018.689 698.148,1017.484 C699.951,1014.912 700.943,1011.858 700.994,1008.716 C701.012,1008.122 701.001,1007.544 700.964,1006.983 C700.895,1005.91 700.716,1004.846 700.432,1003.809 C699.893,1001.882 698.99,1000.077 697.772,998.491 C697.173,997.703 696.516,996.96 695.807,996.269 C694.715,995.212 693.541,994.243 692.295,993.372 C690.59,992.187 688.818,991.1 686.989,990.117 Q685.063,989.062 683.111,988.096 Q679.205,986.162 675.201,984.553 C665.845,980.903 656.193,978.059 646.353,976.053 C642.145,975.139 637.915,974.309 633.68,973.507 C629.446,972.705 625.208,971.931 620.985,971.126 C597.744,966.699 574.432,963.142 551.065,960.291 Q533.539,958.153 515.972,956.524 Q507.19,955.704 498.398,954.999 Q480.814,953.586 463.197,952.589 Q454.39,952.086 445.574,951.674 Q427.945,950.847 410.289,950.345 C386.75,949.661 363.182,949.355 339.598,949.263 L244.93,952.663 L244.93,1135.66 C244.93,1171.114 271.86,1217.763 302.567,1235.483 L749.199,1493.348 C779.893,1511.074 833.765,1511.088 864.473,1493.348 L1303.697,1239.757 L1325.191,1225.153 C1346.471,1206.178 1363.73,1174.982 1367.805,1147.489 C1368.404,1143.574 1368.715,1139.621 1368.735,1135.66 L1368.735,1098.351 L1238.023,1098.351 C1213.036,1150.69 1162.09,1185.783 1104.283,1190.476 z" fill="#6EBE44"/>
    <path d="M860.795,604.103 C860.669,604.53 860.544,604.958 860.417,605.385 C860.544,604.958 860.669,604.53 860.795,604.103 z M393.587,926.053 C393.641,926.105 393.711,926.137 393.785,926.143 C395.427,926.11 397.065,925.968 398.688,925.719 C399.479,925.587 400.26,925.394 401.022,925.143 C402.482,924.673 403.824,923.895 404.959,922.863 C407.398,920.345 408.967,917.112 409.435,913.637 C408.713,914.078 407.948,914.445 407.152,914.732 C406.408,914.999 405.644,915.208 404.868,915.356 C404.11,915.505 403.359,915.602 402.621,915.678 C401.883,915.753 401.157,915.806 400.451,915.864 C398.93,915.921 397.425,916.196 395.983,916.681 C395.304,916.94 394.674,917.312 394.118,917.779 C393.137,918.653 392.39,919.758 391.943,920.994 C391.873,921.188 391.84,921.394 391.844,921.6 C391.846,921.858 391.872,922.114 391.921,922.367 C392.164,923.714 392.737,924.98 393.587,926.053 z" fill="#2AABE2"/>
    <path d="M457.909,917.422 C458.533,917.701 459.183,917.919 459.85,918.072 C461.074,918.349 462.32,918.522 463.574,918.59 C468.907,918.938 474.236,919.081 479.568,919.222 C484.901,919.362 490.238,919.5 495.587,919.837 C499.154,920.062 502.725,920.375 506.306,920.837 C516.627,922.169 527.002,923.149 537.38,924.17 C545.164,924.936 552.949,925.725 560.714,926.704 Q564.597,927.193 568.472,927.752 C569.357,927.884 570.249,927.962 571.144,927.984 C572.582,928.041 574.019,927.857 575.397,927.443 C576.506,927.099 577.532,926.532 578.413,925.777 C578.823,925.421 579.199,925.029 579.536,924.604 C580.549,923.258 581.303,921.736 581.759,920.115 C582.623,917.327 583.003,914.182 583.572,911.361 C583.777,910.283 584.049,909.218 584.387,908.174 C585.781,904.037 585.193,902.022 583.657,901.06 C583.098,900.732 582.483,900.512 581.843,900.411 C581.111,900.288 580.37,900.226 579.628,900.226 C578.068,900.204 576.395,900.335 574.913,900.3 C574.227,900.296 573.544,900.224 572.872,900.084 C570.895,899.629 568.907,899.217 566.913,898.832 C560.932,897.678 554.893,896.77 548.895,895.681 C547.972,895.514 547.117,895.321 546.335,895.097 C545.606,894.895 544.895,894.635 544.207,894.322 C542.124,893.558 540.675,891.653 540.493,889.442 C540.438,888.707 540.471,887.969 540.591,887.242 Q540.684,886.639 540.846,885.98 C541.096,885.001 541.41,884.04 541.786,883.103 C543.958,877.591 545.842,871.964 547.669,866.314 C550.715,856.899 553.604,847.424 557.41,838.327 C559.709,832.83 560.798,828.721 559.591,826.178 C559.099,825.176 558.249,824.394 557.209,823.987 C556.794,823.809 556.365,823.666 555.926,823.56 C554.818,823.306 553.685,823.176 552.549,823.173 C551.031,823.159 549.514,823.243 548.007,823.423 C546.732,823.575 545.447,823.634 544.163,823.6 C543.277,823.576 542.395,823.466 541.53,823.269 C540.831,823.112 540.159,822.854 539.534,822.503 C538.456,821.897 537.65,820.903 537.28,819.723 C537.047,818.98 536.929,818.206 536.927,817.427 C536.937,815.96 537.13,814.499 537.502,813.079 C537.763,811.998 538.109,810.841 538.529,809.613 Q540.42,804.068 542.134,798.462 C545.586,787.26 548.65,775.924 551.97,764.677 L548.698,763.463 Q503.003,835.771 457.329,908.092 C456.579,909.228 455.98,910.458 455.547,911.75 C455.344,912.376 455.237,913.03 455.229,913.688 C455.244,915.374 456.316,916.868 457.909,917.422 z" fill="#6EBE44"/>
    <path d="M835.306,766.51 C838.104,751.497 841.05,736.492 843.489,721.419 C841.05,736.492 838.104,751.496 835.306,766.51 z M859.614,608.093 Q856.265,612.414 853.08,616.842 Q856.27,612.417 859.614,608.093 z" fill="#2AABE2"/>
    <path d="M653.882,941.317 C654.242,941.603 654.63,941.854 655.038,942.065 C656.83,942.911 658.741,943.476 660.705,943.741 C666.76,944.759 672.737,946.196 678.593,948.042 C686.391,950.498 693.929,953.719 701.094,957.657 Q703.793,959.142 706.427,960.772 Q708.303,961.933 710.093,963.144 C713.576,965.478 716.878,968.073 719.969,970.907 C721.931,972.715 723.776,974.648 725.492,976.692 C727.165,978.687 728.688,980.805 730.046,983.027 C732.792,987.509 734.755,992.426 735.852,997.567 C737.028,1003.289 737.272,1009.163 736.577,1014.962 C736.059,1019.447 734.78,1023.81 732.795,1027.865 Q731.841,1029.863 730.718,1031.792 C728.953,1034.782 727.032,1037.677 724.965,1040.465 C722.356,1044.051 719.552,1047.654 716.813,1051.469 C734.186,1053.943 750.227,1056.66 766.371,1058.438 Q776.493,1059.553 786.619,1060.634 C793.37,1061.352 800.123,1062.054 806.88,1062.696 Q815.326,1063.5 823.782,1064.184 Q830.124,1064.692 836.473,1065.11 C849.172,1065.942 861.895,1066.469 874.652,1066.527 C875.876,1066.543 877.099,1066.476 878.314,1066.326 C879.027,1066.235 879.734,1066.091 880.426,1065.895 Q880.922,1065.752 881.385,1065.571 C881.764,1065.422 882.134,1065.249 882.49,1065.051 C884.951,1063.679 886.577,1061.167 887.373,1056.788 C890.198,1041.253 893.176,1025.746 896.215,1010.25 Q898.493,998.628 900.806,987.013 Q903.112,975.396 905.416,963.779 C907.237,954.581 904.813,950.203 896.608,949.461 C895.319,949.352 894.025,949.319 892.733,949.362 C880.45,949.7 868.157,949.774 855.864,949.74 C843.57,949.706 831.274,949.563 818.982,949.467 C818.108,949.474 817.235,949.532 816.368,949.642 C814.856,949.813 813.277,950.052 811.798,950.081 C811.225,950.096 810.651,950.068 810.082,949.996 C809.812,949.96 809.544,949.909 809.28,949.844 C808.77,949.721 808.28,949.522 807.829,949.254 C807.117,948.819 806.537,948.196 806.154,947.455 C805.53,946.348 805.284,945.067 805.453,943.807 C805.591,942.914 805.883,942.052 806.316,941.259 C807.51,939.291 808.909,937.456 810.491,935.785 C810.915,935.288 811.323,934.796 811.695,934.308 C841.395,895.336 870.953,856.251 901.147,817.664 C902.945,815.551 904.416,813.181 905.512,810.632 C905.603,810.38 905.659,810.141 905.725,809.898 C905.871,809.4 905.961,808.886 905.993,808.368 C906.045,807.32 905.754,806.284 905.165,805.417 C904.405,804.366 903.425,803.495 902.292,802.864 C900.664,801.925 898.946,801.153 897.163,800.558 C891.631,798.603 886.136,796.543 880.652,794.45 C873.249,791.625 865.871,788.728 858.492,785.835 Q852.069,783.317 845.632,780.838 C839.018,778.304 833.67,775.293 835.307,766.51 C838.104,751.496 841.051,736.491 843.49,721.419 Q844.71,713.883 845.735,706.322 C848.482,685.835 852.844,665.576 855.961,645.144 C856.585,641.058 857.16,636.964 857.66,632.861 Q858.413,626.706 858.924,620.517 Q859.175,617.421 859.35,614.316 Q859.523,611.21 859.615,608.093 Q856.266,612.414 853.08,616.842 C848.827,622.743 844.767,628.77 840.82,634.87 C830.954,650.121 821.797,665.834 812.11,681.196 Q808.458,686.988 804.819,692.791 Q769.239,749.251 733.768,805.78 Q694.644,868.103 655.489,930.405 C654.706,931.619 653.997,932.88 653.365,934.18 C652.499,935.674 652.163,937.417 652.411,939.126 C652.642,940.001 653.16,940.772 653.882,941.317 z" fill="#6EBE44"/>
    <path d="M410.289,954.396 Q427.944,954.908 445.574,955.725 Q454.39,956.138 463.197,956.64 Q480.813,957.647 498.398,959.05 Q507.19,959.756 515.972,960.575 Q533.539,962.214 551.065,964.342 C574.432,967.193 597.744,970.75 620.985,975.177 C625.208,975.982 629.446,976.756 633.68,977.558 C637.914,978.36 642.145,979.19 646.353,980.104 C656.193,982.11 665.845,984.954 675.201,988.603 Q679.203,990.222 683.111,992.147 Q685.062,993.114 686.989,994.168 C688.818,995.151 690.59,996.238 692.295,997.423 C693.541,998.294 694.715,999.263 695.807,1000.32 C696.516,1001.011 697.173,1001.754 697.772,1002.542 C698.99,1004.128 699.893,1005.933 700.432,1007.86 C700.716,1008.897 700.895,1009.961 700.964,1011.034 C701.001,1011.595 701.012,1012.173 700.994,1012.767 C700.943,1015.909 699.951,1018.963 698.148,1021.535 C697.296,1022.74 696.314,1023.848 695.221,1024.839 C694.096,1025.858 692.901,1026.797 691.644,1027.649 Q691.007,1028.086 690.352,1028.506 C689.042,1029.347 687.683,1030.143 686.318,1030.924 C676.42,1036.585 665.245,1038.622 654.669,1042.361 C653.918,1042.626 653.13,1042.865 652.316,1043.088 C649.875,1043.754 647.195,1044.263 644.553,1044.839 C643.144,1045.146 641.745,1045.473 640.4,1045.852 C639.092,1046.21 637.809,1046.655 636.56,1047.184 C634.833,1047.882 633.261,1048.916 631.938,1050.227 C630.136,1052.139 629.157,1054.681 629.208,1057.308 C628.987,1068.677 643.74,1071.76 653.469,1075.419 C661.176,1078.318 668.976,1080.816 676.846,1082.995 C700.548,1089.163 724.671,1093.584 749.02,1096.222 Q755.968,1097.085 762.921,1097.892 C786.581,1100.668 810.254,1102.723 833.936,1104.191 Q845.777,1104.924 857.622,1105.467 Q866.505,1105.875 875.39,1106.184 Q893.159,1106.803 910.934,1107.055 Q919.821,1107.185 928.71,1107.233 C934.671,1107.267 940.632,1107.25 946.593,1107.232 C922.663,1061.162 922.167,1006.436 945.256,959.939 C968.345,913.443 1012.246,880.763 1063.412,871.984 Q1024.751,807.682 986.251,743.283 C957.199,694.586 928.616,645.609 899.824,596.758 C893.745,586.984 887.663,577.205 881.522,567.33 Q874.897,556.68 868.138,545.812 C866.796,543.653 865.467,541.517 864.114,539.342 C862.643,540.621 861.271,542.009 860.011,543.496 C857.964,545.888 856.106,548.436 854.454,551.116 C853.55,552.562 852.685,554.032 851.826,555.505 C849.249,560.265 846.322,564.826 843.069,569.153 L746.307,719.912 C743.31,725.23 740.481,730.654 737.424,735.932 C736.404,737.691 735.359,739.434 734.273,741.152 Q729.933,748.022 725.583,754.891 C713.981,773.213 702.308,791.573 690.439,810.227 Q677.087,831.213 663.352,852.803 C659.638,847.023 656.074,841.497 652.611,836.125 C646.84,827.171 641.349,818.642 635.919,810.076 Q627.08,796.13 618.22,782.197 C600.512,754.323 582.816,726.442 565.484,698.337 Q564.919,697.422 564.388,696.625 C563.767,695.68 563.092,694.771 562.365,693.905 Q561.884,693.341 561.422,692.893 C560.538,691.86 559.273,691.228 557.916,691.14 C557.316,691.16 556.729,691.324 556.206,691.618 C553.788,693.372 551.819,695.671 550.457,698.329 Q529.939,731.238 509.147,763.977 Q498.767,780.356 488.358,796.717 Q477.953,813.08 467.542,829.44 C465.361,832.869 463.042,836.21 460.686,839.528 C458.33,842.846 455.937,846.141 453.608,849.476 C444.317,868.919 430.951,885.878 420.186,904.414 C416.999,909.899 414.189,910.088 409.65,906.073 C405.456,902.362 400.674,899.315 397.062,896.648 C401.223,887.269 407.864,891.152 412.15,887.67 C412.13,882.136 406.505,880.305 403.145,877.27 C394.899,869.821 392.217,864.522 408.325,863.18 C399.869,853.597 392.545,845.298 384.701,836.409 C377.137,844.986 369.869,853.226 362.721,861.331 C385.933,876.061 354.062,877.163 359.507,888.684 C361.127,889.024 365.685,889.979 371.329,891.161 C367.776,902.82 356.622,906.733 349.632,914.748 C356.55,919.108 363.607,919.415 370.476,920.473 C374.17,921.042 377.641,922.139 377.438,926.954 C377.28,930.715 376.587,934.079 371.905,934.779 C358.474,936.786 345.058,938.887 329.484,941.282 C335.373,928.567 348.152,935.554 353.977,927.631 C348.636,921.818 340.687,918.296 336.908,910.778 C338.645,904.828 345.726,909.892 349.067,902.209 C346.29,900.235 342.387,897.838 338.96,894.887 C336.891,893.106 333.862,891.06 336.992,887.39 C338.752,885.328 346.562,887.092 342.091,881.366 C336.655,875.031 330.658,869.199 324.173,863.94 C322.237,865.393 320.408,866.982 318.699,868.696 C315.914,872.193 313.095,875.663 310.361,879.2 C309.163,880.75 308.139,882.435 307.036,884.059 C327.07,895.753 300.436,896.754 304.651,908.704 C304.873,908.983 310.079,906.561 313.739,908.698 C313.212,911.048 312.09,913.222 310.48,915.013 C307.227,918.833 302.518,921.431 299.572,925.491 C291.725,925.509 291.741,925.517 295.181,919.084 C295.535,918.368 295.743,917.588 295.793,916.791 C294.153,916.186 292.713,915.139 291.632,913.764 C291.084,913.011 290.687,912.158 290.463,911.253 C290.157,909.884 290.065,908.475 290.188,907.078 L290.198,906.924 C290.256,906.028 290.351,905.122 290.44,904.218 L290.464,903.959 C290.648,902.455 290.674,900.937 290.543,899.428 C290.507,899.072 290.452,898.718 290.378,898.367 L290.377,898.367 C290.326,898.144 290.239,897.932 290.169,897.714 C290.101,897.501 290.053,897.282 289.966,897.076 C289.933,896.998 289.879,896.927 289.843,896.85 L289.843,896.849 C289.692,896.506 289.513,896.176 289.307,895.863 L289.307,895.862 L289.307,895.864 L289.352,895.991 L290.093,898.132 L290.093,898.131 L280.912,890.53 L276.322,886.729 L276.137,886.974 Q274.17,889.589 272.204,892.204 L272.203,892.204 L272.203,892.205 C271.67,892.542 271.174,892.937 270.726,893.381 C270.493,893.633 270.279,893.9 270.083,894.182 C269.944,894.364 269.772,894.532 269.652,894.722 C269.079,895.654 268.681,896.683 268.478,897.759 C268.267,898.878 268.161,900.014 268.161,901.152 L268.158,901.23 C268.151,901.822 268.175,902.429 268.188,903.031 C268.202,903.632 268.205,904.228 268.218,904.832 C268.231,905.435 268.239,906.037 268.231,906.634 C268.232,907.804 268.125,908.971 267.912,910.121 C267.716,911.167 267.349,912.174 266.826,913.102 C266.456,913.744 266,914.333 265.471,914.854 C264.518,915.767 263.405,916.498 262.187,917.009 C261.229,917.431 261.604,918.082 262.432,918.659 C263.331,919.255 264.34,919.666 265.4,919.867 C269.783,920.523 270.039,921.911 269.086,923.539 C268.876,923.887 268.645,924.222 268.393,924.54 C267.865,925.222 267.238,925.926 266.697,926.621 C265.998,927.479 265.2,928.252 264.32,928.923 C263.881,929.272 263.432,929.611 262.982,929.952 C262.071,930.615 261.206,931.338 260.393,932.118 C259.097,933.344 258.215,934.943 257.872,936.694 C258.833,937.362 259.916,937.837 261.058,938.092 C261.445,938.188 261.839,938.269 262.238,938.34 C263.437,938.552 264.683,938.671 265.901,938.822 C266.714,938.923 267.514,939.038 268.28,939.205 C271.148,939.543 273.492,941.652 274.13,944.468 L251.087,954.254 L250.473,954.514 C250.449,954.481 250.432,954.449 250.409,954.416 L244.93,956.714 L339.598,953.314 C363.182,953.406 386.75,953.712 410.289,954.396 z M859.633,612.1 L860.417,609.436 C860.544,609.009 860.669,608.581 860.795,608.153 C860.98,608.294 861.25,608.49 861.472,608.655 C861.582,608.737 861.681,608.811 861.75,608.867 C861.82,608.922 861.861,608.959 861.856,608.966 C861.705,609.198 861.537,609.421 861.373,609.647 C861.21,609.872 861.051,610.101 860.89,610.328 C860.47,610.918 860.061,611.515 859.633,612.1 L859.623,612.132 L859.615,612.124 z M653.365,938.231 C653.997,936.931 654.706,935.67 655.489,934.456 Q694.676,872.174 733.768,809.831 Q769.25,753.309 804.819,696.842 Q808.47,691.048 812.11,685.247 C821.797,669.885 830.953,654.172 840.82,638.921 C844.766,632.821 848.827,626.794 853.08,620.893 Q856.27,616.468 859.614,612.144 Q859.525,615.261 859.35,618.367 Q859.175,621.473 858.924,624.568 Q858.424,630.758 857.66,636.912 C857.159,641.015 856.585,645.109 855.961,649.195 C852.843,669.627 848.481,689.886 845.735,710.373 Q844.722,717.935 843.489,725.47 C841.05,740.542 838.104,755.548 835.306,770.561 C833.669,779.344 839.018,782.355 845.632,784.889 Q852.072,787.357 858.491,789.886 C865.87,792.779 873.249,795.676 880.652,798.501 C886.136,800.594 891.631,802.654 897.163,804.609 C898.946,805.204 900.664,805.977 902.292,806.915 C903.424,807.546 904.405,808.417 905.165,809.468 C905.754,810.335 906.044,811.371 905.992,812.419 C905.96,812.937 905.87,813.451 905.725,813.949 C905.659,814.192 905.602,814.431 905.511,814.683 C904.416,817.232 902.945,819.603 901.146,821.715 C870.953,860.302 841.395,899.388 811.695,938.359 C811.323,938.847 810.915,939.339 810.491,939.836 C808.909,941.507 807.509,943.342 806.316,945.31 C805.882,946.103 805.59,946.965 805.453,947.858 C805.284,949.118 805.53,950.399 806.154,951.506 C806.537,952.248 807.116,952.87 807.829,953.305 C808.28,953.573 808.769,953.772 809.28,953.895 C809.544,953.96 809.812,954.011 810.082,954.047 C810.651,954.119 811.224,954.147 811.797,954.132 C813.276,954.103 814.856,953.864 816.368,953.693 C817.235,953.583 818.108,953.525 818.981,953.518 C831.274,953.614 843.57,953.757 855.864,953.791 C868.157,953.825 880.449,953.751 892.733,953.413 C894.025,953.37 895.319,953.403 896.607,953.512 C904.812,954.254 907.236,958.632 905.416,967.83 Q903.117,979.448 900.805,991.064 Q898.499,1002.681 896.215,1014.301 C893.176,1029.797 890.197,1045.304 887.373,1060.839 C886.577,1065.218 884.951,1067.73 882.49,1069.102 C882.133,1069.3 881.764,1069.473 881.384,1069.622 Q880.922,1069.804 880.426,1069.946 C879.733,1070.142 879.027,1070.286 878.313,1070.377 C877.099,1070.527 875.876,1070.594 874.652,1070.578 C861.894,1070.52 849.172,1069.993 836.473,1069.161 Q830.123,1068.746 823.782,1068.235 Q815.325,1067.558 806.879,1066.747 C800.122,1066.105 793.37,1065.403 786.619,1064.685 Q776.493,1063.608 766.371,1062.489 C750.226,1060.711 734.186,1057.994 716.813,1055.52 C719.552,1051.705 722.356,1048.102 724.965,1044.516 C727.032,1041.728 728.953,1038.833 730.718,1035.843 Q731.836,1033.909 732.795,1031.916 C734.779,1027.861 736.058,1023.498 736.576,1019.013 C737.272,1013.214 737.027,1007.34 735.852,1001.618 C734.755,996.477 732.791,991.561 730.046,987.078 C728.687,984.856 727.165,982.738 725.491,980.743 C723.775,978.699 721.931,976.766 719.968,974.958 C716.877,972.124 713.576,969.529 710.093,967.195 Q708.303,965.984 706.426,964.823 Q703.793,963.193 701.094,961.708 C693.928,957.77 686.391,954.549 678.592,952.093 C672.736,950.247 666.759,948.81 660.704,947.792 C658.741,947.527 656.83,946.962 655.038,946.116 C654.629,945.905 654.242,945.654 653.881,945.368 C653.16,944.823 652.642,944.051 652.411,943.177 C652.162,941.468 652.499,939.725 653.365,938.231 z M455.547,915.801 C455.98,914.509 456.579,913.279 457.329,912.142 Q502.968,839.8 548.698,767.514 Q550.333,768.121 551.97,768.728 C548.649,779.975 545.586,791.31 542.134,802.513 Q540.408,808.114 538.528,813.663 C538.109,814.891 537.763,816.048 537.502,817.13 C537.13,818.55 536.937,820.01 536.927,821.478 C536.928,822.257 537.047,823.031 537.28,823.774 C537.65,824.954 538.456,825.948 539.534,826.554 C540.159,826.905 540.831,827.163 541.53,827.32 C542.395,827.517 543.277,827.627 544.163,827.65 C545.447,827.685 546.732,827.626 548.007,827.473 C549.514,827.294 551.031,827.21 552.549,827.223 C553.685,827.227 554.818,827.357 555.926,827.61 C556.365,827.716 556.794,827.859 557.209,828.038 C558.249,828.445 559.099,829.227 559.591,830.229 C560.797,832.772 559.709,836.881 557.409,842.377 C553.604,851.474 550.715,860.95 547.669,870.365 C545.842,876.014 543.958,881.642 541.786,887.153 C541.41,888.091 541.096,889.052 540.846,890.031 Q540.684,890.69 540.591,891.293 C540.471,892.019 540.438,892.758 540.493,893.492 C540.674,895.704 542.124,897.608 544.207,898.372 C544.895,898.686 545.606,898.945 546.335,899.148 C547.117,899.372 547.972,899.564 548.895,899.732 C554.893,900.821 560.932,901.729 566.913,902.883 C568.907,903.268 570.894,903.68 572.872,904.135 C573.544,904.274 574.227,904.347 574.913,904.351 C576.395,904.386 578.068,904.255 579.628,904.276 C580.37,904.277 581.111,904.339 581.843,904.461 C582.483,904.562 583.098,904.783 583.657,905.111 C585.193,906.073 585.781,908.087 584.387,912.225 C584.049,913.269 583.777,914.334 583.572,915.412 C583.003,918.233 582.623,921.378 581.759,924.166 C581.303,925.787 580.549,927.309 579.536,928.654 C579.199,929.079 578.823,929.472 578.413,929.827 C577.532,930.582 576.505,931.149 575.397,931.493 C574.019,931.908 572.582,932.091 571.144,932.035 C570.249,932.012 569.357,931.935 568.472,931.803 Q564.597,931.241 560.714,930.754 C552.949,929.776 545.164,928.986 537.38,928.22 C527.002,927.199 516.627,926.22 506.306,924.888 C502.725,924.426 499.153,924.112 495.587,923.888 C490.237,923.551 484.901,923.413 479.568,923.272 C474.236,923.132 468.907,922.989 463.574,922.641 C462.32,922.573 461.074,922.4 459.849,922.123 C459.183,921.97 458.533,921.752 457.908,921.473 C456.316,920.919 455.244,919.424 455.229,917.739 C455.237,917.08 455.344,916.427 455.547,915.801 z M391.943,925.044 C392.39,923.809 393.137,922.704 394.118,921.83 C394.674,921.362 395.304,920.991 395.983,920.732 C397.426,920.247 398.93,919.972 400.451,919.915 C401.157,919.856 401.883,919.804 402.621,919.729 C403.359,919.653 404.11,919.556 404.868,919.407 C405.644,919.259 406.408,919.05 407.152,918.783 C407.948,918.495 408.713,918.129 409.436,917.688 C408.967,921.163 407.398,924.396 404.959,926.914 C403.824,927.946 402.482,928.724 401.022,929.194 C400.26,929.445 399.48,929.637 398.688,929.77 C397.065,930.019 395.427,930.161 393.785,930.194 C393.711,930.188 393.641,930.156 393.588,930.104 C392.737,929.031 392.165,927.765 391.921,926.417 C391.872,926.165 391.846,925.908 391.844,925.651 C391.84,925.445 391.873,925.239 391.943,925.044 z" fill="#32803E"/>
    <path d="M1351.423,971.854 C1356.438,978.57 1362.251,984.651 1368.735,989.963 L1368.735,964.755 C1362.993,968.6 1355.948,966.49 1351.423,971.854 z M1368.735,1024.323 L1368.735,1004.352 C1363.636,1004.55 1358.571,1005.291 1353.628,1006.561 C1357.917,1013.079 1362.99,1019.044 1368.735,1024.323 z M1239.066,570.745 C1201.393,529.899 1157.993,494.734 1110.221,466.352 C1058.876,435.136 1002.576,412.919 943.75,400.659 C881.911,387.907 819.916,382.628 756.832,389.372 C701.702,395.266 648.124,407.63 597.385,429.183 C530.547,457.574 469.862,495.653 417.86,547.774 C357.909,607.861 311.994,675.771 283.374,756.009 C262.804,813.032 251.636,873.019 250.307,933.624 C250.054,945.553 248.579,947.727 250.409,950.365 C250.432,950.398 250.449,950.43 250.473,950.463 L251.087,950.203 L274.13,940.417 C273.492,937.601 271.148,935.492 268.28,935.154 C267.514,934.987 266.714,934.872 265.901,934.771 C264.683,934.62 263.437,934.501 262.238,934.289 C261.839,934.218 261.445,934.137 261.058,934.041 C259.915,933.786 258.833,933.311 257.872,932.643 C258.215,930.892 259.097,929.293 260.393,928.067 C261.206,927.287 262.071,926.564 262.982,925.901 C263.431,925.56 263.881,925.221 264.319,924.872 C265.2,924.201 265.998,923.428 266.697,922.57 C267.238,921.875 267.865,921.171 268.393,920.489 C268.645,920.171 268.876,919.836 269.086,919.488 C270.039,917.86 269.783,916.472 265.4,915.816 C264.34,915.615 263.331,915.204 262.432,914.607 C261.604,914.031 261.229,913.38 262.187,912.958 C263.405,912.447 264.518,911.716 265.471,910.803 C266,910.282 266.456,909.693 266.826,909.051 C267.349,908.123 267.715,907.116 267.912,906.07 C268.125,904.92 268.232,903.753 268.231,902.583 C268.239,901.986 268.231,901.384 268.218,900.781 C268.205,900.177 268.202,899.581 268.188,898.98 C268.175,898.378 268.151,897.771 268.158,897.179 L268.161,897.101 C268.161,895.963 268.267,894.827 268.478,893.708 C268.681,892.632 269.079,891.603 269.652,890.67 C269.771,890.481 269.944,890.313 270.083,890.131 C270.278,889.849 270.493,889.582 270.725,889.33 C271.174,888.886 271.669,888.491 272.203,888.153 L272.204,888.153 Q274.17,885.539 276.137,882.924 L276.322,882.678 C276.232,882.678 276.167,882.699 276.081,882.702 C272.728,870.867 276.557,859.4 278.872,848.161 C292.249,781.436 318.981,718.105 357.461,661.977 C399.312,601.156 451.37,549.83 513.931,511.249 C565.042,479.727 620.246,456.262 680.189,443.899 C719.864,435.716 759.775,430.115 799.616,430.445 C889.937,431.193 976.199,451.458 1055.365,496.772 C1092.593,517.675 1127.44,542.56 1159.293,570.99 C1247.647,650.849 1298.287,749.865 1321.188,865.064 C1325.54,886.952 1324.074,909.517 1330.122,931.105 C1330.892,930.889 1331.555,930.395 1331.98,929.718 C1332.74,928.74 1333.422,927.46 1334.196,926.538 C1334.6,925.97 1335.195,925.565 1335.871,925.396 C1336.922,925.228 1338.215,926.008 1339.973,928.599 C1348.151,940.653 1358.499,950.9 1368.735,960.846 L1368.735,798.838 C1360.334,769.171 1349.3,740.315 1335.765,712.611 C1310.62,660.861 1278.043,613.067 1239.066,570.745 z" fill="#FBBF12"/>
    <path d="M693.655,1136.739 C633.152,1130.161 572.581,1122.951 514.393,1103.53 C496.915,1097.697 479.441,1091.552 464.536,1080.282 C450.164,1069.415 450.769,1059.863 466.714,1051.199 C474.473,1047.307 482.594,1044.182 490.96,1041.868 C521.718,1032.321 553.304,1025.423 583.323,1013.546 C592.483,1009.921 606.774,1007.558 605.902,996.317 C605.049,985.327 590.671,984.421 581.027,982.192 C536.495,971.902 491.049,968.354 445.614,964.991 C381.874,960.274 317.995,958.808 256.133,957.854 C279.185,964.619 305.375,965.864 330.845,971.078 C356.867,976.404 383.384,979.658 408.286,989.624 C412.076,991.141 416.825,992.601 417.34,997.072 C417.98,1002.627 412.917,1004.856 408.685,1006.456 C398.174,1010.429 387.569,1014.202 376.846,1017.558 C340.705,1028.867 304.318,1039.678 270.959,1058.038 C237.568,1076.415 237.411,1097.918 269.793,1118.466 C271.521,1119.563 273.285,1120.606 275.051,1121.644 C300.389,1136.172 327.391,1147.585 355.468,1155.634 C444.087,1182.173 535.441,1188.935 627.178,1191.141 C755.693,1194.232 883.516,1185.805 1010.799,1169.854 C1000.545,1164.035 990.951,1157.122 982.186,1149.236 C885.844,1151.016 789.483,1146.843 693.655,1136.739 z M565.062,989.391 C569.478,990.778 574.032,992.441 573.972,998.276 C573.921,1003.252 569.948,1005.254 566.189,1006.652 C556.787,1010.148 547.5,1014.392 535.013,1014.317 C545.005,1001.143 536.061,996.511 527.036,991.994 C514.365,985.652 500.61,982.388 487.182,977.864 C513.651,978.507 539.728,981.438 565.062,989.391 z M407.719,1151.113 C374.355,1143.361 341.382,1134.005 310.88,1117.978 C297.94,1111.179 281.61,1104.576 282.031,1087.341 C282.48,1068.97 300.485,1064.771 314.021,1058.219 C318.343,1056.127 323.126,1053.589 328.423,1054.533 C329.236,1059.015 325.688,1059.982 323.729,1061.94 C310.633,1075.026 310.585,1084.408 324.98,1096.56 C343.681,1112.347 366.546,1120.324 389.104,1128.53 C440.959,1147.394 494.486,1159.884 548.499,1170.153 C500.493,1170.622 453.939,1161.854 407.719,1151.113 z" fill="#016699"/>
    <path d="M740.527,705.171 C735.218,696.329 728.999,688.066 721.97,680.519 Q717.712,675.933 713.049,671.659 Q710.721,669.526 708.297,667.476 Q703.451,663.38 698.243,659.644 C682.288,648.195 664.368,639.77 645.372,634.79 Q638.923,633.105 632.27,631.959 Q625.622,630.818 618.8,630.246 Q611.982,629.68 605.019,629.715 C593.085,629.793 581.199,631.224 569.588,633.982 C491.255,652.512 442.937,714.901 443.435,794.532 Q443.487,802.77 444.241,811.245 Q444.62,815.48 445.177,819.769 Q445.282,820.575 445.372,821.398 C445.616,823.591 445.805,825.862 446.088,828.136 C446.229,829.273 446.394,830.411 446.6,831.541 C447.064,834.378 447.947,837.13 449.22,839.707 C449.757,840.753 450.385,841.751 451.094,842.689 C451.845,843.678 452.686,844.594 453.608,845.425 C455.937,842.09 458.33,838.796 460.686,835.478 C463.042,832.16 465.361,828.818 467.542,825.389 Q477.949,809.027 488.358,792.666 Q498.763,776.303 509.147,759.926 Q529.907,727.168 550.457,694.278 C551.819,691.621 553.788,689.321 556.205,687.568 C556.729,687.273 557.315,687.11 557.916,687.09 C559.273,687.177 560.538,687.809 561.422,688.843 Q561.885,689.29 562.365,689.854 C563.091,690.721 563.767,691.629 564.388,692.574 Q564.92,693.371 565.484,694.286 C582.816,722.391 600.511,750.273 618.22,778.146 Q627.074,792.083 635.919,806.025 C641.349,814.592 646.84,823.12 652.611,832.074 C656.074,837.447 659.638,842.972 663.351,848.752 Q677.114,827.109 690.439,806.177 C702.308,787.523 713.981,769.162 725.583,750.84 Q729.934,743.969 734.273,737.102 C735.359,735.384 736.403,733.641 737.423,731.881 C740.481,726.603 743.309,721.18 746.301,715.864 Q743.667,710.417 740.527,705.171 z" fill="#F3931F"/>
    <path d="M861.373,605.596 C861.537,605.37 861.705,605.148 861.856,604.915 C861.861,604.908 861.82,604.871 861.75,604.816 C861.681,604.76 861.582,604.686 861.472,604.604 C861.25,604.439 860.98,604.243 860.795,604.103 C860.669,604.53 860.544,604.958 860.417,605.385 Q860.026,606.717 859.633,608.049 C860.061,607.465 860.47,606.867 860.89,606.277 C861.051,606.05 861.21,605.821 861.373,605.596 z M859.633,608.049 L859.615,608.073 L859.623,608.082 z" fill="#5C7D48"/>
    <path d="M324.98,1096.559 C310.584,1084.408 310.632,1075.026 323.728,1061.94 C325.688,1059.982 329.236,1059.015 328.423,1054.533 C323.126,1053.589 318.342,1056.127 314.021,1058.219 C300.485,1064.771 282.48,1068.97 282.031,1087.341 C281.61,1104.576 297.94,1111.18 310.879,1117.978 C341.382,1134.005 374.355,1143.361 407.718,1151.113 C453.939,1161.854 500.493,1170.622 548.499,1170.153 C494.486,1159.883 440.959,1147.394 389.104,1128.53 C366.546,1120.324 343.681,1112.347 324.98,1096.559 z M535.013,1014.317 C547.5,1014.392 556.788,1010.148 566.189,1006.652 C569.948,1005.254 573.921,1003.251 573.972,998.276 C574.032,992.441 569.478,990.778 565.062,989.391 C539.728,981.437 513.651,978.507 487.182,977.863 C500.609,982.388 514.365,985.652 527.035,991.994 C536.061,996.511 545.005,1001.143 535.013,1014.317 z" fill="#9CD7F2"/>
    <path d="M1104.283,1267.958 L1104.283,1190.476 C1099.926,1190.826 1095.534,1191.055 1091.086,1191.055 C1086.913,1191.055 1082.791,1190.846 1078.697,1190.538 L1078.697,1267.958 z" fill="#000000"/>
    <path d="M1342.982,464.881 L896.357,207.024 C846.144,178.039 767.501,178.053 717.316,207.024 L270.683,464.881 L270.683,464.888 C220.485,493.872 181.163,561.978 181.163,619.94 L181.163,1135.66 C181.163,1193.622 220.485,1261.728 270.683,1290.712 L717.316,1548.569 C741.839,1562.734 773.154,1569.955 804.631,1570.278 C805.366,1570.286 806.101,1570.309 806.836,1570.309 C810.43,1570.309 814.024,1570.205 817.609,1570.024 C846.141,1568.588 874.062,1561.448 896.357,1548.576 L1342.982,1290.712 C1393.181,1261.728 1432.503,1193.622 1432.503,1135.66 L1432.503,619.94 C1432.503,561.978 1393.181,493.872 1342.982,464.881 z M1368.735,1024.323 C1362.99,1019.044 1357.917,1013.079 1353.628,1006.561 C1358.571,1005.291 1363.636,1004.55 1368.735,1004.352 z M1368.735,989.963 C1362.251,984.651 1356.438,978.57 1351.423,971.854 C1355.948,966.49 1362.993,968.6 1368.735,964.755 z M1368.735,798.838 L1368.735,960.846 C1358.499,950.9 1348.151,940.653 1339.973,928.599 C1338.215,926.008 1336.922,925.228 1335.871,925.396 C1335.194,925.565 1334.6,925.97 1334.196,926.538 C1333.422,927.46 1332.74,928.74 1331.98,929.718 C1331.554,930.395 1330.892,930.89 1330.122,931.106 C1323.474,944.038 1311.437,952.417 1302.294,963.388 C1322.91,972.991 1322.912,972.994 1305.092,989.164 C1300.99,992.887 1296.861,996.58 1292.572,1000.443 C1296.937,1003.737 1301.523,1003.948 1305.983,1004.722 C1309.786,1005.383 1314.042,1003.628 1318.198,1007.226 C1315.182,1014.438 1309.115,1019.148 1303.797,1024.38 C1301.711,1026.432 1299.466,1028.702 1295.981,1026.13 C1278.028,1012.879 1259.354,1000.4 1246.515,978.918 C1259.651,976.721 1272.097,978.581 1283.877,972.822 C1272.144,961.702 1260.762,950.904 1249.366,940.119 C1242.437,933.562 1242.405,929.462 1253.09,928.03 C1259.004,927.238 1264.764,925.287 1274.082,923.003 C1252.965,906.112 1237.855,887.175 1223.165,867.88 L1223.165,867.879 Q1221.494,870.678 1219.717,873.385 Q1217.941,876.092 1216.065,878.714 Q1214.19,881.338 1212.224,883.883 C1208.293,888.976 1204.102,893.848 1199.723,898.565 Q1197.534,900.923 1195.284,903.232 L1195.253,903.262 C1252.405,950.884 1270.01,1031.187 1238.023,1098.351 L1368.735,1098.351 L1368.735,1135.661 C1368.715,1139.621 1368.404,1143.574 1367.805,1147.489 C1363.73,1174.982 1346.471,1206.178 1325.191,1225.153 C1320.857,1229.066 1316.135,1232.528 1311.099,1235.484 L1303.697,1239.757 L864.473,1493.347 C833.765,1511.088 779.893,1511.074 749.199,1493.347 L302.567,1235.483 C271.86,1217.764 244.93,1171.114 244.93,1135.66 L244.93,619.94 C244.93,584.486 271.866,537.837 302.567,520.103 L302.567,520.11 L749.199,262.246 C779.893,244.519 833.752,244.519 864.473,262.253 L1311.099,520.103 C1341.799,537.837 1368.735,584.486 1368.735,619.94 z" fill="#32803E"/>
    <path d="M1104.241,866.117 C1099.898,865.769 1095.52,865.542 1091.086,865.542 C1081.81,865.553 1072.552,866.353 1063.412,867.933 C1012.266,876.747 968.392,909.431 945.309,955.915 C922.226,1002.399 922.703,1057.107 946.593,1103.182 C961.089,1131.153 983.394,1154.314 1010.799,1169.854 C1031.621,1181.692 1054.812,1188.757 1078.697,1190.538 C1082.791,1190.846 1086.913,1191.055 1091.086,1191.055 C1095.534,1191.055 1099.926,1190.826 1104.283,1190.476 C1188.832,1183.696 1253.986,1113.098 1253.975,1028.278 C1253.964,943.457 1188.792,872.876 1104.241,866.117 z M1081.187,976.662 C1073.559,979.882 1073.397,986.661 1073.356,993.398 C1073.284,1004.922 1073.374,1016.451 1073.332,1027.975 C1073.309,1034.694 1073.251,1041.412 1073.062,1048.127 C1072.398,1071.722 1061.472,1084.809 1038.236,1089.744 C1021.75,1093.244 1005.256,1092.925 989.466,1086.057 C979.587,1081.76 971.831,1075.1 968.495,1064.472 C965.823,1055.96 966.41,1047.819 974.098,1041.981 C982.026,1035.962 990.937,1034.684 999.713,1039.826 C1008.106,1044.742 1009.323,1052.596 1006.958,1061.517 C1005.577,1066.727 1003.965,1072.422 1009.445,1076.308 C1014.93,1080.197 1020.786,1078.201 1025.968,1075.496 C1033.624,1071.693 1038.431,1063.847 1038.342,1055.299 L1038.798,1021.726 C1038.798,1012.189 1038.845,1002.651 1038.782,993.114 C1038.739,986.413 1038.935,979.531 1030.99,976.51 C1028.96,975.777 1027.829,973.612 1028.386,971.527 C1028.792,968.173 1031.461,968.022 1033.931,968.013 C1037.755,967.998 1041.577,968.016 1045.4,968.01 Q1062.057,967.984 1078.713,968.004 C1081.391,968.01 1083.642,968.863 1084.16,971.91 C1084.576,974.03 1083.276,976.109 1081.187,976.662 z M1174.236,967.58 C1175.835,968.053 1177.433,968.567 1179.028,969.167 C1186.178,971.855 1192.593,975.735 1195.519,982.68 C1196.074,983.963 1196.493,985.301 1196.769,986.671 C1196.956,987.631 1197.088,988.576 1197.178,989.504 C1197.882,996.87 1195.319,1003.022 1186.317,1004.547 C1185.643,1004.661 1184.987,1004.744 1184.343,1004.806 C1175.634,1005.648 1169.767,1001.698 1169.516,991.693 C1169.346,984.95 1167.034,980.742 1160.341,978.89 C1152.266,976.655 1144.495,976.706 1138.191,982.683 C1133.482,987.148 1133.915,992.675 1138.954,996.716 C1143.542,1000.252 1148.441,1003.366 1153.591,1006.019 C1159.61,1009.26 1165.671,1012.434 1171.568,1015.872 C1177.147,1019.059 1182.497,1022.632 1187.578,1026.564 C1193.415,1030.945 1197.844,1036.937 1200.322,1043.802 C1202.536,1050.227 1202.402,1057.228 1199.945,1063.563 C1197.426,1069.797 1193.318,1075.262 1188.03,1079.415 C1176.57,1088.804 1162.937,1091.646 1148.458,1091.652 C1128.61,1091.29 1110.721,1086.21 1098.152,1069.499 C1092.714,1062.864 1091.803,1053.608 1095.844,1046.04 C1099.104,1039.604 1104.987,1036.742 1112.175,1036.51 C1126.917,1036.034 1134.513,1047.672 1127.158,1060.421 C1124.431,1065.148 1123.533,1068.358 1127.799,1072.218 C1136.622,1080.202 1158.265,1077.893 1164.94,1067.934 C1169.722,1060.802 1169.636,1053.647 1162.587,1048.068 C1157.592,1044.395 1152.352,1041.069 1146.902,1038.113 C1137.275,1032.45 1127.268,1027.382 1117.943,1021.268 C1107.831,1014.637 1099.952,1005.944 1102.256,992.553 C1104.259,980.915 1111.638,974.301 1121.312,970.44 C1123.392,969.614 1125.519,968.914 1127.682,968.341 C1143.195,964.205 1158.812,963.023 1174.236,967.58 z" fill="#F6DE18"/>
    <path d="M1121.312,970.44 C1111.638,974.301 1104.259,980.915 1102.256,992.554 C1099.952,1005.944 1107.831,1014.637 1117.943,1021.268 C1127.268,1027.382 1137.275,1032.45 1146.902,1038.113 C1152.351,1041.069 1157.592,1044.395 1162.587,1048.068 C1169.636,1053.647 1169.721,1060.802 1164.94,1067.935 C1158.265,1077.893 1136.622,1080.202 1127.799,1072.218 C1123.533,1068.359 1124.431,1065.148 1127.158,1060.421 C1134.513,1047.673 1126.917,1036.034 1112.175,1036.51 C1104.987,1036.742 1099.103,1039.604 1095.843,1046.04 C1091.803,1053.608 1092.714,1062.864 1098.152,1069.499 C1110.721,1086.21 1128.61,1091.29 1148.458,1091.652 C1162.937,1091.646 1176.57,1088.804 1188.03,1079.415 C1193.317,1075.262 1197.425,1069.797 1199.945,1063.563 C1202.402,1057.228 1202.535,1050.227 1200.322,1043.802 C1197.844,1036.937 1193.414,1030.945 1187.577,1026.564 C1182.496,1022.632 1177.147,1019.059 1171.568,1015.872 C1165.671,1012.434 1159.61,1009.26 1153.59,1006.019 C1148.441,1003.367 1143.542,1000.253 1138.954,996.716 C1133.915,992.675 1133.481,987.148 1138.191,982.683 C1144.495,976.706 1152.266,976.655 1160.341,978.89 C1167.034,980.743 1169.345,984.95 1169.515,991.693 C1169.767,1001.699 1175.634,1005.648 1184.343,1004.806 C1184.986,1004.744 1185.643,1004.662 1186.317,1004.547 C1195.319,1003.022 1197.882,996.87 1197.178,989.504 C1197.088,988.576 1196.956,987.631 1196.769,986.672 C1196.493,985.301 1196.074,983.963 1195.519,982.68 C1192.593,975.735 1186.178,971.855 1179.028,969.167 C1177.433,968.567 1175.835,968.053 1174.236,967.58 C1158.812,963.023 1143.195,964.205 1127.682,968.341 C1125.519,968.914 1123.391,969.615 1121.312,970.44 z M1078.714,968.004 Q1062.057,967.968 1045.4,968.011 C1041.577,968.017 1037.755,967.999 1033.931,968.013 C1031.461,968.022 1028.792,968.174 1028.386,971.527 C1027.829,973.612 1028.96,975.777 1030.99,976.51 C1038.935,979.531 1038.739,986.414 1038.783,993.115 C1038.845,1002.651 1038.798,1012.189 1038.798,1021.726 L1038.342,1055.299 C1038.431,1063.847 1033.624,1071.693 1025.968,1075.496 C1020.786,1078.201 1014.93,1080.197 1009.445,1076.308 C1003.965,1072.422 1005.577,1066.727 1006.958,1061.517 C1009.323,1052.596 1008.106,1044.743 999.713,1039.826 C990.937,1034.684 982.026,1035.962 974.098,1041.982 C966.41,1047.819 965.823,1055.961 968.495,1064.472 C971.831,1075.1 979.587,1081.761 989.466,1086.057 C1005.256,1092.925 1021.75,1093.245 1038.236,1089.744 C1061.472,1084.809 1072.398,1071.722 1073.062,1048.127 C1073.251,1041.413 1073.309,1034.694 1073.332,1027.975 C1073.374,1016.451 1073.284,1004.922 1073.356,993.398 C1073.397,986.661 1073.559,979.882 1081.187,976.662 C1083.276,976.109 1084.576,974.03 1084.161,971.91 C1083.642,968.863 1081.391,968.01 1078.714,968.004 z" fill="#000000"/>
    <path d="M8243.165,800.475 C8243.165,882.759 8242.927,965.045 8243.275,1047.328 C8243.428,1083.51 8246.92,1117.72 8289.87,1131.774 C8316.997,1140.65 8315.114,1163.167 8307.419,1184.064 C8286.96,1239.618 8209.381,1274.714 8155.249,1251.41 C8136.336,1242.698 8114.853,1241.364 8095.008,1247.669 C7987.936,1277 7899.325,1245.098 7834.247,1157.479 C7776.402,1079.598 7762.843,992.778 7812.936,906.158 C7866.552,813.449 7947.826,762.907 8058.571,779.132 C8105.023,785.937 8113.852,768.585 8109.919,729.325 C8105.176,681.951 8122.638,631.192 8081.633,589.926 C8064.718,572.903 8081.733,557.331 8095.19,546.085 C8122.057,523.246 8152.612,505.143 8185.549,492.549 C8229.603,476.061 8243.881,484.534 8244.712,532.417 C8246.264,621.744 8245.157,711.116 8245.157,800.469 z M8109.188,1000.52 L8107.027,1000.441 C8107.027,982.964 8107.784,965.446 8106.848,948.019 C8105.463,922.211 8122.081,890.769 8083.483,876.181 C8045.257,861.734 8008.152,857.113 7974.122,885.118 C7902.735,943.867 7917.263,1107.072 7997.746,1154.285 C8045.948,1182.562 8095.249,1160.778 8103.488,1104.967 C8108.561,1070.614 8107.497,1035.366 8109.188,1000.52 z M3948.898,1264.468 C3843.919,1263.158 3777.396,1226.482 3729.501,1156.303 C3697.206,1108.981 3725.874,1010.902 3779.009,989.55 C3809.404,977.336 3810.935,1002.23 3811.11,1020.969 C3811.531,1066.073 3818.331,1108.032 3852.665,1141.479 C3897.02,1184.689 3955.683,1196.177 3989.878,1167.567 C4025.35,1137.89 4028.247,1070.907 3995.219,1022.786 C3966.869,981.478 3927.185,951.998 3886.102,924.673 C3847.717,899.818 3812.071,870.972 3779.756,838.616 C3695.547,752.323 3685.322,657.141 3750.55,569.498 C3820.458,475.564 3942.879,445.257 4041.995,497.751 C4054.701,503.849 4066.48,511.715 4076.98,521.116 C4101.39,545.015 4143.033,565.233 4133.25,603.275 C4122.474,645.184 4074.079,655.302 4037.902,670.127 C4006.155,683.136 3995.347,655.98 3990.8,629.803 C3983.761,589.279 3964.877,561.281 3919.484,559.273 C3855.475,556.441 3818.046,611.188 3846.081,668.651 C3870.713,719.141 3915.398,751.742 3957.952,785.701 C4001.843,820.725 4051.644,848.024 4091.239,888.801 C4163.783,963.51 4189.649,1059.23 4150.887,1138.671 C4106.826,1228.971 4025.904,1261.206 3948.898,1264.468 z M5547.552,1309.583 C5549.559,1340.59 5542.461,1367.909 5566.599,1391.881 C5583.103,1408.272 5565.229,1424.705 5550.981,1434.743 C5501.422,1469.661 5444.264,1468.412 5388.164,1461.688 C5362.029,1458.555 5358.446,1433.857 5377.726,1419.394 C5402.16,1401.065 5400.654,1378.741 5400.815,1354.322 Q5402.3,1128.235 5404.116,902.151 C5404.229,885.083 5409.054,865.886 5391.151,854.04 C5345.074,823.556 5375.617,802.163 5400.417,781.946 C5422.903,763.75 5452.654,757.224 5480.692,764.339 C5530.153,780.756 5577.508,764.364 5625.358,768.595 C5749.018,779.531 5856.542,907.46 5844.33,1028.545 C5831.332,1157.426 5708.334,1260.987 5581.186,1248.891 C5512.864,1242.391 5567.439,1296.409 5547.552,1309.583 z M5549.825,1006.062 C5549.825,1030.476 5550.084,1054.893 5549.753,1079.303 C5549.417,1104.165 5548.109,1130.022 5576.235,1141.919 C5607.56,1155.17 5641.04,1153.853 5665.251,1130.737 C5708.228,1089.705 5712.861,1035.121 5703.195,980.126 C5694.294,929.487 5669.916,887.972 5616.861,871.001 C5577.754,858.492 5551.483,876.68 5550.053,917.133 C5549.008,946.742 5549.848,976.417 5549.824,1006.062 z M7697.334,1033.699 C7697.334,1065.236 7698.168,1096.801 7697.081,1128.3 C7696.145,1155.389 7694.103,1180.702 7728.995,1190.501 C7735.972,1192.455 7741.83,1197.211 7745.175,1203.638 C7748.521,1210.065 7749.056,1217.591 7746.654,1224.427 C7743.907,1238.916 7731.52,1249.59 7716.784,1250.167 C7663.929,1250.907 7611.041,1251.733 7558.209,1250.542 C7531.603,1249.943 7521.702,1231.878 7537.935,1211.963 C7564.239,1179.694 7559.449,1143.532 7560.342,1107.284 Q7562.28,1028.521 7564.934,949.776 C7566.662,896.382 7540.052,862.883 7495.744,863.099 C7453.044,863.307 7434.123,886.49 7434.72,942.74 C7435.407,1007.45 7437.95,1072.149 7440.376,1136.827 C7439.302,1156.298 7445.287,1175.504 7457.232,1190.917 C7488.326,1225.891 7467.227,1238.894 7433.303,1245.894 C7389.833,1253.505 7345.453,1254.393 7301.715,1248.526 C7259.639,1244.213 7251.782,1225.326 7279.66,1194.494 C7293.567,1179.079 7300.563,1158.647 7299.028,1137.942 C7299.559,1078.394 7302.491,1018.866 7304.476,959.331 C7305.75,921.109 7311.334,883.498 7265.068,861.347 C7241.769,850.192 7249.688,825.074 7270.157,815.768 C7320.595,792.838 7370.848,750.232 7428.365,802.638 C7443.623,816.54 7453.785,800.268 7465.103,794.28 C7574.822,736.227 7691.885,804.112 7695.706,928.589 C7696.78,963.594 7695.87,998.661 7695.87,1033.699 z M6469.934,1250.815 C6408.244,1250.815 6346.554,1250.685 6284.865,1250.896 C6266.981,1250.957 6246.728,1252.635 6240.033,1232.317 C6232.829,1210.45 6254.904,1207.23 6268.052,1201.562 C6293.382,1190.64 6300.184,1169.991 6300.119,1146.275 C6299.606,958.777 6298.371,771.28 6297.792,583.782 C6299.26,560.155 6283.931,538.747 6261.091,532.526 C6249.394,528.145 6239.057,519.313 6244.325,504.317 C6248.672,491.942 6261.383,492.381 6271.261,492.345 C6334.695,492.112 6398.133,492.64 6461.566,493.297 C6474.382,491.683 6486.391,499.872 6489.567,512.392 C6490.867,517.613 6490.008,523.137 6487.183,527.716 C6484.358,532.295 6479.807,535.542 6474.558,536.723 C6445.342,546.616 6448.754,570.212 6448.792,592.987 C6449.09,769.97 6450.063,946.958 6448.807,1123.931 C6448.54,1161.661 6462.528,1179.956 6499.688,1181.161 C6520.779,1181.845 6541.931,1183.009 6562.975,1182.106 C6594.13,1180.768 6618.869,1170.986 6617.442,1133.037 C6616.946,1119.871 6620.281,1108.506 6635.021,1104.558 C6648.999,1100.159 6664.188,1105.678 6672.083,1118.023 C6692.68,1144.51 6705.459,1176.228 6708.979,1209.595 C6711.645,1245.683 6682.893,1251.256 6655.008,1251.616 C6593.326,1252.411 6531.626,1251.864 6469.935,1251.864 z M7144.265,1024.145 C7144.265,1046.885 7144.717,1069.636 7144.158,1092.362 C7143.342,1125.579 7149.612,1149.846 7191.677,1152.136 C7220.8,1153.722 7226.675,1175.429 7208.867,1196.769 C7183.067,1230.905 7144.231,1252.774 7101.665,1257.137 C7081.064,1258.801 7060.428,1254.082 7053.104,1233.488 C7037.517,1189.657 7017.493,1205.19 6993.102,1224.884 C6949.097,1261.922 6889.129,1273.707 6834.38,1256.075 C6788.626,1243.033 6756.088,1215.845 6746.015,1168.306 C6735.219,1117.353 6742.84,1070.764 6785.973,1035.061 C6819.245,1008.933 6857.713,990.211 6898.803,980.147 C6920.782,974.042 6943.704,970.912 6965.188,963.53 C6985.609,956.512 7015.366,958.261 7019.071,929.469 C7022.297,904.395 7003.454,888.482 6983.031,875.939 C6959.978,861.781 6936.806,857.518 6915.131,876.953 C6900.636,889.58 6887.52,903.707 6876,919.097 C6865.968,936.554 6844.786,944.2 6825.917,937.176 C6804.054,930.083 6799.176,911.128 6798.337,891.033 C6796.814,862.274 6810.577,834.845 6834.542,818.873 C6895.696,775.208 6961.414,751.805 7037.314,779.158 C7110.995,805.71 7133.93,866.41 7142.891,935.072 C7145.012,964.719 7145.225,994.471 7143.528,1024.145 z M7013.017,1075.132 C7004.431,1061.666 7030.58,1028.883 6989.5,1026.963 C6930.698,1024.215 6867.505,1069.817 6870.07,1113.728 C6872.432,1154.168 6901.229,1165.667 6935.455,1166.179 C6986.918,1166.949 7013.228,1136.072 7013.017,1075.132 z M2639.536,1024.869 C2639.536,1049.367 2639.7,1073.867 2639.494,1098.363 C2639.245,1127.945 2646.894,1149.045 2682.78,1151.21 C2713.785,1153.081 2725.125,1171.662 2704.408,1196.911 C2678.719,1231.162 2639.824,1253.046 2597.214,1257.222 C2576.618,1258.862 2556.22,1253.796 2548.616,1233.386 C2532.565,1190.3 2513.174,1205.407 2488.439,1225.297 C2444.243,1262.113 2384.258,1273.696 2329.533,1255.982 C2283.655,1245.613 2248.318,1208.986 2239.602,1162.766 C2229.2,1113.272 2240.929,1068.964 2281.686,1035.081 C2314.969,1008.961 2353.425,990.217 2394.504,980.093 C2418.148,973.435 2442.508,969.206 2465.975,962.037 C2491.968,954.096 2526.422,951.056 2510.606,908.546 C2499.331,878.241 2451.154,856.668 2423.56,869.288 C2402.836,879.342 2385.648,895.444 2374.266,915.47 C2361.423,936.615 2344.103,945.118 2321.279,937.07 C2297.366,928.639 2293.491,906.555 2294.258,885.191 C2294.189,861.913 2304.691,839.861 2322.809,825.244 C2383.859,778.091 2449.871,751.768 2528.628,777.859 C2605.477,803.318 2629.768,864.793 2638.618,935.718 C2640.648,965.395 2640.851,995.168 2639.223,1024.869 z M2510.697,1080.977 C2510.78,1028.252 2510.19,1027.093 2483.248,1027.063 C2424.075,1026.998 2364.301,1068.905 2365.346,1111.117 C2366.341,1151.352 2394.163,1164.758 2428.943,1166.182 C2480.32,1168.285 2510.611,1135.684 2510.697,1080.977 z M3591.737,1014.038 C3591.737,1048.94 3591.433,1075.18 3591.821,1101.41 C3592.22,1128.337 3599.061,1148.447 3632.542,1151.068 C3673.733,1154.292 3675.181,1177.535 3651.062,1203.378 C3629.092,1228.835 3599.621,1246.675 3566.879,1254.337 C3536.653,1260.558 3509.683,1258.899 3496.379,1226.171 C3484.708,1197.463 3471.212,1199.601 3450.183,1217.839 C3412.017,1252.919 3360.223,1269.201 3308.85,1262.268 C3250.873,1254.899 3204.869,1219.014 3192.281,1170.008 C3177.094,1110.885 3196.785,1059.304 3248.42,1023.369 C3294.192,991.515 3348,981.271 3400.243,966.018 C3424.718,958.873 3462.13,964.482 3465.488,926.172 C3467.93,898.285 3445.054,884.452 3422.663,871.901 C3388.692,852.857 3366.169,871.398 3343.913,892.926 C3339.977,896.435 3336.491,900.417 3333.533,904.782 C3317.709,930.5 3296.756,954.364 3266.3,933.046 C3235.471,911.468 3242.206,876.75 3257.106,847.211 C3280.53,800.775 3378.293,759.416 3442.685,768.628 C3511.155,778.424 3559.821,814.061 3579.569,882.363 C3591.859,925.1 3595.987,969.771 3591.737,1014.038 z M3462.983,1078.88 C3454.938,1063.656 3480.184,1028.934 3436.568,1027.02 C3380.824,1024.574 3318.287,1067.876 3317.724,1109.602 C3317.174,1150.473 3344.425,1164.101 3379.165,1166.187 C3429.259,1169.196 3462.607,1134.826 3462.983,1078.88 z M9001.919,1013.755 C9001.919,1049.72 9000.837,1076.028 9002.221,1102.208 C9003.615,1128.598 9011.852,1148.457 9044.958,1151.143 C9087.939,1154.631 9084.462,1180.229 9062.285,1204.453 C9038.043,1232.875 9004.214,1251.414 8967.211,1256.552 C8944.397,1259.308 8921.002,1255.917 8913.3,1233.683 C8897.443,1187.909 8877.426,1205.357 8853.391,1224.853 C8814.851,1256.809 8764.199,1270.186 8714.905,1261.428 C8657.566,1252.642 8617.669,1218.497 8605.834,1168.632 C8591.395,1107.8 8607.917,1061.693 8657.651,1025.66 C8704.397,991.792 8759.928,980.999 8814.111,965.857 C8839.052,958.887 8876.856,962.425 8879.188,925.176 C8880.821,899.069 8857.421,884.174 8834.635,871.657 C8800.095,852.683 8778.291,872.386 8755.871,893.147 C8753.319,895.564 8751.027,898.243 8749.035,901.14 C8730.22,927.97 8707.333,959.507 8673.989,929.198 C8643.958,901.9 8652.311,861.613 8679.13,834.645 C8732.825,780.649 8799.318,755.233 8875.981,773.034 C8949.62,790.134 8989.097,839.058 8999.842,918.687 C9004.285,950.183 9004.983,982.095 9001.919,1013.755 z M8872.994,1076.128 C8859.16,1066.49 8894.802,1028.351 8848.373,1027.149 C8792.055,1025.692 8727.631,1069.094 8728.536,1109.664 C8729.484,1151.994 8759.138,1166.204 8796.416,1166.191 C8845.961,1166.174 8872.829,1135.633 8872.994,1076.128 z M2014.313,854.003 C2014.313,760.053 2013.385,684.797 2014.746,609.582 C2015.333,577.152 2010.41,550.124 1975.848,537.883 C1962.519,533.163 1954.441,524.361 1957.557,510.387 C1960.704,496.277 1973.364,492.309 1986.19,492.13 C2044.255,491.319 2102.326,491.012 2160.396,490.574 C2174.949,488.922 2188.695,497.609 2193.447,511.463 C2198.755,526.396 2189.027,534.978 2177.698,540.585 C2153.067,552.776 2157.407,574.83 2157.408,595.399 C2157.412,733.596 2157.865,871.794 2157.404,1009.989 C2155.323,1031.103 2161.923,1052.155 2175.684,1068.303 C2199.059,1092.742 2195.561,1119.134 2181.689,1145.781 C2130.345,1244.406 1973.683,1290.619 1877.494,1235.866 C1833.401,1213.15 1815.471,1159.413 1837.09,1114.772 C1851.282,1087.048 1873.635,1074.888 1901.981,1087.335 C1915.436,1091.994 1926.307,1102.104 1931.927,1115.187 C1937.547,1128.27 1937.397,1143.115 1931.514,1156.082 C1927.894,1166.589 1909.926,1175.07 1922.255,1187.514 C1935.451,1200.832 1952.545,1192.623 1966.878,1186.759 C1992.52,1176.267 2000.944,1154.106 2005.22,1128.441 C2021.446,1031.072 2009.826,932.952 2014.313,854.003 z M4470.38,1255.121 C4350.131,1255.494 4257.976,1184.117 4226.63,1070.041 C4196.905,961.865 4242.123,860.53 4347.184,799.874 C4440.535,746.399 4558.244,762.887 4633.311,839.951 C4669.813,876.306 4666.627,914.616 4624.07,951.064 C4592.728,977.905 4561.753,970.806 4531.574,929.638 C4523.454,916.204 4514.279,903.437 4504.134,891.459 C4473.043,860.957 4423.446,861.05 4403.015,895.38 C4365.934,957.687 4348.843,1025.132 4380.77,1095.384 C4414.744,1170.141 4492.335,1185.089 4554.662,1130.452 C4563.753,1122.2 4572.419,1113.491 4580.627,1104.359 C4598.449,1085.201 4615.604,1058.278 4645.169,1084.369 C4657.199,1093.816 4664.87,1107.75 4666.417,1122.968 C4667.964,1138.186 4663.254,1153.379 4653.37,1165.053 C4614.883,1216.632 4560.081,1242.787 4497.169,1252.956 C4486.794,1254.635 4476.153,1254.681 4470.38,1255.121 z M2994.947,1032.436 C3018.444,945.03 3085.856,888.115 3066.599,801.242 C3063.458,787.071 3077.651,781.41 3090.177,777.835 C3125.799,767.082 3163.727,766.573 3199.624,776.366 C3209.832,779.197 3221.08,781.151 3222.725,794.102 C3224.595,805.124 3217.9,815.795 3207.163,818.909 C3168.703,829.71 3160.56,863.549 3147.179,893.532 C3101.525,995.827 3056.408,1098.361 3010.196,1200.406 C2998.864,1225.43 2989.883,1258.92 2957.836,1260.689 C2921.732,1262.68 2911.929,1226.628 2899.266,1201 C2845.762,1092.72 2794.04,983.57 2741.343,874.894 C2734.617,858.772 2725.923,843.544 2715.458,829.556 C2681.518,789.478 2683.053,779.662 2733.666,771.221 C2782.361,762.546 2832.2,762.495 2880.911,771.071 C2903.839,775.378 2942.886,782.084 2905.284,820.162 C2893.755,831.837 2899.702,843.528 2904.25,854.109 C2929.692,915.869 2960.021,975.5 2994.947,1032.436 z M6098.983,673.97 C6100.89,704.965 6083.132,754.03 6152.456,747.74 C6160.619,747.719 6168.42,751.112 6173.969,757.099 C6179.519,763.086 6182.312,771.121 6181.673,779.259 C6181.875,789.194 6177.991,798.778 6170.927,805.767 C6163.864,812.757 6154.24,816.541 6144.308,816.233 C6102.698,817.326 6097.383,839.56 6098.732,874.015 C6101.328,940.378 6099.981,1006.883 6101.368,1073.307 C6102.042,1105.533 6103.47,1137.388 6149.918,1138.765 C6175.583,1139.525 6179.836,1157.892 6173.425,1180.418 C6159.793,1228.319 6087.239,1277.718 6038.315,1271.694 C5988.089,1265.509 5962.851,1236.82 5961.623,1175.988 C5959.718,1081.619 5959.868,987.169 5961.43,892.791 C5962.022,857.029 5959.253,833.657 5913.255,830.815 C5873.459,828.356 5868.855,805.802 5900.709,774.681 C5952.474,724.106 5993.954,665.615 6037.244,608.39 C6047.51,594.819 6055.385,574.109 6076.367,578.746 C6100.743,584.132 6097.785,607.417 6098.83,626.198 C6099.604,640.143 6098.983,654.164 6098.983,673.97 z M4876.416,1047.6 C4876.43,1077.32 4877.154,1107.064 4876.195,1136.753 C4875.465,1159.319 4878.923,1176.84 4903.356,1187.165 C4932.998,1199.691 4925.508,1217.732 4905.956,1234.902 C4886.233,1252.222 4731.848,1264.387 4711.081,1249.21 C4691.544,1234.933 4698.226,1215.377 4711.052,1204.102 C4735.958,1182.208 4734.358,1155.251 4734.406,1127.321 C4734.529,1057.391 4735.116,987.461 4735.139,917.531 C4735.146,900.288 4738.752,881.705 4726.259,867.047 C4693.473,828.577 4714.765,806.948 4750.587,791.805 C4781.006,778.946 4830.197,749.353 4842.049,765.925 C4885.986,827.364 4922.287,773.392 4960.859,768.757 C5003.945,763.579 5035.961,780.259 5046.66,820.636 C5057.373,861.059 5037.997,895.643 5005.346,921.07 C4991.986,931.474 4979.782,922.247 4966.916,915.239 C4897.577,877.473 4876.932,889.982 4876.427,968.927 C4876.259,995.151 4876.401,1021.376 4876.416,1047.6 z M5287.205,981.918 C5287.205,1027.476 5288.07,1073.056 5286.913,1118.585 C5286.09,1150.991 5287.777,1180.743 5315.37,1204.377 C5337.561,1223.383 5326.714,1243.091 5303.871,1245.744 C5246.29,1252.432 5187.818,1256.639 5130.405,1243.305 C5098.538,1235.903 5097.243,1217.304 5123.249,1201.635 C5140.542,1192.559 5150.747,1174.036 5149.178,1154.569 C5149.307,1088.084 5150.689,1021.593 5150.077,955.118 C5149.75,919.517 5157.347,882.228 5116.552,857.2 C5097.864,845.735 5109.618,825.245 5126.301,814.445 C5160.113,791.941 5198.197,776.641 5238.181,769.498 C5273.509,763.632 5289.12,783.434 5288.296,819.074 C5287.041,873.328 5287.967,927.633 5287.967,981.916 z M8522.536,980.812 C8522.536,1026.359 8523.482,1071.931 8522.218,1117.443 C8521.313,1149.98 8523.82,1179.306 8550.94,1203.211 C8574.907,1224.34 8564.154,1244.18 8537.334,1246.823 C8481.418,1252.332 8424.843,1256.101 8368.924,1244.367 C8358.788,1242.24 8347.04,1240.685 8343.82,1228.447 C8339.857,1213.382 8350.503,1204.987 8361.859,1200.296 C8385.005,1190.736 8384.427,1171.73 8384.474,1152.138 C8384.641,1082.109 8385.059,1012.081 8385.191,942.053 C8385.251,910.819 8389.256,879.506 8354.493,859.018 C8337.828,849.196 8343.377,831.23 8357.815,819.248 C8364.735,813.863 8372.111,809.093 8379.861,804.992 C8493.897,740.157 8520.761,754.448 8522.295,880.937 C8522.698,914.224 8522.356,947.52 8522.356,980.812 z M5282.83,628.238 C5283.146,646.973 5275.722,665.008 5262.31,678.093 C5248.897,691.177 5230.683,698.151 5211.962,697.371 C5174.645,696.089 5153.685,673.885 5149.875,638.17 C5148.053,614.393 5159.071,591.454 5178.769,578.013 C5198.467,564.572 5223.843,562.677 5245.319,573.042 C5266.795,583.407 5281.099,604.454 5282.83,628.238 z M8521.896,628.119 C8522.855,646.809 8515.837,665.027 8502.586,678.242 C8489.334,691.457 8471.097,698.425 8452.409,697.413 C8414.813,696.391 8392.083,673.807 8391.073,638.398 C8389.985,600.202 8407.465,570.043 8451.529,566.777 C8469.212,564.577 8486.993,570.011 8500.425,581.719 C8513.855,593.428 8521.664,610.303 8521.896,628.119 z" fill="#F3931F"/>
  </g>
</svg>
