<?xml version="1.0" encoding="UTF-8"?>
<!DOCTYPE svg PUBLIC "-//W3C//DTD SVG 1.1//EN" "http://www.w3.org/Graphics/SVG/1.1/DTD/svg11.dtd">
<svg version="1.1" xmlns="http://www.w3.org/2000/svg" xmlns:xlink="http://www.w3.org/1999/xlink" x="0" y="0" width="600" height="650" viewBox="0, 0, 600, 650">
  <g id="Layer_1">
    <g>
      <path d="M378.375,264.469 Q395.168,292.616 412.082,320.69 C416.074,320 420.119,319.65 424.171,319.645 C426.107,319.645 428.02,319.745 429.917,319.897 C425.763,304.774 419.464,290.164 412.562,275.783 C399.476,248.52 383.704,220.226 359.464,202.739 C353.411,198.373 341.852,191.944 332.626,187.608 C335.309,191.921 337.966,196.193 340.621,200.463 C353.198,221.803 365.685,243.197 378.375,264.469 z" fill="#2AABE2"/>
      <path d="M96.987,324.788 C98.94,327.29 95.528,326.519 94.759,327.42 C93.392,329.023 94.715,329.917 95.619,330.695 C97.116,331.984 98.821,333.031 100.034,333.893 C98.574,337.249 95.481,335.037 94.722,337.636 C96.373,340.92 99.845,342.459 102.178,344.998 C99.634,348.459 94.052,345.407 91.479,350.961 C98.282,349.915 104.143,348.997 110.01,348.12 C112.055,347.815 112.358,346.345 112.427,344.703 C112.516,342.599 111,342.12 109.386,341.871 C106.385,341.409 103.302,341.275 100.28,339.371 C103.334,335.869 108.206,334.16 109.758,329.067 C107.293,328.55 105.302,328.133 104.594,327.985 C102.216,322.952 116.138,322.471 105.998,316.036 C109.121,312.496 112.296,308.896 115.6,305.15 C119.026,309.032 122.226,312.658 125.92,316.844 C118.883,317.43 120.054,319.745 123.657,322.999 C125.124,324.325 127.581,325.125 127.591,327.542 C125.718,329.063 122.817,327.367 120.999,331.464 C122.577,332.629 124.666,333.96 126.498,335.581 C128.481,337.335 129.708,337.252 131.101,334.856 C135.803,326.759 141.642,319.351 145.7,310.857 C145.298,310.494 144.93,310.094 144.602,309.663 C144.292,309.253 144.018,308.817 143.784,308.36 C143.228,307.234 142.842,306.032 142.639,304.792 C142.549,304.299 142.477,303.802 142.415,303.305 C142.292,302.312 142.209,301.32 142.103,300.362 Q142.063,300.003 142.018,299.65 Q141.774,297.777 141.609,295.926 Q141.278,292.226 141.257,288.626 C141.039,253.841 162.146,226.587 196.364,218.493 C201.436,217.288 206.628,216.663 211.842,216.629 Q214.881,216.611 217.861,216.861 Q220.84,217.108 223.746,217.609 Q226.65,218.108 229.469,218.846 C237.767,221.021 245.595,224.701 252.565,229.703 Q254.837,231.332 256.957,233.124 Q258.015,234.019 259.032,234.951 Q261.067,236.816 262.929,238.822 C266,242.118 268.717,245.728 271.036,249.59 Q272.405,251.88 273.558,254.261 C272.251,256.584 271.016,258.952 269.68,261.258 C271.016,258.952 272.251,256.583 273.56,254.26 L315.829,188.404 C317.25,186.514 318.529,184.521 319.655,182.442 C301.354,176.422 282.063,173.991 262.841,175.284 C241.289,176.721 220.091,181.499 200.006,189.446 C189.124,193.9 177.896,198.031 167.964,204.156 C153.858,212.653 141.051,223.139 129.938,235.291 C122.199,243.843 115.196,253.033 109.003,262.763 C104.005,270.823 99.63,279.254 95.915,287.98 C91.497,297.954 88.421,308.471 86.768,319.253 C87.515,318.505 88.314,317.811 89.159,317.176 C91.992,319.473 94.612,322.021 96.987,324.788 z" fill="#2AABE2"/>
      <path d="M464.914,266.744 Q463.436,263.685 461.842,260.689 Q460.249,257.692 458.546,254.757 Q456.844,251.822 455.035,248.947 Q451.42,243.197 447.405,237.678 Q444.399,233.537 441.187,229.52 Q440.118,228.181 439.026,226.855 Q436.613,223.921 434.093,221.116 Q431.574,218.31 428.953,215.624 Q422.404,208.908 415.267,202.881 Q409.566,198.044 403.535,193.584 Q399.017,190.231 394.332,187.061 C385.452,181.087 376.06,175.911 366.267,171.594 C358.686,168.215 350.886,165.269 342.906,162.628 C334.661,159.905 326.233,157.767 317.686,156.231 C309.242,154.717 300.711,153.736 292.144,153.294 Q287.01,153.022 281.86,152.984 C274.994,152.93 268.111,153.176 261.217,153.682 C248.279,154.622 235.464,156.832 222.958,160.28 Q219.865,161.135 216.803,162.089 Q210.679,163.997 204.687,166.299 Q195.699,169.752 187.011,174.077 C179.218,177.962 171.667,182.314 164.4,187.111 Q159.448,190.374 154.751,193.885 Q152.402,195.641 150.116,197.457 C144.053,202.275 138.278,207.444 132.82,212.938 C126.018,219.792 119.705,227.115 113.927,234.853 Q108.703,241.837 103.999,249.292 Q102.43,251.776 100.918,254.311 Q99.453,256.767 98.076,259.269 Q95.32,264.274 92.898,269.45 Q89.256,277.208 86.289,285.292 Q84.3,290.673 82.573,296.168 C81.773,298.704 81.061,301.255 80.416,303.818 C79.125,308.944 78.103,314.116 77.182,319.311 Q76.837,321.26 76.508,323.212 Q76.178,325.164 75.856,327.119 C75.809,328.262 75.469,329.374 74.868,330.347 C74.61,330.665 74.29,330.928 73.929,331.12 C74.02,331.257 74.099,331.401 74.163,331.552 C74.178,331.586 74.202,331.617 74.217,331.651 C74.254,331.741 74.276,331.836 74.305,331.929 L74.307,331.933 C74.336,332.027 74.374,332.118 74.397,332.215 L74.397,332.215 C74.429,332.368 74.453,332.523 74.469,332.678 C74.526,333.337 74.514,334.001 74.434,334.657 L74.424,334.771 C74.385,335.165 74.344,335.561 74.318,335.953 L74.314,336.02 C74.26,336.63 74.3,337.246 74.434,337.844 C74.531,338.239 74.705,338.612 74.945,338.941 C75.416,339.541 76.046,339.999 76.762,340.263 C76.74,340.611 76.649,340.952 76.495,341.265 C74.992,344.075 74.985,344.071 78.413,344.063 C79.7,342.29 81.757,341.155 83.178,339.486 C83.881,338.704 84.371,337.754 84.601,336.728 C83.003,335.794 80.729,336.852 80.631,336.73 C78.79,331.51 90.425,331.073 81.673,325.965 C82.155,325.255 82.602,324.519 83.126,323.842 C84.32,322.297 85.552,320.781 86.768,319.253 C88.421,308.471 91.497,297.954 95.915,287.98 C99.63,279.254 104.005,270.823 109.003,262.763 C115.196,253.033 122.199,243.843 129.938,235.291 C141.051,223.139 153.859,212.653 167.964,204.156 C177.896,198.031 189.058,193.734 200.006,189.446 C220.091,181.499 241.289,176.721 262.841,175.284 C282.063,173.991 301.354,176.422 319.655,182.442 C320.03,181.799 320.408,181.156 320.803,180.525 C321.524,179.354 322.336,178.241 323.23,177.196 C323.78,176.547 324.38,175.94 325.022,175.381 C325.613,176.332 326.194,177.265 326.78,178.208 Q329.731,182.953 332.627,187.608 C341.852,191.944 353.411,198.373 359.464,202.739 C383.704,220.226 399.476,248.52 412.562,275.783 C419.464,290.164 425.763,304.774 429.917,319.897 C444.531,321.055 458.423,326.725 469.674,336.122 L469.687,336.109 Q470.67,335.1 471.627,334.071 C473.54,332.01 475.37,329.882 477.087,327.657 Q477.946,326.545 478.765,325.399 Q479.584,324.253 480.361,323.071 Q481.136,321.888 481.867,320.666 C480.236,303.85 474.381,288.156 467.753,272.928 Q466.393,269.804 464.914,266.744 z" fill="#FBBF12"/>
      <path d="M528.589,348.285 C525.947,338.855 526.587,328.998 524.686,319.437 C514.682,269.114 492.561,225.861 453.965,190.976 C440.051,178.557 424.829,167.686 408.567,158.555 C373.984,138.761 336.302,129.908 296.847,129.581 C279.444,129.437 262.009,131.884 244.678,135.459 C218.493,140.859 194.378,151.11 172.051,164.879 C144.723,181.733 121.982,204.153 103.7,230.722 C86.891,255.24 75.214,282.905 69.371,312.053 C68.359,316.962 66.687,321.971 68.151,327.142 C68.189,327.14 68.217,327.131 68.257,327.131 L70.262,328.791 L74.272,332.112 L73.948,331.177 L73.929,331.121 L73.929,331.121 L73.929,331.121 C74.019,331.258 74.097,331.402 74.163,331.552 L74.163,331.552 C74.099,331.401 74.02,331.257 73.929,331.12 C74.29,330.928 74.61,330.665 74.868,330.348 C75.469,329.374 75.809,328.262 75.856,327.119 Q76.179,325.164 76.508,323.212 Q76.838,321.26 77.182,319.311 C78.103,314.116 79.125,308.944 80.415,303.818 C81.061,301.255 81.773,298.704 82.573,296.168 Q84.304,290.677 86.289,285.292 Q89.272,277.221 92.898,269.45 Q95.325,264.277 98.076,259.269 Q99.454,256.767 100.918,254.311 Q102.431,251.776 103.999,249.292 Q108.705,241.84 113.927,234.853 C119.705,227.115 126.018,219.792 132.82,212.938 C138.278,207.444 144.053,202.275 150.116,197.457 Q152.402,195.641 154.751,193.886 Q159.449,190.375 164.4,187.111 C171.667,182.315 179.218,177.962 187.011,174.077 Q195.697,169.755 204.687,166.299 Q210.679,163.998 216.803,162.089 Q219.864,161.135 222.958,160.28 C235.464,156.832 248.279,154.622 261.217,153.682 C268.111,153.176 274.994,152.93 281.86,152.984 Q287.009,153.024 292.144,153.294 C300.711,153.736 309.242,154.717 317.686,156.231 C326.233,157.767 334.661,159.905 342.906,162.628 C350.886,165.269 358.686,168.215 366.267,171.594 C376.06,175.911 385.452,181.087 394.332,187.061 Q399.014,190.235 403.535,193.584 Q409.56,198.054 415.267,202.881 Q422.392,208.926 428.953,215.624 Q431.573,218.311 434.093,221.116 Q436.612,223.923 439.026,226.855 Q440.117,228.181 441.187,229.52 Q444.397,233.538 447.405,237.678 Q451.414,243.199 455.035,248.947 Q456.843,251.823 458.546,254.757 Q460.248,257.693 461.842,260.689 Q463.435,263.685 464.914,266.744 Q466.393,269.804 467.753,272.928 C474.381,288.156 480.236,303.85 481.866,320.666 L481.866,320.666 C488.284,329.095 494.884,337.368 504.109,344.746 C500.039,345.744 497.522,346.596 494.939,346.942 C490.271,347.568 490.285,349.359 493.312,352.223 C498.29,356.934 503.262,361.651 508.387,366.508 C503.242,369.024 497.805,368.212 492.067,369.172 C497.675,378.556 505.833,384.007 513.675,389.795 C515.197,390.919 516.178,389.927 517.089,389.031 C519.412,386.745 522.063,384.688 523.38,381.537 C521.564,379.966 519.706,380.732 518.044,380.444 C516.096,380.105 514.093,380.013 512.186,378.574 C514.06,376.887 515.863,375.273 517.655,373.647 C525.439,366.584 525.438,366.582 516.433,362.387 C520.427,357.595 525.685,353.935 528.589,348.286 C528.925,348.191 529.214,347.975 529.401,347.68 C529.214,347.975 528.925,348.191 528.589,348.285 z" fill="#2AABE2"/>
      <path d="M74.396,332.215 C74.374,332.118 74.336,332.027 74.307,331.933 L74.305,331.929 C74.336,332.025 74.374,332.117 74.396,332.215 z" fill="#2AABE2"/>
      <path d="M66.457,329.523 C66.224,329.67 66.008,329.843 65.812,330.037 C66.008,329.843 66.224,329.67 66.457,329.523 z" fill="#2AABE2"/>
      <path d="M520.279,168.747 L325.179,56.11 C311.759,48.363 288.232,48.363 274.824,56.107 L79.721,168.75 L79.721,168.747 C66.31,176.494 54.543,196.871 54.543,212.359 L54.543,357.702 L56.937,356.699 C56.138,355.546 56.782,354.596 56.892,349.386 C57.473,322.911 62.351,296.707 71.337,271.798 C83.839,236.748 103.896,207.083 130.085,180.834 C152.801,158.066 179.31,141.432 208.507,129.03 C230.671,119.615 254.076,114.214 278.158,111.64 C305.715,108.694 332.796,111 359.81,116.57 C385.507,121.926 410.1,131.631 432.529,145.267 C453.397,157.665 472.356,173.026 488.813,190.869 C505.839,209.357 520.07,230.235 531.054,252.84 C536.966,264.942 541.786,277.548 545.456,290.507 L545.456,212.359 C545.456,196.871 533.69,176.494 520.279,168.747 z" fill="#2AABE2"/>
      <path d="M429.935,461.587 L429.935,495.433 L418.759,495.433 L418.759,461.613 C408.325,460.835 398.194,457.749 389.099,452.578 C333.498,459.546 277.661,463.227 221.521,461.877 C181.448,460.914 141.541,457.959 102.83,446.366 C90.565,442.85 78.77,437.865 67.701,431.519 C66.93,431.065 66.159,430.61 65.404,430.13 C51.259,421.154 51.328,411.761 65.914,403.734 C80.486,395.713 96.381,390.991 112.168,386.05 C116.853,384.585 121.485,382.937 126.077,381.201 C127.925,380.502 130.137,379.528 129.858,377.102 C129.633,375.149 127.558,374.511 125.903,373.848 C115.024,369.495 103.441,368.073 92.074,365.747 C80.948,363.469 69.507,362.925 59.437,359.97 C86.461,360.387 114.365,361.027 142.208,363.088 C162.056,364.557 181.908,366.107 201.361,370.602 C205.574,371.575 211.855,371.971 212.227,376.772 C212.608,381.682 206.365,382.715 202.364,384.298 C189.251,389.486 175.453,392.5 162.017,396.67 C158.362,397.681 154.815,399.046 151.426,400.746 C144.46,404.53 144.196,408.703 150.474,413.45 C156.985,418.374 164.618,421.058 172.253,423.606 C197.671,432.09 224.131,435.239 250.56,438.113 C292.421,442.526 334.514,444.349 376.6,443.572 C370.254,437.851 364.988,431.036 361.052,423.454 C358.448,423.461 355.844,423.469 353.24,423.454 Q349.357,423.432 345.475,423.376 Q337.71,423.263 329.948,422.996 Q326.067,422.86 322.186,422.682 Q317.012,422.444 311.84,422.125 C301.494,421.484 291.154,420.586 280.818,419.374 Q277.782,419.017 274.746,418.644 C264.109,417.491 253.572,415.56 243.218,412.866 C239.78,411.914 236.373,410.823 233.006,409.557 C228.756,407.958 222.311,406.611 222.408,401.645 C222.386,400.498 222.814,399.387 223.6,398.552 C224.179,397.979 224.865,397.527 225.62,397.223 C226.165,396.992 226.725,396.797 227.297,396.641 C227.885,396.475 228.496,396.332 229.111,396.198 C230.265,395.947 231.436,395.724 232.502,395.433 C232.858,395.336 233.202,395.231 233.53,395.116 C238.15,393.483 243.031,392.592 247.355,390.12 C247.952,389.779 248.545,389.431 249.118,389.063 Q249.404,388.88 249.682,388.689 C250.231,388.317 250.753,387.907 251.244,387.461 C251.722,387.029 252.151,386.545 252.523,386.018 C253.311,384.895 253.744,383.561 253.766,382.188 C253.774,381.929 253.769,381.676 253.753,381.431 C253.723,380.962 253.645,380.498 253.521,380.044 C253.285,379.203 252.891,378.415 252.359,377.722 C252.097,377.377 251.81,377.053 251.501,376.751 C251.024,376.289 250.511,375.866 249.967,375.486 C249.222,374.968 248.448,374.493 247.648,374.064 Q246.807,373.603 245.954,373.181 Q244.248,372.336 242.499,371.633 C238.412,370.038 234.196,368.796 229.897,367.92 C228.059,367.521 226.211,367.158 224.362,366.808 C222.512,366.458 220.661,366.119 218.816,365.768 C208.663,363.834 198.48,362.28 188.273,361.035 Q180.617,360.101 172.943,359.389 Q169.107,359.031 165.266,358.723 Q157.585,358.106 149.889,357.67 Q146.042,357.45 142.191,357.27 Q134.49,356.909 126.778,356.69 C116.495,356.391 106.2,356.257 95.897,356.217 L54.543,357.702 L54.543,437.641 C54.543,453.129 66.307,473.507 79.721,481.247 L274.824,593.89 C288.232,601.634 311.765,601.64 325.179,593.89 L517.045,483.114 L526.435,476.734 C535.731,468.445 543.27,454.818 545.05,442.808 C545.312,441.098 545.447,439.371 545.456,437.641 L545.456,421.343 L488.357,421.343 C477.442,444.207 455.187,459.536 429.935,461.587 z" fill="#6EBE44"/>
      <path d="M323.573,205.441 C323.517,205.627 323.463,205.814 323.407,206.001 C323.463,205.814 323.517,205.627 323.573,205.441 z" fill="#2AABE2"/>
      <path d="M119.482,346.078 C119.505,346.101 119.536,346.115 119.568,346.118 C120.285,346.103 121.001,346.041 121.71,345.933 C122.055,345.875 122.396,345.791 122.729,345.681 C123.367,345.475 123.953,345.136 124.449,344.685 C125.515,343.585 126.2,342.173 126.405,340.655 C126.089,340.847 125.755,341.008 125.407,341.133 C125.082,341.25 124.748,341.341 124.409,341.406 C124.078,341.471 123.75,341.513 123.428,341.546 C123.105,341.579 122.788,341.602 122.48,341.627 C121.815,341.652 121.158,341.773 120.528,341.984 C120.232,342.098 119.956,342.26 119.713,342.464 C119.285,342.846 118.958,343.329 118.763,343.868 C118.733,343.953 118.718,344.043 118.72,344.133 C118.721,344.246 118.732,344.358 118.754,344.468 C118.86,345.057 119.11,345.61 119.482,346.078 z" fill="#2AABE2"/>
      <path d="M147.579,342.308 C147.852,342.43 148.136,342.525 148.427,342.592 C148.962,342.713 149.506,342.789 150.054,342.818 C152.384,342.97 154.711,343.033 157.041,343.094 C159.37,343.156 161.701,343.216 164.038,343.363 C165.596,343.461 167.156,343.598 168.721,343.8 C173.229,344.382 177.761,344.81 182.295,345.256 C185.695,345.59 189.096,345.935 192.488,346.363 Q194.184,346.577 195.877,346.821 C196.263,346.878 196.653,346.912 197.044,346.922 C197.672,346.947 198.3,346.867 198.902,346.685 C199.386,346.535 199.834,346.288 200.219,345.958 C200.398,345.802 200.562,345.631 200.71,345.445 C201.152,344.858 201.481,344.193 201.681,343.485 C202.058,342.267 202.224,340.893 202.473,339.661 C202.562,339.19 202.681,338.725 202.829,338.268 C203.438,336.461 203.181,335.581 202.51,335.161 C202.266,335.017 201.997,334.921 201.718,334.877 C201.398,334.823 201.074,334.796 200.75,334.796 C200.069,334.787 199.338,334.844 198.69,334.829 C198.391,334.827 198.092,334.795 197.799,334.734 C196.935,334.536 196.067,334.356 195.196,334.187 C192.583,333.683 189.945,333.287 187.325,332.811 C186.921,332.738 186.548,332.654 186.206,332.556 C185.888,332.468 185.578,332.354 185.277,332.217 C184.367,331.883 183.734,331.051 183.655,330.085 C183.63,329.765 183.645,329.442 183.697,329.125 Q183.738,328.861 183.809,328.573 C183.918,328.146 184.055,327.726 184.22,327.316 C185.168,324.909 185.991,322.45 186.789,319.983 C188.12,315.87 189.382,311.731 191.044,307.757 C192.049,305.356 192.524,303.561 191.997,302.45 C191.782,302.012 191.411,301.671 190.957,301.493 C190.775,301.415 190.588,301.352 190.396,301.306 C189.912,301.195 189.417,301.139 188.921,301.137 C188.258,301.131 187.595,301.168 186.937,301.246 C186.38,301.313 185.819,301.339 185.258,301.324 C184.871,301.314 184.485,301.265 184.108,301.179 C183.802,301.111 183.508,300.998 183.236,300.845 C182.765,300.58 182.413,300.146 182.251,299.63 C182.149,299.306 182.097,298.967 182.097,298.627 C182.101,297.986 182.185,297.348 182.348,296.728 C182.462,296.255 182.613,295.75 182.796,295.214 Q183.623,292.791 184.371,290.343 C185.879,285.449 187.218,280.498 188.668,275.584 Q187.953,275.319 187.239,275.054 Q167.278,306.641 147.326,338.232 C146.998,338.729 146.736,339.266 146.548,339.83 C146.459,340.104 146.412,340.389 146.409,340.677 C146.415,341.413 146.884,342.066 147.579,342.308 z" fill="#6EBE44"/>
      <path d="M312.438,276.385 C313.66,269.827 314.947,263.272 316.013,256.688 C314.947,263.272 313.66,269.827 312.438,276.385 z" fill="#2AABE2"/>
      <path d="M323.057,207.184 Q321.594,209.071 320.202,211.006 Q321.596,209.073 323.057,207.184 z" fill="#2AABE2"/>
      <path d="M233.186,352.746 C233.344,352.871 233.513,352.981 233.691,353.073 C234.474,353.442 235.309,353.689 236.167,353.805 C238.812,354.25 241.423,354.878 243.981,355.684 C247.387,356.757 250.68,358.164 253.81,359.884 Q254.989,360.533 256.139,361.245 Q256.959,361.752 257.741,362.281 C259.263,363.3 260.705,364.434 262.055,365.672 C262.912,366.462 263.718,367.306 264.468,368.199 C265.199,369.071 265.864,369.996 266.457,370.966 C267.657,372.925 268.514,375.072 268.993,377.318 C269.507,379.817 269.614,382.383 269.31,384.917 C269.084,386.876 268.525,388.782 267.658,390.553 Q267.241,391.426 266.751,392.269 C265.98,393.574 265.141,394.839 264.238,396.057 C263.098,397.624 261.873,399.197 260.677,400.864 C268.266,401.945 275.273,403.131 282.325,403.908 Q286.747,404.395 291.17,404.868 C294.119,405.181 297.069,405.488 300.02,405.768 Q303.71,406.119 307.404,406.418 Q310.174,406.64 312.948,406.823 C318.495,407.186 324.053,407.416 329.626,407.442 C330.16,407.449 330.694,407.42 331.225,407.354 C331.537,407.314 331.845,407.251 332.148,407.166 Q332.364,407.103 332.567,407.024 C332.732,406.959 332.894,406.883 333.049,406.797 C334.124,406.198 334.835,405.1 335.183,403.187 C336.416,396.401 337.717,389.627 339.045,382.858 Q340.04,377.782 341.05,372.708 Q342.058,367.633 343.064,362.558 C343.859,358.54 342.801,356.628 339.216,356.304 C338.654,356.256 338.088,356.242 337.524,356.26 C332.158,356.408 326.788,356.441 321.418,356.426 C316.048,356.411 310.677,356.348 305.307,356.306 C304.925,356.309 304.544,356.335 304.165,356.383 C303.505,356.458 302.815,356.562 302.169,356.574 C301.918,356.581 301.668,356.569 301.419,356.537 C301.301,356.522 301.184,356.5 301.069,356.471 C300.846,356.417 300.632,356.331 300.435,356.213 C300.124,356.023 299.871,355.751 299.704,355.427 C299.431,354.944 299.323,354.384 299.397,353.834 C299.457,353.444 299.585,353.067 299.774,352.721 C300.296,351.861 300.907,351.06 301.598,350.33 C301.783,350.112 301.962,349.897 302.124,349.684 C315.098,332.66 328.01,315.587 341.199,298.731 C341.985,297.808 342.627,296.772 343.106,295.659 C343.146,295.549 343.17,295.444 343.199,295.338 C343.263,295.121 343.302,294.896 343.316,294.67 C343.339,294.212 343.212,293.76 342.955,293.381 C342.623,292.922 342.194,292.541 341.7,292.266 C340.988,291.856 340.238,291.518 339.459,291.258 C337.042,290.404 334.642,289.504 332.247,288.59 C329.013,287.356 325.79,286.091 322.566,284.827 Q319.761,283.727 316.949,282.644 C314.06,281.537 311.723,280.222 312.438,276.385 L312.438,276.385 C313.66,269.827 314.947,263.272 316.013,256.688 Q316.546,253.396 316.994,250.093 C318.194,241.144 320.099,232.294 321.461,223.369 C321.733,221.584 321.984,219.796 322.203,218.003 Q322.532,215.314 322.755,212.611 Q322.865,211.259 322.941,209.902 Q323.017,208.545 323.057,207.184 Q321.594,209.071 320.202,211.006 C318.344,213.583 316.571,216.216 314.847,218.881 C310.537,225.543 306.537,232.407 302.305,239.117 Q300.71,241.648 299.12,244.182 Q283.578,268.846 268.083,293.54 Q250.993,320.764 233.888,347.979 C233.546,348.51 233.237,349.061 232.961,349.629 C232.582,350.281 232.435,351.043 232.544,351.789 C232.645,352.171 232.871,352.508 233.186,352.746 z" fill="#6EBE44"/>
      <path d="M126.778,356.69 Q134.49,356.914 142.191,357.27 Q146.042,357.451 149.889,357.67 Q157.585,358.11 165.266,358.723 Q169.107,359.031 172.943,359.389 Q180.617,360.105 188.273,361.035 C198.48,362.28 208.663,363.834 218.816,365.768 C220.661,366.119 222.512,366.458 224.362,366.808 C226.211,367.158 228.059,367.521 229.897,367.92 C234.196,368.796 238.412,370.039 242.499,371.633 Q244.247,372.34 245.954,373.181 Q246.807,373.603 247.648,374.064 C248.448,374.493 249.222,374.968 249.967,375.486 C250.511,375.866 251.024,376.289 251.5,376.751 C251.81,377.053 252.097,377.377 252.359,377.722 C252.891,378.415 253.285,379.203 253.521,380.044 C253.645,380.498 253.723,380.962 253.753,381.431 C253.769,381.676 253.774,381.929 253.766,382.188 C253.744,383.561 253.311,384.895 252.523,386.018 C252.151,386.545 251.722,387.029 251.244,387.461 C250.753,387.907 250.231,388.317 249.682,388.689 Q249.404,388.88 249.118,389.063 C248.545,389.431 247.952,389.779 247.355,390.12 C243.031,392.592 238.15,393.483 233.53,395.116 C233.202,395.232 232.858,395.336 232.502,395.433 C231.436,395.724 230.265,395.947 229.111,396.198 C228.496,396.333 227.885,396.475 227.297,396.641 C226.725,396.797 226.165,396.992 225.62,397.223 C224.865,397.527 224.179,397.979 223.6,398.552 C222.814,399.387 222.386,400.498 222.408,401.645 C222.311,406.611 228.756,407.958 233.006,409.557 C236.373,410.823 239.78,411.914 243.218,412.866 C253.571,415.56 264.109,417.491 274.746,418.644 Q277.781,419.021 280.818,419.374 C291.154,420.586 301.494,421.484 311.84,422.125 Q317.012,422.445 322.186,422.682 Q326.067,422.861 329.948,422.996 Q337.71,423.266 345.475,423.376 Q349.357,423.433 353.24,423.454 C355.843,423.469 358.447,423.461 361.051,423.454 C350.598,403.329 350.381,379.423 360.468,359.112 C370.554,338.8 389.731,324.525 412.082,320.69 Q395.193,292.601 378.375,264.469 C365.685,243.197 353.198,221.802 340.621,200.463 C337.966,196.193 335.309,191.921 332.626,187.608 Q329.733,182.955 326.78,178.208 C326.194,177.265 325.613,176.332 325.022,175.381 C324.38,175.94 323.78,176.547 323.23,177.196 C322.336,178.241 321.524,179.354 320.802,180.525 C320.408,181.156 320.029,181.799 319.654,182.442 C318.529,184.521 317.25,186.514 315.829,188.404 L273.56,254.26 C272.251,256.583 271.016,258.952 269.68,261.258 C269.234,262.027 268.778,262.788 268.304,263.539 Q266.408,266.539 264.508,269.54 C259.44,277.544 254.341,285.564 249.156,293.713 Q243.323,302.88 237.323,312.311 C235.701,309.786 234.144,307.372 232.631,305.025 C230.11,301.114 227.712,297.389 225.34,293.646 Q221.479,287.554 217.608,281.468 C209.872,269.292 202.143,257.113 194.571,244.835 Q194.325,244.436 194.092,244.088 C193.821,243.675 193.526,243.278 193.209,242.899 Q192.999,242.653 192.797,242.458 C192.411,242.006 191.858,241.73 191.265,241.692 C191.003,241.7 190.747,241.772 190.518,241.901 C189.462,242.667 188.602,243.671 188.007,244.832 Q179.044,259.208 169.962,273.509 Q165.428,280.664 160.881,287.811 Q156.335,294.959 151.787,302.105 C150.835,303.603 149.821,305.063 148.792,306.512 C147.763,307.962 146.718,309.401 145.7,310.857 C141.642,319.351 135.803,326.759 131.101,334.856 C129.708,337.252 128.481,337.335 126.498,335.581 C124.666,333.96 122.577,332.629 120.999,331.464 C122.817,327.367 125.718,329.063 127.591,327.542 C127.582,325.125 125.124,324.325 123.657,322.999 C120.054,319.745 118.883,317.43 125.92,316.844 C122.226,312.658 119.026,309.032 115.6,305.15 C112.296,308.896 109.121,312.496 105.998,316.036 C116.138,322.471 102.216,322.952 104.594,327.985 C105.302,328.133 107.293,328.55 109.758,329.067 C108.206,334.16 103.334,335.869 100.281,339.371 C103.302,341.275 106.385,341.409 109.386,341.871 C111,342.12 112.516,342.599 112.427,344.703 C112.358,346.345 112.055,347.815 110.01,348.12 C104.143,348.997 98.282,349.915 91.479,350.961 C94.052,345.407 99.634,348.459 102.178,344.998 C99.845,342.459 96.373,340.92 94.722,337.636 C95.481,335.037 98.574,337.249 100.034,333.893 C98.821,333.031 97.116,331.984 95.619,330.695 C94.715,329.917 93.392,329.023 94.759,327.42 C95.528,326.519 98.94,327.29 96.987,324.788 C94.612,322.021 91.992,319.473 89.159,317.176 C88.314,317.811 87.515,318.505 86.768,319.253 C85.552,320.781 84.32,322.297 83.126,323.842 C82.602,324.519 82.155,325.255 81.673,325.965 C90.425,331.073 78.79,331.51 80.631,336.73 C80.729,336.852 83.003,335.794 84.601,336.728 C84.371,337.754 83.881,338.704 83.178,339.486 C81.757,341.155 79.7,342.29 78.413,344.063 C74.985,344.071 74.992,344.075 76.495,341.265 C76.649,340.952 76.74,340.611 76.762,340.263 C76.046,339.999 75.416,339.541 74.945,338.941 C74.705,338.612 74.531,338.239 74.434,337.844 C74.3,337.246 74.26,336.63 74.314,336.02 L74.318,335.953 C74.343,335.562 74.385,335.166 74.424,334.771 L74.434,334.657 C74.514,334.001 74.526,333.337 74.468,332.678 C74.453,332.523 74.429,332.368 74.396,332.215 L74.396,332.215 L74.396,332.215 C74.374,332.117 74.336,332.025 74.305,331.929 C74.276,331.836 74.254,331.741 74.217,331.651 C74.202,331.617 74.178,331.586 74.163,331.552 L74.163,331.552 C74.097,331.402 74.019,331.258 73.929,331.121 L73.929,331.121 L73.929,331.121 L73.948,331.177 L74.272,332.112 L74.272,332.112 L70.262,328.791 L68.257,327.131 L68.176,327.238 Q67.316,328.38 66.458,329.522 L66.458,329.523 L66.457,329.523 L66.457,329.523 C66.224,329.67 66.008,329.843 65.812,330.037 C65.71,330.147 65.617,330.264 65.531,330.387 C65.471,330.466 65.395,330.539 65.343,330.622 C65.093,331.03 64.919,331.479 64.83,331.949 C64.738,332.438 64.692,332.934 64.692,333.431 L64.69,333.465 C64.687,333.724 64.698,333.989 64.703,334.252 C64.709,334.515 64.711,334.775 64.717,335.039 C64.722,335.302 64.726,335.565 64.722,335.826 C64.723,336.337 64.676,336.847 64.583,337.349 C64.497,337.806 64.337,338.246 64.108,338.651 C63.947,338.932 63.748,339.189 63.517,339.417 C63.1,339.816 62.614,340.135 62.082,340.358 C61.664,340.543 61.827,340.827 62.189,341.079 C62.582,341.339 63.022,341.519 63.485,341.607 C65.4,341.893 65.512,342.499 65.096,343.211 C65.004,343.363 64.903,343.509 64.793,343.648 C64.562,343.946 64.288,344.253 64.052,344.557 C63.747,344.932 63.398,345.27 63.013,345.562 C62.822,345.715 62.626,345.863 62.429,346.012 C62.031,346.302 61.653,346.618 61.298,346.958 C60.732,347.494 60.347,348.192 60.197,348.957 C60.617,349.249 61.09,349.456 61.589,349.568 C61.758,349.61 61.93,349.645 62.104,349.676 C62.628,349.769 63.172,349.821 63.704,349.887 C64.059,349.931 64.409,349.981 64.744,350.054 C65.996,350.202 67.02,351.123 67.299,352.353 L57.233,356.628 L56.965,356.742 C56.954,356.727 56.947,356.713 56.937,356.699 L54.544,357.702 L95.897,356.217 C106.2,356.258 116.495,356.391 126.778,356.69 z M323.065,207.164 Q323.236,206.583 323.407,206.001 C323.463,205.814 323.517,205.627 323.573,205.441 C323.653,205.502 323.771,205.588 323.868,205.66 C323.916,205.695 323.959,205.728 323.99,205.752 C324.02,205.776 324.038,205.792 324.036,205.795 C323.97,205.897 323.896,205.994 323.825,206.093 C323.754,206.191 323.684,206.291 323.614,206.39 C323.43,206.648 323.252,206.909 323.065,207.164 L323.061,207.179 L323.057,207.175 z M232.961,349.629 C233.237,349.061 233.546,348.51 233.888,347.979 Q251.007,320.773 268.083,293.54 Q283.582,268.849 299.12,244.182 Q300.715,241.651 302.305,239.117 C306.537,232.407 310.537,225.543 314.846,218.881 C316.571,216.216 318.344,213.583 320.202,211.006 Q321.596,209.073 323.057,207.184 L323.057,207.184 Q323.017,208.546 322.941,209.902 Q322.865,211.259 322.755,212.611 Q322.537,215.315 322.203,218.003 C321.984,219.796 321.733,221.584 321.461,223.369 C320.099,232.294 318.193,241.144 316.994,250.093 Q316.551,253.397 316.013,256.688 C314.947,263.272 313.66,269.827 312.438,276.385 C311.723,280.222 314.059,281.537 316.949,282.644 Q319.762,283.722 322.566,284.827 C325.789,286.091 329.012,287.356 332.246,288.59 C334.642,289.504 337.042,290.405 339.459,291.258 C340.238,291.518 340.988,291.856 341.699,292.266 C342.194,292.541 342.622,292.922 342.954,293.381 C343.212,293.76 343.339,294.212 343.316,294.67 C343.302,294.896 343.263,295.121 343.199,295.339 C343.17,295.445 343.146,295.549 343.106,295.659 C342.627,296.772 341.985,297.808 341.199,298.731 C328.01,315.587 315.098,332.661 302.124,349.685 C301.961,349.898 301.783,350.112 301.598,350.33 C300.907,351.06 300.296,351.861 299.774,352.721 C299.585,353.067 299.457,353.444 299.397,353.834 C299.323,354.384 299.431,354.944 299.703,355.427 C299.871,355.751 300.124,356.023 300.435,356.213 C300.632,356.331 300.846,356.417 301.069,356.471 C301.184,356.5 301.301,356.522 301.419,356.537 C301.668,356.569 301.918,356.581 302.169,356.574 C302.815,356.562 303.505,356.458 304.165,356.383 C304.544,356.335 304.925,356.309 305.307,356.306 C310.676,356.348 316.048,356.411 321.418,356.426 C326.788,356.441 332.158,356.408 337.524,356.26 C338.088,356.242 338.653,356.256 339.216,356.304 C342.801,356.628 343.859,358.54 343.064,362.559 Q342.06,367.634 341.05,372.708 Q340.043,377.782 339.045,382.858 C337.717,389.627 336.416,396.401 335.182,403.188 C334.835,405.1 334.124,406.198 333.049,406.797 C332.894,406.883 332.732,406.959 332.566,407.024 Q332.364,407.104 332.148,407.166 C331.845,407.251 331.537,407.314 331.225,407.354 C330.694,407.42 330.16,407.449 329.625,407.442 C324.052,407.416 318.495,407.186 312.948,406.823 Q310.174,406.642 307.404,406.418 Q303.71,406.123 300.02,405.768 C297.069,405.488 294.119,405.181 291.17,404.868 Q286.746,404.397 282.325,403.908 C275.272,403.132 268.266,401.945 260.676,400.864 C261.873,399.197 263.098,397.624 264.237,396.057 C265.141,394.839 265.979,393.574 266.751,392.269 Q267.239,391.424 267.658,390.553 C268.525,388.782 269.083,386.876 269.31,384.917 C269.614,382.383 269.507,379.818 268.993,377.318 C268.514,375.072 267.656,372.925 266.457,370.966 C265.864,369.996 265.199,369.071 264.467,368.199 C263.718,367.306 262.912,366.462 262.055,365.672 C260.705,364.434 259.263,363.301 257.741,362.281 Q256.959,361.752 256.139,361.245 Q254.989,360.533 253.81,359.884 C250.68,358.164 247.387,356.757 243.981,355.684 C241.423,354.878 238.812,354.25 236.167,353.805 C235.309,353.689 234.474,353.442 233.691,353.073 C233.513,352.981 233.344,352.871 233.186,352.746 C232.871,352.508 232.645,352.171 232.544,351.789 C232.435,351.042 232.582,350.281 232.961,349.629 z M146.548,339.83 C146.736,339.266 146.998,338.729 147.326,338.232 Q167.262,306.631 187.239,275.054 Q187.953,275.319 188.668,275.584 C187.218,280.498 185.879,285.449 184.371,290.343 Q183.617,292.79 182.796,295.214 C182.613,295.75 182.462,296.255 182.348,296.728 C182.185,297.348 182.101,297.986 182.097,298.627 C182.097,298.967 182.149,299.306 182.251,299.63 C182.413,300.146 182.765,300.58 183.236,300.845 C183.508,300.998 183.802,301.111 184.108,301.179 C184.485,301.265 184.871,301.313 185.258,301.324 C185.819,301.339 186.38,301.313 186.937,301.246 C187.595,301.168 188.258,301.131 188.921,301.137 C189.417,301.139 189.912,301.195 190.396,301.306 C190.588,301.352 190.775,301.415 190.957,301.493 C191.411,301.671 191.782,302.012 191.997,302.45 C192.524,303.561 192.049,305.356 191.044,307.757 C189.382,311.731 188.12,315.87 186.789,319.983 C185.991,322.45 185.168,324.909 184.219,327.316 C184.055,327.726 183.918,328.146 183.809,328.573 Q183.738,328.861 183.697,329.125 C183.645,329.442 183.63,329.765 183.655,330.085 C183.734,331.051 184.367,331.883 185.277,332.217 C185.578,332.354 185.888,332.467 186.206,332.556 C186.548,332.654 186.921,332.738 187.325,332.811 C189.945,333.287 192.583,333.683 195.196,334.187 C196.067,334.355 196.935,334.535 197.799,334.734 C198.092,334.795 198.391,334.827 198.69,334.829 C199.338,334.844 200.069,334.787 200.75,334.796 C201.074,334.796 201.398,334.823 201.718,334.877 C201.997,334.921 202.266,335.017 202.51,335.161 C203.181,335.581 203.438,336.461 202.829,338.268 C202.681,338.725 202.562,339.189 202.473,339.66 C202.224,340.893 202.058,342.266 201.681,343.485 C201.481,344.193 201.152,344.858 200.71,345.445 C200.562,345.631 200.398,345.802 200.219,345.958 C199.834,346.287 199.386,346.535 198.902,346.685 C198.3,346.867 197.672,346.947 197.044,346.922 C196.653,346.912 196.263,346.878 195.877,346.821 Q194.184,346.575 192.488,346.363 C189.096,345.935 185.695,345.59 182.295,345.256 C177.761,344.81 173.229,344.382 168.721,343.8 C167.156,343.598 165.596,343.461 164.038,343.363 C161.701,343.216 159.37,343.156 157.041,343.094 C154.711,343.033 152.383,342.97 150.054,342.818 C149.506,342.789 148.962,342.713 148.427,342.592 C148.136,342.525 147.852,342.43 147.579,342.308 C146.884,342.066 146.415,341.413 146.409,340.677 C146.412,340.389 146.459,340.104 146.548,339.83 z M118.763,343.868 C118.959,343.329 119.285,342.846 119.713,342.464 C119.956,342.26 120.232,342.098 120.528,341.984 C121.158,341.773 121.816,341.652 122.48,341.627 C122.788,341.602 123.105,341.579 123.428,341.546 C123.75,341.513 124.078,341.471 124.409,341.406 C124.748,341.341 125.082,341.25 125.407,341.133 C125.755,341.008 126.089,340.847 126.405,340.655 C126.2,342.173 125.515,343.585 124.449,344.685 C123.953,345.136 123.367,345.475 122.729,345.681 C122.396,345.791 122.056,345.875 121.71,345.933 C121.001,346.041 120.285,346.103 119.568,346.118 C119.536,346.115 119.505,346.101 119.482,346.078 C119.11,345.61 118.86,345.057 118.754,344.468 C118.732,344.358 118.721,344.246 118.72,344.133 C118.718,344.043 118.733,343.953 118.763,343.868 z" fill="#32803E"/>
      <path d="M537.894,366.086 C540.084,369.02 542.624,371.676 545.456,373.996 L545.456,362.984 C542.948,364.664 539.871,363.742 537.894,366.086 z" fill="#FBBF12"/>
      <path d="M545.456,389.006 L545.456,380.282 C543.229,380.368 541.016,380.692 538.857,381.247 C540.73,384.094 542.947,386.7 545.456,389.006 z" fill="#FBBF12"/>
      <path d="M488.813,190.869 C472.356,173.026 453.397,157.665 432.529,145.267 C410.1,131.631 385.507,121.926 359.81,116.57 C332.796,111 305.715,108.694 278.158,111.64 C254.076,114.214 230.671,119.615 208.507,129.03 C179.31,141.432 152.801,158.066 130.084,180.834 C103.896,207.082 83.839,236.748 71.337,271.798 C62.351,296.707 57.473,322.911 56.892,349.386 C56.782,354.596 56.138,355.546 56.937,356.699 C56.947,356.713 56.954,356.727 56.965,356.742 L57.233,356.628 L67.299,352.353 C67.02,351.123 65.996,350.202 64.744,350.054 C64.409,349.981 64.059,349.931 63.704,349.887 C63.172,349.821 62.628,349.769 62.104,349.676 C61.93,349.645 61.758,349.61 61.589,349.568 C61.09,349.456 60.617,349.249 60.197,348.957 C60.347,348.192 60.732,347.494 61.298,346.958 C61.653,346.618 62.031,346.301 62.429,346.012 C62.625,345.863 62.822,345.715 63.013,345.562 C63.398,345.269 63.747,344.932 64.052,344.557 C64.288,344.253 64.562,343.946 64.793,343.648 C64.903,343.509 65.004,343.363 65.095,343.21 C65.512,342.499 65.4,341.893 63.485,341.607 C63.022,341.519 62.582,341.339 62.189,341.079 C61.827,340.827 61.664,340.543 62.082,340.358 C62.614,340.135 63.1,339.816 63.517,339.417 C63.747,339.189 63.947,338.932 64.108,338.651 C64.337,338.246 64.497,337.806 64.583,337.349 C64.676,336.847 64.723,336.337 64.722,335.826 C64.726,335.565 64.722,335.302 64.717,335.039 C64.711,334.775 64.709,334.515 64.703,334.252 C64.698,333.989 64.687,333.724 64.69,333.465 L64.692,333.431 C64.692,332.934 64.738,332.438 64.83,331.949 C64.919,331.479 65.092,331.03 65.343,330.622 C65.395,330.539 65.47,330.466 65.531,330.387 C65.616,330.264 65.71,330.147 65.812,330.037 C66.008,329.843 66.224,329.67 66.457,329.523 L66.457,329.523 L66.458,329.523 L66.458,329.522 Q67.317,328.381 68.176,327.238 L68.257,327.131 L68.257,327.131 C68.217,327.131 68.189,327.14 68.151,327.142 C66.687,321.971 68.359,316.962 69.371,312.053 C75.214,282.905 86.891,255.24 103.7,230.722 C121.982,204.153 144.723,181.733 172.051,164.879 C194.378,151.11 218.493,140.859 244.678,135.459 C262.009,131.884 279.444,129.437 296.847,129.581 C336.302,129.908 373.984,138.761 408.567,158.555 C424.829,167.686 440.051,178.557 453.965,190.976 C492.561,225.861 514.682,269.114 524.686,319.437 C526.587,328.998 525.947,338.855 528.589,348.285 C528.925,348.191 529.215,347.975 529.401,347.68 C529.732,347.252 530.03,346.693 530.368,346.29 C530.545,346.042 530.805,345.865 531.1,345.792 C531.559,345.718 532.124,346.059 532.892,347.191 C536.465,352.456 540.985,356.932 545.456,361.277 L545.456,290.507 C541.786,277.548 536.966,264.942 531.054,252.84 C520.07,230.234 505.839,209.356 488.813,190.869 z" fill="#FBBF12"/>
      <path d="M250.56,438.113 C224.131,435.239 197.671,432.09 172.253,423.606 C164.618,421.058 156.985,418.374 150.474,413.45 C144.196,408.703 144.46,404.531 151.426,400.746 C154.815,399.046 158.362,397.681 162.017,396.67 C175.453,392.5 189.251,389.486 202.364,384.298 C206.365,382.715 212.608,381.682 212.227,376.772 C211.855,371.971 205.574,371.575 201.361,370.602 C181.908,366.107 162.056,364.557 142.209,363.088 C114.365,361.027 86.461,360.387 59.437,359.97 C69.507,362.925 80.948,363.469 92.074,365.747 C103.441,368.073 115.024,369.495 125.903,373.848 C127.558,374.511 129.633,375.149 129.858,377.102 C130.137,379.528 127.925,380.502 126.077,381.201 C121.485,382.937 116.853,384.585 112.168,386.051 C96.381,390.991 80.486,395.713 65.914,403.734 C51.328,411.761 51.259,421.154 65.404,430.13 C66.159,430.61 66.93,431.065 67.701,431.519 C78.77,437.865 90.565,442.85 102.83,446.366 C141.541,457.959 181.448,460.914 221.521,461.877 C277.661,463.227 333.498,459.546 389.099,452.578 C384.619,450.036 380.429,447.017 376.6,443.572 C334.514,444.349 292.421,442.526 250.56,438.113 z M194.387,373.747 C196.316,374.352 198.305,375.079 198.279,377.628 C198.257,379.801 196.521,380.676 194.879,381.287 C190.772,382.814 186.715,384.668 181.261,384.635 C185.626,378.88 181.719,376.857 177.776,374.883 C172.241,372.113 166.232,370.687 160.366,368.711 C171.929,368.992 183.32,370.272 194.387,373.747 z M125.655,444.392 C111.08,441.005 96.677,436.918 83.352,429.917 C77.7,426.947 70.567,424.063 70.75,416.534 C70.946,408.509 78.812,406.675 84.725,403.812 C86.612,402.899 88.702,401.79 91.016,402.202 C91.371,404.16 89.821,404.583 88.965,405.438 C83.244,411.154 83.223,415.253 89.512,420.561 C97.681,427.457 107.669,430.942 117.523,434.527 C140.175,442.767 163.557,448.223 187.152,452.709 C166.181,452.914 145.845,449.083 125.655,444.392 z" fill="#016699"/>
      <path d="M271.036,249.59 C268.717,245.728 266,242.119 262.929,238.822 Q261.069,236.818 259.032,234.951 Q258.015,234.019 256.957,233.124 Q254.839,231.335 252.565,229.703 C245.595,224.701 237.767,221.021 229.469,218.846 Q226.652,218.11 223.746,217.609 Q220.842,217.111 217.861,216.861 Q214.883,216.613 211.842,216.629 C206.628,216.663 201.436,217.288 196.364,218.493 C162.146,226.587 141.039,253.841 141.257,288.626 Q141.279,292.224 141.609,295.927 Q141.774,297.777 142.018,299.65 Q142.064,300.002 142.103,300.362 C142.209,301.32 142.292,302.312 142.415,303.305 C142.477,303.802 142.549,304.299 142.639,304.792 C142.842,306.032 143.228,307.234 143.784,308.36 C144.018,308.817 144.292,309.253 144.602,309.663 C144.93,310.094 145.298,310.494 145.7,310.858 C146.718,309.401 147.763,307.962 148.792,306.512 C149.821,305.063 150.834,303.603 151.787,302.105 Q156.333,294.958 160.88,287.811 Q165.425,280.663 169.962,273.509 Q179.03,259.199 188.007,244.832 C188.602,243.671 189.462,242.667 190.518,241.901 C190.747,241.772 191.003,241.701 191.265,241.692 C191.858,241.73 192.411,242.006 192.797,242.458 Q192.999,242.653 193.209,242.899 C193.526,243.278 193.821,243.675 194.092,244.088 Q194.325,244.436 194.571,244.836 C202.142,257.113 209.872,269.292 217.608,281.468 Q221.476,287.556 225.339,293.646 C227.712,297.389 230.11,301.114 232.631,305.026 C234.144,307.372 235.701,309.786 237.323,312.311 L237.323,312.311 Q243.335,302.857 249.156,293.713 C254.34,285.564 259.44,277.544 264.507,269.54 Q266.408,266.539 268.304,263.539 C268.778,262.788 269.234,262.027 269.68,261.258 C271.016,258.953 272.251,256.584 273.558,254.261 Q272.407,251.882 271.036,249.59 z" fill="#F3931F"/>
      <path d="M323.825,206.093 C323.896,205.994 323.97,205.897 324.036,205.795 C324.038,205.792 324.02,205.776 323.99,205.752 C323.959,205.728 323.916,205.695 323.868,205.66 C323.771,205.588 323.653,205.502 323.573,205.441 L323.573,205.441 C323.517,205.627 323.463,205.814 323.407,206.001 Q323.236,206.583 323.065,207.164 C323.252,206.909 323.43,206.648 323.614,206.39 C323.684,206.291 323.754,206.191 323.825,206.093 z" fill="#5C7D48"/>
      <path d="M323.065,207.164 L323.057,207.175 L323.061,207.179 z" fill="#5C7D48"/>
      <path d="M89.512,420.561 C83.223,415.253 83.244,411.154 88.965,405.438 C89.821,404.583 91.371,404.16 91.016,402.202 C88.702,401.79 86.612,402.899 84.725,403.812 C78.812,406.675 70.946,408.509 70.75,416.534 C70.567,424.063 77.7,426.947 83.352,429.917 C96.677,436.918 111.08,441.005 125.654,444.392 C145.845,449.083 166.181,452.914 187.152,452.709 C163.557,448.223 140.175,442.767 117.523,434.526 C107.669,430.942 97.681,427.457 89.512,420.561 z" fill="#9CD7F2"/>
      <path d="M181.26,384.635 C186.715,384.668 190.773,382.814 194.879,381.287 C196.521,380.676 198.257,379.801 198.279,377.628 C198.305,375.079 196.316,374.352 194.387,373.747 C183.32,370.272 171.929,368.992 160.366,368.711 C166.232,370.687 172.241,372.113 177.776,374.883 C181.719,376.857 185.625,378.88 181.26,384.635 z" fill="#9CD7F2"/>
      <path d="M429.935,495.433 L429.935,461.587 C428.032,461.74 426.113,461.839 424.171,461.839 C422.348,461.839 420.547,461.748 418.759,461.613 L418.759,495.433 z" fill="#000000"/>
      <path d="M534.207,144.624 L339.107,31.984 C317.172,19.323 282.819,19.329 260.896,31.984 L65.793,144.624 L65.793,144.627 C43.865,157.288 26.688,187.039 26.688,212.359 L26.688,437.641 C26.688,462.961 43.865,492.712 65.793,505.373 L260.896,618.013 C271.609,624.2 285.288,627.355 299.038,627.496 C299.359,627.499 299.68,627.509 300.001,627.509 C301.572,627.509 303.141,627.464 304.707,627.385 C317.171,626.757 329.368,623.638 339.107,618.016 L534.207,505.373 C556.135,492.712 573.312,462.961 573.312,437.641 L573.312,212.359 C573.312,187.039 556.135,157.288 534.207,144.624 z M545.456,389.006 C542.947,386.7 540.73,384.094 538.857,381.247 C541.016,380.692 543.229,380.368 545.456,380.282 z M545.456,373.996 C542.624,371.676 540.084,369.02 537.894,366.086 C539.871,363.742 542.948,364.664 545.456,362.984 z M545.456,290.507 L545.456,361.277 C540.985,356.932 536.465,352.456 532.892,347.191 C532.124,346.059 531.559,345.718 531.1,345.792 C530.805,345.865 530.545,346.042 530.368,346.29 C530.03,346.693 529.732,347.252 529.401,347.68 C529.215,347.975 528.925,348.191 528.589,348.286 C525.685,353.935 520.427,357.595 516.433,362.387 C525.438,366.582 525.439,366.584 517.655,373.647 C515.863,375.273 514.06,376.887 512.186,378.574 C514.093,380.013 516.096,380.105 518.044,380.444 C519.706,380.732 521.564,379.966 523.38,381.537 C522.063,384.688 519.412,386.745 517.089,389.031 C516.178,389.927 515.197,390.919 513.675,389.795 C505.833,384.007 497.675,378.556 492.067,369.172 C497.805,368.212 503.242,369.024 508.387,366.508 C503.262,361.651 498.29,356.934 493.312,352.223 C490.285,349.358 490.271,347.567 494.939,346.942 C497.522,346.596 500.039,345.744 504.109,344.746 C494.884,337.368 488.284,329.095 481.866,320.666 L481.866,320.666 Q481.137,321.889 480.361,323.071 Q479.585,324.254 478.765,325.399 Q477.946,326.545 477.087,327.657 C475.37,329.882 473.54,332.01 471.627,334.071 Q470.67,335.101 469.687,336.109 L469.674,336.122 C494.64,356.925 502.33,392.004 488.357,421.343 L545.456,421.343 L545.456,437.641 C545.447,439.371 545.312,441.098 545.05,442.808 C543.27,454.818 535.731,468.446 526.435,476.734 C524.542,478.444 522.479,479.956 520.279,481.247 L517.045,483.114 L325.179,593.89 C311.765,601.64 288.232,601.634 274.824,593.89 L79.721,481.247 C66.307,473.507 54.544,453.129 54.544,437.641 L54.544,212.359 C54.544,196.871 66.31,176.494 79.721,168.747 L79.721,168.75 L274.824,56.107 C288.232,48.363 311.759,48.363 325.179,56.11 L520.279,168.747 C533.69,176.494 545.456,196.871 545.456,212.359 z" fill="#32803E"/>
      <path d="M429.917,319.897 C428.02,319.745 426.107,319.645 424.171,319.645 C420.119,319.65 416.075,320 412.082,320.69 C389.74,324.54 370.574,338.817 360.491,359.123 C350.407,379.429 350.616,403.327 361.052,423.454 C367.384,435.672 377.127,445.79 389.099,452.578 C398.194,457.749 408.325,460.835 418.759,461.613 C420.547,461.748 422.348,461.839 424.171,461.839 C426.114,461.839 428.032,461.74 429.935,461.587 C466.869,458.625 495.33,427.785 495.326,390.733 C495.321,353.681 466.852,322.849 429.917,319.897 z M419.846,368.186 C416.514,369.593 416.444,372.554 416.426,375.497 C416.394,380.531 416.433,385.567 416.415,390.601 C416.405,393.536 416.38,396.471 416.297,399.404 C416.007,409.711 411.234,415.428 401.084,417.583 C393.883,419.113 386.677,418.973 379.78,415.973 C375.464,414.096 372.076,411.187 370.619,406.544 C369.452,402.826 369.708,399.269 373.066,396.719 C376.53,394.09 380.422,393.532 384.256,395.778 C387.922,397.926 388.454,401.356 387.421,405.253 C386.817,407.529 386.114,410.017 388.507,411.714 C390.903,413.413 393.461,412.541 395.725,411.36 C399.069,409.699 401.169,406.271 401.13,402.537 L401.33,387.871 C401.33,383.705 401.35,379.539 401.323,375.373 C401.304,372.446 401.389,369.439 397.919,368.12 C397.032,367.799 396.538,366.854 396.781,365.943 C396.959,364.478 398.124,364.412 399.204,364.408 C400.874,364.401 402.544,364.409 404.214,364.407 Q411.49,364.395 418.766,364.404 C419.935,364.407 420.919,364.779 421.145,366.11 C421.327,367.036 420.759,367.944 419.846,368.186 z M460.493,364.219 C461.191,364.425 461.89,364.65 462.586,364.912 C465.71,366.086 468.512,367.781 469.79,370.815 C470.032,371.375 470.215,371.96 470.336,372.558 C470.418,372.978 470.476,373.39 470.515,373.796 C470.822,377.013 469.703,379.701 465.77,380.367 C465.476,380.417 465.189,380.453 464.908,380.48 C461.104,380.848 458.541,379.123 458.431,374.752 C458.357,371.807 457.347,369.968 454.423,369.159 C450.896,368.183 447.501,368.205 444.748,370.816 C442.69,372.767 442.879,375.181 445.081,376.946 C447.085,378.491 449.225,379.851 451.474,381.01 C454.104,382.426 456.752,383.812 459.327,385.314 C461.765,386.706 464.101,388.267 466.321,389.985 C468.871,391.899 470.806,394.516 471.888,397.515 C472.855,400.321 472.797,403.379 471.724,406.147 C470.623,408.87 468.828,411.258 466.519,413.072 C461.512,417.173 455.557,418.415 449.232,418.417 C440.562,418.259 432.748,416.04 427.257,408.74 C424.882,405.842 424.484,401.798 426.249,398.492 C427.673,395.681 430.243,394.431 433.383,394.33 C439.823,394.122 443.141,399.206 439.928,404.775 C438.737,406.839 438.345,408.242 440.208,409.928 C444.062,413.415 453.516,412.407 456.432,408.057 C458.521,404.941 458.484,401.815 455.404,399.378 C453.222,397.774 450.933,396.321 448.553,395.03 C444.347,392.556 439.976,390.342 435.903,387.671 C431.485,384.775 428.044,380.977 429.05,375.128 C429.925,370.044 433.148,367.155 437.374,365.468 C438.283,365.107 439.212,364.801 440.157,364.551 C446.933,362.744 453.755,362.228 460.493,364.219 z" fill="#F6DE18"/>
      <path d="M437.374,365.468 C433.148,367.155 429.925,370.044 429.05,375.128 C428.044,380.977 431.485,384.775 435.902,387.671 C439.976,390.342 444.347,392.556 448.553,395.03 C450.933,396.321 453.222,397.774 455.404,399.378 C458.484,401.816 458.521,404.941 456.432,408.057 C453.516,412.407 444.062,413.415 440.208,409.928 C438.344,408.242 438.736,406.839 439.928,404.775 C443.141,399.206 439.822,394.122 433.383,394.33 C430.243,394.431 427.673,395.681 426.249,398.492 C424.484,401.798 424.882,405.842 427.257,408.74 C432.747,416.04 440.562,418.259 449.232,418.417 C455.557,418.415 461.512,417.173 466.518,413.072 C468.828,411.258 470.623,408.87 471.724,406.147 C472.797,403.38 472.855,400.321 471.888,397.515 C470.806,394.516 468.871,391.899 466.321,389.985 C464.101,388.267 461.764,386.706 459.327,385.314 C456.752,383.812 454.104,382.426 451.474,381.01 C449.225,379.851 447.085,378.491 445.081,376.946 C442.879,375.181 442.69,372.767 444.748,370.816 C447.501,368.205 450.896,368.183 454.423,369.159 C457.347,369.968 458.357,371.807 458.431,374.752 C458.541,379.123 461.104,380.848 464.908,380.48 C465.189,380.453 465.476,380.417 465.77,380.367 C469.703,379.701 470.822,377.013 470.515,373.796 C470.475,373.39 470.418,372.978 470.336,372.558 C470.215,371.96 470.032,371.375 469.79,370.815 C468.512,367.781 465.71,366.086 462.586,364.912 C461.89,364.65 461.191,364.425 460.493,364.219 C453.755,362.228 446.933,362.744 440.157,364.551 C439.212,364.801 438.283,365.107 437.374,365.468 z" fill="#000000"/>
      <path d="M418.766,364.404 Q411.49,364.388 404.214,364.407 C402.544,364.409 400.874,364.401 399.204,364.408 C398.125,364.412 396.959,364.478 396.781,365.943 C396.538,366.854 397.032,367.799 397.919,368.12 C401.389,369.439 401.304,372.446 401.323,375.373 C401.35,379.539 401.33,383.705 401.33,387.871 L401.13,402.537 C401.169,406.271 399.069,409.699 395.725,411.36 C393.461,412.541 390.903,413.413 388.507,411.714 C386.114,410.017 386.817,407.529 387.421,405.253 C388.454,401.356 387.922,397.926 384.256,395.778 C380.422,393.532 376.53,394.09 373.066,396.72 C369.708,399.269 369.452,402.826 370.619,406.544 C372.076,411.187 375.464,414.096 379.78,415.973 C386.677,418.973 393.883,419.113 401.084,417.584 C411.234,415.428 416.007,409.711 416.297,399.404 C416.38,396.471 416.405,393.536 416.415,390.601 C416.433,385.567 416.394,380.531 416.426,375.497 C416.444,372.554 416.514,369.593 419.846,368.186 C420.759,367.944 421.327,367.036 421.145,366.11 C420.919,364.779 419.935,364.407 418.766,364.404 z" fill="#000000"/>
    </g>
  </g>
</svg>
