<?xml version="1.0" encoding="utf-8"?>
<!-- Generator: Adobe Illustrator 24.0.0, SVG Export Plug-In . SVG Version: 6.00 Build 0)  -->
<svg version="1.1" id="ARTWORK" xmlns="http://www.w3.org/2000/svg" xmlns:xlink="http://www.w3.org/1999/xlink" x="0px" y="0px"
	 viewBox="0 0 476.9 597.5" style="enable-background:new 0 0 476.9 597.5;" xml:space="preserve">
<style type="text/css">
	.st0{fill:#231F20;}
	.st1{fill:url(#SVGID_1_);}
	.st2{fill:#54565A;}
	.st3{fill:#FFFFFF;}
	.st4{fill:url(#SVGID_2_);}
	.st5{fill:url(#SVGID_3_);}
	.st6{fill:url(#SVGID_4_);}
</style>
<path class="st3" d="M391.2,93L239.4,5.3l-1-0.6l-1,0.6l-151,87.2L85.6,93l-1,0.6v177.6l1,0.6l151.9,87.7l1,0.6l1-0.6L389.3,273
	l2-1.1l1-0.6V93.6L391.2,93z M223.2,27.4L186,91.7h-74.2L223.2,27.4z M179.9,102.4l-17.4,30.2l-52.2-30.2H179.9z M166.4,146.9
	l61.4,35.5l-61.4,35.5l-20.5-35.5L166.4,146.9z M157.3,141.7l-17.4,30.2L105,111.5L157.3,141.7z M96.6,118.1l37.2,64.3l-37.2,64.3
	C96.6,246.7,96.6,118.1,96.6,118.1z M139.8,193l17.4,30.2L105,253.3L139.8,193z M162.5,232.2l17.4,30.2h-69.6L162.5,232.2z
	 M111.8,273H186l37.2,64.3L111.8,273z M233.1,333.4L198.3,273h34.8V333.4z M233.1,262.4h-41l-20.5-35.5l61.4-35.5v71H233.1z
	 M233.1,173.2l-61.4-35.5l20.5-35.5h40.9V173.2z M233.1,91.7h-34.8l34.8-60.3V91.7z M319.5,141.7l52.2-30.2l-34.8,60.3L319.5,141.7z
	 M330.8,182.4l-20.5,35.5L249,182.4l61.4-35.5L330.8,182.4z M314.2,132.5l-17.4-30.2h69.6L314.2,132.5z M364.9,91.7h-74.2
	l-37.1-64.3L364.9,91.7z M243.7,31.4l34.8,60.3h-34.8V31.4z M243.7,102.4h40.9l20.5,35.5l-61.4,35.5V102.4z M243.7,191.5L305,227
	l-20.5,35.4h-40.9V191.5z M243.7,273h34.8l-34.8,60.3V273z M253.6,337.3l37.1-64.3h74.2L253.6,337.3z M296.8,262.4l17.4-30.2
	l52.2,30.2H296.8z M319.5,223.1l17.4-30.2l34.8,60.3L319.5,223.1z M380.2,246.7L343,182.4l37.2-64.3V246.7z"/>
<g>
	<polygon class="st3" points="2.2,516.4 46,516.4 46,520.4 6.7,520.4 6.7,553.6 42.3,553.6 42.3,557.7 6.7,557.7 6.7,591.8 
		2.2,591.8 	"/>
	<path class="st3" d="M53.7,569.1c0-13,10.4-23.5,23.6-23.5s23.4,10.5,23.4,23.5c0,13-10.2,23.6-23.4,23.6
		C64.1,592.6,53.7,582,53.7,569.1 M96.2,569.1c0-11.2-7.7-19.6-18.9-19.6s-19.1,8.4-19.1,19.6c0,11.2,7.9,19.8,19.1,19.8
		S96.2,580.3,96.2,569.1"/>
	<path class="st3" d="M112.5,575.1v-28.5h4.3v27.8c0,9.2,4.3,14.4,13,14.4c9.8,0,16.6-6.6,16.6-16.9v-25.3h4.3v45.2h-4.3l0.1-10
		c-3,6.8-9.2,10.9-17.2,10.9C119.3,592.8,112.5,586.2,112.5,575.1"/>
	<path class="st3" d="M162.5,546.6h4.3l-0.1,10.1c3-6.8,9.3-11.1,17.3-11.1c10.1,0,16.8,6.8,16.8,18v28.2h-4.3v-27.5
		c0-9.3-4.3-14.8-13.1-14.8c-9.8,0-16.6,6.4-16.6,16.9v25.3h-4.3V546.6z"/>
	<path class="st3" d="M212.6,569.1c0-13.3,9.4-23.5,22.4-23.5c9.2,0,15.9,5,19.1,11.8v-45.5h4.3v80h-4.3l0.2-11.3
		c-3.2,7-10.7,12.2-19.4,12.2C222,592.6,212.6,582.4,212.6,569.1 M254.5,569.1c0-11.2-7.5-19.6-18.9-19.6
		c-11.2,0-18.4,8.4-18.4,19.6c0,11.2,7.2,19.8,18.4,19.8C247,588.8,254.5,580.3,254.5,569.1"/>
	<path class="st3" d="M302.6,563.4c0-10.2-4.6-14.1-12.1-14.1c-6.9,0-11.6,2.9-14.8,7.8l-3.1-2.2c3.8-5.9,10.2-9.3,18-9.3
		c9.3,0,16.3,5.7,16.3,17.4v28.8h-4.3l0.2-7c-2.9,4.3-7.9,7.9-15.7,7.9c-10.3,0-17.1-4.8-17.1-13.9c0-9,7.9-13.2,16.5-13.2h16V563.4
		z M287.1,569.2c-6.9,0-12.7,2.7-12.7,9.5c0,6.9,4.5,10.1,13.2,10.1c7.5,0,15-4.4,15-11.4v-8.2L287.1,569.2L287.1,569.2z"/>
	<path class="st3" d="M326.2,579.8v-29.6h-7.1v-3.7h7.1v-15.9h4.3v15.9h13.1v3.7h-13.1v29.5c0,6.6,2.3,9.1,6.1,9.1
		c4,0,5.5-1.6,7.2-3.3l2.8,2.7c-2.2,2.5-4.9,4.5-10,4.5C330.8,592.6,326.2,589,326.2,579.8"/>
	<path class="st3" d="M358.3,527c0-2.1,1.8-3.7,3.7-3.7c1.9,0,3.7,1.6,3.7,3.7c0,2.2-1.8,3.6-3.7,3.6
		C360.1,530.7,358.3,529.3,358.3,527 M359.9,546.6h4.3v45.2h-4.3V546.6z"/>
	<path class="st3" d="M377.2,569.1c0-13,10.4-23.5,23.6-23.5c13.2,0,23.4,10.5,23.4,23.5c0,13-10.2,23.6-23.4,23.6
		C387.6,592.6,377.2,582,377.2,569.1 M419.7,569.1c0-11.2-7.7-19.6-18.9-19.6s-19.1,8.4-19.1,19.6c0,11.2,7.9,19.8,19.1,19.8
		S419.7,580.3,419.7,569.1"/>
	<path class="st3" d="M436.5,546.6h4.3l-0.1,10.1c3-6.8,9.3-11.1,17.3-11.1c10.1,0,16.8,6.8,16.8,18v28.2h-4.3v-27.5
		c0-9.3-4.3-14.8-13.1-14.8c-9.8,0-16.6,6.4-16.6,16.9v25.3h-4.3V546.6z"/>
	<path class="st3" d="M2.2,427.9c0-28.3,21.7-48.7,49-48.7c27.1,0,48.9,20.4,48.9,48.7c0,28.3-21.8,48.7-48.9,48.7
		C23.9,476.5,2.2,456.2,2.2,427.9 M84.8,427.9c0-20.2-13.9-35.5-33.8-35.5s-33.9,15.2-33.9,35.5c0,20.2,14.1,35.5,33.9,35.5
		C70.9,463.3,84.8,448.1,84.8,427.9"/>
	<path class="st3" d="M115.3,416.7h14.2l-0.4,10.9c3.8-7.2,10.7-12.2,20.8-12.2c15,0,27.2,12.7,27.2,30.4s-12.3,30.7-27.5,30.7
		c-9.8,0-16.7-4.7-20.1-11.3v39.6h-14.2V416.7z M162.6,445.8c0-10.6-6.4-17.8-16.6-17.8c-10.3,0-17,7.2-17,17.8
		c0,11,6.7,18.2,17,18.2C156.2,464.2,162.6,456.9,162.6,445.8"/>
	<path class="st3" d="M225.4,464.7c7.7,0,13.3-3.1,16.6-6.3l8.2,8.7c-5.5,5.5-13,9.5-24.7,9.5c-20.1,0-33.1-13-33.1-30.5
		c0-17.4,13.7-30.5,31.2-30.5c20,0,31.2,14.8,30.3,35.3h-47.2C208.5,459.2,214.6,464.7,225.4,464.7 M239.8,441
		c-1.2-7.9-6.2-13.8-15.9-13.8c-9.1,0-15.4,5-17,13.8H239.8z"/>
	<path class="st3" d="M269.6,416.7h14.1l-0.3,10.9c3.6-7.7,11-12.2,19.8-12.2c13,0,21.9,9.2,21.9,25.1v34.7h-14.1v-33.6
		c0-8.4-3.9-13.3-12.2-13.3c-9.2,0-15.2,5.6-15.2,15v31.8h-14.1V416.7z"/>
	<path class="st3" d="M340.5,460.5l12-7.4c3.3,6,7.2,10.2,14.2,10.2c7.9,0,13.1-3.8,13.1-14.8v-68.1h14.8v68.3
		c0,18.9-11.3,27.7-27.2,27.7C353.4,476.5,345,469.3,340.5,460.5"/>
	<path class="st3" d="M409.8,456.9l12.2-6.7c4.4,7.4,10.2,13.3,21.7,13.3c9.6,0,16.5-5.2,16.5-13c0-8.2-5.6-11.9-15.9-16.5l-6.3-2.8
		c-13.8-6.2-22.2-13.1-22.2-27.7c0-14.1,10.9-24.1,26.7-24.1c12.6-0.1,21.1,4.7,26.8,14.9l-11.6,7.1c-3.6-6.3-7.8-9.2-15.2-9.2
		c-7.5,0-12.3,4.6-12.3,11c0,7.1,4,10.3,13.7,14.5l6.2,2.8c16.2,7.1,24.8,14.6,24.8,29.9c0,16.6-13,26.2-30.8,26.2
		C426,476.5,415.1,467.6,409.8,456.9"/>
</g>
</svg>
