<?xml version="1.0" encoding="UTF-8" standalone="no"?>
<svg
   xmlns:dc="http://purl.org/dc/elements/1.1/"
   xmlns:cc="http://creativecommons.org/ns#"
   xmlns:rdf="http://www.w3.org/1999/02/22-rdf-syntax-ns#"
   xmlns:svg="http://www.w3.org/2000/svg"
   xmlns="http://www.w3.org/2000/svg"
   xmlns:sodipodi="http://sodipodi.sourceforge.net/DTD/sodipodi-0.dtd"
   xmlns:inkscape="http://www.inkscape.org/namespaces/inkscape"
   sodipodi:docname="openjs_foundation-hex-sticker.svg"
   inkscape:version="1.0beta1 (32d4812, 2019-09-19)"
   version="1.1"
   id="svg7307"
   viewBox="0 0 345.05798 371.25001"
   height="4.125in"
   width="3.8339775in">
  <defs
     id="defs7309" />
  <sodipodi:namedview
     inkscape:document-rotation="0"
     inkscape:window-maximized="0"
     inkscape:window-y="23"
     inkscape:window-x="0"
     inkscape:window-height="1360"
     inkscape:window-width="2504"
     inkscape:guide-bbox="true"
     showguides="true"
     fit-margin-left="1"
     fit-margin-right="1"
     fit-margin-bottom="1"
     fit-margin-top="1"
     units="in"
     showgrid="false"
     inkscape:current-layer="layer2"
     inkscape:document-units="px"
     inkscape:cy="560"
     inkscape:cx="400"
     inkscape:zoom="0.35"
     inkscape:pageshadow="2"
     inkscape:pageopacity="0.0"
     borderopacity="1.0"
     bordercolor="#666666"
     pagecolor="#ffffff"
     id="base">
    <sodipodi:guide
       id="guide8412"
       orientation="0,1"
       position="316.53653,275.81345" />
    <sodipodi:guide
       id="guide8414"
       orientation="0,1"
       position="353.01895,96.303391" />
  </sodipodi:namedview>
  <metadata
     id="metadata7312">
    <rdf:RDF>
      <cc:Work
         rdf:about="">
        <dc:format>image/svg+xml</dc:format>
        <dc:type
           rdf:resource="http://purl.org/dc/dcmitype/StillImage" />
        <dc:title />
      </cc:Work>
    </rdf:RDF>
  </metadata>
  <g
     transform="translate(-209.97101,-189.375)"
     style="display:inline"
     inkscape:label="Background"
     id="layer3"
     inkscape:groupmode="layer">
    <path
       sodipodi:type="star"
       style="color:#000000;display:inline;overflow:visible;visibility:visible;fill:none;fill-opacity:1;fill-rule:nonzero;stroke:#0093d9;stroke-width:1.16023;stroke-linecap:round;stroke-linejoin:miter;stroke-miterlimit:4;stroke-dasharray:2.32046, 4.64092;stroke-dashoffset:7.51718;stroke-opacity:1;marker:none;enable-background:accumulate"
       id="path7936"
       sodipodi:sides="6"
       sodipodi:cx="121.90476"
       sodipodi:cy="126.57602"
       sodipodi:r1="103.56153"
       sodipodi:r2="103.56153"
       sodipodi:arg1="-0.52327829"
       sodipodi:arg2="0.0003204856"
       inkscape:flatsided="true"
       inkscape:rounded="0"
       inkscape:randomized="0"
       d="m 211.60827,74.824 -0.0332,103.56153 -89.70351,51.75202 -89.670315,-51.80951 0.03319,-103.561527 89.703505,-51.752019 z"
       inkscape:transform-center-x="0.34789098"
       inkscape:transform-center-y="-1.5566024"
       transform="matrix(0.86033594,0,0,0.86346354,277.62095,265.70622)" />
    <path
       transform="matrix(0.80621714,0,0,0.809148,284.21829,272.58127)"
       inkscape:transform-center-y="-1.4586807"
       inkscape:transform-center-x="0.32600218"
       d="m 211.60827,74.824 -0.0332,103.56153 -89.70351,51.75202 -89.670315,-51.80951 0.03319,-103.561527 89.703505,-51.752019 z"
       inkscape:randomized="0"
       inkscape:rounded="0"
       inkscape:flatsided="true"
       sodipodi:arg2="0.0003204856"
       sodipodi:arg1="-0.52327829"
       sodipodi:r2="103.56153"
       sodipodi:r1="103.56153"
       sodipodi:cy="126.57602"
       sodipodi:cx="121.90476"
       sodipodi:sides="6"
       id="path8410"
       style="color:#000000;display:inline;overflow:visible;visibility:visible;fill:none;fill-opacity:1;fill-rule:nonzero;stroke:#db3279;stroke-width:1.23811;stroke-linecap:round;stroke-linejoin:miter;stroke-miterlimit:4;stroke-dasharray:none;stroke-dashoffset:7.51718;stroke-opacity:1;marker:none;enable-background:accumulate"
       sodipodi:type="star" />
    <path
       transform="matrix(0.91445474,0,0,0.91777907,271.02361,258.83118)"
       inkscape:transform-center-y="-1.6545161"
       inkscape:transform-center-x="0.3697741"
       d="m 211.60827,74.824 -0.0332,103.56153 -89.70351,51.75202 -89.670315,-51.80951 0.03319,-103.561527 89.703505,-51.752019 z"
       inkscape:randomized="0"
       inkscape:rounded="0"
       inkscape:flatsided="true"
       sodipodi:arg2="0.0003204856"
       sodipodi:arg1="-0.52327829"
       sodipodi:r2="103.56153"
       sodipodi:r1="103.56153"
       sodipodi:cy="126.57602"
       sodipodi:cx="121.90476"
       sodipodi:sides="6"
       id="path8424"
       style="color:#000000;display:inline;overflow:visible;visibility:visible;fill:#ffffff;fill-opacity:1;fill-rule:nonzero;stroke:none;stroke-width:0.204669;stroke-linecap:round;stroke-linejoin:miter;stroke-miterlimit:4;stroke-dasharray:none;stroke-dashoffset:7.51718;stroke-opacity:1;marker:none;enable-background:accumulate"
       sodipodi:type="star" />
    <circle
       id="path852"
       style="fill:#ffff00;stroke:#000000"
       cx="380.81805"
       cy="370.09048"
       r="0.061615959" />
  </g>
  <g
     inkscape:groupmode="layer"
     id="g368"
     inkscape:label="Trim Lines copy"
     style="display:none"
     transform="translate(-209.97101,-189.375)"
     sodipodi:insensitive="true">
    <path
       transform="matrix(0.86033594,0,0,0.86346354,277.62095,265.70622)"
       inkscape:transform-center-y="-1.5566024"
       inkscape:transform-center-x="0.34789098"
       d="m 211.60827,74.824 -0.0332,103.56153 -89.70351,51.75202 -89.670315,-51.80951 0.03319,-103.561527 89.703505,-51.752019 z"
       inkscape:randomized="0"
       inkscape:rounded="0"
       inkscape:flatsided="true"
       sodipodi:arg2="0.0003204856"
       sodipodi:arg1="-0.52327829"
       sodipodi:r2="103.56153"
       sodipodi:r1="103.56153"
       sodipodi:cy="126.57602"
       sodipodi:cx="121.90476"
       sodipodi:sides="6"
       id="path362"
       style="color:#000000;display:inline;overflow:visible;visibility:visible;fill:none;fill-opacity:1;fill-rule:nonzero;stroke:#0093d9;stroke-width:1.16023;stroke-linecap:round;stroke-linejoin:miter;stroke-miterlimit:4;stroke-dasharray:2.32046, 4.64092;stroke-dashoffset:7.51718;stroke-opacity:1;marker:none;enable-background:accumulate"
       sodipodi:type="star" />
    <path
       sodipodi:type="star"
       style="color:#000000;display:inline;overflow:visible;visibility:visible;fill:none;fill-opacity:1;fill-rule:nonzero;stroke:#db3279;stroke-width:1.23811;stroke-linecap:round;stroke-linejoin:miter;stroke-miterlimit:4;stroke-dasharray:none;stroke-dashoffset:7.51718;stroke-opacity:1;marker:none;enable-background:accumulate"
       id="path364"
       sodipodi:sides="6"
       sodipodi:cx="121.90476"
       sodipodi:cy="126.57602"
       sodipodi:r1="103.56153"
       sodipodi:r2="103.56153"
       sodipodi:arg1="-0.52327829"
       sodipodi:arg2="0.0003204856"
       inkscape:flatsided="true"
       inkscape:rounded="0"
       inkscape:randomized="0"
       d="m 211.60827,74.824 -0.0332,103.56153 -89.70351,51.75202 -89.670315,-51.80951 0.03319,-103.561527 89.703505,-51.752019 z"
       inkscape:transform-center-x="0.32600218"
       inkscape:transform-center-y="-1.4586807"
       transform="matrix(0.80621714,0,0,0.809148,284.21829,272.58127)" />
    <path
       sodipodi:type="star"
       style="color:#000000;display:inline;overflow:visible;visibility:visible;fill:none;fill-opacity:1;fill-rule:nonzero;stroke:#000000;stroke-width:1.09157;stroke-linecap:round;stroke-linejoin:miter;stroke-miterlimit:4;stroke-dasharray:none;stroke-dashoffset:7.51718;stroke-opacity:1;marker:none;enable-background:accumulate"
       id="path366"
       sodipodi:sides="6"
       sodipodi:cx="121.90476"
       sodipodi:cy="126.57602"
       sodipodi:r1="103.56153"
       sodipodi:r2="103.56153"
       sodipodi:arg1="-0.52327829"
       sodipodi:arg2="0.0003204856"
       inkscape:flatsided="true"
       inkscape:rounded="0"
       inkscape:randomized="0"
       d="m 211.60827,74.824 -0.0332,103.56153 -89.70351,51.75202 -89.670315,-51.80951 0.03319,-103.561527 89.703505,-51.752019 z"
       inkscape:transform-center-x="0.3697741"
       inkscape:transform-center-y="-1.6545161"
       transform="matrix(0.91445474,0,0,0.91777907,271.02361,258.83118)" />
  </g>
  <g
     transform="translate(8.8506952e-7,3.8647452e-6)"
     inkscape:groupmode="layer"
     id="layer1"
     inkscape:label="Project artwork"
     style="display:inline">
    <g
       id="g4681"
       transform="matrix(0.20714505,0,0,0.20714505,123.11454,114.24238)">
      <linearGradient
         gradientTransform="matrix(1,0,0,-1,0,-468.6172)"
         y2="-772.42468"
         x2="359.87909"
         y1="-529.62872"
         x1="117.083"
         gradientUnits="userSpaceOnUse"
         id="SVGID_1_">
        <stop
           id="stop4638"
           style="stop-color:#0075C9"
           offset="0.2145" />
        <stop
           id="stop4640"
           style="stop-color:#80BC00"
           offset="0.7067" />
        <stop
           id="stop4642"
           style="stop-color:#FDE021"
           offset="1" />
      </linearGradient>
      <path
         id="path4645"
         d="M 391.2,93 239.4,5.3 l -1,-0.6 -1,0.6 -151,87.2 -0.8,0.5 -1,0.6 v 177.6 l 1,0.6 151.9,87.7 1,0.6 1,-0.6 149.8,-86.5 2,-1.1 1,-0.6 V 93.6 Z M 223.2,27.4 186,91.7 h -74.2 z m -43.3,75 -17.4,30.2 -52.2,-30.2 z m -13.5,44.5 61.4,35.5 -61.4,35.5 -20.5,-35.5 z m -9.1,-5.2 -17.4,30.2 -34.9,-60.4 z m -60.7,-23.6 37.2,64.3 -37.2,64.3 c 0,0 0,-128.6 0,-128.6 z m 43.2,74.9 17.4,30.2 -52.2,30.1 z m 22.7,39.2 17.4,30.2 H 110.3 Z M 111.8,273 H 186 l 37.2,64.3 z M 233.1,333.4 198.3,273 h 34.8 z m 0,-71 h -41 L 171.6,226.9 233,191.4 v 71 z m 0,-89.2 -61.4,-35.5 20.5,-35.5 h 40.9 z m 0,-81.5 h -34.8 l 34.8,-60.3 z m 86.4,50 52.2,-30.2 -34.8,60.3 z m 11.3,40.7 -20.5,35.5 -61.3,-35.5 61.4,-35.5 z m -16.6,-49.9 -17.4,-30.2 h 69.6 z M 364.9,91.7 H 290.7 L 253.6,27.4 Z M 243.7,31.4 278.5,91.7 h -34.8 z m 0,71 h 40.9 l 20.5,35.5 -61.4,35.5 z m 0,89.1 61.3,35.5 -20.5,35.4 h -40.9 v -70.9 z m 0,81.5 h 34.8 l -34.8,60.3 z m 9.9,64.3 37.1,-64.3 h 74.2 z m 43.2,-74.9 17.4,-30.2 52.2,30.2 z m 22.7,-39.3 17.4,-30.2 34.8,60.3 z m 60.7,23.6 -37.2,-64.3 37.2,-64.3 z"
         class="st1"
         inkscape:connector-curvature="0"
         style="fill:url(#SVGID_1_)" />
      <g
         id="g4679">
        <polygon
           id="polygon4647"
           points="46,520.4 6.7,520.4 6.7,553.6 42.3,553.6 42.3,557.7 6.7,557.7 6.7,591.8 2.2,591.8 2.2,516.4 46,516.4 "
           class="st2" />
        <path
           id="path4649"
           d="m 53.7,569.1 c 0,-13 10.4,-23.5 23.6,-23.5 13.2,0 23.4,10.5 23.4,23.5 0,13 -10.2,23.6 -23.4,23.6 C 64.1,592.6 53.7,582 53.7,569.1 m 42.5,0 c 0,-11.2 -7.7,-19.6 -18.9,-19.6 -11.2,0 -19.1,8.4 -19.1,19.6 0,11.2 7.9,19.8 19.1,19.8 11.2,0 18.9,-8.6 18.9,-19.8"
           class="st2"
           inkscape:connector-curvature="0" />
        <path
           id="path4651"
           d="m 112.5,575.1 v -28.5 h 4.3 v 27.8 c 0,9.2 4.3,14.4 13,14.4 9.8,0 16.6,-6.6 16.6,-16.9 v -25.3 h 4.3 v 45.2 h -4.3 l 0.1,-10 c -3,6.8 -9.2,10.9 -17.2,10.9 -10,0.1 -16.8,-6.5 -16.8,-17.6"
           class="st2"
           inkscape:connector-curvature="0" />
        <path
           id="path4653"
           d="m 162.5,546.6 h 4.3 l -0.1,10.1 c 3,-6.8 9.3,-11.1 17.3,-11.1 10.1,0 16.8,6.8 16.8,18 v 28.2 h -4.3 v -27.5 c 0,-9.3 -4.3,-14.8 -13.1,-14.8 -9.8,0 -16.6,6.4 -16.6,16.9 v 25.3 h -4.3 z"
           class="st2"
           inkscape:connector-curvature="0" />
        <path
           id="path4655"
           d="m 212.6,569.1 c 0,-13.3 9.4,-23.5 22.4,-23.5 9.2,0 15.9,5 19.1,11.8 v -45.5 h 4.3 v 80 h -4.3 l 0.2,-11.3 c -3.2,7 -10.7,12.2 -19.4,12.2 -12.9,-0.2 -22.3,-10.4 -22.3,-23.7 m 41.9,0 c 0,-11.2 -7.5,-19.6 -18.9,-19.6 -11.2,0 -18.4,8.4 -18.4,19.6 0,11.2 7.2,19.8 18.4,19.8 11.4,-0.1 18.9,-8.6 18.9,-19.8"
           class="st2"
           inkscape:connector-curvature="0" />
        <path
           id="path4657"
           d="m 302.6,563.4 c 0,-10.2 -4.6,-14.1 -12.1,-14.1 -6.9,0 -11.6,2.9 -14.8,7.8 l -3.1,-2.2 c 3.8,-5.9 10.2,-9.3 18,-9.3 9.3,0 16.3,5.7 16.3,17.4 v 28.8 h -4.3 l 0.2,-7 c -2.9,4.3 -7.9,7.9 -15.7,7.9 -10.3,0 -17.1,-4.8 -17.1,-13.9 0,-9 7.9,-13.2 16.5,-13.2 h 16 v -2.2 z m -15.5,5.8 c -6.9,0 -12.7,2.7 -12.7,9.5 0,6.9 4.5,10.1 13.2,10.1 7.5,0 15,-4.4 15,-11.4 v -8.2 z"
           class="st2"
           inkscape:connector-curvature="0" />
        <path
           id="path4659"
           d="m 326.2,579.8 v -29.6 h -7.1 v -3.7 h 7.1 v -15.9 h 4.3 v 15.9 h 13.1 v 3.7 h -13.1 v 29.5 c 0,6.6 2.3,9.1 6.1,9.1 4,0 5.5,-1.6 7.2,-3.3 l 2.8,2.7 c -2.2,2.5 -4.9,4.5 -10,4.5 -5.8,-0.1 -10.4,-3.7 -10.4,-12.9"
           class="st2"
           inkscape:connector-curvature="0" />
        <path
           id="path4661"
           d="m 358.3,527 c 0,-2.1 1.8,-3.7 3.7,-3.7 1.9,0 3.7,1.6 3.7,3.7 0,2.2 -1.8,3.6 -3.7,3.6 -1.9,0.1 -3.7,-1.3 -3.7,-3.6 m 1.6,19.6 h 4.3 v 45.2 h -4.3 z"
           class="st2"
           inkscape:connector-curvature="0" />
        <path
           id="path4663"
           d="m 377.2,569.1 c 0,-13 10.4,-23.5 23.6,-23.5 13.2,0 23.4,10.5 23.4,23.5 0,13 -10.2,23.6 -23.4,23.6 -13.2,-0.1 -23.6,-10.7 -23.6,-23.6 m 42.5,0 c 0,-11.2 -7.7,-19.6 -18.9,-19.6 -11.2,0 -19.1,8.4 -19.1,19.6 0,11.2 7.9,19.8 19.1,19.8 11.2,0 18.9,-8.6 18.9,-19.8"
           class="st2"
           inkscape:connector-curvature="0" />
        <path
           id="path4665"
           d="m 436.5,546.6 h 4.3 l -0.1,10.1 c 3,-6.8 9.3,-11.1 17.3,-11.1 10.1,0 16.8,6.8 16.8,18 v 28.2 h -4.3 v -27.5 c 0,-9.3 -4.3,-14.8 -13.1,-14.8 -9.8,0 -16.6,6.4 -16.6,16.9 v 25.3 h -4.3 z"
           class="st2"
           inkscape:connector-curvature="0" />
        <path
           id="path4667"
           d="m 2.2,427.9 c 0,-28.3 21.7,-48.7 49,-48.7 27.1,0 48.9,20.4 48.9,48.7 0,28.3 -21.8,48.7 -48.9,48.7 -27.3,-0.1 -49,-20.4 -49,-48.7 m 82.6,0 c 0,-20.2 -13.9,-35.5 -33.8,-35.5 -19.9,0 -33.9,15.2 -33.9,35.5 0,20.2 14.1,35.5 33.9,35.5 19.9,-0.1 33.8,-15.3 33.8,-35.5"
           class="st2"
           inkscape:connector-curvature="0" />
        <path
           id="path4669"
           d="m 115.3,416.7 h 14.2 l -0.4,10.9 c 3.8,-7.2 10.7,-12.2 20.8,-12.2 15,0 27.2,12.7 27.2,30.4 0,17.7 -12.3,30.7 -27.5,30.7 -9.8,0 -16.7,-4.7 -20.1,-11.3 v 39.6 h -14.2 z m 47.3,29.1 c 0,-10.6 -6.4,-17.8 -16.6,-17.8 -10.3,0 -17,7.2 -17,17.8 0,11 6.7,18.2 17,18.2 10.2,0.2 16.6,-7.1 16.6,-18.2"
           class="st2"
           inkscape:connector-curvature="0" />
        <path
           id="path4671"
           d="m 225.4,464.7 c 7.7,0 13.3,-3.1 16.6,-6.3 l 8.2,8.7 c -5.5,5.5 -13,9.5 -24.7,9.5 -20.1,0 -33.1,-13 -33.1,-30.5 0,-17.4 13.7,-30.5 31.2,-30.5 20,0 31.2,14.8 30.3,35.3 h -47.2 c 1.8,8.3 7.9,13.8 18.7,13.8 M 239.8,441 c -1.2,-7.9 -6.2,-13.8 -15.9,-13.8 -9.1,0 -15.4,5 -17,13.8 z"
           class="st2"
           inkscape:connector-curvature="0" />
        <path
           id="path4673"
           d="m 269.6,416.7 h 14.1 l -0.3,10.9 c 3.6,-7.7 11,-12.2 19.8,-12.2 13,0 21.9,9.2 21.9,25.1 v 34.7 H 311 v -33.6 c 0,-8.4 -3.9,-13.3 -12.2,-13.3 -9.2,0 -15.2,5.6 -15.2,15 v 31.8 h -14.1 v -58.4 z"
           class="st2"
           inkscape:connector-curvature="0" />
        <path
           id="path4675"
           d="m 340.5,460.5 12,-7.4 c 3.3,6 7.2,10.2 14.2,10.2 7.9,0 13.1,-3.8 13.1,-14.8 v -68.1 h 14.8 v 68.3 c 0,18.9 -11.3,27.7 -27.2,27.7 -14,0.1 -22.4,-7.1 -26.9,-15.9"
           class="st2"
           inkscape:connector-curvature="0" />
        <path
           id="path4677"
           d="m 409.8,456.9 12.2,-6.7 c 4.4,7.4 10.2,13.3 21.7,13.3 9.6,0 16.5,-5.2 16.5,-13 0,-8.2 -5.6,-11.9 -15.9,-16.5 l -6.3,-2.8 c -13.8,-6.2 -22.2,-13.1 -22.2,-27.7 0,-14.1 10.9,-24.1 26.7,-24.1 12.6,-0.1 21.1,4.7 26.8,14.9 l -11.6,7.1 c -3.6,-6.3 -7.8,-9.2 -15.2,-9.2 -7.5,0 -12.3,4.6 -12.3,11 0,7.1 4,10.3 13.7,14.5 l 6.2,2.8 c 16.2,7.1 24.8,14.6 24.8,29.9 0,16.6 -13,26.2 -30.8,26.2 -18.1,-0.1 -29,-9 -34.3,-19.7"
           class="st2"
           inkscape:connector-curvature="0" />
      </g>
    </g>
  </g>
  <g
     transform="translate(-209.97101,-189.375)"
     style="display:none"
     inkscape:label="Preview Without Bleeds"
     id="layer2"
     inkscape:groupmode="layer">
    <path
       inkscape:connector-curvature="0"
       id="rect8416"
       d="M 269.94336,252.9082 V 497.0918 H 495.05664 V 252.9082 Z m 112.58594,32.66992 77.14648,44.73633 -0.0293,89.42188 -77.17578,44.68555 -77.14648,-44.73633 0.0293,-89.42188 z"
       style="opacity:1;fill:#aaaaaa;fill-opacity:1;stroke:none;stroke-width:20.25;stroke-linecap:round;stroke-linejoin:round;stroke-miterlimit:4;stroke-dasharray:none;stroke-dashoffset:6.5;stroke-opacity:1" />
  </g>
  <style
     id="style4636"
     type="text/css">
	.st0{fill:#231F20;}
	.st1{fill:url(#SVGID_1_);}
	.st2{fill:#54565A;}
	.st3{fill:#FFFFFF;}
	.st4{fill:url(#SVGID_2_);}
	.st5{fill:url(#SVGID_3_);}
	.st6{fill:url(#SVGID_4_);}
</style>
</svg>
