<?xml version="1.0" encoding="UTF-8" standalone="no"?>
<svg
   xmlns:dc="http://purl.org/dc/elements/1.1/"
   xmlns:cc="http://creativecommons.org/ns#"
   xmlns:rdf="http://www.w3.org/1999/02/22-rdf-syntax-ns#"
   xmlns:svg="http://www.w3.org/2000/svg"
   xmlns="http://www.w3.org/2000/svg"
   height="314.39999"
   width="272.39999"
   xml:space="preserve"
   viewBox="0 0 272.39999 314.4"
   y="0px"
   x="0px"
   id="ARTWORK"
   version="1.1"><metadata
     id="metadata45"><rdf:RDF><cc:Work
         rdf:about=""><dc:format>image/svg+xml</dc:format><dc:type
           rdf:resource="http://purl.org/dc/dcmitype/StillImage" /><dc:title></dc:title></cc:Work></rdf:RDF></metadata><defs
     id="defs43" /><style
     id="style2"
     type="text/css">
	.st0{fill:#FFFFFF;}
</style><path
     class="st0"
     d="M 271.4,78.1 137,0.5 136.1,0 135.2,0.5 1.6,77.7 0.9,78.1 0,78.6 v 157.2 l 0.9,0.5 134.4,77.6 0.9,0.5 0.9,-0.5 132.6,-76.5 1.8,-1 0.9,-0.5 V 78.6 Z M 122.7,20.1 89.8,77 H 24.1 Z M 84.4,86.4 69,113.1 22.8,86.4 Z m -12,39.4 54.3,31.4 -54.3,31.4 -18.1,-31.4 z m -8,-4.6 L 49,147.9 18.1,94.5 Z M 10.7,100.3 43.6,157.2 10.7,214.1 Z M 48.9,166.6 64.3,193.3 18.1,220 Z M 69,201.3 84.4,228 H 22.8 Z m -44.9,36.1 h 65.7 l 32.9,56.9 z m 107.4,53.4 -30.8,-53.4 h 30.8 z m 0,-62.8 H 95.2 L 77.1,196.6 131.4,165.2 V 228 Z m 0,-78.9 -54.3,-31.4 18.1,-31.4 h 36.2 z m 0,-72.1 h -30.8 l 30.8,-53.4 z m 76.4,44.2 46.2,-26.7 -30.8,53.4 z m 10,36 -18.1,31.4 -54.3,-31.4 54.3,-31.4 z M 203.2,113.1 187.8,86.4 h 61.6 z M 248.1,77 H 182.4 L 149.6,20.1 Z M 140.8,23.6 171.6,77 h -30.8 z m 0,62.8 H 177 l 18.1,31.4 -54.3,31.4 z m 0,78.9 54.3,31.4 L 177,228 h -36.2 z m 0,72.1 h 30.8 l -30.8,53.4 z m 8.8,56.9 32.8,-56.9 h 65.7 z m 38.2,-66.3 15.4,-26.7 46.2,26.7 z m 20.1,-34.8 15.4,-26.7 30.8,53.4 z m 53.7,20.9 -32.9,-56.9 32.9,-56.9 z"
     id="path4"
     style="fill:#ffffff" /></svg>