<?xml version="1.0" encoding="UTF-8" standalone="no"?>
<svg
   xmlns:dc="http://purl.org/dc/elements/1.1/"
   xmlns:cc="http://creativecommons.org/ns#"
   xmlns:rdf="http://www.w3.org/1999/02/22-rdf-syntax-ns#"
   xmlns:svg="http://www.w3.org/2000/svg"
   xmlns="http://www.w3.org/2000/svg"
   viewBox="0 0 166.08 192"
   height="192"
   width="166.08"
   xml:space="preserve"
   id="svg1936"
   version="1.1">
  <metadata
     id="metadata1942">
    <rdf:RDF>
      <cc:Work
         rdf:about="">
        <dc:format>image/svg+xml</dc:format>
        <dc:type
           rdf:resource="http://purl.org/dc/dcmitype/StillImage" />
        <dc:title></dc:title>
      </cc:Work>
    </rdf:RDF>
  </metadata>
  <defs
     id="defs1940">
    <clipPath
       id="clipPath1956"
       clipPathUnits="userSpaceOnUse">
      <path
         id="path1954"
         d="M 0,144 H 124.56 V 0 H 0 Z" />
    </clipPath>
    <clipPath
       id="clipPath1976"
       clipPathUnits="userSpaceOnUse">
      <path
         id="path1974"
         d="M 0,144 H 124.56 V 0 H 0 Z" />
    </clipPath>
  </defs>
  <g
     transform="matrix(1.3333333,0,0,-1.3333333,0,192)"
     id="g1944">
    <g
       transform="translate(1.0801,36.623)"
       id="g1946">
      <path
         id="path1948"
         style="fill:#eeeeee;fill-opacity:1;fill-rule:nonzero;stroke:none"
         d="M 0,0 V 70.753 L 61.274,106.13 122.548,70.753 V 0 L 61.274,-35.376 Z" />
    </g>
    <g
       id="g1950">
      <g
         clip-path="url(#clipPath1956)"
         id="g1952">
        <g
           transform="translate(1.0801,36.623)"
           id="g1958">
          <path
             id="path1960"
             style="fill:none;stroke:#ea5906;stroke-width:2;stroke-linecap:butt;stroke-linejoin:miter;stroke-miterlimit:10;stroke-dasharray:none;stroke-opacity:1"
             d="M 0,0 V 70.753 L 61.274,106.13 122.548,70.753 V 0 L 61.274,-35.376 Z" />
        </g>
      </g>
    </g>
    <path
       id="path1962"
       style="fill:#ea5906;fill-opacity:1;fill-rule:nonzero;stroke:none"
       d="m 41.783,86.172 h 1.742 v 1.742 h -1.742 z" />
    <path
       id="path1964"
       style="fill:#ea5906;fill-opacity:1;fill-rule:nonzero;stroke:none"
       d="m 44.709,86.172 h 1.742 v 1.742 h -1.742 z" />
    <path
       id="path1966"
       style="fill:#ea5906;fill-opacity:1;fill-rule:nonzero;stroke:none"
       d="m 47.635,86.172 h 1.742 v 1.742 h -1.742 z" />
    <path
       id="path1968"
       style="fill:#ea5906;fill-opacity:1;fill-rule:nonzero;stroke:none"
       d="m 50.562,86.172 h 1.742 v 1.742 h -1.742 z" />
    <g
       id="g1970">
      <g
         clip-path="url(#clipPath1976)"
         id="g1972">
        <g
           transform="translate(41.3984,102.0898)"
           id="g1978">
          <path
             id="path1980"
             style="fill:#ea5906;fill-opacity:1;fill-rule:nonzero;stroke:none"
             d="m 0,0 v 10.795 c -2.981,0 -5.398,-2.417 -5.398,-5.398 C -5.398,2.417 -2.981,0 0,0" />
        </g>
        <g
           transform="translate(88.5586,107.4873)"
           id="g1982">
          <path
             id="path1984"
             style="fill:#ea5906;fill-opacity:1;fill-rule:nonzero;stroke:none"
             d="M 0,0 C 0,2.981 -2.416,5.397 -5.397,5.397 V -5.397 C -2.416,-5.397 0,-2.981 0,0" />
        </g>
        <g
           transform="translate(54.269,112.3623)"
           id="g1986">
          <path
             id="path1988"
             style="fill:#ea5906;fill-opacity:1;fill-rule:nonzero;stroke:none"
             d="m 0,0 c 2.47,0 4.479,-2.009 4.479,-4.479 0,-2.47 -2.009,-4.479 -4.479,-4.479 -2.47,0 -4.48,2.009 -4.48,4.479 C -4.48,-2.009 -2.47,0 0,0 m 0,-10.003 c 3.046,0 5.524,2.478 5.524,5.524 0,3.046 -2.478,5.524 -5.524,5.524 -3.046,0 -5.525,-2.478 -5.525,-5.524 0,-3.046 2.479,-5.524 5.525,-5.524" />
        </g>
        <g
           transform="translate(54.2686,104.1353)"
           id="g1990">
          <path
             id="path1992"
             style="fill:#ea5906;fill-opacity:1;fill-rule:nonzero;stroke:none"
             d="M 0,0 C 2.07,0 3.748,1.678 3.748,3.748 3.748,5.818 2.07,7.496 0,7.496 -2.07,7.496 -3.748,5.818 -3.748,3.748 -3.748,1.678 -2.07,0 0,0" />
        </g>
        <g
           transform="translate(70.292,112.3623)"
           id="g1994">
          <path
             id="path1996"
             style="fill:#ea5906;fill-opacity:1;fill-rule:nonzero;stroke:none"
             d="m 0,0 c 2.469,0 4.479,-2.009 4.479,-4.479 0,-2.47 -2.01,-4.479 -4.479,-4.479 -2.471,0 -4.48,2.009 -4.48,4.479 C -4.48,-2.009 -2.471,0 0,0 m 0,-10.003 c 3.046,0 5.523,2.478 5.523,5.524 0,3.046 -2.477,5.524 -5.523,5.524 -3.047,0 -5.525,-2.478 -5.525,-5.524 0,-3.046 2.478,-5.524 5.525,-5.524" />
        </g>
        <g
           transform="translate(70.291,104.1353)"
           id="g1998">
          <path
             id="path2000"
             style="fill:#ea5906;fill-opacity:1;fill-rule:nonzero;stroke:none"
             d="M 0,0 C 2.07,0 3.748,1.678 3.748,3.748 3.748,5.818 2.07,7.496 0,7.496 -2.069,7.496 -3.748,5.818 -3.748,3.748 -3.748,1.678 -2.069,0 0,0" />
        </g>
        <path
           id="path2002"
           style="fill:#ea5906;fill-opacity:1;fill-rule:nonzero;stroke:none"
           d="m 79.521,110.17 h -1.742 v -1.741 h 1.742 z" />
        <path
           id="path2004"
           style="fill:#ea5906;fill-opacity:1;fill-rule:nonzero;stroke:none"
           d="m 79.521,107.663 h -1.742 v -1.742 h 1.742 z" />
        <g
           transform="translate(43.8892,116.3335)"
           id="g2006">
          <path
             id="path2008"
             style="fill:#ea5906;fill-opacity:1;fill-rule:nonzero;stroke:none"
             d="M 0,0 C 0,1.71 1.392,3.102 3.102,3.102 H 33.679 C 35.39,3.102 36.782,1.71 36.782,0 v -13.545 c 0,-1.71 -1.392,-3.102 -3.103,-3.102 H 3.102 c -1.71,0 -3.102,1.392 -3.102,3.102 z m 3.102,-17.692 h 30.577 c 2.281,0 4.148,1.866 4.148,4.147 V 0 c 0,2.281 -1.867,4.147 -4.148,4.147 H 3.102 C 0.821,4.147 -1.045,2.281 -1.045,0 v -13.545 c 0,-2.281 1.866,-4.147 4.147,-4.147" />
        </g>
        <g
           transform="translate(68.6963,51.5156)"
           id="g2010">
          <path
             id="path2012"
             style="fill:#ea5906;fill-opacity:1;fill-rule:nonzero;stroke:none"
             d="m 0,0 h 11.277 c 0.52,0 0.941,0.421 0.941,0.94 0,0.519 -0.421,0.941 -0.941,0.941 L 0,1.881 C -0.52,1.881 -0.94,1.459 -0.94,0.94 -0.94,0.421 -0.52,0 0,0" />
        </g>
        <g
           transform="translate(68.6963,48.6934)"
           id="g2014">
          <path
             id="path2016"
             style="fill:#ea5906;fill-opacity:1;fill-rule:nonzero;stroke:none"
             d="m 0,0 h 3.765 c 0.519,0 0.94,0.421 0.94,0.94 0,0.52 -0.421,0.941 -0.94,0.941 L 0,1.881 C -0.52,1.881 -0.94,1.46 -0.94,0.94 -0.94,0.421 -0.52,0 0,0" />
        </g>
        <g
           transform="translate(68.6963,54.3369)"
           id="g2018">
          <path
             id="path2020"
             style="fill:#ea5906;fill-opacity:1;fill-rule:nonzero;stroke:none"
             d="m 0,0 h 11.277 c 0.52,0 0.941,0.421 0.941,0.94 0,0.52 -0.421,0.941 -0.941,0.941 L 0,1.881 C -0.52,1.881 -0.94,1.46 -0.94,0.94 -0.94,0.421 -0.52,0 0,0" />
        </g>
        <g
           transform="translate(51.6899,66.8789)"
           id="g2022">
          <path
             id="path2024"
             style="fill:#ea5906;fill-opacity:1;fill-rule:nonzero;stroke:none"
             d="m 0,0 c 2.531,0 4.345,2.049 4.345,4.58 v 0.029 c 0,2.531 -1.844,4.609 -4.374,4.609 -2.531,0 -4.346,-2.049 -4.346,-4.58 V 4.609 C -4.375,2.078 -2.531,0 0,0" />
        </g>
        <g
           transform="translate(101.4189,43.6514)"
           id="g2026">
          <path
             id="path2028"
             style="fill:#ea5906;fill-opacity:1;fill-rule:nonzero;stroke:none"
             d="m 0,0 c -0.378,-0.381 -0.886,-0.565 -1.55,-0.565 -0.736,0 -1.209,0.199 -1.52,0.529 0.443,0.097 1.013,0.316 1.392,0.817 0.393,0.519 0.476,1.192 0.247,2 -0.081,0.286 -0.147,0.511 -0.204,0.703 -0.238,0.802 -0.302,1.023 -0.574,2.951 0.866,0.169 1.652,0.455 2.316,0.83 C 0.164,5.212 0.641,2.302 0.713,1.868 0.707,1.666 0.642,0.645 0,0 M -3.683,2.161 C -3.691,2.331 -3.699,2.486 -3.712,2.62 -3.813,3.673 -4.391,4.31 -5.256,4.324 -6.179,4.334 -6.662,3.812 -7.033,3.246 -7.1,3.148 -7.171,3.068 -7.246,2.997 c -0.156,0.119 -0.32,0.28 -0.386,0.467 -0.051,0.143 -0.036,0.287 0.046,0.451 0.215,0.429 0.577,0.822 0.96,1.239 0.355,0.385 0.718,0.782 1.001,1.241 0.51,-0.086 1.046,-0.133 1.598,-0.133 0.265,0 0.526,0.011 0.783,0.032 0.283,-2.013 0.357,-2.265 0.607,-3.106 0.056,-0.189 0.121,-0.41 0.2,-0.691 C -2.302,2.022 -2.326,1.658 -2.509,1.414 -2.748,1.096 -3.241,0.979 -3.543,0.945 -3.625,1.312 -3.66,1.726 -3.683,2.161 m -5.508,0.685 c -0.263,0.155 -0.425,0.366 -0.482,0.626 -0.104,0.479 0.131,1.148 0.679,1.933 0.478,0.685 0.71,1.32 0.798,1.879 0.5,-0.286 1.071,-0.522 1.694,-0.695 C -6.723,6.285 -6.983,6 -7.241,5.72 -7.646,5.279 -8.066,4.823 -8.333,4.289 -8.516,3.925 -8.546,3.544 -8.421,3.188 c 0.078,-0.222 0.206,-0.412 0.35,-0.569 -0.493,-0.05 -0.957,0.13 -1.12,0.227 m -2.466,38.17 v 6.306 c 1.112,-0.212 3.401,-0.902 5.584,-2.439 3.371,-2.373 5.08,-5.664 5.08,-9.781 V 14.447 H -5.8 v 18.482 c 0,2.433 -0.828,4.824 -2.46,6.284 -0.989,0.884 -2.179,1.448 -3.397,1.803 m -5.696,0.425 h -43.573 v 5.17 c 0,2.281 1.866,4.147 4.147,4.147 h 35.28 c 2.281,0 4.146,-1.866 4.146,-4.147 z m 0,-13.427 c -0.981,0.726 -1.835,0.975 -3.103,0.945 -1.552,-0.036 -2.876,-1.252 -3.859,-2.357 -0.725,-0.813 -1.473,-1.654 -2.102,-1.654 -0.404,0 -1.034,0.5 -1.702,1.03 -1.323,1.049 -3.138,2.487 -6.037,2.626 -2.741,0.133 -4.767,-1.998 -6.054,-3.995 v 9.274 h 22.857 z m 0,-6.252 h -22.28 c 0.283,0.601 0.69,1.377 1.21,2.138 0.915,1.337 2.382,2.914 4.176,2.826 2.296,-0.111 3.711,-1.233 4.96,-2.223 0.932,-0.738 1.81,-1.436 2.87,-1.436 1.473,0 2.553,1.214 3.506,2.285 0.756,0.848 1.544,1.639 2.246,1.726 0.87,0.109 1.942,-0.09 3.312,-1.649 z m -32.376,11.371 c 3.102,0 5.135,-2.473 5.135,-5.267 0.015,-0.015 0.015,-0.015 0,-0.03 0,-2.794 -2.063,-5.296 -5.164,-5.296 -3.102,0 -5.136,2.473 -5.136,5.267 v 0.029 c 0,2.795 2.063,5.297 5.165,5.297 m -9.204,-11.239 h -0.716 l 4.818,11.488 h 0.717 z m -1.754,11.063 h 0.761 V 22.716 h -0.761 z M -17.353,8.092 c 0,-2.28 -1.865,-4.147 -4.146,-4.147 h -21.56 c 2.338,0.403 4.123,2.443 4.123,4.894 0,2.739 -2.228,4.968 -4.966,4.968 -2.74,0 -4.968,-2.229 -4.968,-4.968 0,-2.451 1.786,-4.491 4.124,-4.894 h -8.728 c 2.346,0.395 4.141,2.438 4.141,4.894 0,2.739 -2.229,4.968 -4.967,4.968 -2.74,0 -4.968,-2.229 -4.968,-4.968 0,-2.456 1.794,-4.498 4.141,-4.894 h -1.652 c -2.281,0 -4.147,1.867 -4.147,4.147 v 6.18 h 43.573 z m -3.334,-6.968 h 1.315 v -11.625 h -1.315 z m 4.229,-12.67 c 0.324,-0.073 2.492,-0.648 3.366,-2.891 h -12.367 c -0.217,0.972 -0.684,1.874 -1.185,2.485 -0.124,0.152 -0.251,0.287 -0.378,0.406 z m 3.677,-4.128 h -12.554 c 0.007,0.204 -10e-4,0.407 -0.021,0.611 h 12.461 c 0.047,-0.194 0.086,-0.396 0.114,-0.611 m -14.454,7.75 v -2.577 h -1.428 V 1.124 h 1.428 v -6.853 h -0.488 v -2.195 z m -2.356,-6.556 c 0.01,1.078 0.23,1.894 0.629,2.291 0.175,0.172 0.373,0.248 0.613,0.229 0.187,-0.015 0.521,-0.194 0.897,-0.654 0.558,-0.681 1.098,-1.869 1.074,-2.988 z M -44.75,7.957 c 0.185,-0.184 0.425,-0.275 0.666,-0.275 0.24,0 0.481,0.091 0.665,0.275 l 2.883,2.884 c 0.35,-0.587 0.556,-1.27 0.556,-2.002 0,-2.162 -1.76,-3.922 -3.922,-3.922 -2.163,0 -3.923,1.76 -3.923,3.922 0,2.163 1.76,3.923 3.923,3.923 0.75,0 1.449,-0.216 2.045,-0.582 L -44.75,9.287 c -0.367,-0.367 -0.367,-0.963 0,-1.33 m -6.379,-13.686 v 6.853 h 1.428 v -11.625 h -1.428 v 2.577 h 0.488 v 2.195 z m -0.858,-9.873 c -0.024,1.119 0.516,2.307 1.074,2.988 0.376,0.46 0.71,0.639 0.897,0.654 0.24,0.019 0.438,-0.057 0.613,-0.229 0.4,-0.397 0.62,-1.213 0.629,-2.291 z M -54.301,9.85 c -0.519,0 -0.94,-0.421 -0.94,-0.941 V 5.036 c -1.709,0.423 -2.982,1.966 -2.982,3.803 0,2.163 1.76,3.923 3.923,3.923 2.162,0 3.922,-1.76 3.922,-3.923 0,-1.838 -1.273,-3.381 -2.982,-3.803 v 3.873 c 0,0.52 -0.421,0.941 -0.941,0.941 m -4.691,-8.726 h 1.315 v -11.625 h -1.315 z m 6.086,-15.561 h -12.367 c 0.874,2.243 3.042,2.818 3.366,2.891 h 10.565 c -0.128,-0.119 -0.255,-0.254 -0.38,-0.406 -0.5,-0.611 -0.967,-1.513 -1.184,-2.485 m -0.124,-1.237 h -12.553 c 0.027,0.215 0.066,0.417 0.113,0.611 h 12.462 c -0.02,-0.204 -0.029,-0.407 -0.022,-0.611 m -13.591,56.69 c -1.217,-0.355 -2.408,-0.919 -3.396,-1.803 -1.633,-1.46 -2.461,-3.851 -2.461,-6.284 V 14.447 h -4.807 v 20.655 c 0,4.117 1.709,7.408 5.08,9.781 2.183,1.537 4.472,2.227 5.584,2.439 z M -69.284,5.405 c 0.548,-0.785 0.784,-1.454 0.68,-1.933 -0.057,-0.26 -0.219,-0.471 -0.483,-0.626 -0.163,-0.097 -0.627,-0.277 -1.119,-0.227 0.143,0.157 0.271,0.347 0.349,0.569 0.125,0.356 0.095,0.737 -0.088,1.101 -0.266,0.534 -0.686,0.99 -1.092,1.431 -0.257,0.28 -0.519,0.565 -0.739,0.869 0.624,0.173 1.194,0.409 1.694,0.695 0.088,-0.559 0.32,-1.194 0.798,-1.879 m -1.362,-1.941 c -0.065,-0.187 -0.229,-0.348 -0.386,-0.467 -0.074,0.071 -0.147,0.151 -0.212,0.249 -0.372,0.566 -0.855,1.088 -1.778,1.078 -0.865,-0.014 -1.442,-0.651 -1.543,-1.704 -0.013,-0.134 -0.021,-0.289 -0.03,-0.459 -0.022,-0.435 -0.057,-0.849 -0.14,-1.216 -0.302,0.034 -0.795,0.151 -1.034,0.469 -0.182,0.244 -0.207,0.608 -0.073,1.083 0.08,0.281 0.145,0.502 0.201,0.691 0.25,0.841 0.325,1.093 0.607,3.106 0.257,-0.021 0.518,-0.032 0.784,-0.032 0.552,0 1.087,0.047 1.597,0.133 0.284,-0.459 0.646,-0.856 1.001,-1.241 0.383,-0.417 0.745,-0.81 0.96,-1.239 0.082,-0.164 0.097,-0.308 0.046,-0.451 m -6.081,-4.029 c -0.665,0 -1.172,0.184 -1.55,0.565 -0.642,0.645 -0.707,1.666 -0.714,1.868 0.073,0.434 0.549,3.344 0.606,5.397 0.663,-0.375 1.45,-0.661 2.316,-0.83 -0.271,-1.928 -0.336,-2.149 -0.574,-2.951 -0.057,-0.192 -0.123,-0.417 -0.204,-0.703 -0.229,-0.808 -0.146,-1.481 0.247,-2 0.378,-0.501 0.95,-0.72 1.392,-0.817 -0.311,-0.33 -0.784,-0.529 -1.519,-0.529 M 1.152,8.022 c 0.69,0.65 1.094,1.434 1.094,2.28 0,1.095 -0.678,2.088 -1.776,2.816 v 21.984 c 0,10.105 -9.347,13.243 -12.127,13.697 v 0.425 c 0,2.28 -1.866,4.147 -4.147,4.147 h -46.67 c -2.28,0 -4.147,-1.867 -4.147,-4.147 V 48.799 C -69.402,48.345 -78.748,45.207 -78.748,35.102 V 13.118 c -1.099,-0.728 -1.776,-1.721 -1.776,-2.816 0,-0.846 0.404,-1.63 1.094,-2.28 0.073,-1.608 -0.392,-4.813 -0.599,-6.027 l -0.007,-0.081 c -0.001,-0.065 -0.007,-1.615 1.011,-2.644 0.577,-0.584 1.35,-0.88 2.298,-0.88 2.987,0 3.114,2.511 3.175,3.718 0.008,0.153 0.015,0.291 0.027,0.412 0.047,0.499 0.223,0.754 0.52,0.759 h 0.028 c 0.318,0 0.524,-0.096 0.863,-0.613 0.942,-1.393 2.647,-1.259 3.559,-0.721 0.516,0.306 0.852,0.757 0.972,1.305 0.169,0.782 -0.115,1.709 -0.844,2.754 -0.564,0.807 -0.681,1.502 -0.642,2.02 0.689,0.649 1.092,1.433 1.092,2.278 0,1.097 -0.681,2.093 -1.784,2.821 v 19.806 c 0,1.65 0.509,2.279 1.555,3.214 0.456,0.408 0.998,0.637 1.585,0.74 V 5.271 c 0,-2.281 1.867,-4.147 4.147,-4.147 h 2.855 v -11.625 h -2.39 l -0.048,-0.009 c -0.041,-0.007 -4.091,-0.807 -4.576,-5.161 v -4.461 h 14.442 l 4.441,1.551 v 3.377 c 0.109,1.743 -0.202,3.036 -0.906,3.744 V 1.124 h 18.947 V -11.46 c -0.703,-0.708 -1.016,-2.001 -0.905,-3.744 v -3.377 l 4.441,-1.551 h 14.442 v 4.461 c -0.485,4.354 -4.536,5.154 -4.578,5.161 l -0.046,0.009 h -2.39 V 1.124 h 2.941 c 2.281,0 4.147,1.866 4.147,4.147 v 31.61 c 0.587,-0.103 1.129,-0.33 1.586,-0.738 1.046,-0.935 1.554,-1.564 1.554,-3.214 V 13.123 c -1.103,-0.728 -1.784,-1.724 -1.784,-2.821 0,-0.845 0.405,-1.629 1.093,-2.278 0.038,-0.518 -0.079,-1.213 -0.643,-2.02 -0.729,-1.045 -1.013,-1.972 -0.843,-2.754 0.119,-0.548 0.455,-0.999 0.971,-1.305 0.911,-0.538 2.618,-0.672 3.559,0.721 0.339,0.517 0.545,0.613 0.862,0.613 h 0.029 c 0.297,-0.005 0.472,-0.26 0.521,-0.759 0.012,-0.121 0.018,-0.259 0.025,-0.412 0.062,-1.207 0.189,-3.718 3.177,-3.718 0.947,0 1.721,0.296 2.297,0.88 1.019,1.029 1.012,2.579 1.012,2.644 L 1.751,1.995 C 1.545,3.209 1.08,6.414 1.152,8.022" />
        </g>
      </g>
    </g>
  </g>
</svg>
