<?xml version="1.0" encoding="UTF-8"?>
<!DOCTYPE svg PUBLIC "-//W3C//DTD SVG 1.1//EN" "http://www.w3.org/Graphics/SVG/1.1/DTD/svg11.dtd">
<svg version="1.1" xmlns="http://www.w3.org/2000/svg" xmlns:xlink="http://www.w3.org/1999/xlink" x="0" y="0" width="1600" height="1200" viewBox="0, 0, 1600, 1200">
  <g id="Layer_1">
    <g>
      <g>
        <path d="M545.184,650.373 L277.073,650.373 L213.129,802.047 L78.821,802.047 L347.436,171.706 L476.575,171.706 L734.866,802.047 L610.883,802.047 L610.883,802.047 L545.184,650.373 z M412.114,324.293 L326.654,528.696 L497.466,528.696 L497.466,528.696 L412.114,324.293 z" fill="#007FFF" id="a2bU1ztd5T"/>
      </g>
      <g>
        <path d="M605.366,171.502 L739.673,171.502 C873.44,497.847 957.037,701.817 990.475,783.4 C1038.398,900.317 952.433,1028.498 826.107,1028.498 C801.731,1028.498 788.281,1028.498 712.617,1028.498 C707.533,1028.498 702.941,1025.433 700.994,1020.744 C694.864,1006.017 679.563,969.229 655.091,910.343 C724.757,910.343 768.304,910.343 785.721,910.343 C845.014,910.343 885.303,850.124 862.682,795.302 C828.378,712.132 742.606,504.194 605.366,171.502 z" fill="#00A86B" id="cnO7FnaYc"/>
      </g>
      <g>
        <path d="M865.134,171.502 L999.442,171.502 L1194.917,641.561 L1391.919,171.502 L1521.179,171.502 L1262.901,801.842 L1126.718,801.842 L865.134,171.502 z" fill="#E34234" id="d4Wz1t3JCA"/>
      </g>
    </g>
  </g>
</svg>
