<?xml version="1.0" encoding="UTF-8" standalone="no"?>
<svg
   xmlns:dc="http://purl.org/dc/elements/1.1/"
   xmlns:cc="http://creativecommons.org/ns#"
   xmlns:rdf="http://www.w3.org/1999/02/22-rdf-syntax-ns#"
   xmlns:svg="http://www.w3.org/2000/svg"
   xmlns="http://www.w3.org/2000/svg"
   xmlns:sodipodi="http://sodipodi.sourceforge.net/DTD/sodipodi-0.dtd"
   xmlns:inkscape="http://www.inkscape.org/namespaces/inkscape"
   sodipodi:docname="esprima-hex-sticker.svg"
   inkscape:version="1.0beta1 (32d4812, 2019-09-19)"
   version="1.1"
   id="svg7307"
   viewBox="0 0 405.11326 424.1836"
   height="4.713151in"
   width="4.5012584in"
   inkscape:export-filename="/Users/brian/Documents/GitHub/openjs/artwork/projects/esprima/esprima-hex-sticker.png"
   inkscape:export-xdpi="97"
   inkscape:export-ydpi="97">
  <defs
     id="defs7309" />
  <sodipodi:namedview
     inkscape:document-rotation="0"
     inkscape:window-maximized="0"
     inkscape:window-y="23"
     inkscape:window-x="0"
     inkscape:window-height="1360"
     inkscape:window-width="2504"
     inkscape:guide-bbox="true"
     showguides="true"
     fit-margin-left="1"
     fit-margin-right="1"
     fit-margin-bottom="1"
     fit-margin-top="1"
     units="in"
     showgrid="false"
     inkscape:current-layer="layer1"
     inkscape:document-units="px"
     inkscape:cy="237.77755"
     inkscape:cx="223.23303"
     inkscape:zoom="1.4919075"
     inkscape:pageshadow="2"
     inkscape:pageopacity="0.0"
     borderopacity="1.0"
     bordercolor="#666666"
     pagecolor="#ffffff"
     id="base">
    <sodipodi:guide
       id="guide8412"
       orientation="0,1"
       position="346.56418,302.28024" />
    <sodipodi:guide
       id="guide8414"
       orientation="0,1"
       position="383.0466,122.77018" />
  </sodipodi:namedview>
  <metadata
     id="metadata7312">
    <rdf:RDF>
      <cc:Work
         rdf:about="">
        <dc:format>image/svg+xml</dc:format>
        <dc:type
           rdf:resource="http://purl.org/dc/dcmitype/StillImage" />
        <dc:title />
      </cc:Work>
    </rdf:RDF>
  </metadata>
  <g
     transform="translate(-179.94336,-162.9082)"
     style="display:inline"
     inkscape:label="Background"
     id="layer3"
     inkscape:groupmode="layer">
    <path
       sodipodi:type="star"
       style="color:#000000;display:inline;overflow:visible;visibility:visible;fill:none;fill-opacity:1;fill-rule:nonzero;stroke:#0093d9;stroke-width:1.16023;stroke-linecap:round;stroke-linejoin:miter;stroke-miterlimit:4;stroke-dasharray:2.32046, 4.64092;stroke-dashoffset:7.51718;stroke-opacity:1;marker:none;enable-background:accumulate"
       id="path7936"
       sodipodi:sides="6"
       sodipodi:cx="121.90476"
       sodipodi:cy="126.57602"
       sodipodi:r1="103.56153"
       sodipodi:r2="103.56153"
       sodipodi:arg1="-0.52327829"
       sodipodi:arg2="0.0003204856"
       inkscape:flatsided="true"
       inkscape:rounded="0"
       inkscape:randomized="0"
       d="m 211.60827,74.824 -0.0332,103.56153 -89.70351,51.75202 -89.670315,-51.80951 0.03319,-103.561527 89.703505,-51.752019 z"
       inkscape:transform-center-x="0.34789098"
       inkscape:transform-center-y="-1.5566024"
       transform="matrix(0.86033594,0,0,0.86346354,277.62095,265.70622)" />
    <path
       transform="matrix(0.80621714,0,0,0.809148,284.21829,272.58127)"
       inkscape:transform-center-y="-1.4586807"
       inkscape:transform-center-x="0.32600218"
       d="m 211.60827,74.824 -0.0332,103.56153 -89.70351,51.75202 -89.670315,-51.80951 0.03319,-103.561527 89.703505,-51.752019 z"
       inkscape:randomized="0"
       inkscape:rounded="0"
       inkscape:flatsided="true"
       sodipodi:arg2="0.0003204856"
       sodipodi:arg1="-0.52327829"
       sodipodi:r2="103.56153"
       sodipodi:r1="103.56153"
       sodipodi:cy="126.57602"
       sodipodi:cx="121.90476"
       sodipodi:sides="6"
       id="path8410"
       style="color:#000000;display:inline;overflow:visible;visibility:visible;fill:none;fill-opacity:1;fill-rule:nonzero;stroke:#db3279;stroke-width:1.23811;stroke-linecap:round;stroke-linejoin:miter;stroke-miterlimit:4;stroke-dasharray:none;stroke-dashoffset:7.51718;stroke-opacity:1;marker:none;enable-background:accumulate"
       sodipodi:type="star" />
    <path
       transform="matrix(0.91445474,0,0,0.91777907,271.02361,258.83118)"
       inkscape:transform-center-y="-1.6545161"
       inkscape:transform-center-x="0.3697741"
       d="m 211.60827,74.824 -0.0332,103.56153 -89.70351,51.75202 -89.670315,-51.80951 0.03319,-103.561527 89.703505,-51.752019 z"
       inkscape:randomized="0"
       inkscape:rounded="0"
       inkscape:flatsided="true"
       sodipodi:arg2="0.0003204856"
       sodipodi:arg1="-0.52327829"
       sodipodi:r2="103.56153"
       sodipodi:r1="103.56153"
       sodipodi:cy="126.57602"
       sodipodi:cx="121.90476"
       sodipodi:sides="6"
       id="path8424"
       style="color:#000000;display:inline;overflow:visible;visibility:visible;fill:#ffffff;fill-opacity:1;fill-rule:nonzero;stroke:none;stroke-width:0.204669;stroke-linecap:round;stroke-linejoin:miter;stroke-miterlimit:4;stroke-dasharray:none;stroke-dashoffset:7.51718;stroke-opacity:1;marker:none;enable-background:accumulate"
       sodipodi:type="star" />
    <circle
       id="path852"
       style="fill:#ffff00;stroke:#000000"
       cx="380.81805"
       cy="370.09048"
       r="0.061615959" />
  </g>
  <g
     inkscape:groupmode="layer"
     id="g368"
     inkscape:label="Trim Lines copy"
     style="display:none"
     transform="translate(-179.94336,-162.9082)"
     sodipodi:insensitive="true">
    <path
       transform="matrix(0.86033594,0,0,0.86346354,277.62095,265.70622)"
       inkscape:transform-center-y="-1.5566024"
       inkscape:transform-center-x="0.34789098"
       d="m 211.60827,74.824 -0.0332,103.56153 -89.70351,51.75202 -89.670315,-51.80951 0.03319,-103.561527 89.703505,-51.752019 z"
       inkscape:randomized="0"
       inkscape:rounded="0"
       inkscape:flatsided="true"
       sodipodi:arg2="0.0003204856"
       sodipodi:arg1="-0.52327829"
       sodipodi:r2="103.56153"
       sodipodi:r1="103.56153"
       sodipodi:cy="126.57602"
       sodipodi:cx="121.90476"
       sodipodi:sides="6"
       id="path362"
       style="color:#000000;display:inline;overflow:visible;visibility:visible;fill:none;fill-opacity:1;fill-rule:nonzero;stroke:#0093d9;stroke-width:1.16023;stroke-linecap:round;stroke-linejoin:miter;stroke-miterlimit:4;stroke-dasharray:2.32046, 4.64092;stroke-dashoffset:7.51718;stroke-opacity:1;marker:none;enable-background:accumulate"
       sodipodi:type="star" />
    <path
       sodipodi:type="star"
       style="color:#000000;display:inline;overflow:visible;visibility:visible;fill:none;fill-opacity:1;fill-rule:nonzero;stroke:#db3279;stroke-width:1.23811;stroke-linecap:round;stroke-linejoin:miter;stroke-miterlimit:4;stroke-dasharray:none;stroke-dashoffset:7.51718;stroke-opacity:1;marker:none;enable-background:accumulate"
       id="path364"
       sodipodi:sides="6"
       sodipodi:cx="121.90476"
       sodipodi:cy="126.57602"
       sodipodi:r1="103.56153"
       sodipodi:r2="103.56153"
       sodipodi:arg1="-0.52327829"
       sodipodi:arg2="0.0003204856"
       inkscape:flatsided="true"
       inkscape:rounded="0"
       inkscape:randomized="0"
       d="m 211.60827,74.824 -0.0332,103.56153 -89.70351,51.75202 -89.670315,-51.80951 0.03319,-103.561527 89.703505,-51.752019 z"
       inkscape:transform-center-x="0.32600218"
       inkscape:transform-center-y="-1.4586807"
       transform="matrix(0.80621714,0,0,0.809148,284.21829,272.58127)" />
    <path
       sodipodi:type="star"
       style="color:#000000;display:inline;overflow:visible;visibility:visible;fill:none;fill-opacity:1;fill-rule:nonzero;stroke:#000000;stroke-width:1.09157;stroke-linecap:round;stroke-linejoin:miter;stroke-miterlimit:4;stroke-dasharray:none;stroke-dashoffset:7.51718;stroke-opacity:1;marker:none;enable-background:accumulate"
       id="path366"
       sodipodi:sides="6"
       sodipodi:cx="121.90476"
       sodipodi:cy="126.57602"
       sodipodi:r1="103.56153"
       sodipodi:r2="103.56153"
       sodipodi:arg1="-0.52327829"
       sodipodi:arg2="0.0003204856"
       inkscape:flatsided="true"
       inkscape:rounded="0"
       inkscape:randomized="0"
       d="m 211.60827,74.824 -0.0332,103.56153 -89.70351,51.75202 -89.670315,-51.80951 0.03319,-103.561527 89.703505,-51.752019 z"
       inkscape:transform-center-x="0.3697741"
       inkscape:transform-center-y="-1.6545161"
       transform="matrix(0.91445474,0,0,0.91777907,271.02361,258.83118)" />
  </g>
  <g
     transform="translate(30.027654,26.466807)"
     inkscape:groupmode="layer"
     id="layer1"
     inkscape:label="Project artwork"
     style="display:inline">
    <g
       id="g2665"
       transform="matrix(0.203842,0,0,0.203842,127.28523,132.83315)">
      <path
         id="path2659"
         d="M 0,0 V 443.91 H 443.91 V 0 Z m 277.77,268.24 h -69.52 v 36.67 h 67.5 v 29.59 h -67.5 v 52.95 h 69.52 v 29.59 H 177.09 v -178.4 h 100.68 z m 120.2,135.51 c -11.14,10.91 -25.14,16.44 -41.62,16.44 -15.62,0 -28.73,-4.71 -38.97,-14.01 -10.06,-9.28 -16.4,-22.43 -18.87,-39.11 l -0.34,-2.31 31.48,-6.94 0.32,2.74 c 1.14,9.68 3.09,16.37 5.79,19.88 4.98,6.92 12.04,10.25 21.6,10.25 7.53,0 13.6,-2.44 18.55,-7.45 4.96,-5.03 7.37,-11.25 7.37,-19.02 0,-3.08 -0.43,-5.93 -1.28,-8.47 -0.83,-2.49 -2.15,-4.82 -3.92,-6.93 -1.82,-2.16 -4.22,-4.23 -7.15,-6.14 -3,-1.97 -6.66,-3.88 -10.85,-5.69 l -16.7,-6.95 c -24.65,-10.42 -37.14,-26 -37.14,-46.33 0,-13.72 5.31,-25.34 15.79,-34.56 10.38,-9.2 23.44,-13.88 38.82,-13.88 20.85,0 37.34,10.24 49,30.45 l 1.24,2.14 -25.53,15.13 -1.26,-2.19 c -3.73,-6.47 -7.24,-10.7 -10.44,-12.57 l -0.09,-0.05 c -3.32,-2.12 -7.74,-3.2 -13.14,-3.2 -6.71,0 -12.09,1.82 -16.45,5.57 -4.26,3.59 -6.32,7.96 -6.32,13.38 0,7.41 5.66,13.34 17.32,18.13 l 17.29,7.07 c 14.41,5.82 25.14,13.09 31.89,21.59 6.84,8.61 10.31,19.28 10.31,31.71 0,16.58 -5.62,30.48 -16.7,41.32 z"
         class="st0"
         inkscape:connector-curvature="0" />
      <polygon
         id="polygon2661"
         points="277.77,387.45 208.26,387.45 208.26,334.5 275.75,334.5 275.75,304.91 208.26,304.91 208.26,268.24 277.77,268.24 277.77,238.65 177.09,238.65 177.09,417.04 277.77,417.04 "
         class="st1" />
      <path
         id="path2663"
         d="m 372.46,309.14 -17.29,-7.07 c -11.65,-4.79 -17.32,-10.71 -17.32,-18.13 0,-5.42 2.06,-9.79 6.32,-13.38 4.36,-3.75 9.75,-5.57 16.45,-5.57 5.4,0 9.82,1.08 13.14,3.2 l 0.09,0.05 c 3.2,1.86 6.71,6.09 10.44,12.57 l 1.26,2.19 25.53,-15.13 -1.24,-2.14 c -11.66,-20.21 -28.14,-30.45 -49,-30.45 -15.38,0 -28.45,4.67 -38.82,13.88 -10.47,9.21 -15.79,20.84 -15.79,34.56 0,20.33 12.49,35.91 37.14,46.33 l 16.7,6.95 c 4.19,1.81 7.85,3.72 10.85,5.69 2.92,1.92 5.33,3.98 7.15,6.14 1.77,2.11 3.09,4.44 3.92,6.93 0.85,2.54 1.28,5.39 1.28,8.47 0,7.77 -2.41,14 -7.37,19.02 -4.95,5.01 -11.01,7.45 -18.55,7.45 -9.57,0 -16.62,-3.33 -21.6,-10.25 -2.7,-3.51 -4.65,-10.2 -5.79,-19.88 l -0.32,-2.74 -31.48,6.94 0.34,2.31 c 2.47,16.68 8.82,29.83 18.87,39.11 10.24,9.3 23.35,14.01 38.97,14.01 16.48,0 30.48,-5.53 41.62,-16.44 11.08,-10.85 16.7,-24.75 16.7,-41.32 0,-12.43 -3.47,-23.1 -10.31,-31.71 -6.75,-8.51 -17.48,-15.77 -31.89,-21.59 z"
         class="st1"
         inkscape:connector-curvature="0" />
    </g>
    <text
       id="text2136"
       y="240.42355"
       x="130.46965"
       style="font-size:12.5px;line-height:1.25;font-family:Helvetica;-inkscape-font-specification:Helvetica;stroke-width:0.9375"
       xml:space="preserve"><tspan
         style="font-style:normal;font-variant:normal;font-weight:bold;font-stretch:normal;font-family:sans-serif;-inkscape-font-specification:sans-serif;fill:#3f5da7;fill-opacity:1;stroke-width:0.9375"
         y="240.42355"
         x="130.46965"
         id="tspan2134"
         sodipodi:role="line">esprima.org</tspan></text>
  </g>
  <g
     transform="translate(-179.94336,-162.9082)"
     style="display:inline"
     inkscape:label="Preview Without Bleeds"
     id="layer2"
     inkscape:groupmode="layer"
     sodipodi:insensitive="true">
    <path
       inkscape:connector-curvature="0"
       id="rect8416"
       d="M 269.94336,252.9082 V 497.0918 H 495.05664 V 252.9082 Z m 112.58594,32.66992 77.14648,44.73633 -0.0293,89.42188 -77.17578,44.68555 -77.14648,-44.73633 0.0293,-89.42188 z"
       style="opacity:1;fill:#aaaaaa;fill-opacity:1;stroke:none;stroke-width:20.25;stroke-linecap:round;stroke-linejoin:round;stroke-miterlimit:4;stroke-dasharray:none;stroke-dashoffset:6.5;stroke-opacity:1" />
  </g>
  <style
     id="style2657"
     type="text/css">
	.st0{fill:#3D5BA9;}
	.st1{fill:#FFFFFF;}
</style>
</svg>
