<?xml version="1.0" encoding="utf-8"?>
<!-- Generator: Adobe Illustrator 23.0.4, SVG Export Plug-In . SVG Version: 6.00 Build 0)  -->
<svg version="1.1" id="Layer_1" xmlns="http://www.w3.org/2000/svg" xmlns:xlink="http://www.w3.org/1999/xlink" x="0px" y="0px"
	 viewBox="0 0 443.91 443.91" style="enable-background:new 0 0 443.91 443.91;" xml:space="preserve">
<style type="text/css">
	.st0{fill:#3D5BA9;}
	.st1{fill:#FFFFFF;}
</style>
<g>
	<path class="st0" d="M0,0v443.91h443.91V0H0z M277.77,268.24h-69.52v36.67h67.5v29.59h-67.5v52.95h69.52v29.59H177.09v-178.4
		h100.68V268.24z M397.97,403.75c-11.14,10.91-25.14,16.44-41.62,16.44c-15.62,0-28.73-4.71-38.97-14.01
		c-10.06-9.28-16.4-22.43-18.87-39.11l-0.34-2.31l31.48-6.94l0.32,2.74c1.14,9.68,3.09,16.37,5.79,19.88
		c4.98,6.92,12.04,10.25,21.6,10.25c7.53,0,13.6-2.44,18.55-7.45c4.96-5.03,7.37-11.25,7.37-19.02c0-3.08-0.43-5.93-1.28-8.47
		c-0.83-2.49-2.15-4.82-3.92-6.93c-1.82-2.16-4.22-4.23-7.15-6.14c-3-1.97-6.66-3.88-10.85-5.69l-16.7-6.95
		c-24.65-10.42-37.14-26-37.14-46.33c0-13.72,5.31-25.34,15.79-34.56c10.38-9.2,23.44-13.88,38.82-13.88
		c20.85,0,37.34,10.24,49,30.45l1.24,2.14l-25.53,15.13l-1.26-2.19c-3.73-6.47-7.24-10.7-10.44-12.57l-0.09-0.05
		c-3.32-2.12-7.74-3.2-13.14-3.2c-6.71,0-12.09,1.82-16.45,5.57c-4.26,3.59-6.32,7.96-6.32,13.38c0,7.41,5.66,13.34,17.32,18.13
		l17.29,7.07c14.41,5.82,25.14,13.09,31.89,21.59c6.84,8.61,10.31,19.28,10.31,31.71C414.67,379.01,409.05,392.91,397.97,403.75z"/>
	<polygon class="st1" points="177.09,417.04 277.77,417.04 277.77,387.45 208.26,387.45 208.26,334.5 275.75,334.5 275.75,304.91 
		208.26,304.91 208.26,268.24 277.77,268.24 277.77,238.65 177.09,238.65 	"/>
	<path class="st1" d="M372.46,309.14l-17.29-7.07c-11.65-4.79-17.32-10.71-17.32-18.13c0-5.42,2.06-9.79,6.32-13.38
		c4.36-3.75,9.75-5.57,16.45-5.57c5.4,0,9.82,1.08,13.14,3.2l0.09,0.05c3.2,1.86,6.71,6.09,10.44,12.57l1.26,2.19l25.53-15.13
		l-1.24-2.14c-11.66-20.21-28.14-30.45-49-30.45c-15.38,0-28.45,4.67-38.82,13.88c-10.47,9.21-15.79,20.84-15.79,34.56
		c0,20.33,12.49,35.91,37.14,46.33l16.7,6.95c4.19,1.81,7.85,3.72,10.85,5.69c2.92,1.92,5.33,3.98,7.15,6.14
		c1.77,2.11,3.09,4.44,3.92,6.93c0.85,2.54,1.28,5.39,1.28,8.47c0,7.77-2.41,14-7.37,19.02c-4.95,5.01-11.01,7.45-18.55,7.45
		c-9.57,0-16.62-3.33-21.6-10.25c-2.7-3.51-4.65-10.2-5.79-19.88l-0.32-2.74l-31.48,6.94l0.34,2.31
		c2.47,16.68,8.82,29.83,18.87,39.11c10.24,9.3,23.35,14.01,38.97,14.01c16.48,0,30.48-5.53,41.62-16.44
		c11.08-10.85,16.7-24.75,16.7-41.32c0-12.43-3.47-23.1-10.31-31.71C397.6,322.22,386.87,314.96,372.46,309.14z"/>
</g>
</svg>
