<?xml version="1.0" encoding="UTF-8" standalone="no"?>
<svg
   xmlns:dc="http://purl.org/dc/elements/1.1/"
   xmlns:cc="http://creativecommons.org/ns#"
   xmlns:rdf="http://www.w3.org/1999/02/22-rdf-syntax-ns#"
   xmlns:svg="http://www.w3.org/2000/svg"
   xmlns="http://www.w3.org/2000/svg"
   xmlns:sodipodi="http://sodipodi.sourceforge.net/DTD/sodipodi-0.dtd"
   xmlns:inkscape="http://www.inkscape.org/namespaces/inkscape"
   sodipodi:docname="pep-hex-sticker.svg"
   inkscape:version="1.0beta1 (32d4812, 2019-09-19)"
   version="1.1"
   id="svg7307"
   viewBox="0 0 345.05798 371.25001"
   height="4.125in"
   width="3.8339775in"
   inkscape:export-filename="/Users/brian/Documents/GitHub/openjs/artwork/projects/pep/pep-hex-sticker.png"
   inkscape:export-xdpi="96"
   inkscape:export-ydpi="96">
  <defs
     id="defs7309">
    <clipPath
       id="clipPath26"
       clipPathUnits="userSpaceOnUse">
      <path
         id="path24"
         d="M 0,792 H 612 V 0 H 0 Z" />
    </clipPath>
  </defs>
  <sodipodi:namedview
     inkscape:document-rotation="0"
     inkscape:window-maximized="0"
     inkscape:window-y="23"
     inkscape:window-x="0"
     inkscape:window-height="1360"
     inkscape:window-width="2504"
     inkscape:guide-bbox="true"
     showguides="true"
     fit-margin-left="1"
     fit-margin-right="1"
     fit-margin-bottom="1"
     fit-margin-top="1"
     units="in"
     showgrid="false"
     inkscape:current-layer="layer1"
     inkscape:document-units="px"
     inkscape:cy="264.1211"
     inkscape:cx="167.70634"
     inkscape:zoom="1.1038207"
     inkscape:pageshadow="2"
     inkscape:pageopacity="0.0"
     borderopacity="1.0"
     bordercolor="#666666"
     pagecolor="#ffffff"
     id="base">
    <sodipodi:guide
       id="guide8412"
       orientation="0,1"
       position="316.53653,275.81345" />
    <sodipodi:guide
       id="guide8414"
       orientation="0,1"
       position="353.01895,96.303395" />
  </sodipodi:namedview>
  <metadata
     id="metadata7312">
    <rdf:RDF>
      <cc:Work
         rdf:about="">
        <dc:format>image/svg+xml</dc:format>
        <dc:type
           rdf:resource="http://purl.org/dc/dcmitype/StillImage" />
        <dc:title />
      </cc:Work>
    </rdf:RDF>
  </metadata>
  <g
     transform="translate(-209.97101,-189.375)"
     style="display:inline"
     inkscape:label="Background"
     id="layer3"
     inkscape:groupmode="layer">
    <path
       sodipodi:type="star"
       style="color:#000000;display:inline;overflow:visible;visibility:visible;fill:none;fill-opacity:1;fill-rule:nonzero;stroke:#0093d9;stroke-width:1.16023;stroke-linecap:round;stroke-linejoin:miter;stroke-miterlimit:4;stroke-dasharray:2.32046, 4.64092;stroke-dashoffset:7.51718;stroke-opacity:1;marker:none;enable-background:accumulate"
       id="path7936"
       sodipodi:sides="6"
       sodipodi:cx="121.90476"
       sodipodi:cy="126.57602"
       sodipodi:r1="103.56153"
       sodipodi:r2="103.56153"
       sodipodi:arg1="-0.52327829"
       sodipodi:arg2="0.0003204856"
       inkscape:flatsided="true"
       inkscape:rounded="0"
       inkscape:randomized="0"
       d="m 211.60827,74.824 -0.0332,103.56153 -89.70351,51.75202 -89.670315,-51.80951 0.03319,-103.561527 89.703505,-51.752019 z"
       inkscape:transform-center-x="0.34789098"
       inkscape:transform-center-y="-1.5566024"
       transform="matrix(0.86033594,0,0,0.86346354,277.62095,265.70622)" />
    <path
       transform="matrix(0.80621714,0,0,0.809148,284.21829,272.58127)"
       inkscape:transform-center-y="-1.4586807"
       inkscape:transform-center-x="0.32600218"
       d="m 211.60827,74.824 -0.0332,103.56153 -89.70351,51.75202 -89.670315,-51.80951 0.03319,-103.561527 89.703505,-51.752019 z"
       inkscape:randomized="0"
       inkscape:rounded="0"
       inkscape:flatsided="true"
       sodipodi:arg2="0.0003204856"
       sodipodi:arg1="-0.52327829"
       sodipodi:r2="103.56153"
       sodipodi:r1="103.56153"
       sodipodi:cy="126.57602"
       sodipodi:cx="121.90476"
       sodipodi:sides="6"
       id="path8410"
       style="color:#000000;display:inline;overflow:visible;visibility:visible;fill:none;fill-opacity:1;fill-rule:nonzero;stroke:#db3279;stroke-width:1.23811;stroke-linecap:round;stroke-linejoin:miter;stroke-miterlimit:4;stroke-dasharray:none;stroke-dashoffset:7.51718;stroke-opacity:1;marker:none;enable-background:accumulate"
       sodipodi:type="star" />
    <path
       transform="matrix(0.91445474,0,0,0.91777907,271.02361,258.83118)"
       inkscape:transform-center-y="-1.6545161"
       inkscape:transform-center-x="0.3697741"
       d="m 211.60827,74.824 -0.0332,103.56153 -89.70351,51.75202 -89.670315,-51.80951 0.03319,-103.561527 89.703505,-51.752019 z"
       inkscape:randomized="0"
       inkscape:rounded="0"
       inkscape:flatsided="true"
       sodipodi:arg2="0.0003204856"
       sodipodi:arg1="-0.52327829"
       sodipodi:r2="103.56153"
       sodipodi:r1="103.56153"
       sodipodi:cy="126.57602"
       sodipodi:cx="121.90476"
       sodipodi:sides="6"
       id="path8424"
       style="color:#000000;display:inline;overflow:visible;visibility:visible;fill:#ffffff;fill-opacity:1;fill-rule:nonzero;stroke:none;stroke-width:0.204669;stroke-linecap:round;stroke-linejoin:miter;stroke-miterlimit:4;stroke-dasharray:none;stroke-dashoffset:7.51718;stroke-opacity:1;marker:none;enable-background:accumulate"
       sodipodi:type="star" />
    <circle
       id="path852"
       style="fill:#ffff00;stroke:#000000"
       cx="380.81805"
       cy="370.09048"
       r="0.061615959" />
  </g>
  <g
     inkscape:groupmode="layer"
     id="g368"
     inkscape:label="Trim Lines copy"
     style="display:none"
     transform="translate(-209.97101,-189.375)"
     sodipodi:insensitive="true">
    <path
       transform="matrix(0.86033594,0,0,0.86346354,277.62095,265.70622)"
       inkscape:transform-center-y="-1.5566024"
       inkscape:transform-center-x="0.34789098"
       d="m 211.60827,74.824 -0.0332,103.56153 -89.70351,51.75202 -89.670315,-51.80951 0.03319,-103.561527 89.703505,-51.752019 z"
       inkscape:randomized="0"
       inkscape:rounded="0"
       inkscape:flatsided="true"
       sodipodi:arg2="0.0003204856"
       sodipodi:arg1="-0.52327829"
       sodipodi:r2="103.56153"
       sodipodi:r1="103.56153"
       sodipodi:cy="126.57602"
       sodipodi:cx="121.90476"
       sodipodi:sides="6"
       id="path362"
       style="color:#000000;display:inline;overflow:visible;visibility:visible;fill:none;fill-opacity:1;fill-rule:nonzero;stroke:#0093d9;stroke-width:1.16023;stroke-linecap:round;stroke-linejoin:miter;stroke-miterlimit:4;stroke-dasharray:2.32046, 4.64092;stroke-dashoffset:7.51718;stroke-opacity:1;marker:none;enable-background:accumulate"
       sodipodi:type="star" />
    <path
       sodipodi:type="star"
       style="color:#000000;display:inline;overflow:visible;visibility:visible;fill:none;fill-opacity:1;fill-rule:nonzero;stroke:#db3279;stroke-width:1.23811;stroke-linecap:round;stroke-linejoin:miter;stroke-miterlimit:4;stroke-dasharray:none;stroke-dashoffset:7.51718;stroke-opacity:1;marker:none;enable-background:accumulate"
       id="path364"
       sodipodi:sides="6"
       sodipodi:cx="121.90476"
       sodipodi:cy="126.57602"
       sodipodi:r1="103.56153"
       sodipodi:r2="103.56153"
       sodipodi:arg1="-0.52327829"
       sodipodi:arg2="0.0003204856"
       inkscape:flatsided="true"
       inkscape:rounded="0"
       inkscape:randomized="0"
       d="m 211.60827,74.824 -0.0332,103.56153 -89.70351,51.75202 -89.670315,-51.80951 0.03319,-103.561527 89.703505,-51.752019 z"
       inkscape:transform-center-x="0.32600218"
       inkscape:transform-center-y="-1.4586807"
       transform="matrix(0.80621714,0,0,0.809148,284.21829,272.58127)" />
    <path
       sodipodi:type="star"
       style="color:#000000;display:inline;overflow:visible;visibility:visible;fill:none;fill-opacity:1;fill-rule:nonzero;stroke:#000000;stroke-width:1.09157;stroke-linecap:round;stroke-linejoin:miter;stroke-miterlimit:4;stroke-dasharray:none;stroke-dashoffset:7.51718;stroke-opacity:1;marker:none;enable-background:accumulate"
       id="path366"
       sodipodi:sides="6"
       sodipodi:cx="121.90476"
       sodipodi:cy="126.57602"
       sodipodi:r1="103.56153"
       sodipodi:r2="103.56153"
       sodipodi:arg1="-0.52327829"
       sodipodi:arg2="0.0003204856"
       inkscape:flatsided="true"
       inkscape:rounded="0"
       inkscape:randomized="0"
       d="m 211.60827,74.824 -0.0332,103.56153 -89.70351,51.75202 -89.670315,-51.80951 0.03319,-103.561527 89.703505,-51.752019 z"
       inkscape:transform-center-x="0.3697741"
       inkscape:transform-center-y="-1.6545161"
       transform="matrix(0.91445474,0,0,0.91777907,271.02361,258.83118)" />
  </g>
  <g
     inkscape:groupmode="layer"
     id="layer1"
     inkscape:label="Project artwork"
     style="display:inline">
    <g
       transform="matrix(0.27860387,0,0,-0.24627629,87.136822,288.3484)"
       id="g10">
      <g
         transform="translate(468.6409,320.7824)"
         id="g12">
        <path
           inkscape:connector-curvature="0"
           id="path14"
           style="fill:#344f57;fill-opacity:1;fill-rule:nonzero;stroke:none"
           d="M 0,0 -162.145,-108.871 -324.281,0 V 262.897 H -162.137 0 Z" />
      </g>
      <g
         transform="translate(155.0798,326.4962)"
         id="g16">
        <path
           inkscape:connector-curvature="0"
           id="path18"
           style="fill:#344f57;fill-opacity:1;fill-rule:nonzero;stroke:none"
           d="M 0,0 151.416,-101.673 302.84,0 V 246.463 H 0 Z M 151.416,-127.496 -21.44,-11.427 v 279.33 h 345.721 v -279.33 z" />
      </g>
      <g
         id="g20">
        <g
           clip-path="url(#clipPath26)"
           id="g22">
          <g
             transform="translate(207.1269,510.7373)"
             id="g28">
            <path
               inkscape:connector-curvature="0"
               id="path30"
               style="fill:#ffffff;fill-opacity:1;fill-rule:nonzero;stroke:none"
               d="m 0,0 h 9.604 c 1.118,0 2.156,0.509 3.124,1.533 0.961,1.028 1.442,2.875 1.442,5.548 0,2.736 -0.561,4.597 -1.678,5.593 -1.121,0.996 -2.239,1.491 -3.356,1.491 H 0 Z M -18.174,-36.17 V 30.013 H 10.35 c 3.227,0 6.215,-0.668 8.945,-2.006 2.734,-1.332 5.086,-3.075 7.038,-5.218 1.957,-2.142 3.496,-4.601 4.615,-7.366 1.122,-2.765 1.675,-5.543 1.675,-8.342 0,-2.922 -0.53,-5.765 -1.582,-8.526 -1.058,-2.773 -2.529,-5.223 -4.432,-7.368 -1.893,-2.142 -4.192,-3.855 -6.895,-5.128 -2.703,-1.272 -5.671,-1.907 -8.903,-1.907 H 0 V -36.17 Z" />
          </g>
          <g
             transform="translate(329.334,502.6776)"
             id="g32">
            <path
               inkscape:connector-curvature="0"
               id="path34"
               style="fill:#ffffff;fill-opacity:1;fill-rule:nonzero;stroke:none"
               d="M 0,0 V -15.845 H -47.164 V 50.337 H -0.837 V 34.494 h -28.152 v -9.322 h 24.05 V 10.446 h -24.05 V 0 Z" />
          </g>
          <g
             transform="translate(391.4146,510.7373)"
             id="g36">
            <path
               inkscape:connector-curvature="0"
               id="path38"
               style="fill:#ffffff;fill-opacity:1;fill-rule:nonzero;stroke:none"
               d="m 0,0 h 9.603 c 1.122,0 2.158,0.509 3.124,1.533 0.962,1.028 1.445,2.875 1.445,5.548 0,2.736 -0.561,4.597 -1.68,5.593 -1.12,0.996 -2.24,1.491 -3.359,1.491 H 0 Z M -18.173,-36.17 V 30.013 H 10.35 c 3.227,0 6.211,-0.668 8.951,-2.006 2.73,-1.332 5.075,-3.075 7.037,-5.218 1.954,-2.142 3.496,-4.601 4.611,-7.366 1.12,-2.765 1.674,-5.543 1.674,-8.342 0,-2.922 -0.525,-5.765 -1.584,-8.526 -1.057,-2.773 -2.531,-5.223 -4.426,-7.368 -1.894,-2.142 -4.198,-3.855 -6.898,-5.128 -2.702,-1.272 -5.672,-1.907 -8.902,-1.907 H 0 V -36.17 Z" />
          </g>
          <g
             transform="translate(166.7582,395.1605)"
             id="g40">
            <path
               inkscape:connector-curvature="0"
               id="path42"
               style="fill:#c89b2f;fill-opacity:1;fill-rule:nonzero;stroke:none"
               d="m 0,0 v -29.734 l 93.532,-61.963 18.609,-67.616 27.598,-16.96 27.599,16.934 18.604,67.642 93.535,61.963 V 0 Z" />
          </g>
          <g
             transform="translate(306.5026,395.1605)"
             id="g44">
            <path
               inkscape:connector-curvature="0"
               id="path46"
               style="fill:#dabc29;fill-opacity:1;fill-rule:nonzero;stroke:none"
               d="m 0,0 v -176.273 l 27.597,16.934 18.605,67.642 93.532,61.963 V 0 Z" />
          </g>
          <path
             inkscape:connector-curvature="0"
             id="path48"
             style="fill:#e7d055;fill-opacity:1;fill-rule:nonzero;stroke:none"
             d="M 446.235,365.427 H 166.758 v 29.734 h 279.477 z" />
          <g
             transform="translate(253.1273,450.1222)"
             id="g50">
            <path
               inkscape:connector-curvature="0"
               id="path52"
               style="fill:#48a6dd;fill-opacity:1;fill-rule:nonzero;stroke:none"
               d="M 0,0 24.828,-27.194 V -54.962 H -25.167 L -67.239,0 Z" />
          </g>
          <g
             transform="translate(185.8888,450.1222)"
             id="g54">
            <path
               inkscape:connector-curvature="0"
               id="path56"
               style="fill:#3185b1;fill-opacity:1;fill-rule:nonzero;stroke:none"
               d="M 0,0 42.072,-54.962 H 75.691 L 33.617,0 Z" />
          </g>
          <g
             transform="translate(359.8583,450.1222)"
             id="g58">
            <path
               inkscape:connector-curvature="0"
               id="path60"
               style="fill:#bb4277;fill-opacity:1;fill-rule:nonzero;stroke:none"
               d="M 0,0 -24.823,-27.194 V -54.962 H 25.168 L 67.245,0 Z" />
          </g>
          <g
             transform="translate(427.1037,450.1222)"
             id="g62">
            <path
               inkscape:connector-curvature="0"
               id="path64"
               style="fill:#db4783;fill-opacity:1;fill-rule:nonzero;stroke:none"
               d="M 0,0 -42.078,-54.962 H -75.697 L -33.623,0 Z" />
          </g>
          <g
             transform="translate(277.9551,462.9125)"
             id="g66">
            <path
               inkscape:connector-curvature="0"
               id="path68"
               style="fill:#3cb279;fill-opacity:1;fill-rule:nonzero;stroke:none"
               d="M 0,0 V -41.108 -67.752 H 16.536 39.817 57.081 V -39.985 0 Z" />
          </g>
          <path
             inkscape:connector-curvature="0"
             id="path70"
             style="fill:#30925d;fill-opacity:1;fill-rule:nonzero;stroke:none"
             d="m 306.503,395.16 h -28.548 v 67.752 h 28.548 z" />
          <g
             transform="translate(468.6409,583.6799)"
             id="g72">
            <path
               inkscape:connector-curvature="0"
               id="path74"
               style="fill:#ffffff;fill-opacity:1;fill-rule:nonzero;stroke:none"
               d="M 0,0 H -162.137 -324.281 V -262.897 L -162.145,-371.768 0,-262.897 Z m -7.148,-7.147 v -251.941 l -154.997,-104.071 -154.989,104.071 V -7.147 h 154.997 z" />
          </g>
        </g>
      </g>
    </g>
  </g>
  <g
     transform="translate(-209.97101,-189.375)"
     style="display:none"
     inkscape:label="Preview Without Bleeds"
     id="layer2"
     inkscape:groupmode="layer"
     sodipodi:insensitive="true">
    <path
       inkscape:connector-curvature="0"
       id="rect8416"
       d="M 269.94336,252.9082 V 497.0918 H 495.05664 V 252.9082 Z m 112.58594,32.66992 77.14648,44.73633 -0.0293,89.42188 -77.17578,44.68555 -77.14648,-44.73633 0.0293,-89.42188 z"
       style="opacity:1;fill:#aaaaaa;fill-opacity:1;stroke:none;stroke-width:20.25;stroke-linecap:round;stroke-linejoin:round;stroke-miterlimit:4;stroke-dasharray:none;stroke-dashoffset:6.5;stroke-opacity:1" />
  </g>
</svg>
