<?xml version="1.0" encoding="UTF-8" standalone="no"?>
<svg
   xmlns:dc="http://purl.org/dc/elements/1.1/"
   xmlns:cc="http://creativecommons.org/ns#"
   xmlns:rdf="http://www.w3.org/1999/02/22-rdf-syntax-ns#"
   xmlns:svg="http://www.w3.org/2000/svg"
   xmlns="http://www.w3.org/2000/svg"
   viewBox="0 0 460.96133 527.19867"
   height="527.19867"
   width="460.96133"
   xml:space="preserve"
   id="svg2"
   version="1.1"><metadata
     id="metadata8"><rdf:RDF><cc:Work
         rdf:about=""><dc:format>image/svg+xml</dc:format><dc:type
           rdf:resource="http://purl.org/dc/dcmitype/StillImage" /><dc:title></dc:title></cc:Work></rdf:RDF></metadata><defs
     id="defs6"><clipPath
       id="clipPath26"
       clipPathUnits="userSpaceOnUse"><path
         id="path24"
         d="M 0,792 H 612 V 0 H 0 Z" /></clipPath></defs><g
     transform="matrix(1.3333333,0,0,-1.3333333,-178.1864,792.53225)"
     id="g10"><g
       transform="translate(468.6409,320.7824)"
       id="g12"><path
         id="path14"
         style="fill:#344f57;fill-opacity:1;fill-rule:nonzero;stroke:none"
         d="M 0,0 -162.145,-108.871 -324.281,0 V 262.897 H -162.137 0 Z" /></g><g
       transform="translate(155.0798,326.4962)"
       id="g16"><path
         id="path18"
         style="fill:#344f57;fill-opacity:1;fill-rule:nonzero;stroke:none"
         d="M 0,0 151.416,-101.673 302.84,0 V 246.463 H 0 Z M 151.416,-127.496 -21.44,-11.427 v 279.33 h 345.721 v -279.33 z" /></g><g
       id="g20"><g
         clip-path="url(#clipPath26)"
         id="g22"><g
           transform="translate(207.1269,510.7373)"
           id="g28"><path
             id="path30"
             style="fill:#ffffff;fill-opacity:1;fill-rule:nonzero;stroke:none"
             d="m 0,0 h 9.604 c 1.118,0 2.156,0.509 3.124,1.533 0.961,1.028 1.442,2.875 1.442,5.548 0,2.736 -0.561,4.597 -1.678,5.593 -1.121,0.996 -2.239,1.491 -3.356,1.491 H 0 Z M -18.174,-36.17 V 30.013 H 10.35 c 3.227,0 6.215,-0.668 8.945,-2.006 2.734,-1.332 5.086,-3.075 7.038,-5.218 1.957,-2.142 3.496,-4.601 4.615,-7.366 1.122,-2.765 1.675,-5.543 1.675,-8.342 0,-2.922 -0.53,-5.765 -1.582,-8.526 -1.058,-2.773 -2.529,-5.223 -4.432,-7.368 -1.893,-2.142 -4.192,-3.855 -6.895,-5.128 -2.703,-1.272 -5.671,-1.907 -8.903,-1.907 H 0 V -36.17 Z" /></g><g
           transform="translate(329.334,502.6776)"
           id="g32"><path
             id="path34"
             style="fill:#ffffff;fill-opacity:1;fill-rule:nonzero;stroke:none"
             d="M 0,0 V -15.845 H -47.164 V 50.337 H -0.837 V 34.494 h -28.152 v -9.322 h 24.05 V 10.446 h -24.05 V 0 Z" /></g><g
           transform="translate(391.4146,510.7373)"
           id="g36"><path
             id="path38"
             style="fill:#ffffff;fill-opacity:1;fill-rule:nonzero;stroke:none"
             d="m 0,0 h 9.603 c 1.122,0 2.158,0.509 3.124,1.533 0.962,1.028 1.445,2.875 1.445,5.548 0,2.736 -0.561,4.597 -1.68,5.593 -1.12,0.996 -2.24,1.491 -3.359,1.491 H 0 Z M -18.173,-36.17 V 30.013 H 10.35 c 3.227,0 6.211,-0.668 8.951,-2.006 2.73,-1.332 5.075,-3.075 7.037,-5.218 1.954,-2.142 3.496,-4.601 4.611,-7.366 1.12,-2.765 1.674,-5.543 1.674,-8.342 0,-2.922 -0.525,-5.765 -1.584,-8.526 -1.057,-2.773 -2.531,-5.223 -4.426,-7.368 -1.894,-2.142 -4.198,-3.855 -6.898,-5.128 -2.702,-1.272 -5.672,-1.907 -8.902,-1.907 H 0 V -36.17 Z" /></g><g
           transform="translate(166.7582,395.1605)"
           id="g40"><path
             id="path42"
             style="fill:#c89b2f;fill-opacity:1;fill-rule:nonzero;stroke:none"
             d="m 0,0 v -29.734 l 93.532,-61.963 18.609,-67.616 27.598,-16.96 27.599,16.934 18.604,67.642 93.535,61.963 V 0 Z" /></g><g
           transform="translate(306.5026,395.1605)"
           id="g44"><path
             id="path46"
             style="fill:#dabc29;fill-opacity:1;fill-rule:nonzero;stroke:none"
             d="m 0,0 v -176.273 l 27.597,16.934 18.605,67.642 93.532,61.963 V 0 Z" /></g><path
           id="path48"
           style="fill:#e7d055;fill-opacity:1;fill-rule:nonzero;stroke:none"
           d="M 446.235,365.427 H 166.758 v 29.734 h 279.477 z" /><g
           transform="translate(253.1273,450.1222)"
           id="g50"><path
             id="path52"
             style="fill:#48a6dd;fill-opacity:1;fill-rule:nonzero;stroke:none"
             d="M 0,0 24.828,-27.194 V -54.962 H -25.167 L -67.239,0 Z" /></g><g
           transform="translate(185.8888,450.1222)"
           id="g54"><path
             id="path56"
             style="fill:#3185b1;fill-opacity:1;fill-rule:nonzero;stroke:none"
             d="M 0,0 42.072,-54.962 H 75.691 L 33.617,0 Z" /></g><g
           transform="translate(359.8583,450.1222)"
           id="g58"><path
             id="path60"
             style="fill:#bb4277;fill-opacity:1;fill-rule:nonzero;stroke:none"
             d="M 0,0 -24.823,-27.194 V -54.962 H 25.168 L 67.245,0 Z" /></g><g
           transform="translate(427.1037,450.1222)"
           id="g62"><path
             id="path64"
             style="fill:#db4783;fill-opacity:1;fill-rule:nonzero;stroke:none"
             d="M 0,0 -42.078,-54.962 H -75.697 L -33.623,0 Z" /></g><g
           transform="translate(277.9551,462.9125)"
           id="g66"><path
             id="path68"
             style="fill:#3cb279;fill-opacity:1;fill-rule:nonzero;stroke:none"
             d="M 0,0 V -41.108 -67.752 H 16.536 39.817 57.081 V -39.985 0 Z" /></g><path
           id="path70"
           style="fill:#30925d;fill-opacity:1;fill-rule:nonzero;stroke:none"
           d="m 306.503,395.16 h -28.548 v 67.752 h 28.548 z" /><g
           transform="translate(468.6409,583.6799)"
           id="g72"><path
             id="path74"
             style="fill:#ffffff;fill-opacity:1;fill-rule:nonzero;stroke:none"
             d="M 0,0 H -162.137 -324.281 V -262.897 L -162.145,-371.768 0,-262.897 Z m -7.148,-7.147 v -251.941 l -154.997,-104.071 -154.989,104.071 V -7.147 h 154.997 z" /></g></g></g></g></svg>