<?xml version="1.0" encoding="UTF-8" standalone="no"?><!DOCTYPE svg PUBLIC "-//W3C//DTD SVG 1.1//EN" "http://www.w3.org/Graphics/SVG/1.1/DTD/svg11.dtd"><svg width="100%" height="100%" viewBox="0 0 1024 1024" version="1.1" xmlns="http://www.w3.org/2000/svg" xmlns:xlink="http://www.w3.org/1999/xlink" xml:space="preserve" xmlns:serif="http://www.serif.com/" style="fill-rule:evenodd;clip-rule:evenodd;stroke-linejoin:round;stroke-miterlimit:2;"><rect id="NativeScript-Logo-Transparent" serif:id="NativeScript Logo Transparent" x="0" y="0" width="1024" height="1024" style="fill:none;"/><g id="NativeScript-Logo-Transparent1" serif:id="NativeScript Logo Transparent"><g id="NativeScript-Logo" serif:id="NativeScript Logo"><path d="M843,511.865l0,1.099c0,0.255 -0.195,0.467 -0.451,0.491c-33.364,3.124 -59.479,30.233 -59.479,64.409l0,136.942c0,9.568 -2.01,18.799 -5.64,27.228c-10.35,24.072 -33.84,41.572 -61.16,41.572l-69.2,-0l-0.48,-0.601l-269.18,-337.321l0,337.922l-69.68,-0c-36.893,-0 -66.8,-29.909 -66.8,-66.8l0,-138.942c0,-34.174 -26.115,-61.285 -59.479,-64.409c-0.256,-0.024 -0.451,-0.236 -0.451,-0.491l0,-1.1c0,-0.255 0.194,-0.466 0.449,-0.492c33.245,-3.236 59.221,-31.02 59.221,-65.116l0,-139.061c0,-9.29 1.9,-18.149 5.33,-26.181c10.18,-23.879 33.87,-40.62 61.47,-40.62l69.66,0l0.28,0.35l269.18,337.331l0,-337.681l69.94,0c36.893,0 66.8,29.908 66.8,66.801l0,139.061c0,34.095 25.976,61.879 59.222,65.116c0.254,0.025 0.448,0.237 0.448,0.492" style="fill:#fff;fill-rule:nonzero;"/></g></g></svg>