<?xml version="1.0" encoding="UTF-8" standalone="no"?><!DOCTYPE svg PUBLIC "-//W3C//DTD SVG 1.1//EN" "http://www.w3.org/Graphics/SVG/1.1/DTD/svg11.dtd"><svg width="100%" height="100%" viewBox="0 0 1024 1024" version="1.1" xmlns="http://www.w3.org/2000/svg" xmlns:xlink="http://www.w3.org/1999/xlink" xml:space="preserve" xmlns:serif="http://www.serif.com/" style="fill-rule:evenodd;clip-rule:evenodd;stroke-linejoin:round;stroke-miterlimit:2;"><path id="NativeScript-Logo-Inverted-Rounded" serif:id="NativeScript Logo Inverted Rounded" d="M1024,256c0,-141.29 -114.71,-256 -256,-256l-512,0c-141.29,0 -256,114.71 -256,256l0,512c0,141.29 114.71,256 256,256l512,0c141.29,0 256,-114.71 256,-256l0,-512Z" style="fill:none;"/><clipPath id="_clip1"><path d="M1024,256c0,-141.29 -114.71,-256 -256,-256l-512,0c-141.29,0 -256,114.71 -256,256l0,512c0,141.29 114.71,256 256,256l512,0c141.29,0 256,-114.71 256,-256l0,-512Z"/></clipPath><g clip-path="url(#_clip1)"><g id="Background"><rect x="0" y="0" width="1024" height="1024" style="fill:#fff;"/></g><g id="NativeScript-Logo" serif:id="NativeScript Logo"><path d="M843,511.864l0,1.099c0,0.256 -0.195,0.468 -0.451,0.492c-33.364,3.123 -59.479,30.233 -59.479,64.409l0,136.941c0,9.569 -2.01,18.8 -5.64,27.229c-10.35,24.071 -33.84,41.571 -61.16,41.571l-69.2,0l-0.48,-0.601l-269.18,-337.32l0,337.921l-69.68,0c-36.893,0 -66.8,-29.908 -66.8,-66.8l0,-138.941c0,-34.175 -26.115,-61.286 -59.479,-64.409c-0.256,-0.024 -0.451,-0.236 -0.451,-0.492l0,-1.099c0,-0.255 0.194,-0.467 0.449,-0.492c33.245,-3.237 59.221,-31.021 59.221,-65.117l0,-139.06c0,-9.29 1.9,-18.15 5.33,-26.181c10.18,-23.879 33.87,-40.62 61.47,-40.62l69.66,0l0.28,0.35l269.18,337.33l0,-337.68l69.94,0c36.893,0 66.8,29.908 66.8,66.801l0,139.06c0,34.096 25.976,61.88 59.222,65.117c0.254,0.025 0.448,0.237 0.448,0.492" style="fill:#65adf1;fill-rule:nonzero;"/></g></g></svg>