<?xml version="1.0" encoding="UTF-8" standalone="no"?>
<svg
   xmlns:dc="http://purl.org/dc/elements/1.1/"
   xmlns:cc="http://creativecommons.org/ns#"
   xmlns:rdf="http://www.w3.org/1999/02/22-rdf-syntax-ns#"
   xmlns:svg="http://www.w3.org/2000/svg"
   xmlns="http://www.w3.org/2000/svg"
   xmlns:sodipodi="http://sodipodi.sourceforge.net/DTD/sodipodi-0.dtd"
   xmlns:inkscape="http://www.inkscape.org/namespaces/inkscape"
   inkscape:export-ydpi="97"
   inkscape:export-xdpi="97"
   inkscape:export-filename="/Users/brian/Documents/GitHub/openjs/artwork/projects/architect/architect-hex-sticker.png"
   sodipodi:docname="architect-hex-sticker.svg"
   inkscape:version="1.0beta1 (32d4812, 2019-09-19)"
   version="1.1"
   id="svg7307"
   viewBox="0 0 345.05798 371.25001"
   height="4.125in"
   width="3.8339775in">
  <defs
     id="defs7309" />
  <sodipodi:namedview
     inkscape:object-nodes="false"
     inkscape:document-rotation="0"
     inkscape:window-maximized="0"
     inkscape:window-y="23"
     inkscape:window-x="0"
     inkscape:window-height="1360"
     inkscape:window-width="2504"
     inkscape:guide-bbox="true"
     showguides="true"
     fit-margin-left="1"
     fit-margin-right="1"
     fit-margin-bottom="1"
     fit-margin-top="1"
     units="in"
     showgrid="false"
     inkscape:current-layer="layer2"
     inkscape:document-units="px"
     inkscape:cy="264.98619"
     inkscape:cx="181.62258"
     inkscape:zoom="1.4688592"
     inkscape:pageshadow="2"
     inkscape:pageopacity="0.0"
     borderopacity="1.0"
     bordercolor="#666666"
     pagecolor="#ffffff"
     id="base">
    <sodipodi:guide
       id="guide8412"
       orientation="0,1"
       position="316.53653,275.81345" />
    <sodipodi:guide
       id="guide8414"
       orientation="0,1"
       position="353.01895,96.303395" />
  </sodipodi:namedview>
  <metadata
     id="metadata7312">
    <rdf:RDF>
      <cc:Work
         rdf:about="">
        <dc:format>image/svg+xml</dc:format>
        <dc:type
           rdf:resource="http://purl.org/dc/dcmitype/StillImage" />
        <dc:title />
      </cc:Work>
    </rdf:RDF>
  </metadata>
  <g
     transform="translate(-209.97101,-189.375)"
     style="display:inline"
     inkscape:label="Background"
     id="layer3"
     inkscape:groupmode="layer">
    <path
       sodipodi:type="star"
       style="color:#000000;display:inline;overflow:visible;visibility:visible;fill:none;fill-opacity:1;fill-rule:nonzero;stroke:#0093d9;stroke-width:1.16023;stroke-linecap:round;stroke-linejoin:miter;stroke-miterlimit:4;stroke-dasharray:2.32046, 4.64092;stroke-dashoffset:7.51718;stroke-opacity:1;marker:none;enable-background:accumulate"
       id="path7936"
       sodipodi:sides="6"
       sodipodi:cx="121.90476"
       sodipodi:cy="126.57602"
       sodipodi:r1="103.56153"
       sodipodi:r2="103.56153"
       sodipodi:arg1="-0.52327829"
       sodipodi:arg2="0.0003204856"
       inkscape:flatsided="true"
       inkscape:rounded="0"
       inkscape:randomized="0"
       d="m 211.60827,74.824 -0.0332,103.56153 -89.70351,51.75202 -89.670315,-51.80951 0.03319,-103.561527 89.703505,-51.752019 z"
       inkscape:transform-center-x="0.34789098"
       inkscape:transform-center-y="-1.5566024"
       transform="matrix(0.86033594,0,0,0.86346354,277.62084,265.70622)" />
    <path
       transform="matrix(0.80621714,0,0,0.809148,284.21829,272.58127)"
       inkscape:transform-center-y="-1.4586807"
       inkscape:transform-center-x="0.32600218"
       d="m 211.60827,74.824 -0.0332,103.56153 -89.70351,51.75202 -89.670315,-51.80951 0.03319,-103.561527 89.703505,-51.752019 z"
       inkscape:randomized="0"
       inkscape:rounded="0"
       inkscape:flatsided="true"
       sodipodi:arg2="0.0003204856"
       sodipodi:arg1="-0.52327829"
       sodipodi:r2="103.56153"
       sodipodi:r1="103.56153"
       sodipodi:cy="126.57602"
       sodipodi:cx="121.90476"
       sodipodi:sides="6"
       id="path8410"
       style="color:#000000;display:inline;overflow:visible;visibility:visible;fill:none;fill-opacity:1;fill-rule:nonzero;stroke:#db3279;stroke-width:1.23811;stroke-linecap:round;stroke-linejoin:miter;stroke-miterlimit:4;stroke-dasharray:none;stroke-dashoffset:7.51718;stroke-opacity:1;marker:none;enable-background:accumulate"
       sodipodi:type="star" />
    <path
       transform="matrix(0.91445474,0,0,0.91777907,271.02361,258.83118)"
       inkscape:transform-center-y="-1.6545161"
       inkscape:transform-center-x="0.3697741"
       d="m 211.60827,74.824 -0.0332,103.56153 -89.70351,51.75202 -89.670315,-51.80951 0.03319,-103.561527 89.703505,-51.752019 z"
       inkscape:randomized="0"
       inkscape:rounded="0"
       inkscape:flatsided="true"
       sodipodi:arg2="0.0003204856"
       sodipodi:arg1="-0.52327829"
       sodipodi:r2="103.56153"
       sodipodi:r1="103.56153"
       sodipodi:cy="126.57602"
       sodipodi:cx="121.90476"
       sodipodi:sides="6"
       id="path8424"
       style="color:#000000;display:inline;overflow:visible;visibility:visible;fill:#ffffff;fill-opacity:1;fill-rule:nonzero;stroke:none;stroke-width:0.204669;stroke-linecap:round;stroke-linejoin:miter;stroke-miterlimit:4;stroke-dasharray:none;stroke-dashoffset:7.51718;stroke-opacity:1;marker:none;enable-background:accumulate"
       sodipodi:type="star" />
    <circle
       id="path852"
       style="fill:#ffff00;stroke:#000000"
       cx="382.5"
       cy="370.09048"
       r="0.061615959" />
  </g>
  <g
     inkscape:groupmode="layer"
     id="g368"
     inkscape:label="Trim Lines copy"
     style="display:none"
     transform="translate(-209.97101,-189.375)"
     sodipodi:insensitive="true">
    <path
       transform="matrix(0.86033594,0,0,0.86346354,277.62095,265.70622)"
       inkscape:transform-center-y="-1.5566024"
       inkscape:transform-center-x="0.34789098"
       d="m 211.60827,74.824 -0.0332,103.56153 -89.70351,51.75202 -89.670315,-51.80951 0.03319,-103.561527 89.703505,-51.752019 z"
       inkscape:randomized="0"
       inkscape:rounded="0"
       inkscape:flatsided="true"
       sodipodi:arg2="0.0003204856"
       sodipodi:arg1="-0.52327829"
       sodipodi:r2="103.56153"
       sodipodi:r1="103.56153"
       sodipodi:cy="126.57602"
       sodipodi:cx="121.90476"
       sodipodi:sides="6"
       id="path362"
       style="color:#000000;display:inline;overflow:visible;visibility:visible;fill:none;fill-opacity:1;fill-rule:nonzero;stroke:#0093d9;stroke-width:1.16023;stroke-linecap:round;stroke-linejoin:miter;stroke-miterlimit:4;stroke-dasharray:2.32046, 4.64092;stroke-dashoffset:7.51718;stroke-opacity:1;marker:none;enable-background:accumulate"
       sodipodi:type="star" />
    <path
       sodipodi:type="star"
       style="color:#000000;display:inline;overflow:visible;visibility:visible;fill:none;fill-opacity:1;fill-rule:nonzero;stroke:#db3279;stroke-width:1.23811;stroke-linecap:round;stroke-linejoin:miter;stroke-miterlimit:4;stroke-dasharray:none;stroke-dashoffset:7.51718;stroke-opacity:1;marker:none;enable-background:accumulate"
       id="path364"
       sodipodi:sides="6"
       sodipodi:cx="121.90476"
       sodipodi:cy="126.57602"
       sodipodi:r1="103.56153"
       sodipodi:r2="103.56153"
       sodipodi:arg1="-0.52327829"
       sodipodi:arg2="0.0003204856"
       inkscape:flatsided="true"
       inkscape:rounded="0"
       inkscape:randomized="0"
       d="m 211.60827,74.824 -0.0332,103.56153 -89.70351,51.75202 -89.670315,-51.80951 0.03319,-103.561527 89.703505,-51.752019 z"
       inkscape:transform-center-x="0.32600218"
       inkscape:transform-center-y="-1.4586807"
       transform="matrix(0.80621714,0,0,0.809148,284.21829,272.58127)" />
    <path
       sodipodi:type="star"
       style="color:#000000;display:inline;overflow:visible;visibility:visible;fill:none;fill-opacity:1;fill-rule:nonzero;stroke:#000000;stroke-width:1.09157;stroke-linecap:round;stroke-linejoin:miter;stroke-miterlimit:4;stroke-dasharray:none;stroke-dashoffset:7.51718;stroke-opacity:1;marker:none;enable-background:accumulate"
       id="path366"
       sodipodi:sides="6"
       sodipodi:cx="121.90476"
       sodipodi:cy="126.57602"
       sodipodi:r1="103.56153"
       sodipodi:r2="103.56153"
       sodipodi:arg1="-0.52327829"
       sodipodi:arg2="0.0003204856"
       inkscape:flatsided="true"
       inkscape:rounded="0"
       inkscape:randomized="0"
       d="m 211.60827,74.824 -0.0332,103.56153 -89.70351,51.75202 -89.670315,-51.80951 0.03319,-103.561527 89.703505,-51.752019 z"
       inkscape:transform-center-x="0.3697741"
       inkscape:transform-center-y="-1.6545161"
       transform="matrix(0.91445474,0,0,0.91777907,271.02361,258.83118)" />
  </g>
  <g
     inkscape:groupmode="layer"
     id="layer1"
     inkscape:label="Project artwork"
     style="display:inline">
    <g
       transform="matrix(0.28045932,0,0,0.28045932,117.26211,129.05972)"
       id="g2016">
      <path
         inkscape:connector-curvature="0"
         d="M 197.05847,0 C 122.56682,0 61.96732,60.5995 61.96732,135.09115 c 0,74.49165 60.5995,135.09115 135.09115,135.09115 74.49165,0 135.09115,-60.5995 135.09115,-135.09115 C 332.14962,60.5995 271.49293,0 197.05847,0 Z m 92.72867,197.97742 c -21.03832,30.92862 -55.51144,49.27997 -92.78586,49.27997 -37.10288,0 -71.576,-18.29418 -92.61431,-48.99412 l 92.61431,-90.21322 z m 19.43755,-62.88627 c 0,14.40668 -2.74411,28.5275 -8.23235,41.9623 L 208.5495,87.41192 c -6.3458,-6.34579 -16.69345,-6.40296 -22.98209,-0.11435 l -92.38564,90.04172 c -5.54544,-13.54913 -8.34671,-27.72713 -8.34671,-42.24814 0,-61.85723 50.36618,-112.22342 112.22341,-112.22342 61.85721,0 112.16622,50.30903 112.16622,112.22342 z"
         style="opacity:1;fill:#292b29;stroke-width:5.71692;stop-opacity:1"
         id="path64" />
      <path
         inkscape:connector-curvature="0"
         d="M 62.44243,371.51199 35.1407,307.55176 c -0.40348,-1.26806 -2.03659,-1.94052 -3.32386,-1.94052 h -0.84538 c -1.30648,0 -2.88195,0.8838 -3.40071,2.07501 L 0.0961,371.60806 C 0.0385,371.74255 0,371.89625 0,372.06917 c 0,0.61482 0.51875,1.11436 1.13357,1.11436 h 7.62758 c 0.57639,0 1.13357,-0.59561 1.3257,-0.99908 0.0576,-0.13449 5.32202,-12.91117 5.32202,-12.91117 h 31.77838 l 5.32201,13.14172 c 0,0 0.40347,1.15279 1.65232,1.15279 h 6.89749 c 0.82616,0 1.51783,-0.67246 1.51783,-1.49862 -0.0192,-0.21134 -0.1345,-0.55718 -0.1345,-0.55718 z m -43.7481,-20.6156 12.60376,-30.26055 12.50769,30.26055 z m 171.43802,-1.69075 c 0,-12.12343 -7.8005,-20.11606 -19.17463,-20.11606 -6.49401,0 -11.18199,2.72826 -13.91024,6.30188 v -28.32003 h -0.0192 a 1.0567176,1.0567176 0 0 0 -1.05672,-0.99908 h -7.16647 c -0.57639,0 -1.05672,0.46112 -1.05672,1.03751 v 65.03616 c 0,0.55718 0.46112,1.01829 1.01829,1.01829 h 7.37782 c 0.55717,0 1.01829,-0.46111 1.01829,-1.01829 v -22.47926 c 0.0961,-5.91762 4.22687,-12.12343 12.02736,-12.12343 6.85906,0 11.56626,5.1683 11.56626,12.9688 v 21.63389 c 0,0.55718 0.46111,1.01829 1.01829,1.01829 h 7.37781 c 0.55718,0 1.01829,-0.46111 1.01829,-1.01829 z m 17.02275,-40.23212 c -3.66969,0.0961 -6.57086,2.53613 -6.57086,6.30188 0,3.76576 2.92039,6.39795 6.57086,6.39795 3.76576,0 6.66693,-2.63219 6.66693,-6.39795 0,-3.76575 -2.92038,-6.39794 -6.66693,-6.30188 z m 97.46779,41.92287 c 0,-0.23055 0,-0.48032 -0.0192,-0.69167 v -0.0769 c 0,-0.17291 0,-0.34583 -0.0192,-0.51875 0,-0.0961 -0.0192,-0.17292 -0.0192,-0.26898 -0.0576,-0.71089 -0.11528,-1.36413 -0.1537,-1.69075 -1.40255,-11.0475 -9.29912,-18.52138 -20.53875,-18.52138 -13.06487,0 -22.19107,9.77944 -22.19107,22.46005 0,12.87275 9.87551,22.46006 23.30543,22.46006 8.45374,0 13.50677,-2.74747 16.60007,-5.16831 0,0 0.69167,-0.48033 0.26898,-1.26806 l -3.11251,-5.20674 c -0.26898,-0.42269 -1.05672,-0.46111 -1.57547,-0.0384 -2.38242,1.7676 -5.70627,3.78497 -11.16278,3.78497 -8.08869,0 -13.91025,-4.97618 -15.13988,-11.83524 h 32.9888 c 0.49954,0 0.71088,-0.42268 0.71088,-0.92222 0,0 0.0384,-1.07593 0.0384,-2.13265 v -0.0576 c 0.0192,-0.11528 0.0192,-0.21135 0.0192,-0.30741 z m -33.64204,-3.28543 c 1.40255,-6.76299 6.39794,-10.8938 13.16093,-10.8938 6.20582,0 11.08593,4.32294 11.56626,10.8938 z M 95.66179,329.24329 c 0,0 -1.70996,-0.13449 -2.61297,-0.13449 -7.70443,0 -12.87274,4.22687 -14.65956,9.29911 l -0.32662,-7.47387 a 1.1028289,1.1028289 0 0 0 -1.09514,-0.97987 h -5.87919 a 1.0759306,1.0759306 0 0 0 -1.07593,1.07593 v 41.09671 c 0,0.57639 0.48032,1.05672 1.05671,1.05672 h 7.26253 c 0.5764,0 1.05672,-0.46112 1.07594,-1.03751 V 350.1663 c 0.0961,-6.10975 4.22687,-12.12344 12.31556,-12.12344 1.26806,0 3.17015,0.32663 3.17015,0.32663 0.57639,0.0769 1.01829,-0.26899 1.05672,-0.76853 l 0.5956,-7.37781 c 0.0384,-0.51875 -0.38426,-0.94143 -0.8838,-0.97986 z m 38.17633,33.60362 c 0.38426,-0.21135 0.82616,-0.0576 1.01829,0.30741 l 3.15094,5.7447 c 0.19213,0.36505 0.0576,0.76852 -0.30741,0.99908 l -0.0384,0.0192 c -2.95881,1.82524 -7.12804,4.09237 -14.44821,4.09237 -13.91024,0 -23.49755,-9.77944 -23.49755,-22.36398 0,-12.77668 10.24055,-22.55612 23.49755,-22.55612 7.39703,0 11.83524,2.26714 14.75562,4.30372 0.13449,0.0961 0.53797,0.4419 0.21135,0.99908 l -3.30465,5.68706 c -0.21134,0.36505 -0.65324,0.46112 -1.01829,0.24977 l -0.0769,-0.0576 c -2.28635,-1.42176 -5.37965,-2.63218 -9.52967,-2.63218 -8.93407,0 -14.94775,5.91761 -14.94775,14.00631 0,7.89656 6.01368,13.81418 14.56349,13.81418 4.59191,0 7.56994,-1.22964 9.91393,-2.59376 z m 77.10196,-32.91195 h -7.28175 c -0.55718,0 -1.01829,0.46111 -1.01829,1.01829 l -0.0961,41.21199 c 0,0.55717 0.46112,1.01829 1.0183,1.01829 h 7.35859 c 0.55718,0 1.01829,-0.46112 1.01829,-1.01829 v -41.21199 c 0,-0.55718 -0.4419,-1.01829 -0.99907,-1.01829 z m 44.30528,33.75732 c -0.11528,-0.23056 -0.86459,-0.24977 -1.69075,0.21135 -1.63311,0.84537 -3.47756,1.74838 -6.74378,1.74838 -5.36044,0 -8.64587,-2.34399 -8.64587,-8.08869 v -19.82787 h 16.10054 c 0.55717,0 1.01829,-0.46111 1.01829,-1.01829 v -5.76391 c 0,-0.55718 -0.46112,-1.01829 -1.01829,-1.01829 h -16.10054 v -13.8334 c 0,-0.55717 -0.46111,-1.01829 -1.01829,-1.01829 h -7.08961 c -0.55718,0 -1.01829,0.46112 -1.01829,1.01829 v 13.8334 h -8.01185 c -0.55717,0 -1.01829,0.46111 -1.01829,1.01829 v 5.76391 c 0,0.55718 0.46112,1.01829 1.01829,1.01829 h 7.81971 v 20.40426 c 0,10.24055 6.49401,15.88919 16.08133,15.88919 6.80141,0 10.74009,-2.34399 12.60375,-3.66969 0.32663,-0.36505 0.51876,-0.7301 0.32663,-1.13357 z m 89.49437,-0.69167 c 0.38427,-0.21134 0.82617,-0.0576 1.0183,0.30741 l 3.15094,5.7447 c 0.19213,0.36505 0.0576,0.76852 -0.30741,0.99908 l -0.0384,0.0192 c -2.95881,1.82524 -7.12804,4.09238 -14.44821,4.09238 -13.91025,0 -23.49756,-9.77944 -23.49756,-22.36399 0,-12.77667 10.24056,-22.55611 23.49756,-22.55611 7.39702,0 11.83524,2.26713 14.75562,4.30372 0.13449,0.0961 0.53796,0.4419 0.21134,0.99908 l -3.30464,5.68706 c -0.21134,0.36505 -0.65324,0.46111 -1.01829,0.24977 l -0.0768,-0.0576 c -2.28636,-1.42177 -5.37966,-2.63219 -9.52968,-2.63219 -8.93406,0 -14.94775,5.91762 -14.94775,14.00631 0,7.89656 6.01369,13.81418 14.56349,13.81418 4.59192,0 7.56994,-1.22963 9.91394,-2.59376 z m 46.68771,0.90302 c -0.11528,-0.23056 -0.86459,-0.24977 -1.69075,0.21134 -1.63311,0.84537 -3.47756,1.74839 -6.74378,1.74839 -5.36044,0 -8.64587,-2.344 -8.64587,-8.0887 V 337.9468 h 16.10053 c 0.55718,0 1.01829,-0.46111 1.01829,-1.01829 v -5.76392 c 0,-0.55718 -0.46111,-1.01829 -1.01829,-1.01829 h -16.10053 v -13.83339 c 0,-0.55718 -0.46111,-1.01829 -1.01829,-1.01829 h -7.08962 c -0.55717,0 -1.01829,0.46111 -1.01829,1.01829 V 330.1463 H 357.209 c -0.55718,0 -1.01829,0.46111 -1.01829,1.01829 v 5.76392 c 0,0.55718 0.46111,1.01829 1.01829,1.01829 h 7.81971 v 20.40426 c 0,10.24055 6.49401,15.88919 16.08132,15.88919 6.80142,0 10.7401,-2.344 12.60376,-3.6697 0.32662,-0.36504 0.51875,-0.73009 0.32662,-1.13357 z"
         style="opacity:1;fill:#292b29;stroke-width:1.9213;stop-opacity:1"
         id="path2" />
    </g>
  </g>
  <g
     sodipodi:insensitive="true"
     transform="translate(-209.97101,-189.375)"
     style="display:none"
     inkscape:label="Preview Without Bleeds"
     id="layer2"
     inkscape:groupmode="layer">
    <path
       inkscape:connector-curvature="0"
       id="rect8416"
       d="M 269.94336,252.9082 V 497.0918 H 495.05664 V 252.9082 Z m 112.58594,32.66992 77.14648,44.73633 -0.0293,89.42188 -77.17578,44.68555 -77.14648,-44.73633 0.0293,-89.42188 z"
       style="opacity:1;fill:#aaaaaa;fill-opacity:1;stroke:none;stroke-width:20.25;stroke-linecap:round;stroke-linejoin:round;stroke-miterlimit:4;stroke-dasharray:none;stroke-dashoffset:6.5;stroke-opacity:1" />
  </g>
</svg>
