<?xml version="1.0" encoding="UTF-8" standalone="no"?>
<svg
   xmlns:dc="http://purl.org/dc/elements/1.1/"
   xmlns:cc="http://creativecommons.org/ns#"
   xmlns:rdf="http://www.w3.org/1999/02/22-rdf-syntax-ns#"
   xmlns:svg="http://www.w3.org/2000/svg"
   xmlns="http://www.w3.org/2000/svg"
   height="90.800858"
   width="500"
   id="svg6"
   version="1.1"
   viewBox="0 0 499.99999 90.800858">
  <metadata
     id="metadata12">
    <rdf:RDF>
      <cc:Work
         rdf:about="">
        <dc:format>image/svg+xml</dc:format>
        <dc:type
           rdf:resource="http://purl.org/dc/dcmitype/StillImage" />
        <dc:title></dc:title>
      </cc:Work>
    </rdf:RDF>
  </metadata>
  <defs
     id="defs10" />
  <g
     style="fill:#292b29"
     transform="matrix(1.9213047,0,0,1.9213047,-7.8197101,-2.7666788)"
     id="g4">
    <path
       id="path2"
       d="M 91.68,41.88 77.47,8.59 C 77.26,7.93 76.41,7.58 75.74,7.58 H 75.3 c -0.68,0 -1.5,0.46 -1.77,1.08 l -14.3,33.27 c -0.03,0.07 -0.05,0.15 -0.05,0.24 0,0.32 0.27,0.58 0.59,0.58 h 3.97 c 0.3,0 0.59,-0.31 0.69,-0.52 0.03,-0.07 2.77,-6.72 2.77,-6.72 h 16.54 l 2.77,6.84 c 0,0 0.21,0.6 0.86,0.6 h 3.59 c 0.43,0 0.79,-0.35 0.79,-0.78 -0.01,-0.11 -0.07,-0.29 -0.07,-0.29 z M 68.91,31.15 75.47,15.4 81.98,31.15 Z m 89.23,-0.88 c 0,-6.31 -4.06,-10.47 -9.98,-10.47 -3.38,0 -5.82,1.42 -7.24,3.28 V 8.34 h -0.01 a 0.55,0.55 0 0 0 -0.55,-0.52 h -3.73 c -0.3,0 -0.55,0.24 -0.55,0.54 v 33.85 c 0,0.29 0.24,0.53 0.53,0.53 h 3.84 c 0.29,0 0.53,-0.24 0.53,-0.53 v -11.7 c 0.05,-3.08 2.2,-6.31 6.26,-6.31 3.57,0 6.02,2.69 6.02,6.75 v 11.26 c 0,0.29 0.24,0.53 0.53,0.53 h 3.84 c 0.29,0 0.53,-0.24 0.53,-0.53 z M 167,9.33 c -1.91,0.05 -3.42,1.32 -3.42,3.28 0,1.96 1.52,3.33 3.42,3.33 1.96,0 3.47,-1.37 3.47,-3.33 0,-1.96 -1.52,-3.33 -3.47,-3.28 z m 50.73,21.82 c 0,-0.12 0,-0.25 -0.01,-0.36 v -0.04 c 0,-0.09 0,-0.18 -0.01,-0.27 0,-0.05 -0.01,-0.09 -0.01,-0.14 -0.03,-0.37 -0.06,-0.71 -0.08,-0.88 -0.73,-5.75 -4.84,-9.64 -10.69,-9.64 -6.8,0 -11.55,5.09 -11.55,11.69 0,6.7 5.14,11.69 12.13,11.69 4.4,0 7.03,-1.43 8.64,-2.69 0,0 0.36,-0.25 0.14,-0.66 l -1.62,-2.71 c -0.14,-0.22 -0.55,-0.24 -0.82,-0.02 -1.24,0.92 -2.97,1.97 -5.81,1.97 -4.21,0 -7.24,-2.59 -7.88,-6.16 h 17.17 c 0.26,0 0.37,-0.22 0.37,-0.48 0,0 0.02,-0.56 0.02,-1.11 v -0.03 c 0.01,-0.06 0.01,-0.11 0.01,-0.16 z m -17.51,-1.71 c 0.73,-3.52 3.33,-5.67 6.85,-5.67 3.23,0 5.77,2.25 6.02,5.67 z m -91.25,-9.56 c 0,0 -0.89,-0.07 -1.36,-0.07 -4.01,0 -6.7,2.2 -7.63,4.84 l -0.17,-3.89 a 0.574,0.574 0 0 0 -0.57,-0.51 h -3.06 a 0.56,0.56 0 0 0 -0.56,0.56 V 42.2 c 0,0.3 0.25,0.55 0.55,0.55 h 3.78 c 0.3,0 0.55,-0.24 0.56,-0.54 V 30.77 c 0.05,-3.18 2.2,-6.31 6.41,-6.31 0.66,0 1.65,0.17 1.65,0.17 0.3,0.04 0.53,-0.14 0.55,-0.4 l 0.31,-3.84 c 0.02,-0.27 -0.2,-0.49 -0.46,-0.51 z m 19.87,17.49 c 0.2,-0.11 0.43,-0.03 0.53,0.16 l 1.64,2.99 c 0.1,0.19 0.03,0.4 -0.16,0.52 l -0.02,0.01 c -1.54,0.95 -3.71,2.13 -7.52,2.13 -7.24,0 -12.23,-5.09 -12.23,-11.64 0,-6.65 5.33,-11.74 12.23,-11.74 3.85,0 6.16,1.18 7.68,2.24 0.07,0.05 0.28,0.23 0.11,0.52 l -1.72,2.96 c -0.11,0.19 -0.34,0.24 -0.53,0.13 l -0.04,-0.03 c -1.19,-0.74 -2.8,-1.37 -4.96,-1.37 -4.65,0 -7.78,3.08 -7.78,7.29 0,4.11 3.13,7.19 7.58,7.19 2.39,0 3.94,-0.64 5.16,-1.35 z m 40.13,-17.13 h -3.79 c -0.29,0 -0.53,0.24 -0.53,0.53 l -0.05,21.45 c 0,0.29 0.24,0.53 0.53,0.53 h 3.83 c 0.29,0 0.53,-0.24 0.53,-0.53 V 20.77 c 0,-0.29 -0.23,-0.53 -0.52,-0.53 z m 23.06,17.57 c -0.06,-0.12 -0.45,-0.13 -0.88,0.11 -0.85,0.44 -1.81,0.91 -3.51,0.91 -2.79,0 -4.5,-1.22 -4.5,-4.21 V 24.3 h 8.38 c 0.29,0 0.53,-0.24 0.53,-0.53 v -3 c 0,-0.29 -0.24,-0.53 -0.53,-0.53 h -8.38 v -7.2 c 0,-0.29 -0.24,-0.53 -0.53,-0.53 h -3.69 c -0.29,0 -0.53,0.24 -0.53,0.53 v 7.2 h -4.17 c -0.29,0 -0.53,0.24 -0.53,0.53 v 3 c 0,0.29 0.24,0.53 0.53,0.53 h 4.07 v 10.62 c 0,5.33 3.38,8.27 8.37,8.27 3.54,0 5.59,-1.22 6.56,-1.91 0.17,-0.19 0.27,-0.38 0.17,-0.59 z m 46.58,-0.36 c 0.2,-0.11 0.43,-0.03 0.53,0.16 l 1.64,2.99 c 0.1,0.19 0.03,0.4 -0.16,0.52 l -0.02,0.01 c -1.54,0.95 -3.71,2.13 -7.52,2.13 -7.24,0 -12.23,-5.09 -12.23,-11.64 0,-6.65 5.33,-11.74 12.23,-11.74 3.85,0 6.16,1.18 7.68,2.24 0.07,0.05 0.28,0.23 0.11,0.52 l -1.72,2.96 c -0.11,0.19 -0.34,0.24 -0.53,0.13 l -0.04,-0.03 c -1.19,-0.74 -2.8,-1.37 -4.96,-1.37 -4.65,0 -7.78,3.08 -7.78,7.29 0,4.11 3.13,7.19 7.58,7.19 2.39,0 3.94,-0.64 5.16,-1.35 z m 24.3,0.47 c -0.06,-0.12 -0.45,-0.13 -0.88,0.11 -0.85,0.44 -1.81,0.91 -3.51,0.91 -2.79,0 -4.5,-1.22 -4.5,-4.21 V 24.41 h 8.38 c 0.29,0 0.53,-0.24 0.53,-0.53 v -3 c 0,-0.29 -0.24,-0.53 -0.53,-0.53 h -8.38 v -7.2 c 0,-0.29 -0.24,-0.53 -0.53,-0.53 h -3.69 c -0.29,0 -0.53,0.24 -0.53,0.53 v 7.2 h -4.17 c -0.29,0 -0.53,0.24 -0.53,0.53 v 3 c 0,0.29 0.24,0.53 0.53,0.53 h 4.07 v 10.62 c 0,5.33 3.38,8.27 8.37,8.27 3.54,0 5.59,-1.22 6.56,-1.91 0.17,-0.19 0.27,-0.38 0.17,-0.59 z M 27.7,1.44 C 14.67,1.44 4.07,12.04 4.07,25.07 4.07,38.1 14.67,48.7 27.7,48.7 40.73,48.7 51.33,38.1 51.33,25.07 51.33,12.04 40.72,1.44 27.7,1.44 Z m 16.22,34.63 c -3.68,5.41 -9.71,8.62 -16.23,8.62 -6.49,0 -12.52,-3.2 -16.2,-8.57 l 16.2,-15.78 z m 3.4,-11 c 0,2.52 -0.48,4.99 -1.44,7.34 L 29.71,16.73 C 28.6,15.62 26.79,15.61 25.69,16.71 L 9.53,32.46 C 8.56,30.09 8.07,27.61 8.07,25.07 8.07,14.25 16.88,5.44 27.7,5.44 c 10.82,0 19.62,8.8 19.62,19.63 z" />
  </g>
</svg>
