<?xml version="1.0" encoding="UTF-8" standalone="no"?>
<svg
   xmlns:dc="http://purl.org/dc/elements/1.1/"
   xmlns:cc="http://creativecommons.org/ns#"
   xmlns:rdf="http://www.w3.org/1999/02/22-rdf-syntax-ns#"
   xmlns:svg="http://www.w3.org/2000/svg"
   xmlns="http://www.w3.org/2000/svg"
   viewBox="0 0 1002.7765 298.66666"
   height="298.66666"
   width="1002.7765"
   xml:space="preserve"
   id="svg2"
   version="1.1"><metadata
     id="metadata8"><rdf:RDF><cc:Work
         rdf:about=""><dc:format>image/svg+xml</dc:format><dc:type
           rdf:resource="http://purl.org/dc/dcmitype/StillImage" /><dc:title></dc:title></cc:Work></rdf:RDF></metadata><defs
     id="defs6"><clipPath
       id="clipPath18"
       clipPathUnits="userSpaceOnUse"><path
         id="path16"
         d="M 0,1080 H 1920 V 0 H 0 Z" /></clipPath></defs><g
     transform="matrix(1.3333333,0,0,-1.3333333,-723.32332,854.66651)"
     id="g10"><g
       id="g12"><g
         clip-path="url(#clipPath18)"
         id="g14"><g
           transform="translate(846,586.1846)"
           id="g20"><path
             id="path22"
             style="fill:#1a1a1a;fill-opacity:1;fill-rule:nonzero;stroke:none"
             d="m 0,0 c 0,1.055 0.706,1.759 1.761,1.759 h 74.965 c 1.055,0 1.758,-0.704 1.758,-1.759 v -15.134 c 0,-1.056 -0.703,-1.759 -1.758,-1.759 H 21.821 c -0.703,0 -1.055,-0.352 -1.055,-1.057 v -29.211 c 0,-0.704 0.352,-1.055 1.055,-1.055 h 46.281 c 1.057,0 1.761,-0.705 1.761,-1.761 v -15.132 c 0,-1.057 -0.704,-1.761 -1.761,-1.761 H 21.821 c -0.703,0 -1.055,-0.352 -1.055,-1.055 v -30.268 c 0,-0.703 0.352,-1.056 1.055,-1.056 h 54.905 c 1.055,0 1.758,-0.703 1.758,-1.759 v -15.134 c 0,-1.057 -0.703,-1.76 -1.758,-1.76 H 1.761 c -1.055,0 -1.761,0.703 -1.761,1.76 z" /></g><g
           transform="translate(935.7605,482.1848)"
           id="g24"><path
             id="path26"
             style="fill:#1a1a1a;fill-opacity:1;fill-rule:nonzero;stroke:none"
             d="m 0,0 c -0.706,0.703 -1.057,1.759 -0.352,2.64 l 10.909,12.67 c 0.705,0.879 1.76,0.879 2.464,0.176 7.743,-6.16 19.182,-12.67 32.554,-12.67 14.255,0 22.525,7.214 22.525,17.245 0,8.622 -5.277,14.253 -21.819,16.541 l -6.337,0.879 C 16.893,40.65 3.871,51.736 3.871,71.621 c 0,21.644 15.838,36.074 40.472,36.074 14.958,0 29.213,-4.751 38.715,-11.966 0.88,-0.704 1.057,-1.408 0.351,-2.464 L 74.963,80.243 c -0.704,-0.88 -1.584,-1.056 -2.464,-0.528 -9.676,6.335 -18.652,9.327 -28.682,9.327 -12.143,0 -18.829,-6.688 -18.829,-16.013 0,-8.271 5.806,-13.902 21.996,-16.19 L 53.319,55.96 C 76.372,52.791 89.041,41.882 89.041,21.293 89.041,0 73.731,-15.837 43.992,-15.837 26.395,-15.837 9.327,-8.798 0,0" /></g><g
           transform="translate(1040.8129,586.1846)"
           id="g28"><path
             id="path30"
             style="fill:#1a1a1a;fill-opacity:1;fill-rule:nonzero;stroke:none"
             d="m 0,0 c 0,1.055 0.706,1.759 1.761,1.759 h 17.245 c 1.057,0 1.76,-0.704 1.76,-1.759 v -98.193 c 0,-0.703 0.352,-1.056 1.055,-1.056 h 54.905 c 1.055,0 1.758,-0.703 1.758,-1.759 v -15.134 c 0,-1.057 -0.703,-1.76 -1.758,-1.76 H 1.761 c -1.055,0 -1.761,0.703 -1.761,1.76 z" /></g><g
           transform="translate(1133.7305,468.2828)"
           id="g32"><path
             id="path34"
             style="fill:#1a1a1a;fill-opacity:1;fill-rule:nonzero;stroke:none"
             d="m 0,0 c -1.055,0 -1.758,0.703 -1.758,1.759 v 81.3 c 0,1.056 0.703,1.759 1.758,1.759 h 16.19 c 1.057,0 1.761,-0.703 1.761,-1.759 V 1.759 C 17.951,0.703 17.247,0 16.19,0 Z m 0,100.833 c -1.055,0 -1.758,0.703 -1.758,1.759 v 15.31 c 0,1.055 0.703,1.759 1.758,1.759 h 16.19 c 1.057,0 1.761,-0.704 1.761,-1.759 v -15.31 c 0,-1.056 -0.704,-1.759 -1.761,-1.759 z" /></g><g
           transform="translate(1223.7311,468.2828)"
           id="g36"><path
             id="path38"
             style="fill:#1a1a1a;fill-opacity:1;fill-rule:nonzero;stroke:none"
             d="M 0,0 C -1.055,0 -1.758,0.703 -1.758,1.759 V 50.68 c 0,10.911 -5.457,18.477 -16.013,18.477 -10.208,0 -16.19,-7.566 -16.19,-18.477 V 1.759 C -33.961,0.703 -34.665,0 -35.722,0 h -16.19 c -1.055,0 -1.758,0.703 -1.758,1.759 v 81.3 c 0,1.056 0.703,1.759 1.758,1.759 h 16.19 c 1.057,0 1.761,-0.703 1.761,-1.759 V 76.9 h 0.174 c 3.696,5.279 11.088,9.855 22.35,9.855 18.125,0 29.388,-13.375 29.388,-31.5 V 1.759 C 17.951,0.703 17.247,0 16.19,0 Z" /></g><g
           transform="translate(1284.3679,467.2267)"
           id="g40"><path
             id="path42"
             style="fill:#1a1a1a;fill-opacity:1;fill-rule:nonzero;stroke:none"
             d="M 0,0 C -17.068,0 -23.579,8.271 -23.579,24.813 V 69.51 c 0,0.703 -0.352,1.055 -1.058,1.055 h -5.631 c -1.055,0 -1.758,0.704 -1.758,1.76 v 11.79 c 0,1.056 0.703,1.76 1.758,1.76 h 5.631 c 0.706,0 1.058,0.351 1.058,1.056 v 23.229 c 0,1.055 0.703,1.759 1.758,1.759 h 16.19 c 1.057,0 1.761,-0.704 1.761,-1.759 V 86.931 c 0,-0.705 0.351,-1.056 1.054,-1.056 H 8.447 c 1.057,0 1.76,-0.704 1.76,-1.76 v -11.79 c 0,-1.056 -0.703,-1.76 -1.76,-1.76 H -2.816 c -0.703,0 -1.054,-0.352 -1.054,-1.055 V 25.516 c 0,-5.983 2.463,-7.918 7.917,-7.918 h 4.4 c 1.057,0 1.76,-0.705 1.76,-1.761 V 1.759 C 10.207,0.704 9.504,0 8.447,0 Z" /></g><g
           transform="translate(619.6022,559.4756)"
           id="g44"><path
             id="path46"
             style="fill:#8080f2;fill-opacity:1;fill-rule:nonzero;stroke:none"
             d="m 0,0 48.432,27.962 c 1.212,0.7 2.706,0.7 3.918,0 L 100.782,0 c 1.212,-0.7 1.959,-1.993 1.959,-3.393 v -55.924 c 0,-1.4 -0.747,-2.694 -1.959,-3.394 L 52.35,-90.673 c -1.212,-0.7 -2.706,-0.7 -3.918,0 L 0,-62.711 c -1.212,0.7 -1.959,1.994 -1.959,3.394 v 55.924 c 0,1.4 0.747,2.693 1.959,3.393" /></g><g
           transform="translate(748,485.5929)"
           id="g48"><path
             id="path50"
             style="fill:#4b32c3;fill-opacity:1;fill-rule:nonzero;stroke:none"
             d="m 0,0 c 0,-1.481 -0.891,-2.849 -2.174,-3.59 l -73.71,-42.527 c -1.282,-0.741 -2.888,-0.741 -4.17,0 L -153.821,-3.59 C -155.103,-2.849 -156,-1.481 -156,0 v 85.055 c 0,1.481 0.884,2.849 2.167,3.59 l 73.707,42.527 c 1.282,0.741 2.886,0.741 4.168,0 L -2.185,88.645 C -0.903,87.904 0,86.536 0,85.055 Z M 47.917,48.41 -9.95,149.082 c -2.102,3.64 -5.986,6.325 -10.189,6.325 h -115.735 c -4.204,0 -8.088,-2.685 -10.19,-6.325 l -57.867,-100.45 c -2.102,-3.641 -2.102,-8.237 0,-11.877 l 57.867,-99.847 c 2.102,-3.64 5.986,-5.501 10.19,-5.501 h 115.735 c 4.203,0 8.087,1.805 10.189,5.446 l 57.867,100.01 c 2.102,3.64 2.102,7.907 0,11.547" /></g></g></g></g></svg>