<?xml version="1.0" encoding="UTF-8" standalone="no"?>
<svg
   xmlns:dc="http://purl.org/dc/elements/1.1/"
   xmlns:cc="http://creativecommons.org/ns#"
   xmlns:rdf="http://www.w3.org/1999/02/22-rdf-syntax-ns#"
   xmlns:svg="http://www.w3.org/2000/svg"
   xmlns="http://www.w3.org/2000/svg"
   xmlns:sodipodi="http://sodipodi.sourceforge.net/DTD/sodipodi-0.dtd"
   xmlns:inkscape="http://www.inkscape.org/namespaces/inkscape"
   inkscape:export-ydpi="97"
   inkscape:export-xdpi="97"
   inkscape:export-filename="/Users/brian/Documents/GitHub/openjs/artwork/projects/eslint/eslint-hex-sticker.png"
   sodipodi:docname="eslint-hex-sticker.svg"
   inkscape:version="1.0beta1 (32d4812, 2019-09-19)"
   version="1.1"
   id="svg7307"
   viewBox="0 0 405.11326 424.1836"
   height="4.713151in"
   width="4.5012584in">
  <defs
     id="defs7309">
    <clipPath
       clipPathUnits="userSpaceOnUse"
       id="clipPath18">
      <path
   d="M 0,1080 H 1920 V 0 H 0 Z"
   id="path16" />

    </clipPath>
  </defs>
  <sodipodi:namedview
     inkscape:document-rotation="0"
     inkscape:window-maximized="0"
     inkscape:window-y="23"
     inkscape:window-x="0"
     inkscape:window-height="1360"
     inkscape:window-width="2504"
     inkscape:guide-bbox="true"
     showguides="true"
     fit-margin-left="1"
     fit-margin-right="1"
     fit-margin-bottom="1"
     fit-margin-top="1"
     units="in"
     showgrid="false"
     inkscape:current-layer="layer3"
     inkscape:document-units="px"
     inkscape:cy="384.8875"
     inkscape:cx="120.5851"
     inkscape:zoom="2.2934539"
     inkscape:pageshadow="2"
     inkscape:pageopacity="0.0"
     borderopacity="1.0"
     bordercolor="#666666"
     pagecolor="#ffffff"
     id="base">
    <sodipodi:guide
       id="guide8412"
       orientation="0,1"
       position="346.56418,302.28024" />
    <sodipodi:guide
       id="guide8414"
       orientation="0,1"
       position="383.0466,122.77018" />
  </sodipodi:namedview>
  <metadata
     id="metadata7312">
    <rdf:RDF>
      <cc:Work
         rdf:about="">
        <dc:format>image/svg+xml</dc:format>
        <dc:type
           rdf:resource="http://purl.org/dc/dcmitype/StillImage" />
        <dc:title />
      </cc:Work>
    </rdf:RDF>
  </metadata>
  <g
     transform="translate(-179.94336,-162.9082)"
     style="display:inline"
     inkscape:label="Background"
     id="layer3"
     inkscape:groupmode="layer">
    <path
       sodipodi:type="star"
       style="color:#000000;display:inline;overflow:visible;visibility:visible;fill:none;fill-opacity:1;fill-rule:nonzero;stroke:#0093d9;stroke-width:1.16023;stroke-linecap:round;stroke-linejoin:miter;stroke-miterlimit:4;stroke-dasharray:2.32046, 4.64092;stroke-dashoffset:7.51718;stroke-opacity:1;marker:none;enable-background:accumulate"
       id="path7936"
       sodipodi:sides="6"
       sodipodi:cx="121.90476"
       sodipodi:cy="126.57602"
       sodipodi:r1="103.56153"
       sodipodi:r2="103.56153"
       sodipodi:arg1="-0.52327829"
       sodipodi:arg2="0.0003204856"
       inkscape:flatsided="true"
       inkscape:rounded="0"
       inkscape:randomized="0"
       d="m 211.60827,74.824 -0.0332,103.56153 -89.70351,51.75202 -89.670315,-51.80951 0.03319,-103.561527 89.703505,-51.752019 z"
       inkscape:transform-center-x="0.34789098"
       inkscape:transform-center-y="-1.5566024"
       transform="matrix(0.86033594,0,0,0.86346354,277.62095,265.70622)" />
    <path
       transform="matrix(0.80621714,0,0,0.809148,284.21829,272.58127)"
       inkscape:transform-center-y="-1.4586807"
       inkscape:transform-center-x="0.32600218"
       d="m 211.60827,74.824 -0.0332,103.56153 -89.70351,51.75202 -89.670315,-51.80951 0.03319,-103.561527 89.703505,-51.752019 z"
       inkscape:randomized="0"
       inkscape:rounded="0"
       inkscape:flatsided="true"
       sodipodi:arg2="0.0003204856"
       sodipodi:arg1="-0.52327829"
       sodipodi:r2="103.56153"
       sodipodi:r1="103.56153"
       sodipodi:cy="126.57602"
       sodipodi:cx="121.90476"
       sodipodi:sides="6"
       id="path8410"
       style="color:#000000;display:inline;overflow:visible;visibility:visible;fill:none;fill-opacity:1;fill-rule:nonzero;stroke:#db3279;stroke-width:1.23811;stroke-linecap:round;stroke-linejoin:miter;stroke-miterlimit:4;stroke-dasharray:none;stroke-dashoffset:7.51718;stroke-opacity:1;marker:none;enable-background:accumulate"
       sodipodi:type="star" />
    <path
       transform="matrix(0.91445474,0,0,0.91777907,271.02361,258.83118)"
       inkscape:transform-center-y="-1.6545161"
       inkscape:transform-center-x="0.3697741"
       d="m 211.60827,74.824 -0.0332,103.56153 -89.70351,51.75202 -89.670315,-51.80951 0.03319,-103.561527 89.703505,-51.752019 z"
       inkscape:randomized="0"
       inkscape:rounded="0"
       inkscape:flatsided="true"
       sodipodi:arg2="0.0003204856"
       sodipodi:arg1="-0.52327829"
       sodipodi:r2="103.56153"
       sodipodi:r1="103.56153"
       sodipodi:cy="126.57602"
       sodipodi:cx="121.90476"
       sodipodi:sides="6"
       id="path8424"
       style="color:#000000;display:inline;overflow:visible;visibility:visible;fill:#ffffff;fill-opacity:1;fill-rule:nonzero;stroke:none;stroke-width:0.204669;stroke-linecap:round;stroke-linejoin:miter;stroke-miterlimit:4;stroke-dasharray:none;stroke-dashoffset:7.51718;stroke-opacity:1;marker:none;enable-background:accumulate"
       sodipodi:type="star" />
    <circle
       id="path852"
       style="fill:#ffff00;stroke:#000000"
       cx="380.81805"
       cy="370.09048"
       r="0.061615959" />
  </g>
  <g
     inkscape:groupmode="layer"
     id="g368"
     inkscape:label="Trim Lines copy"
     style="display:none"
     transform="translate(-179.94336,-162.9082)"
     sodipodi:insensitive="true">
    <path
       transform="matrix(0.86033594,0,0,0.86346354,277.62095,265.70622)"
       inkscape:transform-center-y="-1.5566024"
       inkscape:transform-center-x="0.34789098"
       d="m 211.60827,74.824 -0.0332,103.56153 -89.70351,51.75202 -89.670315,-51.80951 0.03319,-103.561527 89.703505,-51.752019 z"
       inkscape:randomized="0"
       inkscape:rounded="0"
       inkscape:flatsided="true"
       sodipodi:arg2="0.0003204856"
       sodipodi:arg1="-0.52327829"
       sodipodi:r2="103.56153"
       sodipodi:r1="103.56153"
       sodipodi:cy="126.57602"
       sodipodi:cx="121.90476"
       sodipodi:sides="6"
       id="path362"
       style="color:#000000;display:inline;overflow:visible;visibility:visible;fill:none;fill-opacity:1;fill-rule:nonzero;stroke:#0093d9;stroke-width:1.16023;stroke-linecap:round;stroke-linejoin:miter;stroke-miterlimit:4;stroke-dasharray:2.32046, 4.64092;stroke-dashoffset:7.51718;stroke-opacity:1;marker:none;enable-background:accumulate"
       sodipodi:type="star" />
    <path
       sodipodi:type="star"
       style="color:#000000;display:inline;overflow:visible;visibility:visible;fill:none;fill-opacity:1;fill-rule:nonzero;stroke:#db3279;stroke-width:1.23811;stroke-linecap:round;stroke-linejoin:miter;stroke-miterlimit:4;stroke-dasharray:none;stroke-dashoffset:7.51718;stroke-opacity:1;marker:none;enable-background:accumulate"
       id="path364"
       sodipodi:sides="6"
       sodipodi:cx="121.90476"
       sodipodi:cy="126.57602"
       sodipodi:r1="103.56153"
       sodipodi:r2="103.56153"
       sodipodi:arg1="-0.52327829"
       sodipodi:arg2="0.0003204856"
       inkscape:flatsided="true"
       inkscape:rounded="0"
       inkscape:randomized="0"
       d="m 211.60827,74.824 -0.0332,103.56153 -89.70351,51.75202 -89.670315,-51.80951 0.03319,-103.561527 89.703505,-51.752019 z"
       inkscape:transform-center-x="0.32600218"
       inkscape:transform-center-y="-1.4586807"
       transform="matrix(0.80621714,0,0,0.809148,284.21829,272.58127)" />
    <path
       sodipodi:type="star"
       style="color:#000000;display:inline;overflow:visible;visibility:visible;fill:none;fill-opacity:1;fill-rule:nonzero;stroke:#000000;stroke-width:1.09157;stroke-linecap:round;stroke-linejoin:miter;stroke-miterlimit:4;stroke-dasharray:none;stroke-dashoffset:7.51718;stroke-opacity:1;marker:none;enable-background:accumulate"
       id="path366"
       sodipodi:sides="6"
       sodipodi:cx="121.90476"
       sodipodi:cy="126.57602"
       sodipodi:r1="103.56153"
       sodipodi:r2="103.56153"
       sodipodi:arg1="-0.52327829"
       sodipodi:arg2="0.0003204856"
       inkscape:flatsided="true"
       inkscape:rounded="0"
       inkscape:randomized="0"
       d="m 211.60827,74.824 -0.0332,103.56153 -89.70351,51.75202 -89.670315,-51.80951 0.03319,-103.561527 89.703505,-51.752019 z"
       inkscape:transform-center-x="0.3697741"
       inkscape:transform-center-y="-1.6545161"
       transform="matrix(0.91445474,0,0,0.91777907,271.02361,258.83118)" />
  </g>
  <g
     transform="translate(30.027654,26.466807)"
     inkscape:groupmode="layer"
     id="layer1"
     inkscape:label="Project artwork"
     style="display:inline">
    <g
       transform="matrix(0.15739819,0,0,0.15739819,125.45906,121.62201)"
       id="g896">
      <g
         transform="translate(-404.67665,504.60436)"
         id="g928">
    <g
   style="opacity:1;stop-opacity:1"
   id="g20"
   transform="matrix(1.3333333,0,0,-1.3333333,404.67665,73.087063)">
      <path
   inkscape:connector-curvature="0"
   d="m 0,0 c 0,1.055 0.706,1.759 1.761,1.759 h 74.965 c 1.055,0 1.758,-0.704 1.758,-1.759 v -15.134 c 0,-1.056 -0.703,-1.759 -1.758,-1.759 H 21.821 c -0.703,0 -1.055,-0.352 -1.055,-1.057 v -29.211 c 0,-0.704 0.352,-1.055 1.055,-1.055 h 46.281 c 1.057,0 1.761,-0.705 1.761,-1.761 v -15.132 c 0,-1.057 -0.704,-1.761 -1.761,-1.761 H 21.821 c -0.703,0 -1.055,-0.352 -1.055,-1.055 v -30.268 c 0,-0.703 0.352,-1.056 1.055,-1.056 h 54.905 c 1.055,0 1.758,-0.703 1.758,-1.759 v -15.134 c 0,-1.057 -0.703,-1.76 -1.758,-1.76 H 1.761 c -1.055,0 -1.761,0.703 -1.761,1.76 z"
   style="fill:#1a1a1a;fill-opacity:1;fill-rule:nonzero;stroke:none"
   id="path22" />

    </g>

    <g
   style="opacity:1;stop-opacity:1"
   id="g24"
   transform="matrix(1.3333333,0,0,-1.3333333,524.35732,211.75346)">
      <path
   inkscape:connector-curvature="0"
   d="m 0,0 c -0.706,0.703 -1.057,1.759 -0.352,2.64 l 10.909,12.67 c 0.705,0.879 1.76,0.879 2.464,0.176 7.743,-6.16 19.182,-12.67 32.554,-12.67 14.255,0 22.525,7.214 22.525,17.245 0,8.622 -5.277,14.253 -21.819,16.541 l -6.337,0.879 C 16.893,40.65 3.871,51.736 3.871,71.621 c 0,21.644 15.838,36.074 40.472,36.074 14.958,0 29.213,-4.751 38.715,-11.966 0.88,-0.704 1.057,-1.408 0.351,-2.464 L 74.963,80.243 c -0.704,-0.88 -1.584,-1.056 -2.464,-0.528 -9.676,6.335 -18.652,9.327 -28.682,9.327 -12.143,0 -18.829,-6.688 -18.829,-16.013 0,-8.271 5.806,-13.902 21.996,-16.19 L 53.319,55.96 C 76.372,52.791 89.041,41.882 89.041,21.293 89.041,0 73.731,-15.837 43.992,-15.837 26.395,-15.837 9.327,-8.798 0,0"
   style="fill:#1a1a1a;fill-opacity:1;fill-rule:nonzero;stroke:none"
   id="path26" />

    </g>

    <g
   style="opacity:1;stop-opacity:1"
   id="g28"
   transform="matrix(1.3333333,0,0,-1.3333333,664.42718,73.087063)">
      <path
   inkscape:connector-curvature="0"
   d="m 0,0 c 0,1.055 0.706,1.759 1.761,1.759 h 17.245 c 1.057,0 1.76,-0.704 1.76,-1.759 v -98.193 c 0,-0.703 0.352,-1.056 1.055,-1.056 h 54.905 c 1.055,0 1.758,-0.703 1.758,-1.759 v -15.134 c 0,-1.057 -0.703,-1.76 -1.758,-1.76 H 1.761 c -1.055,0 -1.761,0.703 -1.761,1.76 z"
   style="fill:#1a1a1a;fill-opacity:1;fill-rule:nonzero;stroke:none"
   id="path30" />

    </g>

    <g
   style="opacity:1;stop-opacity:1"
   id="g32"
   transform="matrix(1.3333333,0,0,-1.3333333,788.31731,230.28946)">
      <path
   inkscape:connector-curvature="0"
   d="m 0,0 c -1.055,0 -1.758,0.703 -1.758,1.759 v 81.3 c 0,1.056 0.703,1.759 1.758,1.759 h 16.19 c 1.057,0 1.761,-0.703 1.761,-1.759 V 1.759 C 17.951,0.703 17.247,0 16.19,0 Z m 0,100.833 c -1.055,0 -1.758,0.703 -1.758,1.759 v 15.31 c 0,1.055 0.703,1.759 1.758,1.759 h 16.19 c 1.057,0 1.761,-0.704 1.761,-1.759 v -15.31 c 0,-1.056 -0.704,-1.759 -1.761,-1.759 z"
   style="fill:#1a1a1a;fill-opacity:1;fill-rule:nonzero;stroke:none"
   id="path34" />

    </g>

    <g
   style="opacity:1;stop-opacity:1"
   id="g36"
   transform="matrix(1.3333333,0,0,-1.3333333,908.31811,230.28946)">
      <path
   inkscape:connector-curvature="0"
   d="M 0,0 C -1.055,0 -1.758,0.703 -1.758,1.759 V 50.68 c 0,10.911 -5.457,18.477 -16.013,18.477 -10.208,0 -16.19,-7.566 -16.19,-18.477 V 1.759 C -33.961,0.703 -34.665,0 -35.722,0 h -16.19 c -1.055,0 -1.758,0.703 -1.758,1.759 v 81.3 c 0,1.056 0.703,1.759 1.758,1.759 h 16.19 c 1.057,0 1.761,-0.703 1.761,-1.759 V 76.9 h 0.174 c 3.696,5.279 11.088,9.855 22.35,9.855 18.125,0 29.388,-13.375 29.388,-31.5 V 1.759 C 17.951,0.703 17.247,0 16.19,0 Z"
   style="fill:#1a1a1a;fill-opacity:1;fill-rule:nonzero;stroke:none"
   id="path38" />

    </g>

    <g
   style="opacity:1;stop-opacity:1"
   id="g40"
   transform="matrix(1.3333333,0,0,-1.3333333,989.16717,231.69759)">
      <path
   inkscape:connector-curvature="0"
   d="M 0,0 C -17.068,0 -23.579,8.271 -23.579,24.813 V 69.51 c 0,0.703 -0.352,1.055 -1.058,1.055 h -5.631 c -1.055,0 -1.758,0.704 -1.758,1.76 v 11.79 c 0,1.056 0.703,1.76 1.758,1.76 h 5.631 c 0.706,0 1.058,0.351 1.058,1.056 v 23.229 c 0,1.055 0.703,1.759 1.758,1.759 h 16.19 c 1.057,0 1.761,-0.704 1.761,-1.759 V 86.931 c 0,-0.705 0.351,-1.056 1.054,-1.056 H 8.447 c 1.057,0 1.76,-0.704 1.76,-1.76 v -11.79 c 0,-1.056 -0.703,-1.76 -1.76,-1.76 H -2.816 c -0.703,0 -1.054,-0.352 -1.054,-1.055 V 25.516 c 0,-5.983 2.463,-7.918 7.917,-7.918 h 4.4 c 1.057,0 1.76,-0.705 1.76,-1.761 V 1.759 C 10.207,0.704 9.504,0 8.447,0 Z"
   style="fill:#1a1a1a;fill-opacity:1;fill-rule:nonzero;stroke:none"
   id="path42" />

    </g>

  </g>
      <g
         transform="matrix(1.675493,0,0,1.675493,14.21501,-3.094468e-6)"
         id="g914">
    <g
   style="opacity:1;stop-opacity:1"
   id="g44"
   transform="matrix(1.3333333,0,0,-1.3333333,102.81293,108.69906)">
      <path
   inkscape:connector-curvature="0"
   d="m 0,0 48.432,27.962 c 1.212,0.7 2.706,0.7 3.918,0 L 100.782,0 c 1.212,-0.7 1.959,-1.993 1.959,-3.393 v -55.924 c 0,-1.4 -0.747,-2.694 -1.959,-3.394 L 52.35,-90.673 c -1.212,-0.7 -2.706,-0.7 -3.918,0 L 0,-62.711 c -1.212,0.7 -1.959,1.994 -1.959,3.394 v 55.924 c 0,1.4 0.747,2.693 1.959,3.393"
   style="fill:#8080f2;fill-opacity:1;fill-rule:nonzero;stroke:none"
   id="path46" />

    </g>

    <g
   style="opacity:1;stop-opacity:1"
   id="g48"
   transform="matrix(1.3333333,0,0,-1.3333333,274.00999,207.20933)">
      <path
   inkscape:connector-curvature="0"
   d="m 0,0 c 0,-1.481 -0.891,-2.849 -2.174,-3.59 l -73.71,-42.527 c -1.282,-0.741 -2.888,-0.741 -4.17,0 L -153.821,-3.59 C -155.103,-2.849 -156,-1.481 -156,0 v 85.055 c 0,1.481 0.884,2.849 2.167,3.59 l 73.707,42.527 c 1.282,0.741 2.886,0.741 4.168,0 L -2.185,88.645 C -0.903,87.904 0,86.536 0,85.055 Z M 47.917,48.41 -9.95,149.082 c -2.102,3.64 -5.986,6.325 -10.189,6.325 h -115.735 c -4.204,0 -8.088,-2.685 -10.19,-6.325 l -57.867,-100.45 c -2.102,-3.641 -2.102,-8.237 0,-11.877 l 57.867,-99.847 c 2.102,-3.64 5.986,-5.501 10.19,-5.501 h 115.735 c 4.203,0 8.087,1.805 10.189,5.446 l 57.867,100.01 c 2.102,3.64 2.102,7.907 0,11.547"
   style="fill:#4b32c3;fill-opacity:1;fill-rule:nonzero;stroke:none"
   id="path50" />

    </g>

  </g>
    </g>
  </g>
  <g
     transform="translate(-179.94336,-162.9082)"
     style="display:none"
     inkscape:label="Preview Without Bleeds"
     id="layer2"
     inkscape:groupmode="layer"
     sodipodi:insensitive="true">
    <path
       inkscape:connector-curvature="0"
       id="rect8416"
       d="M 269.94336,252.9082 V 497.0918 H 495.05664 V 252.9082 Z m 112.58594,32.66992 77.14648,44.73633 -0.0293,89.42188 -77.17578,44.68555 -77.14648,-44.73633 0.0293,-89.42188 z"
       style="opacity:1;fill:#aaaaaa;fill-opacity:1;stroke:none;stroke-width:20.25;stroke-linecap:round;stroke-linejoin:round;stroke-miterlimit:4;stroke-dasharray:none;stroke-dashoffset:6.5;stroke-opacity:1" />
  </g>
</svg>
