<?xml version="1.0" encoding="UTF-8"?>
<!DOCTYPE svg PUBLIC "-//W3C//DTD SVG 1.1//EN" "http://www.w3.org/Graphics/SVG/1.1/DTD/svg11.dtd">
<svg version="1.1" xmlns="http://www.w3.org/2000/svg" xmlns:xlink="http://www.w3.org/1999/xlink" x="0" y="0" width="104.33" height="112.71" viewBox="0, 0, 104.33, 112.71">
  <g id="Background">
    <rect x="0" y="0" width="104.33" height="112.71" fill="#000000" fill-opacity="0"/>
  </g>
  <g id="Layer_1">
    <path d="M36.976,28.413 C37.791,28.561 38.572,28.021 38.721,27.206 C38.869,26.391 38.329,25.61 37.514,25.461 L36.976,28.413 z M8.944,34.083 L7.645,33.333 L8.944,34.083 z M9.953,54.969 C10.365,55.688 11.282,55.937 12,55.524 C12.719,55.112 12.968,54.196 12.556,53.477 L9.953,54.969 z M19.542,62.894 C18.984,62.281 18.036,62.236 17.423,62.794 C16.81,63.351 16.765,64.3 17.323,64.913 L19.542,62.894 z M39.732,80.715 L38.982,82.014 L39.732,80.715 z M92.219,89.693 C92.904,89.226 93.08,88.293 92.614,87.608 C92.147,86.924 91.214,86.747 90.529,87.214 L92.219,89.693 z M37.514,25.461 C30.755,24.23 24.506,24.181 19.349,25.424 C14.185,26.669 10.006,29.244 7.645,33.333 L10.243,34.833 C12.075,31.66 15.424,29.456 20.052,28.34 C24.686,27.223 30.492,27.232 36.976,28.413 L37.514,25.461 z M7.645,33.333 C4.138,39.407 5.518,47.234 9.953,54.969 L12.556,53.477 C8.334,46.113 7.528,39.536 10.243,34.833 L7.645,33.333 z M17.323,64.913 C22.916,71.059 30.303,77.003 38.982,82.014 L40.482,79.416 C32.044,74.544 24.907,68.79 19.542,62.894 L17.323,64.913 z M38.982,82.014 C49.324,87.985 59.9,91.707 69.217,93.058 C78.48,94.401 86.74,93.429 92.219,89.693 L90.529,87.214 C85.95,90.336 78.59,91.385 69.647,90.089 C60.759,88.8 50.543,85.224 40.482,79.416 L38.982,82.014 z M102.25,84.636 C102.25,80.772 99.117,77.639 95.252,77.639 L95.252,80.639 C97.46,80.639 99.25,82.428 99.25,84.636 L102.25,84.636 z M95.252,77.639 C91.387,77.639 88.254,80.772 88.254,84.636 L91.254,84.636 C91.254,82.428 93.044,80.639 95.252,80.639 L95.252,77.639 z M88.254,84.636 C88.254,88.501 91.387,91.634 95.252,91.634 L95.252,88.634 C93.044,88.634 91.254,86.844 91.254,84.636 L88.254,84.636 z M95.252,91.634 C99.117,91.634 102.25,88.501 102.25,84.636 L99.25,84.636 C99.25,86.844 97.46,88.634 95.252,88.634 L95.252,91.634 z" fill="#FFFFFF"/>
    <path d="M86.501,61.207 C85.966,61.839 86.045,62.786 86.677,63.321 C87.309,63.856 88.256,63.777 88.791,63.145 L86.501,61.207 z M95.553,34.157 L96.852,33.407 L95.553,34.157 z M77.402,24.592 C76.574,24.581 75.893,25.244 75.883,26.072 C75.872,26.901 76.535,27.581 77.363,27.592 L77.402,24.592 z M65.544,28.878 C66.354,28.705 66.87,27.907 66.696,27.097 C66.523,26.287 65.725,25.771 64.915,25.945 L65.544,28.878 z M39.775,37.505 L40.525,38.804 L39.775,37.505 z M5.885,79.639 C6.006,80.459 6.768,81.026 7.587,80.905 C8.407,80.785 8.974,80.023 8.853,79.203 L5.885,79.639 z M88.791,63.145 C93.216,57.917 96.367,52.543 97.859,47.466 C99.353,42.383 99.208,37.488 96.852,33.407 L94.254,34.907 C96.082,38.074 96.319,42.067 94.981,46.62 C93.641,51.181 90.746,56.192 86.501,61.207 L88.791,63.145 z M96.852,33.407 C93.403,27.433 86.119,24.705 77.402,24.592 L77.363,27.592 C85.641,27.699 91.583,30.282 94.254,34.907 L96.852,33.407 z M64.915,25.945 C56.727,27.699 47.794,31.143 39.025,36.206 L40.525,38.804 C49.05,33.882 57.691,30.561 65.544,28.878 L64.915,25.945 z M39.025,36.206 C28.379,42.353 19.671,49.906 13.833,57.524 C8.034,65.092 4.904,72.95 5.885,79.639 L8.853,79.203 C8.045,73.694 10.614,66.658 16.215,59.349 C21.776,52.09 30.166,44.785 40.525,38.804 L39.025,36.206 z" fill="#FFFFFF"/>
    <path d="M33.352,87.712 C33.073,86.932 32.214,86.526 31.434,86.805 C30.654,87.084 30.248,87.943 30.528,88.723 L33.352,87.712 z M69.525,98.363 C69.952,97.653 69.723,96.732 69.013,96.305 C68.302,95.878 67.381,96.108 66.954,96.818 L69.525,98.363 z M72.037,85.177 C71.789,85.968 72.23,86.809 73.02,87.057 C73.811,87.304 74.652,86.864 74.9,86.073 L72.037,85.177 z M77.259,59.147 L75.759,59.147 L77.259,59.147 z M58.319,8.984 C57.562,8.648 56.675,8.989 56.339,9.747 C56.003,10.504 56.344,11.39 57.101,11.726 L58.319,8.984 z M30.528,88.723 C32.842,95.184 35.922,100.613 39.576,104.453 C43.234,108.298 47.551,110.626 52.27,110.626 L52.27,107.626 C48.608,107.626 45.027,105.83 41.749,102.385 C38.466,98.935 35.572,93.91 33.352,87.712 L30.528,88.723 z M52.27,110.626 C59.115,110.626 65.081,105.757 69.525,98.363 L66.954,96.818 C62.738,103.831 57.57,107.626 52.27,107.626 L52.27,110.626 z M74.9,86.073 C77.352,78.238 78.759,69.009 78.759,59.147 L75.759,59.147 C75.759,68.734 74.39,77.658 72.037,85.177 L74.9,86.073 z M78.759,59.147 C78.759,47.05 76.641,35.898 73.069,27.099 C69.519,18.355 64.43,11.698 58.319,8.984 L57.101,11.726 C62.176,13.979 66.861,19.785 70.29,28.228 C73.696,36.617 75.759,47.378 75.759,59.147 L78.759,59.147 z" fill="#FFFFFF"/>
    <path d="M100.75,84.636 C100.75,81.6 98.288,79.139 95.252,79.139 C92.216,79.139 89.754,81.6 89.754,84.636 C89.754,87.673 92.216,90.134 95.252,90.134 C98.288,90.134 100.75,87.673 100.75,84.636 L100.75,84.636 z M9.188,90.134 C12.224,90.134 14.685,87.673 14.685,84.636 C14.685,81.6 12.224,79.139 9.188,79.139 C6.151,79.139 3.69,81.6 3.69,84.636 C3.69,87.673 6.151,90.134 9.188,90.134 L9.188,90.134 z" fill-opacity="0" stroke="#FFFFFF" stroke-width="3" stroke-linecap="round"/>
    <path d="M57.768,9.168 C57.768,12.204 55.306,14.666 52.27,14.666 C49.234,14.666 46.772,12.204 46.772,9.168 C46.772,6.132 49.234,3.67 52.27,3.67 C55.306,3.67 57.768,6.132 57.768,9.168 z" fill-opacity="0" stroke="#FFFFFF" stroke-width="3" stroke-linecap="round"/>
    <path d="M53.331,64.062 C50.617,64.648 47.943,62.923 47.355,60.209 C46.769,57.494 48.493,54.82 51.208,54.232 C53.922,53.646 56.597,55.371 57.184,58.085 C57.771,60.8 56.046,63.474 53.331,64.062 z" fill="#FFFFFF"/>
  </g>
</svg>
