<svg width="360" height="76" viewBox="0 0 360 76" fill="none" xmlns="http://www.w3.org/2000/svg">
<g clip-path="url(#clip0)">
<path fill-rule="evenodd" clip-rule="evenodd" d="M106.327 54H123.311C124.083 54 124.7 53.3824 124.7 52.6104C124.7 51.8384 124.083 51.2208 123.311 51.2208H107.871V41.7638H121.381C122.153 41.7638 122.77 41.1462 122.77 40.3742C122.77 39.6408 122.153 38.9846 121.381 38.9846H107.871V29.7592H123.118C123.89 29.7592 124.507 29.1416 124.507 28.3696C124.507 27.5976 123.89 26.98 123.118 26.98H106.327C105.516 26.98 104.821 27.6748 104.821 28.524V52.456C104.821 53.3052 105.516 54 106.327 54ZM136.639 52.456C136.639 53.3052 137.334 54 138.144 54H153.7C154.472 54 155.09 53.3824 155.09 52.6104C155.09 51.8384 154.472 51.1822 153.7 51.1822H139.688V28.331C139.688 27.4818 138.993 26.787 138.144 26.787C137.334 26.787 136.639 27.4818 136.639 28.331V52.456ZM167.993 54H184.977C185.749 54 186.367 53.3824 186.367 52.6104C186.367 51.8384 185.749 51.2208 184.977 51.2208H169.537V41.7638H183.047C183.819 41.7638 184.437 41.1462 184.437 40.3742C184.437 39.6408 183.819 38.9846 183.047 38.9846H169.537V29.7592H184.784C185.556 29.7592 186.174 29.1416 186.174 28.3696C186.174 27.5976 185.556 26.98 184.784 26.98H167.993C167.182 26.98 166.488 27.6748 166.488 28.524V52.456C166.488 53.3052 167.182 54 167.993 54ZM210.657 54.4632C215.096 54.4632 218.03 52.9192 220.693 50.4874C220.963 50.2558 221.195 49.8698 221.195 49.4066C221.195 48.6346 220.5 47.9398 219.728 47.9398C219.342 47.9398 218.995 48.1328 218.763 48.3644C216.447 50.4874 214.092 51.6454 210.734 51.6454C204.79 51.6454 200.274 46.7432 200.274 40.49V40.4128C200.274 34.1982 204.751 29.3346 210.734 29.3346C214.054 29.3346 216.408 30.5698 218.493 32.4226C218.724 32.577 219.072 32.77 219.496 32.77C220.307 32.77 221.04 32.0752 221.04 31.2646C221.04 30.7242 220.732 30.2996 220.423 30.0294C217.914 27.945 215.135 26.5168 210.773 26.5168C202.821 26.5168 197.108 32.8472 197.108 40.49V40.5672C197.108 48.3258 202.86 54.4632 210.657 54.4632ZM239.888 52.649C239.888 53.4982 240.583 54.193 241.432 54.193C242.281 54.193 242.976 53.4982 242.976 52.649V29.7978H250.812C251.584 29.7978 252.24 29.1802 252.24 28.4082C252.24 27.6362 251.584 26.98 250.812 26.98H232.052C231.28 26.98 230.624 27.6362 230.624 28.4082C230.624 29.1802 231.28 29.7978 232.052 29.7978H239.888V52.649ZM263.716 52.649V28.524C263.716 27.6748 264.41 26.98 265.221 26.98H275.334C278.654 26.98 281.317 27.9836 283.016 29.682C284.328 30.9944 285.1 32.8858 285.1 35.0088V35.086C285.1 39.525 282.089 42.1112 277.882 42.9218L284.598 51.5682C284.907 51.9156 285.1 52.263 285.1 52.6876C285.1 53.4982 284.328 54.193 283.556 54.193C282.938 54.193 282.475 53.8456 282.128 53.3824L274.524 43.5008H266.765V52.649C266.765 53.4982 266.07 54.193 265.221 54.193C264.41 54.193 263.716 53.4982 263.716 52.649ZM266.765 40.7602H275.064C279.117 40.7602 282.012 38.6758 282.012 35.2018V35.1246C282.012 31.805 279.464 29.7978 275.103 29.7978H266.765V40.7602ZM310.124 54.4632C301.902 54.4632 296.382 48.017 296.382 40.5672V40.49C296.382 33.0402 301.979 26.5168 310.201 26.5168C318.423 26.5168 323.943 32.963 323.943 40.4128V40.49C323.943 47.9398 318.346 54.4632 310.124 54.4632ZM310.201 51.6454C316.377 51.6454 320.777 46.7046 320.777 40.5672V40.49C320.777 34.3526 316.3 29.3346 310.124 29.3346C303.948 29.3346 299.547 34.2754 299.547 40.4128V40.49C299.547 46.6274 304.025 51.6454 310.201 51.6454ZM336.344 52.6876C336.344 53.4982 337 54.193 337.811 54.193C338.66 54.193 339.316 53.4982 339.316 52.6876V31.7664L356.069 53.1894C356.532 53.7298 356.995 54.1158 357.651 54.1158H357.806C358.616 54.1158 359.195 53.4982 359.195 52.6876V28.2924C359.195 27.4818 358.539 26.787 357.729 26.787C356.879 26.787 356.223 27.4818 356.223 28.2924V48.6732L339.818 27.752C339.394 27.2116 338.969 26.8642 338.274 26.8642H337.85C337.039 26.8642 336.344 27.559 336.344 28.3696V52.6876Z" fill="white"/>
<path d="M24.6561 19.3511C25.4168 19.4896 26.1458 18.9853 26.2843 18.2246C26.4229 17.4639 25.9185 16.7349 25.1578 16.5964L24.6561 19.3511ZM5.6475 22.8371L6.85994 23.5371L5.6475 22.8371ZM6.0053 37.2389C6.38988 37.9096 7.24541 38.1416 7.91618 37.7571C8.58695 37.3725 8.81896 36.517 8.43438 35.8462L6.0053 37.2389ZM13.1402 42.1878C12.6198 41.6159 11.7343 41.5742 11.1625 42.0946C10.5906 42.615 10.5489 43.5004 11.0693 44.0723L13.1402 42.1878ZM26.5996 54.5706L25.8996 55.783L25.8996 55.783L26.5996 54.5706ZM62.5315 60.9935C63.1704 60.5579 63.3351 59.687 62.8995 59.0481C62.4639 58.4093 61.5929 58.2446 60.9541 58.6801L62.5315 60.9935ZM25.1578 16.5964C20.5237 15.7524 16.2154 15.7134 12.6395 16.5756C9.05758 17.4392 6.10858 19.2385 4.43507 22.1371L6.85994 23.5371C8.03979 21.4936 10.2143 20.0405 13.2958 19.2976C16.3832 18.5532 20.2779 18.5537 24.6561 19.3511L25.1578 16.5964ZM4.43507 22.1371C1.94884 26.4434 2.96015 31.9276 6.0053 37.2389L8.43438 35.8462C5.58825 30.882 5.11224 26.5642 6.85994 23.5371L4.43507 22.1371ZM11.0693 44.0723C14.9044 48.2868 19.9623 52.3551 25.8996 55.783L27.2996 53.3581C21.5879 50.0605 16.7626 46.1686 13.1402 42.1878L11.0693 44.0723ZM25.8996 55.783C32.9729 59.8668 40.2153 62.4185 46.6101 63.3455C52.9545 64.2652 58.6888 63.6137 62.5315 60.9935L60.9541 58.6801C57.9518 60.7273 53.0567 61.4507 47.0118 60.5745C41.0174 59.7055 34.1107 57.2905 27.2996 53.3581L25.8996 55.783Z" fill="white"/>
<path d="M58.1372 41.05C57.6376 41.6402 57.711 42.5236 58.3012 43.0231C58.8913 43.5227 59.7747 43.4492 60.2743 42.8591L58.1372 41.05ZM64.5867 22.8873L63.3742 23.5873L63.3742 23.5873L64.5867 22.8873ZM52.2394 15.9987C51.4662 15.9887 50.8313 16.6073 50.8213 17.3804C50.8112 18.1535 51.4298 18.7884 52.2029 18.7985L52.2394 15.9987ZM44.2443 19.6658C45.0004 19.5038 45.4819 18.7596 45.32 18.0035C45.158 17.2475 44.4138 16.7659 43.6577 16.9279L44.2443 19.6658ZM26.6286 25.1657L25.9286 23.9532L25.9286 23.9532L26.6286 25.1657ZM3.1909 53.8935C3.30318 54.6585 4.01435 55.1877 4.77936 55.0754C5.54436 54.9631 6.0735 54.2519 5.96122 53.4869L3.1909 53.8935ZM60.2743 42.8591C63.3085 39.2746 65.4854 35.5712 66.5198 32.0512C67.556 28.5252 67.4691 25.0798 65.7991 22.1873L63.3742 23.5873C64.5516 25.6267 64.7245 28.2297 63.8334 31.2617C62.9406 34.2998 61.0034 37.6641 58.1372 41.05L60.2743 42.8591ZM65.7991 22.1873C63.3535 17.9514 58.2269 16.0766 52.2394 15.9987L52.2029 18.7985C57.7811 18.871 61.6553 20.61 63.3742 23.5873L65.7991 22.1873ZM43.6577 16.9279C38.0429 18.1309 31.927 20.4901 25.9286 23.9532L27.3286 26.3781C33.0993 23.0464 38.9427 20.8017 44.2443 19.6658L43.6577 16.9279ZM25.9286 23.9532C18.6474 28.1571 12.6811 33.3286 8.67389 38.5583C4.70264 43.741 2.50096 49.1925 3.1909 53.8935L5.96122 53.4869C5.43284 49.8868 7.11037 45.2024 10.8964 40.2613C14.6466 35.3672 20.3157 30.427 27.3286 26.3781L25.9286 23.9532Z" fill="white"/>
<path d="M22.6147 59.2042C22.354 58.4762 21.5526 58.0975 20.8247 58.3581C20.0968 58.6188 19.718 59.4203 19.9787 60.1482L22.6147 59.2042ZM47.1992 66.7761C47.5976 66.1135 47.3833 65.2533 46.7207 64.855C46.058 64.4566 45.1978 64.6708 44.7995 65.3335L47.1992 66.7761ZM48.2214 57.4941C47.9905 58.232 48.4015 59.0174 49.1394 59.2483C49.8773 59.4793 50.6627 59.0683 50.8936 58.3303L48.2214 57.4941ZM52.1375 39.8932H50.7375H52.1375ZM39.402 5.41018C38.6953 5.0964 37.8681 5.41489 37.5543 6.12156C37.2405 6.82823 37.559 7.65546 38.2657 7.96925L39.402 5.41018ZM19.9787 60.1482C21.5651 64.5782 23.685 68.3241 26.2184 70.9864C28.7561 73.6532 31.787 75.305 35.1316 75.305V72.505C32.7736 72.505 30.4296 71.35 28.2468 69.0562C26.0597 66.7578 24.1135 63.3893 22.6147 59.2042L19.9787 60.1482ZM35.1316 75.305C39.9853 75.305 44.1458 71.8554 47.1992 66.7761L44.7995 65.3335C41.9591 70.0584 38.543 72.505 35.1316 72.505V75.305ZM50.8936 58.3303C52.5747 52.9581 53.5375 46.6395 53.5375 39.8932H50.7375C50.7375 46.3828 49.8101 52.4171 48.2214 57.4941L50.8936 58.3303ZM53.5375 39.8932C53.5375 31.6197 52.0893 23.9811 49.6372 17.9418C47.2057 11.953 43.6916 7.31493 39.402 5.41018L38.2657 7.96925C41.5878 9.44438 44.7256 13.2875 47.0429 18.9951C49.3398 24.6523 50.7375 31.9256 50.7375 39.8932H53.5375Z" fill="white"/>
<path fill-rule="evenodd" clip-rule="evenodd" d="M68.123 57.2393C68.123 55.173 66.448 53.498 64.3817 53.498C62.3155 53.498 60.6404 55.173 60.6404 57.2393C60.6404 59.3055 62.3155 60.9806 64.3817 60.9806C66.448 60.9806 68.123 59.3055 68.123 57.2393V57.2393Z" stroke="white" stroke-width="2.8" stroke-linecap="round"/>
<path fill-rule="evenodd" clip-rule="evenodd" d="M5.8134 60.9806C7.87966 60.9806 9.5547 59.3055 9.5547 57.2393C9.5547 55.173 7.87966 53.498 5.8134 53.498C3.74713 53.498 2.0721 55.173 2.0721 57.2393C2.0721 59.3055 3.74713 60.9806 5.8134 60.9806V60.9806V60.9806Z" stroke="white" stroke-width="2.8" stroke-linecap="round"/>
<circle cx="35.1316" cy="5.88142" r="3.7413" stroke="white" stroke-width="2.8" stroke-linecap="round"/>
<path fill-rule="evenodd" clip-rule="evenodd" d="M35.854 43.2378C34.0067 43.637 32.1868 42.463 31.7868 40.6157C31.3885 38.7685 32.5617 36.9485 34.409 36.5486C36.2562 36.1495 38.0761 37.3235 38.4761 39.1707C38.8752 41.018 37.7012 42.8379 35.854 43.2378Z" fill="white"/>
</g>
<defs>
<clipPath id="clip0">
<rect width="360" height="76" fill="white"/>
</clipPath>
</defs>
</svg>
