<?xml version="1.0" encoding="UTF-8"?>
<!DOCTYPE svg PUBLIC "-//W3C//DTD SVG 1.1//EN" "http://www.w3.org/Graphics/SVG/1.1/DTD/svg11.dtd">
<svg version="1.1" xmlns="http://www.w3.org/2000/svg" xmlns:xlink="http://www.w3.org/1999/xlink" x="0" y="0" width="372.84" height="88.84" viewBox="0, 0, 372.84, 88.84">
  <g id="Background">
    <rect x="0" y="0" width="372.84" height="88.84" fill="#FFFFFF"/>
  </g>
  <defs>
    <clipPath id="Clip_1">
      <path d="M6.67,6.42 L366.67,6.42 L366.67,82.42 L6.67,82.42 z"/>
    </clipPath>
  </defs>
  <g id="Layer_1">
    <g clip-path="url(#Clip_1)">
      <path d="M112.997,60.42 L129.981,60.42 C130.753,60.42 131.37,59.802 131.37,59.03 C131.37,58.258 130.753,57.641 129.981,57.641 L114.541,57.641 L114.541,48.184 L128.051,48.184 C128.823,48.184 129.44,47.566 129.44,46.794 C129.44,46.061 128.823,45.405 128.051,45.405 L114.541,45.405 L114.541,36.179 L129.788,36.179 C130.56,36.179 131.177,35.562 131.177,34.79 C131.177,34.018 130.56,33.4 129.788,33.4 L112.997,33.4 C112.186,33.4 111.491,34.095 111.491,34.944 L111.491,58.876 C111.491,59.725 112.186,60.42 112.997,60.42 z M143.309,58.876 C143.309,59.725 144.004,60.42 144.814,60.42 L160.37,60.42 C161.142,60.42 161.76,59.802 161.76,59.03 C161.76,58.258 161.142,57.602 160.37,57.602 L146.358,57.602 L146.358,34.751 C146.358,33.902 145.663,33.207 144.814,33.207 C144.004,33.207 143.309,33.902 143.309,34.751 L143.309,58.876 z M174.663,60.42 L191.647,60.42 C192.419,60.42 193.037,59.802 193.037,59.03 C193.037,58.258 192.419,57.641 191.647,57.641 L176.207,57.641 L176.207,48.184 L189.717,48.184 C190.489,48.184 191.107,47.566 191.107,46.794 C191.107,46.061 190.489,45.405 189.717,45.405 L176.207,45.405 L176.207,36.179 L191.454,36.179 C192.226,36.179 192.844,35.562 192.844,34.79 C192.844,34.018 192.226,33.4 191.454,33.4 L174.663,33.4 C173.852,33.4 173.158,34.095 173.158,34.944 L173.158,58.876 C173.158,59.725 173.852,60.42 174.663,60.42 z M217.327,60.883 C221.766,60.883 224.7,59.339 227.363,56.907 C227.633,56.676 227.865,56.29 227.865,55.827 C227.865,55.055 227.17,54.36 226.398,54.36 C226.012,54.36 225.665,54.553 225.433,54.784 C223.117,56.907 220.762,58.065 217.404,58.065 C211.46,58.065 206.944,53.163 206.944,46.91 L206.944,46.833 C206.944,40.618 211.421,35.755 217.404,35.755 C220.724,35.755 223.078,36.99 225.163,38.843 C225.394,38.997 225.742,39.19 226.166,39.19 C226.977,39.19 227.71,38.495 227.71,37.685 C227.71,37.144 227.402,36.72 227.093,36.449 C224.584,34.365 221.805,32.937 217.443,32.937 C209.491,32.937 203.778,39.267 203.778,46.91 L203.778,46.987 C203.778,54.746 209.53,60.883 217.327,60.883 z M246.558,59.069 C246.558,59.918 247.253,60.613 248.102,60.613 C248.951,60.613 249.646,59.918 249.646,59.069 L249.646,36.218 L257.482,36.218 C258.254,36.218 258.91,35.6 258.91,34.828 C258.91,34.056 258.254,33.4 257.482,33.4 L238.722,33.4 C237.95,33.4 237.294,34.056 237.294,34.828 C237.294,35.6 237.95,36.218 238.722,36.218 L246.558,36.218 L246.558,59.069 z M270.386,59.069 L270.386,34.944 C270.386,34.095 271.08,33.4 271.891,33.4 L282.004,33.4 C285.324,33.4 287.987,34.404 289.686,36.102 C290.998,37.414 291.77,39.306 291.77,41.429 L291.77,41.506 C291.77,45.945 288.759,48.531 284.552,49.342 L291.268,57.988 C291.577,58.336 291.77,58.683 291.77,59.108 C291.77,59.918 290.998,60.613 290.226,60.613 C289.608,60.613 289.145,60.266 288.798,59.802 L281.194,49.921 L273.435,49.921 L273.435,59.069 C273.435,59.918 272.74,60.613 271.891,60.613 C271.08,60.613 270.386,59.918 270.386,59.069 z M273.435,47.18 L281.734,47.18 C285.787,47.18 288.682,45.096 288.682,41.622 L288.682,41.545 C288.682,38.225 286.134,36.218 281.773,36.218 L273.435,36.218 L273.435,47.18 z M316.794,60.883 C308.572,60.883 303.052,54.437 303.052,46.987 L303.052,46.91 C303.052,39.46 308.649,32.937 316.871,32.937 C325.093,32.937 330.613,39.383 330.613,46.833 L330.613,46.91 C330.613,54.36 325.016,60.883 316.794,60.883 z M316.871,58.065 C323.047,58.065 327.447,53.125 327.447,46.987 L327.447,46.91 C327.447,40.773 322.97,35.755 316.794,35.755 C310.618,35.755 306.217,40.695 306.217,46.833 L306.217,46.91 C306.217,53.047 310.695,58.065 316.871,58.065 z M343.014,59.108 C343.014,59.918 343.67,60.613 344.481,60.613 C345.33,60.613 345.986,59.918 345.986,59.108 L345.986,38.186 L362.739,59.609 C363.202,60.15 363.665,60.536 364.321,60.536 L364.476,60.536 C365.286,60.536 365.865,59.918 365.865,59.108 L365.865,34.712 C365.865,33.902 365.209,33.207 364.399,33.207 C363.549,33.207 362.893,33.902 362.893,34.712 L362.893,55.093 L346.488,34.172 C346.064,33.632 345.639,33.284 344.944,33.284 L344.52,33.284 C343.709,33.284 343.014,33.979 343.014,34.79 L343.014,59.108 z" fill="#A2ECFB"/>
      <path d="M31.326,25.771 C32.087,25.91 32.816,25.405 32.954,24.645 C33.093,23.884 32.589,23.155 31.828,23.016 L31.326,25.771 z M12.318,29.257 L13.53,29.957 L12.318,29.257 z M12.675,43.659 C13.06,44.33 13.915,44.562 14.586,44.177 C15.257,43.792 15.489,42.937 15.104,42.266 L12.675,43.659 z M19.81,48.608 C19.29,48.036 18.404,47.994 17.833,48.515 C17.261,49.035 17.219,49.92 17.739,50.492 L19.81,48.608 z M33.27,60.991 L32.57,62.203 L32.57,62.203 L33.27,60.991 z M69.201,67.413 C69.84,66.978 70.005,66.107 69.57,65.468 C69.134,64.829 68.263,64.665 67.624,65.1 L69.201,67.413 z M31.828,23.016 C27.194,22.172 22.885,22.133 19.309,22.996 C15.728,23.859 12.779,25.658 11.105,28.557 L13.53,29.957 C14.71,27.914 16.884,26.46 19.966,25.718 C23.053,24.973 26.948,24.974 31.326,25.771 L31.828,23.016 z M11.105,28.557 C8.619,32.863 9.63,38.348 12.675,43.659 L15.104,42.266 C12.258,37.302 11.782,32.984 13.53,29.957 L11.105,28.557 z M17.739,50.492 C21.574,54.707 26.632,58.775 32.57,62.203 L33.97,59.778 C28.258,56.48 23.433,52.589 19.81,48.608 L17.739,50.492 z M32.57,62.203 C39.643,66.287 46.885,68.838 53.28,69.765 C59.625,70.685 65.359,70.034 69.201,67.413 L67.624,65.1 C64.622,67.147 59.727,67.871 53.682,66.994 C47.687,66.125 40.781,63.71 33.97,59.778 L32.57,62.203 z" fill="#A2ECFB"/>
      <path d="M64.807,47.47 C64.308,48.06 64.381,48.944 64.971,49.443 C65.561,49.943 66.445,49.869 66.944,49.279 L64.807,47.47 z M71.257,29.307 L70.044,30.007 L70.044,30.007 L71.257,29.307 z M58.909,22.419 C58.136,22.409 57.501,23.027 57.491,23.8 C57.481,24.573 58.1,25.208 58.873,25.218 L58.909,22.419 z M50.914,26.086 C51.67,25.924 52.152,25.18 51.99,24.423 C51.828,23.667 51.084,23.186 50.328,23.348 L50.914,26.086 z M33.299,31.586 L32.599,30.373 L32.599,30.373 L33.299,31.586 z M9.861,60.313 C9.973,61.078 10.684,61.608 11.449,61.495 C12.214,61.383 12.744,60.672 12.631,59.907 L9.861,60.313 z M66.944,49.279 C69.979,45.695 72.155,41.991 73.19,38.471 C74.226,34.945 74.139,31.5 72.469,28.607 L70.044,30.007 C71.222,32.047 71.395,34.65 70.503,37.682 C69.611,40.72 67.673,44.084 64.807,47.47 L66.944,49.279 z M72.469,28.607 C70.023,24.371 64.897,22.497 58.909,22.419 L58.873,25.218 C64.451,25.291 68.325,27.03 70.044,30.007 L72.469,28.607 z M50.328,23.348 C44.713,24.551 38.597,26.91 32.599,30.373 L33.999,32.798 C39.769,29.466 45.613,27.222 50.914,26.086 L50.328,23.348 z M32.599,30.373 C25.317,34.577 19.351,39.749 15.344,44.978 C11.373,50.161 9.171,55.612 9.861,60.313 L12.631,59.907 C12.103,56.307 13.78,51.622 17.566,46.681 C21.317,41.787 26.986,36.847 33.999,32.798 L32.599,30.373 z" fill="#A2ECFB"/>
      <path d="M29.285,65.624 C29.024,64.896 28.223,64.517 27.495,64.778 C26.767,65.039 26.388,65.84 26.649,66.568 L29.285,65.624 z M53.869,73.196 C54.268,72.533 54.053,71.673 53.391,71.275 C52.728,70.877 51.868,71.091 51.47,71.753 L53.869,73.196 z M54.891,63.914 C54.66,64.652 55.072,65.437 55.809,65.668 C56.547,65.899 57.333,65.488 57.564,64.75 L54.891,63.914 z M58.808,46.313 L57.408,46.313 L58.808,46.313 z M46.072,11.83 C45.365,11.516 44.538,11.835 44.224,12.542 C43.91,13.248 44.229,14.075 44.936,14.389 L46.072,11.83 z M26.649,66.568 C28.235,70.998 30.355,74.744 32.888,77.406 C35.426,80.073 38.457,81.725 41.802,81.725 L41.802,78.925 C39.444,78.925 37.1,77.77 34.917,75.476 C32.73,73.178 30.784,69.809 29.285,65.624 L26.649,66.568 z M41.802,81.725 C46.655,81.725 50.816,78.275 53.869,73.196 L51.47,71.753 C48.629,76.478 45.213,78.925 41.802,78.925 L41.802,81.725 z M57.564,64.75 C59.245,59.378 60.208,53.059 60.208,46.313 L57.408,46.313 C57.408,52.803 56.48,58.837 54.891,63.914 L57.564,64.75 z M60.208,46.313 C60.208,38.04 58.759,30.401 56.307,24.362 C53.876,18.373 50.362,13.735 46.072,11.83 L44.936,14.389 C48.258,15.864 51.396,19.707 53.713,25.415 C56.01,31.072 57.408,38.346 57.408,46.313 L60.208,46.313 z" fill="#A2ECFB"/>
      <path d="M74.793,63.659 C74.793,61.593 73.118,59.918 71.052,59.918 C68.985,59.918 67.31,61.593 67.31,63.659 C67.31,65.725 68.985,67.401 71.052,67.401 C73.118,67.401 74.793,65.725 74.793,63.659 L74.793,63.659 z M12.483,67.401 C14.55,67.401 16.225,65.725 16.225,63.659 C16.225,61.593 14.55,59.918 12.483,59.918 C10.417,59.918 8.742,61.593 8.742,63.659 C8.742,65.725 10.417,67.401 12.483,67.401 L12.483,67.401 L12.483,67.401 z" fill-opacity="0" stroke="#A2ECFB" stroke-width="2.8" stroke-linecap="round"/>
      <path d="M45.543,12.301 C45.543,14.367 43.868,16.042 41.802,16.042 C39.736,16.042 38.061,14.367 38.061,12.301 C38.061,10.235 39.736,8.56 41.802,8.56 C43.868,8.56 45.543,10.235 45.543,12.301 z" fill-opacity="0" stroke="#A2ECFB" stroke-width="2.8" stroke-linecap="round"/>
      <path d="M42.524,49.658 C40.677,50.057 38.857,48.883 38.457,47.036 C38.059,45.188 39.232,43.368 41.079,42.969 C42.926,42.569 44.746,43.743 45.146,45.591 C45.545,47.438 44.371,49.258 42.524,49.658 z" fill="#A2ECFB"/>
    </g>
  </g>
</svg>
