<?xml version="1.0" encoding="UTF-8"?>
<!DOCTYPE svg PUBLIC "-//W3C//DTD SVG 1.1//EN" "http://www.w3.org/Graphics/SVG/1.1/DTD/svg11.dtd">
<svg version="1.1" xmlns="http://www.w3.org/2000/svg" xmlns:xlink="http://www.w3.org/1999/xlink" x="0" y="0" width="110" height="110" viewBox="0, 0, 110, 110">
  <g id="Background">
    <rect x="0" y="0" width="110" height="110" fill="#FFFFFF"/>
  </g>
  <defs>
    <clipPath id="Clip_1">
      <path d="M0,0 L110,0 L110,110 L0,110 z"/>
    </clipPath>
  </defs>
  <g id="Layer_1">
    <g clip-path="url(#Clip_1)">
      <path d="M39.686,27.243 C40.501,27.391 41.282,26.851 41.431,26.036 C41.579,25.221 41.039,24.44 40.224,24.291 L39.686,27.243 z M11.654,32.913 L10.355,32.163 L11.654,32.913 z M12.663,53.799 C13.075,54.518 13.992,54.766 14.71,54.354 C15.429,53.942 15.678,53.026 15.266,52.307 L12.663,53.799 z M22.252,61.724 C21.694,61.111 20.746,61.066 20.133,61.624 C19.52,62.181 19.476,63.13 20.033,63.743 L22.252,61.724 z M42.442,79.545 L41.692,80.844 L42.442,79.545 z M94.929,88.523 C95.614,88.056 95.79,87.123 95.324,86.438 C94.857,85.754 93.924,85.577 93.239,86.044 L94.929,88.523 z M40.224,24.291 C33.465,23.06 27.216,23.011 22.059,24.254 C16.895,25.499 12.716,28.074 10.355,32.163 L12.953,33.663 C14.785,30.49 18.134,28.286 22.762,27.17 C27.396,26.053 33.202,26.061 39.686,27.243 L40.224,24.291 z M10.355,32.163 C6.848,38.237 8.228,46.063 12.663,53.799 L15.266,52.307 C11.044,44.943 10.238,38.366 12.953,33.663 L10.355,32.163 z M20.033,63.743 C25.626,69.889 33.013,75.833 41.692,80.844 L43.192,78.246 C34.754,73.374 27.617,67.62 22.252,61.724 L20.033,63.743 z M41.692,80.844 C52.034,86.815 62.61,90.537 71.927,91.888 C81.19,93.231 89.45,92.259 94.929,88.523 L93.239,86.044 C88.66,89.166 81.3,90.215 72.357,88.919 C63.469,87.63 53.253,84.054 43.192,78.246 L41.692,80.844 z M104.96,83.466 C104.96,79.602 101.827,76.469 97.962,76.469 L97.962,79.469 C100.17,79.469 101.96,81.258 101.96,83.466 L104.96,83.466 z M97.962,76.469 C94.097,76.469 90.964,79.602 90.964,83.466 L93.964,83.466 C93.964,81.258 95.754,79.469 97.962,79.469 L97.962,76.469 z M90.964,83.466 C90.964,87.331 94.097,90.464 97.962,90.464 L97.962,87.464 C95.754,87.464 93.964,85.674 93.964,83.466 L90.964,83.466 z M97.962,90.464 C101.827,90.464 104.96,87.331 104.96,83.466 L101.96,83.466 C101.96,85.674 100.17,87.464 97.962,87.464 L97.962,90.464 z" fill="#A2ECFB"/>
      <path d="M89.211,60.037 C88.676,60.669 88.755,61.616 89.387,62.151 C90.019,62.686 90.966,62.607 91.501,61.975 L89.211,60.037 z M98.263,32.987 L99.562,32.237 L98.263,32.987 z M80.112,23.422 C79.284,23.411 78.603,24.074 78.593,24.902 C78.582,25.731 79.245,26.411 80.073,26.422 L80.112,23.422 z M68.254,27.708 C69.064,27.535 69.58,26.737 69.406,25.927 C69.233,25.117 68.436,24.601 67.625,24.775 L68.254,27.708 z M42.485,36.335 L43.235,37.634 L42.485,36.335 z M8.595,78.469 C8.716,79.289 9.478,79.856 10.297,79.735 C11.117,79.615 11.684,78.853 11.563,78.033 L8.595,78.469 z M91.501,61.975 C95.926,56.747 99.077,51.373 100.569,46.296 C102.063,41.213 101.918,36.318 99.562,32.237 L96.964,33.737 C98.792,36.904 99.029,40.896 97.691,45.45 C96.351,50.011 93.456,55.022 89.211,60.037 L91.501,61.975 z M99.562,32.237 C96.113,26.263 88.829,23.535 80.112,23.422 L80.073,26.422 C88.351,26.529 94.294,29.112 96.964,33.737 L99.562,32.237 z M67.625,24.775 C59.437,26.529 50.504,29.973 41.735,35.036 L43.235,37.634 C51.76,32.712 60.401,29.391 68.254,27.708 L67.625,24.775 z M41.735,35.036 C31.089,41.183 22.381,48.736 16.543,56.354 C10.744,63.922 7.614,71.78 8.595,78.469 L11.563,78.033 C10.755,72.524 13.324,65.488 18.925,58.179 C24.486,50.92 32.876,43.615 43.235,37.634 L41.735,35.036 z" fill="#A2ECFB"/>
      <path d="M36.062,86.542 C35.783,85.762 34.924,85.356 34.144,85.635 C33.364,85.914 32.958,86.773 33.238,87.553 L36.062,86.542 z M72.235,97.193 C72.662,96.483 72.432,95.562 71.722,95.135 C71.012,94.708 70.091,94.938 69.664,95.648 L72.235,97.193 z M74.747,84.007 C74.499,84.798 74.94,85.639 75.73,85.887 C76.521,86.134 77.362,85.694 77.61,84.903 L74.747,84.007 z M79.969,57.977 L78.469,57.977 L79.969,57.977 z M61.029,7.814 C60.272,7.478 59.385,7.819 59.049,8.577 C58.713,9.334 59.054,10.22 59.811,10.556 L61.029,7.814 z M33.238,87.553 C35.551,94.014 38.632,99.443 42.286,103.283 C45.944,107.128 50.261,109.456 54.98,109.456 L54.98,106.456 C51.318,106.456 47.737,104.66 44.459,101.215 C41.176,97.765 38.282,92.74 36.062,86.542 L33.238,87.553 z M54.98,109.456 C61.825,109.456 67.791,104.587 72.235,97.193 L69.664,95.648 C65.448,102.661 60.28,106.456 54.98,106.456 L54.98,109.456 z M77.61,84.903 C80.062,77.068 81.469,67.839 81.469,57.977 L78.469,57.977 C78.469,67.564 77.1,76.488 74.747,84.007 L77.61,84.903 z M81.469,57.977 C81.469,45.88 79.351,34.728 75.779,25.93 C72.229,17.185 67.14,10.528 61.029,7.814 L59.811,10.556 C64.886,12.809 69.571,18.615 72.999,27.058 C76.405,35.447 78.469,46.208 78.469,57.977 L81.469,57.977 z" fill="#A2ECFB"/>
      <path d="M103.46,83.466 C103.46,80.43 100.998,77.969 97.962,77.969 C94.926,77.969 92.464,80.43 92.464,83.466 C92.464,86.503 94.926,88.964 97.962,88.964 C100.998,88.964 103.46,86.503 103.46,83.466 L103.46,83.466 z" fill-opacity="0" stroke="#A2ECFB" stroke-width="3" stroke-linecap="round"/>
      <path d="M11.898,88.964 C14.934,88.964 17.395,86.503 17.395,83.466 C17.395,80.43 14.934,77.969 11.898,77.969 C8.861,77.969 6.4,80.43 6.4,83.466 C6.4,86.503 8.861,88.964 11.898,88.964 L11.898,88.964 L11.898,88.964 z" fill-opacity="0" stroke="#A2ECFB" stroke-width="3" stroke-linecap="round"/>
      <path d="M60.478,7.998 C60.478,11.034 58.016,13.495 54.98,13.495 C51.943,13.495 49.482,11.034 49.482,7.998 C49.482,4.961 51.943,2.5 54.98,2.5 C58.016,2.5 60.478,4.961 60.478,7.998 z" fill-opacity="0" stroke="#A2ECFB" stroke-width="3" stroke-linecap="round"/>
      <path d="M56.041,62.892 C53.327,63.478 50.653,61.753 50.065,59.039 C49.479,56.324 51.203,53.65 53.918,53.062 C56.632,52.476 59.307,54.201 59.894,56.915 C60.481,59.63 58.756,62.304 56.041,62.892 z" fill="#A2ECFB"/>
    </g>
  </g>
</svg>
