<svg width="110" height="110" viewBox="0 0 110 110" fill="none" xmlns="http://www.w3.org/2000/svg">
<g clip-path="url(#clip0)">
<path d="M39.6863 27.2426C40.5013 27.391 41.2823 26.8506 41.4308 26.0356C41.5792 25.2206 41.0388 24.4396 40.2238 24.2911L39.6863 27.2426ZM11.6538 32.9134L10.3548 32.1634L11.6538 32.9134ZM12.663 53.7992C13.0751 54.5179 13.9917 54.7665 14.7104 54.3544C15.4291 53.9424 15.6777 53.0257 15.2656 52.307L12.663 53.7992ZM22.2519 61.7238C21.6944 61.111 20.7457 61.0663 20.133 61.6239C19.5202 62.1814 19.4755 63.1301 20.0331 63.7429L22.2519 61.7238ZM42.4424 79.5448L41.6924 80.8439L42.4424 79.5448ZM94.9293 88.5228C95.6137 88.0561 95.7903 87.1229 95.3236 86.4384C94.8569 85.7539 93.9237 85.5774 93.2392 86.0441L94.9293 88.5228ZM40.2238 24.2911C33.465 23.0601 27.2164 23.0106 22.0589 24.254C16.895 25.499 12.7157 28.0742 10.3548 32.1634L12.9528 33.6634C14.7848 30.4903 18.1344 28.2862 22.7621 27.1704C27.3962 26.0532 33.2017 26.0615 39.6863 27.2426L40.2238 24.2911ZM10.3548 32.1634C6.84831 38.2368 8.22786 46.0635 12.663 53.7992L15.2656 52.307C11.0437 44.9433 10.2377 38.3663 12.9528 33.6634L10.3548 32.1634ZM20.0331 63.7429C25.6263 69.8894 33.0126 75.8326 41.6924 80.8439L43.1924 78.2458C34.7542 73.374 27.6173 67.6199 22.2519 61.7238L20.0331 63.7429ZM41.6924 80.8439C52.0341 86.8147 62.6099 90.5372 71.9272 91.8879C81.1904 93.2307 89.4498 92.259 94.9293 88.5228L93.2392 86.0441C88.6602 89.1664 81.2999 90.2152 72.3575 88.9189C63.4692 87.6304 53.2533 84.0544 43.1924 78.2458L41.6924 80.8439ZM104.96 83.4664C104.96 79.6016 101.827 76.4686 97.962 76.4686V79.4686C100.17 79.4686 101.96 81.2585 101.96 83.4664H104.96ZM97.962 76.4686C94.0973 76.4686 90.9643 79.6016 90.9643 83.4664H93.9643C93.9643 81.2585 95.7541 79.4686 97.962 79.4686V76.4686ZM90.9643 83.4664C90.9643 87.3311 94.0973 90.4641 97.962 90.4641V87.4641C95.7541 87.4641 93.9643 85.6742 93.9643 83.4664H90.9643ZM97.962 90.4641C101.827 90.4641 104.96 87.3311 104.96 83.4664H101.96C101.96 85.6742 100.17 87.4641 97.962 87.4641V90.4641Z" fill="#2F3242"/>
<path d="M89.2112 60.0368C88.6759 60.6691 88.7546 61.6156 89.3869 62.1509C90.0192 62.6861 90.9657 62.6074 91.5009 61.9751L89.2112 60.0368ZM98.2632 32.9872L99.5622 32.2372L98.2632 32.9872ZM80.1119 23.4218C79.2836 23.4111 78.6033 24.0739 78.5926 24.9022C78.5818 25.7306 79.2446 26.4108 80.0729 26.4216L80.1119 23.4218ZM68.254 27.7083C69.064 27.5348 69.58 26.7374 69.4064 25.9274C69.2329 25.1173 68.4355 24.6014 67.6255 24.7749L68.254 27.7083ZM42.4849 36.3352L43.2349 37.6342L42.4849 36.3352ZM8.59525 78.469C8.71554 79.2886 9.47752 79.8556 10.2972 79.7353C11.1168 79.615 11.6837 78.853 11.5634 78.0334L8.59525 78.469ZM91.5009 61.9751C95.9262 56.7473 99.0774 51.3727 100.569 46.2961C102.063 41.2131 101.918 36.3179 99.5622 32.2372L96.9641 33.7372C98.7923 36.9038 99.0292 40.8965 97.691 45.4503C96.3509 50.0106 93.4564 55.0217 89.2112 60.0368L91.5009 61.9751ZM99.5622 32.2372C96.113 26.2631 88.8289 23.5352 80.1119 23.4218L80.0729 26.4216C88.3514 26.5293 94.2935 29.1116 96.9641 33.7372L99.5622 32.2372ZM67.6255 24.7749C59.4369 26.5293 50.504 29.9733 41.7349 35.0361L43.2349 37.6342C51.7602 32.7122 60.4011 29.3909 68.254 27.7083L67.6255 24.7749ZM41.7349 35.0361C31.0888 41.1827 22.3806 48.7361 16.5433 56.3542C10.7445 63.922 7.61355 71.7801 8.59525 78.469L11.5634 78.0334C10.7549 72.524 13.3242 65.4877 18.9246 58.1788C24.4865 50.9203 32.8763 43.6148 43.2349 37.6342L41.7349 35.0361Z" fill="#2F3242"/>
<path d="M36.062 86.5416C35.7827 85.7617 34.924 85.3558 34.1441 85.6352C33.3642 85.9145 32.9583 86.7731 33.2376 87.5531L36.062 86.5416ZM72.2352 97.1934C72.662 96.4834 72.4325 95.5618 71.7225 95.135C71.0125 94.7082 70.0909 94.9378 69.664 95.6478L72.2352 97.1934ZM74.7467 84.0073C74.4993 84.7979 74.9396 85.6394 75.7303 85.8868C76.5209 86.1342 77.3624 85.6939 77.6098 84.9033L74.7467 84.0073ZM79.9695 57.9769H78.4695H79.9695ZM61.0288 7.81436C60.2717 7.47816 59.3853 7.81941 59.0492 8.57655C58.713 9.33369 59.0542 10.22 59.8113 10.5562L61.0288 7.81436ZM33.2376 87.5531C35.5515 94.0141 38.632 99.4434 42.2858 103.283C45.9443 107.128 50.2613 109.456 54.9798 109.456V106.456C51.3184 106.456 47.7373 104.66 44.4591 101.215C41.1763 97.7653 38.2818 92.7402 36.062 86.5416L33.2376 87.5531ZM54.9798 109.456C61.8252 109.456 67.7907 104.587 72.2352 97.1934L69.664 95.6478C65.4478 102.661 60.2798 106.456 54.9798 106.456V109.456ZM77.6098 84.9033C80.0617 77.0677 81.4695 67.8392 81.4695 57.9769H78.4695C78.4695 67.5642 77.0997 76.488 74.7467 84.0073L77.6098 84.9033ZM81.4695 57.9769C81.4695 45.88 79.3514 34.7281 75.7791 25.9295C72.2288 17.1851 67.1398 10.5278 61.0288 7.81436L59.8113 10.5562C64.8857 12.8094 69.5714 18.6149 72.9995 27.0581C76.4055 35.4472 78.4695 46.2077 78.4695 57.9769H81.4695Z" fill="#2F3242"/>
<path fill-rule="evenodd" clip-rule="evenodd" d="M103.46 83.4663C103.46 80.43 100.998 77.9686 97.962 77.9686C94.9257 77.9686 92.4643 80.43 92.4643 83.4663C92.4643 86.5027 94.9257 88.9641 97.962 88.9641C100.998 88.9641 103.46 86.5027 103.46 83.4663V83.4663Z" stroke="#2F3242" stroke-width="3" stroke-linecap="round"/>
<path fill-rule="evenodd" clip-rule="evenodd" d="M11.8976 88.9641C14.9339 88.9641 17.3953 86.5027 17.3953 83.4663C17.3953 80.43 14.9339 77.9686 11.8976 77.9686C8.86126 77.9686 6.39984 80.43 6.39984 83.4663C6.39984 86.5027 8.86126 88.9641 11.8976 88.9641V88.9641V88.9641Z" stroke="#2F3242" stroke-width="3" stroke-linecap="round"/>
<circle cx="54.9798" cy="7.99752" r="5.49773" stroke="#2F3242" stroke-width="3" stroke-linecap="round"/>
<path fill-rule="evenodd" clip-rule="evenodd" d="M56.0413 62.8917C53.3268 63.4782 50.6525 61.7531 50.0648 59.0386C49.4794 56.3241 51.2034 53.6497 53.9179 53.0621C56.6324 52.4756 59.3068 54.2007 59.8944 56.9152C60.4809 59.6297 58.7558 62.304 56.0413 62.8917Z" fill="#2F3242"/>
</g>
<defs>
<clipPath id="clip0">
<rect width="110" height="110" fill="white"/>
</clipPath>
</defs>
</svg>
