<svg width="268" height="230" viewBox="0 0 268 230" fill="none" xmlns="http://www.w3.org/2000/svg">
<path fill-rule="evenodd" clip-rule="evenodd" d="M5.3268 214H22.3108C23.0828 214 23.7004 213.382 23.7004 212.61C23.7004 211.838 23.0828 211.221 22.3108 211.221H6.8708V201.764H20.3808C21.1528 201.764 21.7704 201.146 21.7704 200.374C21.7704 199.641 21.1528 198.985 20.3808 198.985H6.8708V189.759H22.1178C22.8898 189.759 23.5074 189.142 23.5074 188.37C23.5074 187.598 22.8898 186.98 22.1178 186.98H5.3268C4.5162 186.98 3.8214 187.675 3.8214 188.524V212.456C3.8214 213.305 4.5162 214 5.3268 214ZM35.6388 212.456C35.6388 213.305 36.3336 214 37.1442 214H52.7C53.472 214 54.0896 213.382 54.0896 212.61C54.0896 211.838 53.472 211.182 52.7 211.182H38.6882V188.331C38.6882 187.482 37.9934 186.787 37.1442 186.787C36.3336 186.787 35.6388 187.482 35.6388 188.331V212.456ZM66.9931 214H83.9771C84.7491 214 85.3667 213.382 85.3667 212.61C85.3667 211.838 84.7491 211.221 83.9771 211.221H68.5371V201.764H82.0471C82.8191 201.764 83.4367 201.146 83.4367 200.374C83.4367 199.641 82.8191 198.985 82.0471 198.985H68.5371V189.759H83.7841C84.5561 189.759 85.1737 189.142 85.1737 188.37C85.1737 187.598 84.5561 186.98 83.7841 186.98H66.9931C66.1825 186.98 65.4877 187.675 65.4877 188.524V212.456C65.4877 213.305 66.1825 214 66.9931 214ZM109.657 214.463C114.096 214.463 117.03 212.919 119.693 210.487C119.963 210.256 120.195 209.87 120.195 209.407C120.195 208.635 119.5 207.94 118.728 207.94C118.342 207.94 117.995 208.133 117.763 208.364C115.447 210.487 113.092 211.645 109.734 211.645C103.79 211.645 99.2737 206.743 99.2737 200.49V200.413C99.2737 194.198 103.751 189.335 109.734 189.335C113.054 189.335 115.408 190.57 117.493 192.423C117.724 192.577 118.072 192.77 118.496 192.77C119.307 192.77 120.04 192.075 120.04 191.265C120.04 190.724 119.732 190.3 119.423 190.029C116.914 187.945 114.135 186.517 109.773 186.517C101.821 186.517 96.1085 192.847 96.1085 200.49V200.567C96.1085 208.326 101.86 214.463 109.657 214.463ZM138.888 212.649C138.888 213.498 139.583 214.193 140.432 214.193C141.282 214.193 141.976 213.498 141.976 212.649V189.798H149.812C150.584 189.798 151.24 189.18 151.24 188.408C151.24 187.636 150.584 186.98 149.812 186.98H131.053C130.281 186.98 129.624 187.636 129.624 188.408C129.624 189.18 130.281 189.798 131.053 189.798H138.888V212.649ZM162.716 212.649V188.524C162.716 187.675 163.41 186.98 164.221 186.98H174.334C177.654 186.98 180.317 187.984 182.016 189.682C183.328 190.994 184.1 192.886 184.1 195.009V195.086C184.1 199.525 181.089 202.111 176.882 202.922L183.598 211.568C183.907 211.916 184.1 212.263 184.1 212.688C184.1 213.498 183.328 214.193 182.556 214.193C181.938 214.193 181.475 213.846 181.128 213.382L173.524 203.501H165.765V212.649C165.765 213.498 165.07 214.193 164.221 214.193C163.41 214.193 162.716 213.498 162.716 212.649ZM165.765 200.76H174.064C178.117 200.76 181.012 198.676 181.012 195.202V195.125C181.012 191.805 178.464 189.798 174.103 189.798H165.765V200.76ZM209.124 214.463C200.902 214.463 195.382 208.017 195.382 200.567V200.49C195.382 193.04 200.979 186.517 209.201 186.517C217.423 186.517 222.943 192.963 222.943 200.413V200.49C222.943 207.94 217.346 214.463 209.124 214.463ZM209.201 211.645C215.377 211.645 219.777 206.705 219.777 200.567V200.49C219.777 194.353 215.3 189.335 209.124 189.335C202.948 189.335 198.547 194.275 198.547 200.413V200.49C198.547 206.627 203.025 211.645 209.201 211.645ZM235.344 212.688C235.344 213.498 236 214.193 236.811 214.193C237.66 214.193 238.316 213.498 238.316 212.688V191.766L255.069 213.189C255.532 213.73 255.995 214.116 256.651 214.116H256.806C257.616 214.116 258.195 213.498 258.195 212.688V188.292C258.195 187.482 257.539 186.787 256.729 186.787C255.879 186.787 255.223 187.482 255.223 188.292V208.673L238.818 187.752C238.394 187.212 237.969 186.864 237.274 186.864H236.85C236.039 186.864 235.344 187.559 235.344 188.37V212.688Z" fill="white"/>
<path d="M110.41 36.7031C111.497 36.901 112.538 36.1805 112.736 35.0938C112.934 34.0071 112.213 32.9657 111.127 32.7678L110.41 36.7031ZM71.7873 44.5789L73.5193 45.5789L71.7873 44.5789ZM73.2346 73.3132C73.784 74.2715 75.0062 74.6029 75.9645 74.0535C76.9227 73.5041 77.2541 72.2819 76.7047 71.3237L73.2346 73.3132ZM86.3359 84.3055C85.5925 83.4885 84.3275 83.4289 83.5106 84.1723C82.6936 84.9157 82.634 86.1806 83.3774 86.9976L86.3359 84.3055ZM114.194 108.807L113.194 110.539L114.194 108.807ZM186.45 121.118C187.363 120.496 187.598 119.252 186.976 118.339C186.354 117.427 185.109 117.191 184.197 117.813L186.45 121.118ZM111.127 32.7678C101.823 31.0734 93.2265 31.006 86.1344 32.7159C79.0336 34.4279 73.2954 37.9667 70.0552 43.5789L73.5193 45.5789C76.0543 41.1882 80.6862 38.1441 87.0719 36.6045C93.4662 35.0629 101.472 35.0752 110.41 36.7031L111.127 32.7678ZM70.0552 43.5789C65.243 51.9139 67.1305 62.6666 73.2346 73.3132L76.7047 71.3237C70.885 61.1729 69.7622 52.0865 73.5193 45.5789L70.0552 43.5789ZM83.3774 86.9976C91.0763 95.4581 101.244 103.64 113.194 110.539L115.194 107.075C103.567 100.362 93.7309 92.4321 86.3359 84.3055L83.3774 86.9976ZM113.194 110.539C127.432 118.759 141.991 123.884 154.815 125.742C167.567 127.591 178.923 126.251 186.45 121.118L184.197 117.813C177.87 122.127 167.713 123.57 155.389 121.784C143.137 120.008 129.058 115.079 115.194 107.075L113.194 110.539Z" fill="white"/>
<path d="M178.662 81.9802C177.948 82.8233 178.053 84.0852 178.896 84.7989C179.739 85.5125 181.001 85.4076 181.715 84.5646L178.662 81.9802ZM191.079 44.6805L189.347 45.6805L191.079 44.6805ZM166.078 31.5716C164.973 31.5572 164.066 32.4409 164.052 33.5454C164.038 34.6499 164.921 35.5569 166.026 35.5713L166.078 31.5716ZM149.732 37.345C150.812 37.1136 151.5 36.0505 151.269 34.9704C151.037 33.8904 149.974 33.2024 148.894 33.4338L149.732 37.345ZM114.253 49.2919L115.253 51.0239L115.253 51.0239L114.253 49.2919ZM67.6399 107.316C67.8003 108.408 68.8163 109.164 69.9091 109.004C71.002 108.844 71.7579 107.828 71.5975 106.735L67.6399 107.316ZM181.715 84.5646C187.806 77.3687 192.141 69.9739 194.192 62.993C196.246 56.0035 196.045 49.2809 192.811 43.6805L189.347 45.6805C191.877 50.0621 192.201 55.5814 190.355 61.8652C188.506 68.1577 184.513 75.0679 178.662 81.9802L181.715 84.5646ZM192.811 43.6805C188.078 35.4816 178.075 31.7276 166.078 31.5716L166.026 35.5713C177.438 35.7197 185.652 39.2797 189.347 45.6805L192.811 43.6805ZM148.894 33.4338C137.623 35.8487 125.326 40.5896 113.253 47.5598L115.253 51.0239C127 44.2414 138.909 39.664 149.732 37.345L148.894 33.4338ZM113.253 47.5598C98.5956 56.0222 86.6083 66.4205 78.5743 76.9054C70.5917 87.3232 66.2916 98.1286 67.6399 107.316L71.5975 106.735C70.48 99.1204 74.0313 89.4109 81.7494 79.3382C89.4162 69.3326 100.979 59.265 115.253 51.0239L113.253 47.5598Z" fill="white"/>
<path d="M105.344 118.466C104.972 117.426 103.827 116.885 102.787 117.258C101.747 117.63 101.206 118.775 101.578 119.815L105.344 118.466ZM155.173 133.081C155.742 132.135 155.436 130.906 154.489 130.337C153.543 129.768 152.314 130.074 151.745 131.021L155.173 133.081ZM158.752 114.973C158.422 116.027 159.009 117.149 160.063 117.479C161.117 117.809 162.239 117.222 162.569 116.168L158.752 114.973ZM165.882 79.1002H163.882H165.882ZM139.768 10.0688C138.758 9.62055 137.576 10.0755 137.128 11.0851C136.68 12.0946 137.135 13.2764 138.144 13.7246L139.768 10.0688ZM101.578 119.815C104.763 128.708 109.002 136.178 114.026 141.458C119.057 146.744 124.987 149.94 131.463 149.94V145.94C126.396 145.94 121.448 143.454 116.924 138.7C112.394 133.94 108.404 127.01 105.344 118.466L101.578 119.815ZM131.463 149.94C140.857 149.94 149.056 143.256 155.173 133.081L151.745 131.021C145.933 140.689 138.797 145.94 131.463 145.94V149.94ZM162.569 116.168C165.944 105.382 167.882 92.6782 167.882 79.1002H163.882C163.882 92.3115 161.995 104.609 158.752 114.973L162.569 116.168ZM167.882 79.1002C167.882 62.4457 164.966 47.0942 160.05 34.9844C155.162 22.9468 148.162 13.7961 139.768 10.0688L138.144 13.7246C145.156 16.8382 151.619 24.8532 156.343 36.4892C161.038 48.0529 163.882 62.8827 163.882 79.1002H167.882Z" fill="white"/>
<path fill-rule="evenodd" clip-rule="evenodd" d="M198.237 114.208C198.237 110.026 194.847 106.636 190.665 106.636C186.483 106.636 183.092 110.026 183.092 114.208C183.092 118.39 186.483 121.781 190.665 121.781C194.847 121.781 198.237 118.39 198.237 114.208V114.208Z" stroke="white" stroke-width="4" stroke-linecap="round"/>
<path fill-rule="evenodd" clip-rule="evenodd" d="M72.1231 121.781C76.3052 121.781 79.6954 118.39 79.6954 114.208C79.6954 110.026 76.3052 106.636 72.1231 106.636C67.941 106.636 64.5507 110.026 64.5507 114.208C64.5507 118.39 67.941 121.781 72.1231 121.781V121.781V121.781Z" stroke="white" stroke-width="4" stroke-linecap="round"/>
<circle cx="131.463" cy="10.2607" r="7.57234" stroke="white" stroke-width="4" stroke-linecap="round"/>
<path fill-rule="evenodd" clip-rule="evenodd" d="M132.925 85.8697C129.186 86.6775 125.502 84.3014 124.693 80.5626C123.887 76.8237 126.261 73.1402 130 72.3308C133.739 71.5229 137.422 73.899 138.232 77.6379C139.04 81.3767 136.664 85.0603 132.925 85.8697Z" fill="white"/>
</svg>
