<svg id="artwork" xmlns="http://www.w3.org/2000/svg" viewBox="0 0 600 520.81"><defs><style>.cls-1{fill:#ee376d;}.cls-2{fill:#ffcc06;}.cls-3{fill:#65c9d3;}</style></defs><title>Appium logo vert color flat</title><path class="cls-1" d="M34.52,405.63A150.92,150.92,0,0,0,7.8,408.54a2.62,2.62,0,0,0-2.11,2.83l.77,7.76a2.61,2.61,0,0,0,3.12,2.31c6.86-1.37,15-3,22.85-3,13.16,0,18,4.82,18,19.91v3.69a65.39,65.39,0,0,0-15.25-1.6C15.89,440.47,0,447.85,0,466.31,0,484.94,12.84,493,32.43,493A227.83,227.83,0,0,0,65,489.75V437.58C65,414.78,56.83,405.63,34.52,405.63Zm-.32,74.81c-11.72,0-19.11-3.53-19.11-14.29,0-9.95,9.15-13.64,21.35-13.64a62.63,62.63,0,0,1,14,1.28v25.37A95.47,95.47,0,0,1,34.2,480.44Zm130.52-30.91c0-25.85-13.81-43.67-43.51-43.67-12.36,0-23,2.57-30,4.34v108a2.62,2.62,0,0,0,2.62,2.62h9.69a2.62,2.62,0,0,0,2.62-2.62V487.42c3.69,2.4,11.4,5.61,21,5.61C151.23,493,164.72,474.89,164.72,449.53Zm-15.57,0c0,18-7.39,30.34-23.92,30.34a31.69,31.69,0,0,1-19.11-6.42V420.79a56.89,56.89,0,0,1,14.77-1.6C138.71,419.19,149.15,430.1,149.15,449.53Zm112.06,0c0-25.85-13.81-43.67-43.51-43.67-12.36,0-23,2.57-30,4.34v108a2.62,2.62,0,0,0,2.62,2.62H200a2.62,2.62,0,0,0,2.62-2.62V487.42c3.69,2.4,11.4,5.61,21,5.61C247.72,493,261.21,474.89,261.21,449.53Zm-15.57,0c0,18-7.39,30.34-23.92,30.34a31.69,31.69,0,0,1-19.11-6.42V420.79a56.89,56.89,0,0,1,14.77-1.6C235.2,419.19,245.64,430.1,245.64,449.53Zm45.92-58.28a10.6,10.6,0,1,0-10.44-10.59A10.15,10.15,0,0,0,291.56,391.25Zm4.92,16.38h-9.69a2.62,2.62,0,0,0-2.62,2.62v78.24a2.62,2.62,0,0,0,2.62,2.62h9.69a2.62,2.62,0,0,0,2.62-2.62V410.25A2.62,2.62,0,0,0,296.48,407.63Zm99.43,2.71v78.93c-6.9,1.61-18.3,3.69-36.28,3.69-23.76,0-34.36-13.64-34.36-38.36V410.34a2.62,2.62,0,0,1,2.62-2.62h9.69a2.62,2.62,0,0,1,2.62,2.62v41c0,20.39,5.78,28.42,21,28.42A154.07,154.07,0,0,0,381,478.19V410.34a2.62,2.62,0,0,1,2.62-2.62h9.69A2.62,2.62,0,0,1,395.91,410.34Zm26.17,78.15V410c6.91-1.76,23.12-4.17,37.89-4.17,10.76,0,17.66,2.89,21.67,7.06,10.44-4,21.2-7.06,32.43-7.06,22.8,0,31.15,13.49,31.15,38.37v44.26a2.63,2.63,0,0,1-2.62,2.62h-9.69a2.62,2.62,0,0,1-2.62-2.62V447.44c0-18.14-2.41-28.42-17.82-28.42-10.12,0-21.51,3.54-24.08,5.46a63.4,63.4,0,0,1,2.73,19.75v44.26a2.63,2.63,0,0,1-2.63,2.62h-9.68a2.62,2.62,0,0,1-2.62-2.62V447.44c0-18.46-3.05-28.42-17.82-28.42-5.46,0-16.06.49-21.36,1.61v67.86a2.62,2.62,0,0,1-2.62,2.62H424.7A2.63,2.63,0,0,1,422.08,488.49Z"/><path class="cls-1" d="M580,415a17.56,17.56,0,0,1,2.26-.12c1.75,0,3,.55,3,2,0,1.7-1.3,2.1-3.37,2.1H580Zm9.87,12a34.72,34.72,0,0,0-3.76-6.14A4,4,0,0,0,588.6,417c0-3.21-2.46-5-7.05-5a29.78,29.78,0,0,0-5,.44V427H580V421.7h2.94A31.59,31.59,0,0,1,586,427Zm4.4-7.33c0,7.05-5,12.09-11.89,12.09s-11.77-5.11-11.77-12.09,4.92-12.05,11.77-12.05S594.23,412.55,594.23,419.68Zm3,0c0-8.72-6.38-15-14.9-15a15,15,0,1,0,14.9,15Z"/><path class="cls-2" d="M364.11,147.52q-2.91,6.91-6.45,13.5a161.59,161.59,0,0,0-105.85-60.36,164.51,164.51,0,0,0-21.31-1.39,161.05,161.05,0,0,0-103.1,37.11,161.88,161.88,0,0,1,217-125.95,164.83,164.83,0,0,1,18.41,8.31l0,.11a164.06,164.06,0,0,1,8.45,23.9A161.05,161.05,0,0,1,364.11,147.52Z"/><path class="cls-3" d="M344.43,313.18a161.89,161.89,0,0,1-217.06-126.1,164.17,164.17,0,0,1-1.77-17.17l.06-.08a161.12,161.12,0,0,1,90-62.53,164,164,0,0,1,20.94-4.17q7.41-1,14.75-1.24a161.79,161.79,0,0,0,93.1,211.29Z"/><path class="cls-1" d="M449,161.81a161.41,161.41,0,0,1-58.7,124.68c-6.18,5.13-13.26,10.41-16.49,12a162.94,162.94,0,0,1-113.16-63.4q-4.5-5.94-8.47-12.34A161.82,161.82,0,0,0,392.32,62.41a164.48,164.48,0,0,0-2-25.28A161.55,161.55,0,0,1,449,161.81Z"/></svg>