<?xml version="1.0" encoding="UTF-8" standalone="no"?>
<svg
   xmlns:dc="http://purl.org/dc/elements/1.1/"
   xmlns:cc="http://creativecommons.org/ns#"
   xmlns:rdf="http://www.w3.org/1999/02/22-rdf-syntax-ns#"
   xmlns:svg="http://www.w3.org/2000/svg"
   xmlns="http://www.w3.org/2000/svg"
   xmlns:sodipodi="http://sodipodi.sourceforge.net/DTD/sodipodi-0.dtd"
   xmlns:inkscape="http://www.inkscape.org/namespaces/inkscape"
   inkscape:export-ydpi="97"
   inkscape:export-xdpi="97"
   inkscape:export-filename="/Users/brian/Documents/GitHub/openjs/artwork/projects/appium/appium-hex-sticker.png"
   sodipodi:docname="appium-hex-sticker.svg"
   inkscape:version="1.0beta1 (32d4812, 2019-09-19)"
   version="1.1"
   id="svg7307"
   viewBox="0 0 405.11326 424.1836"
   height="4.713151in"
   width="4.5012584in">
  <defs
     id="defs7309">
    <linearGradient
       id="linear-gradient"
       x1="442.04999"
       y1="206.28999"
       x2="198.05"
       y2="292.67001"
       gradientUnits="userSpaceOnUse">
      <stop
         offset="0"
         stop-color="#ee376d"
         stop-opacity="0"
         id="stop1227" />
      <stop
         offset="0.14"
         stop-color="#e9376d"
         stop-opacity="0.06"
         id="stop1229" />
      <stop
         offset="0.37"
         stop-color="#db386e"
         stop-opacity="0.22"
         id="stop1231" />
      <stop
         offset="0.68"
         stop-color="#c6396f"
         stop-opacity="0.48"
         id="stop1233" />
      <stop
         offset="1"
         stop-color="#ab3b70"
         stop-opacity="0.8"
         id="stop1235" />
    </linearGradient>
    <linearGradient
       id="linear-gradient-2"
       x1="167.06"
       y1="277.28"
       x2="238.28999"
       y2="37.830002"
       gradientUnits="userSpaceOnUse">
      <stop
         offset="0"
         stop-color="#65c9d3"
         stop-opacity="0"
         id="stop1238" />
      <stop
         offset="1"
         stop-color="#65c9d3"
         id="stop1240" />
    </linearGradient>
    <linearGradient
       id="linear-gradient-3"
       x1="184.35001"
       y1="80.519997"
       x2="376.88"
       y2="80.519997"
       gradientUnits="userSpaceOnUse">
      <stop
         offset="0"
         stop-color="#ffca04"
         stop-opacity="0"
         id="stop1243" />
      <stop
         offset="0.1"
         stop-color="#ffca04"
         stop-opacity="0.07"
         id="stop1245" />
      <stop
         offset="0.31"
         stop-color="#ffca04"
         stop-opacity="0.25"
         id="stop1247" />
      <stop
         offset="0.59"
         stop-color="#ffca04"
         stop-opacity="0.54"
         id="stop1249" />
      <stop
         offset="0.95"
         stop-color="#ffca04"
         stop-opacity="0.94"
         id="stop1251" />
      <stop
         offset="1"
         stop-color="#ffca04"
         id="stop1253" />
    </linearGradient>
    <style
       id="style1679">.cls-1{isolation:isolate;}.cls-2{fill:#ee376d;}.cls-3{fill:#ffcc06;}.cls-4{fill:#65c9d3;}.cls-5,.cls-6,.cls-7{mix-blend-mode:multiply;}.cls-5{fill:url(#linear-gradient);}.cls-6{fill:url(#linear-gradient-2);}.cls-7{fill:url(#linear-gradient-3);}</style>
  </defs>
  <sodipodi:namedview
     inkscape:document-rotation="0"
     inkscape:window-maximized="0"
     inkscape:window-y="23"
     inkscape:window-x="0"
     inkscape:window-height="1360"
     inkscape:window-width="2504"
     inkscape:guide-bbox="true"
     showguides="true"
     fit-margin-left="1"
     fit-margin-right="1"
     fit-margin-bottom="1"
     fit-margin-top="1"
     units="in"
     showgrid="false"
     inkscape:current-layer="layer1"
     inkscape:document-units="px"
     inkscape:cy="295.77894"
     inkscape:cx="247.48292"
     inkscape:zoom="2.2456747"
     inkscape:pageshadow="2"
     inkscape:pageopacity="0.0"
     borderopacity="1.0"
     bordercolor="#666666"
     pagecolor="#ffffff"
     id="base">
    <sodipodi:guide
       id="guide8412"
       orientation="0,1"
       position="346.56418,302.28024" />
    <sodipodi:guide
       id="guide8414"
       orientation="0,1"
       position="383.0466,122.77018" />
  </sodipodi:namedview>
  <metadata
     id="metadata7312">
    <rdf:RDF>
      <cc:Work
         rdf:about="">
        <dc:format>image/svg+xml</dc:format>
        <dc:type
           rdf:resource="http://purl.org/dc/dcmitype/StillImage" />
        <dc:title />
      </cc:Work>
    </rdf:RDF>
  </metadata>
  <g
     transform="translate(-179.94336,-162.9082)"
     style="display:inline"
     inkscape:label="Background"
     id="layer3"
     inkscape:groupmode="layer">
    <path
       sodipodi:type="star"
       style="color:#000000;display:inline;overflow:visible;visibility:visible;fill:none;fill-opacity:1;fill-rule:nonzero;stroke:#0093d9;stroke-width:1.16023;stroke-linecap:round;stroke-linejoin:miter;stroke-miterlimit:4;stroke-dasharray:2.32046, 4.64092;stroke-dashoffset:7.51718;stroke-opacity:1;marker:none;enable-background:accumulate"
       id="path7936"
       sodipodi:sides="6"
       sodipodi:cx="121.90476"
       sodipodi:cy="126.57602"
       sodipodi:r1="103.56153"
       sodipodi:r2="103.56153"
       sodipodi:arg1="-0.52327829"
       sodipodi:arg2="0.0003204856"
       inkscape:flatsided="true"
       inkscape:rounded="0"
       inkscape:randomized="0"
       d="m 211.60827,74.824 -0.0332,103.56153 -89.70351,51.75202 -89.670315,-51.80951 0.03319,-103.561527 89.703505,-51.752019 z"
       inkscape:transform-center-x="0.34789098"
       inkscape:transform-center-y="-1.5566024"
       transform="matrix(0.86033594,0,0,0.86346354,277.62095,265.70622)" />
    <path
       transform="matrix(0.80621714,0,0,0.809148,284.21829,272.58127)"
       inkscape:transform-center-y="-1.4586807"
       inkscape:transform-center-x="0.32600218"
       d="m 211.60827,74.824 -0.0332,103.56153 -89.70351,51.75202 -89.670315,-51.80951 0.03319,-103.561527 89.703505,-51.752019 z"
       inkscape:randomized="0"
       inkscape:rounded="0"
       inkscape:flatsided="true"
       sodipodi:arg2="0.0003204856"
       sodipodi:arg1="-0.52327829"
       sodipodi:r2="103.56153"
       sodipodi:r1="103.56153"
       sodipodi:cy="126.57602"
       sodipodi:cx="121.90476"
       sodipodi:sides="6"
       id="path8410"
       style="color:#000000;display:inline;overflow:visible;visibility:visible;fill:none;fill-opacity:1;fill-rule:nonzero;stroke:#db3279;stroke-width:1.23811;stroke-linecap:round;stroke-linejoin:miter;stroke-miterlimit:4;stroke-dasharray:none;stroke-dashoffset:7.51718;stroke-opacity:1;marker:none;enable-background:accumulate"
       sodipodi:type="star" />
    <path
       transform="matrix(0.91445474,0,0,0.91777907,271.02361,258.83118)"
       inkscape:transform-center-y="-1.6545161"
       inkscape:transform-center-x="0.3697741"
       d="m 211.60827,74.824 -0.0332,103.56153 -89.70351,51.75202 -89.670315,-51.80951 0.03319,-103.561527 89.703505,-51.752019 z"
       inkscape:randomized="0"
       inkscape:rounded="0"
       inkscape:flatsided="true"
       sodipodi:arg2="0.0003204856"
       sodipodi:arg1="-0.52327829"
       sodipodi:r2="103.56153"
       sodipodi:r1="103.56153"
       sodipodi:cy="126.57602"
       sodipodi:cx="121.90476"
       sodipodi:sides="6"
       id="path8424"
       style="color:#000000;display:inline;overflow:visible;visibility:visible;fill:#ffffff;fill-opacity:1;fill-rule:nonzero;stroke:none;stroke-width:0.204669;stroke-linecap:round;stroke-linejoin:miter;stroke-miterlimit:4;stroke-dasharray:none;stroke-dashoffset:7.51718;stroke-opacity:1;marker:none;enable-background:accumulate"
       sodipodi:type="star" />
    <circle
       id="path852"
       style="fill:#ffff00;stroke:#000000"
       cx="380.81805"
       cy="370.09048"
       r="0.061615959" />
  </g>
  <g
     inkscape:groupmode="layer"
     id="g368"
     inkscape:label="Trim Lines copy"
     style="display:none"
     transform="translate(-179.94336,-162.9082)"
     sodipodi:insensitive="true">
    <path
       transform="matrix(0.86033594,0,0,0.86346354,277.62095,265.70622)"
       inkscape:transform-center-y="-1.5566024"
       inkscape:transform-center-x="0.34789098"
       d="m 211.60827,74.824 -0.0332,103.56153 -89.70351,51.75202 -89.670315,-51.80951 0.03319,-103.561527 89.703505,-51.752019 z"
       inkscape:randomized="0"
       inkscape:rounded="0"
       inkscape:flatsided="true"
       sodipodi:arg2="0.0003204856"
       sodipodi:arg1="-0.52327829"
       sodipodi:r2="103.56153"
       sodipodi:r1="103.56153"
       sodipodi:cy="126.57602"
       sodipodi:cx="121.90476"
       sodipodi:sides="6"
       id="path362"
       style="color:#000000;display:inline;overflow:visible;visibility:visible;fill:none;fill-opacity:1;fill-rule:nonzero;stroke:#0093d9;stroke-width:1.16023;stroke-linecap:round;stroke-linejoin:miter;stroke-miterlimit:4;stroke-dasharray:2.32046, 4.64092;stroke-dashoffset:7.51718;stroke-opacity:1;marker:none;enable-background:accumulate"
       sodipodi:type="star" />
    <path
       sodipodi:type="star"
       style="color:#000000;display:inline;overflow:visible;visibility:visible;fill:none;fill-opacity:1;fill-rule:nonzero;stroke:#db3279;stroke-width:1.23811;stroke-linecap:round;stroke-linejoin:miter;stroke-miterlimit:4;stroke-dasharray:none;stroke-dashoffset:7.51718;stroke-opacity:1;marker:none;enable-background:accumulate"
       id="path364"
       sodipodi:sides="6"
       sodipodi:cx="121.90476"
       sodipodi:cy="126.57602"
       sodipodi:r1="103.56153"
       sodipodi:r2="103.56153"
       sodipodi:arg1="-0.52327829"
       sodipodi:arg2="0.0003204856"
       inkscape:flatsided="true"
       inkscape:rounded="0"
       inkscape:randomized="0"
       d="m 211.60827,74.824 -0.0332,103.56153 -89.70351,51.75202 -89.670315,-51.80951 0.03319,-103.561527 89.703505,-51.752019 z"
       inkscape:transform-center-x="0.32600218"
       inkscape:transform-center-y="-1.4586807"
       transform="matrix(0.80621714,0,0,0.809148,284.21829,272.58127)" />
    <path
       sodipodi:type="star"
       style="color:#000000;display:inline;overflow:visible;visibility:visible;fill:none;fill-opacity:1;fill-rule:nonzero;stroke:#000000;stroke-width:1.09157;stroke-linecap:round;stroke-linejoin:miter;stroke-miterlimit:4;stroke-dasharray:none;stroke-dashoffset:7.51718;stroke-opacity:1;marker:none;enable-background:accumulate"
       id="path366"
       sodipodi:sides="6"
       sodipodi:cx="121.90476"
       sodipodi:cy="126.57602"
       sodipodi:r1="103.56153"
       sodipodi:r2="103.56153"
       sodipodi:arg1="-0.52327829"
       sodipodi:arg2="0.0003204856"
       inkscape:flatsided="true"
       inkscape:rounded="0"
       inkscape:randomized="0"
       d="m 211.60827,74.824 -0.0332,103.56153 -89.70351,51.75202 -89.670315,-51.80951 0.03319,-103.561527 89.703505,-51.752019 z"
       inkscape:transform-center-x="0.3697741"
       inkscape:transform-center-y="-1.6545161"
       transform="matrix(0.91445474,0,0,0.91777907,271.02361,258.83118)" />
  </g>
  <g
     transform="translate(30.027654,26.466807)"
     inkscape:groupmode="layer"
     id="layer1"
     inkscape:label="Project artwork"
     style="display:inline">
    <g
       transform="matrix(0.20163685,0,0,0.20013099,113.88027,130.91323)"
       style="opacity:1;isolation:isolate;stop-opacity:1"
       id="artwork">
      <path
         inkscape:connector-curvature="0"
         id="path1714"
         d="m 34.52,405.63 a 150.92,150.92 0 0 0 -26.72,2.91 2.62,2.62 0 0 0 -2.11,2.83 l 0.77,7.76 a 2.61,2.61 0 0 0 3.12,2.31 c 6.86,-1.37 15,-3 22.85,-3 13.16,0 18,4.82 18,19.91 v 3.69 a 65.39,65.39 0 0 0 -15.25,-1.6 C 15.89,440.47 0,447.85 0,466.31 0,484.94 12.84,493 32.43,493 A 227.83,227.83 0 0 0 65,489.75 v -52.17 c 0,-22.8 -8.17,-31.95 -30.48,-31.95 z m -0.32,74.81 c -11.72,0 -19.11,-3.53 -19.11,-14.29 0,-9.95 9.15,-13.64 21.35,-13.64 a 62.63,62.63 0 0 1 14,1.28 v 25.37 a 95.47,95.47 0 0 1 -16.24,1.28 z m 130.52,-30.91 c 0,-25.85 -13.81,-43.67 -43.51,-43.67 -12.36,0 -23,2.57 -30,4.34 v 108 a 2.62,2.62 0 0 0 2.62,2.62 h 9.69 a 2.62,2.62 0 0 0 2.62,-2.62 v -30.78 c 3.69,2.4 11.4,5.61 21,5.61 24.09,-0.03 37.58,-18.14 37.58,-43.5 z m -15.57,0 c 0,18 -7.39,30.34 -23.92,30.34 a 31.69,31.69 0 0 1 -19.11,-6.42 v -52.66 a 56.89,56.89 0 0 1 14.77,-1.6 c 17.82,0 28.26,10.91 28.26,30.34 z m 112.06,0 c 0,-25.85 -13.81,-43.67 -43.51,-43.67 -12.36,0 -23,2.57 -30,4.34 v 108 a 2.62,2.62 0 0 0 2.62,2.62 H 200 a 2.62,2.62 0 0 0 2.62,-2.62 v -30.78 c 3.69,2.4 11.4,5.61 21,5.61 24.1,-0.03 37.59,-18.14 37.59,-43.5 z m -15.57,0 c 0,18 -7.39,30.34 -23.92,30.34 a 31.69,31.69 0 0 1 -19.11,-6.42 v -52.66 a 56.89,56.89 0 0 1 14.77,-1.6 c 17.82,0 28.26,10.91 28.26,30.34 z m 45.92,-58.28 a 10.6,10.6 0 1 0 -10.44,-10.59 10.15,10.15 0 0 0 10.44,10.59 z m 4.92,16.38 h -9.69 a 2.62,2.62 0 0 0 -2.62,2.62 v 78.24 a 2.62,2.62 0 0 0 2.62,2.62 h 9.69 a 2.62,2.62 0 0 0 2.62,-2.62 v -78.24 a 2.62,2.62 0 0 0 -2.62,-2.62 z m 99.43,2.71 v 78.93 c -6.9,1.61 -18.3,3.69 -36.28,3.69 -23.76,0 -34.36,-13.64 -34.36,-38.36 v -44.26 a 2.62,2.62 0 0 1 2.62,-2.62 h 9.69 a 2.62,2.62 0 0 1 2.62,2.62 v 41 c 0,20.39 5.78,28.42 21,28.42 a 154.07,154.07 0 0 0 19.8,-1.57 v -67.85 a 2.62,2.62 0 0 1 2.62,-2.62 h 9.69 a 2.62,2.62 0 0 1 2.6,2.62 z m 26.17,78.15 V 410 c 6.91,-1.76 23.12,-4.17 37.89,-4.17 10.76,0 17.66,2.89 21.67,7.06 10.44,-4 21.2,-7.06 32.43,-7.06 22.8,0 31.15,13.49 31.15,38.37 v 44.26 a 2.63,2.63 0 0 1 -2.62,2.62 h -9.69 a 2.62,2.62 0 0 1 -2.62,-2.62 v -41.02 c 0,-18.14 -2.41,-28.42 -17.82,-28.42 -10.12,0 -21.51,3.54 -24.08,5.46 a 63.4,63.4 0 0 1 2.73,19.75 v 44.26 a 2.63,2.63 0 0 1 -2.63,2.62 h -9.68 a 2.62,2.62 0 0 1 -2.62,-2.62 v -41.05 c 0,-18.46 -3.05,-28.42 -17.82,-28.42 -5.46,0 -16.06,0.49 -21.36,1.61 v 67.86 a 2.62,2.62 0 0 1 -2.62,2.62 h -9.69 a 2.63,2.63 0 0 1 -2.62,-2.62 z"
         class="cls-2" />
      <path
         inkscape:connector-curvature="0"
         id="path1716"
         d="m 580,415 a 17.56,17.56 0 0 1 2.26,-0.12 c 1.75,0 3,0.55 3,2 0,1.7 -1.3,2.1 -3.37,2.1 H 580 Z m 9.87,12 a 34.72,34.72 0 0 0 -3.76,-6.14 4,4 0 0 0 2.49,-3.86 c 0,-3.21 -2.46,-5 -7.05,-5 a 29.78,29.78 0 0 0 -5,0.44 V 427 H 580 v -5.3 h 2.94 A 31.59,31.59 0 0 1 586,427 Z m 4.4,-7.33 c 0,7.05 -5,12.09 -11.89,12.09 -6.89,0 -11.77,-5.11 -11.77,-12.09 0,-6.98 4.92,-12.05 11.77,-12.05 6.85,0 11.85,4.93 11.85,12.06 z m 3,0 c 0,-8.72 -6.38,-15 -14.9,-15 a 15,15 0 1 0 14.9,15 z"
         class="cls-2" />
      <path
         inkscape:connector-curvature="0"
         id="path1718"
         d="m 364.11,147.52 q -2.91,6.91 -6.45,13.5 a 161.59,161.59 0 0 0 -105.85,-60.36 164.51,164.51 0 0 0 -21.31,-1.39 161.05,161.05 0 0 0 -103.1,37.11 161.88,161.88 0 0 1 217,-125.95 164.83,164.83 0 0 1 18.41,8.31 v 0.11 a 164.06,164.06 0 0 1 8.45,23.9 161.05,161.05 0 0 1 -7.15,104.77 z"
         class="cls-3" />
      <path
         inkscape:connector-curvature="0"
         id="path1720"
         d="M 344.43,313.18 A 161.89,161.89 0 0 1 127.37,187.08 164.17,164.17 0 0 1 125.6,169.91 l 0.06,-0.08 a 161.12,161.12 0 0 1 90,-62.53 164,164 0 0 1 20.94,-4.17 q 7.41,-1 14.75,-1.24 a 161.79,161.79 0 0 0 93.1,211.29 z"
         class="cls-4" />
      <path
         inkscape:connector-curvature="0"
         id="path1722"
         d="m 449,161.81 a 161.41,161.41 0 0 1 -58.7,124.68 c -6.18,5.13 -13.26,10.41 -16.49,12 a 162.94,162.94 0 0 1 -113.16,-63.4 q -4.5,-5.94 -8.47,-12.34 A 161.82,161.82 0 0 0 392.32,62.41 164.48,164.48 0 0 0 390.32,37.13 161.55,161.55 0 0 1 449,161.81 Z"
         class="cls-2" />
      <path
         inkscape:connector-curvature="0"
         style="fill:url(#linear-gradient)"
         id="path1724"
         d="M 449,161.82 A 161.44,161.44 0 0 1 390.3,286.5 c -6.18,5.12 -13.26,10.39 -16.49,12 A 162.92,162.92 0 0 1 260.65,235.1 c -3,-4 -5.84,-8.08 -8.47,-12.33 A 161.84,161.84 0 0 0 447,136.66 l 0.09,-0.18 a 165.26,165.26 0 0 1 1.91,25.34 z"
         class="cls-5" />
      <path
         inkscape:connector-curvature="0"
         style="fill:url(#linear-gradient-2)"
         id="path1726"
         d="m 200.61,211.66 a 162.28,162.28 0 0 0 29.62,101.63 161.79,161.79 0 0 1 -104.7,-144.74 c 0,0.42 0.08,0.86 0.13,1.28 a 161.84,161.84 0 0 1 110.92,-66.69 q 7.41,-1 14.74,-1.25 a 162.19,162.19 0 0 0 -50.71,109.77 z"
         class="cls-6" />
      <path
         inkscape:connector-curvature="0"
         style="fill:url(#linear-gradient-3)"
         id="path1728"
         d="m 364.11,147.52 q -2.91,6.91 -6.46,13.51 A 161.59,161.59 0 0 0 287.24,61.58 165.31,165.31 0 0 0 268.51,51.32 160.74,160.74 0 0 0 184.35,36.91 161.67,161.67 0 0 1 362.84,18.75 v 0.11 a 162.07,162.07 0 0 1 1.23,128.66 z"
         class="cls-7" />
    </g>
  </g>
  <g
     transform="translate(-179.94336,-162.9082)"
     style="display:none"
     inkscape:label="Preview Without Bleeds"
     id="layer2"
     inkscape:groupmode="layer"
     sodipodi:insensitive="true">
    <path
       inkscape:connector-curvature="0"
       id="rect8416"
       d="M 269.94336,252.9082 V 497.0918 H 495.05664 V 252.9082 Z m 112.58594,32.66992 77.14648,44.73633 -0.0293,89.42188 -77.17578,44.68555 -77.14648,-44.73633 0.0293,-89.42188 z"
       style="opacity:1;fill:#aaaaaa;fill-opacity:1;stroke:none;stroke-width:20.25;stroke-linecap:round;stroke-linejoin:round;stroke-miterlimit:4;stroke-dasharray:none;stroke-dashoffset:6.5;stroke-opacity:1" />
  </g>
</svg>
