<?xml version="1.0" encoding="UTF-8"?>
<!DOCTYPE svg PUBLIC "-//W3C//DTD SVG 1.1//EN" "http://www.w3.org/Graphics/SVG/1.1/DTD/svg11.dtd">
<svg version="1.1" xmlns="http://www.w3.org/2000/svg" xmlns:xlink="http://www.w3.org/1999/xlink" x="0" y="0" width="600" height="520.81" viewBox="0, 0, 600, 520.81">
  <g id="Layer_1">
    <path d="M34.52,405.63 C25.545,405.803 16.602,406.777 7.8,408.54 C6.471,408.797 5.557,410.023 5.69,411.37 L6.46,419.13 C6.53,419.867 6.91,420.54 7.505,420.98 C8.1,421.421 8.855,421.588 9.58,421.44 C16.44,420.07 24.58,418.44 32.43,418.44 C45.59,418.44 50.43,423.26 50.43,438.35 L50.43,442.04 C45.427,440.91 40.309,440.373 35.18,440.44 C15.89,440.47 0,447.85 0,466.31 C0,484.94 12.84,493 32.43,493 C43.351,492.699 54.235,491.613 65,489.75 L65,437.58 C65,414.78 56.83,405.63 34.52,405.63 z M34.2,480.44 C22.48,480.44 15.09,476.91 15.09,466.15 C15.09,456.2 24.24,452.51 36.44,452.51 C41.14,452.41 45.836,452.839 50.44,453.79 L50.44,479.16 C45.073,480.049 39.64,480.477 34.2,480.44 z M164.72,449.53 C164.72,423.68 150.91,405.86 121.21,405.86 C108.85,405.86 98.21,408.43 91.21,410.2 L91.21,518.2 C91.21,519.647 92.383,520.82 93.83,520.82 L103.52,520.82 C104.967,520.82 106.14,519.647 106.14,518.2 L106.14,487.42 C109.83,489.82 117.54,493.03 127.14,493.03 C151.23,493 164.72,474.89 164.72,449.53 z M149.15,449.53 C149.15,467.53 141.76,479.87 125.23,479.87 C118.331,479.867 111.621,477.613 106.12,473.45 L106.12,420.79 C110.952,419.613 115.918,419.075 120.89,419.19 C138.71,419.19 149.15,430.1 149.15,449.53 z M261.21,449.53 C261.21,423.68 247.4,405.86 217.7,405.86 C205.34,405.86 194.7,408.43 187.7,410.2 L187.7,518.2 C187.7,519.647 188.873,520.82 190.32,520.82 L200,520.82 C201.447,520.82 202.62,519.647 202.62,518.2 L202.62,487.42 C206.31,489.82 214.02,493.03 223.62,493.03 C247.72,493 261.21,474.89 261.21,449.53 z M245.64,449.53 C245.64,467.53 238.25,479.87 221.72,479.87 C214.821,479.867 208.111,477.613 202.61,473.45 L202.61,420.79 C207.442,419.613 212.408,419.075 217.38,419.19 C235.2,419.19 245.64,430.1 245.64,449.53 z M291.56,391.25 C295.862,391.315 299.777,388.773 301.467,384.816 C303.158,380.86 302.289,376.274 299.269,373.21 C296.248,370.145 291.675,369.211 287.694,370.845 C283.714,372.479 281.116,376.357 281.12,380.66 C280.996,383.478 282.052,386.221 284.032,388.23 C286.013,390.239 288.74,391.333 291.56,391.25 z M296.48,407.63 L286.79,407.63 C285.343,407.63 284.17,408.803 284.17,410.25 L284.17,488.49 C284.17,489.937 285.343,491.11 286.79,491.11 L296.48,491.11 C297.927,491.11 299.1,489.937 299.1,488.49 L299.1,410.25 C299.1,408.803 297.927,407.63 296.48,407.63 z M395.91,410.34 L395.91,489.27 C389.01,490.88 377.61,492.96 359.63,492.96 C335.87,492.96 325.27,479.32 325.27,454.6 L325.27,410.34 C325.27,408.893 326.443,407.72 327.89,407.72 L337.58,407.72 C339.027,407.72 340.2,408.893 340.2,410.34 L340.2,451.34 C340.2,471.73 345.98,479.76 361.2,479.76 C367.827,479.663 374.441,479.139 381,478.19 L381,410.34 C381,408.893 382.173,407.72 383.62,407.72 L393.31,407.72 C394.749,407.731 395.91,408.901 395.91,410.34 z M422.08,488.49 L422.08,410 C428.99,408.24 445.2,405.83 459.97,405.83 C470.73,405.83 477.63,408.72 481.64,412.89 C492.08,408.89 502.84,405.83 514.07,405.83 C536.87,405.83 545.22,419.32 545.22,444.2 L545.22,488.46 C545.215,489.905 544.045,491.075 542.6,491.08 L532.91,491.08 C531.463,491.08 530.29,489.907 530.29,488.46 L530.29,447.44 C530.29,429.3 527.88,419.02 512.47,419.02 C502.35,419.02 490.96,422.56 488.39,424.48 C490.336,430.878 491.257,437.544 491.12,444.23 L491.12,488.49 C491.115,489.939 489.939,491.11 488.49,491.11 L478.81,491.11 C477.363,491.11 476.19,489.937 476.19,488.49 L476.19,447.44 C476.19,428.98 473.14,419.02 458.37,419.02 C452.91,419.02 442.31,419.51 437.01,420.63 L437.01,488.49 C437.01,489.937 435.837,491.11 434.39,491.11 L424.7,491.11 C423.255,491.105 422.086,489.935 422.08,488.49 z" fill="#FFFFFF"/>
    <path d="M580,415 C580.75,414.911 581.505,414.871 582.26,414.88 C584.01,414.88 585.26,415.43 585.26,416.88 C585.26,418.58 583.96,418.98 581.89,418.98 L580,418.98 z M589.87,427 C588.833,424.829 587.573,422.771 586.11,420.86 C587.67,420.226 588.665,418.682 588.6,417 C588.6,413.79 586.14,412 581.55,412 C579.874,412.006 578.201,412.153 576.55,412.44 L576.55,427 L580,427 L580,421.7 L582.94,421.7 C584.129,423.363 585.154,425.138 586,427 z M594.27,419.67 C594.27,426.72 589.27,431.76 582.38,431.76 C575.49,431.76 570.61,426.65 570.61,419.67 C570.61,412.69 575.53,407.62 582.38,407.62 C589.23,407.62 594.23,412.55 594.23,419.68 z M597.27,419.67 C597.27,410.95 590.89,404.67 582.37,404.67 C576.294,404.629 570.794,408.258 568.441,413.86 C566.087,419.462 567.346,425.93 571.628,430.241 C575.91,434.551 582.37,435.853 587.987,433.538 C593.604,431.222 597.27,425.746 597.27,419.67 z" fill="#FFFFFF"/>
    <path d="M364.11,147.52 Q361.2,154.43 357.66,161.02 C331.605,127.858 293.618,106.196 251.81,100.66 C244.744,99.736 237.626,99.271 230.5,99.27 C192.852,99.209 156.373,112.34 127.4,136.38 C135.065,88.344 163.925,46.302 205.996,21.883 C248.067,-2.535 298.888,-6.741 344.4,10.43 C350.701,12.821 356.849,15.596 362.81,18.74 L362.81,18.85 C366.239,26.587 369.064,34.577 371.26,42.75 C380.649,77.491 378.132,114.376 364.11,147.52 z" fill="#FFFFFF"/>
    <path d="M344.43,313.18 C298.889,330.37 248.03,326.155 205.939,301.702 C163.849,277.25 134.995,235.157 127.37,187.08 C126.479,181.392 125.889,175.66 125.6,169.91 L125.66,169.83 C147.432,139.111 179.275,116.987 215.66,107.3 C222.542,105.457 229.537,104.064 236.6,103.13 Q244.01,102.13 251.35,101.89 C235.263,142.223 236.063,187.33 253.572,227.067 C271.081,266.804 303.829,297.834 344.45,313.18 z" fill="#FFFFFF"/>
    <path d="M449,161.81 C449.049,210.054 427.516,255.791 390.3,286.49 C384.12,291.62 377.04,296.9 373.81,298.49 C328.941,293.928 287.97,270.973 260.65,235.09 Q256.15,229.15 252.18,222.75 C332.434,211.9 392.309,143.394 392.32,62.41 C392.305,53.944 391.636,45.493 390.32,37.13 C427.513,67.845 449.035,113.574 449,161.81 z" fill="#FFFFFF"/>
  </g>
</svg>
