<?xml version="1.0" encoding="UTF-8"?>
<!DOCTYPE svg PUBLIC "-//W3C//DTD SVG 1.1//EN" "http://www.w3.org/Graphics/SVG/1.1/DTD/svg11.dtd">
<svg version="1.1" xmlns="http://www.w3.org/2000/svg" xmlns:xlink="http://www.w3.org/1999/xlink" x="0" y="0" width="1004.82" height="215.53" viewBox="0, 0, 1004.82, 215.53">
  <g id="Layer_1">
    <path d="M307.6,51.66 C296.08,51.66 283.45,53.57 274.68,55.24 C273.042,55.557 271.915,57.07 272.08,58.73 L273,68.3 C273.087,69.207 273.554,70.036 274.286,70.579 C275.018,71.122 275.946,71.33 276.84,71.15 C285.29,69.46 295.3,67.49 305,67.49 C321.22,67.49 327.16,73.42 327.16,92.02 L327.16,96.57 C320.994,95.165 314.684,94.493 308.36,94.57 C284.62,94.57 265.04,103.67 265.04,126.42 C265.04,149.37 280.87,159.26 305.04,159.26 C315.33,159.26 334.52,157.26 345.2,155.31 L345.2,91 C345.19,62.94 335.1,51.66 307.6,51.66 z M307.21,143.85 C292.77,143.85 283.66,139.5 283.66,126.25 C283.66,113.98 294.94,109.43 309.98,109.43 C315.757,109.307 321.53,109.833 327.19,111 L327.19,142.26 C320.587,143.358 313.903,143.89 307.21,143.85 z M468.06,105.76 C468.06,73.9 451.06,51.94 414.44,51.94 C399.21,51.94 386.15,55.11 377.44,57.29 L377.44,190.37 C377.44,192.154 378.886,193.6 380.67,193.6 L392.61,193.6 C394.394,193.6 395.84,192.154 395.84,190.37 L395.84,152.45 C400.39,155.45 409.89,159.37 421.76,159.37 C451.44,159.37 468.06,137 468.06,105.76 z M448.86,105.76 C448.86,127.91 439.76,143.15 419.39,143.15 C409.3,143.15 400.39,138.99 395.84,135.23 L395.84,70.34 C401.793,68.877 407.912,68.205 414.04,68.34 C436,68.36 448.86,81.82 448.86,105.76 z M586.96,105.76 C586.96,73.9 569.96,51.94 533.35,51.94 C518.11,51.94 505.06,55.11 496.35,57.29 L496.35,190.37 C496.35,192.154 497.796,193.6 499.58,193.6 L511.52,193.6 C513.304,193.6 514.75,192.154 514.75,190.37 L514.75,152.45 C519.3,155.45 528.75,159.37 540.67,159.37 C570.34,159.37 587,137 587,105.76 z M567.77,105.76 C567.77,127.91 558.67,143.15 538.29,143.15 C528.2,143.15 519.29,138.99 514.75,135.23 L514.75,70.34 C520.703,68.877 526.822,68.205 532.95,68.34 C554.91,68.36 567.77,81.82 567.77,105.76 z M624.36,33.94 C631.48,33.94 637.22,28.8 637.22,20.88 C637.22,12.96 631.48,7.88 624.36,7.88 C617.24,7.88 611.5,13 611.5,20.88 C611.5,28.76 617.24,33.94 624.36,33.94 z M630.43,54.12 L618.49,54.12 C616.706,54.12 615.26,55.566 615.26,57.35 L615.26,153.77 C615.26,155.554 616.706,157 618.49,157 L630.43,157 C632.214,157 633.66,155.554 633.66,153.77 L633.66,57.35 C633.66,55.566 632.214,54.12 630.43,54.12 z M753,57.46 L753,154.73 C744.49,156.73 730.44,159.28 708.29,159.28 C679.01,159.28 665.95,142.47 665.95,112 L665.95,57.46 C665.95,55.676 667.396,54.23 669.18,54.23 L681.12,54.23 C682.904,54.23 684.35,55.676 684.35,57.46 L684.35,108 C684.35,133.13 691.47,143 710.27,143 C716.99,143 730.84,141.81 734.6,141 L734.6,57.46 C734.6,55.676 736.046,54.23 737.83,54.23 L749.77,54.23 C751.554,54.23 753,55.676 753,57.46 z M785.25,153.77 L785.25,57.09 C793.76,54.91 813.74,51.94 831.94,51.94 C845.2,51.94 853.7,55.5 858.65,60.65 C871.51,55.7 884.76,51.94 898.65,51.94 C926.75,51.94 937.03,68.56 937.03,99.23 L937.03,153.77 C937.03,155.554 935.584,157 933.8,157 L921.78,157 C919.996,157 918.55,155.554 918.55,153.77 L918.55,103.18 C918.55,80.83 915.55,68.18 896.55,68.18 C884.09,68.18 870.04,72.53 866.88,74.9 C869.25,82.03 870.24,90.33 870.24,99.24 L870.24,153.78 C870.24,155.564 868.794,157.01 867.01,157.01 L855.11,157.01 C853.326,157.01 851.88,155.564 851.88,153.78 L851.88,103.18 C851.88,80.43 848.12,68.18 829.88,68.18 C823.16,68.18 810.1,68.77 803.57,70.18 L803.57,153.81 C803.57,155.594 802.124,157.04 800.34,157.04 L788.44,157.04 C787.576,157.04 786.749,156.694 786.142,156.08 C785.535,155.465 785.199,154.634 785.21,153.77 z" fill="#000000"/>
    <path d="M979.72,63.21 C980.646,63.103 981.578,63.056 982.51,63.07 C984.66,63.07 986.22,63.75 986.22,65.56 C986.22,67.66 984.61,68.14 982.07,68.14 L979.72,68.14 z M991.88,78 C990.609,75.318 989.053,72.78 987.24,70.43 C989.202,69.669 990.461,67.742 990.37,65.64 C990.37,61.64 987.37,59.49 981.68,59.49 C979.602,59.496 977.528,59.677 975.48,60.03 L975.48,78 L979.72,78 L979.72,71.47 L983.34,71.47 C984.821,73.517 986.097,75.704 987.15,78 z M997.3,69 C997.3,77.7 991.1,83.9 982.65,83.9 C974.2,83.9 968.15,77.6 968.15,69 C968.15,60.4 974.21,54.16 982.65,54.16 C991.09,54.16 997.3,60.19 997.3,69 z M1001.01,69 C1001.01,58.26 993.15,50.55 982.65,50.55 C977.744,50.464 973.015,52.385 969.558,55.868 C966.101,59.351 964.217,64.094 964.34,69 C964.214,73.907 966.097,78.653 969.554,82.139 C973.011,85.624 977.742,87.546 982.65,87.46 C993,87.43 1001,79.77 1001,69 z" fill="#000000"/>
    <path d="M158.9,98.25 Q156.97,102.85 154.6,107.25 C137.256,85.148 111.959,70.704 84.11,67 C79.401,66.386 74.658,66.075 69.91,66.07 C44.83,66.046 20.534,74.806 1.24,90.83 C6.351,58.835 25.577,30.833 53.6,14.57 C81.623,-1.694 115.474,-4.495 145.79,6.94 C149.986,8.535 154.08,10.385 158.05,12.48 L158.05,12.56 C160.334,17.71 162.216,23.029 163.68,28.47 C169.928,51.611 168.245,76.177 158.9,98.25 z" fill="#000000"/>
    <path d="M145.79,208.59 C115.456,220.033 81.583,217.221 53.55,200.934 C25.518,184.646 6.301,156.61 1.22,124.59 C0.615,120.804 0.208,116.989 0,113.16 L0,113.16 C17.395,88.675 44.215,72.557 74,68.69 C77.29,68.25 80.56,67.98 83.82,67.86 C73.11,94.723 73.645,124.763 85.304,151.228 C96.964,177.693 118.769,198.363 145.82,208.59 z" fill="#000000"/>
    <path d="M215.45,107.77 C215.472,139.889 201.129,170.335 176.35,190.77 C172.23,194.19 167.52,197.71 165.35,198.77 C135.477,195.74 108.196,180.464 90,156.58 C88,153.94 86.11,151.2 84.36,148.36 C137.803,141.121 177.673,95.501 177.69,41.57 C177.688,35.931 177.246,30.301 176.37,24.73 C201.145,45.184 215.479,75.643 215.45,107.77 z" fill="#000000"/>
  </g>
</svg>
