<svg xmlns="http://www.w3.org/2000/svg" xmlns:xlink="http://www.w3.org/1999/xlink" viewBox="0 0 1004.82 215.53"><defs><style>.cls-1{isolation:isolate;}.cls-2{fill:#506068;}.cls-3{opacity:0.7;fill:url(#linear-gradient);}.cls-3,.cls-4,.cls-5{mix-blend-mode:multiply;}.cls-4,.cls-5{opacity:0.5;}.cls-4{fill:url(#linear-gradient-2);}.cls-5{fill:url(#linear-gradient-3);}</style><linearGradient id="linear-gradient" x1="210.81" y1="137.39" x2="48.3" y2="194.93" gradientUnits="userSpaceOnUse"><stop offset="0" stop-opacity="0"/><stop offset="1" stop-opacity="0.5"/></linearGradient><linearGradient id="linear-gradient-2" x1="21.84" y1="204.25" x2="69.28" y2="44.77" xlink:href="#linear-gradient"/><linearGradient id="linear-gradient-3" x1="39.18" y1="53.63" x2="167.4" y2="53.63" xlink:href="#linear-gradient"/></defs><title>Appium logo horiz gray scale</title><g class="cls-1"><g id="artwork"><path class="cls-2" d="M307.6,51.66c-11.52,0-24.15,1.91-32.92,3.58a3.23,3.23,0,0,0-2.6,3.49L273,68.3a3.22,3.22,0,0,0,3.84,2.85c8.45-1.69,18.46-3.66,28.16-3.66,16.22,0,22.16,5.93,22.16,24.53v4.55a80.24,80.24,0,0,0-18.8-2c-23.74,0-43.32,9.1-43.32,31.85,0,22.95,15.83,32.84,40,32.84,10.29,0,29.48-2,40.16-3.95V91C345.19,62.94,335.1,51.66,307.6,51.66Zm-.39,92.19c-14.44,0-23.55-4.35-23.55-17.6,0-12.27,11.28-16.82,26.32-16.82A77.1,77.1,0,0,1,327.19,111v31.26A117.55,117.55,0,0,1,307.21,143.85Zm160.85-38.09c0-31.86-17-53.82-53.62-53.82-15.23,0-28.29,3.17-37,5.35V190.37a3.23,3.23,0,0,0,3.23,3.23h11.94a3.23,3.23,0,0,0,3.23-3.23V152.45c4.55,3,14.05,6.92,25.92,6.92C451.44,159.37,468.06,137,468.06,105.76Zm-19.2,0c0,22.15-9.1,37.39-29.47,37.39-10.09,0-19-4.16-23.55-7.92V70.34a69.81,69.81,0,0,1,18.2-2C436,68.36,448.86,81.82,448.86,105.76Zm138.1,0c0-31.86-17-53.82-53.61-53.82-15.24,0-28.29,3.17-37,5.35V190.37a3.23,3.23,0,0,0,3.23,3.23h11.94a3.23,3.23,0,0,0,3.23-3.23V152.45c4.55,3,14,6.92,25.92,6.92C570.34,159.37,587,137,587,105.76Zm-19.19,0c0,22.15-9.1,37.39-29.48,37.39-10.09,0-19-4.16-23.54-7.92V70.34a69.81,69.81,0,0,1,18.2-2C554.91,68.36,567.77,81.82,567.77,105.76Zm56.59-71.82c7.12,0,12.86-5.14,12.86-13.06s-5.74-13-12.86-13S611.5,13,611.5,20.88,617.24,33.94,624.36,33.94Zm6.07,20.18H618.49a3.23,3.23,0,0,0-3.23,3.23v96.42a3.23,3.23,0,0,0,3.23,3.23h11.94a3.23,3.23,0,0,0,3.23-3.23V57.35A3.23,3.23,0,0,0,630.43,54.12ZM753,57.46v97.27c-8.51,2-22.56,4.55-44.71,4.55-29.28,0-42.34-16.81-42.34-47.28V57.46a3.23,3.23,0,0,1,3.23-3.23h11.94a3.23,3.23,0,0,1,3.23,3.23V108c0,25.13,7.12,35,25.92,35,6.72,0,20.57-1.19,24.33-2V57.46a3.23,3.23,0,0,1,3.23-3.23h11.94A3.23,3.23,0,0,1,753,57.46Zm32.25,96.31V57.09c8.51-2.18,28.49-5.15,46.69-5.15,13.26,0,21.76,3.56,26.71,8.71,12.86-4.95,26.11-8.71,40-8.71,28.1,0,38.38,16.62,38.38,47.29v54.54a3.23,3.23,0,0,1-3.23,3.23H921.78a3.23,3.23,0,0,1-3.23-3.23V103.18c0-22.35-3-35-22-35-12.46,0-26.51,4.35-29.67,6.72,2.37,7.13,3.36,15.43,3.36,24.34v54.54a3.23,3.23,0,0,1-3.23,3.23H855.11a3.23,3.23,0,0,1-3.23-3.23V103.18c0-22.75-3.76-35-22-35-6.72,0-19.78.59-26.31,2v83.63a3.23,3.23,0,0,1-3.23,3.23H788.44A3.23,3.23,0,0,1,785.21,153.77Z"/><path class="cls-2" d="M979.72,63.21a21.57,21.57,0,0,1,2.79-.14c2.15,0,3.71.68,3.71,2.49,0,2.1-1.61,2.58-4.15,2.58h-2.35ZM991.88,78a41.45,41.45,0,0,0-4.64-7.57,4.91,4.91,0,0,0,3.13-4.79c0-4-3-6.15-8.69-6.15a37.14,37.14,0,0,0-6.2.54V78h4.24V71.47h3.62A38.61,38.61,0,0,1,987.15,78Zm5.42-9c0,8.7-6.2,14.9-14.65,14.9s-14.5-6.3-14.5-14.9,6.06-14.84,14.5-14.84S997.3,60.19,997.3,69Zm3.71,0c0-10.74-7.86-18.45-18.36-18.45A18,18,0,0,0,964.34,69a18,18,0,0,0,18.31,18.46C993,87.43,1001,79.77,1001,69Z"/><path class="cls-2" d="M158.9,98.25q-1.93,4.6-4.3,9A107.64,107.64,0,0,0,84.11,67a110.8,110.8,0,0,0-14.2-.93A107.32,107.32,0,0,0,1.24,90.83,107.84,107.84,0,0,1,145.79,6.94a110.08,110.08,0,0,1,12.26,5.54l0,.08a109.29,109.29,0,0,1,5.63,15.91A107.27,107.27,0,0,1,158.9,98.25Z"/><path class="cls-2" d="M145.79,208.59a107.84,107.84,0,0,1-144.57-84A110.22,110.22,0,0,1,0,113.16l0,0A107.8,107.8,0,0,1,74,68.69c3.29-.44,6.56-.71,9.82-.83a107.78,107.78,0,0,0,62,140.73Z"/><path class="cls-2" d="M215.45,107.77a107.49,107.49,0,0,1-39.1,83c-4.12,3.42-8.83,6.94-11,8A108.49,108.49,0,0,1,90,156.58c-2-2.64-3.89-5.38-5.64-8.22A107.8,107.8,0,0,0,177.69,41.57a108.62,108.62,0,0,0-1.32-16.84A107.56,107.56,0,0,1,215.45,107.77Z"/><path class="cls-3" d="M215.44,107.77a107.54,107.54,0,0,1-39.09,83.05c-4.12,3.41-8.83,6.92-11,8A108.51,108.51,0,0,1,90,156.58q-3-4-5.65-8.22A107.77,107.77,0,0,0,214.07,91l.06-.12A109.11,109.11,0,0,1,215.44,107.77Z"/><path class="cls-4" d="M50,141a108.09,108.09,0,0,0,19.73,67.69A107.68,107.68,0,0,1,0,112.26c0,.28.05.57.08.85A107.26,107.26,0,0,1,60,71.47,109.61,109.61,0,0,1,74,68.69q4.94-.64,9.82-.83A108.09,108.09,0,0,0,50,141Z"/><path class="cls-5" d="M158.9,98.26q-1.93,4.59-4.3,9A107.66,107.66,0,0,0,107.7,41a109.86,109.86,0,0,0-12.47-6.83,107.09,107.09,0,0,0-56-9.6A107.65,107.65,0,0,1,158.05,12.49l0,.07a108.63,108.63,0,0,1,5.62,15.92A107.28,107.28,0,0,1,158.9,98.26Z"/></g></g></svg>