<?xml version="1.0" encoding="UTF-8"?>
<!DOCTYPE svg PUBLIC "-//W3C//DTD SVG 1.1//EN" "http://www.w3.org/Graphics/SVG/1.1/DTD/svg11.dtd">
<svg version="1.1" xmlns="http://www.w3.org/2000/svg" xmlns:xlink="http://www.w3.org/1999/xlink" x="0" y="0" width="500" height="500.2" viewBox="0, 0, 500, 500.2">
  <g id="Layer_1">
    <path d="M367.25,228 Q362.75,238.68 357.25,248.87 C316.982,197.611 258.27,164.128 193.65,155.57 C182.728,154.144 171.725,153.426 160.71,153.42 C102.521,153.338 46.143,173.644 1.37,210.81 C20.23,91.36 123.63,0 248.39,0 C289.137,-0.026 329.27,9.931 365.28,29 L365.35,29.17 C370.654,41.125 375.017,53.476 378.4,66.11 C392.873,119.804 388.947,176.798 367.25,228 z" fill="#000000"/>
    <path d="M338.24,484.09 C309.982,494.77 280.019,500.228 249.81,500.2 C124.95,500.2 21.51,408.73 2.74,289.2 C1.356,280.398 0.442,271.529 0,262.63 L0.1,262.5 C33.737,215.02 82.942,180.823 139.17,165.85 C149.812,163.002 160.628,160.851 171.55,159.41 Q182.99,157.9 194.34,157.49 C169.477,219.834 170.715,289.555 197.778,350.977 C224.84,412.398 275.454,460.364 338.24,484.09 z" fill="#000000"/>
    <path d="M500,250.11 C500.076,324.681 466.794,395.377 409.27,442.83 C399.72,450.75 388.77,458.92 383.77,461.38 C314.418,454.33 251.092,418.847 208.87,363.38 Q201.87,354.21 195.77,344.32 C319.814,327.536 412.354,221.645 412.37,96.47 C412.365,83.384 411.346,70.318 409.32,57.39 C466.806,104.868 500.065,175.553 500,250.11 z" fill="#000000"/>
    <path d="M450.15,456.59 C451.076,456.479 452.008,456.429 452.94,456.44 C455.09,456.44 456.65,457.13 456.65,458.93 C456.65,461.03 455.04,461.52 452.5,461.52 L450.15,461.52 z M462.31,471.39 C461.041,468.706 459.485,466.168 457.67,463.82 C459.63,463.057 460.888,461.132 460.8,459.03 C460.8,455.08 457.8,452.88 452.11,452.88 C450.032,452.886 447.958,453.067 445.91,453.42 L445.91,471.42 L450.15,471.42 L450.15,464.87 L453.77,464.87 C455.249,466.925 456.525,469.119 457.58,471.42 z M467.73,462.39 C467.73,471.08 461.53,477.29 453.08,477.29 C444.63,477.29 438.58,470.99 438.58,462.39 C438.58,453.79 444.64,447.55 453.08,447.55 C461.52,447.55 467.73,453.56 467.73,462.35 z M471.44,462.39 C471.44,451.65 463.58,443.93 453.08,443.93 C442.885,443.93 434.62,452.195 434.62,462.39 C434.62,472.585 442.885,480.85 453.08,480.85 C463.44,480.81 471.44,473.14 471.44,462.35 z" fill="#000000"/>
  </g>
</svg>
