<svg xmlns="http://www.w3.org/2000/svg" viewBox="0 0 500 500.2"><defs><style>.cls-1{isolation:isolate;}.cls-2{fill:#ffcc06;}.cls-3{fill:#65c9d3;}.cls-4,.cls-5{fill:#ee376d;}.cls-4{mix-blend-mode:multiply;}</style></defs><title>Appium mark color flat</title><g class="cls-1"><g id="artwork"><path class="cls-2" d="M368.77,228q-4.5,10.68-10,20.87a249.74,249.74,0,0,0-163.6-93.3,255.49,255.49,0,0,0-32.94-2.15A248.92,248.92,0,0,0,2.89,210.81C21.75,91.36,125.15,0,249.91,0A249.44,249.44,0,0,1,366.8,29l.07.17a251.47,251.47,0,0,1,13.05,36.94A248.9,248.9,0,0,1,368.77,228Z"/><path class="cls-3" d="M338.34,484.09a249.47,249.47,0,0,1-88.43,16.11c-124.86,0-228.3-91.47-247.07-211A251.38,251.38,0,0,1,.1,262.63l.1-.13a248.94,248.94,0,0,1,139.07-96.65,253.62,253.62,0,0,1,32.38-6.44q11.44-1.51,22.79-1.92a250.1,250.1,0,0,0,143.9,326.6Z"/><path class="cls-4" d="M500,250.11a249.5,249.5,0,0,1-90.73,192.72c-9.55,7.92-20.5,16.09-25.5,18.55a251.81,251.81,0,0,1-174.9-98q-7-9.17-13.1-19.06A250.14,250.14,0,0,0,412.37,96.47a253,253,0,0,0-3.05-39.08A249.67,249.67,0,0,1,500,250.11Z"/><path class="cls-5" d="M450.2,456.59a21.34,21.34,0,0,1,2.79-.15c2.15,0,3.71.69,3.71,2.49,0,2.1-1.61,2.59-4.15,2.59H450.2Zm12.16,14.8a41.1,41.1,0,0,0-4.64-7.57,4.92,4.92,0,0,0,3.13-4.79c0-3.95-3-6.15-8.69-6.15a37.14,37.14,0,0,0-6.2.54v18h4.24v-6.55h3.62a39.16,39.16,0,0,1,3.81,6.55Zm5.42-9c0,8.69-6.2,14.9-14.65,14.9s-14.5-6.3-14.5-14.9,6.06-14.84,14.5-14.84S467.78,453.56,467.78,462.35Zm3.71,0c0-10.74-7.86-18.46-18.36-18.46a18.46,18.46,0,0,0,0,36.92C463.49,480.81,471.49,473.14,471.49,462.35Z"/></g></g></svg>