<?xml version="1.0" encoding="UTF-8" standalone="no"?>
<svg
   xmlns:dc="http://purl.org/dc/elements/1.1/"
   xmlns:cc="http://creativecommons.org/ns#"
   xmlns:rdf="http://www.w3.org/1999/02/22-rdf-syntax-ns#"
   xmlns:svg="http://www.w3.org/2000/svg"
   xmlns="http://www.w3.org/2000/svg"
   viewBox="0 0 1117.2725 250"
   height="250"
   width="1117.2725"
   xml:space="preserve"
   id="svg2"
   version="1.1"><metadata
     id="metadata8"><rdf:RDF><cc:Work
         rdf:about=""><dc:format>image/svg+xml</dc:format><dc:type
           rdf:resource="http://purl.org/dc/dcmitype/StillImage" /><dc:title></dc:title></cc:Work></rdf:RDF></metadata><defs
     id="defs6" /><g
     transform="matrix(1.3333333,0,0,-1.3333333,-1.5869859e-5,250)"
     id="g10"><g
       transform="matrix(0.30673492,0,0,0.30673492,-2.4606407e-5,0)"
       id="g12"><path
         id="path14"
         style="fill:#41b73c;fill-opacity:1;fill-rule:nonzero;stroke:none"
         d="m 2015.16,67.2891 c 0.23,1.1757 0.47,2.1679 0.49,2.9531 0.07,1.9805 -0.88,2.7695 -3.64,2.7695 -5.13,0 -17.35,-5.1289 -25.39,-9.2773 l -13,-61.76174 H 1946 l 13.72,65.31644 c 0.23,1.1757 0.47,2.1679 0.49,2.9531 0.07,1.9805 -0.88,2.7695 -3.65,2.7695 -5.12,0 -17.54,-5.1289 -25.17,-9.082 L 1918.38,1.97266 h -27.82 l 19.65,93.73044 24.6,4.1446 -0.57,-10.6602 c 15.24,7.1055 27.22,10.8555 38.26,10.8555 9.47,0 14.26,-4.1446 16.18,-11.25 14.89,8.4883 28.21,11.25 39.26,11.25 12.82,0 17.3,-7.3047 16.87,-19.5352 -0.11,-3.3555 -0.43,-7.1055 -1.36,-11.0508 L 2029.26,1.97266 h -27.82 l 13.72,65.31644" /><path
         id="path16"
         style="fill:#41b73c;fill-opacity:1;fill-rule:nonzero;stroke:none"
         d="m 2119.47,65.9063 c 0.26,7.1054 -3.95,10.8515 -13.03,10.8515 -10.45,0 -16.76,-5.3281 -18.67,-14.8008 l -4.98,-23.875 c -0.24,-1.3828 -0.49,-2.7617 -0.52,-3.9453 -0.25,-6.9062 3.95,-10.8554 13.03,-10.8554 10.66,0 16.76,5.3281 18.66,14.8007 l 4.99,23.875 c 0.24,1.3828 0.48,2.7657 0.52,3.9493 z m -65.29,-33.7422 c 0.07,2.1718 0.35,4.5351 0.83,6.707 l 4.72,22.2969 c 5.19,24.6679 17.73,38.875 51.27,38.875 25.85,0 36.97,-14.8008 36.37,-31.961 -0.08,-2.1757 -0.35,-4.5468 -0.84,-6.914 l -4.72,-22.2969 C 2136.87,15.7852 2125.26,0 2090.34,0 c -24.47,0 -36.78,14.5977 -36.16,32.1641" /><path
         id="path18"
         style="fill:#41b73c;fill-opacity:1;fill-rule:nonzero;stroke:none"
         d="m 2221.99,69.2578 c 1.17,5.1367 -0.13,7.5 -5.07,7.5 -6.11,0 -16.11,-3.9453 -21.96,-7.5 l -9.47,-45.3789 c 3.33,-0.3984 6.88,-0.5976 10.83,-0.5976 14.4,0 17.41,7.1054 19.5,16.3828 z m -68.55,-64.72264 28.12,132.80484 28.55,3.945 -10.41,-49.5272 c 8.25,4.7344 17.84,8.2852 28.3,8.2852 20.91,0 25.59,-12.8282 21.09,-34.336 l -5.44,-25.8476 C 2238.91,16.9688 2231.42,0 2190.38,0 c -10.08,0 -23.84,1.38281 -36.94,4.53516" /><path
         id="path20"
         style="fill:#41b73c;fill-opacity:1;fill-rule:nonzero;stroke:none"
         d="m 2283.01,138.324 28.74,3.946 -6.36,-29.598 -28.54,-3.945 z m -8.99,-42.4256 28.76,3.9493 L 2282,1.97266 h -27.82 l 19.84,93.92574" /><path
         id="path22"
         style="fill:#41b73c;fill-opacity:1;fill-rule:nonzero;stroke:none"
         d="m 2334.27,137.34 28.75,3.945 -29.33,-139.31234 h -27.82 l 28.4,135.36734" /><path
         id="path24"
         style="fill:#41b73c;fill-opacity:1;fill-rule:nonzero;stroke:none"
         d="m 2417.26,73.0117 c 0.11,3.3516 -2.78,5.5235 -7.9,5.5235 -10.07,0 -13.23,-5.7227 -14.88,-13.6133 l -1.41,-6.7071 c 4.76,1.1797 6.95,1.5743 12.74,3.3477 7.56,2.1719 11.24,5.7266 11.45,11.4492 z m -50.65,-9.2773 c 4.72,22.1015 15.08,36.3086 45.47,36.3086 18.14,0 31.69,-7.8907 31.12,-24.0703 -0.65,-18.75 -10.62,-27.4336 -34.55,-34.5313 -11.77,-3.5547 -11.96,-3.5547 -20.32,-5.7226 l -1.43,-6.7149 c -0.7,-3.5508 -0.43,-6.707 4.7,-6.707 10.07,0 24.85,4.9336 38.06,10.6562 l 4.65,-19.7343 C 2422.41,5.91797 2403.86,0 2386.88,0 c -19.92,0 -28.1,8.67969 -27.53,25.0586 0.12,3.5508 0.65,7.5 1.59,11.6406 l 5.67,27.0352" /><path
         id="path26"
         style="fill:#2e64b3;fill-opacity:1;fill-rule:nonzero;stroke:none"
         d="M 639.078,602.031 H 99.7227 c -11.4493,0 -22.7539,-8.316 -25.3047,-19.523 L 0.488281,250.516 C -1.99609,239.324 5.24219,229.617 16.7422,229.617 H 549.504 c 11.434,0 22.785,10.09 25.254,21.262 l 73.965,331.894 c 2.484,11.219 1.757,19.258 -9.645,19.258" /><path
         id="path28"
         style="fill:#56c5f2;fill-opacity:1;fill-rule:nonzero;stroke:none"
         d="M 726.73,514.449 H 336.695 c -11.453,0 -22.789,-9.367 -25.308,-20.566 L 245.777,197.93 c -2.5,-11.242 4.754,-23.059 16.203,-23.059 h 388.286 c 11.433,0 22.754,11.719 25.285,22.93 l 65.609,293.625 c 2.524,11.137 -2.914,23.023 -14.43,23.023" /><path
         id="path30"
         style="fill:#88d6f6;fill-opacity:1;fill-rule:nonzero;stroke:none"
         d="m 336.695,514.449 c -11.453,0 -22.789,-10.359 -25.308,-21.527 L 252.738,229.617 h 296.766 c 11.434,0 22.785,10.371 25.254,21.504 l 58.449,263.328 H 336.695" /><path
         id="path32"
         style="fill:#41b73c;fill-opacity:1;fill-rule:nonzero;stroke:none"
         d="M 381.688,410.355 H 204.797 c -11.484,0 -22.824,-8.007 -25.379,-19.207 L 105.652,66.0234 c -2.582,-11.1718 4.661,-22.6171 16.145,-22.6171 h 176.699 c 11.438,0 22.817,11.9648 25.352,23.164 l 73.769,323.2187 c 2.551,11.137 -4.215,20.5 -15.679,20.5" /><path
         id="path34"
         style="fill:#7fcd48;fill-opacity:1;fill-rule:nonzero;stroke:none"
         d="M 381.688,410.355 H 204.797 c -11.484,0 -22.824,-9.031 -25.379,-20.171 L 142.68,229.617 h 218.258 l 36.679,160.637" /><path
         id="path36"
         style="fill:#acd91a;fill-opacity:1;fill-rule:nonzero;stroke:none"
         d="m 381.688,410.355 h -88.43 L 245.777,196.719 c -2.5,-11.223 4.754,-21.848 16.203,-21.848 h 87.176 l 48.461,213.723 c 2.551,11.136 -4.215,21.328 -15.679,21.328" /><path
         id="path38"
         style="fill:#ffffff;fill-opacity:1;fill-rule:nonzero;stroke:none"
         d="M 382.305,410.355 H 293.258 L 253.355,229.617 h 108.2 l 36.675,160.172 c 2.551,11.188 -4.46,20.566 -15.925,20.566" /><path
         id="path40"
         style="fill:#2f2d2e;fill-opacity:1;fill-rule:nonzero;stroke:none"
         d="m 2453.02,458.402 3.28,-13.836 c 0.94,-3.964 -1.58,-7.168 -5.64,-7.168" /><path
         id="path42"
         style="fill:#2f2d2e;fill-opacity:1;fill-rule:nonzero;stroke:none"
         d="m 2189.53,482.164 c -0.82,-3.836 -1.82,-8.684 -2.48,-11.887 l -28.9,-135.269 30.39,142.508 0.99,4.648" /><path
         id="path44"
         style="fill:#2f2d2e;fill-opacity:1;fill-rule:nonzero;stroke:none"
         d="m 1323.64,391.637 -15.95,-56.532 15.95,56.516 z" /><path
         id="path46"
         style="fill:#2f2d2e;fill-opacity:1;fill-rule:nonzero;stroke:none"
         d="m 2456.3,444.566 -8.32,35.219 c -6.57,25.488 -25.19,37.535 -67.03,37.535 h -175.98 c -4.05,0 -8.09,-1.828 -8.93,-5.793 l -66.76,-316.625 c -0.86,-4.004 -1.13,-6.851 -0.67,-8.832 0.47,-2.043 8.3,-1.656 12.32,-1.656 h 60.95 c 4.09,0 11.49,-0.309 13.64,0.563 2.26,0.925 3.26,6.961 4.08,10.957 l 21.54,111.019 26.32,123.141 c 0.86,3.949 4.84,7.187 8.89,7.187 l 174.31,0.117 c 4.02,0 6.58,3.215 5.64,7.168" /><path
         id="path48"
         style="fill:#2f2d2e;fill-opacity:1;fill-rule:nonzero;stroke:none"
         d="m 2704.28,572.918 c -4.08,-0.047 -77.31,0 -77.31,0 -4.05,0 -9.26,-4.348 -11.51,-7.699 L 2479.77,365.586 c -2.33,-3.352 -4.95,-3.234 -5.84,0.715 l -10.03,43.754 c -0.86,3.965 -4.91,7.203 -9.02,7.203 h -87.21 c -4.02,0 -6.44,-3.356 -5.38,-7.274 l 39.1,-137.058 c 1.13,-3.922 1.23,-10.332 0.22,-14.254 l -18.23,-69.426 c -0.96,-3.933 1.53,-5.121 5.64,-5.121 h 86.12 c 4.04,0 8.23,1.172 9.22,5.121 l 18.24,70.399 c 0.99,3.918 3.81,9.261 6.23,12.531 l 221.45,293.691 c 2.49,3.219 2.14,7.071 -1.9,7.071 l -24.1,-0.02" /><path
         id="path50"
         style="fill:#2f2d2e;fill-opacity:1;fill-rule:nonzero;stroke:none"
         d="m 1796.24,517.051 h -78.71 c -4,0 -8.13,-1.41 -8.93,-5.391 l -26,-121.73 -25.92,-116.551 c -0.83,-3.949 -4.84,-3.684 -8.9,-3.684 h -51.73 c -51.17,0 -45.27,32.336 -34.74,80.797 0.13,0.485 32.81,161.168 32.81,161.168 0.73,3.961 -1.92,5.391 -5.94,5.391 h -74.99 c -4.05,0 -8.06,-1.43 -8.85,-5.391 l -30.18,-161.051 c -15.04,-87.078 -15.5,-163.695 85.49,-166.226 1.66,-0.059 159.44,0 159.44,0 4.08,0 8.1,1.34 8.97,5.265 l 34.23,161.508 34.12,162.18 c 0,0 1.21,3.715 -0.17,3.715" /><path
         id="path52"
         style="fill:#2f2d2e;fill-opacity:1;fill-rule:nonzero;stroke:none"
         d="m 1012.25,517.32 h -84.391 c -4.046,0 -8.129,-0.965 -9.019,-4.949 l -15.235,-65.887 c -0.867,-3.894 1.727,-7.011 5.809,-7.011 h 80.801 c 4.082,0 8.129,3.679 8.996,7.613 l 14.669,66.379 c 0,0 1.16,3.855 -1.63,3.855" /><path
         id="path54"
         style="fill:#2f2d2e;fill-opacity:1;fill-rule:nonzero;stroke:none"
         d="m 903.941,417.258 c -4.019,0 -8.128,-3.211 -8.996,-7.168 L 883.559,359.828 858.176,243.77 c 0,0 -13.508,-61.696 -14.797,-65.555 0,0 -11.375,-44.547 -38.543,-42.762 -12.645,0.836 -27.098,3.731 -27.098,3.731 h -0.035 c -7.598,2.296 -8.129,-5.59 -9.055,-9.532 L 751.891,57.3477 c -0.969,-3.961 1.625,-7.5196 5.644,-7.5664 0,0 36.332,-5.125 61.981,-5.125 h 4.218 c 63.379,0 96.864,37.2617 118.262,138.4527 l 25.09,117.121 23.523,108.973 c 0.868,3.973 -1.527,7.652 -5.57,7.652" /><path
         id="path56"
         style="fill:#2f2d2e;fill-opacity:1;fill-rule:nonzero;stroke:none"
         d="m 2032.83,378.5 c 0,-4.398 -13.88,-3.559 -13.88,-3.559 l -110.67,0.801 c -3.82,0 -4.92,5.36 -5.18,9.196 -0.01,0.128 0.27,4.597 0.59,5.707 8.57,29.668 34.08,46.621 74.54,46.621 45.52,0 55.25,-22.582 55.25,-47.618 m -38.07,128.161 c -141.95,0 -175.84,-87.743 -194.69,-174.7 -18.84,-88.668 -17.24,-158.75 129.64,-158.75 h 5.3 c 58.28,0 129.07,0 129.07,0 3.98,0.071 7.97,3.715 8.76,7.649 l 14.44,56.246 c 0.83,3.98 -1.86,5.152 -5.87,5.152 h -132.11 c -47.84,0 -64.97,14.742 -63.31,47.84 -0.03,3.77 4.28,13.352 8.33,13.352 h 203.49 c 8.92,0.054 9.22,5.281 9.22,5.281 20.71,93.496 22.07,197.93 -112.27,197.93" /><path
         id="path58"
         style="fill:#2f2d2e;fill-opacity:1;fill-rule:nonzero;stroke:none"
         d="m 1306.92,335.105 -16.36,-55.91 c -1.13,-3.925 -5.74,-6.539 -9.79,-6.539 h -84.39 c -64.04,0 -79.6,49.492 -64.04,123.344 15.63,75.488 46.59,122.199 109.57,126.93 86.12,6.484 103.73,-54.328 82.86,-124.223 z m 74.99,-59.246 c 0,0 39.76,96.579 48.78,152.395 12.35,74.695 -25.02,183.023 -169.5,183.023 -143.62,0 -205.94,-103.418 -229.79,-215.855 -23.76,-113.258 7.34,-211.863 150.17,-211.063 l 218,0.133 c 4.01,0.016 8.2,3.262 9.23,7.133 l 18.38,69.98 c 0.99,3.95 -1.5,7.153 -5.58,7.168 l -17.56,0.133 -17.54,0.078 c -3.45,0.036 -5.46,2.274 -4.99,5.243 0.07,0.539 0.15,1.074 0.4,1.632" /></g></g></svg>