<?xml version="1.0" encoding="UTF-8" standalone="no"?>
<svg
   xmlns:dc="http://purl.org/dc/elements/1.1/"
   xmlns:cc="http://creativecommons.org/ns#"
   xmlns:rdf="http://www.w3.org/1999/02/22-rdf-syntax-ns#"
   xmlns:svg="http://www.w3.org/2000/svg"
   xmlns="http://www.w3.org/2000/svg"
   viewBox="0 0 663.92311 499.99999"
   height="500"
   width="663.9231"
   xml:space="preserve"
   id="svg2"
   version="1.1"><metadata
     id="metadata8"><rdf:RDF><cc:Work
         rdf:about=""><dc:format>image/svg+xml</dc:format><dc:type
           rdf:resource="http://purl.org/dc/dcmitype/StillImage" /><dc:title></dc:title></cc:Work></rdf:RDF></metadata><defs
     id="defs6" /><g
     transform="matrix(1.3333333,0,0,-1.3333333,-1.5872189e-5,517.7523)"
     id="g10"><g
       transform="matrix(2.1885069,0,0,2.1885069,-1.4148155e-5,-15.824052)"
       id="g109"><path
         id="path26"
         style="fill:#2e64b3;fill-opacity:1;fill-rule:nonzero;stroke:none;stroke-width:0.30673492"
         d="M 196.02751,184.66393 H 30.58841 c -3.5119,0 -6.979416,-2.55081 -7.761835,-5.98839 L 0.14974823,76.842005 C -0.61229511,73.409028 1.6079381,70.431552 5.1353928,70.431552 H 168.55204 c 3.50721,0 6.98896,3.094955 7.74628,6.521798 l 22.68765,101.80348 c 0.76193,3.44126 0.53894,5.9071 -2.95846,5.9071" /><path
         id="path28"
         style="fill:#56c5f2;fill-opacity:1;fill-rule:nonzero;stroke:none;stroke-width:0.30673492"
         d="M 222.91344,157.79947 H 103.27609 c -3.513036,0 -6.990183,-2.87318 -7.762848,-6.30831 L 75.388364,60.712043 c -0.766837,-3.448314 1.458218,-7.073001 4.970026,-7.073001 h 119.10087 c 3.50691,0 6.97945,3.594627 7.7558,7.033432 l 20.12457,90.065036 c 0.7742,3.41611 -0.89383,7.06196 -4.42619,7.06196" /><path
         id="path30"
         style="fill:#88d6f6;fill-opacity:1;fill-rule:nonzero;stroke:none;stroke-width:0.30673492"
         d="m 103.27609,157.79947 c -3.513036,0 -6.990183,-3.17746 -7.762848,-6.60308 L 77.523546,70.431552 h 91.028494 c 3.50721,0 6.98896,3.181148 7.74628,6.596028 l 17.92835,80.77189 h -90.95058" /><path
         id="path32"
         style="fill:#41b73c;fill-opacity:1;fill-rule:nonzero;stroke:none;stroke-width:0.30673492"
         d="M 117.07701,125.87021 H 62.818367 c -3.522544,0 -7.000918,-2.45603 -7.784626,-5.89146 L 32.407133,20.251682 c -0.791989,-3.426781 1.429692,-6.937454 4.952235,-6.937454 h 54.199754 c 3.508434,0 6.998771,3.670022 7.776344,7.105208 L 121.96299,119.5619 c 0.78248,3.4161 -1.29288,6.28806 -4.80929,6.28806" /><path
         id="path34"
         style="fill:#7fcd48;fill-opacity:1;fill-rule:nonzero;stroke:none;stroke-width:0.30673492"
         d="M 117.07701,125.87021 H 62.818367 c -3.522544,0 -7.000918,-2.77012 -7.784626,-6.18715 L 43.764914,70.431552 h 66.947346 l 11.25073,49.272978" /><path
         id="path36"
         style="fill:#acd91a;fill-opacity:1;fill-rule:nonzero;stroke:none;stroke-width:0.30673492"
         d="M 117.07701,125.87021 H 89.952445 L 75.388364,60.340587 c -0.766837,-3.442486 1.458218,-6.701545 4.970026,-6.701545 h 26.73992 l 14.86468,65.556308 c 0.78248,3.4158 -1.29288,6.54204 -4.80929,6.54204" /><path
         id="path38"
         style="fill:#ffffff;fill-opacity:1;fill-rule:nonzero;stroke:none;stroke-width:0.30673492"
         d="M 117.26627,125.87021 H 89.952445 L 77.712801,70.431552 h 33.188719 l 11.2495,49.130348 c 0.78248,3.43175 -1.36804,6.30831 -4.88475,6.30831" /></g></g></svg>