<?xml version="1.0" encoding="UTF-8"?>
<svg id="Layer_1" data-name="Layer 1" xmlns="http://www.w3.org/2000/svg" xmlns:xlink="http://www.w3.org/1999/xlink" viewBox="0 0 1200 500">
  <defs>
    <style>
      .cls-1 {
        fill: none;
      }

      .cls-2 {
        fill: #fff;
      }

      .cls-3 {
        clip-path: url(#clippath);
      }

      .cls-4 {
        fill: #68aded;
      }
    </style>
    <clipPath id="clippath">
      <rect class="cls-1" y="143.15" width="213.71" height="213.71" rx="53.43" ry="53.43"/>
    </clipPath>
  </defs>
  <g id="NS-logo">
    <g id="NativeScript-Logo-Rounded">
      <path class="cls-1" d="M213.71,196.57c0-29.49-23.94-53.43-53.43-53.43H53.43c-29.49,0-53.43,23.94-53.43,53.43v106.85c0,29.49,23.94,53.43,53.43,53.43h106.85c29.49,0,53.43-23.94,53.43-53.43v-106.85Z"/>
      <g class="cls-3">
        <g>
          <g id="Background">
            <rect class="cls-2" y="143.15" width="213.71" height="213.71"/>
          </g>
          <g id="NativeScript-Logo">
            <path class="cls-4" d="M175.93,249.97v.23c0,.05-.04.1-.09.1-6.96.65-12.41,6.31-12.41,13.44v28.58c0,2-.42,3.92-1.18,5.68-2.16,5.02-7.06,8.68-12.76,8.68h-14.44l-.1-.13-56.18-70.4v70.52h-14.54c-7.7,0-13.94-6.24-13.94-13.94v-29c0-7.13-5.45-12.79-12.41-13.44-.05,0-.09-.05-.09-.1v-.23c0-.05.04-.1.09-.1,6.94-.68,12.36-6.47,12.36-13.59v-29.02c0-1.94.4-3.79,1.11-5.46,2.12-4.98,7.07-8.48,12.83-8.48h14.54l.06.07,56.18,70.4v-70.47h14.6c7.7,0,13.94,6.24,13.94,13.94v29.02c0,7.12,5.42,12.91,12.36,13.59.05,0,.09.05.09.1"/>
          </g>
        </g>
      </g>
    </g>
  </g>
  <g>
    <g>
      <path class="cls-2" d="M352.93,200.03v105.65h-19.33l-46.07-66.56h-.73v66.56h-22.38v-105.65h19.62l45.63,66.41h.87v-66.41h22.38Z"/>
      <path class="cls-2" d="M393.48,307.13c-7.56,0-13.81-1.89-18.89-5.96-4.94-3.92-7.41-9.74-7.41-17.58,0-5.96,1.31-10.61,4.21-13.95,2.76-3.34,6.39-5.81,10.9-7.41,4.5-1.6,9.45-2.62,14.68-3.05,6.83-.73,11.77-1.45,14.68-2.18,3.05-.73,4.5-2.47,4.5-4.94v-.29c0-3.34-1.02-5.81-3.05-7.7-2.03-1.74-4.94-2.62-8.72-2.62s-7.12.87-9.45,2.62c-2.33,1.6-3.92,3.92-4.65,6.54l-20.34-1.74c1.45-7.12,5.23-12.93,11.33-17.15,5.96-4.21,13.66-6.39,23.25-6.39,5.81,0,11.33,1.02,16.42,2.91,5.09,1.74,9.3,4.65,12.5,8.57,3.05,4.07,4.65,9.16,4.65,15.4v53.48h-20.78v-11.04h-.73c-1.89,3.78-4.8,6.68-8.57,9.01-3.92,2.33-8.72,3.49-14.53,3.49ZM399.73,292.02c4.8,0,8.86-1.45,11.92-4.21,3.05-2.76,4.65-6.25,4.65-10.46v-8.43c-.87.58-2.18,1.16-4.07,1.6-1.74.44-3.63.87-5.67,1.16-2.18.29-3.92.58-5.52.87-3.92.44-6.98,1.6-9.3,3.2-2.47,1.6-3.63,3.92-3.63,7.12s1.16,5.23,3.34,6.83c2.18,1.6,4.94,2.33,8.28,2.33Z"/>
      <path class="cls-2" d="M497.28,226.48v16.42h-14.82v38.36c0,3.05.73,5.09,2.03,6.25,1.45,1.02,3.2,1.6,5.38,1.6,1.02,0,2.03-.15,3.05-.29,1.02-.29,1.89-.44,2.47-.44l3.34,16.28c-1.02.44-2.62.73-4.65,1.31-1.89.44-4.36.73-7.27.73-7.99.44-14.39-1.31-19.18-5.09-4.8-3.78-7.27-9.59-7.12-17.44v-41.27h-10.9v-16.42h10.9v-19.04h21.94v19.04h14.82Z"/>
      <path class="cls-2" d="M511.59,305.68v-79.2h22.09v79.2h-22.09ZM522.64,216.16c-3.2,0-5.96-1.02-8.28-3.2-2.33-2.18-3.49-4.8-3.49-7.85s1.16-5.81,3.49-7.85c2.33-2.18,5.09-3.34,8.28-3.34s6.1,1.16,8.43,3.34c2.33,2.03,3.49,4.65,3.49,7.85s-1.16,5.67-3.49,7.85c-2.33,2.18-5.09,3.2-8.43,3.2Z"/>
      <path class="cls-2" d="M625.09,226.48l-27.76,79.2h-24.7l-27.76-79.2h23.25l16.42,56.67h.87l16.42-56.67h23.25Z"/>
      <path class="cls-2" d="M669.82,307.28c-8.14,0-15.11-1.74-21.07-5.09-5.81-3.2-10.32-7.99-13.51-14.1-3.2-6.1-4.8-13.37-4.8-21.65s1.6-15.4,4.8-21.51c3.2-6.1,7.7-10.9,13.37-14.39,5.81-3.49,12.5-5.23,20.34-5.23,6.98,0,13.22,1.6,18.89,4.5,5.67,2.91,10.03,7.41,13.37,13.37,3.34,5.96,4.94,13.51,4.94,22.38v6.1h-53.91c0,5.96,1.6,10.61,4.8,14.1,3.2,3.34,7.7,5.09,13.08,5.09,3.78,0,6.98-.87,9.59-2.33,2.76-1.6,4.65-3.92,5.67-6.83l20.34,1.31c-1.6,7.27-5.52,13.22-11.77,17.58-6.25,4.5-14.39,6.68-24.12,6.68ZM652.24,258.01h33.28c0-4.65-1.6-8.57-4.5-11.63-3.05-3.05-6.98-4.65-11.77-4.65s-8.86,1.6-11.92,4.8c-3.2,3.2-4.8,6.98-5.09,11.48Z"/>
      <path class="cls-2" d="M778.33,230.4c-.44-4.21-2.18-7.41-5.38-9.74-3.2-2.33-7.41-3.49-12.79-3.49s-9.59,1.16-12.5,3.34c-2.91,2.33-4.36,5.09-4.36,8.57-.15,3.78,1.45,6.54,4.8,8.57,3.34,1.89,7.27,3.49,11.92,4.5l9.45,2.18c6.1,1.45,11.63,3.49,16.28,6.1,4.8,2.62,8.57,5.96,11.33,10.03,2.76,4.07,4.07,9.16,4.07,14.97,0,9.74-3.63,17.44-10.9,23.11-7.12,5.81-17.15,8.57-30.08,8.57s-23.11-2.91-30.81-8.72c-7.56-5.81-11.48-14.53-11.77-25.87h21.65c.29,5.23,2.47,9.3,6.25,11.92,3.78,2.62,8.57,3.92,14.39,3.92s10.17-1.16,13.66-3.49c3.34-2.47,5.09-5.67,5.09-9.45s-1.6-6.39-4.65-8.28c-3.2-1.89-7.56-3.63-13.37-4.94l-11.48-2.91c-8.86-2.18-15.99-5.52-21.07-10.17-5.23-4.65-7.7-10.9-7.7-18.6,0-6.39,1.6-12.06,5.09-16.86,3.49-4.8,8.28-8.43,14.24-11.19,6.1-2.62,12.93-3.92,20.78-3.92s14.68,1.31,20.49,3.92c5.81,2.76,10.46,6.54,13.66,11.33,3.34,4.65,4.94,10.32,5.09,16.57h-21.36Z"/>
      <path class="cls-2" d="M851.54,307.28c-8.14,0-15.11-1.74-20.93-5.23-5.81-3.49-10.32-8.28-13.51-14.39-3.05-6.25-4.65-13.22-4.65-21.36s1.6-15.26,4.8-21.36c3.2-6.1,7.56-10.9,13.37-14.39,5.81-3.49,12.79-5.23,20.78-5.23,6.98,0,12.93,1.31,18.17,3.78,5.23,2.62,9.3,6.1,12.35,10.61,3.05,4.5,4.65,9.88,4.94,15.99h-20.64c-.58-3.92-2.18-7.12-4.65-9.59-2.47-2.33-5.81-3.63-9.74-3.63-5.09,0-9.3,2.03-12.35,6.25-3.05,4.07-4.65,9.88-4.65,17.29s1.6,13.51,4.65,17.58c3.05,4.21,7.12,6.25,12.35,6.25,3.78,0,6.98-1.16,9.45-3.49,2.62-2.18,4.21-5.52,4.94-9.74h20.64c-.29,6.1-1.89,11.33-4.8,15.99-3.05,4.65-7.12,8.28-12.21,10.75-5.23,2.62-11.33,3.92-18.31,3.92Z"/>
      <path class="cls-2" d="M901,305.68v-79.2h21.36v13.81h.87c1.45-4.94,3.78-8.72,7.27-11.19,3.34-2.62,7.27-3.78,11.77-3.78,2.47,0,4.65.29,6.83.73v19.47c-1.02-.29-2.47-.58-4.21-.87-1.89-.15-3.49-.29-5.09-.29-4.8,0-8.86,1.6-12.06,4.65-3.05,3.05-4.65,6.98-4.65,11.77v44.9h-22.09Z"/>
      <path class="cls-2" d="M960.4,305.68v-79.2h22.09v79.2h-22.09ZM971.45,216.16c-3.2,0-5.96-1.02-8.28-3.2-2.33-2.18-3.49-4.8-3.49-7.85s1.16-5.81,3.49-7.85c2.33-2.18,5.09-3.34,8.28-3.34s6.1,1.16,8.43,3.34c2.33,2.03,3.49,4.65,3.49,7.85s-1.16,5.67-3.49,7.85c-2.33,2.18-5.09,3.2-8.43,3.2Z"/>
      <path class="cls-2" d="M999.93,335.47v-108.99h21.8v13.22h.87c1.02-2.18,2.47-4.36,4.21-6.54,1.89-2.18,4.36-4.07,7.27-5.52,3.05-1.45,6.68-2.33,11.04-2.33,5.81,0,11.19,1.6,16.13,4.65,4.8,2.91,8.72,7.41,11.63,13.51,2.91,5.96,4.36,13.51,4.36,22.67s-1.31,16.28-4.21,22.38c-2.91,6.1-6.68,10.61-11.63,13.81-4.8,3.05-10.17,4.65-16.28,4.65-4.21,0-7.85-.73-10.9-2.18-2.91-1.31-5.38-3.2-7.27-5.23-1.89-2.18-3.34-4.36-4.36-6.54h-.58v42.43h-22.09ZM1021.44,266.01c0,7.12,1.45,12.79,4.36,17,2.91,4.36,7.12,6.39,12.35,6.39s9.59-2.03,12.35-6.39c2.91-4.36,4.36-10.03,4.36-17s-1.45-12.35-4.21-16.71c-2.91-4.21-6.98-6.39-12.5-6.39s-9.45,2.03-12.35,6.25c-2.91,4.21-4.36,9.88-4.36,16.86Z"/>
      <path class="cls-2" d="M1133.98,226.48v16.42h-14.82v38.36c0,3.05.73,5.09,2.03,6.25,1.45,1.02,3.2,1.6,5.38,1.6,1.02,0,2.03-.15,3.05-.29,1.02-.29,1.89-.44,2.47-.44l3.34,16.28c-1.02.44-2.62.73-4.65,1.31-1.89.44-4.36.73-7.27.73-7.99.44-14.39-1.31-19.18-5.09-4.8-3.78-7.27-9.59-7.12-17.44v-41.27h-10.9v-16.42h10.9v-19.04h21.94v19.04h14.82Z"/>
    </g>
    <path class="cls-2" d="M1161.11,217.47h-5.52v-21.43h-7.07v-4.59h19.65v4.59h-7.07v21.43Z"/>
    <path class="cls-2" d="M1183.2,217.47l-6.27-20.42h-.16c.02.49.06,1.22.12,2.2s.1,2.02.15,3.12.07,2.1.07,2.99v12.1h-4.93v-26.02h7.51l6.16,19.9h.11l6.53-19.9h7.51v26.02h-5.14v-12.32c0-.82.01-1.76.04-2.83s.07-2.09.12-3.05.08-1.69.11-2.18h-.16l-6.71,20.38h-5.05Z"/>
  </g>
</svg>