<?xml version="1.0" encoding="UTF-8"?>
<svg id="Layer_1" data-name="Layer 1" xmlns="http://www.w3.org/2000/svg" xmlns:xlink="http://www.w3.org/1999/xlink" viewBox="0 0 1200 500">
  <defs>
    <style>
      .cls-1 {
        fill: none;
      }

      .cls-2 {
        fill: #fff;
      }

      .cls-3 {
        clip-path: url(#clippath);
      }

      .cls-4 {
        fill: #68aded;
      }
    </style>
    <clipPath id="clippath">
      <rect class="cls-1" y="140.82" width="218.37" height="218.37" rx="54.59" ry="54.59"/>
    </clipPath>
  </defs>
  <g id="NS-logo">
    <g id="NativeScript-Logo-Rounded">
      <path class="cls-1" d="M218.37,195.41c0-30.13-24.46-54.59-54.59-54.59H54.59c-30.13,0-54.59,24.46-54.59,54.59v109.18c0,30.13,24.46,54.59,54.59,54.59h109.18c30.13,0,54.59-24.46,54.59-54.59v-109.18Z"/>
      <g class="cls-3">
        <g>
          <g id="Background">
            <rect class="cls-2" y="140.82" width="218.37" height="218.37"/>
          </g>
          <g id="NativeScript-Logo">
            <path class="cls-4" d="M179.77,249.97v.23c0,.05-.04.1-.1.1-7.11.67-12.68,6.45-12.68,13.74v29.2c0,2.04-.43,4.01-1.2,5.81-2.21,5.13-7.22,8.86-13.04,8.86h-14.76l-.1-.13-57.4-71.93v72.06h-14.86c-7.87,0-14.25-6.38-14.25-14.25v-29.63c0-7.29-5.57-13.07-12.68-13.74-.05,0-.1-.05-.1-.1v-.23c0-.05.04-.1.1-.1,7.09-.69,12.63-6.62,12.63-13.89v-29.65c0-1.98.41-3.87,1.14-5.58,2.17-5.09,7.22-8.66,13.11-8.66h14.85l.06.07,57.4,71.94v-72.01h14.91c7.87,0,14.25,6.38,14.25,14.25v29.65c0,7.27,5.54,13.2,12.63,13.89.05,0,.1.05.1.1"/>
          </g>
        </g>
      </g>
    </g>
  </g>
  <g>
    <path class="cls-2" d="M360.62,198.94v107.95h-19.75l-47.07-68.01h-.74v68.01h-22.87v-107.95h20.05l46.63,67.86h.89v-67.86h22.87Z"/>
    <path class="cls-2" d="M402.06,308.38c-7.72,0-14.11-1.93-19.3-6.09-5.05-4.01-7.57-9.95-7.57-17.97,0-6.09,1.34-10.84,4.31-14.26,2.82-3.42,6.53-5.94,11.14-7.57,4.6-1.63,9.65-2.67,15-3.12,6.98-.74,12.03-1.48,15-2.23,3.12-.74,4.6-2.52,4.6-5.05v-.3c0-3.42-1.04-5.94-3.12-7.87-2.08-1.78-5.05-2.67-8.91-2.67s-7.28.89-9.65,2.67c-2.38,1.63-4.01,4.01-4.75,6.68l-20.79-1.78c1.48-7.28,5.35-13.22,11.58-17.52,6.09-4.31,13.96-6.53,23.76-6.53,5.94,0,11.58,1.04,16.78,2.97,5.2,1.78,9.5,4.75,12.77,8.76,3.12,4.16,4.75,9.35,4.75,15.74v54.64h-21.23v-11.29h-.74c-1.93,3.86-4.9,6.83-8.76,9.21-4.01,2.38-8.91,3.56-14.85,3.56ZM408.45,292.94c4.9,0,9.06-1.48,12.18-4.31,3.12-2.82,4.75-6.39,4.75-10.69v-8.61c-.89.59-2.23,1.19-4.16,1.63-1.78.45-3.71.89-5.79,1.19-2.23.3-4.01.59-5.64.89-4.01.45-7.13,1.63-9.5,3.27-2.52,1.63-3.71,4.01-3.71,7.28s1.19,5.35,3.42,6.98c2.23,1.63,5.05,2.38,8.46,2.38Z"/>
    <path class="cls-2" d="M508.12,225.97v16.78h-15.15v39.2c0,3.12.74,5.2,2.08,6.39,1.48,1.04,3.27,1.63,5.49,1.63,1.04,0,2.08-.15,3.12-.3,1.04-.3,1.93-.45,2.52-.45l3.42,16.63c-1.04.45-2.67.74-4.75,1.34-1.93.45-4.45.74-7.42.74-8.17.45-14.7-1.34-19.6-5.2-4.9-3.86-7.42-9.8-7.28-17.82v-42.17h-11.14v-16.78h11.14v-19.45h22.42v19.45h15.15Z"/>
    <path class="cls-2" d="M522.75,306.89v-80.93h22.57v80.93h-22.57ZM534.03,215.42c-3.27,0-6.09-1.04-8.46-3.27-2.38-2.23-3.56-4.9-3.56-8.02s1.19-5.94,3.56-8.02c2.38-2.23,5.2-3.42,8.46-3.42s6.24,1.19,8.61,3.42c2.38,2.08,3.56,4.75,3.56,8.02s-1.19,5.79-3.56,8.02c-2.38,2.23-5.2,3.27-8.61,3.27Z"/>
    <path class="cls-2" d="M638.72,225.97l-28.36,80.93h-25.24l-28.36-80.93h23.76l16.78,57.91h.89l16.78-57.91h23.76Z"/>
    <path class="cls-2" d="M684.43,308.53c-8.32,0-15.44-1.78-21.53-5.2-5.94-3.27-10.54-8.17-13.81-14.4-3.27-6.24-4.9-13.66-4.9-22.12s1.63-15.74,4.9-21.98c3.27-6.24,7.87-11.14,13.66-14.7,5.94-3.56,12.77-5.35,20.79-5.35,7.13,0,13.51,1.63,19.3,4.6,5.79,2.97,10.25,7.57,13.66,13.66,3.42,6.09,5.05,13.81,5.05,22.87v6.24h-55.09c0,6.09,1.63,10.84,4.9,14.4,3.27,3.42,7.87,5.2,13.36,5.2,3.86,0,7.13-.89,9.8-2.38,2.82-1.63,4.75-4.01,5.79-6.98l20.79,1.34c-1.63,7.42-5.64,13.51-12.03,17.97-6.39,4.6-14.7,6.83-24.65,6.83ZM666.46,258.19h34c0-4.75-1.63-8.76-4.6-11.88-3.12-3.12-7.13-4.75-12.03-4.75s-9.06,1.63-12.18,4.9c-3.27,3.27-4.9,7.13-5.2,11.73Z"/>
    <path class="cls-2" d="M795.3,229.98c-.45-4.31-2.23-7.57-5.49-9.95-3.27-2.38-7.57-3.56-13.07-3.56s-9.8,1.19-12.77,3.42c-2.97,2.38-4.45,5.2-4.45,8.76-.15,3.86,1.48,6.68,4.9,8.76,3.42,1.93,7.42,3.56,12.18,4.6l9.65,2.23c6.24,1.48,11.88,3.56,16.63,6.24,4.9,2.67,8.76,6.09,11.58,10.25,2.82,4.16,4.16,9.35,4.16,15.29,0,9.95-3.71,17.82-11.14,23.61-7.28,5.94-17.52,8.76-30.74,8.76s-23.61-2.97-31.48-8.91c-7.72-5.94-11.73-14.85-12.03-26.43h22.12c.3,5.35,2.52,9.5,6.39,12.18,3.86,2.67,8.76,4.01,14.7,4.01s10.39-1.19,13.96-3.56c3.42-2.52,5.2-5.79,5.2-9.65s-1.63-6.53-4.75-8.46c-3.27-1.93-7.72-3.71-13.66-5.05l-11.73-2.97c-9.06-2.23-16.33-5.64-21.53-10.39-5.35-4.75-7.87-11.14-7.87-19.01,0-6.53,1.63-12.32,5.2-17.22,3.56-4.9,8.46-8.61,14.55-11.43,6.24-2.67,13.22-4.01,21.23-4.01s15,1.34,20.94,4.01c5.94,2.82,10.69,6.68,13.96,11.58,3.42,4.75,5.05,10.54,5.2,16.93h-21.83Z"/>
    <path class="cls-2" d="M870.11,308.53c-8.32,0-15.44-1.78-21.38-5.35-5.94-3.56-10.54-8.46-13.81-14.7-3.12-6.39-4.75-13.51-4.75-21.83s1.63-15.59,4.9-21.83c3.27-6.24,7.72-11.14,13.66-14.7,5.94-3.56,13.07-5.35,21.23-5.35,7.13,0,13.22,1.34,18.56,3.86,5.35,2.67,9.5,6.24,12.62,10.84,3.12,4.6,4.75,10.1,5.05,16.33h-21.09c-.59-4.01-2.23-7.28-4.75-9.8-2.52-2.38-5.94-3.71-9.95-3.71-5.2,0-9.5,2.08-12.62,6.39-3.12,4.16-4.75,10.1-4.75,17.67s1.63,13.81,4.75,17.97c3.12,4.31,7.28,6.39,12.62,6.39,3.86,0,7.13-1.19,9.65-3.56,2.67-2.23,4.31-5.64,5.05-9.95h21.09c-.3,6.24-1.93,11.58-4.9,16.33-3.12,4.75-7.28,8.46-12.47,10.99-5.35,2.67-11.58,4.01-18.71,4.01Z"/>
    <path class="cls-2" d="M920.65,306.89v-80.93h21.83v14.11h.89c1.48-5.05,3.86-8.91,7.42-11.43,3.42-2.67,7.42-3.86,12.03-3.86,2.52,0,4.75.3,6.98.74v19.9c-1.04-.3-2.52-.59-4.31-.89-1.93-.15-3.56-.3-5.2-.3-4.9,0-9.06,1.63-12.32,4.75-3.12,3.12-4.75,7.13-4.75,12.03v45.88h-22.57Z"/>
    <path class="cls-2" d="M981.35,306.89v-80.93h22.57v80.93h-22.57ZM992.63,215.42c-3.27,0-6.09-1.04-8.46-3.27-2.38-2.23-3.56-4.9-3.56-8.02s1.19-5.94,3.56-8.02c2.38-2.23,5.2-3.42,8.46-3.42s6.24,1.19,8.61,3.42c2.38,2.08,3.56,4.75,3.56,8.02s-1.19,5.79-3.56,8.02c-2.38,2.23-5.2,3.27-8.61,3.27Z"/>
    <path class="cls-2" d="M1021.74,337.33v-111.37h22.27v13.51h.89c1.04-2.23,2.52-4.45,4.31-6.68,1.93-2.23,4.45-4.16,7.42-5.64,3.12-1.48,6.83-2.38,11.29-2.38,5.94,0,11.43,1.63,16.48,4.75,4.9,2.97,8.91,7.57,11.88,13.81,2.97,6.09,4.45,13.81,4.45,23.16s-1.34,16.63-4.31,22.87c-2.97,6.24-6.83,10.84-11.88,14.11-4.9,3.12-10.39,4.75-16.63,4.75-4.31,0-8.02-.74-11.14-2.23-2.97-1.34-5.49-3.27-7.42-5.35-1.93-2.23-3.42-4.45-4.45-6.68h-.59v43.36h-22.57ZM1043.72,266.36c0,7.28,1.48,13.07,4.45,17.37,2.97,4.45,7.28,6.53,12.62,6.53s9.8-2.08,12.62-6.53c2.97-4.45,4.45-10.25,4.45-17.37s-1.48-12.62-4.31-17.08c-2.97-4.31-7.13-6.53-12.77-6.53s-9.65,2.08-12.62,6.39c-2.97,4.31-4.45,10.1-4.45,17.22Z"/>
    <path class="cls-2" d="M1158.71,225.97v16.78h-15.15v39.2c0,3.12.74,5.2,2.08,6.39,1.48,1.04,3.27,1.63,5.49,1.63,1.04,0,2.08-.15,3.12-.3,1.04-.3,1.93-.45,2.52-.45l3.42,16.63c-1.04.45-2.67.74-4.75,1.34-1.93.45-4.45.74-7.42.74-8.17.45-14.7-1.34-19.6-5.2-4.9-3.86-7.42-9.8-7.28-17.82v-42.17h-11.14v-16.78h11.14v-19.45h22.42v19.45h15.15Z"/>
  </g>
  <g>
    <path class="cls-2" d="M1184.67,220.34c-6.76,0-12.26-5.5-12.26-12.26s5.5-12.26,12.26-12.26,12.26,5.5,12.26,12.26-5.5,12.26-12.26,12.26ZM1184.67,192.75c-8.45,0-15.33,6.88-15.33,15.33s6.88,15.33,15.33,15.33,15.33-6.88,15.33-15.33-6.88-15.33-15.33-15.33Z"/>
    <path class="cls-2" d="M1185.14,209.3h-3.41v-7.16h3.41c5.43,0,5.43,7.16,0,7.16ZM1184.83,200.1h-5.68v15.94h2.55v-4.71h4.32l2.7,4.71h2.7l-3.08-5.51c4.72-2.12,4.72-10.43-3.51-10.43Z"/>
  </g>
</svg>