<?xml version="1.0" encoding="UTF-8" standalone="no"?>
<svg
   xmlns:dc="http://purl.org/dc/elements/1.1/"
   xmlns:cc="http://creativecommons.org/ns#"
   xmlns:rdf="http://www.w3.org/1999/02/22-rdf-syntax-ns#"
   xmlns:svg="http://www.w3.org/2000/svg"
   xmlns="http://www.w3.org/2000/svg"
   id="svg19712"
   version="1.1"
   viewBox="0 0 123.19915 132.29167"
   height="132.29167mm"
   width="123.19915mm">
  <defs
     id="defs19706">
    <clipPath
       id="clipPath3540"
       clipPathUnits="userSpaceOnUse">
      <path
         id="path3538"
         d="m 279.859,551.653 c 0,-11.841 3.399,-22.882 9.259,-32.225 v 0 c 11.752,-4.517 22.916,-6.392 33.547,-6.248 v 0 c -7.957,8.784 -12.806,20.437 -12.806,33.224 v 0 c 0,22.52 15.045,41.515 35.628,47.515 v 0 c -9.833,4.766 -16.411,10.54 -20.781,16.366 v 0 C 298.869,603.294 279.859,579.7 279.859,551.653 m 42.806,-38.473 c 10e-4,-10e-4 10e-4,0 10e-4,-10e-4 v 0 10e-4 c 0,0 -10e-4,0 -10e-4,0" />
    </clipPath>
    <linearGradient
       id="linearGradient3552"
       spreadMethod="pad"
       gradientTransform="matrix(-49.5,-136,-136,49.5,343.67084,654.30933)"
       gradientUnits="userSpaceOnUse"
       y2="0"
       x2="1"
       y1="0"
       x1="0">
      <stop
         id="stop3546"
         offset="0"
         style="stop-opacity:1;stop-color:#000000" />
      <stop
         id="stop3548"
         offset="0.71459707"
         style="stop-opacity:1;stop-color:#ff1d25" />
      <stop
         id="stop3550"
         offset="1"
         style="stop-opacity:1;stop-color:#ff1d25" />
    </linearGradient>
    <clipPath
       id="clipPath3492"
       clipPathUnits="userSpaceOnUse">
      <path
         id="path3490"
         d="M 0,1544 H 3116.844 V 0 H 0 Z" />
    </clipPath>
    <clipPath
       id="clipPath3500"
       clipPathUnits="userSpaceOnUse">
      <path
         id="path3498"
         d="m 426.358,475.903 h 32.018 v -28.816 h -32.018 z" />
    </clipPath>
    <clipPath
       id="clipPath3516"
       clipPathUnits="userSpaceOnUse">
      <path
         id="path3514"
         d="m 437.884,482.986 h 17.285 v -12.17 h -17.285 z" />
    </clipPath>
    <clipPath
       id="clipPath3472"
       clipPathUnits="userSpaceOnUse">
      <path
         id="path3470"
         d="m 398.555,484.185 c -0.01,-0.035 -0.02,-0.071 -0.029,-0.107 v 0 c -8.345,-7.303 -7.757,-16.846 -7.356,-19.701 v 0 c 2.726,-8.395 9.357,-15.372 18.437,-18.152 v 0 c 9.565,-2.928 19.491,-0.479 26.539,5.614 v 0 c -5.853,-2.655 -12.659,-3.275 -19.289,-1.245 v 0 c -14.254,4.363 -22.341,19.317 -18.298,33.591 v 0 z" />
    </clipPath>
    <linearGradient
       id="linearGradient3482"
       spreadMethod="pad"
       gradientTransform="matrix(74.934555,-18.14205,-18.14205,-74.934555,402.23712,465.62592)"
       gradientUnits="userSpaceOnUse"
       y2="0"
       x2="1"
       y1="0"
       x1="0">
      <stop
         id="stop3478"
         offset="0"
         style="stop-opacity:1;stop-color:#2db5f9" />
      <stop
         id="stop3480"
         offset="1"
         style="stop-opacity:1;stop-color:#092432" />
    </linearGradient>
    <clipPath
       id="clipPath3406"
       clipPathUnits="userSpaceOnUse">
      <path
         id="path3404"
         d="M 0,1544 H 3116.844 V 0 H 0 Z" />
    </clipPath>
    <clipPath
       id="clipPath3414"
       clipPathUnits="userSpaceOnUse">
      <path
         id="path3412"
         d="M 398.526,591.582 H 545.858 V 484.072 H 398.526 Z" />
    </clipPath>
    <clipPath
       id="clipPath3418"
       clipPathUnits="userSpaceOnUse">
      <path
         id="path3416"
         d="m 545.859,547.903 c 0,12.353 -3.943,23.779 -10.621,33.115 -6.032,5.853 -15.006,9.94 -25.356,10.564 9.58,-8.284 15.65,-20.518 15.65,-34.176 0,-15.169 -5.507,-32.503 -23.34,-41.837 -25.965,-13.589 -65.811,-7.125 -91.667,-15.512 0.036,0.01 0.072,0.023 0.109,0.033 -5.52,-3.361 -9.879,-8.676 -11.92,-15.342 -0.069,-0.225 -0.126,-0.45 -0.188,-0.676 7.577,6.632 22.517,11.416 51.666,7.664 20.811,-2.678 37.348,-3.411 51.542,0.667 14.189,3.077 25.659,11.243 33.746,22.726 10e-4,10e-4 0.002,0.002 0.004,0.003 l -0.001,0.001 c 6.529,9.271 10.376,20.568 10.376,32.77" />
    </clipPath>
    <mask
       id="mask3430"
       height="1"
       width="1"
       y="0"
       x="0"
       maskUnits="userSpaceOnUse">
      <g
         id="g3440">
        <g
           id="g3438"
           clip-path="url(#clipPath3422)">
          <g
             id="g3436">
            <g
               id="g3434">
              <path
                 id="path3432"
                 style="fill:url(#linearGradient3428);stroke:none"
                 d="M -32768,32767 H 32767 V -32768 H -32768 Z" />
            </g>
          </g>
        </g>
      </g>
    </mask>
    <clipPath
       id="clipPath3422"
       clipPathUnits="userSpaceOnUse">
      <path
         id="path3420"
         d="M -32768,32767 H 32767 V -32768 H -32768 Z" />
    </clipPath>
    <linearGradient
       id="linearGradient3428"
       spreadMethod="pad"
       gradientTransform="matrix(-10.666667,-36,-36,10.666667,499.77637,604.95703)"
       gradientUnits="userSpaceOnUse"
       y2="0"
       x2="1"
       y1="0"
       x1="0">
      <stop
         id="stop3424"
         offset="0"
         style="stop-opacity:1;stop-color:#ffffff" />
      <stop
         id="stop3426"
         offset="1"
         style="stop-opacity:0;stop-color:#ffffff" />
    </linearGradient>
    <linearGradient
       id="linearGradient3446"
       spreadMethod="pad"
       gradientTransform="matrix(-10.666667,-36,-36,10.666667,499.77637,604.95703)"
       gradientUnits="userSpaceOnUse"
       y2="0"
       x2="1"
       y1="0"
       x1="0">
      <stop
         id="stop3442"
         offset="0"
         style="stop-opacity:1;stop-color:#000000" />
      <stop
         id="stop3444"
         offset="1"
         style="stop-opacity:1;stop-color:#000000" />
    </linearGradient>
    <clipPath
       id="clipPath3386"
       clipPathUnits="userSpaceOnUse">
      <path
         id="path3384"
         d="m 525.532,557.406 c 0,-15.169 -5.508,-32.503 -23.34,-41.837 v 0 c -25.965,-13.589 -65.811,-7.125 -91.667,-15.513 v 0 c 0.036,0.011 0.072,0.025 0.109,0.034 v 0 c -5.521,-3.361 -9.878,-8.676 -11.92,-15.342 v 0 c -0.069,-0.225 -0.126,-0.45 -0.188,-0.676 v 0 c 7.577,6.632 22.517,11.417 51.666,7.665 v 0 c 20.811,-2.68 37.348,-3.411 51.542,0.667 v 0 c 14.189,3.077 25.659,11.242 33.746,22.724 v 0 c 10e-4,0.002 0.002,0.003 0.004,0.004 v 0 l -0.001,0.001 c 6.529,9.271 10.376,20.569 10.376,32.77 v 0 c 0,12.352 -3.944,23.779 -10.621,33.114 v 0 c -6.033,5.854 -15.006,9.941 -25.356,10.565 v 0 c 9.58,-8.284 15.65,-20.518 15.65,-34.176" />
    </clipPath>
    <linearGradient
       id="linearGradient3396"
       spreadMethod="pad"
       gradientTransform="matrix(263.5,205.5,205.5,-263.5,304.85098,381.83386)"
       gradientUnits="userSpaceOnUse"
       y2="0"
       x2="1"
       y1="0"
       x1="0">
      <stop
         id="stop3392"
         offset="0"
         style="stop-opacity:1;stop-color:#000000" />
      <stop
         id="stop3394"
         offset="1"
         style="stop-opacity:1;stop-color:#d23de2" />
    </linearGradient>
    <clipPath
       id="clipPath3366"
       clipPathUnits="userSpaceOnUse">
      <path
         id="path3364"
         d="m 410.523,500.062 c -1.878,-0.609 -3.657,-1.289 -5.331,-2.052 v 0 c -6.574,-3.317 -11.845,-9.194 -14.171,-16.792 v 0 c -0.798,-2.606 -1.189,-5.24 -1.224,-7.834 v 0 c 0.031,-5.215 1.329,-8.883 1.375,-9.02 v 0 c -0.401,2.842 -1.002,12.402 7.354,19.714 v 0 c 0.062,0.225 0.119,0.451 0.188,0.676 v 0 c 2.042,6.666 6.399,11.98 11.92,15.342 v 0 c -0.038,-0.01 -0.074,-0.024 -0.111,-0.034" />
    </clipPath>
    <linearGradient
       id="linearGradient3376"
       spreadMethod="pad"
       gradientTransform="matrix(20.836792,0,0,-20.836792,389.79712,482.22974)"
       gradientUnits="userSpaceOnUse"
       y2="0"
       x2="1"
       y1="0"
       x1="0">
      <stop
         id="stop3372"
         offset="0"
         style="stop-opacity:1;stop-color:#c297ff" />
      <stop
         id="stop3374"
         offset="1"
         style="stop-opacity:1;stop-color:#ae31bb" />
    </linearGradient>
    <clipPath
       id="clipPath3346"
       clipPathUnits="userSpaceOnUse">
      <path
         id="path3344"
         d="M 457.313,596.265 C 422.918,575.186 380.79,513.964 322.665,513.18 v 0 h 10e-4 c 9.057,-9.997 22.141,-16.276 36.693,-16.276 v 0 c 3.084,0 9.017,0.545 12.154,1.104 v 0 c 38.25,15.762 75.01,53.459 91.679,71.728 v 0 c 15.465,16.951 32.392,22.708 46.69,21.846 v 0 c -7.92,6.849 -18.235,11.002 -29.527,11.002 v 0 c -8.418,0 -16.295,-2.309 -23.042,-6.319 m -0.077,-0.046 c 0.026,0.016 0.051,0.031 0.077,0.046 v 0 c 0.391,0.239 0.778,0.472 1.167,0.701 v 0 c -0.414,-0.244 -0.828,-0.49 -1.244,-0.747" />
    </clipPath>
    <linearGradient
       id="linearGradient3356"
       spreadMethod="pad"
       gradientTransform="matrix(265.00003,137.5,137.5,-265.00003,341.12039,508.86694)"
       gradientUnits="userSpaceOnUse"
       y2="0"
       x2="1"
       y1="0"
       x1="0">
      <stop
         id="stop3352"
         offset="0"
         style="stop-opacity:1;stop-color:#34e28b" />
      <stop
         id="stop3354"
         offset="1"
         style="stop-opacity:1;stop-color:#000000" />
    </linearGradient>
    <clipPath
       id="clipPath3324"
       clipPathUnits="userSpaceOnUse">
      <path
         id="path3322"
         d="m 468.192,601.569 c -3.568,-1.22 -7.224,-3.062 -10.963,-5.36 v 0 c 6.764,4.038 14.676,6.375 23.126,6.375 v 0 c 11.292,0 21.607,-4.153 29.527,-11.002 v 0 c 10.394,-0.627 19.402,-4.744 25.435,-10.637 v 0 c 0,0 -16.653,24.192 -46.693,24.192 v 0 c -6.243,0 -13.063,-1.044 -20.432,-3.568" />
    </clipPath>
    <linearGradient
       id="linearGradient3336"
       spreadMethod="pad"
       gradientTransform="matrix(8.499999,7,7,-8.499999,502.07114,593.35223)"
       gradientUnits="userSpaceOnUse"
       y2="0"
       x2="1"
       y1="0"
       x1="0">
      <stop
         id="stop3330"
         offset="0"
         style="stop-opacity:1;stop-color:#5bcb99" />
      <stop
         id="stop3332"
         offset="0.00045634"
         style="stop-opacity:1;stop-color:#5bcb99" />
      <stop
         id="stop3334"
         offset="1"
         style="stop-opacity:1;stop-color:#85a8e8" />
    </linearGradient>
    <clipPath
       id="clipPath3304"
       clipPathUnits="userSpaceOnUse">
      <path
         id="path3302"
         d="M 0,1544 H 3116.844 V 0 H 0 Z" />
    </clipPath>
    <clipPath
       id="clipPath3282"
       clipPathUnits="userSpaceOnUse">
      <path
         id="path3280"
         d="m 289.817,518.336 c 3.916,-5.467 8.05,-10.015 12.36,-13.728 v 0 c 10.471,-8.563 23.85,-13.705 38.432,-13.705 v 0 c 0.862,0 1.748,0.026 2.644,0.067 v 0 c 9.325,0.602 18.838,3.154 28.26,7.038 v 0 c -3.137,-0.559 -9.07,-1.104 -12.154,-1.104 v 0 c -14.552,0 -27.636,6.279 -36.693,16.276 v 0 c -10.632,-0.144 -21.796,1.731 -33.548,6.248 v 0 c 0.229,-0.367 0.461,-0.731 0.699,-1.092" />
    </clipPath>
    <linearGradient
       id="linearGradient3294"
       spreadMethod="pad"
       gradientTransform="matrix(0,23.04886,23.04886,0,330.31515,492.23553)"
       gradientUnits="userSpaceOnUse"
       y2="0"
       x2="1"
       y1="0"
       x1="0">
      <stop
         id="stop3288"
         offset="0"
         style="stop-opacity:1;stop-color:#ffdd42" />
      <stop
         id="stop3290"
         offset="0.00045634"
         style="stop-opacity:1;stop-color:#ffdd42" />
      <stop
         id="stop3292"
         offset="1"
         style="stop-opacity:1;stop-color:#fb784b" />
    </linearGradient>
    <clipPath
       id="clipPath3234"
       clipPathUnits="userSpaceOnUse">
      <path
         id="path3232"
         d="M 0,1544 H 3116.844 V 0 H 0 Z" />
    </clipPath>
    <mask
       id="mask3250"
       height="1"
       width="1"
       y="0"
       x="0"
       maskUnits="userSpaceOnUse">
      <g
         id="g3260">
        <g
           id="g3258"
           clip-path="url(#clipPath3240)">
          <g
             id="g3256">
            <g
               id="g3254">
              <path
                 id="path3252"
                 style="fill:url(#linearGradient3248);stroke:none"
                 d="M -32768,32767 H 32767 V -32768 H -32768 Z" />
            </g>
          </g>
        </g>
      </g>
    </mask>
    <clipPath
       id="clipPath3240"
       clipPathUnits="userSpaceOnUse">
      <path
         id="path3238"
         d="M -32768,32767 H 32767 V -32768 H -32768 Z" />
    </clipPath>
    <linearGradient
       id="linearGradient3248"
       spreadMethod="pad"
       gradientTransform="matrix(-0.217389,-0.9506165,-0.9506165,0.217389,322.77524,513.65448)"
       gradientUnits="userSpaceOnUse"
       y2="0"
       x2="1"
       y1="0"
       x1="0">
      <stop
         id="stop3242"
         offset="0"
         style="stop-opacity:0.50000763;stop-color:#ffffff" />
      <stop
         id="stop3244"
         offset="0.71459707"
         style="stop-opacity:1;stop-color:#ffffff" />
      <stop
         id="stop3246"
         offset="1"
         style="stop-opacity:1;stop-color:#ffffff" />
    </linearGradient>
    <linearGradient
       id="linearGradient3272"
       spreadMethod="pad"
       gradientTransform="matrix(-0.217389,0.950617,-0.950617,-0.217389,0.1085,2308.7889)"
       gradientUnits="userSpaceOnUse"
       y2="0"
       x2="1"
       y1="0"
       x1="0">
      <stop
         id="stop3266"
         offset="0"
         style="stop-opacity:1;stop-color:#ff1d25" />
      <stop
         id="stop3268"
         offset="0.71459707"
         style="stop-opacity:1;stop-color:#ff1d25" />
      <stop
         id="stop3270"
         offset="1"
         style="stop-opacity:1;stop-color:#ff1d25" />
    </linearGradient>
  </defs>
  <metadata
     id="metadata19709">
    <rdf:RDF>
      <cc:Work
         rdf:about="">
        <dc:format>image/svg+xml</dc:format>
        <dc:type
           rdf:resource="http://purl.org/dc/dcmitype/StillImage" />
        <dc:title></dc:title>
      </cc:Work>
    </rdf:RDF>
  </metadata>
  <g
     transform="translate(-17.977139,-119.17759)"
     id="layer1">
    <g
       transform="matrix(1.1949926,0,0,1.1949926,-3.5054086,-49.034638)"
       id="g20312">
      <g
         id="g1830"
         transform="matrix(0.35277777,0,0,-0.35277777,81.646541,221.12155)">
        <path
           d="m 0,0 h 3.396 v -70.509 c 0,-8.804 -2.809,-9.534 -5.939,-9.534 -0.483,0 -1.017,0.071 -1.587,0.213 l -0.931,0.231 v -6.028 l 0.588,-0.131 c 0.812,-0.18 1.553,-0.267 2.267,-0.267 7.687,0 11.922,5.191 11.922,14.618 L 9.717,6.12 H 0 Z"
           style="fill:#000000;fill-opacity:1;fill-rule:nonzero;stroke:none"
           id="path1832" />
      </g>
      <g
         id="g1834"
         transform="matrix(0.35277777,0,0,-0.35277777,34.067369,241.47277)">
        <path
           d="M 0,0 H -13.578 V 57.712 H 0 c 11.112,0 29.755,-3.764 29.755,-28.968 C 29.755,3.734 11.112,0 0,0 m -0.112,63.807 -23.439,10e-4 v -6.095 h 3.654 V 0 h -3.63 v -6.096 l 23.415,0.001 c 22.997,0 36.186,12.699 36.186,34.839 0,21.955 -13.527,35.063 -36.186,35.063"
           style="fill:#000000;fill-opacity:1;fill-rule:nonzero;stroke:none"
           id="path1836" />
      </g>
      <g
         id="g1838"
         transform="matrix(0.35277777,0,0,-0.35277777,64.224364,242.02742)">
        <path
           d="m 0,0 c -16.924,0 -28.743,12.513 -28.743,30.429 0,17.915 11.819,30.427 28.743,30.427 16.924,0 28.744,-12.512 28.744,-30.427 C 28.744,12.513 16.924,0 0,0 m 0,66.951 c -20.316,0 -35.063,-15.36 -35.063,-36.522 0,-21.163 14.747,-36.524 35.063,-36.524 20.317,0 35.063,15.361 35.063,36.524 0,21.162 -14.746,36.522 -35.063,36.522"
           style="fill:#000000;fill-opacity:1;fill-rule:nonzero;stroke:none"
           id="path1840" />
      </g>
      <g
         id="g1842"
         transform="matrix(0.35277777,0,0,-0.35277777,103.69448,242.02742)">
        <path
           d="m 0,0 c -16.924,0 -28.743,12.513 -28.743,30.429 0,17.915 11.819,30.427 28.743,30.427 16.924,0 28.744,-12.512 28.744,-30.427 C 28.744,12.513 16.924,0 0,0 m 0,66.951 c -20.316,0 -35.063,-15.36 -35.063,-36.522 0,-21.163 14.747,-36.524 35.063,-36.524 20.317,0 35.063,15.361 35.063,36.524 0,21.162 -14.746,36.522 -35.063,36.522"
           style="fill:#000000;fill-opacity:1;fill-rule:nonzero;stroke:none"
           id="path1844" />
      </g>
      <g
         transform="matrix(0.35277777,0,0,-0.35277777,-71.493618,371.40626)"
         id="g3228">
        <g
           clip-path="url(#clipPath3234)"
           id="g3230">
          <g
             id="g3236" />
          <g
             mask="url(#mask3250)"
             id="g3262">
            <g
               transform="translate(322.6665,513.1797)"
               id="g3264">
              <path
                 id="path3274"
                 style="fill:none;stroke:url(#linearGradient3272);stroke-width:1;stroke-linecap:butt;stroke-linejoin:miter;stroke-miterlimit:10;stroke-dasharray:none;stroke-opacity:1"
                 d="M 0,0 V -0.001" />
            </g>
          </g>
        </g>
      </g>
      <g
         transform="matrix(0.35277777,0,0,-0.35277777,-71.493618,371.40626)"
         id="g3276">
        <g
           clip-path="url(#clipPath3282)"
           id="g3278">
          <g
             id="g3284" />
          <g
             id="g3286">
            <path
               id="path3296"
               style="fill:url(#linearGradient3294);stroke:none"
               d="m 289.817,518.336 c 3.916,-5.467 8.05,-10.015 12.36,-13.728 v 0 c 10.471,-8.563 23.85,-13.705 38.432,-13.705 v 0 c 0.862,0 1.748,0.026 2.644,0.067 v 0 c 9.325,0.602 18.838,3.154 28.26,7.038 v 0 c -3.137,-0.559 -9.07,-1.104 -12.154,-1.104 v 0 c -14.552,0 -27.636,6.279 -36.693,16.276 v 0 c -10.632,-0.144 -21.796,1.731 -33.548,6.248 v 0 c 0.229,-0.367 0.461,-0.731 0.699,-1.092" />
          </g>
        </g>
      </g>
      <g
         transform="matrix(0.35277777,0,0,-0.35277777,-71.493618,371.40626)"
         id="g3298">
        <g
           clip-path="url(#clipPath3304)"
           id="g3300" />
        <g
           transform="translate(340.6089,612.4033)"
           id="g3306">
          <path
             id="path3308"
             style="fill:#f15a24;fill-opacity:1;fill-rule:nonzero;stroke:none"
             d="M 0,0 C 22.053,0 41.359,-11.753 52.004,-29.335 43.217,-21.36 31.551,-16.5 18.75,-16.5 c -4.817,0 -9.469,-0.701 -13.871,-1.984 11.084,-5.373 26.298,-9.466 47.186,-10.897 0,0 -1.034,19.891 -26.474,30.276 -35.529,14.502 -40.56,11.615 -49.56,26.615 0,0 -2.928,-14.971 8.066,-29.628 C -10.833,-0.745 -5.505,0 0,0" />
        </g>
        <g
           transform="translate(366.1997,613.2979)"
           id="g3310">
          <path
             id="path3312"
             style="fill:#ed1c24;fill-opacity:1;fill-rule:nonzero;stroke:none"
             d="m 0,0 c -12.166,4.967 -20.754,7.894 -27.152,10.197 1.432,-3.651 3.55,-7.456 6.579,-11.304 19.941,-1.632 37.158,-12.888 46.986,-29.122 -7.442,6.753 -16.953,11.259 -27.466,12.485 7.125,-4.359 15.912,-8.571 26.742,-12.47 0.265,-0.019 0.519,-0.043 0.786,-0.061 0,0 -1.035,19.89 -26.475,30.275" />
        </g>
        <g
           transform="translate(392.6372,583.0254)"
           id="g3314">
          <path
             id="path3316"
             style="fill:#c1272d;fill-opacity:1;fill-rule:nonzero;stroke:none"
             d="m 0,0 c 0.004,-0.004 0.006,-0.009 0.01,-0.013 0.026,-0.003 0.053,-0.005 0.079,-0.008 0.015,0.001 0.03,0.003 0.045,0.004 0.39,2.165 2.773,19.344 -16.581,34.375 -28.903,22.447 -34.55,24.53 -35.923,36.405 0,0 -7.788,-13.542 -1.22,-30.293 6.399,-2.304 14.986,-5.231 27.153,-10.198 C -0.997,19.888 0.037,-0.003 0.037,-0.003 0.024,-0.002 0.013,-0.001 0,0" />
        </g>
      </g>
      <g
         transform="matrix(0.35277777,0,0,-0.35277777,-71.493618,371.40626)"
         id="g3318">
        <g
           clip-path="url(#clipPath3324)"
           id="g3320">
          <g
             id="g3326" />
          <g
             id="g3328">
            <path
               id="path3338"
               style="fill:url(#linearGradient3336);stroke:none"
               d="m 468.192,601.569 c -3.568,-1.22 -7.224,-3.062 -10.963,-5.36 v 0 c 6.764,4.038 14.676,6.375 23.126,6.375 v 0 c 11.292,0 21.607,-4.153 29.527,-11.002 v 0 c 10.394,-0.627 19.402,-4.744 25.435,-10.637 v 0 c 0,0 -16.653,24.192 -46.693,24.192 v 0 c -6.243,0 -13.063,-1.044 -20.432,-3.568" />
          </g>
        </g>
      </g>
      <g
         transform="matrix(0.35277777,0,0,-0.35277777,-71.493618,371.40626)"
         id="g3340">
        <g
           clip-path="url(#clipPath3346)"
           id="g3342">
          <g
             id="g3348" />
          <g
             id="g3350">
            <path
               id="path3358"
               style="fill:url(#linearGradient3356);stroke:none"
               d="M 457.313,596.265 C 422.918,575.186 380.79,513.964 322.665,513.18 v 0 h 10e-4 c 9.057,-9.997 22.141,-16.276 36.693,-16.276 v 0 c 3.084,0 9.017,0.545 12.154,1.104 v 0 c 38.25,15.762 75.01,53.459 91.679,71.728 v 0 c 15.465,16.951 32.392,22.708 46.69,21.846 v 0 c -7.92,6.849 -18.235,11.002 -29.527,11.002 v 0 c -8.418,0 -16.295,-2.309 -23.042,-6.319 m -0.077,-0.046 c 0.026,0.016 0.051,0.031 0.077,0.046 v 0 c 0.391,0.239 0.778,0.472 1.167,0.701 v 0 c -0.414,-0.244 -0.828,-0.49 -1.244,-0.747" />
          </g>
        </g>
      </g>
      <g
         transform="matrix(0.35277777,0,0,-0.35277777,-71.493618,371.40626)"
         id="g3360">
        <g
           clip-path="url(#clipPath3366)"
           id="g3362">
          <g
             id="g3368" />
          <g
             id="g3370">
            <path
               id="path3378"
               style="fill:url(#linearGradient3376);stroke:none"
               d="m 410.523,500.062 c -1.878,-0.609 -3.657,-1.289 -5.331,-2.052 v 0 c -6.574,-3.317 -11.845,-9.194 -14.171,-16.792 v 0 c -0.798,-2.606 -1.189,-5.24 -1.224,-7.834 v 0 c 0.031,-5.215 1.329,-8.883 1.375,-9.02 v 0 c -0.401,2.842 -1.002,12.402 7.354,19.714 v 0 c 0.062,0.225 0.119,0.451 0.188,0.676 v 0 c 2.042,6.666 6.399,11.98 11.92,15.342 v 0 c -0.038,-0.01 -0.074,-0.024 -0.111,-0.034" />
          </g>
        </g>
      </g>
      <g
         transform="matrix(0.35277777,0,0,-0.35277777,-71.493618,371.40626)"
         id="g3380">
        <g
           clip-path="url(#clipPath3386)"
           id="g3382">
          <g
             id="g3388" />
          <g
             id="g3390">
            <path
               id="path3398"
               style="fill:url(#linearGradient3396);stroke:none"
               d="m 525.532,557.406 c 0,-15.169 -5.508,-32.503 -23.34,-41.837 v 0 c -25.965,-13.589 -65.811,-7.125 -91.667,-15.513 v 0 c 0.036,0.011 0.072,0.025 0.109,0.034 v 0 c -5.521,-3.361 -9.878,-8.676 -11.92,-15.342 v 0 c -0.069,-0.225 -0.126,-0.45 -0.188,-0.676 v 0 c 7.577,6.632 22.517,11.417 51.666,7.665 v 0 c 20.811,-2.68 37.348,-3.411 51.542,0.667 v 0 c 14.189,3.077 25.659,11.242 33.746,22.724 v 0 c 10e-4,0.002 0.002,0.003 0.004,0.004 v 0 l -0.001,0.001 c 6.529,9.271 10.376,20.569 10.376,32.77 v 0 c 0,12.352 -3.944,23.779 -10.621,33.114 v 0 c -6.033,5.854 -15.006,9.941 -25.356,10.565 v 0 c 9.58,-8.284 15.65,-20.518 15.65,-34.176" />
          </g>
        </g>
      </g>
      <g
         transform="matrix(0.35277777,0,0,-0.35277777,-71.493618,371.40626)"
         id="g3400">
        <g
           clip-path="url(#clipPath3406)"
           id="g3402">
          <g
             id="g3408" />
          <g
             id="g3410" />
          <g
             id="g3464">
            <g
               style="opacity:0.49000501"
               id="g3462"
               clip-path="url(#clipPath3414)">
              <g
                 id="g3460">
                <g
                   id="g3458"
                   clip-path="url(#clipPath3418)">
                  <g
                     id="g3456">
                    <g
                       id="g3448" />
                    <g
                       id="g3454"
                       mask="url(#mask3430)">
                      <g
                         id="g3452">
                        <path
                           id="path3450"
                           style="fill:url(#linearGradient3446);stroke:none"
                           d="m 545.859,547.903 c 0,12.353 -3.943,23.779 -10.621,33.115 -6.032,5.853 -15.006,9.94 -25.356,10.564 9.58,-8.284 15.65,-20.518 15.65,-34.176 0,-15.169 -5.507,-32.503 -23.34,-41.837 -25.965,-13.589 -65.811,-7.125 -91.667,-15.512 0.036,0.01 0.072,0.023 0.109,0.033 -5.52,-3.361 -9.879,-8.676 -11.92,-15.342 -0.069,-0.225 -0.126,-0.45 -0.188,-0.676 7.577,6.632 22.517,11.416 51.666,7.664 20.811,-2.678 37.348,-3.411 51.542,0.667 14.189,3.077 25.659,11.243 33.746,22.726 10e-4,10e-4 0.002,0.002 0.004,0.003 l -0.001,0.001 c 6.529,9.271 10.376,20.568 10.376,32.77" />
                      </g>
                    </g>
                  </g>
                </g>
              </g>
            </g>
          </g>
        </g>
      </g>
      <g
         transform="matrix(0.35277777,0,0,-0.35277777,-71.493618,371.40626)"
         id="g3466">
        <g
           clip-path="url(#clipPath3472)"
           id="g3468">
          <g
             id="g3474" />
          <g
             id="g3476">
            <path
               id="path3484"
               style="fill:url(#linearGradient3482);stroke:none"
               d="m 398.555,484.185 c -0.01,-0.035 -0.02,-0.071 -0.029,-0.107 v 0 c -8.345,-7.303 -7.757,-16.846 -7.356,-19.701 v 0 c 2.726,-8.395 9.357,-15.372 18.437,-18.152 v 0 c 9.565,-2.928 19.491,-0.479 26.539,5.614 v 0 c -5.853,-2.655 -12.659,-3.275 -19.289,-1.245 v 0 c -14.254,4.363 -22.341,19.317 -18.298,33.591 v 0 z" />
          </g>
        </g>
      </g>
      <g
         transform="matrix(0.35277777,0,0,-0.35277777,-71.493618,371.40626)"
         id="g3486">
        <g
           clip-path="url(#clipPath3492)"
           id="g3488">
          <g
             id="g3494" />
          <g
             id="g3496" />
          <g
             id="g3508">
            <g
               id="g3506"
               clip-path="url(#clipPath3500)">
              <g
                 id="g3504"
                 transform="translate(426.3589,452.5693)">
                <path
                   id="path3502"
                   style="fill:#2db5f9;fill-opacity:1;fill-rule:nonzero;stroke:none"
                   d="m 0,0 c 2.838,8.258 12,21 21.833,15.167 0,0 8,-4.5 9.667,8.167 0,0 6,-29.792 -22.875,-28.792 0,0 6.5,4.75 6.438,9.625 C 15.062,4.229 8.188,-0.021 0,0" />
              </g>
            </g>
          </g>
          <g
             id="g3510" />
          <g
             id="g3512" />
          <g
             id="g3524">
            <g
               id="g3522"
               clip-path="url(#clipPath3516)">
              <g
                 id="g3520"
                 transform="translate(437.8833,470.8164)">
                <path
                   id="path3518"
                   style="fill:#5fd2ff;fill-opacity:1;fill-rule:nonzero;stroke:none"
                   d="m 0,0 c 2.858,1.454 5.559,2.92 10.809,0.587 4.073,-1.811 9.203,5.264 4.766,11.583 0,0 0.286,-6.524 -4.971,-6.469 C 5.448,5.755 2.357,3.436 0,0" />
              </g>
            </g>
          </g>
        </g>
        <g
           transform="translate(466.8882,565.6025)"
           id="g3526">
          <path
             id="path3528"
             style="fill:#219058;fill-opacity:1;fill-rule:nonzero;stroke:none"
             d="m 0,0 c -6.909,-9.422 -17.049,-17.312 -18.235,-19.248 -1.188,-1.937 2.005,-8.177 6.749,-8.627 4.744,-0.45 1.092,1.814 0.694,4.005 -0.398,2.191 1.413,-1.403 7.054,-0.559 5.64,0.845 -2.042,2.936 -1.521,5.792 0.522,2.857 6.344,8.258 8.657,13.703 2.315,5.447 6.29,0.015 4.259,-4.25 -0.803,-1.684 6.438,4.737 2.785,9.64 C 6.789,5.359 4.029,5.493 0,0" />
        </g>
        <g
           transform="translate(447.1675,544.998)"
           id="g3530">
          <path
             id="path3532"
             style="fill:#219058;fill-opacity:1;fill-rule:nonzero;stroke:none"
             d="m 0,0 c -1.018,-0.97 -4.016,-3.167 -4.016,-3.167 0,0 2.933,-4.084 6.711,-3.999 0,0 0.813,0.386 -0.355,1.582 C 1.172,-4.388 -0.268,-0.72 0,0" />
        </g>
      </g>
      <g
         transform="matrix(0.35277777,0,0,-0.35277777,-71.493618,371.40626)"
         id="g3534">
        <g
           clip-path="url(#clipPath3540)"
           id="g3536">
          <g
             id="g3542" />
          <g
             id="g3544">
            <path
               id="path3554"
               style="fill:url(#linearGradient3552);stroke:none"
               d="m 279.859,551.653 c 0,-11.841 3.399,-22.882 9.259,-32.225 v 0 c 11.752,-4.517 22.916,-6.392 33.547,-6.248 v 0 c -7.957,8.784 -12.806,20.437 -12.806,33.224 v 0 c 0,22.52 15.045,41.515 35.628,47.515 v 0 c -9.833,4.766 -16.411,10.54 -20.781,16.366 v 0 C 298.869,603.294 279.859,579.7 279.859,551.653 m 42.806,-38.473 c 10e-4,-10e-4 10e-4,0 10e-4,-10e-4 v 0 10e-4 c 0,0 -10e-4,0 -10e-4,0" />
          </g>
        </g>
      </g>
      <g
         id="g3564"
         transform="matrix(0.35277777,0,0,-0.35277777,42.33595,190.36787)">
        <path
           d="M 0,0 V -0.001"
           style="fill:none;stroke:#ffffff;stroke-width:2.5;stroke-linecap:butt;stroke-linejoin:miter;stroke-miterlimit:10;stroke-dasharray:none;stroke-opacity:1"
           id="path3566" />
      </g>
      <g
         id="g3568"
         transform="matrix(0.35277777,0,0,-0.35277777,50.428145,155.4384)">
        <path
           d="M 0,0 C 2.7,-3.892 10.447,-10.613 19.566,-16.642 30.069,-17.871 39.571,-22.376 47.008,-29.124 37.176,-12.884 19.951,-1.626 0,0"
           style="fill:#f7b852;fill-opacity:1;fill-rule:nonzero;stroke:none"
           id="path3570" />
      </g>
      <g
         id="g3572"
         transform="matrix(0.35277777,0,0,-0.35277777,50.428145,155.4384)">
        <path
           d="m 0,0 c -1.648,0.134 -3.313,0.211 -4.996,0.211 -5.505,0 -10.833,-0.745 -15.903,-2.118 4.37,-5.826 10.948,-11.6 20.782,-16.366 4.402,1.283 9.054,1.984 13.871,1.984 1.968,0 3.904,-0.129 5.812,-0.353 C 10.447,-10.613 2.7,-3.892 0,0"
           style="fill:#ff8431;fill-opacity:1;fill-rule:nonzero;stroke:none"
           id="path3574" />
      </g>
      <g
         id="g3576"
         transform="matrix(0.35277777,0,0,-0.35277777,62.320951,160.31771)">
        <path
           d="M 0,0 C 0.319,0 -7.417,7 -16.333,9.75 -12.393,2.298 -9.017,0 0,0"
           style="fill:#fffb69;fill-opacity:1;fill-rule:nonzero;stroke:none"
           id="path3578" />
      </g>
      <g
         id="g3580"
         transform="matrix(0.35277777,0,0,-0.35277777,56.261358,149.12425)">
        <path
           d="m 0,0 c 3.875,-2.25 7.344,-5.073 8.75,-6.125 0.7,-0.524 -1.25,4.75 -3.5,5.75 C 3,0.625 0,0 0,0"
           style="fill:#c1272d;fill-opacity:1;fill-rule:nonzero;stroke:none"
           id="path3582" />
      </g>
      <g
         id="g3584"
         transform="matrix(0.35277777,0,0,-0.35277777,60.067513,151.8207)">
        <path
           d="M 0,0 C 3.853,-2.288 7.773,-5.555 8.689,-6.212 9.4,-6.721 7.486,-1.449 5.246,-0.427 3.007,0.595 0,0 0,0"
           style="fill:#c1272d;fill-opacity:1;fill-rule:nonzero;stroke:none"
           id="path3586" />
      </g>
      <g
         id="g3588"
         transform="matrix(0.35277777,0,0,-0.35277777,63.653853,154.45862)">
        <path
           d="M 0,0 C 3.17,-3.046 4.139,-5.046 4.703,-5.868 5.052,-6.376 4.797,-2.411 3.474,-1.291 2.15,-0.171 0,0 0,0"
           style="fill:#c1272d;fill-opacity:1;fill-rule:nonzero;stroke:none"
           id="path3590" />
      </g>
      <g
         id="g3592"
         transform="matrix(0.35277777,0,0,-0.35277777,47.136691,188.42244)">
        <path
           d="M 0,0 C -0.273,0.873 3.137,1.975 4.045,2.026 4.953,2.077 8.34,0.803 8.813,0.439 7.771,-0.083 3.854,-1 2.271,-0.937 1.187,-0.821 0,0 0,0"
           style="fill:#44c688;fill-opacity:1;fill-rule:nonzero;stroke:none"
           id="path3594" />
      </g>
      <g
         id="g3596"
         transform="matrix(0.35277777,0,0,-0.35277777,51.468555,187.39961)">
        <path
           d="M 0,0 C -0.291,0.676 2.344,1.841 3.066,1.958 3.789,2.075 6.604,1.338 7.013,1.087 6.224,0.582 3.167,-0.479 1.895,-0.561 1.018,-0.558 0,0 0,0"
           style="fill:#44c688;fill-opacity:1;fill-rule:nonzero;stroke:none"
           id="path3598" />
      </g>
      <g
         id="g3600"
         transform="matrix(0.35277777,0,0,-0.35277777,55.094511,186.06805)">
        <path
           d="M 0,0 C -0.3,0.53 1.764,1.723 2.348,1.883 2.931,2.043 5.312,1.687 5.67,1.518 5.065,1.032 2.646,-0.111 1.607,-0.292 0.886,-0.368 0,0 0,0"
           style="fill:#44c688;fill-opacity:1;fill-rule:nonzero;stroke:none"
           id="path3602" />
      </g>
      <g
         id="g3604"
         transform="matrix(0.35277777,0,0,-0.35277777,57.97667,184.75857)">
        <path
           d="M 0,0 C -0.311,0.462 1.487,1.696 2.008,1.885 2.529,2.072 4.726,1.916 5.065,1.787 4.548,1.301 2.423,0.086 1.488,-0.152 0.835,-0.273 0,0 0,0"
           style="fill:#44c688;fill-opacity:1;fill-rule:nonzero;stroke:none"
           id="path3606" />
      </g>
      <g
         id="g3608"
         transform="matrix(0.35277777,0,0,-0.35277777,60.669036,183.28651)">
        <path
           d="M 0,0 C -0.293,0.386 1.209,1.547 1.652,1.735 2.096,1.925 4.012,1.897 4.313,1.802 3.888,1.354 2.101,0.193 1.3,-0.06 0.739,-0.196 0,0 0,0"
           style="fill:#44c688;fill-opacity:1;fill-rule:nonzero;stroke:none"
           id="path3610" />
      </g>
      <g
         id="g3612"
         transform="matrix(0.35277777,0,0,-0.35277777,42.796219,188.76902)">
        <path
           d="M 0,0 C -0.142,0.97 3.652,1.557 4.622,1.457 5.592,1.358 8.958,-0.564 9.397,-1.029 8.206,-1.405 3.907,-1.711 2.243,-1.377 1.116,-1.07 0,0 0,0"
           style="fill:#44c688;fill-opacity:1;fill-rule:nonzero;stroke:none"
           id="path3614" />
      </g>
      <g
         id="g3616"
         transform="matrix(0.35277777,0,0,-0.35277777,43.616499,148.2571)">
        <path
           d="m 0,0 c 2.656,-3.031 8.938,-5 8.938,-5 0,0 -1.501,3.489 -1.251,10.125 C 7.696,5.364 0,5.25 -1.312,11.563 -1.575,12.824 -2.656,3.031 0,0"
           style="fill:#c1272d;fill-opacity:1;fill-rule:nonzero;stroke:none"
           id="path3618" />
      </g>
      <g
         id="g3620"
         transform="matrix(0.35277777,0,0,-0.35277777,34.397074,199.6159)">
        <path
           d="M 0,0 C 0.328,2.205 1.321,4.064 3.001,5.195 3.081,5.249 3.168,5.287 3.25,5.337 2.633,5.497 1.991,5.57 1.339,5.668 -7.821,7.035 -10.145,1.579 -10.628,-4.547 c -0.028,-0.352 -0.035,-0.702 -0.03,-1.049 2.066,3.64 6.099,5.961 10.547,5.611 C -0.073,0.012 -0.037,0.004 0,0"
           style="fill:#f15a24;fill-opacity:1;fill-rule:nonzero;stroke:none"
           id="path3622" />
      </g>
      <g
         id="g3624"
         transform="matrix(0.35277777,0,0,-0.35277777,38.331357,198.91137)">
        <path
           d="m 0,0 c -9.102,5.527 -14.221,5.93 -16.249,-9.552 0,0 9.586,7.577 14.107,2.568 C 2.775,-12.433 9.472,-7.41 5.954,-4.236 2.437,-1.062 0,0 0,0"
           style="fill:#f15a24;fill-opacity:1;fill-rule:nonzero;stroke:none"
           id="path3626" />
      </g>
      <g
         id="g3628"
         transform="matrix(0.35277777,0,0,-0.35277777,37.000185,199.54492)">
        <path
           d="m 0,0 c -5.166,-3.441 -5.158,-11.532 -5.158,-11.532 0,0 9.424,5.1 8.688,8.275 C 2.794,-0.081 0,0 0,0"
           style="fill:#f15a24;fill-opacity:1;fill-rule:nonzero;stroke:none"
           id="path3630" />
      </g>
      <g
         id="g3632"
         transform="matrix(0.35277777,0,0,-0.35277777,21.869336,177.10322)">
        <path
           d="M 0,0 C 1.926,1.123 3.997,1.511 5.931,0.907 6.022,0.879 6.106,0.835 6.197,0.803 5.935,1.384 5.592,1.93 5.259,2.5 0.597,10.503 -5.113,8.902 -10.195,5.449 -10.488,5.25 -10.766,5.037 -11.033,4.816 -6.9,5.48 -2.566,3.786 -0.059,0.096 -0.038,0.064 -0.021,0.031 0,0"
           style="fill:#f15a24;fill-opacity:1;fill-rule:nonzero;stroke:none"
           id="path3634" />
      </g>
      <g
         id="g3636"
         transform="matrix(0.35277777,0,0,-0.35277777,25.315444,180.46015)">
        <path
           d="m 0,0 c -3.311,13.139 -5.979,18.212 -18.686,9.139 0,0 10.875,3.125 12.118,-12.336 C -5.98,-10.512 1.04,-11.98 0.963,-7.244 0.886,-2.507 0,0 0,0"
           style="fill:#f15a24;fill-opacity:1;fill-rule:nonzero;stroke:none"
           id="path3638" />
      </g>
      <g
         id="g3640"
         transform="matrix(0.35277777,0,0,-0.35277777,23.680073,177.97828)">
        <path
           d="m 0,0 c -6.04,1.432 -11.952,-4.092 -11.952,-4.092 0,0 9.277,0.321 10.402,-5.304 C -0.911,-12.593 0,0 0,0"
           style="fill:#f15a24;fill-opacity:1;fill-rule:nonzero;stroke:none"
           id="path3642" />
      </g>
      <g
         id="g3644"
         transform="matrix(0.35277777,0,0,-0.35277777,91.910186,170.41596)">
        <path
           d="m 0,0 c 5.896,6.628 12.749,12.551 20.709,16.715 7.543,3.974 18.27,6.472 24.742,6.161 10e-4,0 2.479,-2.133 2.479,-2.133 l -1.299,0.105 C 37.949,21.506 29.095,19.632 21.156,15.82 13.18,12.023 6.141,6.404 0,0"
           style="fill:#29b36e;fill-opacity:1;fill-rule:nonzero;stroke:none"
           id="path3646" />
      </g>
      <g
         id="g3648"
         transform="matrix(0.35277777,0,0,-0.35277777,108.26715,162.3727)">
        <path
           d="m 0,0 c 4.828,-0.469 9.567,-1.661 13.974,-3.583 4.396,-1.922 8.486,-4.58 11.785,-8.009 -3.531,3.188 -7.738,5.507 -12.154,7.079 -3.894,1.383 -8.179,1.962 -12.051,2.456 -0.006,10e-4 -2.465,2.129 -2.465,2.129 z"
           style="fill:#6fd191;fill-opacity:1;fill-rule:nonzero;stroke:none"
           id="path3650" />
      </g>
      <g
         id="g3652"
         transform="matrix(0.35277777,0,0,-0.35277777,69.300379,199.98727)">
        <path
           d="m 0,0 c 1.251,0.889 2.719,1.799 4.154,2.546 1.018,0.5 2.037,0.995 3.095,1.389 1.038,0.45 2.116,0.771 3.183,1.128 4.294,1.344 8.731,2.049 13.164,2.421 C 32.479,8.18 41.363,7.582 50.128,6.438 58.867,5.264 67.618,4.194 76.427,3.912 85.214,3.634 94.105,4.159 102.633,6.491 94.151,3.997 85.236,3.298 76.415,3.411 67.576,3.525 58.768,4.434 50.006,5.442 41.271,6.417 32.444,6.837 23.734,5.989 19.391,5.543 15.072,4.769 10.967,3.396 9.948,3.033 8.917,2.705 7.937,2.257 6.933,1.862 5.978,1.374 5.023,0.885 3.145,-0.141 1.356,-1.319 -0.229,-2.72 l -0.709,-0.625 c 0,0 0.377,1.885 0.938,3.345"
           style="fill:#c83ad7;fill-opacity:1;fill-rule:nonzero;stroke:none"
           id="path3654" />
      </g>
      <g
         id="g3656"
         transform="matrix(0.35277777,0,0,-0.35277777,50.965918,163.27221)">
        <path
           d="m 0,0 c -8.5,-1.875 -7.187,-8.625 -7.187,-8.625 0,0 2.687,3.25 17.5,5 0,0 -6.365,1.688 -10.313,3.625"
           style="fill:#c1272d;fill-opacity:1;fill-rule:nonzero;stroke:none"
           id="path3658" />
      </g>
      <g
         id="g3660"
         transform="matrix(0.35277777,0,0,-0.35277777,66.502955,207.58886)">
        <path
           d="m 0,0 c -0.316,1.861 -0.287,3.774 -0.113,5.666 0.19,1.894 0.594,3.775 1.218,5.595 0.623,1.82 1.466,3.573 2.5,5.222 1.045,1.646 2.33,3.13 3.72,4.516 l 0.61,0.564 c 0,0 -0.839,-2.694 -0.942,-3.362 C 6.311,17.543 5.479,16.463 4.834,15.623 3.734,14.17 2.787,12.586 2.037,10.899 1.286,9.213 0.731,7.427 0.382,5.594 0.048,3.762 -0.15,1.879 0,0"
           style="fill:#fba9ff;fill-opacity:1;fill-rule:nonzero;stroke:none"
           id="path3662" />
      </g>
      <g
         id="g3664"
         transform="matrix(0.35277777,0,0,-0.35277777,41.639003,190.36858)">
        <path
           d="m 0,0 c -4.832,5.309 -8.898,13.762 -10.626,21.669 -0.883,4.172 -1.316,8.444 -1.098,12.689 l 0.185,3.18 0.443,3.153 c 0.108,1.056 0.409,2.08 0.625,3.117 0.227,1.035 0.453,2.069 0.804,3.071 1.154,4.077 2.949,7.95 5.124,11.557 1.042,1.836 2.331,3.512 3.579,5.204 l 2.047,2.403 c 0.677,0.805 1.467,1.507 2.194,2.264 3.022,2.911 6.338,5.534 9.99,7.593 3.643,2.066 7.519,3.687 11.53,4.841 C 20.821,79.467 17.011,77.734 13.459,75.578 9.898,73.428 6.698,70.733 3.81,67.778 3.115,67.011 2.36,66.3 1.718,65.488 l -1.939,-2.42 c -1.175,-1.698 -2.387,-3.373 -3.351,-5.2 -2.02,-3.589 -3.653,-7.408 -4.652,-11.396 -0.311,-0.98 -0.5,-1.99 -0.688,-2.998 -0.179,-1.011 -0.442,-2.005 -0.515,-3.032 l -0.337,-3.054 -0.085,-3.072 c -0.09,-4.092 0.453,-8.178 1.414,-12.135 1.98,-7.91 5.997,-15.257 11.523,-21.172 L 3.974,0.06 C 3.974,0.06 0.738,-0.054 0,0"
           style="fill:#ff737d;fill-opacity:1;fill-rule:nonzero;stroke:none"
           id="path3666" />
      </g>
      <g
         id="g3668"
         transform="matrix(0.35277777,0,0,-0.35277777,59.56798,195.72018)">
        <path
           d="m 0,0 c -4.344,-0.964 -8.795,-1.482 -13.281,-1.509 -4.51,0.055 -8.965,0.925 -13.282,2.188 -4.316,1.291 -8.505,3.031 -12.47,5.237 -3.955,2.215 -7.646,4.899 -10.864,8.25 l -0.926,0.989 c 0,0 3.184,0.046 3.972,0.077 2.613,-2.819 5.67,-5.259 8.982,-7.352 3.688,-2.32 7.66,-4.231 11.791,-5.712 4.134,-1.455 8.441,-2.539 12.827,-2.828 C -8.85,-0.895 -4.394,-0.687 0,0"
           style="fill:#fdc666;fill-opacity:1;fill-rule:nonzero;stroke:none"
           id="path3670" />
      </g>
    </g>
  </g>
</svg>
