<?xml version="1.0" encoding="UTF-8" standalone="no"?>
<svg
   xmlns:dc="http://purl.org/dc/elements/1.1/"
   xmlns:cc="http://creativecommons.org/ns#"
   xmlns:rdf="http://www.w3.org/1999/02/22-rdf-syntax-ns#"
   xmlns:svg="http://www.w3.org/2000/svg"
   xmlns="http://www.w3.org/2000/svg"
   width="122.17511mm"
   height="87.290482mm"
   viewBox="0 0 122.17511 87.290477"
   version="1.1"
   id="svg19712">
  <defs
     id="defs19706">
    <clipPath
       clipPathUnits="userSpaceOnUse"
       id="clipPath3540">
      <path
         d="m 279.859,551.653 c 0,-11.841 3.399,-22.882 9.259,-32.225 v 0 c 11.752,-4.517 22.916,-6.392 33.547,-6.248 v 0 c -7.957,8.784 -12.806,20.437 -12.806,33.224 v 0 c 0,22.52 15.045,41.515 35.628,47.515 v 0 c -9.833,4.766 -16.411,10.54 -20.781,16.366 v 0 C 298.869,603.294 279.859,579.7 279.859,551.653 m 42.806,-38.473 c 10e-4,-10e-4 10e-4,0 10e-4,-10e-4 v 0 10e-4 c 0,0 -10e-4,0 -10e-4,0"
         id="path3538" />
    </clipPath>
    <linearGradient
       x1="0"
       y1="0"
       x2="1"
       y2="0"
       gradientUnits="userSpaceOnUse"
       gradientTransform="matrix(-49.5,-136,-136,49.5,343.67084,654.30933)"
       spreadMethod="pad"
       id="linearGradient3552">
      <stop
         style="stop-opacity:1;stop-color:#000000"
         offset="0"
         id="stop3546" />
      <stop
         style="stop-opacity:1;stop-color:#ff1d25"
         offset="0.71459707"
         id="stop3548" />
      <stop
         style="stop-opacity:1;stop-color:#ff1d25"
         offset="1"
         id="stop3550" />
    </linearGradient>
    <clipPath
       clipPathUnits="userSpaceOnUse"
       id="clipPath3492">
      <path
         d="M 0,1544 H 3116.844 V 0 H 0 Z"
         id="path3490" />
    </clipPath>
    <clipPath
       clipPathUnits="userSpaceOnUse"
       id="clipPath3500">
      <path
         d="m 426.358,475.903 h 32.018 v -28.816 h -32.018 z"
         id="path3498" />
    </clipPath>
    <clipPath
       clipPathUnits="userSpaceOnUse"
       id="clipPath3516">
      <path
         d="m 437.884,482.986 h 17.285 v -12.17 h -17.285 z"
         id="path3514" />
    </clipPath>
    <clipPath
       clipPathUnits="userSpaceOnUse"
       id="clipPath3472">
      <path
         d="m 398.555,484.185 c -0.01,-0.035 -0.02,-0.071 -0.029,-0.107 v 0 c -8.345,-7.303 -7.757,-16.846 -7.356,-19.701 v 0 c 2.726,-8.395 9.357,-15.372 18.437,-18.152 v 0 c 9.565,-2.928 19.491,-0.479 26.539,5.614 v 0 c -5.853,-2.655 -12.659,-3.275 -19.289,-1.245 v 0 c -14.254,4.363 -22.341,19.317 -18.298,33.591 v 0 z"
         id="path3470" />
    </clipPath>
    <linearGradient
       x1="0"
       y1="0"
       x2="1"
       y2="0"
       gradientUnits="userSpaceOnUse"
       gradientTransform="matrix(74.934555,-18.14205,-18.14205,-74.934555,402.23712,465.62592)"
       spreadMethod="pad"
       id="linearGradient3482">
      <stop
         style="stop-opacity:1;stop-color:#2db5f9"
         offset="0"
         id="stop3478" />
      <stop
         style="stop-opacity:1;stop-color:#092432"
         offset="1"
         id="stop3480" />
    </linearGradient>
    <clipPath
       clipPathUnits="userSpaceOnUse"
       id="clipPath3406">
      <path
         d="M 0,1544 H 3116.844 V 0 H 0 Z"
         id="path3404" />
    </clipPath>
    <clipPath
       clipPathUnits="userSpaceOnUse"
       id="clipPath3414">
      <path
         d="M 398.526,591.582 H 545.858 V 484.072 H 398.526 Z"
         id="path3412" />
    </clipPath>
    <clipPath
       clipPathUnits="userSpaceOnUse"
       id="clipPath3418">
      <path
         d="m 545.859,547.903 c 0,12.353 -3.943,23.779 -10.621,33.115 -6.032,5.853 -15.006,9.94 -25.356,10.564 9.58,-8.284 15.65,-20.518 15.65,-34.176 0,-15.169 -5.507,-32.503 -23.34,-41.837 -25.965,-13.589 -65.811,-7.125 -91.667,-15.512 0.036,0.01 0.072,0.023 0.109,0.033 -5.52,-3.361 -9.879,-8.676 -11.92,-15.342 -0.069,-0.225 -0.126,-0.45 -0.188,-0.676 7.577,6.632 22.517,11.416 51.666,7.664 20.811,-2.678 37.348,-3.411 51.542,0.667 14.189,3.077 25.659,11.243 33.746,22.726 10e-4,10e-4 0.002,0.002 0.004,0.003 l -0.001,0.001 c 6.529,9.271 10.376,20.568 10.376,32.77"
         id="path3416" />
    </clipPath>
    <mask
       maskUnits="userSpaceOnUse"
       x="0"
       y="0"
       width="1"
       height="1"
       id="mask3430">
      <g
         id="g3440">
        <g
           clip-path="url(#clipPath3422)"
           id="g3438">
          <g
             id="g3436">
            <g
               id="g3434">
              <path
                 d="M -32768,32767 H 32767 V -32768 H -32768 Z"
                 style="fill:url(#linearGradient3428);stroke:none"
                 id="path3432" />
            </g>
          </g>
        </g>
      </g>
    </mask>
    <clipPath
       clipPathUnits="userSpaceOnUse"
       id="clipPath3422">
      <path
         d="M -32768,32767 H 32767 V -32768 H -32768 Z"
         id="path3420" />
    </clipPath>
    <linearGradient
       x1="0"
       y1="0"
       x2="1"
       y2="0"
       gradientUnits="userSpaceOnUse"
       gradientTransform="matrix(-10.666667,-36,-36,10.666667,499.77637,604.95703)"
       spreadMethod="pad"
       id="linearGradient3428">
      <stop
         style="stop-opacity:1;stop-color:#ffffff"
         offset="0"
         id="stop3424" />
      <stop
         style="stop-opacity:0;stop-color:#ffffff"
         offset="1"
         id="stop3426" />
    </linearGradient>
    <linearGradient
       x1="0"
       y1="0"
       x2="1"
       y2="0"
       gradientUnits="userSpaceOnUse"
       gradientTransform="matrix(-10.666667,-36,-36,10.666667,499.77637,604.95703)"
       spreadMethod="pad"
       id="linearGradient3446">
      <stop
         style="stop-opacity:1;stop-color:#000000"
         offset="0"
         id="stop3442" />
      <stop
         style="stop-opacity:1;stop-color:#000000"
         offset="1"
         id="stop3444" />
    </linearGradient>
    <clipPath
       clipPathUnits="userSpaceOnUse"
       id="clipPath3386">
      <path
         d="m 525.532,557.406 c 0,-15.169 -5.508,-32.503 -23.34,-41.837 v 0 c -25.965,-13.589 -65.811,-7.125 -91.667,-15.513 v 0 c 0.036,0.011 0.072,0.025 0.109,0.034 v 0 c -5.521,-3.361 -9.878,-8.676 -11.92,-15.342 v 0 c -0.069,-0.225 -0.126,-0.45 -0.188,-0.676 v 0 c 7.577,6.632 22.517,11.417 51.666,7.665 v 0 c 20.811,-2.68 37.348,-3.411 51.542,0.667 v 0 c 14.189,3.077 25.659,11.242 33.746,22.724 v 0 c 10e-4,0.002 0.002,0.003 0.004,0.004 v 0 l -0.001,0.001 c 6.529,9.271 10.376,20.569 10.376,32.77 v 0 c 0,12.352 -3.944,23.779 -10.621,33.114 v 0 c -6.033,5.854 -15.006,9.941 -25.356,10.565 v 0 c 9.58,-8.284 15.65,-20.518 15.65,-34.176"
         id="path3384" />
    </clipPath>
    <linearGradient
       x1="0"
       y1="0"
       x2="1"
       y2="0"
       gradientUnits="userSpaceOnUse"
       gradientTransform="matrix(263.5,205.5,205.5,-263.5,304.85098,381.83386)"
       spreadMethod="pad"
       id="linearGradient3396">
      <stop
         style="stop-opacity:1;stop-color:#000000"
         offset="0"
         id="stop3392" />
      <stop
         style="stop-opacity:1;stop-color:#d23de2"
         offset="1"
         id="stop3394" />
    </linearGradient>
    <clipPath
       clipPathUnits="userSpaceOnUse"
       id="clipPath3366">
      <path
         d="m 410.523,500.062 c -1.878,-0.609 -3.657,-1.289 -5.331,-2.052 v 0 c -6.574,-3.317 -11.845,-9.194 -14.171,-16.792 v 0 c -0.798,-2.606 -1.189,-5.24 -1.224,-7.834 v 0 c 0.031,-5.215 1.329,-8.883 1.375,-9.02 v 0 c -0.401,2.842 -1.002,12.402 7.354,19.714 v 0 c 0.062,0.225 0.119,0.451 0.188,0.676 v 0 c 2.042,6.666 6.399,11.98 11.92,15.342 v 0 c -0.038,-0.01 -0.074,-0.024 -0.111,-0.034"
         id="path3364" />
    </clipPath>
    <linearGradient
       x1="0"
       y1="0"
       x2="1"
       y2="0"
       gradientUnits="userSpaceOnUse"
       gradientTransform="matrix(20.836792,0,0,-20.836792,389.79712,482.22974)"
       spreadMethod="pad"
       id="linearGradient3376">
      <stop
         style="stop-opacity:1;stop-color:#c297ff"
         offset="0"
         id="stop3372" />
      <stop
         style="stop-opacity:1;stop-color:#ae31bb"
         offset="1"
         id="stop3374" />
    </linearGradient>
    <clipPath
       clipPathUnits="userSpaceOnUse"
       id="clipPath3346">
      <path
         d="M 457.313,596.265 C 422.918,575.186 380.79,513.964 322.665,513.18 v 0 h 10e-4 c 9.057,-9.997 22.141,-16.276 36.693,-16.276 v 0 c 3.084,0 9.017,0.545 12.154,1.104 v 0 c 38.25,15.762 75.01,53.459 91.679,71.728 v 0 c 15.465,16.951 32.392,22.708 46.69,21.846 v 0 c -7.92,6.849 -18.235,11.002 -29.527,11.002 v 0 c -8.418,0 -16.295,-2.309 -23.042,-6.319 m -0.077,-0.046 c 0.026,0.016 0.051,0.031 0.077,0.046 v 0 c 0.391,0.239 0.778,0.472 1.167,0.701 v 0 c -0.414,-0.244 -0.828,-0.49 -1.244,-0.747"
         id="path3344" />
    </clipPath>
    <linearGradient
       x1="0"
       y1="0"
       x2="1"
       y2="0"
       gradientUnits="userSpaceOnUse"
       gradientTransform="matrix(265.00003,137.5,137.5,-265.00003,341.12039,508.86694)"
       spreadMethod="pad"
       id="linearGradient3356">
      <stop
         style="stop-opacity:1;stop-color:#34e28b"
         offset="0"
         id="stop3352" />
      <stop
         style="stop-opacity:1;stop-color:#000000"
         offset="1"
         id="stop3354" />
    </linearGradient>
    <clipPath
       clipPathUnits="userSpaceOnUse"
       id="clipPath3324">
      <path
         d="m 468.192,601.569 c -3.568,-1.22 -7.224,-3.062 -10.963,-5.36 v 0 c 6.764,4.038 14.676,6.375 23.126,6.375 v 0 c 11.292,0 21.607,-4.153 29.527,-11.002 v 0 c 10.394,-0.627 19.402,-4.744 25.435,-10.637 v 0 c 0,0 -16.653,24.192 -46.693,24.192 v 0 c -6.243,0 -13.063,-1.044 -20.432,-3.568"
         id="path3322" />
    </clipPath>
    <linearGradient
       x1="0"
       y1="0"
       x2="1"
       y2="0"
       gradientUnits="userSpaceOnUse"
       gradientTransform="matrix(8.499999,7,7,-8.499999,502.07114,593.35223)"
       spreadMethod="pad"
       id="linearGradient3336">
      <stop
         style="stop-opacity:1;stop-color:#5bcb99"
         offset="0"
         id="stop3330" />
      <stop
         style="stop-opacity:1;stop-color:#5bcb99"
         offset="0.00045634"
         id="stop3332" />
      <stop
         style="stop-opacity:1;stop-color:#85a8e8"
         offset="1"
         id="stop3334" />
    </linearGradient>
    <clipPath
       clipPathUnits="userSpaceOnUse"
       id="clipPath3304">
      <path
         d="M 0,1544 H 3116.844 V 0 H 0 Z"
         id="path3302" />
    </clipPath>
    <clipPath
       clipPathUnits="userSpaceOnUse"
       id="clipPath3282">
      <path
         d="m 289.817,518.336 c 3.916,-5.467 8.05,-10.015 12.36,-13.728 v 0 c 10.471,-8.563 23.85,-13.705 38.432,-13.705 v 0 c 0.862,0 1.748,0.026 2.644,0.067 v 0 c 9.325,0.602 18.838,3.154 28.26,7.038 v 0 c -3.137,-0.559 -9.07,-1.104 -12.154,-1.104 v 0 c -14.552,0 -27.636,6.279 -36.693,16.276 v 0 c -10.632,-0.144 -21.796,1.731 -33.548,6.248 v 0 c 0.229,-0.367 0.461,-0.731 0.699,-1.092"
         id="path3280" />
    </clipPath>
    <linearGradient
       x1="0"
       y1="0"
       x2="1"
       y2="0"
       gradientUnits="userSpaceOnUse"
       gradientTransform="matrix(0,23.04886,23.04886,0,330.31515,492.23553)"
       spreadMethod="pad"
       id="linearGradient3294">
      <stop
         style="stop-opacity:1;stop-color:#ffdd42"
         offset="0"
         id="stop3288" />
      <stop
         style="stop-opacity:1;stop-color:#ffdd42"
         offset="0.00045634"
         id="stop3290" />
      <stop
         style="stop-opacity:1;stop-color:#fb784b"
         offset="1"
         id="stop3292" />
    </linearGradient>
    <clipPath
       clipPathUnits="userSpaceOnUse"
       id="clipPath3234">
      <path
         d="M 0,1544 H 3116.844 V 0 H 0 Z"
         id="path3232" />
    </clipPath>
    <mask
       maskUnits="userSpaceOnUse"
       x="0"
       y="0"
       width="1"
       height="1"
       id="mask3250">
      <g
         id="g3260">
        <g
           clip-path="url(#clipPath3240)"
           id="g3258">
          <g
             id="g3256">
            <g
               id="g3254">
              <path
                 d="M -32768,32767 H 32767 V -32768 H -32768 Z"
                 style="fill:url(#linearGradient3248);stroke:none"
                 id="path3252" />
            </g>
          </g>
        </g>
      </g>
    </mask>
    <clipPath
       clipPathUnits="userSpaceOnUse"
       id="clipPath3240">
      <path
         d="M -32768,32767 H 32767 V -32768 H -32768 Z"
         id="path3238" />
    </clipPath>
    <linearGradient
       x1="0"
       y1="0"
       x2="1"
       y2="0"
       gradientUnits="userSpaceOnUse"
       gradientTransform="matrix(-0.217389,-0.9506165,-0.9506165,0.217389,322.77524,513.65448)"
       spreadMethod="pad"
       id="linearGradient3248">
      <stop
         style="stop-opacity:0.50000763;stop-color:#ffffff"
         offset="0"
         id="stop3242" />
      <stop
         style="stop-opacity:1;stop-color:#ffffff"
         offset="0.71459707"
         id="stop3244" />
      <stop
         style="stop-opacity:1;stop-color:#ffffff"
         offset="1"
         id="stop3246" />
    </linearGradient>
    <linearGradient
       x1="0"
       y1="0"
       x2="1"
       y2="0"
       gradientUnits="userSpaceOnUse"
       gradientTransform="matrix(-0.217389,0.950617,-0.950617,-0.217389,0.1085,2308.7889)"
       spreadMethod="pad"
       id="linearGradient3272">
      <stop
         style="stop-opacity:1;stop-color:#ff1d25"
         offset="0"
         id="stop3266" />
      <stop
         style="stop-opacity:1;stop-color:#ff1d25"
         offset="0.71459707"
         id="stop3268" />
      <stop
         style="stop-opacity:1;stop-color:#ff1d25"
         offset="1"
         id="stop3270" />
    </linearGradient>
  </defs>
  <metadata
     id="metadata19709">
    <rdf:RDF>
      <cc:Work
         rdf:about="">
        <dc:format>image/svg+xml</dc:format>
        <dc:type
           rdf:resource="http://purl.org/dc/dcmitype/StillImage" />
        <dc:title></dc:title>
      </cc:Work>
    </rdf:RDF>
  </metadata>
  <g
     transform="matrix(0.41806345,0,0,-0.41806345,81.344533,77.781502)"
     id="g4740">
    <path
       id="path4742"
       style="fill:#000000;fill-opacity:1;fill-rule:nonzero;stroke:none"
       d="m 0,0 c -9.834,5.833 -18.995,-6.909 -21.834,-15.167 8.188,-0.021 15.063,4.229 15.063,4.167 0.062,-4.875 -6.438,-9.625 -6.438,-9.625 28.875,-1 22.875,28.791 22.875,28.791 C 8,-4.5 0,0 0,0" />
  </g>
  <g
     transform="matrix(0.41806345,0,0,-0.41806345,81.467815,73.83193)"
     id="g4744">
    <path
       id="path4746"
       style="fill:#000000;fill-opacity:1;fill-rule:nonzero;stroke:none"
       d="m 0,0 c -5.154,0.054 -8.246,-2.266 -10.604,-5.701 2.859,1.455 5.559,2.92 10.809,0.587 C 4.279,-6.925 9.408,0.149 4.972,6.469 4.972,6.469 5.258,-0.055 0,0" />
  </g>
  <g
     transform="matrix(0.41806345,0,0,-0.41806345,93.526352,36.676948)"
     id="g4748">
    <path
       id="path4750"
       style="fill:#000000;fill-opacity:1;fill-rule:nonzero;stroke:none"
       d="m 0,0 c -3.653,4.904 -6.413,5.038 -10.441,-0.456 -6.911,-9.422 -17.05,-17.312 -18.237,-19.248 -1.187,-1.936 2.005,-8.177 6.749,-8.626 4.744,-0.45 1.093,1.814 0.695,4.005 -0.399,2.19 1.413,-1.404 7.052,-0.559 5.641,0.845 -2.041,2.936 -1.519,5.792 0.521,2.856 6.344,8.258 8.657,13.703 2.315,5.446 6.29,0.015 4.259,-4.25 C -3.588,-11.324 3.652,-4.903 0,0" />
  </g>
  <g
     transform="matrix(0.41806345,0,0,-0.41806345,79.237493,46.805225)"
     id="g4752">
    <path
       id="path4754"
       style="fill:#000000;fill-opacity:1;fill-rule:nonzero;stroke:none"
       d="m 0,0 c 0,0 2.933,-4.084 6.711,-3.999 0,0 0.813,0.385 -0.356,1.582 C 5.187,-1.221 3.748,2.447 4.017,3.166 2.998,2.196 0,0 0,0" />
  </g>
  <g
     transform="matrix(0.41806345,0,0,-0.41806345,47.563885,10.064218)"
     id="g4756">
    <path
       id="path4758"
       style="fill:#000000;fill-opacity:1;fill-rule:nonzero;stroke:none"
       d="M 0,0 C -2.25,1 -5.25,0.375 -5.25,0.375 -1.375,-1.875 2.094,-4.697 3.5,-5.75 4.201,-6.274 2.25,-1 0,0" />
  </g>
  <g
     transform="matrix(0.41806345,0,0,-0.41806345,52.073578,13.281342)"
     id="g4760">
    <path
       id="path4762"
       style="fill:#000000;fill-opacity:1;fill-rule:nonzero;stroke:none"
       d="M 0,0 C -2.24,1.022 -5.246,0.427 -5.246,0.427 -1.395,-1.861 2.525,-5.127 3.442,-5.784 4.153,-6.294 2.239,-1.022 0,0" />
  </g>
  <g
     transform="matrix(0.41806345,0,0,-0.41806345,55.582176,16.768306)"
     id="g4764">
    <path
       id="path4766"
       style="fill:#000000;fill-opacity:1;fill-rule:nonzero;stroke:none"
       d="M 0,0 C -1.323,1.12 -3.474,1.291 -3.474,1.291 -0.305,-1.755 0.664,-3.755 1.229,-4.578 1.578,-5.086 1.323,-1.121 0,0" />
  </g>
  <g
     transform="matrix(0.41806345,0,0,-0.41806345,45.101188,52.851614)"
     id="g4768">
    <path
       id="path4770"
       style="fill:#000000;fill-opacity:1;fill-rule:nonzero;stroke:none"
       d="M 0,0 C 0,0 0.887,-0.368 1.608,-0.292 2.646,-0.112 5.066,1.031 5.67,1.517 5.312,1.687 2.932,2.043 2.348,1.883 1.765,1.722 -0.299,0.529 0,0" />
  </g>
  <g
     transform="matrix(0.41806345,0,0,-0.41806345,48.517132,51.299773)"
     id="g4772">
    <path
       id="path4774"
       style="fill:#000000;fill-opacity:1;fill-rule:nonzero;stroke:none"
       d="M 0,0 C 0,0 0.835,-0.273 1.487,-0.153 2.422,0.086 4.548,1.301 5.065,1.786 4.726,1.916 2.529,2.072 2.008,1.884 1.487,1.696 -0.312,0.462 0,0" />
  </g>
  <g
     transform="matrix(0.41806345,0,0,-0.41806345,51.707762,49.555696)"
     id="g4776">
    <path
       id="path4778"
       style="fill:#000000;fill-opacity:1;fill-rule:nonzero;stroke:none"
       d="M 0,0 C 0,0 0.738,-0.196 1.3,-0.059 2.101,0.194 3.888,1.354 4.312,1.802 4.012,1.897 2.096,1.925 1.652,1.736 1.208,1.548 -0.293,0.387 0,0" />
  </g>
  <g
     transform="matrix(0.41806345,0,0,-0.41806345,35.671087,55.641686)"
     id="g4780">
    <path
       id="path4782"
       style="fill:#000000;fill-opacity:1;fill-rule:nonzero;stroke:none"
       d="M 0,0 C 0,0 1.187,-0.821 2.271,-0.937 3.854,-1 7.771,-0.083 8.813,0.439 8.339,0.802 4.953,2.077 4.045,2.025 3.137,1.974 -0.273,0.873 0,0" />
  </g>
  <g
     transform="matrix(0.41806345,0,0,-0.41806345,41.596636,54.663888)"
     id="g4784">
    <path
       id="path4786"
       style="fill:#000000;fill-opacity:1;fill-rule:nonzero;stroke:none"
       d="M 0,0 C 1.271,0.082 4.328,1.142 5.118,1.647 4.709,1.897 1.895,2.636 1.172,2.519 0.449,2.401 -2.187,1.236 -1.895,0.561 -1.895,0.561 -0.877,0.002 0,0" />
  </g>
  <g
     transform="matrix(0.41806345,0,0,-0.41806345,30.526963,56.052809)"
     id="g4788">
    <path
       id="path4790"
       style="fill:#000000;fill-opacity:1;fill-rule:nonzero;stroke:none"
       d="M 0,0 C 0,0 1.116,-1.069 2.244,-1.376 3.908,-1.711 8.207,-1.404 9.398,-1.028 8.959,-0.564 5.593,1.358 4.623,1.458 3.652,1.558 -0.141,0.97 0,0" />
  </g>
  <g
     transform="matrix(0.41806345,0,0,-0.41806345,33.579161,9.7767898)"
     id="g4792">
    <path
       id="path4794"
       style="fill:#000000;fill-opacity:1;fill-rule:nonzero;stroke:none"
       d="m 0,0 c 0,0 -1.08,3.636 -0.83,10.271 0.01,0.24 -7.688,0.125 -9,6.438 C -10.092,17.97 -11.174,8.178 -8.518,5.146 -5.861,2.115 0,0 0,0" />
  </g>
  <g
     transform="matrix(0.41806345,0,0,-0.41806345,24.121249,68.907854)"
     id="g4796">
    <path
       id="path4798"
       style="fill:#000000;fill-opacity:1;fill-rule:nonzero;stroke:none"
       d="m 0,0 c -3.432,2.083 -6.295,3.437 -8.643,3.488 -0.384,0.066 -0.774,0.123 -1.17,0.182 -9.161,1.367 -11.484,-4.089 -11.967,-10.214 -0.029,-0.352 -0.035,-0.702 -0.031,-1.05 1.515,2.668 4.087,4.622 7.103,5.34 -0.634,-1.888 -1.146,-4.289 -1.541,-7.298 0,0 4.907,3.878 9.356,4.249 -2.035,-3.677 -2.039,-8.025 -2.039,-8.025 0,0 5.212,2.822 7.58,5.574 4.805,-4.149 10.638,0.511 7.306,3.518 C 2.438,-1.062 0,0 0,0" />
  </g>
  <g
     transform="matrix(0.41806345,0,0,-0.41806345,7.148885,42.623754)"
     id="g4800">
    <path
       id="path4802"
       style="fill:#000000;fill-opacity:1;fill-rule:nonzero;stroke:none"
       d="M 0,0 C -0.242,0.488 -0.523,0.961 -0.808,1.447 -5.47,9.449 -11.18,7.85 -16.262,4.396 -16.555,4.197 -16.832,3.984 -17.1,3.763 c 2.746,0.441 5.569,-0.18 7.898,-1.714 -1.661,-0.755 -3.567,-1.898 -5.782,-3.48 0,0 4.966,1.42 8.57,-2.428 -3.693,-1.171 -6.472,-3.766 -6.472,-3.766 0,0 7.24,0.242 9.698,-3.585 0.138,-0.791 0.249,-1.639 0.322,-2.556 0.589,-7.314 7.608,-8.783 7.531,-4.046 -0.077,4.737 -0.963,7.244 -0.963,7.244 C 2.543,-5.968 1.461,-2.361 0,0" />
  </g>
  <g
     transform="matrix(0.41806345,0,0,-0.41806345,38.257856,26.952081)"
     id="g4804">
    <path
       id="path4806"
       style="fill:#000000;fill-opacity:1;fill-rule:nonzero;stroke:none"
       d="m 0,0 c -8.5,-1.875 -7.187,-8.625 -7.187,-8.625 0,0 2.687,3.25 17.5,5 0,0 -6.366,1.688 -10.313,3.625" />
  </g>
  <g
     transform="matrix(0.41806345,0,0,-0.41806345,122.1751,44.267026)"
     id="g4808">
    <path
       id="path4810"
       style="fill:#000000;fill-opacity:1;fill-rule:nonzero;stroke:none"
       d="M 0,0 C 0,1.968 -0.101,3.911 -0.297,5.827 -2.8,19.226 -12.41,29.009 -26.865,32.859 c 4.14,-6.813 6.539,-14.797 6.539,-23.355 0,-15.169 -5.507,-32.504 -23.34,-41.837 -25.934,-13.572 -65.714,-7.143 -91.573,-15.484 0.005,0.003 0.01,0.006 0.014,0.01 -0.037,-0.01 -0.073,-0.023 -0.11,-0.034 -1.878,-0.608 -3.657,-1.29 -5.331,-2.051 -6.574,-3.318 -11.844,-9.194 -14.17,-16.792 -0.799,-2.607 -1.189,-5.24 -1.225,-7.835 0.008,-1.377 0.106,-2.643 0.245,-3.768 0.566,7.154 3.005,11.827 8.825,16.08 0.098,0.087 0.208,0.181 0.333,0.284 0.356,0.276 0.859,0.63 1.57,1.051 0.014,0.008 0.017,0.003 0.027,0.008 0.166,0.104 0.338,0.204 0.506,0.306 0.076,0.047 0.142,0.094 0.218,0.142 l 10e-4,-0.01 c 0.574,0.344 1.153,0.679 1.734,0.982 1.018,0.5 2.037,0.994 3.094,1.388 1.038,0.45 2.117,0.772 3.183,1.129 4.294,1.344 8.731,2.049 13.164,2.421 8.883,0.694 17.767,0.098 26.532,-1.046 8.738,-1.175 17.49,-2.245 26.299,-2.526 8.787,-0.278 17.679,0.246 26.205,2.578 14.19,3.077 25.66,11.244 33.748,22.727 0,0.001 0.002,0.002 0.002,0.002 C -3.846,-23.498 0,-12.201 0,0" />
  </g>
  <g
     transform="matrix(0.41806345,0,0,-0.41806345,68.244516,84.948574)"
     id="g4812">
    <path
       id="path4814"
       style="fill:#000000;fill-opacity:1;fill-rule:nonzero;stroke:none"
       d="m 0,0 c -11.649,3.566 -19.126,14.212 -19.279,25.772 -2.885,-4.443 -7.737,-12.722 0.048,-22.759 3.192,-3.337 7.25,-5.932 11.981,-7.381 C 2.315,-7.297 12.241,-4.847 19.289,1.245 13.436,-1.41 6.63,-2.029 0,0" />
  </g>
  <g
     transform="matrix(0.41806345,0,0,-0.41806345,58.584141,60.305707)"
     id="g4816">
    <path
       id="path4818"
       style="fill:#000000;fill-opacity:1;fill-rule:nonzero;stroke:none"
       d="m 0,0 c 0.821,0.507 1.645,1.013 2.461,1.532 0.165,0.105 0.326,0.214 0.49,0.32 10.146,6.502 19.861,13.972 28.746,21.543 0.42,0.358 0.83,0.716 1.246,1.074 0.579,0.498 1.161,0.996 1.734,1.494 0.373,0.325 0.737,0.65 1.107,0.976 0.603,0.53 1.209,1.06 1.803,1.589 0.84,0.749 1.667,1.496 2.488,2.243 0.116,0.104 0.237,0.21 0.352,0.316 1.759,1.6 3.469,3.189 5.137,4.763 0.107,0.1 0.216,0.201 0.322,0.301 6.572,6.213 12.392,12.134 17.252,17.266 0.813,0.859 1.6,1.696 2.358,2.507 0.353,0.378 0.699,0.75 1.039,1.116 1.023,1.103 2,2.164 2.907,3.158 l 0.001,10e-4 c 6.141,6.405 13.18,12.023 21.156,15.82 7.939,3.81 16.793,5.685 25.474,5.027 l 0.1,-0.009 c 0.273,-0.017 0.547,-0.044 0.82,-0.065 l 0.348,-0.029 0.006,-0.005 c 4.991,-0.438 9.864,-1.594 14.418,-3.498 3.216,-1.357 6.266,-3.108 8.937,-5.305 0.279,-0.23 0.551,-0.467 0.82,-0.706 -0.009,0.015 -0.019,0.031 -0.031,0.046 0.025,-0.024 0.052,-0.045 0.076,-0.069 0,0 -4.796,6.962 -13.877,13.416 -1.016,0.754 -2.299,1.594 -3.614,2.391 -0.009,0.006 -0.018,0.012 -0.027,0.016 -0.222,0.134 -0.443,0.266 -0.663,0.397 -11.408,6.778 -27.947,11.595 -48.944,4.405 -3.522,-1.206 -7.131,-3.018 -10.822,-5.275 0.371,0.226 0.742,0.455 1.11,0.672 -0.413,-0.243 -0.828,-0.491 -1.243,-0.746 0.036,0.021 0.076,0.041 0.113,0.062 -0.036,-0.021 -0.07,-0.042 -0.106,-0.064 l 10e-4,10e-4 c -0.006,-0.003 -0.011,-0.006 -0.016,-0.01 0.005,0.003 0.01,0.006 0.014,0.008 C 50.347,78.604 36.071,64.684 20.204,50.518 19.997,50.332 19.788,50.147 19.581,49.962 19.17,49.597 18.759,49.23 18.347,48.865 c -0.344,-0.304 -0.69,-0.61 -1.035,-0.915 -0.286,-0.251 -0.571,-0.503 -0.857,-0.755 -0.412,-0.362 -0.826,-0.724 -1.241,-1.086 -0.229,-0.2 -0.458,-0.401 -0.689,-0.601 -0.454,-0.396 -0.91,-0.79 -1.366,-1.184 C 12.97,44.16 12.78,43.996 12.59,43.832 12.098,43.408 11.604,42.986 11.108,42.563 10.95,42.429 10.793,42.294 10.635,42.159 10.11,41.714 9.584,41.269 9.056,40.824 8.927,40.716 8.798,40.607 8.668,40.498 8.12,40.039 7.57,39.58 7.019,39.123 6.904,39.028 6.79,38.935 6.676,38.84 6.106,38.369 5.536,37.901 4.963,37.435 L 4.676,37.2 C 4.085,36.72 3.492,36.241 2.897,35.766 2.818,35.702 2.739,35.64 2.661,35.576 2.049,35.088 1.435,34.601 0.818,34.117 0.758,34.069 0.696,34.021 0.636,33.974 -0.001,33.475 -0.64,32.979 -1.281,32.485 -1.317,32.457 -1.355,32.428 -1.393,32.399 -2.054,31.892 -2.718,31.387 -3.385,30.885 -3.403,30.87 -3.423,30.856 -3.442,30.842 -18.739,19.346 -35.423,9.7 -53.802,5.667 c 0,0 -0.007,-10e-4 -0.01,-0.002 -0.826,-0.181 -1.656,-0.351 -2.49,-0.509 -0.015,-0.003 -0.032,-0.006 -0.048,-0.01 -0.824,-0.155 -1.651,-0.299 -2.482,-0.432 -0.024,-0.004 -0.048,-0.008 -0.073,-0.012 -0.824,-0.131 -1.653,-0.25 -2.485,-0.358 -0.029,-0.004 -0.058,-0.007 -0.088,-0.011 -0.203,-0.026 -0.409,-0.045 -0.613,-0.069 9.078,-8.346 33.291,-18.993 55.124,-8.348 2.001,1.114 3.995,2.261 5.971,3.463 C -0.663,-0.418 -0.333,-0.206 0,0" />
  </g>
  <g
     transform="matrix(0.41806345,0,0,-0.41806345,51.963335,24.24977)"
     id="g4820">
    <path
       id="path4822"
       style="fill:#000000;fill-opacity:1;fill-rule:nonzero;stroke:none"
       d="M 0,0 C -10.076,0 -13.85,2.567 -18.252,10.895 -5.463,8.313 0.355,0 0,0 m -33.512,-97.647 c -5.56,1.482 -10.953,3.905 -15.746,7.345 -4.79,3.428 -8.952,7.895 -11.996,13.106 l 0.009,0.004 c -2.996,4.827 -5.383,10.674 -6.603,16.255 -0.882,4.172 -1.316,8.444 -1.097,12.69 l 0.185,3.18 0.443,3.152 c 0.108,1.057 0.409,2.08 0.625,3.117 0.226,1.035 0.453,2.069 0.803,3.071 1.155,4.078 2.95,7.951 5.124,11.557 1.042,1.837 2.331,3.513 3.579,5.204 l 2.047,2.404 c 0.678,0.804 1.467,1.506 2.195,2.263 3.021,2.911 6.338,5.534 9.989,7.594 0.701,0.396 1.415,0.764 2.135,1.122 0.034,0.017 0.07,0.028 0.103,0.046 4.547,2.302 9.362,1.558 12.422,0.634 11.712,-4.9 26.035,-8.014 42.666,-9.254 l 1.899,-0.142 c 0,0 0.003,0.216 0.005,0.335 0.333,12.917 -2.297,24.149 -16.998,35.565 -28.902,22.446 -34.55,24.529 -35.923,36.404 0,0 -7.178,-12.392 -2.221,-28.33 -10.614,3.881 -14.583,5.999 -20.12,15.226 l -2.011,3.351 -0.748,-3.835 c -0.071,-0.365 -1.698,-9.071 2.344,-19.904 1.375,-3.168 2.81,-5.919 4.387,-8.411 0.431,-0.682 0.88,-1.348 1.34,-2.003 -0.193,-0.069 -0.337,-0.125 -0.337,-0.125 -24.909,-7.582 -43.043,-30.716 -43.043,-58.105 0,-11.841 3.401,-22.882 9.26,-32.224 0.23,-0.367 0.462,-0.731 0.699,-1.092 3.916,-5.468 8.049,-10.015 12.361,-13.728 10.47,-8.563 23.848,-13.706 38.43,-13.706 0.864,0 1.75,0.027 2.645,0.068 8.469,0.546 17.09,2.713 25.659,6.013 -2.494,-0.37 -5.014,-0.613 -7.55,-0.699 -5.656,-0.192 -11.393,0.366 -16.961,1.852" />
  </g>
</svg>
