<?xml version="1.0" encoding="UTF-8" standalone="no"?>
<svg
   xmlns:dc="http://purl.org/dc/elements/1.1/"
   xmlns:cc="http://creativecommons.org/ns#"
   xmlns:rdf="http://www.w3.org/1999/02/22-rdf-syntax-ns#"
   xmlns:svg="http://www.w3.org/2000/svg"
   xmlns="http://www.w3.org/2000/svg"
   id="svg18652"
   version="1.1"
   viewBox="0 0 132.29167 37.811832"
   height="37.811832mm"
   width="132.29167mm">
  <defs
     id="defs18646">
    <clipPath
       id="clipPath1542"
       clipPathUnits="userSpaceOnUse">
      <path
         id="path1540"
         d="m 233.734,925.154 c 0,-5.318 1.528,-10.276 4.159,-14.471 v 0 c 5.277,-2.029 10.292,-2.871 15.065,-2.806 v 0 h 0.001 c -3.574,3.944 -5.751,9.177 -5.751,14.919 v 0 c 0,10.113 6.756,18.644 16,21.338 v 0 c -4.417,2.141 -7.37,4.733 -9.333,7.35 v 0 c -11.602,-3.14 -20.141,-13.735 -20.141,-26.33" />
    </clipPath>
    <linearGradient
       id="linearGradient1554"
       spreadMethod="pad"
       gradientTransform="matrix(-22.228998,-61.073608,-61.073608,22.228998,262.39148,971.25372)"
       gradientUnits="userSpaceOnUse"
       y2="0"
       x2="1"
       y1="0"
       x1="0">
      <stop
         id="stop1548"
         offset="0"
         style="stop-opacity:1;stop-color:#000000" />
      <stop
         id="stop1550"
         offset="0.71459707"
         style="stop-opacity:1;stop-color:#ff1d25" />
      <stop
         id="stop1552"
         offset="1"
         style="stop-opacity:1;stop-color:#ff1d25" />
    </linearGradient>
    <clipPath
       id="clipPath1494"
       clipPathUnits="userSpaceOnUse">
      <path
         id="path1492"
         d="M 0,1544 H 3116.844 V 0 H 0 Z" />
    </clipPath>
    <clipPath
       id="clipPath1502"
       clipPathUnits="userSpaceOnUse">
      <path
         id="path1500"
         d="m 299.524,891.137 h 14.378 v -12.941 h -14.378 z" />
    </clipPath>
    <clipPath
       id="clipPath1518"
       clipPathUnits="userSpaceOnUse">
      <path
         id="path1516"
         d="m 304.7,894.317 h 7.762 v -5.465 H 304.7 Z" />
    </clipPath>
    <clipPath
       id="clipPath1474"
       clipPathUnits="userSpaceOnUse">
      <path
         id="path1472"
         d="m 287.039,894.856 c -0.006,-0.017 -0.009,-0.032 -0.014,-0.048 v 0 c -3.747,-3.28 -3.484,-7.565 -3.304,-8.847 v 0 c 1.224,-3.769 4.203,-6.903 8.28,-8.151 v 0 c 4.296,-1.316 8.754,-0.216 11.918,2.521 v 0 c -2.629,-1.193 -5.685,-1.472 -8.661,-0.56 v 0 c -6.402,1.959 -10.034,8.674 -8.217,15.085 v 0 z" />
    </clipPath>
    <linearGradient
       id="linearGradient1484"
       spreadMethod="pad"
       gradientTransform="matrix(33.650913,-8.1470633,-8.1470633,-33.650913,288.69186,886.52155)"
       gradientUnits="userSpaceOnUse"
       y2="0"
       x2="1"
       y1="0"
       x1="0">
      <stop
         id="stop1480"
         offset="0"
         style="stop-opacity:1;stop-color:#2db5f9" />
      <stop
         id="stop1482"
         offset="1"
         style="stop-opacity:1;stop-color:#000000" />
    </linearGradient>
    <clipPath
       id="clipPath1408"
       clipPathUnits="userSpaceOnUse">
      <path
         id="path1406"
         d="M 0,1544 H 3116.844 V 0 H 0 Z" />
    </clipPath>
    <clipPath
       id="clipPath1416"
       clipPathUnits="userSpaceOnUse">
      <path
         id="path1414"
         d="m 287.025,943.085 h 66.163 v -48.28 h -66.163 z" />
    </clipPath>
    <clipPath
       id="clipPath1420"
       clipPathUnits="userSpaceOnUse">
      <path
         id="path1418"
         d="m 353.188,923.47 c 0,5.547 -1.771,10.678 -4.77,14.871 -2.709,2.628 -6.738,4.464 -11.385,4.744 4.301,-3.72 7.027,-9.214 7.027,-15.348 0,-6.812 -2.473,-14.596 -10.481,-18.787 -11.661,-6.102 -29.554,-3.2 -41.165,-6.967 0.016,0.005 0.032,0.011 0.048,0.015 -2.478,-1.509 -4.436,-3.895 -5.352,-6.89 -0.031,-0.1 -0.057,-0.202 -0.085,-0.302 3.403,2.977 10.112,5.126 23.202,3.441 9.346,-1.203 16.772,-1.532 23.146,0.299 6.373,1.383 11.523,5.05 15.155,10.206 0,0 10e-4,0.001 10e-4,0.001 2.931,4.164 4.659,9.237 4.659,14.717" />
    </clipPath>
    <mask
       id="mask1432"
       height="1"
       width="1"
       y="0"
       x="0"
       maskUnits="userSpaceOnUse">
      <g
         id="g1442">
        <g
           id="g1440"
           clip-path="url(#clipPath1424)">
          <g
             id="g1438">
            <g
               id="g1436">
              <path
                 id="path1434"
                 style="fill:url(#linearGradient1430);stroke:none"
                 d="M -32768,32767 H 32767 V -32768 H -32768 Z" />
            </g>
          </g>
        </g>
      </g>
    </mask>
    <clipPath
       id="clipPath1424"
       clipPathUnits="userSpaceOnUse">
      <path
         id="path1422"
         d="M -32768,32767 H 32767 V -32768 H -32768 Z" />
    </clipPath>
    <linearGradient
       id="linearGradient1430"
       spreadMethod="pad"
       gradientTransform="matrix(-4.7900872,-16.166544,-16.166544,4.7900872,332.4939,949.09106)"
       gradientUnits="userSpaceOnUse"
       y2="0"
       x2="1"
       y1="0"
       x1="0">
      <stop
         id="stop1426"
         offset="0"
         style="stop-opacity:1;stop-color:#ffffff" />
      <stop
         id="stop1428"
         offset="1"
         style="stop-opacity:0;stop-color:#ffffff" />
    </linearGradient>
    <linearGradient
       id="linearGradient1448"
       spreadMethod="pad"
       gradientTransform="matrix(-4.7900872,-16.166544,-16.166544,4.7900872,332.4939,949.09106)"
       gradientUnits="userSpaceOnUse"
       y2="0"
       x2="1"
       y1="0"
       x1="0">
      <stop
         id="stop1444"
         offset="0"
         style="stop-opacity:1;stop-color:#000000" />
      <stop
         id="stop1446"
         offset="1"
         style="stop-opacity:1;stop-color:#000000" />
    </linearGradient>
    <clipPath
       id="clipPath1388"
       clipPathUnits="userSpaceOnUse">
      <path
         id="path1386"
         d="m 344.06,927.737 c 0,-6.812 -2.472,-14.596 -10.481,-18.787 v 0 c -11.661,-6.102 -29.554,-3.2 -41.165,-6.966 v 0 c 0.016,0.004 0.032,0.01 0.048,0.014 v 0 c -2.478,-1.508 -4.436,-3.895 -5.352,-6.889 v 0 c -0.032,-0.101 -0.057,-0.203 -0.085,-0.304 v 0 c 3.403,2.978 10.112,5.127 23.202,3.442 v 0 c 9.346,-1.203 16.772,-1.532 23.146,0.299 v 0 c 6.372,1.383 11.523,5.05 15.155,10.206 v 0 c 0,0 10e-4,0.001 10e-4,0.001 v 0 c 2.932,4.165 4.659,9.237 4.659,14.716 v 0 c 0,5.548 -1.77,10.68 -4.769,14.872 v 0 c -2.709,2.628 -6.739,4.464 -11.386,4.744 v 0 c 4.302,-3.72 7.027,-9.213 7.027,-15.348" />
    </clipPath>
    <linearGradient
       id="linearGradient1398"
       spreadMethod="pad"
       gradientTransform="matrix(118.33012,92.284027,92.284027,-118.33012,244.95862,848.89301)"
       gradientUnits="userSpaceOnUse"
       y2="0"
       x2="1"
       y1="0"
       x1="0">
      <stop
         id="stop1394"
         offset="0"
         style="stop-opacity:1;stop-color:#000000" />
      <stop
         id="stop1396"
         offset="1"
         style="stop-opacity:1;stop-color:#d23de2" />
    </linearGradient>
    <clipPath
       id="clipPath1368"
       clipPathUnits="userSpaceOnUse">
      <path
         id="path1366"
         d="m 292.413,901.986 c -0.844,-0.273 -1.643,-0.58 -2.394,-0.921 v 0 c -2.953,-1.49 -5.319,-4.13 -6.364,-7.541 v 0 c -0.358,-1.17 -0.533,-2.353 -0.55,-3.519 v 0 c 0.013,-2.342 0.597,-3.988 0.617,-4.049 v 0 c -0.18,1.276 -0.449,5.569 3.303,8.852 v 0 c 0.028,0.102 0.053,0.202 0.085,0.303 v 0 c 0.916,2.994 2.874,5.38 5.352,6.89 v 0 c -0.016,-0.005 -0.033,-0.011 -0.049,-0.015" />
    </clipPath>
    <linearGradient
       id="linearGradient1378"
       spreadMethod="pad"
       gradientTransform="matrix(9.357192,0,0,-9.357192,283.10544,893.97784)"
       gradientUnits="userSpaceOnUse"
       y2="0"
       x2="1"
       y1="0"
       x1="0">
      <stop
         id="stop1374"
         offset="0"
         style="stop-opacity:1;stop-color:#c297ff" />
      <stop
         id="stop1376"
         offset="1"
         style="stop-opacity:1;stop-color:#ae31bb" />
    </linearGradient>
    <clipPath
       id="clipPath1348"
       clipPathUnits="userSpaceOnUse">
      <path
         id="path1346"
         d="m 313.424,945.188 c -15.446,-9.467 -34.363,-36.96 -60.466,-37.311 v 0 c 4.068,-4.489 9.944,-7.31 16.478,-7.31 v 0 c 1.386,0 4.05,0.246 5.458,0.497 v 0 c 17.178,7.078 33.685,24.006 41.171,32.211 v 0 c 6.944,7.611 14.546,10.197 20.968,9.81 v 0 c -3.557,3.076 -8.19,4.941 -13.261,4.941 v 0 c -3.781,0 -7.317,-1.038 -10.348,-2.838 m 0.322,0.195 c 0.068,0.04 0.135,0.08 0.203,0.12 v 0 c -0.068,-0.04 -0.135,-0.08 -0.203,-0.12 m -0.356,-0.216 c 0.011,0.007 0.023,0.014 0.034,0.021 v 0 c 0.108,0.066 0.215,0.131 0.322,0.195 v 0 c -0.118,-0.071 -0.237,-0.142 -0.356,-0.216" />
    </clipPath>
    <linearGradient
       id="linearGradient1358"
       spreadMethod="pad"
       gradientTransform="matrix(119.00374,61.747219,61.747219,-119.00374,261.24615,905.93982)"
       gradientUnits="userSpaceOnUse"
       y2="0"
       x2="1"
       y1="0"
       x1="0">
      <stop
         id="stop1354"
         offset="0"
         style="stop-opacity:1;stop-color:#34e28b" />
      <stop
         id="stop1356"
         offset="1"
         style="stop-opacity:1;stop-color:#000000" />
    </linearGradient>
    <clipPath
       id="clipPath1326"
       clipPathUnits="userSpaceOnUse">
      <path
         id="path1324"
         d="m 318.31,947.57 c -1.602,-0.549 -3.244,-1.376 -4.923,-2.407 v 0 c 3.038,1.813 6.59,2.863 10.385,2.863 v 0 c 5.071,0 9.704,-1.865 13.261,-4.941 v 0 c 4.666,-0.282 8.712,-2.131 11.421,-4.777 v 0 c 0,0 -7.478,10.864 -20.968,10.864 v 0 c -2.803,0 -5.866,-0.469 -9.176,-1.602" />
    </clipPath>
    <linearGradient
       id="linearGradient1338"
       spreadMethod="pad"
       gradientTransform="matrix(3.8171005,3.1434946,3.1434946,-3.8171005,333.52441,943.8797)"
       gradientUnits="userSpaceOnUse"
       y2="0"
       x2="1"
       y1="0"
       x1="0">
      <stop
         id="stop1332"
         offset="0"
         style="stop-opacity:1;stop-color:#5bcb99" />
      <stop
         id="stop1334"
         offset="0.00045634"
         style="stop-opacity:1;stop-color:#5bcb99" />
      <stop
         id="stop1336"
         offset="1"
         style="stop-opacity:1;stop-color:#85a8e8" />
    </linearGradient>
    <clipPath
       id="clipPath1306"
       clipPathUnits="userSpaceOnUse">
      <path
         id="path1304"
         d="M 0,1544 H 3116.844 V 0 H 0 Z" />
    </clipPath>
    <clipPath
       id="clipPath1286"
       clipPathUnits="userSpaceOnUse">
      <path
         id="path1284"
         d="m 238.208,910.193 c 1.757,-2.457 3.614,-4.498 5.551,-6.166 v 0 c 4.701,-3.845 10.71,-6.154 17.257,-6.154 v 0 c 0.388,0 0.785,0.012 1.187,0.029 v 0 c 4.188,0.271 8.46,1.418 12.692,3.162 v 0 c -1.409,-0.251 -4.073,-0.497 -5.459,-0.497 v 0 c -6.534,0 -12.41,2.821 -16.478,7.31 v 0 c -4.773,-0.065 -9.788,0.777 -15.065,2.806 v 0 c 0.104,-0.165 0.208,-0.329 0.315,-0.49" />
    </clipPath>
    <linearGradient
       id="linearGradient1296"
       spreadMethod="pad"
       gradientTransform="matrix(0,10.350568,10.350568,0,256.39383,898.47113)"
       gradientUnits="userSpaceOnUse"
       y2="0"
       x2="1"
       y1="0"
       x1="0">
      <stop
         id="stop1292"
         offset="0"
         style="stop-opacity:1;stop-color:#fffa8f" />
      <stop
         id="stop1294"
         offset="1"
         style="stop-opacity:1;stop-color:#fb784b" />
    </linearGradient>
    <mask
       id="mask1254"
       height="1"
       width="1"
       y="0"
       x="0"
       maskUnits="userSpaceOnUse">
      <g
         id="g1264">
        <g
           id="g1262"
           clip-path="url(#clipPath1244)">
          <g
             id="g1260">
            <g
               id="g1258">
              <path
                 id="path1256"
                 style="fill:url(#linearGradient1252);stroke:none"
                 d="M -32768,32767 H 32767 V -32768 H -32768 Z" />
            </g>
          </g>
        </g>
      </g>
    </mask>
    <clipPath
       id="clipPath1244"
       clipPathUnits="userSpaceOnUse">
      <path
         id="path1242"
         d="M -32768,32767 H 32767 V -32768 H -32768 Z" />
    </clipPath>
    <linearGradient
       id="linearGradient1252"
       spreadMethod="pad"
       gradientTransform="matrix(-0.097623,-0.426894,-0.426894,0.097623,253.00787,908.08978)"
       gradientUnits="userSpaceOnUse"
       y2="0"
       x2="1"
       y1="0"
       x1="0">
      <stop
         id="stop1246"
         offset="0"
         style="stop-opacity:0.50000763;stop-color:#ffffff" />
      <stop
         id="stop1248"
         offset="0.71459707"
         style="stop-opacity:1;stop-color:#ffffff" />
      <stop
         id="stop1250"
         offset="1"
         style="stop-opacity:1;stop-color:#ffffff" />
    </linearGradient>
    <linearGradient
       id="linearGradient1276"
       spreadMethod="pad"
       gradientTransform="matrix(-0.097623,0.426894,-0.426894,-0.097623,-69.6585,1914.3529)"
       gradientUnits="userSpaceOnUse"
       y2="0"
       x2="1"
       y1="0"
       x1="0">
      <stop
         id="stop1270"
         offset="0"
         style="stop-opacity:1;stop-color:#ff1d25" />
      <stop
         id="stop1272"
         offset="0.71459707"
         style="stop-opacity:1;stop-color:#ff1d25" />
      <stop
         id="stop1274"
         offset="1"
         style="stop-opacity:1;stop-color:#ff1d25" />
    </linearGradient>
  </defs>
  <metadata
     id="metadata18649">
    <rdf:RDF>
      <cc:Work
         rdf:about="">
        <dc:format>image/svg+xml</dc:format>
        <dc:type
           rdf:resource="http://purl.org/dc/dcmitype/StillImage" />
        <dc:title></dc:title>
      </cc:Work>
    </rdf:RDF>
  </metadata>
  <g
     transform="translate(42.275502,-127.89653)"
     id="layer1">
    <g
       transform="matrix(1.1431077,0,0,1.1431077,6.0499488,-23.714139)"
       id="g19237">
      <g
         id="g1224"
         transform="matrix(0.35277777,0,0,-0.35277777,49.238614,141.13435)">
        <path
           d="m 0,0 h 2.427 v -50.92 c 0,-6.119 -1.829,-7.349 -4.781,-7.349 -0.411,0 -0.838,0.063 -1.262,0.168 v -3.192 c 0.48,-0.106 0.983,-0.179 1.503,-0.179 5.222,0 7.983,3.427 7.983,9.91 V 0 H 5.871 V 3.302 H 0 Z"
           style="fill:#ffffff;fill-opacity:1;fill-rule:nonzero;stroke:none"
           id="path1226" />
      </g>
      <g
         id="g1228"
         transform="matrix(0.35277777,0,0,-0.35277777,15.050532,156.05508)">
        <path
           d="m 0,0 h -9.854 v 0.001 h -0.385 V 42.312 H 0 c 18.966,0 21.798,-13.305 21.798,-21.236 C 21.798,13.205 18.966,0 0,0 m -0.08,45.595 h -9.788 v 0 h -6.425 v -3.282 h 2.61 V 0.001 h -2.593 v -3.284 h 6.422 9.774 c 16.092,0 25.321,8.878 25.321,24.359 0,15.353 -9.466,24.519 -25.321,24.519"
           style="fill:#ffffff;fill-opacity:1;fill-rule:nonzero;stroke:none"
           id="path1230" />
      </g>
      <g
         id="g1232"
         transform="matrix(0.35277777,0,0,-0.35277777,36.599926,156.45125)">
        <path
           d="m 0,0 c -12.408,0 -21.075,9.162 -21.075,22.279 0,13.118 8.667,22.279 21.075,22.279 12.409,0 21.076,-9.161 21.076,-22.279 C 21.076,9.162 12.409,0 0,0 m 0,47.841 c -14.207,0 -24.519,-10.75 -24.519,-25.562 0,-14.812 10.312,-25.562 24.519,-25.562 14.208,0 24.52,10.75 24.52,25.562 0,14.812 -10.312,25.562 -24.52,25.562"
           style="fill:#ffffff;fill-opacity:1;fill-rule:nonzero;stroke:none"
           id="path1234" />
      </g>
      <g
         id="g1236"
         transform="matrix(0.35277777,0,0,-0.35277777,64.804579,156.45125)">
        <path
           d="m 0,0 c -12.409,0 -21.076,9.162 -21.076,22.279 0,13.118 8.667,22.279 21.076,22.279 12.408,0 21.075,-9.161 21.075,-22.279 C 21.075,9.162 12.408,0 0,0 m 0,47.841 c -14.208,0 -24.52,-10.75 -24.52,-25.562 0,-14.812 10.312,-25.562 24.52,-25.562 14.207,0 24.519,10.75 24.519,25.562 0,14.812 -10.312,25.562 -24.519,25.562"
           style="fill:#ffffff;fill-opacity:1;fill-rule:nonzero;stroke:none"
           id="path1238" />
      </g>
      <g
         transform="matrix(0.35277777,0,0,-0.35277777,-120.57513,475.1846)"
         id="g1266"
         mask="url(#mask1254)">
        <g
           id="g1268"
           transform="translate(252.9585,907.8765)">
          <path
             d="M 0,0 H 0.001"
             style="fill:none;stroke:url(#linearGradient1276);stroke-width:0.449;stroke-linecap:butt;stroke-linejoin:miter;stroke-miterlimit:10;stroke-dasharray:none;stroke-opacity:1"
             id="path1278" />
        </g>
      </g>
      <g
         transform="matrix(0.35277777,0,0,-0.35277777,-120.57513,475.1846)"
         id="g1280">
        <g
           clip-path="url(#clipPath1286)"
           id="g1282">
          <g
             id="g1288" />
          <g
             id="g1290">
            <path
               id="path1298"
               style="fill:url(#linearGradient1296);stroke:none"
               d="m 238.208,910.193 c 1.757,-2.457 3.614,-4.498 5.551,-6.166 v 0 c 4.701,-3.845 10.71,-6.154 17.257,-6.154 v 0 c 0.388,0 0.785,0.012 1.187,0.029 v 0 c 4.188,0.271 8.46,1.418 12.692,3.162 v 0 c -1.409,-0.251 -4.073,-0.497 -5.459,-0.497 v 0 c -6.534,0 -12.41,2.821 -16.478,7.31 v 0 c -4.773,-0.065 -9.788,0.777 -15.065,2.806 v 0 c 0.104,-0.165 0.208,-0.329 0.315,-0.49" />
          </g>
        </g>
      </g>
      <g
         transform="matrix(0.35277777,0,0,-0.35277777,-120.57513,475.1846)"
         id="g1300">
        <g
           clip-path="url(#clipPath1306)"
           id="g1302" />
        <g
           transform="translate(261.0161,952.4346)"
           id="g1308">
          <path
             id="path1310"
             style="fill:#f15a24;fill-opacity:1;fill-rule:nonzero;stroke:none"
             d="m 0,0 c 9.903,0 18.574,-5.277 23.354,-13.173 -3.947,3.581 -9.185,5.763 -14.934,5.763 -2.163,0 -4.252,-0.314 -6.229,-0.89 4.978,-2.413 11.81,-4.251 21.19,-4.893 0,0 -0.464,8.932 -11.889,13.595 -15.954,6.513 -18.214,5.216 -22.256,11.952 0,0 -1.314,-6.723 3.622,-13.305 C -4.864,-0.334 -2.472,0 0,0" />
        </g>
        <g
           transform="translate(272.5083,952.8369)"
           id="g1312">
          <path
             id="path1314"
             style="fill:#ed1c24;fill-opacity:1;fill-rule:nonzero;stroke:none"
             d="m 0,0 c -5.463,2.23 -9.32,3.544 -12.193,4.579 0.643,-1.64 1.594,-3.348 2.955,-5.077 8.955,-0.732 16.686,-5.787 21.099,-13.078 -3.341,3.034 -7.612,5.057 -12.334,5.608 3.2,-1.958 7.146,-3.85 12.009,-5.6 0.119,-0.009 0.234,-0.02 0.353,-0.028 0,0 -0.464,8.932 -11.889,13.596" />
        </g>
        <g
           transform="translate(284.3813,939.2422)"
           id="g1316">
          <path
             id="path1318"
             style="fill:#c1272d;fill-opacity:1;fill-rule:nonzero;stroke:none"
             d="m 0,0 c 0.001,-0.002 0.002,-0.004 0.004,-0.006 0.012,-0.001 0.024,-0.002 0.036,-0.003 0.006,0 0.013,10e-4 0.02,0.002 0.175,0.972 1.246,8.687 -7.447,15.437 -12.979,10.08 -15.515,11.015 -16.132,16.348 0,0 -3.497,-6.082 -0.547,-13.604 2.873,-1.035 6.73,-2.349 12.193,-4.579 C -0.448,8.931 0.016,-0.001 0.016,-0.001 0.011,-0.001 0.005,0 0,0" />
        </g>
      </g>
      <g
         transform="matrix(0.35277777,0,0,-0.35277777,-120.57513,475.1846)"
         id="g1320">
        <g
           clip-path="url(#clipPath1326)"
           id="g1322">
          <g
             id="g1328" />
          <g
             id="g1330">
            <path
               id="path1340"
               style="fill:url(#linearGradient1338);stroke:none"
               d="m 318.31,947.57 c -1.602,-0.549 -3.244,-1.376 -4.923,-2.407 v 0 c 3.038,1.813 6.59,2.863 10.385,2.863 v 0 c 5.071,0 9.704,-1.865 13.261,-4.941 v 0 c 4.666,-0.282 8.712,-2.131 11.421,-4.777 v 0 c 0,0 -7.478,10.864 -20.968,10.864 v 0 c -2.803,0 -5.866,-0.469 -9.176,-1.602" />
          </g>
        </g>
      </g>
      <g
         transform="matrix(0.35277777,0,0,-0.35277777,-120.57513,475.1846)"
         id="g1342">
        <g
           clip-path="url(#clipPath1348)"
           id="g1344">
          <g
             id="g1350" />
          <g
             id="g1352">
            <path
               id="path1360"
               style="fill:url(#linearGradient1358);stroke:none"
               d="m 313.424,945.188 c -15.446,-9.467 -34.363,-36.96 -60.466,-37.311 v 0 c 4.068,-4.489 9.944,-7.31 16.478,-7.31 v 0 c 1.386,0 4.05,0.246 5.458,0.497 v 0 c 17.178,7.078 33.685,24.006 41.171,32.211 v 0 c 6.944,7.611 14.546,10.197 20.968,9.81 v 0 c -3.557,3.076 -8.19,4.941 -13.261,4.941 v 0 c -3.781,0 -7.317,-1.038 -10.348,-2.838 m 0.322,0.195 c 0.068,0.04 0.135,0.08 0.203,0.12 v 0 c -0.068,-0.04 -0.135,-0.08 -0.203,-0.12 m -0.356,-0.216 c 0.011,0.007 0.023,0.014 0.034,0.021 v 0 c 0.108,0.066 0.215,0.131 0.322,0.195 v 0 c -0.118,-0.071 -0.237,-0.142 -0.356,-0.216" />
          </g>
        </g>
      </g>
      <g
         transform="matrix(0.35277777,0,0,-0.35277777,-120.57513,475.1846)"
         id="g1362">
        <g
           clip-path="url(#clipPath1368)"
           id="g1364">
          <g
             id="g1370" />
          <g
             id="g1372">
            <path
               id="path1380"
               style="fill:url(#linearGradient1378);stroke:none"
               d="m 292.413,901.986 c -0.844,-0.273 -1.643,-0.58 -2.394,-0.921 v 0 c -2.953,-1.49 -5.319,-4.13 -6.364,-7.541 v 0 c -0.358,-1.17 -0.533,-2.353 -0.55,-3.519 v 0 c 0.013,-2.342 0.597,-3.988 0.617,-4.049 v 0 c -0.18,1.276 -0.449,5.569 3.303,8.852 v 0 c 0.028,0.102 0.053,0.202 0.085,0.303 v 0 c 0.916,2.994 2.874,5.38 5.352,6.89 v 0 c -0.016,-0.005 -0.033,-0.011 -0.049,-0.015" />
          </g>
        </g>
      </g>
      <g
         transform="matrix(0.35277777,0,0,-0.35277777,-120.57513,475.1846)"
         id="g1382">
        <g
           clip-path="url(#clipPath1388)"
           id="g1384">
          <g
             id="g1390" />
          <g
             id="g1392">
            <path
               id="path1400"
               style="fill:url(#linearGradient1398);stroke:none"
               d="m 344.06,927.737 c 0,-6.812 -2.472,-14.596 -10.481,-18.787 v 0 c -11.661,-6.102 -29.554,-3.2 -41.165,-6.966 v 0 c 0.016,0.004 0.032,0.01 0.048,0.014 v 0 c -2.478,-1.508 -4.436,-3.895 -5.352,-6.889 v 0 c -0.032,-0.101 -0.057,-0.203 -0.085,-0.304 v 0 c 3.403,2.978 10.112,5.127 23.202,3.442 v 0 c 9.346,-1.203 16.772,-1.532 23.146,0.299 v 0 c 6.372,1.383 11.523,5.05 15.155,10.206 v 0 c 0,0 10e-4,0.001 10e-4,0.001 v 0 c 2.932,4.165 4.659,9.237 4.659,14.716 v 0 c 0,5.548 -1.77,10.68 -4.769,14.872 v 0 c -2.709,2.628 -6.739,4.464 -11.386,4.744 v 0 c 4.302,-3.72 7.027,-9.213 7.027,-15.348" />
          </g>
        </g>
      </g>
      <g
         transform="matrix(0.35277777,0,0,-0.35277777,-120.57513,475.1846)"
         id="g1402">
        <g
           clip-path="url(#clipPath1408)"
           id="g1404">
          <g
             id="g1410" />
          <g
             id="g1412" />
          <g
             id="g1466">
            <g
               style="opacity:0.49000501"
               id="g1464"
               clip-path="url(#clipPath1416)">
              <g
                 id="g1462">
                <g
                   id="g1460"
                   clip-path="url(#clipPath1420)">
                  <g
                     id="g1458">
                    <g
                       id="g1450" />
                    <g
                       id="g1456"
                       mask="url(#mask1432)">
                      <g
                         id="g1454">
                        <path
                           id="path1452"
                           style="fill:url(#linearGradient1448);stroke:none"
                           d="m 353.188,923.47 c 0,5.547 -1.771,10.678 -4.77,14.871 -2.709,2.628 -6.738,4.464 -11.385,4.744 4.301,-3.72 7.027,-9.214 7.027,-15.348 0,-6.812 -2.473,-14.596 -10.481,-18.787 -11.661,-6.102 -29.554,-3.2 -41.165,-6.967 0.016,0.005 0.032,0.011 0.048,0.015 -2.478,-1.509 -4.436,-3.895 -5.352,-6.89 -0.031,-0.1 -0.057,-0.202 -0.085,-0.302 3.403,2.977 10.112,5.126 23.202,3.441 9.346,-1.203 16.772,-1.532 23.146,0.299 6.373,1.383 11.523,5.05 15.155,10.206 0,0 10e-4,0.001 10e-4,0.001 2.931,4.164 4.659,9.237 4.659,14.717" />
                      </g>
                    </g>
                  </g>
                </g>
              </g>
            </g>
          </g>
        </g>
      </g>
      <g
         transform="matrix(0.35277777,0,0,-0.35277777,-120.57513,475.1846)"
         id="g1468">
        <g
           clip-path="url(#clipPath1474)"
           id="g1470">
          <g
             id="g1476" />
          <g
             id="g1478">
            <path
               id="path1486"
               style="fill:url(#linearGradient1484);stroke:none"
               d="m 287.039,894.856 c -0.006,-0.017 -0.009,-0.032 -0.014,-0.048 v 0 c -3.747,-3.28 -3.484,-7.565 -3.304,-8.847 v 0 c 1.224,-3.769 4.203,-6.903 8.28,-8.151 v 0 c 4.296,-1.316 8.754,-0.216 11.918,2.521 v 0 c -2.629,-1.193 -5.685,-1.472 -8.661,-0.56 v 0 c -6.402,1.959 -10.034,8.674 -8.217,15.085 v 0 z" />
          </g>
        </g>
      </g>
      <g
         transform="matrix(0.35277777,0,0,-0.35277777,-120.57513,475.1846)"
         id="g1488">
        <g
           clip-path="url(#clipPath1494)"
           id="g1490">
          <g
             id="g1496" />
          <g
             id="g1498" />
          <g
             id="g1510">
            <g
               id="g1508"
               clip-path="url(#clipPath1502)">
              <g
                 id="g1506"
                 transform="translate(299.5239,880.6582)">
                <path
                   id="path1504"
                   style="fill:#2db5f9;fill-opacity:1;fill-rule:nonzero;stroke:none"
                   d="m 0,0 c 1.274,3.708 5.389,9.431 9.805,6.811 0,0 3.592,-2.021 4.341,3.668 0,0 2.694,-13.379 -10.273,-12.93 0,0 2.919,2.133 2.892,4.322 C 6.764,1.899 3.677,-0.009 0,0" />
              </g>
            </g>
          </g>
          <g
             id="g1512" />
          <g
             id="g1514" />
          <g
             id="g1526">
            <g
               id="g1524"
               clip-path="url(#clipPath1518)">
              <g
                 id="g1522"
                 transform="translate(304.6997,888.8525)">
                <path
                   id="path1520"
                   style="fill:#5fd2ff;fill-opacity:1;fill-rule:nonzero;stroke:none"
                   d="m 0,0 c 1.283,0.653 2.496,1.312 4.854,0.264 1.829,-0.814 4.132,2.363 2.14,5.201 0,0 0.128,-2.93 -2.232,-2.905 C 2.446,2.584 1.059,1.543 0,0" />
              </g>
            </g>
          </g>
        </g>
        <g
           transform="translate(317.7251,931.418)"
           id="g1528">
          <path
             id="path1530"
             style="fill:#219058;fill-opacity:1;fill-rule:nonzero;stroke:none"
             d="m 0,0 c -3.104,-4.231 -7.656,-7.774 -8.189,-8.644 -0.534,-0.869 0.9,-3.671 3.031,-3.874 2.13,-0.202 0.49,0.815 0.311,1.799 -0.178,0.984 0.635,-0.631 3.167,-0.251 2.534,0.379 -0.917,1.318 -0.682,2.601 0.234,1.283 2.848,3.708 3.887,6.154 1.04,2.445 2.826,0.007 1.913,-1.909 -0.36,-0.756 2.891,2.127 1.25,4.329 C 3.049,2.407 1.81,2.467 0,0" />
        </g>
        <g
           transform="translate(308.8687,922.165)"
           id="g1532">
          <path
             id="path1534"
             style="fill:#219058;fill-opacity:1;fill-rule:nonzero;stroke:none"
             d="m 0,0 c -0.457,-0.436 -1.803,-1.422 -1.803,-1.422 0,0 1.317,-1.834 3.014,-1.796 0,0 0.364,0.173 -0.16,0.711 C 0.526,-1.97 -0.12,-0.323 0,0" />
        </g>
      </g>
      <g
         transform="matrix(0.35277777,0,0,-0.35277777,-120.57513,475.1846)"
         id="g1536">
        <g
           clip-path="url(#clipPath1542)"
           id="g1538">
          <g
             id="g1544" />
          <g
             id="g1546">
            <path
               id="path1556"
               style="fill:url(#linearGradient1554);stroke:none"
               d="m 233.734,925.154 c 0,-5.318 1.528,-10.276 4.159,-14.471 v 0 c 5.277,-2.029 10.292,-2.871 15.065,-2.806 v 0 h 0.001 c -3.574,3.944 -5.751,9.177 -5.751,14.919 v 0 c 0,10.113 6.756,18.644 16,21.338 v 0 c -4.417,2.141 -7.37,4.733 -9.333,7.35 v 0 c -11.602,-3.14 -20.141,-13.735 -20.141,-26.33" />
          </g>
        </g>
      </g>
      <g
         id="g1566"
         transform="matrix(0.35277777,0,0,-0.35277777,-31.336993,154.90595)">
        <path
           d="M 0,0 H 0.001"
           style="fill:none;stroke:#ffffff;stroke-width:1.12300003;stroke-linecap:butt;stroke-linejoin:miter;stroke-miterlimit:10;stroke-dasharray:none;stroke-opacity:1"
           id="path1568" />
      </g>
      <g
         id="g1570"
         transform="matrix(0.35277777,0,0,-0.35277777,-27.702748,139.22011)">
        <path
           d="m 0,0 c 1.213,-1.748 4.691,-4.766 8.786,-7.473 4.717,-0.552 8.985,-2.575 12.323,-5.606 C 16.694,-5.786 8.959,-0.73 0,0"
           style="fill:#f7b852;fill-opacity:1;fill-rule:nonzero;stroke:none"
           id="path1572" />
      </g>
      <g
         id="g1574"
         transform="matrix(0.35277777,0,0,-0.35277777,-27.702748,139.22011)">
        <path
           d="m 0,0 c -0.74,0.06 -1.488,0.094 -2.244,0.094 -2.472,0 -4.864,-0.334 -7.142,-0.95 1.963,-2.617 4.917,-5.209 9.333,-7.35 1.977,0.576 4.066,0.891 6.229,0.891 0.884,0 1.754,-0.058 2.61,-0.158 C 4.691,-4.766 1.213,-1.748 0,0"
           style="fill:#ff8431;fill-opacity:1;fill-rule:nonzero;stroke:none"
           id="path1576" />
      </g>
      <g
         id="g1578"
         transform="matrix(0.35277777,0,0,-0.35277777,-22.362186,141.41135)">
        <path
           d="M 0,0 C 0.144,0 -3.33,3.144 -7.335,4.378 -5.565,1.032 -4.049,0 0,0"
           style="fill:#fffb69;fill-opacity:1;fill-rule:nonzero;stroke:none"
           id="path1580" />
      </g>
      <g
         id="g1582"
         transform="matrix(0.35277777,0,0,-0.35277777,-25.083441,136.38462)">
        <path
           d="M 0,0 C 1.74,-1.011 3.298,-2.278 3.93,-2.751 4.244,-2.986 3.368,-0.618 2.357,-0.168 1.348,0.28 0,0 0,0"
           style="fill:#c1272d;fill-opacity:1;fill-rule:nonzero;stroke:none"
           id="path1584" />
      </g>
      <g
         id="g1586"
         transform="matrix(0.35277777,0,0,-0.35277777,-23.373987,137.59557)">
        <path
           d="M 0,0 C 1.73,-1.027 3.49,-2.494 3.902,-2.789 4.222,-3.018 3.361,-0.651 2.355,-0.192 1.35,0.267 0,0 0,0"
           style="fill:#c1272d;fill-opacity:1;fill-rule:nonzero;stroke:none"
           id="path1588" />
      </g>
      <g
         id="g1590"
         transform="matrix(0.35277777,0,0,-0.35277777,-21.763415,138.78016)">
        <path
           d="M 0,0 C 1.423,-1.368 1.858,-2.266 2.111,-2.635 2.268,-2.863 2.153,-1.083 1.56,-0.58 0.966,-0.077 0,0 0,0"
           style="fill:#c1272d;fill-opacity:1;fill-rule:nonzero;stroke:none"
           id="path1592" />
      </g>
      <g
         id="g1594"
         transform="matrix(0.35277777,0,0,-0.35277777,-29.181062,154.03229)">
        <path
           d="M 0,0 C -0.122,0.392 1.409,0.887 1.816,0.91 2.225,0.933 3.745,0.36 3.958,0.197 3.49,-0.037 1.731,-0.449 1.021,-0.421 0.533,-0.369 0,0 0,0"
           style="fill:#44c688;fill-opacity:1;fill-rule:nonzero;stroke:none"
           id="path1596" />
      </g>
      <g
         id="g1598"
         transform="matrix(0.35277777,0,0,-0.35277777,-27.235599,153.57287)">
        <path
           d="M 0,0 C -0.131,0.303 1.053,0.827 1.377,0.879 1.701,0.932 2.966,0.601 3.149,0.488 2.795,0.261 1.422,-0.215 0.851,-0.252 0.457,-0.251 0,0 0,0"
           style="fill:#44c688;fill-opacity:1;fill-rule:nonzero;stroke:none"
           id="path1600" />
      </g>
      <g
         id="g1602"
         transform="matrix(0.35277777,0,0,-0.35277777,-25.607459,152.97498)">
        <path
           d="M 0,0 C -0.134,0.238 0.792,0.773 1.055,0.846 1.316,0.917 2.386,0.758 2.547,0.681 2.275,0.463 1.188,-0.05 0.723,-0.131 0.398,-0.166 0,0 0,0"
           style="fill:#44c688;fill-opacity:1;fill-rule:nonzero;stroke:none"
           id="path1604" />
      </g>
      <g
         id="g1606"
         transform="matrix(0.35277777,0,0,-0.35277777,-24.313118,152.3869)">
        <path
           d="M 0,0 C -0.14,0.208 0.668,0.762 0.902,0.846 1.136,0.931 2.123,0.86 2.275,0.802 2.043,0.584 1.088,0.039 0.669,-0.069 0.375,-0.123 0,0 0,0"
           style="fill:#44c688;fill-opacity:1;fill-rule:nonzero;stroke:none"
           id="path1608" />
      </g>
      <g
         id="g1610"
         transform="matrix(0.35277777,0,0,-0.35277777,-23.1039,151.72597)">
        <path
           d="M 0,0 C -0.132,0.173 0.543,0.695 0.742,0.78 0.941,0.864 1.802,0.852 1.937,0.809 1.746,0.608 0.943,0.087 0.584,-0.026 0.332,-0.088 0,0 0,0"
           style="fill:#44c688;fill-opacity:1;fill-rule:nonzero;stroke:none"
           id="path1612" />
      </g>
      <g
         id="g1614"
         transform="matrix(0.35277777,0,0,-0.35277777,-31.1303,154.18801)">
        <path
           d="M 0,0 C -0.062,0.436 1.641,0.699 2.076,0.655 2.512,0.61 4.023,-0.253 4.221,-0.462 3.686,-0.631 1.755,-0.768 1.008,-0.618 0.502,-0.48 0,0 0,0"
           style="fill:#44c688;fill-opacity:1;fill-rule:nonzero;stroke:none"
           id="path1616" />
      </g>
      <g
         id="g1618"
         transform="matrix(0.35277777,0,0,-0.35277777,-30.761683,135.99515)">
        <path
           d="m 0,0 c 1.192,-1.361 4.013,-2.246 4.013,-2.246 0,0 -0.673,1.567 -0.561,4.547 C 3.456,2.409 0,2.357 -0.59,5.192 -0.708,5.759 -1.193,1.361 0,0"
           style="fill:#c1272d;fill-opacity:1;fill-rule:nonzero;stroke:none"
           id="path1620" />
      </g>
      <g
         id="g1622"
         transform="matrix(0.35277777,0,0,-0.35277777,-34.901989,159.05885)">
        <path
           d="M 0,0 C 0.147,0.99 0.594,1.825 1.348,2.333 1.384,2.357 1.423,2.374 1.46,2.396 1.183,2.468 0.895,2.501 0.602,2.545 -3.512,3.159 -4.556,0.709 -4.772,-2.042 -4.785,-2.2 -4.788,-2.357 -4.786,-2.514 -3.858,-0.879 -2.047,0.164 -0.05,0.006 -0.033,0.005 -0.017,0.001 0,0"
           style="fill:#f15a24;fill-opacity:1;fill-rule:nonzero;stroke:none"
           id="path1624" />
      </g>
      <g
         id="g1626"
         transform="matrix(0.35277777,0,0,-0.35277777,-33.135347,158.74258)">
        <path
           d="m 0,0 c -4.087,2.482 -6.386,2.663 -7.297,-4.289 0,0 4.305,3.402 6.336,1.152 2.208,-2.446 5.215,-0.19 3.636,1.235 C 1.095,-0.477 0,0 0,0"
           style="fill:#f15a24;fill-opacity:1;fill-rule:nonzero;stroke:none"
           id="path1628" />
      </g>
      <g
         id="g1630"
         transform="matrix(0.35277777,0,0,-0.35277777,-33.73306,159.02717)">
        <path
           d="m 0,0 c -2.319,-1.545 -2.316,-5.179 -2.316,-5.179 0,0 4.232,2.291 3.902,3.717 C 1.255,-0.036 0,0 0,0"
           style="fill:#f15a24;fill-opacity:1;fill-rule:nonzero;stroke:none"
           id="path1632" />
      </g>
      <g
         id="g1634"
         transform="matrix(0.35277777,0,0,-0.35277777,-40.52784,148.94922)">
        <path
           d="M 0,0 C 0.865,0.505 1.795,0.679 2.663,0.408 2.705,0.395 2.742,0.375 2.783,0.36 2.665,0.622 2.511,0.867 2.362,1.123 0.269,4.717 -2.296,3.998 -4.578,2.447 -4.71,2.358 -4.834,2.262 -4.954,2.163 -3.099,2.461 -1.152,1.7 -0.026,0.043 -0.017,0.029 -0.01,0.014 0,0"
           style="fill:#f15a24;fill-opacity:1;fill-rule:nonzero;stroke:none"
           id="path1636" />
      </g>
      <g
         id="g1638"
         transform="matrix(0.35277777,0,0,-0.35277777,-38.980276,150.45661)">
        <path
           d="m 0,0 c -1.486,5.9 -2.686,8.178 -8.392,4.104 0,0 4.884,1.403 5.443,-5.54 C -2.686,-4.721 0.467,-5.38 0.433,-3.253 0.397,-1.126 0,0 0,0"
           style="fill:#f15a24;fill-opacity:1;fill-rule:nonzero;stroke:none"
           id="path1640" />
      </g>
      <g
         id="g1642"
         transform="matrix(0.35277777,0,0,-0.35277777,-39.714794,149.34215)">
        <path
           d="m 0,0 c -2.712,0.643 -5.367,-1.837 -5.367,-1.837 0,0 4.166,0.143 4.672,-2.383 C -0.408,-5.655 0,0 0,0"
           style="fill:#f15a24;fill-opacity:1;fill-rule:nonzero;stroke:none"
           id="path1644" />
      </g>
      <g
         id="g1646"
         transform="matrix(0.35277777,0,0,-0.35277777,-9.0744571,145.94613)">
        <path
           d="m 0,0 c 2.647,2.976 5.725,5.636 9.3,7.506 3.388,1.785 8.204,2.907 11.111,2.767 L 21.523,9.315 20.94,9.362 C 17.042,9.658 13.065,8.816 9.5,7.104 5.919,5.399 2.758,2.876 0,0"
           style="fill:#29b36e;fill-opacity:1;fill-rule:nonzero;stroke:none"
           id="path1648" />
      </g>
      <g
         id="g1650"
         transform="matrix(0.35277777,0,0,-0.35277777,-1.7291661,142.33411)">
        <path
           d="m 0,0 c 2.169,-0.21 4.297,-0.746 6.275,-1.609 1.975,-0.863 3.812,-2.057 5.292,-3.597 -1.585,1.432 -3.474,2.474 -5.457,3.18 -1.749,0.62 -3.673,0.88 -5.412,1.102 -0.003,0.001 -1.107,0.957 -1.107,0.957 z"
           style="fill:#6fd191;fill-opacity:1;fill-rule:nonzero;stroke:none"
           id="path1652" />
      </g>
      <g
         id="g1654"
         transform="matrix(0.35277777,0,0,-0.35277777,-19.227826,159.22561)">
        <path
           d="m 0,0 c 0.562,0.398 1.221,0.808 1.865,1.144 0.457,0.223 0.915,0.446 1.39,0.623 0.467,0.202 0.951,0.346 1.43,0.506 1.927,0.604 3.92,0.92 5.911,1.087 3.989,0.313 7.979,0.044 11.915,-0.469 C 26.436,2.363 30.365,1.883 34.32,1.757 38.267,1.632 42.26,1.867 46.089,2.914 42.28,1.795 38.277,1.48 34.315,1.531 30.347,1.583 26.391,1.99 22.456,2.444 18.533,2.882 14.569,3.07 10.658,2.689 8.707,2.489 6.769,2.142 4.925,1.524 4.468,1.361 4.004,1.215 3.564,1.014 3.113,0.836 2.684,0.617 2.256,0.396 1.412,-0.063 0.609,-0.593 -0.104,-1.222 l -0.317,-0.281 c 0,0 0.169,0.847 0.421,1.503"
           style="fill:#c83ad7;fill-opacity:1;fill-rule:nonzero;stroke:none"
           id="path1656" />
      </g>
      <g
         id="g1658"
         transform="matrix(0.35277777,0,0,-0.35277777,-27.46127,142.73804)">
        <path
           d="m 0,0 c -3.817,-0.842 -3.228,-3.873 -3.228,-3.873 0,0 1.207,1.459 7.859,2.245 0,0 -2.859,0.758 -4.631,1.628"
           style="fill:#c1272d;fill-opacity:1;fill-rule:nonzero;stroke:none"
           id="path1660" />
      </g>
      <g
         id="g1662"
         transform="matrix(0.35277777,0,0,-0.35277777,-20.484242,162.63933)">
        <path
           d="M 0,0 C -0.142,0.836 -0.129,1.695 -0.051,2.544 0.035,3.395 0.217,4.24 0.497,5.057 0.776,5.874 1.155,6.661 1.619,7.402 2.089,8.141 2.665,8.808 3.29,9.43 l 0.273,0.254 c 0,0 -0.376,-1.21 -0.422,-1.51 C 2.834,7.878 2.461,7.394 2.171,7.016 1.678,6.363 1.252,5.652 0.915,4.895 0.578,4.137 0.329,3.335 0.172,2.512 0.022,1.689 -0.067,0.844 0,0"
           style="fill:#fba9ff;fill-opacity:1;fill-rule:nonzero;stroke:none"
           id="path1664" />
      </g>
      <g
         id="g1666"
         transform="matrix(0.35277777,0,0,-0.35277777,-31.649802,154.9063)">
        <path
           d="m 0,0 c -2.17,2.384 -3.996,6.18 -4.771,9.731 -0.397,1.873 -0.591,3.792 -0.494,5.699 l 0.083,1.427 0.2,1.416 c 0.047,0.475 0.183,0.935 0.28,1.4 0.101,0.465 0.204,0.93 0.361,1.379 0.518,1.831 1.324,3.571 2.301,5.19 0.468,0.825 1.047,1.577 1.607,2.337 l 0.919,1.079 c 0.304,0.362 0.66,0.677 0.986,1.017 1.357,1.307 2.846,2.485 4.486,3.41 1.636,0.927 3.377,1.655 5.178,2.174 C 9.351,35.687 7.64,34.909 6.044,33.94 4.445,32.975 3.008,31.764 1.711,30.437 1.399,30.093 1.06,29.773 0.771,29.409 l -0.87,-1.087 c -0.527,-0.762 -1.072,-1.514 -1.505,-2.335 -0.907,-1.612 -1.64,-3.327 -2.088,-5.117 -0.141,-0.44 -0.225,-0.894 -0.31,-1.347 -0.08,-0.454 -0.199,-0.9 -0.231,-1.361 L -4.385,16.79 -4.423,15.411 c -0.04,-1.838 0.204,-3.673 0.635,-5.45 0.89,-3.552 2.693,-6.852 5.175,-9.508 L 1.784,0.027 C 1.784,0.027 0.332,-0.024 0,0"
           style="fill:#ff737d;fill-opacity:1;fill-rule:nonzero;stroke:none"
           id="path1668" />
      </g>
      <g
         id="g1670"
         transform="matrix(0.35277777,0,0,-0.35277777,-23.598282,157.30942)">
        <path
           d="m 0,0 c -1.951,-0.433 -3.949,-0.666 -5.965,-0.678 -2.024,0.025 -4.025,0.415 -5.965,0.983 -1.937,0.579 -3.818,1.361 -5.599,2.351 -1.777,0.995 -3.433,2.2 -4.879,3.705 l -0.415,0.445 c 0,0 1.429,0.02 1.783,0.034 1.174,-1.266 2.547,-2.361 4.034,-3.302 1.656,-1.041 3.44,-1.899 5.295,-2.564 1.857,-0.654 3.79,-1.141 5.76,-1.271 C -3.975,-0.401 -1.974,-0.309 0,0"
           style="fill:#fff4c0;fill-opacity:1;fill-rule:nonzero;stroke:none"
           id="path1672" />
      </g>
    </g>
  </g>
</svg>
