<?xml version="1.0" encoding="UTF-8" standalone="no"?>
<svg
   xmlns:dc="http://purl.org/dc/elements/1.1/"
   xmlns:cc="http://creativecommons.org/ns#"
   xmlns:rdf="http://www.w3.org/1999/02/22-rdf-syntax-ns#"
   xmlns:svg="http://www.w3.org/2000/svg"
   xmlns="http://www.w3.org/2000/svg"
   id="svg17588"
   version="1.1"
   viewBox="0 0 122.46551 132.29167"
   height="132.29167mm"
   width="122.46551mm">
  <defs
     id="defs17582">
    <clipPath
       id="clipPath316"
       clipPathUnits="userSpaceOnUse">
      <path
         id="path314"
         d="m 279.859,1316.917 c 0,-11.841 3.399,-22.883 9.259,-32.225 v 0 c 11.752,-4.518 22.916,-6.392 33.548,-6.249 v 0 c -7.958,8.784 -12.807,20.437 -12.807,33.223 v 0 c 0,22.522 15.045,41.517 35.628,47.516 v 0 c -9.833,4.767 -16.411,10.54 -20.781,16.367 v 0 c -25.837,-6.991 -44.847,-30.585 -44.847,-58.632" />
    </clipPath>
    <linearGradient
       id="linearGradient328"
       spreadMethod="pad"
       gradientTransform="matrix(-49.5,-136,-136,49.5,343.67084,1419.573)"
       gradientUnits="userSpaceOnUse"
       y2="0"
       x2="1"
       y1="0"
       x1="0">
      <stop
         id="stop322"
         offset="0"
         style="stop-opacity:1;stop-color:#000000" />
      <stop
         id="stop324"
         offset="0.71459707"
         style="stop-opacity:1;stop-color:#ff1d25" />
      <stop
         id="stop326"
         offset="1"
         style="stop-opacity:1;stop-color:#ff1d25" />
    </linearGradient>
    <clipPath
       id="clipPath268"
       clipPathUnits="userSpaceOnUse">
      <path
         id="path266"
         d="M 0,1544 H 3116.844 V 0 H 0 Z" />
    </clipPath>
    <clipPath
       id="clipPath276"
       clipPathUnits="userSpaceOnUse">
      <path
         id="path274"
         d="m 426.358,1241.17 h 32.018 v -28.82 h -32.018 z" />
    </clipPath>
    <clipPath
       id="clipPath292"
       clipPathUnits="userSpaceOnUse">
      <path
         id="path290"
         d="m 437.884,1248.25 h 17.285 v -12.17 h -17.285 z" />
    </clipPath>
    <clipPath
       id="clipPath248"
       clipPathUnits="userSpaceOnUse">
      <path
         id="path246"
         d="m 398.555,1249.448 -0.029,-0.106 c -8.345,-7.303 -7.757,-16.846 -7.356,-19.702 v 0 c 2.726,-8.393 9.357,-15.371 18.437,-18.151 v 0 c 9.565,-2.929 19.491,-0.48 26.539,5.613 v 0 c -5.853,-2.655 -12.659,-3.275 -19.289,-1.245 v 0 c -14.254,4.364 -22.341,19.317 -18.298,33.591 v 0 c -0.001,0 -0.002,0 -0.004,0" />
    </clipPath>
    <linearGradient
       id="linearGradient258"
       spreadMethod="pad"
       gradientTransform="matrix(74.934555,-18.14205,-18.14205,-74.934555,402.23712,1230.8896)"
       gradientUnits="userSpaceOnUse"
       y2="0"
       x2="1"
       y1="0"
       x1="0">
      <stop
         id="stop254"
         offset="0"
         style="stop-opacity:1;stop-color:#2db5f9" />
      <stop
         id="stop256"
         offset="1"
         style="stop-opacity:1;stop-color:#000000" />
    </linearGradient>
    <clipPath
       id="clipPath182"
       clipPathUnits="userSpaceOnUse">
      <path
         id="path180"
         d="M 0,1544 H 3116.844 V 0 H 0 Z" />
    </clipPath>
    <clipPath
       id="clipPath190"
       clipPathUnits="userSpaceOnUse">
      <path
         id="path188"
         d="M 398.526,1356.85 H 545.858 V 1249.34 H 398.526 Z" />
    </clipPath>
    <clipPath
       id="clipPath194"
       clipPathUnits="userSpaceOnUse">
      <path
         id="path192"
         d="m 545.859,1313.167 c 0,12.353 -3.943,23.779 -10.621,33.115 -6.032,5.853 -15.006,9.94 -25.356,10.564 9.58,-8.284 15.65,-20.517 15.65,-34.176 0,-15.169 -5.507,-32.503 -23.34,-41.837 -25.965,-13.589 -65.811,-7.125 -91.667,-15.512 0.036,0.01 0.072,0.023 0.109,0.033 -5.52,-3.362 -9.879,-8.676 -11.92,-15.342 -0.069,-0.225 -0.126,-0.45 -0.188,-0.676 7.577,6.631 22.517,11.416 51.666,7.664 20.811,-2.679 37.348,-3.411 51.542,0.667 14.189,3.077 25.659,11.243 33.746,22.726 10e-4,10e-4 0.002,0 0.004,0 h -0.001 c 6.529,9.272 10.376,20.569 10.376,32.771" />
    </clipPath>
    <mask
       id="mask206"
       height="1"
       width="1"
       y="0"
       x="0"
       maskUnits="userSpaceOnUse">
      <g
         id="g216">
        <g
           id="g214"
           clip-path="url(#clipPath198)">
          <g
             id="g212">
            <g
               id="g210">
              <path
                 id="path208"
                 style="fill:url(#linearGradient204);stroke:none"
                 d="M -32768,32767 H 32767 V -32768 H -32768 Z" />
            </g>
          </g>
        </g>
      </g>
    </mask>
    <clipPath
       id="clipPath198"
       clipPathUnits="userSpaceOnUse">
      <path
         id="path196"
         d="M -32768,32767 H 32767 V -32768 H -32768 Z" />
    </clipPath>
    <linearGradient
       id="linearGradient204"
       spreadMethod="pad"
       gradientTransform="matrix(-10.666667,-36,-36,10.666667,499.77637,1370.2207)"
       gradientUnits="userSpaceOnUse"
       y2="0"
       x2="1"
       y1="0"
       x1="0">
      <stop
         id="stop200"
         offset="0"
         style="stop-opacity:1;stop-color:#ffffff" />
      <stop
         id="stop202"
         offset="1"
         style="stop-opacity:0;stop-color:#ffffff" />
    </linearGradient>
    <linearGradient
       id="linearGradient222"
       spreadMethod="pad"
       gradientTransform="matrix(-10.666667,-36,-36,10.666667,499.77637,1370.2207)"
       gradientUnits="userSpaceOnUse"
       y2="0"
       x2="1"
       y1="0"
       x1="0">
      <stop
         id="stop218"
         offset="0"
         style="stop-opacity:1;stop-color:#000000" />
      <stop
         id="stop220"
         offset="1"
         style="stop-opacity:1;stop-color:#000000" />
    </linearGradient>
    <clipPath
       id="clipPath162"
       clipPathUnits="userSpaceOnUse">
      <path
         id="path160"
         d="m 525.532,1322.671 c 0,-15.17 -5.508,-32.505 -23.34,-41.838 v 0 c -25.965,-13.589 -65.811,-7.125 -91.667,-15.512 v 0 c 0.036,0.01 0.072,0.022 0.109,0.032 v 0 c -5.521,-3.36 -9.878,-8.675 -11.92,-15.341 v 0 c -0.069,-0.225 -0.126,-0.45 -0.188,-0.675 v 0 c 7.577,6.63 22.517,11.414 51.666,7.663 v 0 c 20.811,-2.679 37.348,-3.412 51.542,0.666 v 0 c 14.189,3.078 25.659,11.244 33.746,22.726 v 0 c 10e-4,10e-4 0.002,0 0.004,0 v 0 l -0.001,10e-4 c 6.529,9.271 10.376,20.567 10.376,32.77 v 0 c 0,12.353 -3.944,23.778 -10.621,33.115 v 0 c -6.033,5.853 -15.006,9.94 -25.356,10.563 v 0 c 9.58,-8.283 15.65,-20.516 15.65,-34.174" />
    </clipPath>
    <linearGradient
       id="linearGradient172"
       spreadMethod="pad"
       gradientTransform="matrix(263.5,205.5,205.5,-263.5,304.85098,1147.0975)"
       gradientUnits="userSpaceOnUse"
       y2="0"
       x2="1"
       y1="0"
       x1="0">
      <stop
         id="stop168"
         offset="0"
         style="stop-opacity:1;stop-color:#000000" />
      <stop
         id="stop170"
         offset="1"
         style="stop-opacity:1;stop-color:#d23de2" />
    </linearGradient>
    <clipPath
       id="clipPath142"
       clipPathUnits="userSpaceOnUse">
      <path
         id="path140"
         d="m 410.523,1265.326 c -1.878,-0.609 -3.657,-1.29 -5.331,-2.052 v 0 c -6.574,-3.317 -11.845,-9.193 -14.171,-16.791 v 0 c -0.798,-2.607 -1.189,-5.241 -1.224,-7.836 v 0 c 0.031,-5.215 1.329,-8.882 1.375,-9.019 v 0 c -0.401,2.842 -1.002,12.402 7.354,19.714 v 0 c 0.062,0.225 0.119,0.451 0.188,0.675 v 0 c 2.042,6.666 6.399,11.981 11.92,15.342 v 0 c -0.038,-0.01 -0.074,-0.023 -0.111,-0.033" />
    </clipPath>
    <linearGradient
       id="linearGradient152"
       spreadMethod="pad"
       gradientTransform="matrix(20.836792,0,0,-20.836792,389.79712,1247.4934)"
       gradientUnits="userSpaceOnUse"
       y2="0"
       x2="1"
       y1="0"
       x1="0">
      <stop
         id="stop148"
         offset="0"
         style="stop-opacity:1;stop-color:#c297ff" />
      <stop
         id="stop150"
         offset="1"
         style="stop-opacity:1;stop-color:#ae31bb" />
    </linearGradient>
    <clipPath
       id="clipPath122"
       clipPathUnits="userSpaceOnUse">
      <path
         id="path120"
         d="m 457.313,1361.529 c -34.395,-21.079 -76.523,-82.302 -134.648,-83.086 v 0 h 10e-4 c 9.057,-9.997 22.141,-16.277 36.693,-16.277 v 0 c 3.084,0 9.017,0.547 12.154,1.105 v 0 c 38.25,15.763 75.01,53.46 91.679,71.729 v 0 c 15.465,16.949 32.392,22.708 46.69,21.845 v 0 c -7.92,6.849 -18.235,11.002 -29.527,11.002 v 0 c -8.418,0 -16.295,-2.308 -23.042,-6.318 m -0.077,-0.046 c 0.026,0.015 0.051,0.031 0.077,0.046 v 0 c 0.391,0.239 0.778,0.472 1.167,0.701 v 0 c -0.414,-0.243 -0.828,-0.49 -1.244,-0.747" />
    </clipPath>
    <linearGradient
       id="linearGradient132"
       spreadMethod="pad"
       gradientTransform="matrix(265.00003,137.5,137.5,-265.00003,341.12039,1274.1306)"
       gradientUnits="userSpaceOnUse"
       y2="0"
       x2="1"
       y1="0"
       x1="0">
      <stop
         id="stop128"
         offset="0"
         style="stop-opacity:1;stop-color:#34e28b" />
      <stop
         id="stop130"
         offset="1"
         style="stop-opacity:1;stop-color:#000000" />
    </linearGradient>
    <clipPath
       id="clipPath100"
       clipPathUnits="userSpaceOnUse">
      <path
         id="path98"
         d="m 468.192,1366.834 c -3.568,-1.223 -7.224,-3.063 -10.963,-5.361 v 0 c 6.764,4.038 14.676,6.374 23.126,6.374 v 0 c 11.292,0 21.607,-4.153 29.527,-11.002 v 0 c 10.394,-0.626 19.402,-4.744 25.435,-10.637 v 0 c 0,0 -16.654,24.192 -46.694,24.193 v 0 c -6.243,10e-4 -13.062,-1.044 -20.431,-3.567" />
    </clipPath>
    <linearGradient
       id="linearGradient112"
       spreadMethod="pad"
       gradientTransform="matrix(8.499999,7,7,-8.499999,502.07114,1358.616)"
       gradientUnits="userSpaceOnUse"
       y2="0"
       x2="1"
       y1="0"
       x1="0">
      <stop
         id="stop106"
         offset="0"
         style="stop-opacity:1;stop-color:#5bcb99" />
      <stop
         id="stop108"
         offset="0.00045634"
         style="stop-opacity:1;stop-color:#5bcb99" />
      <stop
         id="stop110"
         offset="1"
         style="stop-opacity:1;stop-color:#85a8e8" />
    </linearGradient>
    <clipPath
       id="clipPath80"
       clipPathUnits="userSpaceOnUse">
      <path
         id="path78"
         d="M 0,1544 H 3116.844 V 0 H 0 Z" />
    </clipPath>
    <clipPath
       id="clipPath60"
       clipPathUnits="userSpaceOnUse">
      <path
         id="path58"
         d="m 289.817,1283.6 c 3.916,-5.469 8.05,-10.015 12.36,-13.728 v 0 c 10.471,-8.563 23.85,-13.705 38.432,-13.705 v 0 c 0.862,0 1.748,0.027 2.644,0.067 v 0 c 9.325,0.602 18.838,3.154 28.26,7.037 v 0 c -3.137,-0.558 -9.07,-1.105 -12.154,-1.105 v 0 c -14.552,0 -27.636,6.28 -36.693,16.277 v 0 c -10.632,-0.143 -21.796,1.731 -33.548,6.249 v 0 c 0.229,-0.367 0.461,-0.731 0.699,-1.092" />
    </clipPath>
    <linearGradient
       id="linearGradient70"
       spreadMethod="pad"
       gradientTransform="matrix(0,23.04886,23.04886,0,330.31515,1257.4993)"
       gradientUnits="userSpaceOnUse"
       y2="0"
       x2="1"
       y1="0"
       x1="0">
      <stop
         id="stop66"
         offset="0"
         style="stop-opacity:1;stop-color:#fffa8f" />
      <stop
         id="stop68"
         offset="1"
         style="stop-opacity:1;stop-color:#fb784b" />
    </linearGradient>
    <linearGradient
       id="linearGradient50"
       spreadMethod="pad"
       gradientTransform="matrix(-0.217389,0.950617,-0.950617,-0.217389,0.1085,1543.5229)"
       gradientUnits="userSpaceOnUse"
       y2="0"
       x2="1"
       y1="0"
       x1="0">
      <stop
         id="stop44"
         offset="0"
         style="stop-opacity:1;stop-color:#ff1d25" />
      <stop
         id="stop46"
         offset="0.71459707"
         style="stop-opacity:1;stop-color:#ff1d25" />
      <stop
         id="stop48"
         offset="1"
         style="stop-opacity:1;stop-color:#ff1d25" />
    </linearGradient>
  </defs>
  <metadata
     id="metadata17585">
    <rdf:RDF>
      <cc:Work
         rdf:about="">
        <dc:format>image/svg+xml</dc:format>
        <dc:type
           rdf:resource="http://purl.org/dc/dcmitype/StillImage" />
        <dc:title></dc:title>
      </cc:Work>
    </rdf:RDF>
  </metadata>
  <g
     transform="translate(95.449316,-137.06968)"
     id="layer1">
    <g
       id="g18146">
      <g
         transform="matrix(0.41905641,0,0,-0.41905641,-66.514058,195.99287)"
         id="g42">
        <path
           id="path52"
           style="fill:none;stroke:url(#linearGradient50);stroke-width:1;stroke-linecap:butt;stroke-linejoin:miter;stroke-miterlimit:10;stroke-dasharray:none;stroke-opacity:1"
           d="M 0,0 V 0" />
      </g>
      <g
         transform="matrix(0.41905641,0,0,-0.41905641,-201.72952,731.73256)"
         id="g54">
        <g
           clip-path="url(#clipPath60)"
           id="g56">
          <g
             id="g62" />
          <g
             id="g64">
            <path
               id="path72"
               style="fill:url(#linearGradient70);stroke:none"
               d="m 289.817,1283.6 c 3.916,-5.469 8.05,-10.015 12.36,-13.728 v 0 c 10.471,-8.563 23.85,-13.705 38.432,-13.705 v 0 c 0.862,0 1.748,0.027 2.644,0.067 v 0 c 9.325,0.602 18.838,3.154 28.26,7.037 v 0 c -3.137,-0.558 -9.07,-1.105 -12.154,-1.105 v 0 c -14.552,0 -27.636,6.28 -36.693,16.277 v 0 c -10.632,-0.143 -21.796,1.731 -33.548,6.249 v 0 c 0.229,-0.367 0.461,-0.731 0.699,-1.092" />
          </g>
        </g>
      </g>
      <g
         transform="matrix(0.41905641,0,0,-0.41905641,-201.72952,731.73256)"
         id="g74">
        <g
           clip-path="url(#clipPath80)"
           id="g76" />
        <g
           transform="translate(340.6089,1377.6665)"
           id="g82">
          <path
             id="path84"
             style="fill:#f15a24;fill-opacity:1;fill-rule:nonzero;stroke:none"
             d="M 0,0 C 22.053,0 41.359,-11.752 52.004,-29.334 43.217,-21.36 31.551,-16.5 18.75,-16.5 c -4.817,0 -9.469,-0.701 -13.871,-1.984 11.084,-5.373 26.298,-9.466 47.186,-10.896 0,0 -1.034,19.891 -26.474,30.276 -35.529,14.502 -40.56,11.615 -49.56,26.615 0,0 -2.928,-14.972 8.066,-29.628 C -10.833,-0.745 -5.505,0 0,0" />
        </g>
        <g
           transform="translate(366.1997,1378.562)"
           id="g86">
          <path
             id="path88"
             style="fill:#ed1c24;fill-opacity:1;fill-rule:nonzero;stroke:none"
             d="m 0,0 c -12.166,4.966 -20.754,7.893 -27.152,10.197 1.432,-3.652 3.55,-7.456 6.579,-11.305 19.941,-1.632 37.158,-12.888 46.986,-29.122 -7.442,6.754 -16.953,11.26 -27.466,12.486 7.125,-4.359 15.912,-8.572 26.742,-12.47 0.265,-0.019 0.519,-0.043 0.786,-0.062 0,0 -1.035,19.891 -26.475,30.276" />
        </g>
        <g
           transform="translate(392.6372,1348.2891)"
           id="g90">
          <path
             id="path92"
             style="fill:#c1272d;fill-opacity:1;fill-rule:nonzero;stroke:none"
             d="m 0,0 c 0.004,-0.004 0.006,-0.009 0.01,-0.013 0.026,-0.003 0.053,-0.005 0.079,-0.008 0.015,0.001 0.03,0.004 0.045,0.004 0.39,2.165 2.773,19.345 -16.581,34.375 -28.903,22.447 -34.55,24.53 -35.923,36.405 0,0 -7.788,-13.542 -1.22,-30.293 6.399,-2.304 14.986,-5.231 27.153,-10.197 C -0.997,19.888 0.037,-0.003 0.037,-0.003 0.024,-0.002 0.013,-0.001 0,0" />
        </g>
      </g>
      <g
         transform="matrix(0.41905641,0,0,-0.41905641,-201.72952,731.73256)"
         id="g94">
        <g
           clip-path="url(#clipPath100)"
           id="g96">
          <g
             id="g102" />
          <g
             id="g104">
            <path
               id="path114"
               style="fill:url(#linearGradient112);stroke:none"
               d="m 468.192,1366.834 c -3.568,-1.223 -7.224,-3.063 -10.963,-5.361 v 0 c 6.764,4.038 14.676,6.374 23.126,6.374 v 0 c 11.292,0 21.607,-4.153 29.527,-11.002 v 0 c 10.394,-0.626 19.402,-4.744 25.435,-10.637 v 0 c 0,0 -16.654,24.192 -46.694,24.193 v 0 c -6.243,10e-4 -13.062,-1.044 -20.431,-3.567" />
          </g>
        </g>
      </g>
      <g
         transform="matrix(0.41905641,0,0,-0.41905641,-201.72952,731.73256)"
         id="g116">
        <g
           clip-path="url(#clipPath122)"
           id="g118">
          <g
             id="g124" />
          <g
             id="g126">
            <path
               id="path134"
               style="fill:url(#linearGradient132);stroke:none"
               d="m 457.313,1361.529 c -34.395,-21.079 -76.523,-82.302 -134.648,-83.086 v 0 h 10e-4 c 9.057,-9.997 22.141,-16.277 36.693,-16.277 v 0 c 3.084,0 9.017,0.547 12.154,1.105 v 0 c 38.25,15.763 75.01,53.46 91.679,71.729 v 0 c 15.465,16.949 32.392,22.708 46.69,21.845 v 0 c -7.92,6.849 -18.235,11.002 -29.527,11.002 v 0 c -8.418,0 -16.295,-2.308 -23.042,-6.318 m -0.077,-0.046 c 0.026,0.015 0.051,0.031 0.077,0.046 v 0 c 0.391,0.239 0.778,0.472 1.167,0.701 v 0 c -0.414,-0.243 -0.828,-0.49 -1.244,-0.747" />
          </g>
        </g>
      </g>
      <g
         transform="matrix(0.41905641,0,0,-0.41905641,-201.72952,731.73256)"
         id="g136">
        <g
           clip-path="url(#clipPath142)"
           id="g138">
          <g
             id="g144" />
          <g
             id="g146">
            <path
               id="path154"
               style="fill:url(#linearGradient152);stroke:none"
               d="m 410.523,1265.326 c -1.878,-0.609 -3.657,-1.29 -5.331,-2.052 v 0 c -6.574,-3.317 -11.845,-9.193 -14.171,-16.791 v 0 c -0.798,-2.607 -1.189,-5.241 -1.224,-7.836 v 0 c 0.031,-5.215 1.329,-8.882 1.375,-9.019 v 0 c -0.401,2.842 -1.002,12.402 7.354,19.714 v 0 c 0.062,0.225 0.119,0.451 0.188,0.675 v 0 c 2.042,6.666 6.399,11.981 11.92,15.342 v 0 c -0.038,-0.01 -0.074,-0.023 -0.111,-0.033" />
          </g>
        </g>
      </g>
      <g
         transform="matrix(0.41905641,0,0,-0.41905641,-201.72952,731.73256)"
         id="g156">
        <g
           clip-path="url(#clipPath162)"
           id="g158">
          <g
             id="g164" />
          <g
             id="g166">
            <path
               id="path174"
               style="fill:url(#linearGradient172);stroke:none"
               d="m 525.532,1322.671 c 0,-15.17 -5.508,-32.505 -23.34,-41.838 v 0 c -25.965,-13.589 -65.811,-7.125 -91.667,-15.512 v 0 c 0.036,0.01 0.072,0.022 0.109,0.032 v 0 c -5.521,-3.36 -9.878,-8.675 -11.92,-15.341 v 0 c -0.069,-0.225 -0.126,-0.45 -0.188,-0.675 v 0 c 7.577,6.63 22.517,11.414 51.666,7.663 v 0 c 20.811,-2.679 37.348,-3.412 51.542,0.666 v 0 c 14.189,3.078 25.659,11.244 33.746,22.726 v 0 c 10e-4,10e-4 0.002,0 0.004,0 v 0 l -0.001,10e-4 c 6.529,9.271 10.376,20.567 10.376,32.77 v 0 c 0,12.353 -3.944,23.778 -10.621,33.115 v 0 c -6.033,5.853 -15.006,9.94 -25.356,10.563 v 0 c 9.58,-8.283 15.65,-20.516 15.65,-34.174" />
          </g>
        </g>
      </g>
      <g
         transform="matrix(0.41905641,0,0,-0.41905641,-201.72952,731.73256)"
         id="g176">
        <g
           clip-path="url(#clipPath182)"
           id="g178">
          <g
             id="g184" />
          <g
             id="g186" />
          <g
             id="g240">
            <g
               style="opacity:0.49000501"
               id="g238"
               clip-path="url(#clipPath190)">
              <g
                 id="g236">
                <g
                   id="g234"
                   clip-path="url(#clipPath194)">
                  <g
                     id="g232">
                    <g
                       id="g224" />
                    <g
                       id="g230"
                       mask="url(#mask206)">
                      <g
                         id="g228">
                        <path
                           id="path226"
                           style="fill:url(#linearGradient222);stroke:none"
                           d="m 545.859,1313.167 c 0,12.353 -3.943,23.779 -10.621,33.115 -6.032,5.853 -15.006,9.94 -25.356,10.564 9.58,-8.284 15.65,-20.517 15.65,-34.176 0,-15.169 -5.507,-32.503 -23.34,-41.837 -25.965,-13.589 -65.811,-7.125 -91.667,-15.512 0.036,0.01 0.072,0.023 0.109,0.033 -5.52,-3.362 -9.879,-8.676 -11.92,-15.342 -0.069,-0.225 -0.126,-0.45 -0.188,-0.676 7.577,6.631 22.517,11.416 51.666,7.664 20.811,-2.679 37.348,-3.411 51.542,0.667 14.189,3.077 25.659,11.243 33.746,22.726 10e-4,10e-4 0.002,0 0.004,0 h -0.001 c 6.529,9.272 10.376,20.569 10.376,32.771" />
                      </g>
                    </g>
                  </g>
                </g>
              </g>
            </g>
          </g>
        </g>
      </g>
      <g
         transform="matrix(0.41905641,0,0,-0.41905641,-201.72952,731.73256)"
         id="g242">
        <g
           clip-path="url(#clipPath248)"
           id="g244">
          <g
             id="g250" />
          <g
             id="g252">
            <path
               id="path260"
               style="fill:url(#linearGradient258);stroke:none"
               d="m 398.555,1249.448 -0.029,-0.106 c -8.345,-7.303 -7.757,-16.846 -7.356,-19.702 v 0 c 2.726,-8.393 9.357,-15.371 18.437,-18.151 v 0 c 9.565,-2.929 19.491,-0.48 26.539,5.613 v 0 c -5.853,-2.655 -12.659,-3.275 -19.289,-1.245 v 0 c -14.254,4.364 -22.341,19.317 -18.298,33.591 v 0 c -0.001,0 -0.002,0 -0.004,0" />
          </g>
        </g>
      </g>
      <g
         transform="matrix(0.41905641,0,0,-0.41905641,-201.72952,731.73256)"
         id="g262">
        <g
           clip-path="url(#clipPath268)"
           id="g264">
          <g
             id="g270" />
          <g
             id="g272" />
          <g
             id="g284">
            <g
               id="g282"
               clip-path="url(#clipPath276)">
              <g
                 id="g280"
                 transform="translate(426.3589,1217.8335)">
                <path
                   id="path278"
                   style="fill:#2db5f9;fill-opacity:1;fill-rule:nonzero;stroke:none"
                   d="m 0,0 c 2.838,8.258 12,21 21.833,15.167 0,0 8,-4.5 9.667,8.166 0,0 6,-29.791 -22.875,-28.791 0,0 6.5,4.75 6.438,9.625 C 15.062,4.229 8.188,-0.021 0,0" />
              </g>
            </g>
          </g>
          <g
             id="g286" />
          <g
             id="g288" />
          <g
             id="g300">
            <g
               id="g298"
               clip-path="url(#clipPath292)">
              <g
                 id="g296"
                 transform="translate(437.8833,1236.0796)">
                <path
                   id="path294"
                   style="fill:#5fd2ff;fill-opacity:1;fill-rule:nonzero;stroke:none"
                   d="m 0,0 c 2.858,1.455 5.559,2.92 10.809,0.587 4.073,-1.811 9.203,5.264 4.766,11.583 0,0 0.286,-6.524 -4.971,-6.469 C 5.448,5.755 2.357,3.436 0,0" />
              </g>
            </g>
          </g>
        </g>
        <g
           transform="translate(466.8882,1330.8657)"
           id="g302">
          <path
             id="path304"
             style="fill:#219058;fill-opacity:1;fill-rule:nonzero;stroke:none"
             d="m 0,0 c -6.909,-9.422 -17.049,-17.312 -18.235,-19.248 -1.188,-1.936 2.005,-8.176 6.749,-8.627 4.744,-0.449 1.092,1.815 0.694,4.006 -0.398,2.191 1.413,-1.404 7.054,-0.559 5.64,0.845 -2.042,2.936 -1.521,5.792 0.522,2.856 6.344,8.258 8.657,13.703 2.315,5.446 6.29,0.015 4.259,-4.25 -0.803,-1.685 6.438,4.736 2.785,9.64 C 6.789,5.36 4.029,5.494 0,0" />
        </g>
        <g
           transform="translate(447.1675,1310.2612)"
           id="g306">
          <path
             id="path308"
             style="fill:#219058;fill-opacity:1;fill-rule:nonzero;stroke:none"
             d="m 0,0 c -1.018,-0.97 -4.016,-3.166 -4.016,-3.166 0,0 2.933,-4.084 6.711,-4 0,0 0.813,0.386 -0.355,1.583 C 1.172,-4.387 -0.268,-0.719 0,0" />
        </g>
      </g>
      <g
         transform="matrix(0.41905641,0,0,-0.41905641,-201.72952,731.73256)"
         id="g310">
        <g
           clip-path="url(#clipPath316)"
           id="g312">
          <g
             id="g318" />
          <g
             id="g320">
            <path
               id="path330"
               style="fill:url(#linearGradient328);stroke:none"
               d="m 279.859,1316.917 c 0,-11.841 3.399,-22.883 9.259,-32.225 v 0 c 11.752,-4.518 22.916,-6.392 33.548,-6.249 v 0 c -7.958,8.784 -12.807,20.437 -12.807,33.223 v 0 c 0,22.522 15.045,41.517 35.628,47.516 v 0 c -9.833,4.767 -16.411,10.54 -20.781,16.367 v 0 c -25.837,-6.991 -44.847,-30.585 -44.847,-58.632" />
          </g>
        </g>
      </g>
      <g
         id="g340"
         transform="matrix(0.41905641,0,0,-0.41905641,-66.514058,195.99287)">
        <path
           d="M 0,0 V 0"
           style="fill:none;stroke:#ffffff;stroke-width:2.5;stroke-linecap:butt;stroke-linejoin:miter;stroke-miterlimit:10;stroke-dasharray:none;stroke-opacity:1"
           id="path342" />
      </g>
      <g
         id="g344"
         transform="matrix(0.41905641,0,0,-0.41905641,-56.90153,154.50097)">
        <path
           d="M 0,0 C 2.7,-3.892 10.447,-10.612 19.566,-16.641 30.069,-17.87 39.571,-22.375 47.008,-29.124 37.176,-12.883 19.951,-1.625 0,0"
           style="fill:#f7b852;fill-opacity:1;fill-rule:nonzero;stroke:none"
           id="path346" />
      </g>
      <g
         id="g348"
         transform="matrix(0.41905641,0,0,-0.41905641,-56.90153,154.50097)">
        <path
           d="m 0,0 c -1.648,0.134 -3.313,0.211 -4.996,0.211 -5.505,0 -10.833,-0.745 -15.903,-2.117 4.37,-5.827 10.948,-11.6 20.782,-16.367 4.402,1.283 9.054,1.984 13.871,1.984 1.968,0 3.904,-0.128 5.812,-0.352 C 10.447,-10.612 2.7,-3.892 0,0"
           style="fill:#ff8431;fill-opacity:1;fill-rule:nonzero;stroke:none"
           id="path350" />
      </g>
      <g
         id="g352"
         transform="matrix(0.41905641,0,0,-0.41905641,-42.774346,160.29677)">
        <path
           d="M 0,0 C 0.319,0 -7.417,7 -16.333,9.75 -12.393,2.298 -9.017,0 0,0"
           style="fill:#fffb69;fill-opacity:1;fill-rule:nonzero;stroke:none"
           id="path354" />
      </g>
      <g
         id="g356"
         transform="matrix(0.41905641,0,0,-0.41905641,-49.972393,147.00052)">
        <path
           d="m 0,0 c 3.875,-2.25 7.344,-5.073 8.75,-6.125 0.7,-0.524 -1.25,4.75 -3.5,5.75 C 3,0.625 0,0 0,0"
           style="fill:#c1272d;fill-opacity:1;fill-rule:nonzero;stroke:none"
           id="path358" />
      </g>
      <g
         id="g360"
         transform="matrix(0.41905641,0,0,-0.41905641,-45.451152,150.20362)">
        <path
           d="M 0,0 C 3.853,-2.288 7.773,-5.554 8.689,-6.211 9.4,-6.721 7.486,-1.449 5.246,-0.427 3.007,0.596 0,0 0,0"
           style="fill:#c1272d;fill-opacity:1;fill-rule:nonzero;stroke:none"
           id="path362" />
      </g>
      <g
         id="g364"
         transform="matrix(0.41905641,0,0,-0.41905641,-41.191023,153.33692)">
        <path
           d="M 0,0 C 3.17,-3.046 4.139,-5.046 4.703,-5.868 5.052,-6.376 4.797,-2.411 3.474,-1.291 2.15,-0.17 0,0 0,0"
           style="fill:#c1272d;fill-opacity:1;fill-rule:nonzero;stroke:none"
           id="path366" />
      </g>
      <g
         id="g368"
         transform="matrix(0.41905641,0,0,-0.41905641,-60.811371,193.68153)">
        <path
           d="M 0,0 C -0.273,0.873 3.137,1.974 4.045,2.025 4.953,2.077 8.34,0.802 8.813,0.439 7.771,-0.083 3.854,-1 2.271,-0.937 1.187,-0.822 0,0 0,0"
           style="fill:#44c688;fill-opacity:1;fill-rule:nonzero;stroke:none"
           id="path370" />
      </g>
      <g
         id="g372"
         transform="matrix(0.41905641,0,0,-0.41905641,-55.665651,192.46672)">
        <path
           d="M 0,0 C -0.291,0.676 2.344,1.841 3.066,1.958 3.789,2.075 6.604,1.338 7.013,1.087 6.224,0.582 3.167,-0.478 1.895,-0.561 1.018,-0.558 0,0 0,0"
           style="fill:#44c688;fill-opacity:1;fill-rule:nonzero;stroke:none"
           id="path374" />
      </g>
      <g
         id="g376"
         transform="matrix(0.41905641,0,0,-0.41905641,-51.358464,190.88483)">
        <path
           d="M 0,0 C -0.3,0.53 1.764,1.722 2.348,1.882 2.931,2.043 5.312,1.687 5.67,1.517 5.065,1.031 2.646,-0.112 1.607,-0.292 0.886,-0.369 0,0 0,0"
           style="fill:#44c688;fill-opacity:1;fill-rule:nonzero;stroke:none"
           id="path378" />
      </g>
      <g
         id="g380"
         transform="matrix(0.41905641,0,0,-0.41905641,-47.934815,189.3295)">
        <path
           d="M 0,0 C -0.311,0.462 1.487,1.696 2.008,1.884 2.529,2.072 4.726,1.917 5.065,1.787 4.548,1.301 2.423,0.086 1.488,-0.152 0.835,-0.273 0,0 0,0"
           style="fill:#44c688;fill-opacity:1;fill-rule:nonzero;stroke:none"
           id="path382" />
      </g>
      <g
         id="g384"
         transform="matrix(0.41905641,0,0,-0.41905641,-44.736617,187.58107)">
        <path
           d="M 0,0 C -0.293,0.386 1.209,1.547 1.652,1.736 2.096,1.925 4.012,1.897 4.313,1.802 3.888,1.354 2.101,0.194 1.3,-0.059 0.739,-0.196 0,0 0,0"
           style="fill:#44c688;fill-opacity:1;fill-rule:nonzero;stroke:none"
           id="path386" />
      </g>
      <g
         id="g388"
         transform="matrix(0.41905641,0,0,-0.41905641,-65.967315,194.09363)">
        <path
           d="M 0,0 C -0.142,0.97 3.652,1.557 4.622,1.458 5.592,1.358 8.958,-0.564 9.397,-1.028 8.206,-1.405 3.907,-1.711 2.243,-1.376 1.116,-1.07 0,0 0,0"
           style="fill:#44c688;fill-opacity:1;fill-rule:nonzero;stroke:none"
           id="path390" />
      </g>
      <g
         id="g392"
         transform="matrix(0.41905641,0,0,-0.41905641,-64.992924,145.97028)">
        <path
           d="m 0,0 c 2.656,-3.031 8.938,-5 8.938,-5 0,0 -1.501,3.49 -1.251,10.125 C 7.696,5.364 0,5.25 -1.312,11.563 -1.575,12.824 -2.656,3.031 0,0"
           style="fill:#c1272d;fill-opacity:1;fill-rule:nonzero;stroke:none"
           id="path394" />
      </g>
      <g
         id="g396"
         transform="matrix(0.41905641,0,0,-0.41905641,-75.944462,206.97819)">
        <path
           d="M 0,0 C 0.328,2.206 1.321,4.064 3.001,5.195 3.081,5.249 3.168,5.288 3.25,5.337 2.633,5.497 1.991,5.57 1.339,5.667 -7.821,7.035 -10.145,1.579 -10.628,-4.546 c -0.028,-0.353 -0.035,-0.703 -0.03,-1.05 2.066,3.64 6.099,5.962 10.547,5.61 C -0.073,0.011 -0.037,0.003 0,0"
           style="fill:#f15a24;fill-opacity:1;fill-rule:nonzero;stroke:none"
           id="path398" />
      </g>
      <g
         id="g400"
         transform="matrix(0.41905641,0,0,-0.41905641,-71.27102,206.14129)">
        <path
           d="m 0,0 c -9.102,5.528 -14.221,5.929 -16.249,-9.552 0,0 9.586,7.578 14.107,2.567 C 2.775,-12.432 9.472,-7.41 5.954,-4.236 2.437,-1.062 0,0 0,0"
           style="fill:#f15a24;fill-opacity:1;fill-rule:nonzero;stroke:none"
           id="path402" />
      </g>
      <g
         id="g404"
         transform="matrix(0.41905641,0,0,-0.41905641,-72.852287,206.89387)">
        <path
           d="m 0,0 c -5.166,-3.441 -5.158,-11.532 -5.158,-11.532 0,0 9.424,5.1 8.688,8.276 C 2.794,-0.081 0,0 0,0"
           style="fill:#f15a24;fill-opacity:1;fill-rule:nonzero;stroke:none"
           id="path406" />
      </g>
      <g
         id="g408"
         transform="matrix(0.41905641,0,0,-0.41905641,-90.825867,180.23593)">
        <path
           d="M 0,0 C 1.926,1.124 3.997,1.511 5.931,0.908 6.022,0.879 6.106,0.835 6.197,0.802 5.935,1.384 5.592,1.93 5.259,2.5 0.597,10.503 -5.113,8.903 -10.195,5.449 -10.488,5.25 -10.766,5.037 -11.033,4.816 -6.9,5.48 -2.566,3.786 -0.059,0.096 -0.038,0.064 -0.021,0.032 0,0"
           style="fill:#f15a24;fill-opacity:1;fill-rule:nonzero;stroke:none"
           id="path410" />
      </g>
      <g
         id="g412"
         transform="matrix(0.41905641,0,0,-0.41905641,-86.732316,184.2233)">
        <path
           d="m 0,0 c -3.311,13.138 -5.979,18.211 -18.686,9.138 0,0 10.875,3.125 12.118,-12.336 0.588,-7.314 7.608,-8.783 7.531,-4.046 C 0.886,-2.507 0,0 0,0"
           style="fill:#f15a24;fill-opacity:1;fill-rule:nonzero;stroke:none"
           id="path414" />
      </g>
      <g
         id="g416"
         transform="matrix(0.41905641,0,0,-0.41905641,-88.674935,181.27536)">
        <path
           d="m 0,0 c -6.04,1.432 -11.952,-4.092 -11.952,-4.092 0,0 9.277,0.32 10.402,-5.305 C -0.911,-12.593 0,0 0,0"
           style="fill:#f15a24;fill-opacity:1;fill-rule:nonzero;stroke:none"
           id="path418" />
      </g>
      <g
         id="g420"
         transform="matrix(0.41905641,0,0,-0.41905641,-7.6259899,172.29226)">
        <path
           d="m 0,0 c 5.896,6.627 12.749,12.551 20.709,16.715 7.543,3.974 18.27,6.472 24.742,6.16 10e-4,0 2.479,-2.132 2.479,-2.132 l -1.299,0.105 C 37.949,21.506 29.095,19.631 21.156,15.82 13.18,12.024 6.141,6.405 0,0"
           style="fill:#29b36e;fill-opacity:1;fill-rule:nonzero;stroke:none"
           id="path422" />
      </g>
      <g
         id="g424"
         transform="matrix(0.41905641,0,0,-0.41905641,11.804063,162.73765)">
        <path
           d="m 0,0 c 4.828,-0.469 9.567,-1.662 13.974,-3.583 4.396,-1.922 8.486,-4.581 11.785,-8.009 -3.531,3.187 -7.738,5.507 -12.154,7.079 -3.894,1.382 -8.179,1.962 -12.051,2.456 -0.006,0 -2.465,2.129 -2.465,2.129 z"
           style="fill:#6fd191;fill-opacity:1;fill-rule:nonzero;stroke:none"
           id="path426" />
      </g>
      <g
         id="g428"
         transform="matrix(0.41905641,0,0,-0.41905641,-34.483647,207.41933)">
        <path
           d="m 0,0 c 1.251,0.889 2.719,1.798 4.154,2.546 1.018,0.5 2.037,0.995 3.095,1.389 1.038,0.449 2.116,0.772 3.183,1.128 4.294,1.345 8.731,2.05 13.164,2.421 C 32.479,8.179 41.363,7.583 50.128,6.438 58.867,5.264 67.618,4.194 76.427,3.913 85.214,3.634 94.105,4.159 102.633,6.491 94.151,3.997 85.236,3.298 76.415,3.411 67.576,3.526 58.768,4.434 50.006,5.443 41.271,6.417 32.444,6.837 23.734,5.989 19.391,5.543 15.072,4.769 10.967,3.396 9.948,3.033 8.917,2.706 7.937,2.257 6.933,1.863 5.978,1.374 5.023,0.884 3.145,-0.141 1.356,-1.319 -0.229,-2.72 l -0.709,-0.625 c 0,0 0.377,1.885 0.938,3.345"
           style="fill:#c83ad7;fill-opacity:1;fill-rule:nonzero;stroke:none"
           id="path430" />
      </g>
      <g
         id="g432"
         transform="matrix(0.41905641,0,0,-0.41905641,-56.262722,163.80636)">
        <path
           d="m 0,0 c -8.5,-1.875 -7.187,-8.625 -7.187,-8.625 0,0 2.687,3.25 17.5,5 0,0 -6.365,1.688 -10.313,3.625"
           style="fill:#c1272d;fill-opacity:1;fill-rule:nonzero;stroke:none"
           id="path434" />
      </g>
      <g
         id="g436"
         transform="matrix(0.41905641,0,0,-0.41905641,-37.806641,216.44932)">
        <path
           d="m 0,0 c -0.316,1.862 -0.287,3.775 -0.113,5.667 0.19,1.893 0.594,3.775 1.218,5.595 0.623,1.82 1.466,3.572 2.5,5.222 1.045,1.645 2.33,3.13 3.72,4.516 l 0.61,0.563 c 0,0 -0.839,-2.693 -0.942,-3.361 C 6.311,17.543 5.479,16.464 4.834,15.623 3.734,14.17 2.787,12.587 2.037,10.899 1.286,9.213 0.731,7.427 0.382,5.594 0.048,3.762 -0.15,1.88 0,0"
           style="fill:#fba9ff;fill-opacity:1;fill-rule:nonzero;stroke:none"
           id="path438" />
      </g>
      <g
         id="g440"
         transform="matrix(0.41905641,0,0,-0.41905641,-67.341945,195.99372)">
        <path
           d="m 0,0 c -4.832,5.309 -8.898,13.762 -10.626,21.669 -0.883,4.172 -1.316,8.444 -1.098,12.69 l 0.185,3.18 0.443,3.152 c 0.108,1.057 0.409,2.08 0.625,3.117 0.227,1.035 0.453,2.07 0.804,3.072 1.154,4.077 2.949,7.95 5.124,11.557 1.042,1.836 2.331,3.512 3.579,5.203 l 2.047,2.404 c 0.677,0.804 1.467,1.507 2.194,2.264 3.022,2.91 6.338,5.534 9.99,7.593 3.643,2.065 7.519,3.686 11.53,4.84 C 20.821,79.468 17.011,77.735 13.459,75.579 9.898,73.428 6.698,70.733 3.81,67.779 3.115,67.012 2.36,66.3 1.718,65.489 l -1.939,-2.42 C -1.396,61.37 -2.608,59.695 -3.572,57.868 -5.592,54.28 -7.225,50.46 -8.224,46.473 c -0.311,-0.98 -0.5,-1.991 -0.688,-2.999 -0.179,-1.01 -0.442,-2.005 -0.515,-3.031 L -9.764,37.388 -9.849,34.317 C -9.939,30.224 -9.396,26.138 -8.435,22.182 -6.455,14.271 -2.438,6.924 3.088,1.009 L 3.974,0.061 C 3.974,0.061 0.738,-0.053 0,0"
           style="fill:#ff737d;fill-opacity:1;fill-rule:nonzero;stroke:none"
           id="path442" />
      </g>
      <g
         id="g444"
         transform="matrix(0.41905641,0,0,-0.41905641,-46.044535,202.35076)">
        <path
           d="m 0,0 c -4.344,-0.963 -8.795,-1.482 -13.281,-1.508 -4.51,0.055 -8.965,0.925 -13.282,2.188 -4.316,1.29 -8.505,3.031 -12.47,5.237 -3.955,2.214 -7.646,4.899 -10.864,8.249 l -0.926,0.99 c 0,0 3.184,0.046 3.972,0.077 2.613,-2.819 5.67,-5.259 8.982,-7.353 3.688,-2.319 7.66,-4.231 11.791,-5.712 4.134,-1.455 8.441,-2.539 12.827,-2.827 C -8.85,-0.894 -4.394,-0.687 0,0"
           style="fill:#fff4c0;fill-opacity:1;fill-rule:nonzero;stroke:none"
           id="path446" />
      </g>
      <g
         id="g448"
         transform="matrix(0.41905641,0,0,-0.41905641,-19.725027,233.31202)">
        <path
           d="m 0,0 h 3.396 v -71.259 c 0,-8.564 -2.559,-10.284 -6.689,-10.284 -0.575,0 -1.174,0.088 -1.768,0.235 v -4.467 c 0.673,-0.15 1.376,-0.25 2.105,-0.25 7.309,0 11.172,4.795 11.172,13.868 V 0 H 8.217 V 4.621 H 0 Z"
           style="fill:#ffffff;fill-opacity:1;fill-rule:nonzero;stroke:none"
           id="path450" />
      </g>
      <g
         id="g452"
         transform="matrix(0.41905641,0,0,-0.41905641,-76.557499,258.11534)">
        <path
           d="m 0,0 h -13.789 v 0.001 h -0.539 V 59.212 H 0 c 26.542,0 30.505,-18.619 30.505,-29.718 C 30.505,18.479 26.542,0 0,0 M -0.112,63.807 H -13.81 v 10e-4 h -8.991 v -4.595 h 3.654 V 0.001 h -3.63 v -4.596 h 8.988 13.677 c 22.52,0 35.436,12.425 35.436,34.089 0,21.485 -13.247,34.313 -35.436,34.313"
           style="fill:#ffffff;fill-opacity:1;fill-rule:nonzero;stroke:none"
           id="path454" />
      </g>
      <g
         id="g456"
         transform="matrix(0.41905641,0,0,-0.41905641,-40.734714,258.77419)">
        <path
           d="m 0,0 c -17.365,0 -29.493,12.821 -29.493,31.179 0,18.357 12.128,31.177 29.493,31.177 17.365,0 29.494,-12.82 29.494,-31.177 C 29.494,12.821 17.365,0 0,0 m 0,66.951 c -19.882,0 -34.313,-15.044 -34.313,-35.772 0,-20.729 14.431,-35.774 34.313,-35.774 19.883,0 34.313,15.045 34.313,35.774 0,20.728 -14.43,35.772 -34.313,35.772"
           style="fill:#ffffff;fill-opacity:1;fill-rule:nonzero;stroke:none"
           id="path458" />
      </g>
      <g
         id="g460"
         transform="matrix(0.41905641,0,0,-0.41905641,6.1509093,258.77419)">
        <path
           d="m 0,0 c -17.365,0 -29.493,12.821 -29.493,31.179 0,18.357 12.128,31.177 29.493,31.177 17.365,0 29.494,-12.82 29.494,-31.177 C 29.494,12.821 17.365,0 0,0 m 0,66.951 c -19.882,0 -34.313,-15.044 -34.313,-35.772 0,-20.729 14.431,-35.774 34.313,-35.774 19.883,0 34.313,15.045 34.313,35.774 0,20.728 -14.43,35.772 -34.313,35.772"
           style="fill:#ffffff;fill-opacity:1;fill-rule:nonzero;stroke:none"
           id="path462" />
      </g>
    </g>
  </g>
</svg>
