<?xml version="1.0" encoding="UTF-8" standalone="no"?>
<svg
   xmlns:dc="http://purl.org/dc/elements/1.1/"
   xmlns:cc="http://creativecommons.org/ns#"
   xmlns:rdf="http://www.w3.org/1999/02/22-rdf-syntax-ns#"
   xmlns:svg="http://www.w3.org/2000/svg"
   xmlns="http://www.w3.org/2000/svg"
   id="svg20781"
   version="1.1"
   viewBox="0 0 132.29167 37.620945"
   height="37.620945mm"
   width="132.29167mm">
  <defs
     id="defs20775">
    <clipPath
       id="clipPath4608"
       clipPathUnits="userSpaceOnUse">
      <path
         id="path4606"
         d="m 233.734,159.416 c 0,-5.317 1.528,-10.275 4.159,-14.471 v 0 c 5.277,-2.028 10.292,-2.871 15.065,-2.806 v 0 h 0.001 c -3.574,3.944 -5.751,9.177 -5.751,14.92 v 0 c 0,10.113 6.756,18.643 16,21.337 v 0 c -4.417,2.141 -7.37,4.734 -9.333,7.35 v 0 c -11.602,-3.14 -20.141,-13.735 -20.141,-26.33" />
    </clipPath>
    <linearGradient
       id="linearGradient4620"
       spreadMethod="pad"
       gradientTransform="matrix(-22.228998,-61.073608,-61.073608,22.228998,262.39148,205.51619)"
       gradientUnits="userSpaceOnUse"
       y2="0"
       x2="1"
       y1="0"
       x1="0">
      <stop
         id="stop4614"
         offset="0"
         style="stop-opacity:1;stop-color:#000000" />
      <stop
         id="stop4616"
         offset="0.71459707"
         style="stop-opacity:1;stop-color:#ff1d25" />
      <stop
         id="stop4618"
         offset="1"
         style="stop-opacity:1;stop-color:#ff1d25" />
    </linearGradient>
    <clipPath
       id="clipPath4560"
       clipPathUnits="userSpaceOnUse">
      <path
         id="path4558"
         d="M 0,1544 H 3116.844 V 0 H 0 Z" />
    </clipPath>
    <clipPath
       id="clipPath4568"
       clipPathUnits="userSpaceOnUse">
      <path
         id="path4566"
         d="m 299.524,125.399 h 14.378 v -12.94 h -14.378 z" />
    </clipPath>
    <clipPath
       id="clipPath4584"
       clipPathUnits="userSpaceOnUse">
      <path
         id="path4582"
         d="m 304.7,128.58 h 7.762 v -5.465 H 304.7 Z" />
    </clipPath>
    <clipPath
       id="clipPath4540"
       clipPathUnits="userSpaceOnUse">
      <path
         id="path4538"
         d="m 287.039,129.118 c -0.006,-0.016 -0.009,-0.032 -0.014,-0.048 v 0 c -3.747,-3.279 -3.484,-7.565 -3.304,-8.847 v 0 c 1.224,-3.77 4.203,-6.903 8.28,-8.151 v 0 c 4.296,-1.315 8.754,-0.215 11.918,2.52 v 0 c -2.629,-1.192 -5.685,-1.47 -8.661,-0.558 v 0 c -6.402,1.959 -10.034,8.674 -8.217,15.084 v 0 z" />
    </clipPath>
    <linearGradient
       id="linearGradient4550"
       spreadMethod="pad"
       gradientTransform="matrix(33.650913,-8.1470633,-8.1470633,-33.650913,288.69186,120.78401)"
       gradientUnits="userSpaceOnUse"
       y2="0"
       x2="1"
       y1="0"
       x1="0">
      <stop
         id="stop4546"
         offset="0"
         style="stop-opacity:1;stop-color:#2db5f9" />
      <stop
         id="stop4548"
         offset="1"
         style="stop-opacity:1;stop-color:#000000" />
    </linearGradient>
    <clipPath
       id="clipPath4474"
       clipPathUnits="userSpaceOnUse">
      <path
         id="path4472"
         d="M 0,1544 H 3116.844 V 0 H 0 Z" />
    </clipPath>
    <clipPath
       id="clipPath4482"
       clipPathUnits="userSpaceOnUse">
      <path
         id="path4480"
         d="m 287.025,177.347 h 66.163 v -48.279 h -66.163 z" />
    </clipPath>
    <clipPath
       id="clipPath4486"
       clipPathUnits="userSpaceOnUse">
      <path
         id="path4484"
         d="m 353.188,157.732 c 0,5.547 -1.771,10.679 -4.77,14.872 -2.709,2.627 -6.738,4.463 -11.385,4.744 4.301,-3.721 7.027,-9.214 7.027,-15.348 0,-6.813 -2.473,-14.597 -10.481,-18.788 -11.661,-6.103 -29.554,-3.199 -41.165,-6.966 0.016,0.005 0.032,0.01 0.048,0.015 -2.478,-1.51 -4.436,-3.897 -5.352,-6.89 -0.031,-0.1 -0.057,-0.202 -0.085,-0.304 3.403,2.979 10.112,5.127 23.202,3.443 9.346,-1.203 16.772,-1.532 23.146,0.299 6.373,1.381 11.523,5.049 15.155,10.206 l 10e-4,0.001 c 2.931,4.164 4.659,9.237 4.659,14.716" />
    </clipPath>
    <mask
       id="mask4498"
       height="1"
       width="1"
       y="0"
       x="0"
       maskUnits="userSpaceOnUse">
      <g
         id="g4508">
        <g
           id="g4506"
           clip-path="url(#clipPath4490)">
          <g
             id="g4504">
            <g
               id="g4502">
              <path
                 id="path4500"
                 style="fill:url(#linearGradient4496);stroke:none"
                 d="M -32768,32767 H 32767 V -32768 H -32768 Z" />
            </g>
          </g>
        </g>
      </g>
    </mask>
    <clipPath
       id="clipPath4490"
       clipPathUnits="userSpaceOnUse">
      <path
         id="path4488"
         d="M -32768,32767 H 32767 V -32768 H -32768 Z" />
    </clipPath>
    <linearGradient
       id="linearGradient4496"
       spreadMethod="pad"
       gradientTransform="matrix(-4.7900872,-16.166544,-16.166544,4.7900872,332.4939,183.35352)"
       gradientUnits="userSpaceOnUse"
       y2="0"
       x2="1"
       y1="0"
       x1="0">
      <stop
         id="stop4492"
         offset="0"
         style="stop-opacity:1;stop-color:#ffffff" />
      <stop
         id="stop4494"
         offset="1"
         style="stop-opacity:0;stop-color:#ffffff" />
    </linearGradient>
    <linearGradient
       id="linearGradient4514"
       spreadMethod="pad"
       gradientTransform="matrix(-4.7900872,-16.166544,-16.166544,4.7900872,332.4939,183.35352)"
       gradientUnits="userSpaceOnUse"
       y2="0"
       x2="1"
       y1="0"
       x1="0">
      <stop
         id="stop4510"
         offset="0"
         style="stop-opacity:1;stop-color:#000000" />
      <stop
         id="stop4512"
         offset="1"
         style="stop-opacity:1;stop-color:#000000" />
    </linearGradient>
    <clipPath
       id="clipPath4454"
       clipPathUnits="userSpaceOnUse">
      <path
         id="path4452"
         d="m 344.06,162 c 0,-6.812 -2.472,-14.597 -10.481,-18.788 v 0 c -11.661,-6.102 -29.554,-3.199 -41.165,-6.966 v 0 c 0.016,0.005 0.032,0.009 0.048,0.015 v 0 c -2.478,-1.51 -4.436,-3.897 -5.352,-6.89 v 0 c -0.032,-0.1 -0.057,-0.202 -0.085,-0.304 v 0 c 3.403,2.979 10.112,5.127 23.202,3.443 v 0 c 9.346,-1.204 16.772,-1.532 23.146,0.299 v 0 c 6.372,1.381 11.523,5.049 15.155,10.205 v 0 l 10e-4,10e-4 c 2.932,4.165 4.659,9.238 4.659,14.717 v 0 c 0,5.547 -1.77,10.679 -4.769,14.872 v 0 c -2.709,2.628 -6.739,4.464 -11.386,4.744 v 0 c 4.302,-3.721 7.027,-9.215 7.027,-15.348" />
    </clipPath>
    <linearGradient
       id="linearGradient4464"
       spreadMethod="pad"
       gradientTransform="matrix(118.33012,92.284027,92.284027,-118.33012,244.95862,83.155456)"
       gradientUnits="userSpaceOnUse"
       y2="0"
       x2="1"
       y1="0"
       x1="0">
      <stop
         id="stop4460"
         offset="0"
         style="stop-opacity:1;stop-color:#000000" />
      <stop
         id="stop4462"
         offset="1"
         style="stop-opacity:1;stop-color:#d23de2" />
    </linearGradient>
    <clipPath
       id="clipPath4434"
       clipPathUnits="userSpaceOnUse">
      <path
         id="path4432"
         d="m 292.413,136.248 c -0.844,-0.273 -1.643,-0.579 -2.394,-0.921 v 0 c -2.953,-1.49 -5.319,-4.129 -6.364,-7.541 v 0 c -0.358,-1.17 -0.533,-2.352 -0.55,-3.518 v 0 c 0.013,-2.342 0.597,-3.988 0.617,-4.051 v 0 c -0.18,1.276 -0.449,5.569 3.303,8.853 v 0 c 0.028,0.102 0.053,0.202 0.085,0.304 v 0 c 0.916,2.993 2.874,5.38 5.352,6.89 v 0 c -0.016,-0.005 -0.033,-0.011 -0.049,-0.016" />
    </clipPath>
    <linearGradient
       id="linearGradient4444"
       spreadMethod="pad"
       gradientTransform="matrix(9.357192,0,0,-9.357192,283.10544,128.2403)"
       gradientUnits="userSpaceOnUse"
       y2="0"
       x2="1"
       y1="0"
       x1="0">
      <stop
         id="stop4440"
         offset="0"
         style="stop-opacity:1;stop-color:#c297ff" />
      <stop
         id="stop4442"
         offset="1"
         style="stop-opacity:1;stop-color:#ae31bb" />
    </linearGradient>
    <clipPath
       id="clipPath4414"
       clipPathUnits="userSpaceOnUse">
      <path
         id="path4412"
         d="m 313.39,179.429 c 0.187,0.116 0.373,0.227 0.559,0.337 v 0 c -15.542,-9.155 -34.592,-37.271 -60.991,-37.627 v 0 c 4.068,-4.489 9.944,-7.31 16.478,-7.31 v 0 c 1.386,0 4.05,0.247 5.458,0.496 v 0 c 17.178,7.079 33.685,24.007 41.171,32.212 v 0 c 6.944,7.611 14.546,10.198 20.968,9.811 v 0 c -3.557,3.075 -8.19,4.94 -13.261,4.94 v 0 c -3.795,0 -7.344,-1.045 -10.382,-2.859" />
    </clipPath>
    <linearGradient
       id="linearGradient4424"
       spreadMethod="pad"
       gradientTransform="matrix(119.00374,61.747219,61.747219,-119.00374,261.24615,140.2023)"
       gradientUnits="userSpaceOnUse"
       y2="0"
       x2="1"
       y1="0"
       x1="0">
      <stop
         id="stop4420"
         offset="0"
         style="stop-opacity:1;stop-color:#34e28b" />
      <stop
         id="stop4422"
         offset="1"
         style="stop-opacity:1;stop-color:#000000" />
    </linearGradient>
    <clipPath
       id="clipPath4392"
       clipPathUnits="userSpaceOnUse">
      <path
         id="path4390"
         d="m 318.31,181.832 c -1.602,-0.548 -3.244,-1.375 -4.923,-2.406 v 0 c 3.038,1.812 6.59,2.862 10.385,2.862 v 0 c 5.071,0 9.704,-1.865 13.261,-4.94 v 0 c 4.666,-0.283 8.712,-2.132 11.421,-4.778 v 0 c 0,0 -7.479,10.864 -20.969,10.865 v 0 c -2.803,0 -5.865,-0.469 -9.175,-1.603" />
    </clipPath>
    <linearGradient
       id="linearGradient4404"
       spreadMethod="pad"
       gradientTransform="matrix(3.8171005,3.1434946,3.1434946,-3.8171005,333.52441,178.14215)"
       gradientUnits="userSpaceOnUse"
       y2="0"
       x2="1"
       y1="0"
       x1="0">
      <stop
         id="stop4398"
         offset="0"
         style="stop-opacity:1;stop-color:#5bcb99" />
      <stop
         id="stop4400"
         offset="0.00045634"
         style="stop-opacity:1;stop-color:#5bcb99" />
      <stop
         id="stop4402"
         offset="1"
         style="stop-opacity:1;stop-color:#85a8e8" />
    </linearGradient>
    <clipPath
       id="clipPath4372"
       clipPathUnits="userSpaceOnUse">
      <path
         id="path4370"
         d="M 0,1544 H 3116.844 V 0 H 0 Z" />
    </clipPath>
    <clipPath
       id="clipPath4352"
       clipPathUnits="userSpaceOnUse">
      <path
         id="path4350"
         d="m 238.208,144.455 c 1.757,-2.456 3.614,-4.498 5.551,-6.165 v 0 c 4.701,-3.845 10.71,-6.156 17.257,-6.156 v 0 c 0.388,0 0.785,0.014 1.187,0.031 v 0 c 4.188,0.271 8.46,1.417 12.692,3.16 v 0 c -1.409,-0.249 -4.073,-0.496 -5.459,-0.496 v 0 c -6.534,0 -12.41,2.821 -16.478,7.31 v 0 c -4.773,-0.065 -9.788,0.778 -15.065,2.806 v 0 c 0.104,-0.165 0.208,-0.328 0.315,-0.49" />
    </clipPath>
    <linearGradient
       id="linearGradient4362"
       spreadMethod="pad"
       gradientTransform="matrix(0,10.350568,10.350568,0,256.39383,132.73361)"
       gradientUnits="userSpaceOnUse"
       y2="0"
       x2="1"
       y1="0"
       x1="0">
      <stop
         id="stop4358"
         offset="0"
         style="stop-opacity:1;stop-color:#fffa8f" />
      <stop
         id="stop4360"
         offset="1"
         style="stop-opacity:1;stop-color:#fb784b" />
    </linearGradient>
    <mask
       id="mask4320"
       height="1"
       width="1"
       y="0"
       x="0"
       maskUnits="userSpaceOnUse">
      <g
         id="g4330">
        <g
           id="g4328"
           clip-path="url(#clipPath4310)">
          <g
             id="g4326">
            <g
               id="g4324">
              <path
                 id="path4322"
                 style="fill:url(#linearGradient4318);stroke:none"
                 d="M -32768,32767 H 32767 V -32768 H -32768 Z" />
            </g>
          </g>
        </g>
      </g>
    </mask>
    <clipPath
       id="clipPath4310"
       clipPathUnits="userSpaceOnUse">
      <path
         id="path4308"
         d="M -32768,32767 H 32767 V -32768 H -32768 Z" />
    </clipPath>
    <linearGradient
       id="linearGradient4318"
       spreadMethod="pad"
       gradientTransform="matrix(-0.097623,-0.426894,-0.426894,0.097623,253.00787,142.35222)"
       gradientUnits="userSpaceOnUse"
       y2="0"
       x2="1"
       y1="0"
       x1="0">
      <stop
         id="stop4312"
         offset="0"
         style="stop-opacity:0.50000763;stop-color:#ffffff" />
      <stop
         id="stop4314"
         offset="0.71459707"
         style="stop-opacity:1;stop-color:#ffffff" />
      <stop
         id="stop4316"
         offset="1"
         style="stop-opacity:1;stop-color:#ffffff" />
    </linearGradient>
    <linearGradient
       id="linearGradient4342"
       spreadMethod="pad"
       gradientTransform="matrix(-0.097623,0.426894,-0.426894,-0.097623,-69.6585,2680.0909)"
       gradientUnits="userSpaceOnUse"
       y2="0"
       x2="1"
       y1="0"
       x1="0">
      <stop
         id="stop4336"
         offset="0"
         style="stop-opacity:1;stop-color:#ff1d25" />
      <stop
         id="stop4338"
         offset="0.71459707"
         style="stop-opacity:1;stop-color:#ff1d25" />
      <stop
         id="stop4340"
         offset="1"
         style="stop-opacity:1;stop-color:#ff1d25" />
    </linearGradient>
  </defs>
  <metadata
     id="metadata20778">
    <rdf:RDF>
      <cc:Work
         rdf:about="">
        <dc:format>image/svg+xml</dc:format>
        <dc:type
           rdf:resource="http://purl.org/dc/dcmitype/StillImage" />
        <dc:title></dc:title>
      </cc:Work>
    </rdf:RDF>
  </metadata>
  <g
     transform="translate(36.296951,-209.79732)"
     id="layer1">
    <g
       transform="matrix(1.1373477,0,0,1.1373477,4.9853008,-33.982316)"
       id="g21507">
      <g
         id="g1910"
         transform="matrix(0.35277777,0,0,-0.35277777,55.450386,222.85733)">
        <path
           d="m 0,0 h 2.427 v -50.42 c 0,-6.325 -2.025,-6.849 -4.281,-6.849 -0.348,0 -0.732,0.052 -1.142,0.154 l -0.62,0.154 v -4.233 l 0.391,-0.087 c 0.58,-0.128 1.108,-0.191 1.613,-0.191 5.47,0 8.483,3.698 8.483,10.41 L 6.872,4.302 H 0 Z"
           style="fill:#000000;fill-opacity:1;fill-rule:nonzero;stroke:none"
           id="path1912" />
      </g>
      <g
         id="g1914"
         transform="matrix(0.35277777,0,0,-0.35277777,28.952119,230.16644)">
        <path
           d="m 0,0 c 0,-7.685 -2.767,-20.576 -21.298,-20.576 l -9.738,0.001 v 41.31 h 9.738 C -2.767,20.735 0,7.744 0,0 M -21.378,25.019 -38.09,25.02 v -4.284 h 2.61 v -41.311 h -2.593 v -4.284 h 16.695 c 16.41,0 25.822,9.06 25.822,24.859 0,15.666 -9.653,25.019 -25.822,25.019"
           style="fill:#000000;fill-opacity:1;fill-rule:nonzero;stroke:none"
           id="path1916" />
      </g>
      <g
         id="g1918"
         transform="matrix(0.35277777,0,0,-0.35277777,50.246915,230.13819)">
        <path
           d="m 0,0 c 0,-12.823 -8.461,-21.779 -20.575,-21.779 -12.115,0 -20.576,8.956 -20.576,21.779 0,12.823 8.461,21.779 20.576,21.779 C -8.461,21.779 0,12.823 0,0 m -20.575,26.062 c -14.497,0 -25.02,-10.96 -25.02,-26.062 0,-15.102 10.523,-26.062 25.02,-26.062 14.497,0 25.018,10.96 25.018,26.062 0,15.102 -10.521,26.062 -25.018,26.062"
           style="fill:#000000;fill-opacity:1;fill-rule:nonzero;stroke:none"
           id="path1920" />
      </g>
      <g
         id="g1922"
         transform="matrix(0.35277777,0,0,-0.35277777,78.451251,230.13819)">
        <path
           d="m 0,0 c 0,-12.823 -8.461,-21.779 -20.575,-21.779 -12.114,0 -20.575,8.956 -20.575,21.779 0,12.823 8.461,21.779 20.575,21.779 C -8.461,21.779 0,12.823 0,0 m -20.575,26.062 c -14.497,0 -25.02,-10.96 -25.02,-26.062 0,-15.102 10.523,-26.062 25.02,-26.062 14.497,0 25.019,10.96 25.019,26.062 0,15.102 -10.522,26.062 -25.019,26.062"
           style="fill:#000000;fill-opacity:1;fill-rule:nonzero;stroke:none"
           id="path1924" />
      </g>
      <g
         transform="matrix(0.35277777,0,0,-0.35277777,-114.59658,286.75936)"
         id="g4332"
         mask="url(#mask4320)">
        <g
           id="g4334"
           transform="translate(252.9585,142.1387)">
          <path
             d="M 0,0 H 0.001"
             style="fill:none;stroke:url(#linearGradient4342);stroke-width:0.449;stroke-linecap:butt;stroke-linejoin:miter;stroke-miterlimit:10;stroke-dasharray:none;stroke-opacity:1"
             id="path4344" />
        </g>
      </g>
      <g
         transform="matrix(0.35277777,0,0,-0.35277777,-114.59658,286.75936)"
         id="g4346">
        <g
           clip-path="url(#clipPath4352)"
           id="g4348">
          <g
             id="g4354" />
          <g
             id="g4356">
            <path
               id="path4364"
               style="fill:url(#linearGradient4362);stroke:none"
               d="m 238.208,144.455 c 1.757,-2.456 3.614,-4.498 5.551,-6.165 v 0 c 4.701,-3.845 10.71,-6.156 17.257,-6.156 v 0 c 0.388,0 0.785,0.014 1.187,0.031 v 0 c 4.188,0.271 8.46,1.417 12.692,3.16 v 0 c -1.409,-0.249 -4.073,-0.496 -5.459,-0.496 v 0 c -6.534,0 -12.41,2.821 -16.478,7.31 v 0 c -4.773,-0.065 -9.788,0.778 -15.065,2.806 v 0 c 0.104,-0.165 0.208,-0.328 0.315,-0.49" />
          </g>
        </g>
      </g>
      <g
         transform="matrix(0.35277777,0,0,-0.35277777,-114.59658,286.75936)"
         id="g4366">
        <g
           clip-path="url(#clipPath4372)"
           id="g4368" />
        <g
           transform="translate(261.0161,186.6973)"
           id="g4374">
          <path
             id="path4376"
             style="fill:#f15a24;fill-opacity:1;fill-rule:nonzero;stroke:none"
             d="m 0,0 c 9.903,0 18.574,-5.277 23.354,-13.174 -3.947,3.582 -9.185,5.764 -14.934,5.764 -2.163,0 -4.252,-0.315 -6.229,-0.891 4.978,-2.413 11.81,-4.251 21.19,-4.892 0,0 -0.464,8.931 -11.889,13.595 -15.954,6.513 -18.214,5.216 -22.256,11.952 0,0 -1.314,-6.723 3.622,-13.305 C -4.864,-0.335 -2.472,0 0,0" />
        </g>
        <g
           transform="translate(272.5083,187.0996)"
           id="g4378">
          <path
             id="path4380"
             style="fill:#ed1c24;fill-opacity:1;fill-rule:nonzero;stroke:none"
             d="m 0,0 c -5.463,2.23 -9.32,3.544 -12.193,4.579 0.643,-1.64 1.594,-3.349 2.955,-5.077 8.955,-0.732 16.686,-5.787 21.099,-13.078 -3.341,3.033 -7.612,5.057 -12.334,5.607 3.2,-1.957 7.146,-3.849 12.009,-5.599 0.119,-0.009 0.234,-0.02 0.353,-0.028 0,0 -0.464,8.932 -11.889,13.596" />
        </g>
        <g
           transform="translate(284.3813,173.5049)"
           id="g4382">
          <path
             id="path4384"
             style="fill:#c1272d;fill-opacity:1;fill-rule:nonzero;stroke:none"
             d="m 0,0 c 0.001,-0.002 0.002,-0.004 0.004,-0.006 0.012,-0.001 0.024,-0.002 0.036,-0.004 0.006,0.001 0.013,0.002 0.02,0.002 0.175,0.973 1.246,8.688 -7.447,15.438 -12.979,10.08 -15.515,11.014 -16.132,16.347 0,0 -3.497,-6.081 -0.547,-13.603 2.873,-1.035 6.73,-2.349 12.193,-4.579 C -0.448,8.931 0.016,-0.001 0.016,-0.001 0.011,-0.001 0.005,-0.001 0,0" />
        </g>
      </g>
      <g
         transform="matrix(0.35277777,0,0,-0.35277777,-114.59658,286.75936)"
         id="g4386">
        <g
           clip-path="url(#clipPath4392)"
           id="g4388">
          <g
             id="g4394" />
          <g
             id="g4396">
            <path
               id="path4406"
               style="fill:url(#linearGradient4404);stroke:none"
               d="m 318.31,181.832 c -1.602,-0.548 -3.244,-1.375 -4.923,-2.406 v 0 c 3.038,1.812 6.59,2.862 10.385,2.862 v 0 c 5.071,0 9.704,-1.865 13.261,-4.94 v 0 c 4.666,-0.283 8.712,-2.132 11.421,-4.778 v 0 c 0,0 -7.479,10.864 -20.969,10.865 v 0 c -2.803,0 -5.865,-0.469 -9.175,-1.603" />
          </g>
        </g>
      </g>
      <g
         transform="matrix(0.35277777,0,0,-0.35277777,-114.59658,286.75936)"
         id="g4408">
        <g
           clip-path="url(#clipPath4414)"
           id="g4410">
          <g
             id="g4416" />
          <g
             id="g4418">
            <path
               id="path4426"
               style="fill:url(#linearGradient4424);stroke:none"
               d="m 313.39,179.429 c 0.187,0.116 0.373,0.227 0.559,0.337 v 0 c -15.542,-9.155 -34.592,-37.271 -60.991,-37.627 v 0 c 4.068,-4.489 9.944,-7.31 16.478,-7.31 v 0 c 1.386,0 4.05,0.247 5.458,0.496 v 0 c 17.178,7.079 33.685,24.007 41.171,32.212 v 0 c 6.944,7.611 14.546,10.198 20.968,9.811 v 0 c -3.557,3.075 -8.19,4.94 -13.261,4.94 v 0 c -3.795,0 -7.344,-1.045 -10.382,-2.859" />
          </g>
        </g>
      </g>
      <g
         transform="matrix(0.35277777,0,0,-0.35277777,-114.59658,286.75936)"
         id="g4428">
        <g
           clip-path="url(#clipPath4434)"
           id="g4430">
          <g
             id="g4436" />
          <g
             id="g4438">
            <path
               id="path4446"
               style="fill:url(#linearGradient4444);stroke:none"
               d="m 292.413,136.248 c -0.844,-0.273 -1.643,-0.579 -2.394,-0.921 v 0 c -2.953,-1.49 -5.319,-4.129 -6.364,-7.541 v 0 c -0.358,-1.17 -0.533,-2.352 -0.55,-3.518 v 0 c 0.013,-2.342 0.597,-3.988 0.617,-4.051 v 0 c -0.18,1.276 -0.449,5.569 3.303,8.853 v 0 c 0.028,0.102 0.053,0.202 0.085,0.304 v 0 c 0.916,2.993 2.874,5.38 5.352,6.89 v 0 c -0.016,-0.005 -0.033,-0.011 -0.049,-0.016" />
          </g>
        </g>
      </g>
      <g
         transform="matrix(0.35277777,0,0,-0.35277777,-114.59658,286.75936)"
         id="g4448">
        <g
           clip-path="url(#clipPath4454)"
           id="g4450">
          <g
             id="g4456" />
          <g
             id="g4458">
            <path
               id="path4466"
               style="fill:url(#linearGradient4464);stroke:none"
               d="m 344.06,162 c 0,-6.812 -2.472,-14.597 -10.481,-18.788 v 0 c -11.661,-6.102 -29.554,-3.199 -41.165,-6.966 v 0 c 0.016,0.005 0.032,0.009 0.048,0.015 v 0 c -2.478,-1.51 -4.436,-3.897 -5.352,-6.89 v 0 c -0.032,-0.1 -0.057,-0.202 -0.085,-0.304 v 0 c 3.403,2.979 10.112,5.127 23.202,3.443 v 0 c 9.346,-1.204 16.772,-1.532 23.146,0.299 v 0 c 6.372,1.381 11.523,5.049 15.155,10.205 v 0 l 10e-4,10e-4 c 2.932,4.165 4.659,9.238 4.659,14.717 v 0 c 0,5.547 -1.77,10.679 -4.769,14.872 v 0 c -2.709,2.628 -6.739,4.464 -11.386,4.744 v 0 c 4.302,-3.721 7.027,-9.215 7.027,-15.348" />
          </g>
        </g>
      </g>
      <g
         transform="matrix(0.35277777,0,0,-0.35277777,-114.59658,286.75936)"
         id="g4468">
        <g
           clip-path="url(#clipPath4474)"
           id="g4470">
          <g
             id="g4476" />
          <g
             id="g4478" />
          <g
             id="g4532">
            <g
               style="opacity:0.49000501"
               id="g4530"
               clip-path="url(#clipPath4482)">
              <g
                 id="g4528">
                <g
                   id="g4526"
                   clip-path="url(#clipPath4486)">
                  <g
                     id="g4524">
                    <g
                       id="g4516" />
                    <g
                       id="g4522"
                       mask="url(#mask4498)">
                      <g
                         id="g4520">
                        <path
                           id="path4518"
                           style="fill:url(#linearGradient4514);stroke:none"
                           d="m 353.188,157.732 c 0,5.547 -1.771,10.679 -4.77,14.872 -2.709,2.627 -6.738,4.463 -11.385,4.744 4.301,-3.721 7.027,-9.214 7.027,-15.348 0,-6.813 -2.473,-14.597 -10.481,-18.788 -11.661,-6.103 -29.554,-3.199 -41.165,-6.966 0.016,0.005 0.032,0.01 0.048,0.015 -2.478,-1.51 -4.436,-3.897 -5.352,-6.89 -0.031,-0.1 -0.057,-0.202 -0.085,-0.304 3.403,2.979 10.112,5.127 23.202,3.443 9.346,-1.203 16.772,-1.532 23.146,0.299 6.373,1.381 11.523,5.049 15.155,10.206 l 10e-4,0.001 c 2.931,4.164 4.659,9.237 4.659,14.716" />
                      </g>
                    </g>
                  </g>
                </g>
              </g>
            </g>
          </g>
        </g>
      </g>
      <g
         transform="matrix(0.35277777,0,0,-0.35277777,-114.59658,286.75936)"
         id="g4534">
        <g
           clip-path="url(#clipPath4540)"
           id="g4536">
          <g
             id="g4542" />
          <g
             id="g4544">
            <path
               id="path4552"
               style="fill:url(#linearGradient4550);stroke:none"
               d="m 287.039,129.118 c -0.006,-0.016 -0.009,-0.032 -0.014,-0.048 v 0 c -3.747,-3.279 -3.484,-7.565 -3.304,-8.847 v 0 c 1.224,-3.77 4.203,-6.903 8.28,-8.151 v 0 c 4.296,-1.315 8.754,-0.215 11.918,2.52 v 0 c -2.629,-1.192 -5.685,-1.47 -8.661,-0.558 v 0 c -6.402,1.959 -10.034,8.674 -8.217,15.084 v 0 z" />
          </g>
        </g>
      </g>
      <g
         transform="matrix(0.35277777,0,0,-0.35277777,-114.59658,286.75936)"
         id="g4554">
        <g
           clip-path="url(#clipPath4560)"
           id="g4556">
          <g
             id="g4562" />
          <g
             id="g4564" />
          <g
             id="g4576">
            <g
               id="g4574"
               clip-path="url(#clipPath4568)">
              <g
                 id="g4572"
                 transform="translate(299.5239,114.9209)">
                <path
                   id="path4570"
                   style="fill:#2db5f9;fill-opacity:1;fill-rule:nonzero;stroke:none"
                   d="m 0,0 c 1.274,3.708 5.389,9.431 9.805,6.811 0,0 3.592,-2.021 4.341,3.668 0,0 2.694,-13.379 -10.273,-12.93 0,0 2.919,2.133 2.892,4.322 C 6.764,1.899 3.677,-0.01 0,0" />
              </g>
            </g>
          </g>
          <g
             id="g4578" />
          <g
             id="g4580" />
          <g
             id="g4592">
            <g
               id="g4590"
               clip-path="url(#clipPath4584)">
              <g
                 id="g4588"
                 transform="translate(304.6997,123.1143)">
                <path
                   id="path4586"
                   style="fill:#5fd2ff;fill-opacity:1;fill-rule:nonzero;stroke:none"
                   d="m 0,0 c 1.283,0.654 2.496,1.312 4.854,0.264 1.829,-0.813 4.132,2.364 2.14,5.202 0,0 0.128,-2.93 -2.232,-2.905 C 2.446,2.585 1.059,1.543 0,0" />
              </g>
            </g>
          </g>
        </g>
        <g
           transform="translate(317.7251,165.6807)"
           id="g4594">
          <path
             id="path4596"
             style="fill:#219058;fill-opacity:1;fill-rule:nonzero;stroke:none"
             d="m 0,0 c -3.104,-4.231 -7.656,-7.774 -8.189,-8.644 -0.534,-0.87 0.9,-3.671 3.031,-3.874 2.13,-0.202 0.49,0.815 0.311,1.798 -0.178,0.985 0.635,-0.63 3.167,-0.251 2.534,0.38 -0.917,1.319 -0.682,2.602 0.234,1.282 2.848,3.708 3.887,6.153 1.04,2.446 2.826,0.007 1.913,-1.908 -0.36,-0.757 2.891,2.127 1.25,4.329 C 3.049,2.406 1.81,2.467 0,0" />
        </g>
        <g
           transform="translate(308.8687,156.4277)"
           id="g4598">
          <path
             id="path4600"
             style="fill:#219058;fill-opacity:1;fill-rule:nonzero;stroke:none"
             d="m 0,0 c -0.457,-0.436 -1.803,-1.422 -1.803,-1.422 0,0 1.317,-1.834 3.014,-1.796 0,0 0.364,0.173 -0.16,0.71 C 0.526,-1.971 -0.12,-0.323 0,0" />
        </g>
      </g>
      <g
         transform="matrix(0.35277777,0,0,-0.35277777,-114.59658,286.75936)"
         id="g4602">
        <g
           clip-path="url(#clipPath4608)"
           id="g4604">
          <g
             id="g4610" />
          <g
             id="g4612">
            <path
               id="path4622"
               style="fill:url(#linearGradient4620);stroke:none"
               d="m 233.734,159.416 c 0,-5.317 1.528,-10.275 4.159,-14.471 v 0 c 5.277,-2.028 10.292,-2.871 15.065,-2.806 v 0 h 0.001 c -3.574,3.944 -5.751,9.177 -5.751,14.92 v 0 c 0,10.113 6.756,18.643 16,21.337 v 0 c -4.417,2.141 -7.37,4.734 -9.333,7.35 v 0 c -11.602,-3.14 -20.141,-13.735 -20.141,-26.33" />
          </g>
        </g>
      </g>
      <g
         id="g4632"
         transform="matrix(0.35277777,0,0,-0.35277777,-25.358441,236.61598)">
        <path
           d="M 0,0 H 0.001"
           style="fill:none;stroke:#ffffff;stroke-width:1.12300003;stroke-linecap:butt;stroke-linejoin:miter;stroke-miterlimit:10;stroke-dasharray:none;stroke-opacity:1"
           id="path4634" />
      </g>
      <g
         id="g4636"
         transform="matrix(0.35277777,0,0,-0.35277777,-21.724196,220.93016)">
        <path
           d="m 0,0 c 1.213,-1.748 4.691,-4.766 8.786,-7.473 4.717,-0.552 8.985,-2.575 12.323,-5.606 C 16.694,-5.785 8.959,-0.729 0,0"
           style="fill:#f7b852;fill-opacity:1;fill-rule:nonzero;stroke:none"
           id="path4638" />
      </g>
      <g
         id="g4640"
         transform="matrix(0.35277777,0,0,-0.35277777,-21.724196,220.93016)">
        <path
           d="m 0,0 c -0.74,0.061 -1.488,0.095 -2.244,0.095 -2.472,0 -4.864,-0.335 -7.142,-0.951 1.963,-2.617 4.917,-5.209 9.333,-7.35 1.977,0.576 4.066,0.891 6.229,0.891 0.884,0 1.754,-0.057 2.61,-0.158 C 4.691,-4.766 1.213,-1.748 0,0"
           style="fill:#ff8431;fill-opacity:1;fill-rule:nonzero;stroke:none"
           id="path4642" />
      </g>
      <g
         id="g4644"
         transform="matrix(0.35277777,0,0,-0.35277777,-16.383634,223.12122)">
        <path
           d="M 0,0 C 0.144,0 -3.33,3.144 -7.335,4.378 -5.565,1.032 -4.049,0 0,0"
           style="fill:#ffffff;fill-opacity:1;fill-rule:nonzero;stroke:none"
           id="path4646" />
      </g>
      <g
         id="g4648"
         transform="matrix(0.35277777,0,0,-0.35277777,-19.104889,218.09448)">
        <path
           d="M 0,0 C 1.74,-1.011 3.298,-2.278 3.93,-2.751 4.244,-2.986 3.368,-0.618 2.357,-0.169 1.348,0.28 0,0 0,0"
           style="fill:#c1272d;fill-opacity:1;fill-rule:nonzero;stroke:none"
           id="path4650" />
      </g>
      <g
         id="g4652"
         transform="matrix(0.35277777,0,0,-0.35277777,-17.395435,219.30543)">
        <path
           d="M 0,0 C 1.73,-1.027 3.49,-2.494 3.902,-2.789 4.222,-3.019 3.361,-0.651 2.355,-0.192 1.35,0.267 0,0 0,0"
           style="fill:#c1272d;fill-opacity:1;fill-rule:nonzero;stroke:none"
           id="path4654" />
      </g>
      <g
         id="g4656"
         transform="matrix(0.35277777,0,0,-0.35277777,-15.784863,220.49021)">
        <path
           d="M 0,0 C 1.423,-1.367 1.858,-2.266 2.111,-2.635 2.268,-2.863 2.153,-1.083 1.56,-0.579 0.966,-0.076 0,0 0,0"
           style="fill:#c1272d;fill-opacity:1;fill-rule:nonzero;stroke:none"
           id="path4658" />
      </g>
      <g
         id="g4660"
         transform="matrix(0.35277777,0,0,-0.35277777,-23.20251,235.74233)">
        <path
           d="M 0,0 C -0.122,0.393 1.409,0.887 1.816,0.91 2.225,0.934 3.745,0.36 3.958,0.197 3.49,-0.037 1.731,-0.448 1.021,-0.421 0.533,-0.368 0,0 0,0"
           style="fill:#44c688;fill-opacity:1;fill-rule:nonzero;stroke:none"
           id="path4662" />
      </g>
      <g
         id="g4664"
         transform="matrix(0.35277777,0,0,-0.35277777,-21.257047,235.28274)">
        <path
           d="M 0,0 C -0.131,0.303 1.053,0.826 1.377,0.879 1.701,0.932 2.966,0.601 3.149,0.487 2.795,0.261 1.422,-0.215 0.851,-0.252 0.457,-0.251 0,0 0,0"
           style="fill:#44c688;fill-opacity:1;fill-rule:nonzero;stroke:none"
           id="path4666" />
      </g>
      <g
         id="g4668"
         transform="matrix(0.35277777,0,0,-0.35277777,-19.628907,234.68502)">
        <path
           d="M 0,0 C -0.134,0.238 0.792,0.773 1.055,0.846 1.316,0.918 2.386,0.758 2.547,0.682 2.275,0.464 1.188,-0.05 0.723,-0.131 0.398,-0.165 0,0 0,0"
           style="fill:#44c688;fill-opacity:1;fill-rule:nonzero;stroke:none"
           id="path4670" />
      </g>
      <g
         id="g4672"
         transform="matrix(0.35277777,0,0,-0.35277777,-18.334566,234.09693)">
        <path
           d="M 0,0 C -0.14,0.208 0.668,0.762 0.902,0.847 1.136,0.931 2.123,0.86 2.275,0.803 2.043,0.584 1.088,0.039 0.669,-0.068 0.375,-0.122 0,0 0,0"
           style="fill:#44c688;fill-opacity:1;fill-rule:nonzero;stroke:none"
           id="path4674" />
      </g>
      <g
         id="g4676"
         transform="matrix(0.35277777,0,0,-0.35277777,-17.125348,233.43585)">
        <path
           d="M 0,0 C -0.132,0.173 0.543,0.694 0.742,0.779 0.941,0.864 1.802,0.852 1.937,0.809 1.746,0.608 0.943,0.087 0.584,-0.026 0.332,-0.088 0,0 0,0"
           style="fill:#44c688;fill-opacity:1;fill-rule:nonzero;stroke:none"
           id="path4678" />
      </g>
      <g
         id="g4680"
         transform="matrix(0.35277777,0,0,-0.35277777,-25.151748,235.89806)">
        <path
           d="M 0,0 C -0.062,0.436 1.641,0.699 2.076,0.655 2.512,0.61 4.023,-0.253 4.221,-0.462 3.686,-0.631 1.755,-0.768 1.008,-0.618 0.502,-0.48 0,0 0,0"
           style="fill:#44c688;fill-opacity:1;fill-rule:nonzero;stroke:none"
           id="path4682" />
      </g>
      <g
         id="g4684"
         transform="matrix(0.35277777,0,0,-0.35277777,-24.783131,217.7052)">
        <path
           d="m 0,0 c 1.192,-1.361 4.013,-2.245 4.013,-2.245 0,0 -0.673,1.566 -0.561,4.547 C 3.456,2.409 0,2.357 -0.59,5.192 -0.708,5.759 -1.193,1.361 0,0"
           style="fill:#c1272d;fill-opacity:1;fill-rule:nonzero;stroke:none"
           id="path4686" />
      </g>
      <g
         id="g4688"
         transform="matrix(0.35277777,0,0,-0.35277777,-28.923437,240.76872)">
        <path
           d="M 0,0 C 0.147,0.99 0.594,1.824 1.348,2.332 1.384,2.356 1.423,2.374 1.46,2.396 1.183,2.468 0.895,2.501 0.602,2.545 -3.512,3.158 -4.556,0.708 -4.772,-2.042 -4.785,-2.2 -4.788,-2.357 -4.786,-2.514 -3.858,-0.879 -2.047,0.164 -0.05,0.006 -0.033,0.005 -0.017,0.001 0,0"
           style="fill:#f15a24;fill-opacity:1;fill-rule:nonzero;stroke:none"
           id="path4690" />
      </g>
      <g
         id="g4692"
         transform="matrix(0.35277777,0,0,-0.35277777,-27.156795,240.45244)">
        <path
           d="m 0,0 c -4.087,2.482 -6.386,2.662 -7.297,-4.29 0,0 4.305,3.403 6.336,1.153 2.208,-2.446 5.215,-0.191 3.636,1.235 C 1.095,-0.478 0,0 0,0"
           style="fill:#f15a24;fill-opacity:1;fill-rule:nonzero;stroke:none"
           id="path4694" />
      </g>
      <g
         id="g4696"
         transform="matrix(0.35277777,0,0,-0.35277777,-27.754508,240.73702)">
        <path
           d="m 0,0 c -2.319,-1.545 -2.316,-5.179 -2.316,-5.179 0,0 4.232,2.29 3.902,3.717 C 1.255,-0.036 0,0 0,0"
           style="fill:#f15a24;fill-opacity:1;fill-rule:nonzero;stroke:none"
           id="path4698" />
      </g>
      <g
         id="g4700"
         transform="matrix(0.35277777,0,0,-0.35277777,-34.549288,230.6591)">
        <path
           d="M 0,0 C 0.865,0.505 1.795,0.679 2.663,0.407 2.705,0.395 2.742,0.375 2.783,0.36 2.665,0.621 2.511,0.866 2.362,1.123 0.269,4.717 -2.296,3.998 -4.578,2.447 -4.71,2.357 -4.834,2.262 -4.954,2.163 -3.099,2.461 -1.152,1.7 -0.026,0.043 -0.017,0.029 -0.01,0.014 0,0"
           style="fill:#f15a24;fill-opacity:1;fill-rule:nonzero;stroke:none"
           id="path4702" />
      </g>
      <g
         id="g4704"
         transform="matrix(0.35277777,0,0,-0.35277777,-33.001724,232.16664)">
        <path
           d="m 0,0 c -1.486,5.9 -2.686,8.179 -8.392,4.104 0,0 4.884,1.403 5.443,-5.54 C -2.686,-4.721 0.467,-5.38 0.433,-3.253 0.397,-1.126 0,0 0,0"
           style="fill:#f15a24;fill-opacity:1;fill-rule:nonzero;stroke:none"
           id="path4706" />
      </g>
      <g
         id="g4708"
         transform="matrix(0.35277777,0,0,-0.35277777,-33.736242,231.05216)">
        <path
           d="m 0,0 c -2.712,0.644 -5.367,-1.837 -5.367,-1.837 0,0 4.166,0.144 4.672,-2.383 C -0.408,-5.655 0,0 0,0"
           style="fill:#f15a24;fill-opacity:1;fill-rule:nonzero;stroke:none"
           id="path4710" />
      </g>
      <g
         id="g4712"
         transform="matrix(0.35277777,0,0,-0.35277777,-3.0959053,227.656)">
        <path
           d="m 0,0 c 2.647,2.976 5.725,5.636 9.3,7.506 3.388,1.785 8.204,2.907 11.111,2.766 L 21.523,9.314 20.94,9.362 C 17.042,9.657 13.065,8.815 9.5,7.104 5.919,5.399 2.758,2.876 0,0"
           style="fill:#29b36e;fill-opacity:1;fill-rule:nonzero;stroke:none"
           id="path4714" />
      </g>
      <g
         id="g4716"
         transform="matrix(0.35277777,0,0,-0.35277777,4.2493857,224.04414)">
        <path
           d="m 0,0 c 2.169,-0.21 4.297,-0.746 6.275,-1.608 1.975,-0.864 3.812,-2.058 5.292,-3.597 -1.585,1.432 -3.474,2.473 -5.457,3.179 -1.749,0.621 -3.673,0.88 -5.412,1.102 -0.003,0.001 -1.107,0.957 -1.107,0.957 z"
           style="fill:#6fd191;fill-opacity:1;fill-rule:nonzero;stroke:none"
           id="path4718" />
      </g>
      <g
         id="g4720"
         transform="matrix(0.35277777,0,0,-0.35277777,-13.249274,240.93578)">
        <path
           d="m 0,0 c 0.562,0.399 1.221,0.808 1.865,1.144 0.457,0.224 0.915,0.447 1.39,0.624 0.467,0.202 0.951,0.346 1.43,0.506 1.927,0.604 3.92,0.92 5.911,1.087 3.989,0.313 7.979,0.044 11.915,-0.469 C 26.436,2.364 30.365,1.884 34.32,1.758 38.267,1.633 42.26,1.868 46.089,2.915 42.28,1.795 38.277,1.481 34.315,1.532 30.347,1.584 26.391,1.991 22.456,2.444 18.533,2.882 14.569,3.07 10.658,2.69 8.707,2.489 6.769,2.142 4.925,1.525 4.468,1.362 4.004,1.216 3.564,1.014 3.113,0.837 2.684,0.617 2.256,0.397 1.412,-0.062 0.609,-0.592 -0.104,-1.221 l -0.317,-0.281 c 0,0 0.169,0.847 0.421,1.502"
           style="fill:#c83ad7;fill-opacity:1;fill-rule:nonzero;stroke:none"
           id="path4722" />
      </g>
      <g
         id="g4724"
         transform="matrix(0.35277777,0,0,-0.35277777,-21.482718,224.4479)">
        <path
           d="m 0,0 c -3.817,-0.843 -3.228,-3.873 -3.228,-3.873 0,0 1.207,1.459 7.859,2.245 0,0 -2.859,0.758 -4.631,1.628"
           style="fill:#c1272d;fill-opacity:1;fill-rule:nonzero;stroke:none"
           id="path4726" />
      </g>
      <g
         id="g4728"
         transform="matrix(0.35277777,0,0,-0.35277777,-14.50569,244.34954)">
        <path
           d="m 0,0 c -0.142,0.837 -0.129,1.695 -0.051,2.545 0.086,0.851 0.268,1.695 0.548,2.513 0.279,0.817 0.658,1.604 1.122,2.344 0.47,0.74 1.046,1.407 1.671,2.029 l 0.273,0.253 c 0,0 -0.376,-1.209 -0.422,-1.509 C 2.834,7.879 2.461,7.394 2.171,7.017 1.678,6.363 1.252,5.652 0.915,4.896 0.578,4.138 0.329,3.336 0.172,2.513 0.022,1.689 -0.067,0.845 0,0"
           style="fill:#fba9ff;fill-opacity:1;fill-rule:nonzero;stroke:none"
           id="path4730" />
      </g>
      <g
         id="g4732"
         transform="matrix(0.35277777,0,0,-0.35277777,-25.67125,236.61635)">
        <path
           d="m 0,0 c -2.17,2.385 -3.996,6.181 -4.771,9.731 -0.397,1.873 -0.591,3.792 -0.494,5.699 l 0.083,1.427 0.2,1.416 c 0.047,0.475 0.183,0.935 0.28,1.4 0.101,0.465 0.204,0.93 0.361,1.38 0.518,1.831 1.324,3.57 2.301,5.189 0.468,0.825 1.047,1.577 1.607,2.337 l 0.919,1.079 c 0.304,0.362 0.66,0.677 0.986,1.017 1.357,1.307 2.846,2.485 4.486,3.41 1.636,0.928 3.377,1.655 5.178,2.174 C 9.351,35.687 7.64,34.909 6.044,33.94 4.445,32.975 3.008,31.765 1.711,30.437 1.399,30.093 1.06,29.773 0.771,29.409 l -0.87,-1.087 c -0.527,-0.762 -1.072,-1.514 -1.505,-2.335 -0.907,-1.611 -1.64,-3.327 -2.088,-5.117 -0.141,-0.44 -0.225,-0.894 -0.31,-1.347 -0.08,-0.454 -0.199,-0.9 -0.231,-1.361 L -4.385,16.79 -4.423,15.411 c -0.04,-1.838 0.204,-3.673 0.635,-5.45 0.89,-3.552 2.693,-6.852 5.175,-9.508 L 1.784,0.027 C 1.784,0.027 0.332,-0.023 0,0"
           style="fill:#ff737d;fill-opacity:1;fill-rule:nonzero;stroke:none"
           id="path4734" />
      </g>
      <g
         id="g4736"
         transform="matrix(0.35277777,0,0,-0.35277777,-17.61973,239.01964)">
        <path
           d="m 0,0 c -1.951,-0.433 -3.949,-0.665 -5.965,-0.677 -2.024,0.025 -4.025,0.415 -5.965,0.983 -1.937,0.579 -3.818,1.361 -5.599,2.351 -1.777,0.994 -3.433,2.2 -4.879,3.705 l -0.415,0.445 c 0,0 1.429,0.02 1.783,0.034 1.174,-1.266 2.547,-2.362 4.034,-3.302 1.656,-1.042 3.44,-1.899 5.295,-2.565 1.857,-0.654 3.79,-1.14 5.76,-1.27 C -3.975,-0.401 -1.974,-0.308 0,0"
           style="fill:#fff4c0;fill-opacity:1;fill-rule:nonzero;stroke:none"
           id="path4738" />
      </g>
    </g>
  </g>
</svg>
