<svg xmlns="http://www.w3.org/2000/svg" role="img" viewBox="-19.52 -19.52 1015.04 122.04"><defs><clipPath id="a" clipPathUnits="userSpaceOnUse"><path d="M0 612h792V0H0z"/></clipPath></defs><g clip-path="url(#a)" transform="matrix(1.33333 0 0 -1.33333 -45.595 449.802)"><path fill="#231f20" d="M96.69 286.999h4.36c3.961 0 6.725.57 8.292 1.709 1.567 1.14 2.351 3.149 2.351 6.028 0 3.02-.848 5.136-2.543 6.347-1.696 1.211-4.396 1.817-8.1 1.817h-4.36zm0 25.946h4.36c3.02 0 5.243.512 6.668 1.538 1.425 1.026 2.138 2.835 2.138 5.429 0 2.365-.692 4.032-2.074 5.001-1.382.968-3.797 1.453-7.245 1.453H96.69zm-22.782-35.991v10.045h7.309v39.367h-7.309v10.045h27.142c6.013 0 10.487-.349 13.422-1.047 2.934-.698 5.471-2.394 7.608-5.087 2.137-2.693 3.206-5.849 3.206-9.467 0-5.786-2.793-9.874-8.378-12.268 7.124-2.65 10.686-7.395 10.686-14.234 0-3.932-1.105-7.302-3.313-10.109-2.208-2.807-5.058-4.716-8.549-5.727-3.49-1.013-8.384-1.518-14.682-1.518z"/><path fill="#231f20" d="M134.561 276.954v10.045h8.506v39.367h-8.506v10.045h32.656v-10.045h-8.677v-39.367h17.568v18.38h11.584v-28.425z"/><path fill="#231f20" d="M226.034 326.495c-4.56 0-8.428-1.71-11.605-5.129-3.178-3.42-4.766-8.436-4.766-15.046 0-5.842 1.567-10.515 4.702-14.02 3.134-3.505 7.024-5.258 11.669-5.258 4.559 0 8.435 1.717 11.626 5.151 3.191 3.433 4.788 8.384 4.788 14.853 0 5.785-1.525 10.472-4.574 14.063-3.049 3.591-6.996 5.386-11.84 5.386m0 10.857c10.258 0 18.33-2.964 24.214-8.891 5.885-5.927 8.827-13.151 8.827-21.671 0-8.549-2.949-15.78-8.848-21.693-5.899-5.913-13.963-8.869-24.193-8.869-10.629 0-18.793 3.041-24.492 9.126-5.7 6.083-8.549 13.229-8.549 21.436 0 8.491 2.928 15.708 8.784 21.65 5.856 5.941 13.941 8.912 24.257 8.912"/><path fill="#231f20" d="M305.41 296.916v10.045h27.869c0-7.21-1.304-12.923-3.911-17.14-2.607-4.218-6.397-7.538-11.37-9.96-4.973-2.422-10.551-3.633-16.734-3.633-10.744 0-18.986 2.878-24.728 8.634-5.742 5.756-8.612 13.065-8.612 21.928 0 6.155 1.424 11.59 4.274 16.307 2.849 4.715 6.682 8.271 11.498 10.665 4.816 2.393 10.045 3.59 15.687 3.59 7.979 0 14.191-1.938 18.636-5.813v4.873h10.088v-21.116h-10.088c-1.054 3.562-3.149 6.369-6.283 8.421-3.135 2.052-6.497 3.077-10.087 3.077-4.731 0-8.763-1.674-12.097-5.022-3.334-3.349-5.001-7.987-5.001-13.914 0-6.782 1.695-11.946 5.087-15.494 3.39-3.548 7.522-5.322 12.396-5.322 3.59 0 6.567.869 8.933 2.607 2.365 1.738 4.003 4.161 4.915 7.267z"/><path fill="#231f20" d="M363.37 276.954v20.261h10.088c.113-3.705 1.082-6.433 2.906-8.186 1.824-1.752 3.904-2.629 6.241-2.629 1.823 0 3.362.634 4.617 1.903 1.253 1.267 1.88 2.756 1.88 4.466 0 1.824-.613 3.356-1.838 4.595-1.226 1.24-3.465 2.652-6.718 4.236-6.879 3.31-11.546 6.236-14.004 8.776-2.457 2.541-3.685 5.967-3.685 10.277 0 5.195 1.624 9.22 4.873 12.075 3.248 2.854 6.939 4.282 11.071 4.282 4.73 0 8.392-1.846 10.985-5.536v4.937h10.044V318.33h-10.044c-.314 2.792-1.276 4.951-2.885 6.476-1.611 1.524-3.484 2.287-5.621 2.287-1.653 0-3.05-.442-4.189-1.325-1.14-.884-1.71-2.038-1.71-3.462 0-1.226.47-2.388 1.411-3.484.94-1.097 3.693-2.652 8.257-4.665 4.393-1.957 7.763-3.726 10.112-5.309 2.347-1.583 4.204-3.637 5.569-6.161 1.368-2.525 2.051-5.44 2.051-8.748 0-5.876-1.711-10.297-5.131-13.263-3.419-2.966-7.465-4.449-12.138-4.449-5.215 0-9.233 1.931-12.054 5.792v-5.065z"/><path fill="#231f20" d="M418.597 276.954v10.045h8.933v39.367h-8.933v-13.849h-10.216v23.894h53.9v-23.894h-10.087v13.849h-9.191v-39.367h8.934v-10.045z"/><path fill="#231f20" d="M496.647 305.935l-4.958 17.91-5.343-17.91zm26.887-18.936v-10.044h-29.238v10.044h7.609l-2.821 10.216h-15.431l-3.163-10.216h7.95v-10.044h-26.33v10.044h7.352l11.583 39.368h-7.907v10.045h38.812v-10.045h-7.993l12.481-39.368z"/><path fill="#231f20" d="M549.094 312.475h5.3c6.554 0 9.832 2.336 9.832 7.01 0 2.308-.748 4.032-2.244 5.172-1.496 1.139-3.556 1.71-6.177 1.71h-6.711zm38.342-25.476v-10.045h-18.113l-13.425 26.032h-6.804v-15.987h7.437v-10.045h-31.075v10.045h8.164v39.368h-8.164v10.045h35.863c6.754 0 11.619-1.704 14.597-5.108 2.977-3.406 4.467-7.26 4.467-11.563 0-6.753-3.435-11.683-10.302-14.789l9.66-17.953z"/><path fill="#231f20" d="M597.993 276.954v10.045h8.933v39.367h-8.933v-13.849h-10.216v23.894h53.9v-23.894H631.59v13.849h-9.191v-39.367h8.934v-10.045z"/><path fill="#231f20" d="M647.233 276.954v10.045h7.139v39.367h-7.139v10.045h52.404v-18.85h-11.369v8.805h-18.423v-13.721h14.875V302.6h-14.875v-15.601h18.423v8.891h11.369v-18.936z"/><path fill="#231f20" d="M728.362 312.475h5.3c6.554 0 9.832 2.336 9.832 7.01 0 2.308-.748 4.032-2.244 5.172-1.496 1.139-3.556 1.71-6.177 1.71h-6.711zm38.342-25.476v-10.045h-18.113l-13.425 26.032h-6.804v-15.987h7.437v-10.045h-31.075v10.045h8.164v39.368h-8.164v10.045h35.863c6.754 0 11.619-1.704 14.597-5.108 2.977-3.406 4.467-7.26 4.467-11.563 0-6.753-3.435-11.683-10.302-14.789l9.66-17.953z"/><path fill="#231f20" d="M47.461 274.362h-4.579v2.526h-3.121l-4.559 6.344h7.68v3.656h4.579v-3.656h8.62c.782 0 1.306.1 1.574.299.268.197.401.653.401 1.365 0 .588-.137 1.252-.411 1.992h4.395c.671-1.63 1.006-3.224 1.006-4.785 0-3.477-1.728-5.215-5.181-5.215H47.461z"/><path fill="#231f20" d="M62.758 289.188h-4.579v3.203H38.775v-3.203h-4.579v9.527h10.287c-1.396 1.999-2.094 3.881-2.094 5.647 0 4.065 2.443 6.099 7.33 6.099h8.46v2.915h4.579v-9.26H50.007c-.931 0-1.571-.168-1.92-.504-.349-.335-.524-.838-.524-1.508 0-.945.418-2.074 1.253-3.389h9.363v2.834h4.579z"/><path fill="#231f20" d="M50.603 330.624c-1.109-.147-2.053-.581-2.834-1.302-.78-.72-1.17-1.703-1.17-2.949 0-2.327 1.335-3.682 4.004-4.065zm6.16 1.211l1.581 4.929c3.244-2.068 4.866-5.298 4.866-9.692 0-3.505-.924-6.239-2.772-8.203-1.848-1.965-4.277-2.947-7.289-2.947-3.066 0-5.626 1.013-7.68 3.039-2.053 2.026-3.079 4.606-3.079 7.741 0 2.272.575 4.237 1.725 5.893 1.149 1.656 2.58 2.806 4.291 3.45 1.711.643 3.621.965 5.729.965v-14.805c1.807.096 3.087.668 3.839 1.715.753 1.047 1.13 2.152 1.13 3.316 0 1.519-.781 3.052-2.341 4.599"/></g></svg>