<svg xmlns="http://www.w3.org/2000/svg" role="img" viewBox="-0.61 6.89 525.72 160.72"><defs><radialGradient id="a" cx="63.648" cy="61.632" r="17.394" gradientTransform="translate(-9.332 -12.726) scale(1.424)" gradientUnits="userSpaceOnUse"><stop offset="0" stop-color="#797979"/><stop offset="1" stop-color="#4C4C4C"/></radialGradient></defs><path fill="#F4B960" d="M150.476 87.663c0 38.752-31.414 70.167-70.166 70.167-38.752 0-70.167-31.415-70.167-70.167S41.558 17.497 80.31 17.497s70.166 31.414 70.166 70.166z"/><path fill="#E66F32" d="M136.572 80.548c0 35.003-28.375 63.378-63.378 63.378-35.002 0-63.378-28.375-63.378-63.378S38.192 17.17 73.194 17.17c35.003 0 63.378 28.375 63.378 63.378z"/><path fill="#E43C41" d="M136.893 72.466c0 30.358-24.611 54.969-54.97 54.969-30.358 0-54.969-24.611-54.969-54.969 0-30.359 24.611-54.969 54.969-54.969 30.359 0 54.97 24.61 54.97 54.969z"/><path fill="#BDD041" d="M136.566 76.667c0 27.858-22.583 50.441-50.441 50.441-27.858 0-50.441-22.583-50.441-50.441 0-27.858 22.583-50.441 50.441-50.441 27.858 0 50.441 22.583 50.441 50.441z"/><path fill="#6DB54C" d="M129.457 80.548c0 25.895-20.992 46.887-46.887 46.887s-46.886-20.992-46.886-46.887S56.675 33.661 82.57 33.661c25.895 0 46.887 20.992 46.887 46.887z"/><path fill="#AEDAE6" d="M114.259 72.786c0 21.608-17.516 39.124-39.124 39.124-21.608 0-39.125-17.516-39.125-39.124 0-21.608 17.517-39.125 39.125-39.125s39.124 17.517 39.124 39.125z"/><path fill="#56B8DE" d="M114.259 66.317c0 18.216-14.767 32.983-32.982 32.983-18.216 0-32.983-14.767-32.983-32.983 0-18.216 14.767-32.982 32.983-32.982 18.215 0 32.982 14.766 32.982 32.982z"/><path fill="#00B1D5" d="M114.259 70.845c0 15.896-12.886 28.782-28.781 28.782-15.896 0-28.782-12.886-28.782-28.782 0-15.895 12.886-28.781 28.782-28.781 15.895 0 28.781 12.886 28.781 28.781z"/><path fill="url(#a)" d="M105.85 74.726c0 13.572-11.002 24.574-24.573 24.574-13.572 0-24.574-11.002-24.574-24.574 0-13.571 11.002-24.573 24.574-24.573 13.571 0 24.573 11.002 24.573 24.573z"/><path fill="#221F1F" d="M105.85 74.726c0 13.572-11.002 24.574-24.573 24.574-13.572 0-24.574-11.002-24.574-24.574 0-13.571 11.002-24.573 24.574-24.573 13.571 0 24.573 11.002 24.573 24.573z"/><path fill="#FFF" d="M94.296 58.762c2.443 1.096 3.001 5.155 1.246 9.066-1.755 3.912-5.158 6.194-7.601 5.098-2.443-1.097-3.001-5.156-1.246-9.067 1.755-3.911 5.158-6.193 7.601-5.097z"/><path fill="#202020" d="M171.404 68.998c0-.23.229-.679.679-.679h15.667c8.854 0 12.937 4.129 12.937 10.217 0 4.587-2.271 6.812-5.046 8.175v.229c2.495.909 5.675 4.129 5.675 8.855 0 7.721-5.221 11.35-14.305 11.35h-14.933c-.229 0-.679-.23-.679-.679zm16.121 15.437c3.634 0 5.904-2.041 5.904-5.046 0-3.179-2.27-5.221-5.904-5.221h-8.395c-.23 0-.23.229-.23.229v9.543c0 .229.23.229.23.229-.23.23 8.395.23 8.395.23zm-8.625 16.346h8.854c4.129 0 6.359-2.041 6.359-5.45 0-3.408-2.271-5.45-6.359-5.45H178.9c-.229 0-.229.229-.229.229v9.992c-.23.679.229.679.229.679zm27.471 5.905c-.229 0-.679-.23-.679-.679V79.673c0-.229.23-.679.679-.679h5.675c.23 0 .679.23.679.679v2.271h.23c1.362-2.041 4.129-3.633 7.721-3.633 2.271 0 4.771.908 6.129 2.271.23.229.23.679.23.679l-3.18 3.853c-.229.23-.679.23-.908.23-1.363-.679-2.725-1.363-4.588-1.363-3.854 0-5.675 2.496-5.675 7.038v14.758c0 .23-.229.679-.679.679zm21.563-6.813c-.679-1.817-1.133-3.633-1.133-6.813 0-3.179.229-5.046 1.133-6.812 1.816-5.047 6.129-7.492 12.258-7.492s10.442 2.725 12.258 7.492c.679 1.816 1.134 3.633 1.134 6.812 0 3.18-.23 5.047-1.134 6.813-1.816 5.047-6.129 7.492-12.258 7.492s-10.671-2.496-12.258-7.492zm17.892-1.587c.679-1.363.679-2.725.679-5.047 0-2.321-.23-3.633-.679-5.046-.909-2.271-2.725-3.634-5.675-3.634-2.725 0-4.771 1.363-5.675 3.634-.679 1.587-.679 2.725-.679 5.046 0 2.322.229 3.634.679 5.047.908 2.271 2.725 3.633 5.675 3.633 2.464.089 4.725-1.358 5.675-3.633zm37.234 8.395c-.23 0-.679-.229-.679-.679l-5.675-17.708h-.23l-5.675 17.433c-.229.229-.229.679-.679.679h-5.046c-.23 0-.679-.229-.679-.679l-9.313-26.334c-.23-.229.229-.678.459-.678h5.904c.459 0 .679.229.679.678l5.675 18.168h.229l5.675-18.168c.23-.229.459-.678.679-.678h4.588c.229 0 .679.229.679.678l5.904 18.168h.23l5.45-18.168c.229-.458.229-.678.679-.678h5.904c.23 0 .679.229.459.678l-9.083 26.334c-.23.229-.23.679-.679.679zm16.346-3.633c-.23-.23-.23-.679 0-.679l3.633-3.404c.26-.229.649-.229.909 0 2.041 1.816 5.675 3.179 8.854 3.179 3.633 0 5.45-1.363 5.45-3.179 0-1.588-1.133-2.725-5.046-2.95l-3.18-.23c-5.904-.679-9.083-3.404-9.083-7.946 0-5.22 4.129-8.854 11.35-8.854 4.587 0 8.395 1.363 11.125 3.179.229.23.229.679.229.679l-2.95 3.18c-.229.229-.679.229-.908.229-1.817-1.133-5.046-2.271-7.721-2.271-2.95 0-4.588 1.133-4.588 2.95 0 1.587 1.133 2.496 5.047 2.95l3.179.229c6.129.679 9.084 3.634 9.084 7.946 0 5.451-4.313 9.313-12.488 9.313-6.129.23-10.442-2.041-12.937-4.312zm29.971-3.18c-.679-1.816-1.133-3.853-1.133-6.812s.23-5.047 1.133-6.813c1.817-5.047 6.13-7.492 12.259-7.492 6.129 0 10.441 2.95 12.258 7.492.679 1.817 1.133 3.854 1.133 8.395 0 .23-.229.679-.679.679h-18.617c-.229 0-.229.23-.229.23 0 .679.229 1.587.459 2.041 1.133 2.725 3.179 4.129 6.583 4.129 3.404 0 5.45-1.133 7.038-2.495.229-.23.679-.23 1.133-.23l3.633 2.95c.23.23.23.679.23.679-2.496 2.725-6.813 4.771-12.259 4.771-6.812.23-11.35-2.495-12.937-7.491zm17.892-12.258c-.679-2.271-2.949-3.633-5.675-3.633-2.725 0-5.046 1.362-5.904 3.633-.229.679-.229 1.363-.229 2.271 0 .229.229.229.229.229h11.804c.23 0 .23-.229.23-.229-.23-.679-.23-1.587-.459-2.271zm12.259 19.071c-.23 0-.679-.229-.679-.679V79.669c0-.23.229-.679.679-.679h5.675c.229 0 .679.229.679.679v2.271h.229c1.363-2.042 4.129-3.634 7.721-3.634 2.271 0 4.772.909 6.13 2.271.229.229.229.679.229.679l-3.179 3.854c-.23.229-.679.229-.909.229-1.362-.679-2.725-1.362-4.587-1.362-3.854 0-5.675 2.495-5.675 7.037v14.759c0 .229-.23.679-.679.679zm21.562-4.129c-.229-.229-.229-.679-.229-.908l3.853-4.129c.23-.229.679-.229.909-.229 2.725 2.041 6.813 4.129 11.35 4.129 5.046 0 7.946-2.271 7.946-5.675 0-2.726-1.817-4.588-7.492-5.451l-2.271-.229c-7.946-1.133-12.488-4.588-12.488-10.896 0-7.037 5.675-11.804 14.075-11.804 5.221 0 10.217 1.587 13.397 3.854.229.229.229.458.229.679l-2.849 4.138c-.229.229-.679.229-.908.229-3.405-2.041-6.584-2.95-9.992-2.95-4.313 0-6.584 2.042-6.584 5.221 0 2.725 2.042 4.588 7.721 5.221l2.271.229c7.946 1.133 12.488 4.588 12.488 11.35 0 6.763-5.455 12.034-15.667 12.034-6.583.229-12.488-2.042-15.667-4.771zm43.813 4.772c-5.905 0-8.396-2.726-8.396-7.946V84.835c0-.23-.229-.23-.229-.23h-1.817c-.229 0-.679-.229-.679-.679v-3.854c0-.229.23-.679.679-.679h1.817c.229 0 .229-.229.229-.229v-7.446c0-.229.23-.679.679-.679h5.675c.23 0 .679.23.679.679v7.492c0 .229.23.229.23.229h4.129c.229 0 .679.23.679.679v3.854c0 .229-.23.679-.679.679h-4.129c-.23 0-.23.229-.23.229v14.305c0 1.817.909 2.496 2.725 2.496h1.588c.229 0 .679.229.679.679v4.587c0 .23-.23.679-.679.679zm26.15-.679c-.23 0-.679-.23-.679-.679v-1.95c-1.363 1.817-4.129 3.179-8.396 3.179-5.45 0-9.992-2.496-9.992-8.395 0-5.9 4.588-8.855 11.804-8.855h5.905c.229 0 .229-.229.229-.229v-1.363c0-3.179-1.587-4.587-6.583-4.587-3.179 0-5.45.908-6.813 1.816-.229.23-.679.23-.908-.229l-2.271-3.634c-.23-.229-.23-.679.229-.679 2.271-1.587 5.675-2.725 10.442-2.725 9.084 0 12.258 2.95 12.258 9.543v17.708c0 .23-.229.679-.679.679zm-.679-9.084v-2.042c0-.229-.23-.229-.23-.229h-5.046c-4.588 0-6.359 1.133-6.359 3.633 0 2.271 1.817 3.404 5.221 3.404 3.854-.229 6.359-1.587 6.359-4.771zm11.804 2.271c-.679-1.817-1.133-3.854-1.133-6.813 0-2.959.229-5.046 1.133-6.813 1.817-5.046 6.359-7.491 12.258-7.491 4.588 0 7.946 1.587 10.217 4.312.23.229.23.679-.229.679l-3.854 3.179c-.229.23-.679.23-.908-.229-1.588-1.588-2.95-2.271-5.45-2.271-2.725 0-4.772 1.133-5.675 3.633-.679 1.363-.679 2.95-.679 5.047-.027 1.764.202 3.522.679 5.221.908 2.271 2.95 3.633 5.675 3.633 2.059.063 4.045-.765 5.45-2.271.229-.229.679-.229.908-.229l3.854 3.179c.229.23.229.679.229.679-2.679 2.739-6.388 4.223-10.217 4.088-5.904.229-10.441-2.496-12.258-7.492zm46.542 6.813c-.458 0-.679-.23-1.133-.679l-7.491-11.35-4.129 4.312v7.038c0 .229-.23.679-.679.679h-5.675c-.23 0-.679-.23-.679-.679V68.553c0-.23.229-.679.679-.679h5.675c.229 0 .679.229.679.679v22.25l10.216-10.896c.216-.425.657-.689 1.134-.679h6.358c.23 0 .679.23.23.679l-9.543 9.992 10.671 16.346c.23.23.23.679-.229.679z"/></svg>