<svg xmlns="http://www.w3.org/2000/svg" role="img" viewBox="-7.05 -7.05 252.86 366.86"><defs><radialGradient id="a" cx="-54.336" cy="114.473" r="192.251" gradientTransform="matrix(-.45 -.893 .804 -.405 46.565 146.662)" gradientUnits="userSpaceOnUse"><stop offset="0" stop-color="#464646"/><stop offset=".246" stop-color="#606060"/><stop offset=".404" stop-color="#6B6B6B"/><stop offset=".613" stop-color="#717171"/><stop offset="1" stop-color="#757575"/><stop offset="1" stop-color="#707070"/><stop offset="1" stop-color="#626262"/><stop offset="1" stop-color="#4E4E4E"/></radialGradient><radialGradient id="b" cx="172.75" cy="148.616" r="192.251" gradientTransform="translate(-9.73 .27)" gradientUnits="userSpaceOnUse"><stop offset="0" stop-color="#4E4E4E"/><stop offset="0" stop-color="#626262"/><stop offset="0" stop-color="#707070"/><stop offset="0" stop-color="#757575"/><stop offset=".387" stop-color="#717171"/><stop offset=".596" stop-color="#6B6B6B"/><stop offset=".754" stop-color="#606060"/><stop offset="1" stop-color="#464646"/></radialGradient></defs><path d="M31.053 352.974c-4.317.055-8.605-.719-12.63-2.28a29.01445 29.01445 0 0 1-9.8-6.34c-2.763-2.74-4.935-6.018-6.38-9.63a31.69209 31.69209 0 0 1-2.24-12.13v-.17c-.113-12.303 7.243-23.447 18.6-28.18 3.923-1.652 8.143-2.485 12.4-2.45 2.418-.02 4.833.164 7.22.55 2.042.343 4.049.865 6 1.56 1.829.663 3.585 1.515 5.24 2.54 1.66 1.034 3.241 2.191 4.73 3.46l-8.19 9.89c-1.073-.916-2.202-1.765-3.38-2.54-1.114-.721-2.288-1.344-3.51-1.86a20.9922 20.9922 0 0 0-3.93-1.18c-1.529-.292-3.084-.433-4.64-.42-2.297-.018-4.568.488-6.64 1.48-2.039.981-3.874 2.338-5.41 4-1.57 1.702-2.802 3.687-3.63 5.85-.881 2.28-1.326 4.705-1.31 7.15v.17c-.024 2.559.42 5.1 1.31 7.5.822 2.23 2.088 4.271 3.72 6 1.592 1.692 3.52 3.034 5.66 3.94 2.289.955 4.749 1.431 7.23 1.4 4.36.144 8.653-1.111 12.25-3.58v-8.51h-13.09v-11.29h25.69v25.69c-3.271 2.74-6.931 4.977-10.86 6.64-4.563 1.899-9.469 2.832-14.41 2.74zm37.78-60.17h27q11.24 0 17.24 6 5.07 5.07 5.07 13.52v.17q0 7.19-3.5 11.71c-2.37 3.031-5.549 5.329-9.17 6.63l14.53 21.13h-15.25l-12.68-18.93h-10.23v18.93h-13zm26.17 28.79q4.81 0 7.39-2.29c1.729-1.536 2.677-3.769 2.58-6.08v-.17q0-4.23-2.71-6.34-2.71-2.11-7.49-2.12h-12.93v17zm34.93-28.79h44.53v11.58h-31.69v12h27.89v11.58h-27.89v12.42h32.12v11.58h-45zm73.27 35.84l-22.73-35.84h15.21l14.11 23.79 14.37-23.75h14.84l-22.74 35.58v23.58h-13z" fill="#444"/><path d="M23.003 267.504c-3.161.022-6.291-.629-9.18-1.91-2.77-1.233-5.263-3.012-7.33-5.23-2.095-2.274-3.729-4.934-4.81-7.83-1.148-3.087-1.717-6.358-1.68-9.65v-.13c-.018-3.276.579-6.525 1.76-9.58 1.112-2.906 2.753-5.582 4.84-7.89 2.056-2.259 4.55-4.075 7.33-5.34 2.918-1.319 6.088-1.984 9.29-1.95 1.894-.015 3.784.169 5.64.55 1.611.344 3.178.871 4.67 1.57 1.408.699 2.747 1.529 4 2.48 1.289.96 2.518 1.998 3.68 3.11l-2.45 2.6c-1.008-.995-2.074-1.93-3.19-2.8-1.105-.886-2.302-1.651-3.57-2.28-1.32-.63-2.7-1.123-4.12-1.47-1.576-.371-3.191-.553-4.81-.54-2.676-.026-5.324.534-7.76 1.64-2.357 1.071-4.467 2.617-6.2 4.54-1.783 1.994-3.177 4.303-4.11 6.81-1 2.682-1.495 5.527-1.46 8.39v.14c-.027 2.883.488 5.747 1.52 8.44.953 2.514 2.36 4.833 4.15 6.84 1.732 1.934 3.842 3.493 6.2 4.58 2.429 1.13 5.08 1.704 7.76 1.68 3.032.073 6.037-.585 8.76-1.92 2.694-1.443 5.136-3.314 7.23-5.54l2.32 2.33c-1.203 1.226-2.479 2.378-3.82 3.45-1.295 1.027-2.696 1.913-4.18 2.64-1.531.748-3.141 1.322-4.8 1.71-1.865.408-3.772.596-5.68.56zm28-48.69h3.45v44.66h27.26v3.21h-30.71zm62.25 48.69c-3.306.057-6.583-.627-9.59-2-2.781-1.29-5.274-3.127-7.33-5.4a24.21996 24.21996 0 0 1-4.71-7.83 26.66104 26.66104 0 0 1-1.66-9.37v-.13c-.012-3.214.564-6.403 1.7-9.41 1.073-2.903 2.681-5.579 4.74-7.89 4.31-4.843 10.517-7.567 17-7.46 3.292-.046 6.553.637 9.55 2 2.791 1.286 5.295 3.123 7.36 5.4 2.055 2.285 3.654 4.943 4.71 7.83 1.113 2.998 1.676 6.172 1.66 9.37.025.014.041.041.041.07 0 .029-.016.056-.041.07.014 3.21-.559 6.396-1.69 9.4-1.079 2.903-2.686 5.582-4.74 7.9-4.329 4.817-10.525 7.532-17 7.45zm.13-3.21c2.734.029 5.442-.544 7.93-1.68 2.37-1.081 4.491-2.641 6.23-4.58 1.778-1.988 3.162-4.296 4.08-6.8.985-2.673 1.479-5.502 1.46-8.35v-.13c.017-2.861-.488-5.701-1.49-8.38-.936-2.514-2.33-4.833-4.11-6.84-1.761-1.94-3.893-3.508-6.27-4.61-5.057-2.254-10.833-2.254-15.89 0-2.366 1.088-4.486 2.646-6.23 4.58-1.781 1.99-3.166 4.301-4.08 6.81-.989 2.668-1.484 5.494-1.46 8.34v.14c-.022 2.858.483 5.695 1.49 8.37.926 2.519 2.32 4.84 4.11 6.84 1.758 1.946 3.89 3.517 6.27 4.62 2.497 1.139 5.215 1.709 7.96 1.67zm53.33 3.14c-2.614.032-5.211-.419-7.66-1.33-2.271-.875-4.319-2.241-6-4a18.0088 18.0088 0 0 1-3.94-6.46c-.983-2.859-1.456-5.868-1.4-8.89v-28h3.45v27.63q0 8.55 4.15 13.16 4.15 4.61 11.57 4.62c2.172.027 4.33-.342 6.37-1.09 1.86-.704 3.53-1.83 4.88-3.29 1.411-1.583 2.471-3.448 3.11-5.47.771-2.455 1.142-5.018 1.1-7.59v-28h3.45v27.56c.053 3.077-.421 6.142-1.4 9.06-.823 2.451-2.156 4.7-3.91 6.6-1.681 1.759-3.73 3.125-6 4-2.472.984-5.109 1.49-7.77 1.49zm32.11-48.62h15.45c3.419-.041 6.814.577 10 1.82 2.918 1.126 5.58 2.826 7.83 5 2.19 2.145 3.916 4.719 5.07 7.56 1.227 2.981 1.85 6.176 1.83 9.4v.14c.027 3.231-.585 6.436-1.8 9.43-1.146 2.854-2.873 5.438-5.07 7.59-2.251 2.186-4.912 3.906-7.83 5.06-3.18 1.267-6.578 1.895-10 1.85h-15.48zm15.45 44.66c2.998.043 5.975-.507 8.76-1.62 4.973-1.965 8.902-5.916 10.84-10.9 1.01-2.569 1.516-5.309 1.49-8.07v-.13c.016-2.737-.49-5.452-1.49-8-1.937-5.008-5.861-8.991-10.84-11-2.782-1.125-5.76-1.682-8.76-1.64h-12v41.44z" fill="#4D4D4D"/><path fill="url(#a)" d="M156.288 157.932c4.427 1.896 9.22 2.781 14.032 2.591 18.274-.279 33.456-14.171 35.354-32.349 2.011-19.349-11.653-36.819-30.917-39.528-19.264-2.709-37.216 10.315-40.62 29.468-.757 4.229-.416 8.516-.929 12.76-3.765 34.182-33.629 59.436-67.962 57.471-28.51-1.625-52.522-21.879-58.93-49.706C.822 111.912 8.852 89.75 30.161 72.556c3.31-2.588 6.894-4.805 10.688-6.612 1.152-.57 1.704-.607 1.749.98.262 8.938 2.084 17.761 5.382 26.072.407 1.037.096 1.478-.673 2.081-9.974 7.411-15.392 19.464-14.313 31.843 1.513 18.093 16.217 32.255 34.355 33.087 18.138.832 34.077-11.923 37.242-29.803.841-4.217.41-8.515.944-12.753 3.502-32.716 31.069-57.55 63.971-57.633 32.902-.082 60.592 24.614 64.259 57.312 3.666 32.697-17.867 62.913-49.97 70.12-17.93 4.21-36.805.391-51.688-10.458-1.01-.706-1.025-1.162-.265-2.124 9.235-11.548 15.127-25.406 17.037-40.068.448-2.724.63-5.485.543-8.245-.103-1.047.303-2.081 1.092-2.778q4.114-3.966 8.09-8.078c.763-.781 1.255-.845 2.064-.03q8.947 9.034 17.99 17.975c.977.966.573 1.43-.181 2.181q-10.624 10.567-21.191 21.188c-.271.272-.519.579-.998 1.116z"/><path fill="url(#b)" d="M89.33 119.442c-3.165-1.823-6.129-3.974-8.844-6.417C60.1 95.158 53.059 66.452 62.863 41.18 72.666 15.907 97.224-.541 124.326.014c27.101.554 50.966 17.992 59.729 43.644.401 1.146.624 1.87-1.095 1.556-9.147-1.583-18.502-1.52-27.626.187-.935.274-1.932-.154-2.38-1.019-8.95-12.48-21.167-18.102-36.249-15.391-14.648 2.062-26.327 13.278-28.98 27.831-2.724 11.287.399 23.187 8.314 31.682.691.806 1.134 1.397.594 2.564a78.15562 78.15562 0 0 0-6.986 26.506c-.046.57-.187 1.132-.317 1.871z"/></svg>