<svg xmlns="http://www.w3.org/2000/svg" role="img" viewBox="-9.54 -9.54 496.08 218.58"><g fill="#2d333a"><ellipse cx="386.11" cy="21.35" rx="22.14" ry="21.06"/><path d="M369.34 71.58v120.2c0 6.52 8.72 8.22 17.43 8.22s17.44-1.7 17.44-8.22V71.58c0-8.69-8.72-9.91-17.44-9.92s-17.43 1.21-17.43 9.92zm73.09-61.66v181.86c0 6.52 8.72 8.22 17.44 8.22s17.43-1.7 17.43-8.22V9.92c0-8.69-8.71-9.91-17.43-9.92s-17.44 1.21-17.44 9.92zM192.46 128.59c0-37.81 30.19-71.51 73.76-71.51 43.39 0 74.33 33.15 74.33 71.26 0 41.12-34.25 71.66-73.92 71.66-43.87 0-74.17-33.68-74.17-71.41zm73.74 42.32c23.21 0 40.61-19.12 40.61-42.63s-17.4-42.14-40.61-42.14-40.35 18.86-40.35 42.39 17.15 42.38 40.35 42.38zm-93.71-7.73c0 18.28-42.71 36.82-72.38 36.82-36.43 0-70.5-19.53-87.9-50.85A98.43 98.43 0 0 1 0 101.35a100.91 100.91 0 0 1 16.29-55.14c8.59-13.16 24.89-30.8 53.63-40.16A115 115 0 0 1 104.68.29c41 0 66.79 28.74 66.79 53.76 0 17.2-14 41.7-48.27 41.7-15.67 0-21-6.63-21-14.22 0-10.18 9.52-22.08 16.38-22.08 2.9 0 4.65 2.86 10.28 2s8.41-4.52 8.41-9.1c0-8.66-10.28-20.29-32.22-20.29a85.67 85.67 0 0 0-24.67 4c-19.52 6.02-30.19 20.02-35.84 28.65a67.07 67.07 0 0 0-10.84 36.64 64.65 64.65 0 0 0 8 31.39c11.51 20.64 34.12 33.5 58.39 33.5 33.53 0 42.93-18 49.69-20.92 11.98-5.2 22.71 9.3 22.71 17.86z"/></g></svg>