<svg xmlns="http://www.w3.org/2000/svg" role="img" viewBox="-22.98 -22.98 1194.96 365.96"><path fill="#232222" d="M439.936 217.656c0-11.919-9.369-21.711-21.291-21.711-11.921 0-21.29 9.792-21.29 21.711 0 11.926 9.369 21.502 21.29 21.502 11.922 0 21.291-9.576 21.291-21.502m37.041.215c0 30.872-25.972 55.567-58.332 55.567-32.361 0-58.336-24.695-58.336-55.567 0-31.084 25.975-56.206 58.336-56.206 32.359 0 58.332 25.122 58.332 56.206m116.148-22.567c0-20.863-14.475-38.957-35.765-38.957h-29.593v78.772h29.593c21.29 0 35.765-18.949 35.765-39.815m40.024 0c0 44.496-31.086 74.941-74.939 74.941h-63.439c-2.982 0-5.324-2.344-5.324-5.325V126.327c0-2.768 2.342-5.109 5.324-5.109h63.439c43.853 0 74.939 29.592 74.939 74.086m61.951 44.072c11.925 0 21.29-9.792 21.29-21.717 0-11.92-9.365-21.711-21.29-21.711-11.923 0-21.287 9.791-21.287 21.711 0 11.925 9.364 21.717 21.287 21.717m-5.535-77.708c12.563 0 22.567 4.687 27.036 11.283v-3.191c0-2.767 2.343-4.896 4.9-4.896h26.61c2.77 0 4.896 2.129 4.896 4.896v95.589c0 2.768-2.126 4.896-4.896 4.896h-26.61c-2.767 0-4.9-2.129-4.9-4.896v-3.193c-4.469 6.598-14.688 11.283-27.251 11.283-26.821 0-52.58-21.502-52.58-56.203.001-34.706 25.971-55.568 52.795-55.568m126.675 77.708c11.923 0 21.287-9.792 21.287-21.717 0-11.92-9.364-21.711-21.287-21.711-11.922 0-21.289 9.791-21.289 21.711 0 11.925 9.367 21.717 21.289 21.717m-6.387-77.708c12.988 0 22.994 4.896 27.466 10.645v-46.2c0-2.766 2.341-4.896 4.896-4.896h27.036c2.771 0 4.901 2.13 4.901 4.896v139.236c0 2.768-2.131 4.896-4.901 4.896h-26.614c-2.768 0-4.894-2.129-4.894-4.896v-3.193c-5.322 6.598-14.689 11.283-27.251 11.283-26.824 0-52.585-21.502-52.585-56.203-.001-34.706 25.548-55.568 51.946-55.568m127.526 77.708c11.923 0 21.287-9.792 21.287-21.717 0-11.92-9.364-21.711-21.287-21.711-11.922 0-21.289 9.791-21.289 21.711 0 11.925 9.367 21.717 21.289 21.717m-6.388-77.708c12.985 0 22.994 4.896 27.466 10.645v-46.2c0-2.766 2.34-4.896 4.896-4.896h27.036c2.77 0 4.901 2.13 4.901 4.896v139.236c0 2.768-2.132 4.896-4.901 4.896h-26.615c-2.767 0-4.893-2.129-4.893-4.896v-3.193c-5.322 6.598-14.689 11.283-27.251 11.283-26.827 0-52.588-21.502-52.588-56.203 0-34.706 25.552-55.568 51.949-55.568m153.288 123.905c-6.604 22.353-22.144 34.917-46.413 34.917-13.2 0-25.974-4.472-34.277-11.708-1.275-1.28-2.129-2.982-2.129-4.472 0-1.28.64-2.982 1.704-4.472l10.007-15.326c1.492-2.131 3.83-2.346 4.259-2.346 2.341 0 3.404.639 5.532 2.131 3.196 2.126 7.454 4.682 12.35 4.682 4.042 0 9.582-1.702 11.495-8.087l3.406-10.65h-16.177c-3.405 0-5.537-2.335-6.388-5.103l-27.039-91.974c-.642-2.341-.856-3.621-.856-4.472 0-2.126 1.493-3.833 4.472-3.833h31.938c2.768 0 4.472 2.553 5.11 5.113l17.669 65.995h1.275l14.268-65.995c.642-2.561 2.338-5.113 5.108-5.113h32.358c2.982 0 4.472 1.707 4.472 3.833 0 .851-.21 2.131-.851 4.472zm-761.865-35.979c-12.772 17.881-34.064 23.845-52.8 23.845-43.217 0-75.147-32.573-75.147-77.705 0-43.22 34.487-77.708 79.619-77.708 33.427 0 60.249 14.263 72.383 41.514 1.49 3.197 2.559 8.305-6.384 10.004l-23.631 4.259c-5.535 1.068-8.518-2.552-9.578-4.045-7.028-9.58-18.311-16.18-31.938-16.18-23.632 0-40.448 18.097-40.448 42.366 0 26.827 19.161 42.368 39.811 42.368 13.839 0 25.335-5.323 32.784-15.114H286.22c-2.979 0-5.318-2.343-5.318-5.325v-20.012c0-2.979 2.339-5.322 5.318-5.322h63.66c2.979 0 5.318 2.343 5.318 5.322v67.065c0 2.979-2.339 5.317-5.318 5.317h-22.142c-2.982 0-5.324-2.338-5.324-5.317z"/><path fill="#ee7624" d="M79.347 27.321c-.065-.416-.088-.87-.088-1.326-.132-6.56 6.094-13.742 6.292-21.039l.036-.024v-.171c-.063-1.29-.968-2.134-1.87-2.532-.92-.42-1.996-.585-3.179-.585-2.848.036-6.396 1.059-8.292 3.963-3.079 6.424-7.962 13.176-8.006 20.138-.021 2.205.538 4.439 1.836 6.556 2.693 5.938 6.335 11.262 9.147 17.63.498 1.161.714 2.199.714 3.175 0 1.902-.855 3.667-2.372 5.382-.464.629-3.532.498-5.098 3.056l-.074.157-.022.184-.104.957c.022 2.672 2.103 4.354 4.342 5.214 1.319.503 2.565.703 3.802.703 4.716-.024 8.689-2.954 10.763-6.277 1.55-2.617 2.193-5.223 2.193-7.781-.164-9.903-8.963-18.581-10.02-27.38M115.5 39.38c-5.08-7.306-5.862-8.402-8.616-13.941-.637-1.324-1.883-3.304-1.883-5.581.038-1.741.654-3.719 3.168-5.976 1.429-1.296 1.957-3.287 1.957-5.301 0-2.422-.815-5.014-2.791-6.679C105.438.624 103.764 0 102.159 0c-3.389.024-5.544 2.652-7.094 5.744-1.605 3.184-2.798 7.186-4.005 10.928-.472 1.539-.708 3.05-.708 4.545.176 11.313 12.297 20.122 14.959 30.621.306 1.062.459 2.119.459 3.118 0 2.476-.85 5.007-1.907 7.879-.297.789-.459 1.597-.459 2.326.026 3.446 3.108 5.263 5.875 5.263h.031c1.547 0 3.191-.558 4.39-1.801 5.722-5.906 7.907-10.911 7.907-15.363-.012-5.662-3.366-9.934-6.107-13.88m-99.71-.981c-1.009-2.006-1.32-4.37-1.32-6.914 0-3.393.586-7.078.586-10.601 0-2.008-.17-3.952-.823-5.77-.59-1.473-2.041-1.864-3.239-1.864-3.244.116-7.93 2.383-9.131 6.721C1.311 24.904.027 30.247 0 35.238c-.008 4.434 1.294 8.528 4.857 11.926 5.485 5.235 11.282 9.372 14.535 13.969 1.329 1.875 2.089 3.317 2.106 4.975 0 1.114-.281 2.276-.8 3.546-.89 1.504-3.19 4.917-3.589 7.311l-.031.181.031.181c0 1.133 1.118 2.302 2.143 2.302l.195-.018c1.251-.066 2.147-.517 3.191-.517l.17.013h.621c6.302-.013 10.412-5.075 11.48-9.72.23-1.1.3-2.114.3-3.101-.234-12.577-14.91-18.535-19.419-27.887m36.812-2.371c-4.663-7.737-11.085-14.718-11.757-22.306l.274-.218c.949-.802 4.146-1.146 6.28-2.017 1.312-.352 3.079-1.07 4.626-2.001 1.474-.954 3.016-1.925 3.134-3.944.021-.918-.542-1.814-1.329-2.363-2.503-1.487-5.246-2.119-7.995-2.119-8.278.021-16.968 5.56-19.088 13.483-.294 1.253-.47 2.479-.47 3.677.22 11.767 13.398 20.028 16.757 30.616l.024.066c.459 1.29.639 2.496.658 3.747 0 2.272-.658 4.637-1.44 7.313-.209.537-.275 1.141-.275 1.683-.044 1.464.756 2.704 1.833 3.339 1.044.651 2.303.913 3.587.913 2.456-.021 5.123-.86 6.758-2.644 2.768-3.554 3.858-7.353 3.851-11.054-.008-5.896-2.609-11.564-5.428-16.171"/><path fill="#232222" d="M143.436 241.144l-.511-.029M26.624 170.353c.027-2.864.976-6.168 2.397-7.961 1.135-1.406 2.5-2.989 4.346-4.575l1.608 6.792c-3.475 1.724-6.147 3.634-8.351 5.744m150.895-38.349c-5.576-2.897-12.869-4.538-20.899-4.538l-.292.014c-7.429-18.61-16.821-32.486-28.037-41.26-14.259-11.073-32.623-16.922-53.108-16.922-10.175 0-20.682 1.553-31.161 4.268-.75-1.986-1.484-3.992-2.373-5.828-.441-.907-1.907-1.441-2.916-.586-.9.85-1.657 2.433-1.241 4.198.275 1.338.28 2.677.205 4.013-5.817 1.8-11.608 3.861-17.293 6.454l-2.917 1.357c-.947.443-1.454 1.487-1.214 2.507l3.669 15.474c-1.597 1.437-3.188 2.941-4.892 4.227-1.523 1.11-1.726 4.398-.445 4.771 2.617.674 5.175.94 7.702.982l3.79 15.998-.162.445c-.43 1.058-1.083 2.149-1.445 2.993-.886 1.962.821 4.238 1.847 3.647.438-.265.811-.608 1.225-.896l4.162 17.568c-3.703 2.534-6.137 5.222-7.875 7.545-2.636 3.503-3.724 7.942-3.756 12.121 0 2.407.385 4.724 1.346 6.825l.188.269c-.993 2.654-1.449 5.446-1.437 8.274 0 1.111.068 2.261.161 3.431.479 6.27 4.327 11.028 9.285 13.804 4.444 2.482 9.828 3.68 15.408 3.945l16.993 71.713c.163.67.626 1.229 1.256 1.508l.896.188 1.058-.268 4.489-2.456c4.225-2.316 11.007-6.286 19.329-12.07 2.991-2.063 5.596-2.917 9.343-2.952 2.979 0 6.362.889 10.275 1.924 5.041 1.332 10.752 2.851 17.412 2.901 2.837 0 5.704-.316 8.51-.944 7.252-1.581 13.192-5.905 16.292-11.848 2.05-3.902 3.103-8.374 3.133-13.307 0-1.377-.104-2.433-.165-3.101-.154-7.029-3.869-14.438-7.459-21.617l-1.143-2.303c-6.168-11.866-7.364-16.278-7.278-17.916l-.028-.327c1.319-1.015 6.842-3.065 14.039-4.797 3.271-.808 6.394-1.618 8.95-2.447 1.28-.451 2.537-.918 3.711-1.627.84-.448 1.547-1.001 2.285-1.787 1.164-1.34 1.812-2.998 1.812-4.689-.021-3.773-.769-10.69-2.455-19.276 4.172-.763 8.003-1.956 11.222-3.607 5.442-2.834 9.683-7.215 9.771-12.998-.09-5.807-4.331-10.133-9.773-12.997"/><path fill="#fff" d="M35.052 126.808c1.327-1.613 2.723-3.41 4.262-5.493l.344-.459c1.439-1.908 3.07-4.066 4.694-4.066l.162.009c4.678.502 8.001 2.798 11.846 5.447 1.044.72 2.125 1.467 3.287 2.215.715.468 1.421.998 2.103 1.51 2.035 1.519 4.131 3.097 6.609 3.097l1.001-.088h.008c.758 0 1.19-.808 1.649-1.663.236-.441.48-.9.784-1.272l.038-.049.028-.055c.409-.907-.152-1.836-.487-2.39l-.157-.278c-.341-.685-.643-1.329-.932-1.94-1-2.116-1.865-3.941-3.567-6.146-1.933-2.5-3.75-4.96-5.508-7.338-.996-1.352-1.998-2.707-3.029-4.084 2.339-1.831 4.873-2.683 7.55-3.584 1.239-.415 2.52-.843 3.776-1.379 1.058-.396 1.775-2.217 1.478-3.819-.189-.925-.855-1.628-1.412-1.977l-.097-.058-.116-.014c-2.772-.23-5.368-.904-8.655-2.242-1.602-.356-3.117-.372-4.579-.393-2.117-.031-4.115-.058-6.121-.955-.945-.454-1.275-2.001-1.569-3.364l-.251-1.071c-.194-.734-.417-1.444-.64-2.15l-.293-.948c9.816-2.457 19.205-3.705 27.919-3.705 18.537 0 35.031 5.216 47.685 15.077 9.26 7.191 17.332 18.849 24.009 34.65-4.398.726-8.197 1.872-11.292 3.414-3.819 1.854-6.735 4.542-8.451 7.786-.594-.079-1.162-.104-1.691-.118-1.657.021-3.257.283-4.433.517-2.591-11.06-14.127-19.056-27.636-19.071-14.409.016-26.33 9.056-27.92 21.08-10.246.428-18.693 2.015-25.784 4.849zm-8.975-37.895c2.963-1.286 5.972-2.397 8.825-3.399-.38 1.209-.74 2.369-1.039 3.532-.286.504-.842.961-1.377 1.398l-.553.467v1.172c-1.267 1.052-2.636 2.055-4.356 3.174zm15.312 64.651c6.153-2.614 14.149-4.152 24.409-4.7 2.727 10.865 14.251 18.729 27.573 18.759 14.118-.03 26.037-8.893 27.878-20.658h.002c1.605-.369 3.166-.588 4.181-.588l.26.011c.572 5.133 4.07 9.523 9.889 12.387 5.549 2.758 12.827 4.213 21.043 4.213l.732-.035.171-.008c1.355 6.774 2.229 13.068 2.367 16.998-1.614.789-5.871 1.895-9.024 2.711l-.139.034c-7.086 1.831-15.087 3.895-18.85 7.175-6.203 5.46-.58 16.523 5.374 28.239 2.776 5.475 5.197 10.39 6.613 14.754-13.07-1.93-21.76-5.301-29.035-11.254-7.006-5.723-12.756-14.017-19.407-23.623-.808-1.173-2.152-1.873-3.584-1.873-.896 0-1.759.271-2.495.775-.96.65-1.605 1.643-1.82 2.8-.214 1.159.044 2.324.717 3.28l.407.593c6.79 9.8 12.654 18.262 20.642 24.852 8.597 7.046 19.263 11.232 33.569 13.173.938.132 1.679.221 2.392.307-.016 5.169-1.757 13.736-12.566 16.208-1.929.433-4.018.652-6.203.652-5.077 0-10.188-1.165-14.962-2.423-4.628-1.214-8.935-2.347-13.482-2.347-5.138 0-9.654 1.49-14.207 4.679-2.539 1.75-8.33 5.732-15.25 9.725zm1.445 46.249c-3.871-.422-7.209-1.406-9.699-2.867-3.629-2.091-5.396-4.621-5.728-8.21-.086-1.168-.13-2.064-.13-2.811.034-4.289.941-6.981 3.236-9.616 1.322-1.495 3.243-2.969 5.717-4.381z"/><path fill="#00a94f" d="M156.588 155.579c-6.932-.023-13.341-1.287-17.679-3.467-3.968-2.027-5.982-4.419-5.982-7.115 0-2.669 2.014-5.054 5.982-7.091 2.834-1.416 6.685-2.462 11.14-3.015 2.408-.299 4.463-.439 6.464-.439h.132c.445 0 .874.032 1.303.063l.821.052c5.909.252 11.56 1.577 15.512 3.63 4.529 2.36 6.077 5.054 6.014 6.781.063 1.758-1.484 4.446-6.019 6.824-2.468 1.28-5.725 2.311-9.425 2.99-2.91.527-5.6.787-8.228.787zm-63.216 4.565c-5.612 0-11.082-1.814-14.998-4.975-3.725-3.045-5.775-7.028-5.775-11.204 0-4.144 2.05-8.127 5.78-11.203 3.942-3.158 9.405-4.971 14.993-4.971 5.576 0 11.052 1.813 15.012 4.974 3.732 3.079 5.791 7.062 5.791 11.2 0 4.175-2.059 8.152-5.796 11.208-3.978 3.204-9.307 4.971-15.007 4.971"/><path fill="#fddd00" d="M31.418 123.41c.601-2.224 1.008-4.382 1.325-6.198.134-.797.268-1.6.407-2.422.17-1.02.343-2.064.535-3.158.176-.726.534-1.418.915-2.155.262-.51.537-1.039.779-1.632.517-1.335.428-2.669-.242-3.572l-.034-.053-.049-.039c-.446-.354-.992-.53-1.624-.53-1.088 0-2.169.533-2.716.85l-.703.172-.687.146c-1.275.407-2.583.616-3.889.616-.968 0-1.946-.113-2.914-.335.663-.792 1.51-1.251 2.336-1.696l1.114-.643c.893-.451 1.802-.91 2.707-1.442.687-.401 1.577-.965 2.405-1.734l.8-.391c.436-.165.929-.354 1.17-.8l.857-.85c.811-.773 1.655-1.566 2.284-2.858 1.789-2.84 2.604-6.206 3.391-9.462.138-.561.27-1.117.407-1.668.312-1.227.657-2.509 1.101-3.779.409.871.802 1.828 1.214 2.943.711 1.927 1.296 3.897 1.917 5.984.721 2.429 1.468 4.947 2.436 7.404.044.197.247.626.895.626l.351-.028.296-.021.36.242.236.588.493-.392c1.225-.985 2.591-1.114 3.773-1.114.462 0 .935.023 1.401.044.481.024.962.047 1.44.047l.811-.044.844-.047c.553 0 1.182.083 1.762.608-.653.344-1.306.698-1.948 1.058-1.836 1.009-3.57 1.966-5.397 2.543l-.066.021-.058.039c-.624.434-1.394 1.539-1.591 2.746-.126.8.019 1.524.428 2.107.28.729.888 1.141 1.426 1.51l.876.726c3.561 3.444 6.75 7.499 9.785 12.422l-.105.012c-.397 0-.865-.49-1.321-.962l-.3-.309c-2.158-1.771-4.343-2.998-6.454-4.183-2.369-1.325-4.818-2.699-7.189-4.815-.605-.533-1.243-.803-1.896-.803-1.688 0-3.092 1.732-4.568 3.563-.753.926-1.531 1.887-2.308 2.547-1.759 1.539-3.197 3.419-4.589 5.232-.351.454-.697.91-1.051 1.355l-.483.629c-.364.48-.718.946-1.094 1.363v-.008z"/><path fill="#232222" d="M1130.076 138.229l.524.541v2.051l-.524.516h-4.759v12.846l-.542.542h-2.45l-.518-.542v-12.846h-4.759l-.521-.516v-2.051l.521-.541zm11.085 8.717l3.656-8.248.749-.472h3.913l.521.519v15.463l-.496.514h-2.333l-.519-.514v-11.667l-3.818 8.485c-.186.423-.4.517-.776.517h-1.89c-.349 0-.563-.094-.751-.517l-3.817-8.485v11.667l-.496.514h-2.359l-.491-.514v-15.463l.521-.519h4.005l.755.472z"/></svg>