<svg xmlns="http://www.w3.org/2000/svg" role="img" viewBox="-6.44 49.06 412.62 146.62"><style>svg {enable-background:new 0 0 400 245}</style><style>.st0{fill:#ea4535}.st2{fill:#557ebf}</style><path d="M171.4 125.9c0 18.8-14.7 32.6-32.7 32.6S106 144.7 106 125.9c0-18.9 14.7-32.6 32.7-32.6s32.7 13.7 32.7 32.6zm-14.3 0c0-11.7-8.5-19.8-18.4-19.8s-18.4 8-18.4 19.8c0 11.6 8.5 19.8 18.4 19.8s18.4-8.2 18.4-19.8z" class="st0"/><path fill="#f9bc15" d="M242 125.9c0 18.8-14.7 32.6-32.7 32.6s-32.7-13.8-32.7-32.6c0-18.9 14.7-32.6 32.7-32.6S242 107 242 125.9zm-14.3 0c0-11.7-8.5-19.8-18.4-19.8s-18.4 8-18.4 19.8c0 11.6 8.5 19.8 18.4 19.8s18.4-8.2 18.4-19.8z"/><path d="M309.7 95.3v58.6c0 24.1-14.2 33.9-31 33.9-15.8 0-25.3-10.6-28.9-19.2l12.5-5.2c2.2 5.3 7.7 11.6 16.4 11.6 10.8 0 17.4-6.6 17.4-19.1v-4.7h-.5c-3.2 4-9.4 7.4-17.2 7.4-16.3 0-31.3-14.2-31.3-32.5 0-18.4 14.9-32.8 31.3-32.8 7.8 0 14 3.5 17.2 7.3h.5v-5.3h13.6zM297.1 126c0-11.5-7.7-19.9-17.4-19.9-9.9 0-18.2 8.4-18.2 19.9 0 11.4 8.3 19.7 18.2 19.7 9.8 0 17.4-8.3 17.4-19.7z" class="st2"/><path fill="#36a852" d="M332.1 60.9v95.6h-14V60.9h14z"/><path d="M386.6 136.7l11.1 7.4c-3.6 5.3-12.2 14.5-27.2 14.5-18.5 0-32.4-14.3-32.4-32.6 0-19.4 14-32.6 30.8-32.6 16.9 0 25.2 13.5 27.9 20.8l1.5 3.7-43.6 18.1c3.3 6.5 8.5 9.9 15.8 9.9 7.3-.2 12.4-3.8 16.1-9.2zm-34.2-11.8l29.2-12.1c-1.6-4.1-6.4-6.9-12.1-6.9-7.4 0-17.5 6.4-17.1 19z" class="st0"/><path d="M53 117.4v-13.8h46.7c.5 2.4.7 5.3.7 8.4 0 10.4-2.8 23.2-12 32.4-8.9 9.3-20.3 14.2-35.3 14.2-27.9 0-51.4-22.7-51.4-50.7S25.1 57.2 53 57.2c15.4 0 26.5 6.1 34.7 14L78 80.9C72.1 75.4 64 71 53 71c-20.4 0-36.3 16.4-36.3 36.8s15.9 36.8 36.3 36.8c13.2 0 20.8-5.3 25.6-10.1 3.9-3.9 6.5-9.5 7.5-17.1H53z" class="st2"/></svg>