<svg xmlns="http://www.w3.org/2000/svg" role="img" viewBox="-4.25 23.25 2041.00 388.50"><style>svg {enable-background:new 0 0 2000 430}</style><style>.st0{fill:#53a318}</style><linearGradient id="SVGID_1_" x1="583" x2="583.707" y1="497.34" y2="496.633" gradientUnits="userSpaceOnUse"><stop offset="0" stop-color="#20ac4b"/><stop offset=".983" stop-color="#19361a"/></linearGradient><path d="M1013.4 371.9c66.2 0 110.3-42.9 110.3-115.3V71.4h-72.4v182.3c0 33.7-12.1 50.4-37.5 50.4-24.5 0-35-17.1-35-50.4V71.4H906v185.2c.1 74 40.4 115.3 107.4 115.3zm304.3-284.3c-20-14.1-43.7-16.2-74.9-16.2h-98.2v295.9h72.4V272h20.8c30.8 0 54.1-2.1 72.9-13.3 29.5-17.9 47-49.5 47-87.8 0-37.1-13.7-65-40-83.3zm-86.5 120.3h-13.3v-70.3h19.1c32.1 0 47.5 10 47.5 34.5-.1 26.6-17.5 35.8-53.3 35.8zm526.9-5.4l110.3 164.8h63.6V71.4h-72.3v164.4L1751 71.4h-65.3v295.9h72.4zm-916.6-92.8C812.8 81.4 775.4 66 735.8 66c-42 0-78.7 14.6-107.8 43.3-29.1 28.7-45 66.2-45 107 0 43.7 14.2 80.3 42 109.9 29.1 30.8 66.6 46.6 110.3 46.6 41.2 0 80.3-16.2 109-46.2 27.9-28.7 42.9-66.6 42.9-109 .1-40.5-15.7-78.4-45.7-107.9zM735.4 299.5c-40.8 0-77.8-35.8-77.8-82.4 0-43.3 34.5-77.8 78.7-77.8 41.6 0 76.2 34.5 76.2 77.8-.1 48.2-34.6 82.4-77.1 82.4zm890.3-189.8C1597 81.4 1559.5 66 1520 66c-42.1 0-78.7 14.6-107.8 43.3-29.1 28.7-45 66.2-45 107 0 43.7 14.2 80.3 42 109.9 29.2 30.8 66.6 46.6 110.3 46.6 41.2 0 80.3-16.2 109-46.2 27.9-28.7 42.9-66.6 42.9-109 .1-40.5-15.7-78.4-45.7-107.9zm-106.1 189.8c-40.8 0-77.8-35.8-77.8-82.4 0-43.3 34.6-77.8 78.7-77.8 41.6 0 76.2 34.5 76.2 77.8-.1 48.2-34.7 82.4-77.1 82.4zM79.1 326.1c29.1 30.8 66.2 47 109.9 47 50.4 0 97.8-25 126.1-66.2 17.1-25 25.4-53.3 25.4-86.6 0-6.2-.4-12.9-.8-19.6H171.1v59.1h84.5c-14.6 25.8-39.1 40-66.6 40-40.8 0-77.4-36.2-77.4-83.3 0-42.5 34.1-77.8 77.4-77.8 23.3 0 42.4 9.6 60.8 28.7h82.4c-23.7-63.3-79.1-102-142.3-102-42 0-78.6 15-107.8 43.7-29.1 28.7-44.9 66.2-44.9 107-.1 43.8 14 80.4 41.9 110zm425.7-60.4c42-11.7 67-47.4 67-95.3 0-36.6-13.7-64.5-40-82.8-20-14.1-43.7-16.2-74.9-16.2h-98.2v295.9h72.4V272l56.6 95.3h89.5l-72.4-101.6zm-59.5-57.8h-14.1v-70.3h20c32 0 47.4 10 47.4 34.5 0 26.6-17.5 35.8-53.3 35.8zm1530.2-99c6.2 0 11.5-2.2 15.8-6.6 4.4-4.4 6.5-9.7 6.5-15.8 0-6.2-2.2-11.4-6.5-15.7-4.3-4.3-9.6-6.5-15.8-6.5-6.1 0-11.4 2.2-15.7 6.5-4.4 4.4-6.5 9.6-6.5 15.7 0 6.2 2.2 11.5 6.5 15.8 4.3 4.4 9.5 6.6 15.7 6.6zm-13.5-36c3.8-3.8 8.3-5.7 13.6-5.7 5.3 0 9.9 1.9 13.6 5.7 3.7 3.7 5.6 8.3 5.6 13.6 0 5.3-1.9 9.9-5.6 13.7-3.7 3.8-8.2 5.7-13.6 5.7-5.3 0-9.9-1.9-13.6-5.7-3.7-3.8-5.6-8.3-5.6-13.7 0-5.3 1.8-9.8 5.6-13.6z" class="st0"/><path d="M1985.4 98.3c-.1-.2-.2-.6-.2-1.3 0-.6-.1-1.3-.1-1.8v-1.8c0-1.2-.4-2.5-1.3-3.8-.9-1.3-2.3-2.1-4.2-2.4 1.5-.2 2.7-.6 3.5-1.2 1.6-1 2.4-2.7 2.4-4.8 0-3.1-1.3-5.2-3.8-6.2-1.4-.6-3.6-.9-6.7-.9h-8.6v24.5h4.3V89h3.4c2.3 0 3.9.3 4.8.8 1.6.9 2.3 2.8 2.3 5.6v1.9l.1.8v.3c0 .1 0 .2.1.2h4v-.3zm-6.5-12.9c-.9.4-2.3.5-4.1.5h-3.9V77h3.7c2.4 0 4.1.3 5.2.9 1.1.6 1.6 1.8 1.6 3.6 0 2-.9 3.3-2.5 3.9z" class="st0"/></svg>