<svg xmlns="http://www.w3.org/2000/svg" role="img" viewBox="-5.91 72.34 411.58 100.08"><style>svg {enable-background:new 0 0 400 245}</style><path fill="#747474" d="M141.9 128.9l-2.4 6.7h-.2c-.4-1.5-1.1-3.8-2.3-6.5l-12.6-31.8H112v50.6h8.2v-31.2c0-2 0-4.2-.1-6.9-.1-1.4-.2-2.4-.3-3.2h.2c.4 2 .9 3.4 1.2 4.3l15.2 36.9h5.8l15.1-37.3c.3-.9.7-2.6 1-4h.2c-.2 3.7-.3 7.1-.4 9.1v32.1h8.7V97.2h-11.9l-13 31.7zm33.1-17.5h8.5v36.3H175v-36.3zm4.3-15.3c-1.4 0-2.6.5-3.6 1.4-1 .9-1.5 2.1-1.5 3.5s.5 2.6 1.5 3.5c1 .9 2.2 1.4 3.6 1.4s2.7-.5 3.6-1.4c1-.9 1.5-2.1 1.5-3.5s-.5-2.6-1.5-3.5c-.8-.9-2.1-1.4-3.6-1.4m34.4 15c-1.6-.3-3.2-.5-4.8-.5-3.9 0-7.4.9-10.3 2.6s-5.3 4.1-6.8 7c-1.6 3-2.4 6.5-2.4 10.5 0 3.5.8 6.5 2.3 9.4 1.5 2.8 3.6 5 6.4 6.5 2.7 1.5 5.8 2.3 9.4 2.3 4.1 0 7.5-.9 10.3-2.4l.1-.1v-7.9l-.3.3c-1.2.9-2.7 1.7-4.1 2.2-1.5.5-2.9.8-4.1.8-3.4 0-6.1-1-8-3.1-2-2.1-2.9-5-2.9-8.6 0-3.7 1-6.7 3-8.8s4.7-3.3 8-3.3c2.8 0 5.6.9 8.1 2.8l.3.3v-8.3l-.1-.1c-1.1-.7-2.4-1.3-4.1-1.6m28.1-.3c-2.1 0-4.1.7-5.8 2-1.4 1.2-2.4 2.9-3.3 4.9h-.1v-6.4h-8.5v36.3h8.5v-18.5c0-3.1.7-5.8 2.1-7.7 1.4-2 3.3-2.9 5.5-2.9.8 0 1.6.2 2.6.3.9.3 1.6.5 2 .9l.3.3v-8.5l-.2-.1c-.5-.4-1.6-.6-3.1-.6m23.2-.2c-6 0-10.7 1.8-14.1 5.2-3.4 3.5-5 8.3-5 14.3 0 5.6 1.7 10.2 5 13.6 3.3 3.3 7.7 5 13.3 5 5.8 0 10.5-1.8 13.8-5.3 3.4-3.5 5-8.3 5-14.1 0-5.8-1.6-10.3-4.8-13.7-3-3.3-7.6-5-13.2-5m6.8 27.9c-1.6 2-4.1 3-7.1 3-3.1 0-5.6-1-7.3-3.1-1.8-2-2.6-5-2.6-8.7 0-3.9.9-6.8 2.6-8.9 1.8-2.1 4.2-3.1 7.3-3.1 3 0 5.4 1 7.1 3 1.7 2 2.6 5 2.6 8.8-.2 3.9-1 7-2.6 9m30.2-12c-2.7-1.1-4.4-2-5.2-2.7-.7-.7-1-1.6-1-2.8 0-1 .4-2 1.4-2.6s2.1-1 3.7-1c1.4 0 2.9.3 4.4.7 1.4.4 2.8 1 3.8 1.8l.3.3v-8l-.2-.1c-1-.4-2.3-.8-3.9-1.1-1.6-.3-3-.4-4.2-.4-4.1 0-7.4 1-10 3.1-2.6 2-3.9 4.8-3.9 8 0 1.7.3 3.2.9 4.5.6 1.2 1.4 2.4 2.6 3.4 1.2.9 2.9 2 5.2 2.9 2 .9 3.5 1.5 4.4 2 .9.5 1.5 1.1 2 1.6.3.5.5 1.2.5 2 0 2.4-1.8 3.6-5.6 3.6-1.4 0-2.9-.3-4.7-.9-1.8-.6-3.4-1.4-4.8-2.4l-.3-.3v8.3l.2.1c1.2.6 2.8 1 4.6 1.4 1.8.3 3.5.6 4.9.6 4.4 0 8-1 10.5-3.1 2.6-2.1 4-4.8 4-8.3 0-2.4-.7-4.6-2.1-6.2-1.7-1.5-4.1-3.1-7.5-4.4m32.2-15.9c-6 0-10.7 1.8-14.1 5.2s-5 8.3-5 14.3c0 5.6 1.7 10.2 5 13.6 3.3 3.3 7.7 5 13.3 5 5.8 0 10.5-1.8 13.8-5.3 3.4-3.5 5-8.3 5-14.1 0-5.8-1.6-10.3-4.8-13.7-3-3.3-7.5-5-13.2-5m6.8 27.9c-1.6 2-4.1 3-7.1 3-3.1 0-5.6-1-7.3-3.1-1.8-2-2.6-5-2.6-8.7 0-3.9.9-6.8 2.6-8.9 1.8-2.1 4.2-3.1 7.3-3.1 2.9 0 5.4 1 7.1 3 1.7 2 2.6 5 2.6 8.8-.1 3.9-1 7-2.6 9m56.8-20.1v-7h-8.6v-10.7l-.3.1-8.1 2.4-.2.1v8.2h-12.8v-4.6c0-2.1.5-3.7 1.4-4.8.9-1 2.3-1.6 4-1.6 1.2 0 2.4.3 3.8.9l.3.2v-7.4l-.2-.1c-1.2-.4-2.8-.7-4.8-.7-2.6 0-4.8.6-6.8 1.6-2 1.1-3.5 2.6-4.6 4.6-1.1 2-1.7 4.2-1.7 6.7v5h-6v6.9h6v29.3h8.6v-29.3h12.8v18.7c0 7.7 3.6 11.5 10.8 11.5 1.2 0 2.4-.2 3.6-.4 1.2-.3 2.2-.6 2.7-.9l.1-.1v-7l-.3.3c-.5.3-1 .6-1.8.8-.7.2-1.2.3-1.7.3-1.7 0-2.9-.4-3.7-1.4-.8-.9-1.2-2.4-1.2-4.6v-17.2l8.7.2z"/><path fill="#f05225" d="M2.2 80.3h40.1v40.1H2.2V80.3z"/><path fill="#7fbb42" d="M46.6 80.3h40.1v40.1H46.6V80.3z"/><path fill="#33a0da" d="M2.2 124.6h40.1v40.1H2.2v-40.1z"/><path fill="#fdb813" d="M46.6 124.6h40.1v40.1H46.6v-40.1z"/></svg>