<svg xmlns="http://www.w3.org/2000/svg" role="img" viewBox="33.92 41.80 159.78 173.16"><path fill="#2165e5" d="M164.9 45.2h-30.17a4.35 4.35 0 0 0-4.34 4.33v37l-23.68-31.1A25.83 25.83 0 0 0 86.16 45.2H62.75a14.06 14.06 0 0 0-14.06 14v92.34a14.06 14.06 0 0 0 14.06 14H93a4.33 4.33 0 0 0 4.34-4.33V124l23.56 31.36a25.81 25.81 0 0 0 20.64 10.31h23.36a14.06 14.06 0 0 0 14.06-14V59.25A14.06 14.06 0 0 0 164.9 45.2zM89.1 156.91H62.65a5.54 5.54 0 0 1-5.55-5.55v-80l32 42.08zm76.3 0h-24a17.34 17.34 0 0 1-13.76-6.79L59.09 60.55a4.16 4.16 0 0 1 3.3-6.7h23.87A17.31 17.31 0 0 1 100 60.63l68.7 89.58a4.16 4.16 0 0 1-3.3 6.7zm5.23-17.81l-32-41.91V53.85h26.45a5.54 5.54 0 0 1 5.55 5.55zM59.8 211.34h-4.71l-11.74-13.42v13.42h-6.08v-24.47h4.65l11.8 13.78v-13.78h6.08zm18.98-7.12v.1H66.36a3.78 3.78 0 0 0 3.93 2.81 3 3 0 0 0 2.71-1.26h5.76c-.83 3.6-4.18 5.87-8.5 5.87-5.72 0-9.53-3.82-9.53-9.14s3.7-9.11 9.28-9.11c5.08 0 8.93 3.49 8.93 8.75a12 12 0 0 1-.16 1.98zm-12.49-3.31h7.13A3.25 3.25 0 0 0 70 198a3.56 3.56 0 0 0-3.71 2.91zm32.5 10.43H93v-1a8.68 8.68 0 0 1-4.78 1.33 9.12 9.12 0 0 1 0-18.21 8.68 8.68 0 0 1 4.78 1.37v-.94h5.83zm-5.83-6v-5.4a4.52 4.52 0 0 0-3.63-1.66 4.35 4.35 0 0 0 0 8.68A4.48 4.48 0 0 0 93 205.3zm19.04-6.2c-2.84.11-4.64.87-6 2.23v10h-5.83v-17.48H106v1.87a8.75 8.75 0 0 1 6-2.16zm19.05-6.91v-5.36H112.8v24.47h6.09v-8.63H128v-.11a10.55 10.55 0 0 1 1.31-5.19h-10.42v-5.18zm29.38 6.91c-2.84.11-4.64.87-6 2.23v10h-5.83v-17.48h5.83v1.87a8.7 8.7 0 0 1 6-2.16zm29.95 2.23v10h-5.87v-9c0-2.48-1.19-3.67-3.13-3.67a3.37 3.37 0 0 0-2.66 1.44c0 .43.07.86.07 1.29v10H173v-9c0-2.48-1.22-3.67-3.13-3.67a3.29 3.29 0 0 0-2.63 1.55v11.15h-5.83v-17.57h5.83v1a6.18 6.18 0 0 1 4.36-1.58 6.87 6.87 0 0 1 5.36 2.34 8.51 8.51 0 0 1 6.19-2.34c4.13.04 7.23 3.1 7.23 8.06zm-42.5 1.23a9.47 9.47 0 0 1-18.93 0c0-5.26 4-9.11 9.46-9.11s9.47 3.85 9.47 9.11zm-5.51 0a3.94 3.94 0 1 0-7.88 0 3.95 3.95 0 1 0 7.88 0z"/></svg>