<svg xmlns="http://www.w3.org/2000/svg" role="img" viewBox="-0.70 -1.70 504.40 174.90"><defs><style>.cls-1{fill:#f9771b}</style></defs><path d="M350.452 141.605c-.026-.738-.004-1.478-.004-2.217l-.133.002c-.053-1.108-.149-2.217-.144-3.325.003-.803-.21-1.063-1.089-.7a22.3 22.3 0 0 1-4.598 1.216c-6.55 1.168-11.576-1.55-13.344-7.297-1.04-3.38-1.268-6.052-.092-9.41 1.368-3.903 4.127-7.197 8.673-7.417a12.46 12.46 0 0 1 6.128 1.065c.438.164 4.529 2.666 4.622 1.75.218-2.134.057-6.698.026-8.976-.01-.736-.97-.974-1.648-1.134a37.065 37.065 0 0 0-11.904-.886c-7.643.701-13.2 4.232-16.104 10.911a23.297 23.297 0 0 0-.34 17.696c2.082 5.78 6.444 9.53 12.857 11.043a35.853 35.853 0 0 0 15.22-.085c1.96-.382 1.937-.44 1.874-2.236z" class="cls-1"/><path fill="#0b69b8" d="M185.742 17.466c8.066.092 16.175-.789 24.168.936 3.969.857 7.565 2.507 10.192 5.76 2.848 3.529 3.5 7.674 3.15 12.044-.724 9.028-6.475 13.815-14.892 15.344a52.144 52.144 0 0 1-10.143.49c-.964-.014-1.17.301-1.165 1.203.036 6.31 0 12.62.04 18.93.007.933-.242 1.194-1.176 1.178-3.39-.056-6.783-.022-10.174-.022zm11.33 17.31v7.563c0 .46-.115.953.66.938a40.318 40.318 0 0 0 6.718-.296c2.636-.497 5.006-1.473 6.324-4.035a8.49 8.49 0 0 0-5.481-12.254c-2.403-.624-4.848-.425-7.283-.506-.832-.027-.962.308-.952 1.028.034 2.52.013 5.042.013 7.563zm286.595 33.938a16.433 16.433 0 0 1-4.698 3.91c-9.613 4.92-20.465.65-23.87-9.621a31.296 31.296 0 0 1 .403-21.562c2.648-6.87 8.35-10.357 15.74-10.157a14.846 14.846 0 0 1 11.534 5.309 6.056 6.056 0 0 0 .485.433c.024-.559.058-.967.058-1.376.003-6.982.031-13.965-.027-20.947-.01-1.128.343-1.358 1.383-1.333 2.76.069 5.523.054 8.283.005.842-.015 1.157.153 1.156 1.085q-.042 28.995-.007 57.99c.001.788-.159 1.105-1.03 1.088q-4.2-.082-8.401 0c-.878.018-1.061-.312-1.023-1.093.055-1.123.014-2.25.014-3.73zm-18.9-15.053a18.021 18.021 0 0 0 1.504 7.168c1.406 3.164 3.688 5.21 7.295 5.3 3.651.09 6.198-1.714 7.846-4.895a17.322 17.322 0 0 0 1.789-6.928 16.75 16.75 0 0 0-2.616-10.937c-3.766-5.48-11.187-4.932-14.13 1.012-1.288 2.6-1.688 5.392-1.688 9.28zm-168.364-.785c-.204 7.954-3.029 14.56-10.29 18.653-7.973 4.492-21.232 3.895-28.085-4.378a21.225 21.225 0 0 1-4.83-13.413c-.151-6.08 1.371-11.64 5.617-16.202a19.915 19.915 0 0 1 12.665-6.218c5.685-.67 11.101.156 15.935 3.417 5.43 3.665 8.078 8.978 8.79 15.367.101.9.131 1.808.198 2.774zm-11.275-1a15.728 15.728 0 0 0-.54-4.558c-1.28-4.755-4.789-7.719-9.31-7.858a9.6 9.6 0 0 0-10.077 7.273 19.287 19.287 0 0 0 .964 13.95c1.637 3.591 4.64 5.254 8.53 5.267a8.973 8.973 0 0 0 8.697-5.224 19.601 19.601 0 0 0 1.736-8.85zM365.7 52.89c-.217 7.99-3.059 14.595-10.332 18.663-8.002 4.475-21.163 3.84-27.997-4.348a21.219 21.219 0 0 1-4.877-13.514c-.141-6.036 1.371-11.56 5.57-16.103a19.929 19.929 0 0 1 12.76-6.278c5.641-.656 11.023.164 15.83 3.386 5.48 3.675 8.147 9.018 8.853 15.453.098.9.129 1.809.193 2.741zm-31.981-.982a19.857 19.857 0 0 0 1.674 8.682 8.91 8.91 0 0 0 8.603 5.36c3.975.012 7.08-1.638 8.72-5.347a19.261 19.261 0 0 0 .69-14.624 9.399 9.399 0 0 0-9.073-6.528 9.567 9.567 0 0 0-9.446 6.175 14.708 14.708 0 0 0-1.168 6.282zM422.53 37.42a16.167 16.167 0 0 1 9.241-5.84 17.304 17.304 0 0 1 10.682.702c4.56 1.998 6.595 5.863 7.458 10.522a28.004 28.004 0 0 1 .381 5.066c.015 8.048-.017 16.096.035 24.143.007 1.121-.337 1.367-1.387 1.34-2.72-.071-5.445-.087-8.164.007-1.105.038-1.274-.336-1.27-1.328.031-7.732.006-15.464-.003-23.196a17.299 17.299 0 0 0-.396-3.637c-1.136-5.252-5.677-7.354-10.47-4.845-2.69 1.408-3.94 3.874-4.738 6.632a23.614 23.614 0 0 0-.774 6.673c.017 6.154-.018 12.309.03 18.463.007.996-.278 1.252-1.25 1.23-2.838-.064-5.68-.04-8.52-.01-.704.006-1.052-.096-1.05-.944q.04-19.705.006-39.41c-.001-.73.246-.951.957-.943a301 301 0 0 0 8.284-.006c.83-.014.98.33.96 1.048-.04 1.443-.012 2.888-.012 4.333zm-25.767 30.452c-.688.22-.92.708-1.27 1.053-5.138 5.042-11.176 6.674-18.017 4.38-4.938-1.657-7.11-5.698-8.054-10.537a27.762 27.762 0 0 1-.42-5.3c-.008-8.008.023-16.016-.032-24.024-.008-1.18.352-1.446 1.465-1.414 2.72.08 5.444.061 8.165.007.92-.018 1.202.24 1.197 1.186-.038 7.298-.02 14.596-.02 21.895a22.553 22.553 0 0 0 .433 5.172c1.323 5.668 7.352 7.627 11.82 3.81 2.526-2.16 3.402-5.123 3.89-8.258a51.127 51.127 0 0 0 .247-7.679q.033-7.514-.01-15.03c-.004-.793.178-1.109 1.038-1.095 2.919.048 5.839.042 8.757.004.782-.01 1.007.25 1.006 1.018q-.028 19.645 0 39.29c.001.765-.21 1.011-.999.998q-4.14-.073-8.283-.002c-.746.011-.947-.24-.926-.947.044-1.483.013-2.968.013-4.527zm-72.807-45.914a13.15 13.15 0 0 0-3.296-1.258c-3.166-.53-5.275.85-5.862 3.978a39.775 39.775 0 0 0-.24 6.729c-.013.755.533.645.99.646 2.406.006 4.813.055 7.216-.021 1.019-.033 1.259.304 1.218 1.265a60.665 60.665 0 0 0 0 5.321c.045 1-.176 1.376-1.272 1.33-2.283-.095-4.575.026-6.86-.053-1.03-.035-1.324.237-1.32 1.298.043 10.253.005 20.506.055 30.759.006 1.161-.304 1.442-1.432 1.405-2.718-.087-5.442-.068-8.162-.006-.922.02-1.176-.225-1.173-1.163.035-10.293.002-20.585.05-30.878.006-1.14-.263-1.482-1.415-1.419-1.887.104-3.784.006-5.677.04-.66.013-.908-.195-.898-.87q.045-3.075 0-6.151c-.011-.694.277-.872.915-.863 1.892.027 3.79-.07 5.676.038 1.195.07 1.41-.354 1.401-1.454-.02-2.831-.238-5.676.41-8.483 1.393-6.048 5.729-9.655 11.914-9.875a36.179 36.179 0 0 1 7.873.696c.412.076.773.129.714.705-.283 2.73-.546 5.461-.825 8.284zm-85.154 18.989a14.433 14.433 0 0 1 3.259-6.002 11.274 11.274 0 0 1 10.327-3.75c.711.09.995.34.983 1.116a345.389 345.389 0 0 0-.008 8.987c.008.733-.151.838-.858.597a11.895 11.895 0 0 0-4.908-.498 6.874 6.874 0 0 0-5.711 3.86 19.516 19.516 0 0 0-2.013 9.145q-.119 8.75-.015 17.502c.015 1.255-.37 1.486-1.513 1.452-2.757-.082-5.519-.047-8.278-.013-.722.009-1.039-.128-1.037-.955q.036-19.69.005-39.382c0-.706.204-.972.937-.962 2.562.034 5.126.044 7.687-.005.828-.016.985.32.974 1.047-.033 2.207-.018 4.415-.006 6.622a2.012 2.012 0 0 0 .175 1.239z"/><path d="M186.404 117.258V92.34c0-1.419.002-1.42 1.466-1.42 2.644 0 5.29.042 7.933-.023.962-.023 1.25.214 1.248 1.223q-.054 20.952-.022 41.903c.001 1.6-.188 1.415 1.44 1.417 5.96.006 11.919.028 17.878-.023 1.01-.008 1.257.286 1.223 1.253-.073 2.083-.041 4.17-.012 6.256.008.616-.166.838-.816.837q-14.75-.027-29.5.008c-.996.004-.837-.57-.837-1.147q-.003-12.683-.001-25.366zm70.724 7.683c-.192 7.336-2.797 13.431-9.498 17.202-7.36 4.142-19.585 3.587-25.904-4.047a19.58 19.58 0 0 1-4.45-12.373c-.139-5.608 1.267-10.737 5.185-14.944a18.372 18.372 0 0 1 11.684-5.732c5.244-.616 10.24.147 14.698 3.158 5.007 3.382 7.448 8.284 8.103 14.177.093.83.12 1.668.182 2.559zm-29.5-.872a18.226 18.226 0 0 0 1.566 8.025 8.222 8.222 0 0 0 7.965 4.9c3.62-.004 6.46-1.51 7.968-4.879a17.761 17.761 0 0 0 .68-13.487 8.669 8.669 0 0 0-8.33-6.075 8.835 8.835 0 0 0-8.792 5.739 13.577 13.577 0 0 0-1.057 5.777zm60.218-13.476c0-1.3.065-2.606-.02-3.902-.066-.98.318-1.174 1.209-1.154 2.46.054 4.923.06 7.383-.003.942-.024 1.185.274 1.18 1.196-.036 7.048-.001 14.097-.025 21.145-.018 5.071.134 10.145-.103 15.213a21.243 21.243 0 0 1-2.92 10.318c-2.656 4.337-6.724 6.567-11.57 7.448a34.487 34.487 0 0 1-18.684-1.747c-.69-.261-.848-.589-.76-1.316.3-2.505.505-5.022.758-7.644a36.415 36.415 0 0 0 8.514 3.04 15.327 15.327 0 0 0 7.193-.19 8.698 8.698 0 0 0 6.122-5.414 22.687 22.687 0 0 0 1.24-9.24 14.01 14.01 0 0 1-4.19 4.043c-8.454 5.011-18.904 1.638-22.248-7.554-2.852-7.84-2.56-15.71 1.85-23.037 4.846-8.048 14.125-8.38 19.918-5.668a15.193 15.193 0 0 1 5.153 4.466zm-.459 13.251a16.318 16.318 0 0 0-1.243-6.267c-1.255-2.937-3.344-4.8-6.656-5.012-3.553-.227-6.38 1.132-7.91 4.343a16.432 16.432 0 0 0 .3 15.672 7.26 7.26 0 0 0 7.039 4.103 7.763 7.763 0 0 0 7.13-4.919 18.1 18.1 0 0 0 1.34-7.92zm26.803.948c0 5.921-.018 11.842.02 17.763.006.911-.142 1.272-1.174 1.237-2.593-.088-5.19-.058-7.784-.012-.784.014-1.07-.146-1.067-1.008q.043-18.092 0-36.184c-.002-.893.29-1.104 1.126-1.089 2.557.046 5.117.058 7.674-.005.947-.023 1.238.217 1.23 1.206-.05 6.03-.025 12.062-.025 18.092z" class="cls-1"/><ellipse cx="309.598" cy="93.589" class="cls-1" rx="6.237" ry="5.602"/><circle cx="103.252" cy="102.455" r="61.541" class="cls-1"/><circle cx="72.028" cy="71.292" r="61.541" fill="#0b69b8" stroke="#fcfcfc" stroke-miterlimit="10" stroke-width="2.924"/><path fill="#448ecc" d="M134.48 72.1a60.388 60.388 0 0 0-5.517-25.257 62.03 62.03 0 0 0-24.29-4.921c-33.55 0-61.728 25.702-61.728 61.133a60.387 60.387 0 0 0 5.518 25.256 62.03 62.03 0 0 0 24.29 4.921c34.09 0 61.727-27.37 61.727-61.133z"/><path fill="#fcfcfc" d="M72.028 134.206a63.003 63.003 0 1 1 63.003-63.003 63.075 63.075 0 0 1-63.003 63.003zm0-123.082a60.08 60.08 0 1 0 60.08 60.08 60.148 60.148 0 0 0-60.08-60.08z"/></svg>