<svg xmlns="http://www.w3.org/2000/svg" role="img" viewBox="-38.30 -38.30 1991.60 609.60"><path fill="#072944" d="M628.47 358.82c15.38 8.51 37.23 14.47 61.97 14.47 53.16 0 83.04-25.54 83.04-64.6 0-32.86-19.62-52.04-57.86-66.19-29.93-11.41-43.23-19.62-43.23-37.88 0-16.43 13.3-30.12 38-30.12a84.53 84.53 0 0 1 45.7 13.23l9.36-28.35c-11.6-7.35-30.83-12.97-54.1-12.97-48.32 0-76.87 27.66-76.87 63.23 0 26.47 18.29 47.92 58.81 62.53 30.4 10.96 42.29 21 42.29 40.16 0 18.72-14.26 32.87-44.19 32.87-20.78 0-41.3-8.22-53.34-15.52l-9.58 29.14zM835.11 60.4c-14.38 0-23.98 10.84-23.98 23.84s9.16 23.39 23.11 23.39c15.26 0 24.43-10.4 24.43-23.4 0-13.42-9.6-23.82-23.56-23.82zm18.74 309.15V150.16h-37.9v219.39h37.9zm66.53-259.67v41.31h-34.65v28.1h34.65v120.73c0 29.29 4.41 48.64 15 59.03 9.25 8.85 23.84 14.24 42.78 14.24 15.72 0 28.2-2.3 36.04-4.61l-1.84-26.29c-6 1.87-12.48 2.8-23.57 2.8-22.64 0-30.5-15.88-30.5-43.93V179.3h58.23v-28.1h-58.23V97.94l-37.9 11.94zm148.02 126.36c3.28-26.91 21.1-62.65 63.28-62.65 46.42 0 57.65 38.38 57.2 62.65H1068.4zm157.05 28.1c.9-4.46 1.34-10.26 1.34-18.29 0-39.37-18.28-100.56-91.82-100.56-66.1 0-104.94 50.6-104.94 115.28 0 69.99 40.25 112.52 110.1 112.52 36.1 0 60.8-6.92 74.62-12.62l-7.14-27.5c-14.27 6.74-32.33 12.03-61.86 12.03-41.72 0-76.88-23.59-77.82-80.87h157.52zm76.9-21.24c0-5.03 1.43-10.98 2.87-16.02 7.65-32.98 34.92-52.58 63.62-52.58 44.5 0 68.9 38.72 68.9 83.49 0 51.76-25.84 87.2-70.33 87.2-30.14 0-55.5-19.58-63.15-48.02-1.43-5.14-1.91-10.73-1.91-16.8V243.1zm-37.91 217.3h37.9V341.94h.97c13.87 19.95 40.66 31.35 71.27 31.35 54.54 0 101.06-36.02 101.06-117.16 0-68.1-37.48-109.72-93.88-109.72-37.8 0-65.54 13.65-82.03 38.83h-.87l-2.18-35.08h-34.1c.93 21.07 1.86 43.96 1.86 72.34v237.9zm277.6-224.16c3.29-26.91 21.1-62.65 63.29-62.65 46.4 0 57.63 38.38 57.2 62.65h-120.49zm157.05 28.1c.9-4.46 1.34-10.26 1.34-18.29 0-39.37-18.28-100.56-91.82-100.56-66.1 0-104.95 50.6-104.95 115.28 0 69.99 40.26 112.52 110.1 112.52 36.1 0 60.8-6.92 74.63-12.62l-7.13-27.5c-14.28 6.74-32.33 12.03-61.87 12.03-41.72 0-76.88-23.59-77.81-80.87h157.51zm29.75 105.21h37.9v-134.5c0-6.94.95-13.87 2.84-18.95 7.55-22.65 28.77-41.6 55.66-41.6 39.15 0 52.82 30.04 52.82 66.1v128.95h37.92V236.43c0-74.41-45.45-90.02-77.06-90.02-37.74 0-64.16 17.56-75.19 36.4h-.86l-2.15-32.65h-33.73c1.39 18.12 1.85 36.25 1.85 59.37v160.02zM533.33 266.67c0 147.28-119.39 266.66-266.66 266.66C119.39 533.33 0 413.95 0 266.67 0 119.4 119.39 0 266.67 0c147.27 0 266.66 119.4 266.66 266.67z"/><path fill="#2a7081" d="M173 316.83c-1.89-3.2 14.82 2.41 28.93-11.7l79.7-79.65 68.76-7.88a39.77 39.77 0 0 0-19 10.61l-82 81.96-76.39 6.66z"/><path fill="#6dcad2" d="M315.04 78.36l-170 169.9a40.1 40.1 0 0 0 .11 56.76 40.16 40.16 0 0 0 56.78.11l170-169.9a40.1 40.1 0 0 0-.1-56.74c-15.73-15.71-41.14-15.77-56.8-.13zm16.34 149.85L161.4 398.1c-15.65 15.63-15.6 41.05.13 56.76a40.15 40.15 0 0 0 56.77.1l169.99-169.88a40.1 40.1 0 0 0-.1-56.75 40.2 40.2 0 0 0-56.8-.12z"/></svg>