<svg xmlns="http://www.w3.org/2000/svg" role="img" viewBox="-19.98 -19.98 1038.96 526.96"><path d="M621.193 177.896c-4.623 2.67-9.89 3.212-14.67 1.932-4.779-1.281-9.07-4.384-11.739-9.008-2.669-4.623-3.212-9.891-1.931-14.67 1.281-4.779 4.384-9.07 9.007-11.739l75.708-43.71c2.425-1.4 5.283-.892 7.608.688 2.852 1.967 6.222 5.978 9.545 11.733 3.322 5.754 5.111 10.678 5.387 14.132.206 2.804-.782 5.532-3.207 6.932l-75.708 43.71m-417.95 169.67h24.256c.89 0 1.689.546 2.012 1.375l24.185 61.965 23.455-61.945c.318-.84 1.122-1.395 2.02-1.395h23.824c1.557 0 2.603 1.597 1.981 3.024l-59.328 136.043c-.342.785-1.116 1.294-1.973 1.297l-20.99.07c-1.553.005-2.604-1.58-1.995-3.009l20.245-47.496-39.658-86.871c-.653-1.431.393-3.058 1.966-3.058M500 281.324c4.572.001 9.142-1.182 13.232-3.55l48.577-28.044c9.822-5.666 21.199-8.044 32.465-6.755 59.021 6.8 100.509 17.955 112.731 21.511 2.533.733 5.244-.112 6.911-2.178 2-2.489 4.556-6.467 6.378-12.178 1.821-5.622 2.066-10.266 1.889-13.466-.134-2.756-2.023-5.111-4.667-5.889C698.36 225.131 613.73 202.22 500 202.22c-113.73 0-198.361 22.911-217.516 28.555-2.644.778-4.533 3.133-4.666 5.889-.178 3.2.066 7.844 1.889 13.466 1.822 5.711 4.377 9.689 6.377 12.178 1.667 2.066 4.378 2.911 6.911 2.178 12.222-3.556 53.71-14.711 112.73-21.511 11.267-1.289 22.644 1.089 32.466 6.755l48.577 28.044c4.091 2.368 8.66 3.551 13.232 3.55m-81.133-157.641c2.67 4.623 6.96 7.727 11.739 9.008 4.779 1.28 10.047.738 14.67-1.931 4.624-2.67 7.727-6.96 9.008-11.739 1.28-4.78.738-10.047-1.931-14.671l-43.71-75.707c-1.4-2.425-4.128-3.414-6.933-3.208-3.454.277-8.378 2.066-14.132 5.388s-9.765 6.692-11.732 9.545c-1.581 2.325-2.089 5.183-.688 7.607l43.709 75.708m-40.06 54.213c4.623 2.67 9.891 3.212 14.67 1.932 4.779-1.281 9.069-4.384 11.739-9.008 2.669-4.623 3.212-9.891 1.931-14.67-1.28-4.779-4.384-9.07-9.007-11.739l-75.708-43.71c-2.425-1.4-5.282-.892-7.608.688-2.852 1.967-6.222 5.978-9.545 11.733-3.322 5.754-5.111 10.678-5.388 14.132-.206 2.804.783 5.532 3.208 6.932l75.708 43.71m140.526-81.095c0 5.338-2.164 10.172-5.663 13.67-3.498 3.499-8.331 5.663-13.67 5.663-5.338 0-10.172-2.164-13.67-5.663-3.499-3.498-5.663-8.332-5.663-13.67V9.381c0-2.8 1.869-5.02 4.4-6.244 3.13-1.487 8.288-2.4 14.933-2.4s11.804.913 14.933 2.4c2.532 1.224 4.4 3.444 4.4 6.244v87.42m61.8 26.882c-2.669 4.623-6.96 7.727-11.739 9.008-4.78 1.28-10.047.738-14.67-1.931-4.623-2.67-7.727-6.96-9.008-11.739-1.28-4.78-.737-10.047 1.931-14.671l43.71-75.707c1.4-2.425 4.128-3.414 6.933-3.208 3.453.277 8.378 2.066 14.132 5.388s9.766 6.692 11.732 9.545c1.581 2.325 2.088 5.183.689 7.607l-43.71 75.708m-72.147 271.93c0 16.6 10.28 29.378 26.63 29.378s27.008-11.043 27.008-28.146c0-17.104-10.286-30.136-27.672-30.136-16.437 0-25.966 12.834-25.966 28.904zm52.975-34.306v-11.58c0-1.194.968-2.161 2.161-2.161h21.455c1.194 0 2.16.967 2.16 2.161v92.246c0 1.193-.966 2.161-2.16 2.161h-21.455c-1.193 0-2.161-.968-2.161-2.161v-12.149c-4.594 7.122-14.693 16.395-31.083 16.395-31.435 0-47.763-23.963-47.763-50.796 0-34.931 24.26-49.942 47.004-49.942 14.938 0 25.328 7.041 31.842 15.826m45.247 80.666v-92.246c0-1.194.967-2.161 2.16-2.161h21.455c1.194 0 2.161.967 2.161 2.161v12.528c5.111-8.799 14.488-16.774 30.611-16.774 16.623 0 35.063 8.167 35.063 45.677v50.815c0 1.193-.968 2.161-2.161 2.161h-21.455c-1.193 0-2.161-.968-2.161-2.161l.001-50.435c0-9.052-2.226-24.545-18.29-24.545-16.065 0-21.608 14.074-21.608 27.104v47.876c0 1.193-.967 2.161-2.161 2.161h-21.455c-1.193 0-2.16-.968-2.16-2.161m110.158 0v-92.246c0-1.194.968-2.161 2.161-2.161h21.455c1.194 0 2.161.967 2.161 2.161l.001 12.528c5.109-8.799 14.487-16.774 30.609-16.774 16.623 0 35.063 8.167 35.063 45.677v50.815c0 1.193-.966 2.161-2.16 2.161H785.2c-1.193 0-2.16-.968-2.16-2.161v-50.435c0-9.052-2.226-24.545-18.29-24.545s-21.606 14.074-21.606 27.104l-.001 47.876c0 1.193-.967 2.161-2.161 2.161h-21.455c-1.193 0-2.161-.968-2.161-2.161m225.565-94.407h20.886c1.194 0 2.162.967 2.162 2.161v19.067c4.207-18.961 20.429-25.412 32.352-22.717.981.222 1.669 1.106 1.669 2.111v21.051c0 1.366-1.254 2.376-2.595 2.113-21.958-4.302-30.858 7.517-30.858 24.166v46.461c0 1.193-.968 2.155-2.161 2.155h-21.455c-1.194 0-2.16-.968-2.16-2.161v-92.246c0-1.194.966-2.161 2.16-2.161M60.889 368.502c-6.611-2.289-10.15-3.514-15.566-5.389-5.417-1.876-14.763-7.253-14.763-15.918 0-8.666 5.986-14.034 17.911-14.034 11.006 0 17.081 5.384 21.038 13.913.538 1.16 1.941 1.625 3.048.985l17.622-10.174c.961-.555 1.353-1.747.895-2.758-5.317-11.72-17.723-25.752-42.367-25.752-27.463 0-44.583 16.333-44.583 37.717s14.115 32.473 33.183 38.958c6.936 2.359 9.832 3.345 15.697 5.34 11.225 3.818 16.41 8.873 16.41 15.9 0 7.027-4.386 15.237-21.938 15.237-15.994 0-21.686-8.453-24.864-16.519-.482-1.221-1.945-1.717-3.082-1.06L1.082 415.599c-.937.541-1.327 1.691-.924 2.695 7.041 17.549 26.481 27.925 48.36 27.925 25.618 0 47.241-13.092 47.241-39.415 0-26.322-28.259-36.013-34.87-38.302m141.529 50.442c-.638-1.107-2.096-1.425-3.128-.672-8.311 6.061-18.142 6.181-25.448-5.242-6.191-9.68-13.709-21.436-13.709-21.436l32.524-40.515c1.135-1.414.129-3.513-1.685-3.513h-25.451c-.691 0-1.34.331-1.747.888l-28.155 38.661v-77.854c0-1.193-.968-2.16-2.161-2.16h-21.456c-1.193 0-2.16.967-2.16 2.16v132.712c0 1.193.967 2.16 2.16 2.16h21.456c1.193 0 2.161-.967 2.161-2.16v-43.138s14.42 22.714 19.778 31.155c7.348 11.575 17.844 16.228 28.994 16.228 10.631 0 17.467-2.857 25.654-10.77.715-.692.873-1.783.376-2.644l-8.003-13.86m154.111-30.626c-6.864-2.537-9.216-3.407-14.443-5.338-5.227-1.933-9.727-4.72-9.727-8.893 0-4.172 3.812-8.8 11.656-8.8 6.851 0 11.031 2.733 13.331 7.414.551 1.123 1.932 1.553 3.016.927l15.079-8.706c1.035-.598 1.388-1.917.793-2.953-4.127-7.187-12.345-16.488-32.029-16.488-24.173 0-36.58 13.968-36.58 29.378s12.624 22.673 24.166 27.333c13.044 5.267 13.923 5.623 15.522 6.268 4.027 1.626 8.833 4.135 8.833 8.786 0 4.652-5.265 8.693-13.552 8.693-7.628 0-16.148-3.112-19.672-11.826-.492-1.22-1.942-1.729-3.081-1.072l-15.211 8.783c-.922.532-1.328 1.66-.941 2.653 4.498 11.537 17.677 21.742 38.905 21.742 23.105 0 38.475-12.341 38.475-29.662 0-17.322-11.522-23.429-24.54-28.239m86.886-19.713c9.615 0 16.783 2.915 23.374 7.72 1.043.76 2.511.464 3.156-.653l8.858-15.344c.57-.986.275-2.24-.669-2.878-9.202-6.214-20.551-11.969-35.951-11.969-15.187 0-29.366 4.205-39.471 14.31-10.105 10.105-14.735 22.058-14.735 36.296 0 17.223 7.064 28.103 14.83 35.869 7.766 7.766 21.637 14.167 39.376 14.167 16.022 0 27.921-6.6 35.936-12.04.936-.635 1.216-1.885.65-2.865l-8.799-15.241c-.639-1.107-2.102-1.435-3.129-.675-5.707 4.219-14.042 7.698-23.426 7.698-10.472 0-29.567-5.993-29.567-27.198 0-21.204 19.006-27.197 29.567-27.197m431.666-2.37c12.312 0 23.598 7.403 25.303 20.755h-51.648c3.351-14.479 14.034-20.755 26.345-20.755zm4.17 58.566c-8.643 0-16.77-2.006-22.696-6.775-5.928-4.771-8.672-9.618-8.672-15.401h76.757c1.214 0 2.186-1.003 2.163-2.217-.449-22.805-7.832-33.544-14.999-40.711-7.396-7.396-20.03-14.216-36.533-14.216s-29.387 6.075-38.001 14.689c-8.615 8.614-15.069 19.502-15.069 36.107 0 16.603 6.693 27.493 14.879 35.679 8.187 8.187 21.455 14.26 40.546 14.26 18.145 0 33.264-6.41 44.307-18.942.9-1.023.632-2.619-.548-3.301l-15.29-8.828c-.806-.464-1.825-.37-2.512.257-7.729 7.056-17.395 9.399-24.332 9.399" fill="#0770E3"/></svg>