<svg xmlns="http://www.w3.org/2000/svg" role="img" viewBox="-4.79 -1.54 405.08 248.08"><style>svg {enable-background:new 0 0 400 245}</style><style>.st0{fill:#fff}.st1{fill:#3c3c64}.st4{fill:#54547b}.st5{fill:#c49a7e}.st6{fill:#d8b8a0}.st7{fill:#343152}</style><g><path d="M124.3,61.5c-4.7-14.7-15.5-35.4-17.1-38.3l-1.3-2.5c-0.9-1.7-1.8-3.5-2.7-5.2l-4.9-9.2l-7,49.5l-0.2,1.8 C85.6,57.1,80.1,57,74.5,57c-5.9,0-11.5,0.2-16.7,0.5l-0.2-1.8l-2.4-17.3c0,0-4.5-32.1-4.5-32.1l-5,9.2c-1.2,2.3-2.4,4.6-3.6,7 l-0.4,0.8c-1.5,2.9-12.4,23.6-17.2,38.3C10.7,64.2,3.2,67,3.2,67v120.2l71.2,51.6l71.2-51.6V67C145.6,67,138.1,64.1,124.3,61.5 L124.3,61.5z" class="st0"/><path d="M105.1,154.8H74.4v-52.5l-31.1,51l-4.8,52.4l35.5,25.9l0.5,0.4l36.3-26.5L105.1,154.8z" class="st1"/><path fill="#dcdbdb" d="M73.8,231.4l-66-47.9V71.8c0,0,24.4-9.3,66.1-9.3c41.7,0,66,9.3,66,9.3v111.7L73.8,231.4L73.8,231.4z"/><path fill="#c7c6c5" d="M74.8,62.5L74.8,62.5l-0.1,168.9h0l66.1-47.9V71.8C140.8,71.8,116.5,62.5,74.8,62.5"/><path d="M38.4,205.7l36,26.3V102.3l-31.1,51L38.4,205.7z" class="st4"/><path d="M121,78.3c0-11-18.2-45.5-18.2-45.5l-6.2,43.7l-5.5,9.2l-16.6,0.7l-0.1,0.1v-0.1l-16.6-0.7l-5.5-9.2l-6.2-43.7 c0,0-18.2,34.5-18.2,45.5l7.7,21.1c0,0-3.9,35.4-2.1,40c1.8,4.6,14.1,20.1,14.1,20.1s0,13,3.3,22.4c2.4,6.7,7.7,9.4,12.7,9.4 c7.8,0,10.8-7.2,10.8-7.2s3.1,7.2,10.9,7.2c5.1,0,10.3-2.7,12.7-9.4c3.4-9.4,3.3-22.4,3.3-22.4s12.3-15.5,14.1-20.1 c1.8-4.6-2.1-40-2.1-40L121,78.3L121,78.3z" class="st5"/><path d="M74.5,86.5L74.5,86.5L74.5,86.5l-16.6-0.8l-5.5-9.2l-6.2-43.7c0,0-18.2,34.5-18.2,45.5l7.7,21.1 c0,0-3.9,35.4-2.1,40c1.8,4.6,14.1,20.1,14.1,20.1s0,13,3.3,22.4c2.4,6.7,7.7,9.4,12.7,9.4c7.8,0,10.8-7.2,10.8-7.2s0,0,0,0.1 L74.5,86.5L74.5,86.5L74.5,86.5z" class="st6"/><path d="M113.5,101.4c-1.4-3,0.6-10.1,0.6-10.1c-11.5-12-14.4-37-14.4-37c-2.1,7.9-6.8,31.1-6.8,31.1 s-8.6-3.3-18.4-3.3h-0.1c-0.5,0-1.1,0-1.6,0v98l0.7,1.1v-0.5h0.5v0.5l0-0.5H75v0.5v-0.5h0.5v0.5l8-11.8l1.7-33.2l9.9,11.5l12.8,3.8 c0,0,4.8-3.5,4.8-3.4c2-2.9,2.7-5.3,3.2-6.6C117.5,136.9,113.5,101.4,113.5,101.4" class="st1"/><path d="M74.6,82.1L74.6,82.1L74.6,82.1c-9.8,0-18.4,3.3-18.4,3.3s-4.7-23.2-6.8-31.1c0,0-2.9,25-14.4,37 c0,0,2,7.1,0.6,10.1c0,0-4,35.5-2.2,40.1c0.5,1.3,1.2,3.7,3.2,6.6c0,0,4.8,3.4,4.8,3.4l12.8-3.8l9.9-11.5l1.7,33.2l8,11.8v-0.5h0.5 v0.5v-0.5h0.4L74.6,82.1L74.6,82.1L74.6,82.1z" class="st4"/><path d="M97.7,123.6H82.8v0.2c0,5.3,4.5,9.6,9.8,9.6c5.3,0,9.8-4.3,9.8-9.6v-0.2H97.7L97.7,123.6z" class="st7"/><path d="M86.5,123.6v0.2c0,3.1,2.5,5.7,5.6,5.7c3.1,0,5.6-2.5,5.6-5.7v-0.2H86.5z" class="st0"/><path d="M93.8,123.6h-2.6c0,0,0,0-0.1,0c0.3,0.1,0.5,0.8,0.4,1.3c-0.1,0.7-0.7,1.3-1.5,1.3c0.2,1,1,1.8,2.1,1.9 c1.4,0.2,2.6-0.7,2.8-2.1C95.1,125,94.6,123.6,93.8,123.6 M61.7,123.6H46.8v0.2c0,5.3,4.5,9.6,9.8,9.6c5.3,0,9.8-4.3,9.8-9.6v-0.2 H61.7z" class="st7"/><path d="M50.5,123.6v0.2c0,3.1,2.5,5.7,5.6,5.7c3.1,0,5.6-2.5,5.6-5.7v-0.2H50.5z" class="st0"/><path d="M57.8,123.6h-2.6c0,0,0,0-0.1,0c0.3,0.1,0.5,0.8,0.4,1.3c-0.1,0.8-0.7,1.3-1.5,1.3c0.2,1,1,1.8,2.1,1.9 c1.4,0.2,2.6-0.7,2.8-2.1C59.1,125,58.6,123.6,57.8,123.6" class="st7"/><path d="M96.5,119.1c0.6-0.7,5.9-6.8-1.2-6.8c-6.4,0-11,5.3-12.3,6.8H96.5z" class="st5"/><path d="M65.9,119.1c-1.2-1.6-5.8-6.8-12.3-6.8c-7.1,0-1.8,6.1-1.2,6.8H65.9z" class="st6"/><path d="M43.3,123.5h27.2V121H43.3V123.5z" class="st4"/><path d="M114,86.7c-7.9-11.3-10.4-29.6-10.6-31.3l1.4-10.2c5.9,12.1,12,26.5,12.4,32.5L114,86.7z M112,138.1 c-1.1,2.8-8.5,12.9-13.5,19.1l-0.8,1l0,1.3c0,0.1,0,12.5-3.1,21.1c-2.2,6.2-7.2,6.9-9.2,6.9c-5.1,0-7.4-4.8-7.4-5l-0.3-4.5h-6.3 l-0.3,4.5c-0.1,0.2-2.3,5-7.4,5c-2,0-7-0.7-9.3-6.9c-3.1-8.6-3.1-21-3.1-21.1l0-1.3l-0.8-1c-4.9-6.2-12.4-16.3-13.5-19.1 c-0.8-3,0.5-22.2,2.3-38.3l0.1-0.9l-1.4-3.8C42.9,90,46.2,83,48.6,76.3l0.2,1.6l7.6,12.7l3-1.3c0.1,0,7.7-3.3,15.1-3.3 c7.4,0,15.1,3.3,15.2,3.3l3,1.3l7.6-12.7l0.3-2.1c2.3,6.8,5.7,13.9,10.5,19.1l-1.5,4l0.1,0.9C111.4,116,112.8,135.2,112,138.1 L112,138.1z M69.9,193.8c0.9-0.4,1.8-1,2.7-1.6c0.7,0.2,1.4,0.2,2,0.2c0.5,0,1.2,0,1.9-0.2c0.8,0.6,1.7,1.1,2.7,1.6 c-1.2,0.9-2.8,1.5-4.6,1.5C72.7,195.3,71.1,194.8,69.9,193.8z M74.6,201.9c-4.1,0-9.9-1.9-11.4-6.8c0.1,0,0.3,0,0.4,0 c0.8,0,1.5-0.1,2.2-0.2c2.1,2.9,5.3,3.8,8.6,3.8c3.3,0,6.5-0.9,8.6-3.8c0.7,0.1,1.4,0.2,2.2,0.2c0.2,0,0.3,0,0.5,0 C84.4,200,78.6,201.9,74.6,201.9L74.6,201.9z M31.7,77.7c0.4-6,6.6-20.4,12.4-32.5l1.6,11.1c-0.6,4.1-3.3,20.4-10.6,30.7L31.7,77.7 L31.7,77.7z M124.7,78.4c0-11.6-16.7-43.6-18.6-47.2L100.7,21l-7.7,54.4l-3.5,5.9c-3.4-1.2-9.2-2.8-15.1-2.8 c-5.8,0-11.6,1.6-15,2.8l-3.5-5.9l-2.7-19.1c0,0,0-0.1,0-0.1l0,0l-5-35.2l-5.5,10.2c-1.9,3.6-18.8,35.7-18.8,47.2V79l7.7,20.9 c-1.2,11.4-3.6,36.1-1.7,40.9c1.2,3,5.6,9.3,9.3,14.2l-5.1,47.8l7,5l3.7-34.8c0.5,3.4,1.3,7,2.5,10.2c1.6,4.4,4.4,7.8,8,9.8 c0.2,10.6,10,16.4,19.1,16.4c9.1,0,18.8-5.7,19-16.4c3.6-2,6.4-5.4,8-9.8c1.2-3.4,2-7.1,2.5-10.6l3.7,34.9l7-5.2l-5-47.5 c3.7-5,8.1-11.1,9.2-14.1c1.8-4.8-0.6-29.5-1.8-40.9l7.6-20.9L124.7,78.4L124.7,78.4L124.7,78.4z" class="st7"/></g><path fill="#4c4b74" fill-rule="evenodd" d="M181.5,156c-7.8,0-14.1-1.3-19.5-3.9l1.6-12.4c5.7,2.8,12.1,4.1,17.5,4.1c3.9,0,6.5-1.3,6.5-3.7 c0-6.8-24.5-5.2-24.5-22.9c0-11.4,10.4-17.3,23.5-17.3c6.5,0,13.2,1.8,17.6,3.3l-1.8,12.2c-4.6-1.8-10.8-3.4-16-3.4 c-3.2,0-5.8,1.1-5.8,3.2c0,6.7,25.1,5.4,25.1,22.7C205.8,149.3,195.5,156,181.5,156C181.5,156,181.5,156,181.5,156z M249.3,154.8 v-30.7c0-7-3.1-10.3-9-10.3c-2.9,0-5.9,0.8-8,2.1v39h-18.2v-53.2l17.8-1.5l-0.4,8.7h0.6c4.3-5.7,11-9.1,18.1-9.1 c9.3,0,17.4,5.8,17.4,19.4v35.6L249.3,154.8C249.3,154.8,249.3,154.8,249.3,154.8z M369.7,154.8l-14.6-25.3h-1.5v25.3h-18.2v-63 l18.2-28.4v58.8c3.6-4.4,15.8-21.3,15.8-21.3h22.5l-21.3,22.5l22.1,31.4L369.7,154.8C369.7,154.9,369.7,154.8,369.7,154.8z M311.8,101.1l-7.5,24.3c-1.5,4.6-2.9,13-2.9,13s-1.1-8.7-2.7-13.3l-8-24h-20.4l22.2,53.7c-3,7.1-7.7,13.2-13.9,13.2 c-1.1,0-2.2,0-3.3-0.2l-7.2,11.2c2.3,1.3,6.6,2.6,11.8,2.6c13.5,0,22.5-10.9,28.8-27l21.1-53.6L311.8,101.1 C311.8,101.1,311.8,101.1,311.8,101.1z" clip-rule="evenodd"/></svg>