<svg xmlns="http://www.w3.org/2000/svg" role="img" viewBox="24.64 19.64 1006.72 261.72"><style>svg {enable-background:new 0 0 1059.3 292.5}</style><path fill="#f04e30" d="M282 251.5h52.7V42.4H282v209.1zm730.2-157.8V42.4H854.1v51.3h52.7v157.8h52.7V93.7h52.7zm-855.4 53.5L104.1 42.4H44.8l112.2 212 111.8-212h-59.3l-52.7 104.8zM779.3 42.4v209.1H832V42.4h-52.7zM482.6 147L364 39.6v211.9h52.8v-92.6l118.6 103.9V42.4h-52.7l-.1 104.6zm180.9 55.7c-30.4 0-55-25-55-55.9s24.6-55.9 55-55.9c16.9 0 32.1 7.8 42.1 20l38.7-35.5c-19.8-22-48.5-35.8-80.5-35.8-59.7 0-108.1 48.1-108.1 107.4s48.4 107.4 108.1 107.4c39.5 0 74.1-21.1 92.9-52.5l-45.4-27.6c-9.4 16.9-27.3 28.4-47.8 28.4zm51.2-78.7c-.5.1-.8.6-.6 1 2.8 6.7 4.4 14 4.4 21.8 0 3.9-.4 7.6-1.2 11.3-.1.5.4 1 .9.9 4.9-.7 8.1-1.4 10.1-2.1 18.3-6.7 19.1-25.7 18.6-33-.1-1.6-1.5-2.8-3.2-2.7l-29 2.8zm-37.7 4.3c0 3.8 3 6.9 6.8 6.9s6.8-3.1 6.8-6.9c0-3.8-3-6.9-6.8-6.9-3.7-.1-6.8 3-6.8 6.9z"/></svg>