<?xml version="1.0" encoding="UTF-8"?>
<!DOCTYPE svg PUBLIC "-//W3C//DTD SVG 1.1//EN" "http://www.w3.org/Graphics/SVG/1.1/DTD/svg11.dtd">
<svg version="1.1" xmlns="http://www.w3.org/2000/svg" xmlns:xlink="http://www.w3.org/1999/xlink" x="0" y="0" width="1000" height="1000" viewBox="0, 0, 1000, 1000">
  <g id="Layer_1">
    <path d="M-26.2,-29.5 L1029,-29.5 L1029,1025.7 L-26.2,1025.7 z" fill="#000000"/>
    <path d="M899.1,303.2 L925.8,234 L924.7,229.7 L660.4,299.3 C688.6,258.5 678.9,225.8 678.9,225.8 C678.9,225.8 594.5,279.7 530.6,278.3 C466.8,276.9 446.2,259.9 348.3,291.1 C250.4,322.3 222.7,418.1 194.4,438.7 C166,459.3 76.9,526.3 76.9,526.3 L77.1,527.5 L157.4,501.9 C157.4,501.9 135.4,522.6 88.6,585.7 C88.6,585.7 87.8,585 86.4,583.7 L86.5,584.1 C86.5,584.1 124.1,641.6 161,630.9 C164.7,629.8 168.9,628.1 173.5,625.7 C188.3,634 207.7,642.1 229.1,644.3 C229.1,644.3 214.6,627.5 202.5,608.3 C205.8,606.2 209.1,604 212.5,601.8 L211,603 L241.6,614.2 L238.2,585.5 C238.3,585.4 238.4,585.4 238.5,585.3 L268.5,596.3 L264.8,570.2 C268.6,568.2 272.4,566.3 276.2,564.6 L307.5,446.2 L437,357.8 L426.7,383.7 C400.5,448.3 351.2,463.5 351.2,463.5 L330.6,471.3 C315.3,489.4 308.9,493.8 303.6,554.5 C315.9,551.4 327.7,550.7 338.4,553.5 C393.7,568.4 412.9,635.1 398,653.5 C394.3,658.1 385.4,666 374.2,675.3 L351.8,675.3 L351.5,693.5 C350.7,694.1 350,694.7 349.2,695.3 L326.4,695.3 L326.1,713.1 C324.1,714.6 322.1,716.1 320.1,717.6 C298.6,718 271.5,699.3 271.5,699.3 C271.5,716.3 285.7,742.6 285.7,742.6 C285.7,742.6 286.6,742.2 288.2,741.4 C286.8,742.4 286,743 286,743 C286,743 343.5,781.3 379.6,767.1 C411.8,754.5 495,688.8 566.9,657.7 L784.4,600.4 L813.1,526.1 L647.3,569.8 L647.3,503 L841.8,451.8 L870.5,377.5 L647.3,436.3 L647.3,369.5 L899.1,303.2 z M504.3,444.7 L555.9,431.1 L556.6,433.7 L540.5,475.4 L487,489.5 L504.3,444.7 z M522.1,534 L468.6,548.1 L485.9,503.3 L537.5,489.7 L538.2,492.3 L522.1,534 z M591.8,519 L538.3,533.1 L555.6,488.3 L607.2,474.7 L607.9,477.3 L591.8,519 z" fill="#FFFFFF"/>
  </g>
</svg>
