<?xml version="1.0" encoding="UTF-8"?>
<!DOCTYPE svg PUBLIC "-//W3C//DTD SVG 1.1//EN" "http://www.w3.org/Graphics/SVG/1.1/DTD/svg11.dtd">
<svg version="1.1" xmlns="http://www.w3.org/2000/svg" xmlns:xlink="http://www.w3.org/1999/xlink" x="0" y="0" width="6747" height="2071" viewBox="0, 0, 6747, 2071">
  <g id="Layer_1">
    <path d="M6603.4,331.7 L6700,81.5 L6695.8,66 L5740.1,317.8 C5842,170.4 5807,52.2 5807,52.2 C5807,52.2 5501.8,247.1 5271,242 C5040.2,236.9 4965.8,175.3 4611.9,288.2 C4258,401 4158,747.3 4055.4,821.7 C3952.8,896.1 3630.9,1138.4 3630.9,1138.4 L3631.6,1142.7 L3921.8,1050.3 C3921.8,1050.3 3842.2,1125.3 3673.1,1353.2 C3673.1,1353.2 3670.2,1350.5 3665.2,1345.9 L3665.5,1347.5 C3665.5,1347.5 3801.4,1555.2 3934.8,1516.8 C3948.2,1512.9 3963.3,1506.5 3979.8,1498.1 C4033.5,1528 4103.6,1557.4 4181,1565.5 C4181,1565.5 4128.6,1504.6 4084.9,1435.3 C4096.7,1427.7 4108.8,1419.8 4121.1,1411.8 L4115.4,1415.8 L4225.9,1456.4 L4213.7,1352.5 C4214.1,1352.3 4214.4,1352 4214.8,1351.8 L4323.4,1391.7 L4309.9,1297.2 C4323.7,1290 4337.4,1283.2 4351.1,1276.9 L4464.3,848.7 L4932.4,529.4 L4895.2,623 C4800.3,856.4 4622.1,911.5 4622.1,911.5 L4547.7,939.7 C4492.4,1005.1 4469.1,1021.2 4450.1,1240.7 C4494.7,1229.5 4537.3,1226.8 4575.9,1237.2 C4775.9,1291.1 4845.2,1532.1 4791.3,1598.8 C4777.8,1615.5 4745.7,1644 4705.2,1677.5 L4624,1677.5 L4622.9,1743.3 C4620.1,1745.5 4617.3,1747.6 4614.6,1749.8 L4532,1749.8 L4531,1814 C4523.7,1819.6 4516.4,1825 4509.4,1830.3 C4431.8,1831.9 4333.5,1764.2 4333.5,1764.2 C4333.5,1825.8 4384.8,1920.6 4384.8,1920.6 C4384.8,1920.6 4388.2,1919 4393.9,1916.2 C4388.9,1919.9 4386.1,1921.9 4386.1,1921.9 C4386.1,1921.9 4593.8,2060.4 4724.6,2009.1 C4840.9,1963.5 5142,1726.1 5401.9,1613.7 L6188.4,1406.5 L6292.1,1137.8 L5692.7,1295.7 L5692.7,1054.4 L6396,869.1 L6499.7,600.4 L5692.9,813 L5692.9,571.6 L6603.4,331.7 z M5176,843.2 L5362.6,794 L5365.1,803.3 L5306.9,954.1 L5113.5,1005.1 L5176,843.2 z M5240.4,1166 L5047,1217 L5109.5,1055 L5296.1,1005.8 L5298.6,1015.1 L5240.4,1166 z M5492.4,1111.9 L5299,1162.9 L5361.5,1000.9 L5548.1,951.7 L5550.6,961 L5492.4,1111.9 z" fill="#000000"/>
    <g>
      <path d="M186.7,656.5 L192.8,625.7 C209.8,536.4 243.7,459.3 306.8,400.8 C353,357.7 420.8,331.5 497.8,331.5 C547.1,331.5 584.1,339.2 607.2,346.9 L564.1,494.8 C545.6,488.6 528.7,485.6 504,485.6 C434.7,485.6 394.6,558 382.3,624.2 L376.1,656.5 L522.5,656.5 L496.3,792.1 L353,792.1 L234.4,1409.9 L41.8,1409.9 L160.4,792.1" fill="#000000"/>
      <path d="M816.8,1409.9 C818.3,1369.9 821.4,1328.2 822.9,1283.6 L818.3,1283.6 C758.2,1383.8 685.8,1422.3 625.7,1422.3 C516.3,1422.3 462.4,1328.3 462.4,1195.8 C462.4,967.8 576.4,644.3 899.9,644.3 C975.4,644.3 1050.9,656.6 1097.1,675.1 L1014,1094 C995.5,1181.8 981.6,1328.2 983.2,1409.8 L816.8,1409.8 z M886.1,792.1 C870.7,789 856.8,787.5 846.1,787.5 C719.8,787.5 652,1038.6 650.4,1149.6 C650.4,1215.9 659.7,1263.6 707.4,1263.6 C759.8,1263.6 809.1,1177.3 836.8,1040.2 L886.1,792.1 z" fill="#000000"/>
      <path d="M1120.3,1245 C1151.1,1262 1188.1,1277.3 1242,1275.8 C1297.5,1274.3 1328.3,1238.8 1328.3,1191.1 C1328.3,1149.5 1308.3,1120.2 1255.9,1078.6 C1191.2,1026.2 1160.4,960 1160.4,895.3 C1160.4,756.6 1268.2,644.2 1439.3,644.2 C1505.6,644.2 1553.3,656.5 1581,671.9 L1539.4,812.1 C1517.8,799.8 1482.4,789 1450.1,789 C1388.5,789 1350,821.3 1350,872.2 C1350,910.7 1371.6,933.8 1407,963.1 C1491.7,1027.8 1519.5,1101.7 1519.5,1160.3 C1519.5,1326.7 1403.9,1419.1 1231.4,1419.1 C1162.1,1419.1 1100.4,1399.1 1074.2,1380.6 L1120.3,1245 z" fill="#000000"/>
      <path d="M1970.7,453.1 L1932.2,656.5 L2228,656.5 L2203.3,792.1 L1906,792.1 L1839.7,1141.8 C1835.1,1168 1833.5,1191.1 1833.5,1205 C1833.5,1251.2 1856.6,1268.2 1892.1,1268.2 C1906,1268.2 1926,1268.2 1944.5,1265.1 L1921.4,1409.9 C1886,1419.2 1842.8,1422.2 1805.8,1422.2 C1690.3,1422.2 1633.2,1357.5 1633.2,1255.8 C1633.2,1221.9 1639.4,1180.3 1647.1,1143.3 L1713.4,792 L1625.6,792 L1651.8,656.4 L1739.6,656.4 L1770.4,500.8 L1970.7,453.1 z" fill="#000000"/>
      <path d="M2017,1409.9 L2161.8,656.5 L2354.4,656.5 L2209.6,1409.9 L2017,1409.9 z M2197.2,463.9 C2197.2,408.5 2237.2,345.3 2305,345.3 C2368.2,345.3 2397.5,393 2395.9,445.4 C2394.4,522.4 2342,565.6 2285,565.6 C2223.4,565.6 2195.7,520.9 2197.2,463.9 z" fill="#000000"/>
      <path d="M2474,656.5 L2480.1,625.7 C2497.1,536.4 2531,459.3 2594.1,400.8 C2640.3,357.7 2708.1,331.5 2785.1,331.5 C2834.4,331.5 2871.4,339.2 2894.5,346.9 L2851.4,494.8 C2832.9,488.6 2816,485.6 2791.3,485.6 C2722,485.6 2681.9,558 2669.6,624.2 L2663.4,656.5 L2886.8,656.5 L2860.6,792.1 L2640.3,792.1 L2521.7,1409.9 L2329.1,1409.9 L2447.7,792.1" fill="#000000"/>
      <path d="M3007.1,656.5 L3011.7,1018.6 C3013.2,1089.5 3014.8,1141.9 3013.2,1197.3 L3016.3,1197.3 C3031.7,1135.7 3047.1,1084.8 3073.3,1004.7 L3187.3,656.5 L3381.4,656.5 L3135,1249.6 C3061,1422.2 2976.3,1567 2883.9,1651.7 C2839.2,1693.3 2786.9,1725.7 2754.5,1739.5 L2677.5,1582.3 C2711.4,1565.3 2746.8,1545.3 2777.6,1520.7 C2820.8,1485.2 2862.3,1442.1 2880.8,1400.5 C2883.9,1389.7 2886.9,1382 2885.4,1366.6 L2805.3,656.3 L3007.1,656.3 z" fill="#000000"/>
    </g>
  </g>
</svg>
