<?xml version="1.0" encoding="UTF-8"?>
<!DOCTYPE svg PUBLIC "-//W3C//DTD SVG 1.1//EN" "http://www.w3.org/Graphics/SVG/1.1/DTD/svg11.dtd">
<svg version="1.1" xmlns="http://www.w3.org/2000/svg" xmlns:xlink="http://www.w3.org/1999/xlink" x="0" y="0" width="2909" height="3323" viewBox="0, 0, 2909, 3323">
  <g id="Layer_1">
    <path d="M-0,0 L2909,0 L2909,3323 L-0,3323 L-0,0 z" fill="#000000"/>
    <path d="M2798.3,279.8 L2888.8,45.5 L2884.9,31 L1989.8,266.8 C2085.2,128.7 2052.4,18 2052.4,18 C2052.4,18 1766.6,200.6 1550.4,195.7 C1334.2,190.9 1264.6,133.2 933.1,238.9 C601.6,344.6 508,668.9 411.9,738.6 C315.8,808.3 14.3,1035.3 14.3,1035.3 L15,1039.4 L286.8,952.9 C286.8,952.9 212.3,1023.2 53.9,1236.6 C53.9,1236.6 51.1,1234.1 46.5,1229.7 L46.7,1231.2 C46.7,1231.2 174,1425.8 298.9,1389.7 C311.4,1386.1 325.6,1380.1 341.1,1372.2 C391.4,1400.2 457,1427.8 529.5,1435.3 C529.5,1435.3 480.4,1378.3 439.5,1313.4 C450.6,1306.3 461.9,1298.9 473.4,1291.4 L468.1,1295.2 L571.6,1333.2 L560.2,1235.9 C560.5,1235.7 560.9,1235.5 561.2,1235.3 L662.9,1272.6 L650.2,1184.1 C663.1,1177.4 676,1171 688.8,1165 L794.8,763.9 L1233.2,464.8 L1198.4,552.5 C1109.7,771 942.7,822.7 942.7,822.7 L873,849.1 C821.2,910.3 799.4,925.4 781.6,1131 C823.4,1120.5 863.3,1118 899.4,1127.7 C1086.8,1178.1 1151.6,1403.9 1101.2,1466.4 C1088.6,1482 1058.5,1508.8 1020.5,1540.1 L944.5,1540.1 L943.5,1601.7 C940.9,1603.7 938.3,1605.8 935.7,1607.8 L858.4,1607.8 L857.4,1667.9 C850.5,1673.1 843.8,1678.2 837.1,1683.2 C764.4,1684.7 672.4,1621.3 672.4,1621.3 C672.4,1678.9 720.4,1767.8 720.4,1767.8 C720.4,1767.8 723.5,1766.3 728.9,1763.7 C724.2,1767.1 721.6,1769 721.6,1769 C721.6,1769 916.2,1898.7 1038.7,1850.7 C1147.6,1808 1429.6,1585.6 1673,1480.4 L2409.6,1286.3 L2506.7,1034.7 L1945.4,1182.6 L1945.4,956.6 L2604,783.1 L2701.1,531.5 L1945.5,730.6 L1945.5,504.6 L2798.3,279.8 z M1461.4,758.9 L1636.2,712.8 L1638.5,721.5 L1584,862.8 L1402.8,910.5 L1461.4,758.9 z M1521.8,1061.2 L1340.6,1108.9 L1399.2,957.2 L1574,911.1 L1576.3,919.8 L1521.8,1061.2 z M1757.8,1010.5 L1576.6,1058.2 L1635.2,906.5 L1810,860.4 L1812.3,869.1 L1757.8,1010.5 z" fill="#FFFFFF"/>
    <g>
      <path d="M146,2372.6 L151.3,2346.1 C165.9,2269.3 195,2203 249.4,2152.7 C289.1,2115.6 347.4,2093.1 413.7,2093.1 C456.1,2093.1 487.9,2099.7 507.8,2106.3 L470.7,2233.5 C454.8,2228.2 440.2,2225.6 419,2225.6 C359.4,2225.6 324.9,2287.9 314.3,2344.8 L309,2372.6 L434.9,2372.6 L412.4,2489.2 L289.1,2489.2 L187.1,3020.5 L21.5,3020.5 L123.5,2489.2" fill="#FFFFFF"/>
      <path d="M687.9,3020.5 C689.2,2986.1 691.9,2950.3 693.2,2911.9 L689.2,2911.9 C637.5,2998 575.3,3031.2 523.6,3031.2 C429.5,3031.2 383.2,2950.4 383.2,2836.4 C383.2,2640.3 481.2,2362.1 759.5,2362.1 C824.4,2362.1 889.3,2372.7 929.1,2388.6 L857.6,2749 C841.7,2824.5 829.8,2950.4 831.1,3020.6 L687.9,3020.6 z M747.5,2489.2 C734.3,2486.5 722.3,2485.2 713.1,2485.2 C604.5,2485.2 546.2,2701.2 544.8,2796.5 C544.8,2853.5 552.8,2894.5 593.8,2894.5 C638.8,2894.5 681.2,2820.3 705.1,2702.4 L747.5,2489.2 z" fill="#FFFFFF"/>
      <path d="M948.9,2878.7 C975.4,2893.3 1007.2,2906.5 1053.6,2905.2 C1101.3,2903.9 1127.8,2873.4 1127.8,2832.3 C1127.8,2796.5 1110.6,2771.4 1065.5,2735.6 C1009.9,2690.6 983.4,2633.6 983.4,2577.9 C983.4,2458.6 1076.1,2362 1223.2,2362 C1280.2,2362 1321.2,2372.6 1345.1,2385.8 L1309.3,2506.4 C1290.8,2495.8 1260.3,2486.5 1232.5,2486.5 C1179.5,2486.5 1146.4,2514.3 1146.4,2558 C1146.4,2591.1 1164.9,2611 1195.4,2636.2 C1268.3,2691.9 1292.1,2755.4 1292.1,2805.8 C1292.1,2948.9 1192.7,3028.4 1044.3,3028.4 C984.7,3028.4 931.7,3011.2 909.2,2995.3 L948.9,2878.7 z" fill="#FFFFFF"/>
      <path d="M1680.2,2197.7 L1647.1,2372.6 L1901.5,2372.6 L1880.3,2489.2 L1624.6,2489.2 L1567.6,2789.9 C1563.6,2812.4 1562.3,2832.3 1562.3,2844.2 C1562.3,2883.9 1582.2,2898.5 1612.7,2898.5 C1624.6,2898.5 1641.9,2898.5 1657.7,2895.8 L1637.8,3020.3 C1607.3,3028.3 1570.2,3030.9 1538.4,3030.9 C1439.1,3030.9 1390,2975.2 1390,2887.8 C1390,2858.7 1395.3,2822.9 1401.9,2791.1 L1458.9,2489 L1383.4,2489 L1405.9,2372.4 L1481.4,2372.4 L1507.9,2238.6 L1680.2,2197.7 z" fill="#FFFFFF"/>
      <path d="M1720,3020.5 L1844.5,2372.6 L2010.1,2372.6 L1885.6,3020.5 L1720,3020.5 z M1875,2207 C1875,2159.3 1909.4,2105 1967.7,2105 C2022,2105 2047.2,2146.1 2045.9,2191.1 C2044.6,2257.3 1999.5,2294.4 1950.5,2294.4 C1897.5,2294.4 1873.6,2256 1875,2207 z" fill="#FFFFFF"/>
      <path d="M2113,2372.6 L2118.3,2346.1 C2132.9,2269.3 2162,2203 2216.4,2152.7 C2256.1,2115.6 2314.4,2093.1 2380.7,2093.1 C2423.1,2093.1 2454.9,2099.7 2474.8,2106.3 L2437.7,2233.5 C2421.8,2228.2 2407.2,2225.6 2386,2225.6 C2326.4,2225.6 2291.9,2287.9 2281.3,2344.8 L2276,2372.6 L2468.1,2372.6 L2445.6,2489.2 L2256.1,2489.2 L2154.1,3020.5 L1988.5,3020.5 L2090.5,2489.2" fill="#FFFFFF"/>
      <path d="M2571.4,2372.6 L2575.4,2683.9 C2576.7,2744.8 2578.1,2789.9 2576.7,2837.6 L2579.4,2837.6 C2592.6,2784.6 2605.9,2740.9 2628.4,2672 L2726.5,2372.6 L2893.4,2372.6 L2681.4,2882.7 C2617.8,3031.1 2544.9,3155.6 2465.4,3228.5 C2427,3264.3 2381.9,3292.1 2354.1,3304 L2287.9,3168.9 C2317,3154.3 2347.5,3137.1 2374,3115.9 C2411.1,3085.4 2446.9,3048.3 2462.8,3012.5 C2465.4,3003.2 2468.1,2996.6 2466.8,2983.4 L2397.9,2372.6 L2571.4,2372.6 z" fill="#FFFFFF"/>
    </g>
  </g>
</svg>
