<?xml version="1.0" encoding="UTF-8"?>
<!DOCTYPE svg PUBLIC "-//W3C//DTD SVG 1.1//EN" "http://www.w3.org/Graphics/SVG/1.1/DTD/svg11.dtd">
<svg version="1.1" xmlns="http://www.w3.org/2000/svg" xmlns:xlink="http://www.w3.org/1999/xlink" x="0" y="0" width="1000" height="1000" viewBox="0, 0, 1000, 1000">
  <g id="Layer_1">
    <path d="M-25.7,-30 L1029.5,-30 L1029.5,1025.2 L-25.7,1025.2 z" fill="#FFFFFF"/>
    <path d="M899.6,302.7 L926.3,233.5 L925.2,229.2 L660.9,298.8 C689.1,258 679.4,225.3 679.4,225.3 C679.4,225.3 595,279.2 531.1,277.8 C467.3,276.4 446.7,259.4 348.8,290.6 C250.9,321.8 223.2,417.6 194.9,438.2 C166.5,458.8 77.5,525.8 77.5,525.8 L77.7,527 L158,501.4 C158,501.4 136,522.1 89.2,585.2 C89.2,585.2 88.4,584.5 87,583.2 L87.1,583.6 C87.1,583.6 124.7,641.1 161.6,630.4 C165.3,629.3 169.5,627.6 174.1,625.2 C188.9,633.5 208.3,641.6 229.7,643.8 C229.7,643.8 215.2,627 203.1,607.8 C206.4,605.7 209.7,603.5 213.1,601.3 L211.5,602.4 L242.1,613.6 L238.7,584.9 C238.8,584.8 238.9,584.8 239,584.7 L269,595.7 L265.3,569.6 C269.1,567.6 272.9,565.7 276.7,564 L308,445.7 L437.5,357.4 L427.2,383.3 C401,447.9 351.7,463.1 351.7,463.1 L331.1,470.9 C315.8,489 309.4,493.4 304.1,554.1 C316.4,551 328.2,550.3 338.9,553.1 C394.2,568 413.4,634.7 398.5,653.1 C394.8,657.7 385.9,665.6 374.7,674.9 L352.3,674.9 L352,693.1 C351.2,693.7 350.5,694.3 349.7,694.9 L326.9,694.9 L326.6,712.7 C324.6,714.2 322.6,715.7 320.6,717.2 C299.1,717.6 272,698.9 272,698.9 C272,715.9 286.2,742.2 286.2,742.2 C286.2,742.2 287.1,741.8 288.7,741 C287.3,742 286.5,742.6 286.5,742.6 C286.5,742.6 344,780.9 380.1,766.7 C412.3,754.1 495.5,688.4 567.4,657.3 L784.9,600 L813.6,525.7 L647.8,569.4 L647.8,502.6 L842.3,451.4 L871,377.1 L647.8,435.9 L647.8,369.1 L899.6,302.7 z M504.8,444.2 L556.4,430.6 L557.1,433.2 L541,474.9 L487.5,489 L504.8,444.2 z M522.6,533.5 L469.1,547.6 L486.4,502.8 L538,489.2 L538.7,491.8 L522.6,533.5 z M592.3,518.5 L538.8,532.6 L556.1,487.8 L607.7,474.2 L608.4,476.8 L592.3,518.5 z" fill="#000000"/>
  </g>
</svg>
