<?xml version="1.0" encoding="UTF-8" standalone="no"?>
<svg
   xmlns:dc="http://purl.org/dc/elements/1.1/"
   xmlns:cc="http://creativecommons.org/ns#"
   xmlns:rdf="http://www.w3.org/1999/02/22-rdf-syntax-ns#"
   xmlns:svg="http://www.w3.org/2000/svg"
   xmlns="http://www.w3.org/2000/svg"
   id="svg4"
   version="1.1"
   height="250"
   width="1120.322">
  <metadata
     id="metadata10">
    <rdf:RDF>
      <cc:Work
         rdf:about="">
        <dc:format>image/svg+xml</dc:format>
        <dc:type
           rdf:resource="http://purl.org/dc/dcmitype/StillImage" />
        <dc:title></dc:title>
      </cc:Work>
    </rdf:RDF>
  </metadata>
  <defs
     id="defs8" />
  <path
     style="stroke-width:10.63612652"
     id="path2"
     d="M 347.47162,250 V 4.8904639 h 13.29516 V 43.446424 a 50.415241,50.415241 0 0 0 4.33954,-5.43506 c 11.10412,-23.03785 34.52487,-37.5774401 60.09412,-37.2902601 30.31296,-0.90408 54.94623,10.3170401 69.422,37.2902601 a 119.86915,119.86915 0 0 1 2.89302,109.881816 c -13.4866,30.22788 -46.79895,45.25672 -82.46189,39.73657 A 66.688515,66.688515 0 0 1 361.8304,152.50926 v 97.4801 z m 13.29516,-158.403836 2.97812,28.781356 c 5.25425,32.75927 24.62263,52.11702 55.03132,55.75458 a 62.540425,62.540425 0 0 0 68.69874,-39.73657 c 11.82737,-28.18574 10.95521,-60.094116 -2.33995,-87.620406 a 61.26409,61.26409 0 0 0 -64.54001,-35.66294 59.668671,59.668671 0 0 0 -53.30827,44.07611 304.40595,304.40595 0 0 0 -6.51995,34.39724 z m 420.10574,33.312346 a 71.687494,71.687494 0 0 1 -70.06017,63.35941 c -55.75458,2.80794 -81.91945,-34.21642 -86.07817,-76.94174 a 123.27271,123.27271 0 0 1 10.85948,-67.890396 75.729222,75.729222 0 0 1 78.83497,-42.2679701 72.432023,72.432023 0 0 1 64.26348,55.1270501 371.94535,371.94535 0 0 1 6.24341,40.73636 H 638.50796 c -2.71221,38.736776 18.10269,69.879356 47.6073,77.388456 36.74782,9.04071 68.1563,-6.88157 79.55823,-41.82125 2.5314,-8.96625 7.14748,-10.23195 15.29475,-7.68992 z M 638.4016,84.629504 h 130.97326 c -0.81898,-41.26817 -26.51586,-71.26205 -61.37045,-71.60241 -39.35367,-0.63816 -67.89039,28.15383 -69.60281,71.60241 z m 169.53986,41.183076 h 12.83781 a 51.478853,51.478853 0 0 0 30.22787,44.35265 79.026422,79.026422 0 0 0 68.61365,-1.80814 30.844768,30.844768 0 0 0 18.10269,-30.3236 27.973013,27.973013 0 0 0 -18.82595,-27.97301 c -14.12477,-5.25425 -29.14298,-8.14727 -43.53366,-12.763346 a 319.0838,319.0838 0 0 1 -43.81021,-16.01801 c -23.18675,-11.31684 -24.62263,-55.39295 1.62733,-69.34755 a 92.427941,92.427941 0 0 1 88.34367,-1.36142 c 16.95398,9.35979 26.32441,28.26019 23.53775,47.43712 h -11.00839 c 0,-0.5318 -0.9998,-0.99979 -0.9998,-1.54223 -1.36142,-35.09922 -30.86604,-46.07571 -62.54043,-42.99123 -9.57251,1.06361 -18.64513,3.95664 -27.15403,8.23236 a 27.122123,27.122123 0 0 0 -15.74147,27.15404 27.122123,27.122123 0 0 0 18.10269,25.5267 c 13.82697,5.07343 28.50482,8.32809 42.81041,12.306 l 34.56741,9.04071 a 40.842727,40.842727 0 0 1 28.05811,36.843536 c 2.76539,18.56004 -6.70076,36.801 -23.44203,45.25672 -30.22787,17.10289 -80.01558,12.58254 -102.1919,-9.04071 -11.34875,-11.41256 -17.67724,-26.9094 -17.54961,-42.99123 z M 1114.0492,58.017914 h -12.0401 c 0,-1.62733 -0.6382,-3.19084 -0.819,-4.43526 a 39.353669,39.353669 0 0 0 -32.0466,-37.83271 79.026422,79.026422 0 0 0 -50.7769,2.44631 30.844768,30.844768 0 0 0 -22.35715,29.41953 28.398458,28.398458 0 0 0 21.71895,28.60054 l 55.0313,14.12478 a 153.05386,153.05386 0 0 1 17.5497,5.33934 c 17.5496,6.381666 29.462,22.676216 29.9938,41.300076 a 45.203539,45.203539 0 0 1 -27.6539,42.96995 100.72412,100.72412 0 0 1 -81.4621,0.81898 56.477833,56.477833 0 0 1 -34.0356,-54.85051 h 11.76356 c 4.42463,21.32544 19.07054,39.08777 39.16224,47.49031 20.0916,8.40254 43.0337,6.33913 61.3066,-5.48824 a 32.333825,32.333825 0 0 0 17.3794,-30.22787 27.973013,27.973013 0 0 0 -19.1024,-27.7922 c -14.1248,-5.25425 -29.143,-8.05155 -43.5337,-12.763356 a 320.67922,320.67922 0 0 1 -44.0761,-15.83719 c -22.6337,-11.13602 -24.44184,-54.8505 1.3614,-68.79447 a 91.151606,91.151606 0 0 1 89.7902,-0.99979 47.330764,47.330764 0 0 1 22.7188,46.43733 z M 325.59311,183.84329 a 20.740447,20.740447 0 0 1 -25.70752,-9.7746 l -46.79895,-64.72083 -6.78585,-9.04071 -54.30807,73.85727 A 19.889557,19.889557 0 0 1 167.5509,183.7582 L 237.51535,89.894384 172.42225,5.0819139 c 9.6576,-3.48865 20.42136,0.29781 25.79261,9.0407101 l 48.50074,65.51854 48.78791,-65.26328 a 19.464112,19.464112 0 0 1 24.261,-9.0513401 l -25.2608,33.5144301 -34.21642,44.53347 a 9.0407077,9.0407077 0 0 0 0,13.48661 l 65.16755,86.982236 z M 622.66013,4.1778439 V 16.941194 a 65.624902,65.624902 0 0 0 -69.87935,67.79467 q 0,44.714276 0,89.428556 v 10.13623 H 539.83661 V 4.9755539 h 12.76336 V 41.723364 C 568.25634,14.920324 592.42162,4.9755539 622.74522,4.2522939 Z M 0.02127225,88.724414 5.7222362,60.570584 C 21.378615,4.9010939 85.195375,-18.264386 129.10131,16.217934 c 25.70751,20.18737 32.1211,48.78792 30.86604,81.01538 H 15.135208 c -2.339948,57.562716 39.194127,92.321576 92.321582,74.580516 17.50706,-6.38167 30.68522,-20.93189 35.02476,-39.01331 2.80794,-9.04071 7.44529,-10.59359 15.93292,-7.9771 A 73.495636,73.495636 0 0 1 123.29398,178.50396 85.089014,85.089014 0 0 1 24.175916,165.83633 C 11.242386,151.29674 3.4354689,132.91752 1.9145028,113.50658 c 0,-3.19084 -1.06361266,-6.16895 -1.80814153,-9.0407 Q 0,96.414334 0,88.724414 Z M 15.316023,84.831594 H 146.28929 C 145.47031,43.106064 119.13526,13.505724 84.014765,13.229184 44.916363,12.697374 16.94335,41.648914 15.220297,84.650774 Z" />
</svg>
