<?xml version="1.0" encoding="UTF-8" standalone="no"?>
<svg
   xmlns:dc="http://purl.org/dc/elements/1.1/"
   xmlns:cc="http://creativecommons.org/ns#"
   xmlns:rdf="http://www.w3.org/1999/02/22-rdf-syntax-ns#"
   xmlns:svg="http://www.w3.org/2000/svg"
   xmlns="http://www.w3.org/2000/svg"
   id="svg4"
   version="1.1"
   height="500"
   width="861.6297">
  <metadata
     id="metadata10">
    <rdf:RDF>
      <cc:Work
         rdf:about="">
        <dc:format>image/svg+xml</dc:format>
        <dc:type
           rdf:resource="http://purl.org/dc/dcmitype/StillImage" />
        <dc:title></dc:title>
      </cc:Work>
    </rdf:RDF>
  </metadata>
  <defs
     id="defs8" />
  <path
     style="stroke-width:25.56118393"
     id="path2"
     d="m 822.05434,464.78529 c -23.57102,8.91305 -50.08664,-1.16881 -61.78139,-23.49073 L 647.80375,285.75475 631.49572,264.02774 500.98029,441.52462 c -11.00437,21.35391 -36.14786,31.22309 -58.7396,23.05618 L 610.38218,239.00334 453.94772,35.178469 c 23.20955,-8.38407 49.07747,0.715704 61.98587,21.727011 L 632.4926,214.36238 749.74175,57.518928 c 11.0937,-21.002063 36.16603,-30.356097 58.30506,-21.752557 l -60.70782,80.543289 -82.23033,107.02469 c -9.6735,8.63851 -9.6735,23.77308 0,32.41158 L 821.72204,464.78529 Z M 39.626477,236.19163 53.327273,168.53117 C 90.953337,34.743916 244.32044,-20.928337 349.83703,61.941017 411.61839,110.45615 427.0318,179.1902 424.01558,256.64057 H 75.94892 C 70.325459,394.9777 170.14188,478.51165 297.82,435.87559 c 42.0737,-15.33669 73.74401,-50.3044 84.17297,-93.75842 6.74816,-21.72701 17.89283,-25.45896 38.29067,-19.1709 -6.89256,53.65922 -37.9963,101.20027 -84.40304,129.00732 -77.62638,42.45286 -173.75024,30.1679 -238.204672,-30.44338 -31.082401,-34.94215 -49.844311,-79.11186 -53.49956,-125.76104 0,-7.66837 -2.556118,-14.82549 -4.345401,-21.727 -0.170408,-12.89987 -0.255612,-25.51006 -0.255612,-37.83054 z m 36.756986,-9.35539 H 391.14389 C 389.17568,126.5597 325.88619,55.422917 241.48315,54.758333 147.52023,53.480264 80.294322,123.05782 76.153409,226.40169 Z" />
</svg>
