<?xml version="1.0" encoding="UTF-8" standalone="no"?>
<svg
   xmlns:dc="http://purl.org/dc/elements/1.1/"
   xmlns:cc="http://creativecommons.org/ns#"
   xmlns:rdf="http://www.w3.org/1999/02/22-rdf-syntax-ns#"
   xmlns:svg="http://www.w3.org/2000/svg"
   xmlns="http://www.w3.org/2000/svg"
   viewBox="0 0 1228.7314 1400.5481"
   version="1.1"
   id="svg10"
   width="1228.7313"
   height="1400.5481">
  <metadata
     id="metadata16">
    <rdf:RDF>
      <cc:Work
         rdf:about="">
        <dc:format>image/svg+xml</dc:format>
        <dc:type
           rdf:resource="http://purl.org/dc/dcmitype/StillImage" />
        <dc:title></dc:title>
      </cc:Work>
    </rdf:RDF>
  </metadata>
  <defs
     id="defs14" />
  <g
     transform="matrix(2.1371429,0,0,2.1371429,142.12955,0)"
     id="g845">
    <path
       style="fill:#ffffff;stroke-width:0.570972"
       id="path2"
       d="M 220.96608,0 441.93217,124.98573 V 375.01427 L 220.96608,500 0,375.01427 V 124.98573 Z" />
    <path
       style="fill:#8ed6fb;stroke-width:0.570972"
       id="path4"
       d="m 402.47802,366.3926 -174.2035,98.54973 v -76.73861 l 108.54174,-59.72365 z m 11.93331,-10.79137 V 149.53751 l -63.72045,36.82768 V 318.83065 Z M 38.768985,366.3926 212.97248,464.94233 V 388.20372 L 104.37364,328.48007 Z M 26.835674,355.60123 V 149.53751 l 63.720453,36.82768 V 318.83065 Z M 34.315405,136.17677 212.97248,35.11477 V 109.284 l -114.479846,62.97819 -0.913554,0.51387 z m 372.616195,0 -178.65708,-101.062 V 109.284 l 114.47985,62.92109 0.91355,0.51388 z" />
    <path
       style="fill:#1c78c0;stroke-width:0.570972"
       id="path6"
       d="M 212.97248,370.73199 105.85817,311.8077 V 195.15816 l 107.11431,61.83624 z m 15.30204,0 107.11431,-58.8672 V 195.15816 L 228.27452,256.9944 Z M 113.10951,181.68322 220.6235,122.58764 328.13749,181.68322 220.6235,243.74786 Z" />
  </g>
  <path
     d="m 153.934,1343.3367 h 47.10517 l 48.01873,-159.9862 h -45.90613 l -28.4344,113.5091 -30.3186,-113.5091 H 104.65913 L 74.05505,1296.8596 45.90614,1183.3505 H 0 l 47.73325,159.9862 h 47.10517 l 29.69053,-102.4894 z m 97.57908,-79.5363 c 0,48.0187 32.71668,83.5332 84.16124,83.5332 39.79674,0 61.20818,-23.8667 67.31758,-35.1719 l -27.86343,-21.126 c -4.56777,6.7375 -17.12915,19.5844 -38.88318,19.5844 -23.58113,0 -40.71029,-15.3021 -41.62384,-36.7135 h 112.65273 c 0.28549,-3.0833 0.28549,-6.1094 0.28549,-9.1927 0,-52.301 -28.14891,-85.3602 -77.70926,-85.3602 -45.62065,0 -78.33733,36.0854 -78.33733,84.4467 z m 44.36451,-17.4718 c 1.82711,-18.3282 14.67397,-32.4312 34.60089,-32.4312 19.29885,0 33.34475,12.8469 34.25831,32.4312 z m 127.61219,97.0081 h 39.79674 v -16.501 c 4.28229,5.1958 20.2124,20.4979 47.44772,20.4979 45.9062,0 78.3374,-34.5438 78.3374,-83.8187 0,-49.5604 -29.9761,-84.1042 -75.8822,-84.1042 -27.52083,0 -43.45094,15.3021 -47.44774,20.7834 v -78.0518 h -42.19482 v 221.1944 z m 40.99578,-79.5363 c 0,-29.976 17.75722,-47.1052 40.99578,-47.1052 24.4947,0 40.9958,19.2989 40.9958,47.1052 0,28.4344 -17.1292,46.1916 -40.9958,46.1916 -25.69374,0 -40.99578,-20.8405 -40.99578,-46.1916 z m 141.03008,136.7477 h 42.1948 v -73.7695 c 3.9968,5.1958 19.8698,20.4979 47.4477,20.4979 45.9062,0 75.8822,-34.5438 75.8822,-84.1042 0,-48.9323 -32.4312,-83.8186 -78.3374,-83.8186 -27.2353,0 -43.1654,15.302 -47.4477,20.7833 v -16.8436 h -39.7967 v 217.2547 z m 40.9957,-137.6613 c 0,-25.4082 15.3021,-46.1916 40.9958,-46.1916 23.8666,0 40.9958,17.7572 40.9958,46.1916 0,27.8634 -16.5011,47.1052 -40.9958,47.1052 -23.2386,0 -40.9958,-17.1292 -40.9958,-47.1052 z m 132.18,30.8896 c 0,33.6302 27.5208,53.5572 59.952,53.5572 18.3853,0 30.6041,-5.4814 38.8832,-14.3885 l 2.7407,10.3916 h 37.3415 v -101.2903 c 0,-35.8 -15.302,-62.6927 -66.6895,-62.6927 -24.4947,0 -48.6468,9.1926 -63.0353,18.9562 l 15.9302,28.777 a 94.32454,94.32454 0 0 1 42.5374,-11.3052 c 18.6707,0 29.0624,9.4781 29.0624,23.5811 v 10.3917 c -5.8239,-3.9968 -18.3853,-8.8501 -34.6009,-8.8501 -37.3415,-0.057 -62.1217,21.3544 -62.1217,52.872 z m 42.1948,-1.2561 c 0,-13.1324 11.3053,-22.325 27.5209,-22.325 16.2156,0 27.8634,8.2791 27.8634,22.325 0,13.4749 -11.6478,22.0395 -27.5209,22.0395 -15.873,0 -27.8634,-8.8501 -27.8634,-22.0395 z m 199.21206,17.4717 c -26.60726,0 -45.56356,-19.2988 -45.56356,-46.4771 0,-25.6937 16.8437,-46.8197 44.07896,-46.8197 a 54.356515,54.356515 0 0 1 37.3416,15.3021 l 11.9333,-35.5145 a 81.420578,81.420578 0 0 0 -50.4739,-17.1291 c -48.64676,0 -85.07476,35.7999 -85.07476,84.4467 0,48.6468 35.5145,83.5332 85.36026,83.5332 a 80.507023,80.507023 0 0 0 49.8458,-17.1292 l -11.3052,-34.5438 c -7.0801,5.7668 -19.9269,14.3314 -36.1425,14.3314 z m 63.3207,33.3447 h 42.1949 v -82.6196 l 53.5571,82.6196 h 49.5604 l -60.5801,-87.5299 56.2978,-72.5134 h -47.4478 l -51.3874,67.3175 v -128.4686 h -42.1949 z"
     id="path8"
     style="fill:#2c3a42;stroke-width:0.570972;fill-opacity:1" />
</svg>
