<?xml version="1.0" encoding="UTF-8" standalone="no"?>
<svg
   xmlns:dc="http://purl.org/dc/elements/1.1/"
   xmlns:cc="http://creativecommons.org/ns#"
   xmlns:rdf="http://www.w3.org/1999/02/22-rdf-syntax-ns#"
   xmlns:svg="http://www.w3.org/2000/svg"
   xmlns="http://www.w3.org/2000/svg"
   viewBox="0 0 1739.5799 499.99999"
   version="1.1"
   id="svg10"
   width="1739.5798"
   height="500">
  <metadata
     id="metadata16">
    <rdf:RDF>
      <cc:Work
         rdf:about="">
        <dc:format>image/svg+xml</dc:format>
        <dc:type
           rdf:resource="http://purl.org/dc/dcmitype/StillImage" />
        <dc:title></dc:title>
      </cc:Work>
    </rdf:RDF>
  </metadata>
  <defs
     id="defs14" />
  <path
     d="M 220.96608,0 441.93217,124.98573 V 375.01427 L 220.96608,500 0,375.01427 V 124.98573 Z"
     id="path2"
     style="fill:#ffffff;stroke-width:0.57097179" />
  <path
     d="m 402.47802,366.3926 -174.2035,98.54973 v -76.73861 l 108.54174,-59.72365 z m 11.93331,-10.79137 V 149.53751 l -63.72045,36.82768 V 318.83065 Z M 38.768985,366.3926 212.97248,464.94233 V 388.20372 L 104.37364,328.48007 Z M 26.835674,355.60123 V 149.53751 l 63.720453,36.82768 V 318.83065 Z M 34.315405,136.17677 212.97248,35.11477 V 109.284 l -114.479846,62.97819 -0.913554,0.51387 z m 372.616195,0 -178.65708,-101.062 V 109.284 l 114.47985,62.92109 0.91355,0.51388 z"
     id="path4"
     style="fill:#8ed6fb;stroke-width:0.57097179" />
  <path
     d="M 212.97248,370.73199 105.85817,311.8077 V 195.15816 l 107.11431,61.83624 z m 15.30204,0 107.11431,-58.8672 V 195.15816 L 228.27452,256.9944 Z M 113.10951,181.68322 220.6235,122.58764 328.13749,181.68322 220.6235,243.74786 Z"
     id="path6"
     style="fill:#1c78c0;stroke-width:0.57097179" />
  <path
     d="m 664.78246,329.05104 h 47.10517 l 48.01873,-159.98629 h -45.90613 l -28.4344,113.50919 -30.3186,-113.50919 H 615.50759 L 584.90351,282.57394 556.7546,169.06475 h -45.90614 l 47.73325,159.98629 h 47.10517 l 29.69053,-102.48943 z m 97.57908,-79.53637 c 0,48.01873 32.71668,83.53318 84.16124,83.53318 39.79674,0 61.20818,-23.86662 67.31758,-35.17187 l -27.86343,-21.12595 c -4.56777,6.73747 -17.12915,19.58433 -38.88318,19.58433 -23.58113,0 -40.71029,-15.30204 -41.62384,-36.71349 h 112.65273 c 0.28549,-3.08324 0.28549,-6.10939 0.28549,-9.19264 0,-52.30102 -28.14891,-85.36028 -77.70926,-85.36028 -45.62065,0 -78.33733,36.08541 -78.33733,84.44672 z m 44.36451,-17.47173 c 1.82711,-18.3282 14.67397,-32.4312 34.60089,-32.4312 19.29885,0 33.34475,12.84686 34.25831,32.4312 z m 127.61219,97.0081 h 39.79674 v -16.50108 c 4.28229,5.19584 20.2124,20.49789 47.44772,20.49789 45.9062,0 78.3374,-34.5438 78.3374,-83.81866 0,-49.56035 -29.9761,-84.10415 -75.8822,-84.10415 -27.52083,0 -43.45094,15.30205 -47.44774,20.78338 v -78.05185 h -42.19482 v 221.19447 z m 40.99578,-79.53637 c 0,-29.97602 17.75722,-47.10517 40.99578,-47.10517 24.4947,0 40.9958,19.29885 40.9958,47.10517 0,28.4344 -17.1292,46.19162 -40.9958,46.19162 -25.69374,0 -40.99578,-20.84047 -40.99578,-46.19162 z m 141.03008,136.74775 h 42.1948 v -73.76956 c 3.9968,5.19585 19.8698,20.49789 47.4477,20.49789 45.9062,0 75.8822,-34.54379 75.8822,-84.10414 0,-48.93229 -32.4312,-83.81866 -78.3374,-83.81866 -27.2353,0 -43.1654,15.30204 -47.4477,20.78337 v -16.84367 h -39.7967 v 217.25477 z m 40.9957,-137.6613 c 0,-25.40825 15.3021,-46.19162 40.9958,-46.19162 23.8666,0 40.9958,17.75722 40.9958,46.19162 0,27.86342 -16.5011,47.10517 -40.9958,47.10517 -23.2386,0 -40.9958,-17.12915 -40.9958,-47.10517 z m 132.18,30.88957 c 0,33.63024 27.5208,53.55716 59.952,53.55716 18.3853,0 30.6041,-5.48133 38.8832,-14.38849 l 2.7407,10.39168 h 37.3415 V 227.76065 c 0,-35.79993 -15.302,-62.6927 -66.6895,-62.6927 -24.4947,0 -48.6468,9.19264 -63.0353,18.95626 l 15.9302,28.77698 A 94.32454,94.32454 0 0 1 1357.2,201.49595 c 18.6707,0 29.0624,9.47813 29.0624,23.58113 v 10.39169 c -5.8239,-3.9968 -18.3853,-8.85006 -34.6009,-8.85006 -37.3415,-0.0571 -62.1217,21.35434 -62.1217,52.87198 z m 42.1948,-1.25613 c 0,-13.13236 11.3053,-22.325 27.5209,-22.325 16.2156,0 27.8634,8.27909 27.8634,22.325 0,13.47493 -11.6478,22.03951 -27.5209,22.03951 -15.873,0 -27.8634,-8.85007 -27.8634,-22.03951 z m 199.2121,17.47173 c -26.6073,0 -45.5636,-19.29884 -45.5636,-46.4771 0,-25.69373 16.8437,-46.81969 44.079,-46.81969 a 54.356515,54.356515 0 0 1 37.3416,15.30205 l 11.9333,-35.51445 a 81.420578,81.420578 0 0 0 -50.4739,-17.12915 c -48.6468,0 -85.0748,35.79993 -85.0748,84.44672 0,48.6468 35.5145,83.53318 85.3603,83.53318 a 80.507023,80.507023 0 0 0 49.8458,-17.12916 l -11.3052,-34.54379 c -7.0801,5.76682 -19.9269,14.33139 -36.1425,14.33139 z m 63.3207,33.34475 h 42.1949 v -82.61961 l 53.5571,82.61961 h 49.5604 l -60.5801,-87.52997 56.2978,-72.51342 h -47.4478 l -51.3874,67.31758 V 107.85657 h -42.1949 z"
     id="path8"
     style="fill:#2c3a42;stroke-width:0.57097179;fill-opacity:1" />
</svg>
