<?xml version="1.0" encoding="UTF-8" standalone="no"?>
<svg
   xmlns:dc="http://purl.org/dc/elements/1.1/"
   xmlns:cc="http://creativecommons.org/ns#"
   xmlns:rdf="http://www.w3.org/1999/02/22-rdf-syntax-ns#"
   xmlns:svg="http://www.w3.org/2000/svg"
   xmlns="http://www.w3.org/2000/svg"
   viewBox="0 0 432.5 500"
   height="500"
   width="432.5"
   xml:space="preserve"
   id="svg2"
   version="1.1"><metadata
     id="metadata8"><rdf:RDF><cc:Work
         rdf:about=""><dc:format>image/svg+xml</dc:format><dc:type
           rdf:resource="http://purl.org/dc/dcmitype/StillImage" /><dc:title></dc:title></cc:Work></rdf:RDF></metadata><defs
     id="defs6" /><g
     transform="matrix(1.3333333,0,0,-1.3333333,2.6721573e-4,500)"
     id="g10"><g
       transform="matrix(2.6041667,0,0,2.6041667,162.38001,375.00001)"
       id="g12"><path
         id="path14"
         style="fill:#ffffff;fill-opacity:1;fill-rule:nonzero;stroke:none"
         d="m 0,0 -62.354,-36 v -72 L 0,-144 l 62.206,35.915 v 72.17 z" /></g><g
       transform="matrix(2.6041667,0,0,2.6041667,301.97168,272.9224)"
       id="g16"><path
         id="path18"
         style="fill:#8ed6fb;fill-opacity:1;fill-rule:nonzero;stroke:none"
         d="M 0,0 -51.473,29.118 V 7.749 l 32.983,-18.129 0.263,-0.148 z m -107.354,0 51.473,29.118 V 7.749 l -32.983,-18.145 -0.263,-0.148 z m -2.155,-63.219 v 59.37 l 18.358,-10.611 v -38.165 z m 3.438,-3.11 50.19,-28.393 v 22.109 l -31.289,17.207 z m 108.226,3.11 v 59.37 L -16.203,-14.46 v -38.165 z m -3.438,-3.11 -50.19,-28.393 v 22.109 l 31.273,17.207 z" /></g><g
       transform="matrix(2.6041667,0,0,2.6041667,81.521677,238.77969)"
       id="g20"><path
         id="path22"
         style="fill:#1c78c0;fill-opacity:1;fill-rule:nonzero;stroke:none"
         d="M 0,0 30.976,17.026 61.952,0 30.976,-17.882 Z m 33.18,-54.468 30.861,16.96 V -3.882 L 33.18,-21.698 Z m -4.409,0 -30.86,16.977 v 33.609 l 30.86,-17.816 z" /></g></g></svg>