<?xml version="1.0" encoding="UTF-8" standalone="no"?>
<svg
   xmlns:dc="http://purl.org/dc/elements/1.1/"
   xmlns:cc="http://creativecommons.org/ns#"
   xmlns:rdf="http://www.w3.org/1999/02/22-rdf-syntax-ns#"
   xmlns:svg="http://www.w3.org/2000/svg"
   xmlns="http://www.w3.org/2000/svg"
   xmlns:sodipodi="http://sodipodi.sourceforge.net/DTD/sodipodi-0.dtd"
   xmlns:inkscape="http://www.inkscape.org/namespaces/inkscape"
   width="3.8339775in"
   height="4.125in"
   viewBox="0 0 345.05798 371.25001"
   id="svg7307"
   version="1.1"
   inkscape:version="1.0beta1 (32d4812, 2019-09-19)"
   sodipodi:docname="mocha-hex-sticker.svg"
   inkscape:export-filename="/Users/brian/Documents/GitHub/openjs/artwork/projects/mocha/mocha-hex-sticker.png"
   inkscape:export-xdpi="96"
   inkscape:export-ydpi="96">
  <defs
     id="defs7309" />
  <sodipodi:namedview
     id="base"
     pagecolor="#ffffff"
     bordercolor="#666666"
     borderopacity="1.0"
     inkscape:pageopacity="0.0"
     inkscape:pageshadow="2"
     inkscape:zoom="1.52"
     inkscape:cx="61.574074"
     inkscape:cy="125.74074"
     inkscape:document-units="px"
     inkscape:current-layer="layer2"
     showgrid="false"
     units="in"
     fit-margin-top="1"
     fit-margin-bottom="1"
     fit-margin-right="1"
     fit-margin-left="1"
     showguides="true"
     inkscape:guide-bbox="true"
     inkscape:window-width="2504"
     inkscape:window-height="1360"
     inkscape:window-x="0"
     inkscape:window-y="23"
     inkscape:window-maximized="0"
     inkscape:document-rotation="0">
    <sodipodi:guide
       position="316.53653,275.81345"
       orientation="0,1"
       id="guide8412" />
    <sodipodi:guide
       position="353.01895,96.303395"
       orientation="0,1"
       id="guide8414" />
  </sodipodi:namedview>
  <metadata
     id="metadata7312">
    <rdf:RDF>
      <cc:Work
         rdf:about="">
        <dc:format>image/svg+xml</dc:format>
        <dc:type
           rdf:resource="http://purl.org/dc/dcmitype/StillImage" />
        <dc:title />
      </cc:Work>
    </rdf:RDF>
  </metadata>
  <g
     inkscape:groupmode="layer"
     id="layer3"
     inkscape:label="Background"
     style="display:inline"
     transform="translate(-209.97101,-189.375)">
    <path
       transform="matrix(0.86033594,0,0,0.86346354,277.62095,265.70622)"
       inkscape:transform-center-y="-1.5566024"
       inkscape:transform-center-x="0.34789098"
       d="m 211.60827,74.824 -0.0332,103.56153 -89.70351,51.75202 -89.670315,-51.80951 0.03319,-103.561527 89.703505,-51.752019 z"
       inkscape:randomized="0"
       inkscape:rounded="0"
       inkscape:flatsided="true"
       sodipodi:arg2="0.0003204856"
       sodipodi:arg1="-0.52327829"
       sodipodi:r2="103.56153"
       sodipodi:r1="103.56153"
       sodipodi:cy="126.57602"
       sodipodi:cx="121.90476"
       sodipodi:sides="6"
       id="path7936"
       style="color:#000000;display:inline;overflow:visible;visibility:visible;fill:none;fill-opacity:1;fill-rule:nonzero;stroke:#0093d9;stroke-width:1.16023;stroke-linecap:round;stroke-linejoin:miter;stroke-miterlimit:4;stroke-dasharray:2.32046, 4.64092;stroke-dashoffset:7.51718;stroke-opacity:1;marker:none;enable-background:accumulate"
       sodipodi:type="star" />
    <path
       sodipodi:type="star"
       style="color:#000000;display:inline;overflow:visible;visibility:visible;fill:none;fill-opacity:1;fill-rule:nonzero;stroke:#db3279;stroke-width:1.23811;stroke-linecap:round;stroke-linejoin:miter;stroke-miterlimit:4;stroke-dasharray:none;stroke-dashoffset:7.51718;stroke-opacity:1;marker:none;enable-background:accumulate"
       id="path8410"
       sodipodi:sides="6"
       sodipodi:cx="121.90476"
       sodipodi:cy="126.57602"
       sodipodi:r1="103.56153"
       sodipodi:r2="103.56153"
       sodipodi:arg1="-0.52327829"
       sodipodi:arg2="0.0003204856"
       inkscape:flatsided="true"
       inkscape:rounded="0"
       inkscape:randomized="0"
       d="m 211.60827,74.824 -0.0332,103.56153 -89.70351,51.75202 -89.670315,-51.80951 0.03319,-103.561527 89.703505,-51.752019 z"
       inkscape:transform-center-x="0.32600218"
       inkscape:transform-center-y="-1.4586807"
       transform="matrix(0.80621714,0,0,0.809148,284.21829,272.58127)" />
    <path
       sodipodi:type="star"
       style="color:#000000;display:inline;overflow:visible;visibility:visible;fill:#8d674a;fill-opacity:1;fill-rule:nonzero;stroke:none;stroke-width:0.204669;stroke-linecap:round;stroke-linejoin:miter;stroke-miterlimit:4;stroke-dasharray:none;stroke-dashoffset:7.51718;stroke-opacity:1;marker:none;enable-background:accumulate"
       id="path8424"
       sodipodi:sides="6"
       sodipodi:cx="121.90476"
       sodipodi:cy="126.57602"
       sodipodi:r1="103.56153"
       sodipodi:r2="103.56153"
       sodipodi:arg1="-0.52327829"
       sodipodi:arg2="0.0003204856"
       inkscape:flatsided="true"
       inkscape:rounded="0"
       inkscape:randomized="0"
       d="m 211.60827,74.824 -0.0332,103.56153 -89.70351,51.75202 -89.670315,-51.80951 0.03319,-103.561527 89.703505,-51.752019 z"
       inkscape:transform-center-x="0.3697741"
       inkscape:transform-center-y="-1.6545161"
       transform="matrix(0.91445474,0,0,0.91777907,271.02361,258.83118)" />
    <circle
       r="0.061615959"
       cy="370.09048"
       cx="380.81805"
       style="fill:#ffff00;stroke:#000000"
       id="path852" />
  </g>
  <g
     sodipodi:insensitive="true"
     transform="translate(-209.97101,-189.375)"
     style="display:none"
     inkscape:label="Trim Lines copy"
     id="g368"
     inkscape:groupmode="layer">
    <path
       sodipodi:type="star"
       style="color:#000000;display:inline;overflow:visible;visibility:visible;fill:none;fill-opacity:1;fill-rule:nonzero;stroke:#0093d9;stroke-width:1.16023;stroke-linecap:round;stroke-linejoin:miter;stroke-miterlimit:4;stroke-dasharray:2.32046, 4.64092;stroke-dashoffset:7.51718;stroke-opacity:1;marker:none;enable-background:accumulate"
       id="path362"
       sodipodi:sides="6"
       sodipodi:cx="121.90476"
       sodipodi:cy="126.57602"
       sodipodi:r1="103.56153"
       sodipodi:r2="103.56153"
       sodipodi:arg1="-0.52327829"
       sodipodi:arg2="0.0003204856"
       inkscape:flatsided="true"
       inkscape:rounded="0"
       inkscape:randomized="0"
       d="m 211.60827,74.824 -0.0332,103.56153 -89.70351,51.75202 -89.670315,-51.80951 0.03319,-103.561527 89.703505,-51.752019 z"
       inkscape:transform-center-x="0.34789098"
       inkscape:transform-center-y="-1.5566024"
       transform="matrix(0.86033594,0,0,0.86346354,277.62095,265.70622)" />
    <path
       transform="matrix(0.80621714,0,0,0.809148,284.21829,272.58127)"
       inkscape:transform-center-y="-1.4586807"
       inkscape:transform-center-x="0.32600218"
       d="m 211.60827,74.824 -0.0332,103.56153 -89.70351,51.75202 -89.670315,-51.80951 0.03319,-103.561527 89.703505,-51.752019 z"
       inkscape:randomized="0"
       inkscape:rounded="0"
       inkscape:flatsided="true"
       sodipodi:arg2="0.0003204856"
       sodipodi:arg1="-0.52327829"
       sodipodi:r2="103.56153"
       sodipodi:r1="103.56153"
       sodipodi:cy="126.57602"
       sodipodi:cx="121.90476"
       sodipodi:sides="6"
       id="path364"
       style="color:#000000;display:inline;overflow:visible;visibility:visible;fill:none;fill-opacity:1;fill-rule:nonzero;stroke:#db3279;stroke-width:1.23811;stroke-linecap:round;stroke-linejoin:miter;stroke-miterlimit:4;stroke-dasharray:none;stroke-dashoffset:7.51718;stroke-opacity:1;marker:none;enable-background:accumulate"
       sodipodi:type="star" />
    <path
       transform="matrix(0.91445474,0,0,0.91777907,271.02361,258.83118)"
       inkscape:transform-center-y="-1.6545161"
       inkscape:transform-center-x="0.3697741"
       d="m 211.60827,74.824 -0.0332,103.56153 -89.70351,51.75202 -89.670315,-51.80951 0.03319,-103.561527 89.703505,-51.752019 z"
       inkscape:randomized="0"
       inkscape:rounded="0"
       inkscape:flatsided="true"
       sodipodi:arg2="0.0003204856"
       sodipodi:arg1="-0.52327829"
       sodipodi:r2="103.56153"
       sodipodi:r1="103.56153"
       sodipodi:cy="126.57602"
       sodipodi:cx="121.90476"
       sodipodi:sides="6"
       id="path366"
       style="color:#000000;display:inline;overflow:visible;visibility:visible;fill:none;fill-opacity:1;fill-rule:nonzero;stroke:#000000;stroke-width:1.09157;stroke-linecap:round;stroke-linejoin:miter;stroke-miterlimit:4;stroke-dasharray:none;stroke-dashoffset:7.51718;stroke-opacity:1;marker:none;enable-background:accumulate"
       sodipodi:type="star" />
  </g>
  <g
     style="display:inline"
     inkscape:label="Project artwork"
     id="layer1"
     inkscape:groupmode="layer">
    <g
       id="g43"
       transform="matrix(1.0592461,0,0,1.0592461,84.683181,86.509453)">
      <path
         style="clip-rule:evenodd;fill:#8d6748;fill-rule:evenodd"
         d="m 156.40625,141.47293 -68.70282,39.69498 c -2.958045,1.71756 -6.584028,1.71756 -9.542066,0 L 9.4585298,141.47293 c -2.958038,-1.71757 -4.77103,-4.86645 -4.77103,-8.20617 V 53.876821 c 0,-3.435142 1.812992,-6.488601 4.77103,-8.206172 L 78.161364,5.9756781 c 2.958038,-1.717571 6.584021,-1.717571 9.542056,0 l 68.70282,39.6949709 c 2.95804,1.717571 4.77104,4.866451 4.77104,8.206172 v 79.389939 c -0.0954,3.33972 -1.90842,6.4886 -4.77104,8.20617 z"
         id="XMLID_229_"
         inkscape:connector-curvature="0" />
      <path
         style="fill:#ffffff"
         d="m 82.836973,19.620824 v 0 c 0.954207,0 1.812992,0.286262 2.671781,0.763365 l 59.351606,34.255996 c 1.62216,0.954206 2.67177,2.767198 2.67177,4.67561 v 68.511985 c 0,1.90842 -1.04962,3.72141 -2.67177,4.67562 l -59.351606,34.25599 c -0.858789,0.47711 -1.717574,0.76336 -2.671781,0.76336 -0.954206,0 -1.908412,-0.28625 -2.671777,-0.76336 L 20.813582,132.5034 c -1.62215,-0.95421 -2.671778,-2.7672 -2.671778,-4.67562 V 59.315795 c 0,-1.908412 1.049628,-3.721404 2.671778,-4.67561 L 80.165196,20.384189 c 0.858785,-0.477103 1.812992,-0.763365 2.671777,-0.763365 m 0,-2.862618 c -1.431309,0 -2.862618,0.381683 -4.103085,1.145048 L 19.382273,52.15925 c -2.576357,1.431309 -4.103086,4.198506 -4.103086,7.061124 v 68.511996 c 0,2.95803 1.526729,5.62981 4.103086,7.06112 l 59.351615,34.25599 c 1.240467,0.76337 2.671776,1.14506 4.103085,1.14506 1.431309,0 2.862617,-0.38169 4.103097,-1.14506 l 59.35159,-34.25599 c 2.57636,-1.43131 4.10309,-4.1985 4.10309,-7.06112 V 59.220374 c 0,-2.958038 -1.52673,-5.629815 -4.10309,-7.061124 L 86.94007,17.903254 c -1.24048,-0.763365 -2.671788,-1.145048 -4.103097,-1.145048 z"
         id="XMLID_262_"
         inkscape:connector-curvature="0" />
      <g
         transform="matrix(0.95420602,0,0,0.95420602,-7.5740536,-7.1923652)"
         id="XMLID_228_">
        <g
           id="XMLID_223_">
          <g
             id="XMLID_295_">
            <path
               style="fill:#ffffff"
               id="path8"
               d="m 103.6,69.6 c 0,-0.5 -0.4,-1 -1,-1 h -9.4 -9.4 c -0.5,0 -1,0.4 -1,1 0,3.4 0.5,15.1 5.5,20.8 0.2,0.2 0.4,0.3 0.7,0.3 h 8.4 c 0.3,0 0.5,-0.1 0.7,-0.3 5,-5.6 5.5,-17.3 5.5,-20.8 z m -7.4,18.2 h -5.9 c -0.3,0 -0.5,-0.1 -0.7,-0.3 -3.4,-4 -3.8,-12 -3.9,-14.8 0,-0.5 0.4,-1 1,-1 h 6.6 6.6 c 0.5,0 1,0.4 1,1 0,2.8 -0.5,10.7 -3.9,14.8 -0.3,0.2 -0.5,0.3 -0.8,0.3 z"
               inkscape:connector-curvature="0" />
          </g>
        </g>
        <path
           style="fill:#ffffff"
           d="m 95.1,66.6 c 0,0 3.6,-2.1 1.4,-5.9 -1.3,-2 -1.9,-3.7 -1.4,-4.4 -1.3,1.6 -3.5,3.3 -1.1,6.9 0.8,0.9 1.2,2.8 1.1,3.4 z"
           id="XMLID_225_"
           inkscape:connector-curvature="0" />
        <path
           style="fill:#ffffff"
           d="m 91.1,66.9 c 0,0 2.4,-1.4 0.9,-4 -0.9,-1.3 -1.3,-2.5 -0.9,-2.9 -0.9,1.1 -2.3,2.2 -0.7,4.7 0.5,0.5 0.7,1.8 0.7,2.2 z"
           id="XMLID_224_"
           inkscape:connector-curvature="0" />
        <path
           style="fill:#ffffff"
           d="m 99.3,78.5 c -0.4,2.7 -1.2,5.8 -2.9,7.8 -0.2,0.2 -0.4,0.3 -0.6,0.3 h -5 c -0.2,0 -0.5,-0.1 -0.6,-0.3 -1.2,-1.5 -2,-3.5 -2.5,-5.6 0,0 5.8,0.8 9.1,-0.4 2.4,-0.9 2.5,-1.8 2.5,-1.8 z"
           id="XMLID_227_"
           inkscape:connector-curvature="0" />
      </g>
      <g
         transform="matrix(0.95420602,0,0,0.95420602,-7.5740536,-7.1923652)"
         id="g13">
        <path
           style="fill:#ffffff"
           id="path15"
           d="m 33.6,94.7 h 3.7 l 6.1,9.4 6.1,-9.4 h 3.7 v 20 h -3.5 v -14.3 l -6.3,9.4 h -0.1 l -6.2,-9.3 v 14.3 h -3.5 z"
           inkscape:connector-curvature="0" />
        <path
           style="fill:#ffffff"
           id="path17"
           d="m 71.3,115 c -1.5,0 -2.9,-0.3 -4.2,-0.8 -1.3,-0.5 -2.4,-1.3 -3.3,-2.2 -0.9,-0.9 -1.6,-2 -2.1,-3.3 -0.5,-1.2 -0.8,-2.6 -0.8,-4 v -0.1 c 0,-1.4 0.3,-2.7 0.8,-4 0.5,-1.2 1.2,-2.3 2.2,-3.3 0.9,-0.9 2,-1.7 3.3,-2.2 1.3,-0.6 2.7,-0.8 4.2,-0.8 1.5,0 2.9,0.3 4.2,0.8 1.3,0.5 2.4,1.3 3.3,2.2 0.9,0.9 1.6,2 2.1,3.3 0.5,1.2 0.8,2.6 0.8,4 v 0.1 c 0,1.4 -0.3,2.7 -0.8,4 -0.5,1.2 -1.2,2.3 -2.2,3.3 -0.9,0.9 -2,1.7 -3.3,2.2 -1.3,0.6 -2.7,0.8 -4.2,0.8 z m 0,-3.2 c 1,0 1.9,-0.2 2.7,-0.6 0.8,-0.4 1.5,-0.9 2.1,-1.5 0.6,-0.6 1,-1.4 1.4,-2.2 0.3,-0.9 0.5,-1.8 0.5,-2.7 v -0.1 c 0,-1 -0.2,-1.9 -0.5,-2.8 -0.3,-0.9 -0.8,-1.6 -1.4,-2.3 -0.6,-0.6 -1.3,-1.1 -2.1,-1.5 -0.8,-0.4 -1.7,-0.6 -2.7,-0.6 -1,0 -1.9,0.2 -2.7,0.6 -0.8,0.4 -1.5,0.9 -2.1,1.5 -0.6,0.6 -1,1.4 -1.4,2.2 -0.3,0.9 -0.5,1.8 -0.5,2.7 v 0.1 c 0,1 0.2,1.9 0.5,2.8 0.3,0.9 0.8,1.6 1.4,2.3 0.6,0.6 1.3,1.1 2.1,1.5 0.8,0.4 1.8,0.6 2.7,0.6 z"
           inkscape:connector-curvature="0" />
        <path
           style="fill:#ffffff"
           id="path19"
           d="m 98.7,115 c -1.5,0 -2.8,-0.3 -4,-0.8 -1.2,-0.5 -2.3,-1.3 -3.2,-2.2 -0.9,-0.9 -1.6,-2 -2.1,-3.3 -0.5,-1.3 -0.8,-2.6 -0.8,-4 v -0.1 c 0,-1.4 0.3,-2.8 0.8,-4 0.5,-1.2 1.2,-2.3 2.1,-3.3 0.9,-0.9 2,-1.7 3.3,-2.2 1.3,-0.5 2.6,-0.8 4.2,-0.8 0.9,0 1.7,0.1 2.5,0.2 0.8,0.2 1.4,0.4 2.1,0.6 0.6,0.3 1.2,0.6 1.7,1 0.5,0.4 1,0.8 1.5,1.3 l -2.3,2.6 c -0.8,-0.7 -1.6,-1.3 -2.5,-1.8 -0.9,-0.5 -1.9,-0.7 -3.1,-0.7 -1,0 -1.8,0.2 -2.6,0.6 -0.8,0.4 -1.5,0.9 -2.1,1.5 -0.6,0.6 -1,1.4 -1.4,2.2 -0.3,0.9 -0.5,1.8 -0.5,2.7 v 0.1 c 0,1 0.2,1.9 0.5,2.8 0.3,0.9 0.8,1.6 1.4,2.3 0.6,0.6 1.3,1.2 2.1,1.5 0.8,0.3 1.7,0.6 2.6,0.6 1.2,0 2.3,-0.2 3.1,-0.7 0.8,-0.5 1.7,-1.1 2.6,-1.9 l 2.3,2.3 c -0.5,0.6 -1,1 -1.6,1.5 -0.6,0.5 -1.2,0.8 -1.8,1.1 -0.6,0.3 -1.4,0.6 -2.1,0.7 -0.9,0.2 -1.8,0.2 -2.7,0.2 z"
           inkscape:connector-curvature="0" />
        <path
           style="fill:#ffffff"
           id="path21"
           d="m 113.9,94.7 h 3.5 v 8.3 h 9.6 v -8.3 h 3.5 v 20 H 127 v -8.4 h -9.6 v 8.4 h -3.5 z"
           inkscape:connector-curvature="0" />
        <path
           style="fill:#ffffff"
           id="path23"
           d="m 146,94.6 h 3.2 l 8.8,20.1 h -3.7 l -2,-4.8 h -9.4 l -2.1,4.8 h -3.6 z m 5,12.2 -3.4,-8 -3.4,8 z"
           inkscape:connector-curvature="0" />
      </g>
      <rect
         style="fill:#ffffff"
         height="1.0496266"
         width="121.66127"
         y="108.26656"
         x="22.101755"
         id="XMLID_444_" />
      <path
         style="fill:#ffffff"
         d="M 143.76301,72.388418 H 92.04504 c 0,0.381682 -0.0954,0.667943 -0.0954,1.049626 h 51.81338 v -1.049626 z"
         id="XMLID_446_"
         inkscape:connector-curvature="0" />
      <path
         style="fill:#ffffff"
         d="m 22.101754,72.388418 v 1.049626 h 48.759928 c 0,-0.381683 -0.09542,-0.667944 -0.09542,-1.049626 z"
         id="XMLID_448_"
         inkscape:connector-curvature="0" />
    </g>
  </g>
  <g
     sodipodi:insensitive="true"
     inkscape:groupmode="layer"
     id="layer2"
     inkscape:label="Preview Without Bleeds"
     style="display:none"
     transform="translate(-209.97101,-189.375)">
    <path
       style="opacity:1;fill:#aaaaaa;fill-opacity:1;stroke:none;stroke-width:20.25;stroke-linecap:round;stroke-linejoin:round;stroke-miterlimit:4;stroke-dasharray:none;stroke-dashoffset:6.5;stroke-opacity:1"
       d="M 269.94336,252.9082 V 497.0918 H 495.05664 V 252.9082 Z m 112.58594,32.66992 77.14648,44.73633 -0.0293,89.42188 -77.17578,44.68555 -77.14648,-44.73633 0.0293,-89.42188 z"
       id="rect8416"
       inkscape:connector-curvature="0" />
  </g>
</svg>
