<?xml version="1.0" encoding="UTF-8" standalone="no"?>
<svg
   xmlns:dc="http://purl.org/dc/elements/1.1/"
   xmlns:cc="http://creativecommons.org/ns#"
   xmlns:rdf="http://www.w3.org/1999/02/22-rdf-syntax-ns#"
   xmlns:svg="http://www.w3.org/2000/svg"
   xmlns="http://www.w3.org/2000/svg"
   height="500"
   width="500"
   id="svg28"
   viewBox="115 115 500 500"
   version="1.1">
  <metadata
     id="metadata34">
    <rdf:RDF>
      <cc:Work
         rdf:about="">
        <dc:format>image/svg+xml</dc:format>
        <dc:type
           rdf:resource="http://purl.org/dc/dcmitype/StillImage" />
        <dc:title></dc:title>
      </cc:Work>
    </rdf:RDF>
  </metadata>
  <defs
     id="defs32" />
  <circle
     style="fill:#4c5963;stroke-width:1.35354626"
     id="circle2"
     r="250"
     cy="365"
     cx="365" />
  <polygon
     style="fill:#ffffff"
     transform="matrix(1.3535463,0,0,1.3535463,-41.063879,-41.063897)"
     id="polygon4"
     points="274.7,311 247.4,365.7 192.6,365.7 247.4,228.8 302.1,283.6 356.9,228.8 411.7,365.7 356.9,365.7 329.5,311 302.1,338.3 " />
  <g
     transform="matrix(1.3535463,0,0,1.3535463,-41.063879,-41.063897)"
     id="g26">
    <rect
       style="fill:#58c4c8"
       id="rect6"
       height="20"
       width="19.6"
       y="228.8"
       x="227.8" />
    <rect
       style="fill:#c8e8e9"
       id="rect8"
       height="20"
       width="19.6"
       y="248.39999"
       x="227.8" />
    <rect
       style="fill:#00a9ac"
       id="rect10"
       height="19.6"
       width="20"
       y="267.89999"
       x="227.39999" />
    <rect
       style="fill:#c8e8e9"
       id="rect12"
       height="20"
       width="19.6"
       y="267.89999"
       x="208.2" />
    <rect
       style="fill:#58c4c8"
       id="rect14"
       height="20"
       width="19.6"
       y="287.5"
       x="208.2" />
    <rect
       style="fill:#00a9ac"
       id="rect16"
       height="19.6"
       width="20"
       y="307"
       x="227.39999" />
    <rect
       style="fill:#c8e8e9"
       id="rect18"
       height="20"
       width="19.6"
       y="307"
       x="208.2" />
    <rect
       style="fill:#58c4c8"
       id="rect20"
       height="19.6"
       width="20"
       y="326.60001"
       x="207.8" />
    <rect
       style="fill:#c8e8e9"
       id="rect22"
       height="20"
       width="19.6"
       y="326.60001"
       x="188.60001" />
    <rect
       style="fill:#00a9ac"
       id="rect24"
       height="19.6"
       width="19.6"
       y="346.20001"
       x="188.60001" />
  </g>
</svg>
