<?xml version="1.0" encoding="UTF-8" standalone="no"?>
<svg
   xmlns:dc="http://purl.org/dc/elements/1.1/"
   xmlns:cc="http://creativecommons.org/ns#"
   xmlns:rdf="http://www.w3.org/1999/02/22-rdf-syntax-ns#"
   xmlns:svg="http://www.w3.org/2000/svg"
   xmlns="http://www.w3.org/2000/svg"
   height="443.34161"
   width="500"
   id="svg60"
   viewBox="117 134 500 443.34161"
   version="1.1">
  <metadata
     id="metadata66">
    <rdf:RDF>
      <cc:Work
         rdf:about="">
        <dc:format>image/svg+xml</dc:format>
        <dc:type
           rdf:resource="http://purl.org/dc/dcmitype/StillImage" />
        <dc:title></dc:title>
      </cc:Work>
    </rdf:RDF>
  </metadata>
  <defs
     id="defs64" />
  <style
     id="style2"
     type="text/css">
	.st0{fill:#7A7A7A;}
	.st1{fill:#4C5963;}
	.st2{fill:#FFFFFF;}
	.st3{fill:#00A9AC;}
	.st4{fill:#58C4C8;}
	.st5{fill:#C8E8E9;}
</style>
  <g
     transform="matrix(1.3785498,0,0,1.3785498,-46.633861,-51.552811)"
     id="g30">
    <path
       style="fill:#7a7a7a"
       id="path4"
       d="m 149.7,444.8 v -1.3 c 2.1,-0.2 2.7,-0.9 2.7,-3.3 v -12.6 c 0,-3.4 -0.8,-5.3 -2.9,-5.3 -1,0 -2,0.4 -3.2,1.4 -0.7,0.6 -1.5,1.5 -1.5,1.8 v 14.7 c 0,2.1 0.6,3 2.5,3.3 v 1.3 h -12.8 v -1.3 c 2,-0.2 2.6,-1 2.6,-3.3 v -13.3 c 0,-3.3 -0.8,-4.6 -3,-4.6 -1.3,0 -4.6,2.1 -4.6,3.4 v 14.4 c 0,2.1 0.6,3 2.5,3.3 v 1.3 h -13.2 v -1.3 c 2.4,-0.4 3,-1.2 3,-3.4 v -15.9 c 0,-2.6 -0.7,-3.2 -3.1,-3.5 v -1.3 h 10.6 v 4.1 h 0.2 c 2.1,-3.4 4.4,-4.8 8,-4.8 3.5,0 5.4,1.3 7.1,4.8 2.9,-3.5 5,-4.8 8.1,-4.8 4.5,0 7.5,2.9 7.5,7.9 v 13.7 c 0,2.4 0.6,3.2 2.8,3.3 v 1.3 z"
       class="st0" />
    <path
       style="fill:#7a7a7a"
       id="path6"
       d="m 187.4,438.6 c -3.3,5.3 -6.2,7 -11,7 -6.7,0 -11.3,-5.6 -11.3,-13.2 0,-8.2 4.6,-13.8 11.6,-13.8 3.2,0 5.5,1 7.1,2.8 2,2.3 3,5.8 3.3,9.8 h -13.9 c 0.3,5.3 1.2,10.3 6.6,10.3 2.4,0 4.1,-1.1 6.4,-3.8 z M 180.3,428 c 0,-2.9 0,-4 -0.5,-5.1 -0.8,-1.7 -1.4,-2.6 -3,-2.6 -2.5,0 -3.9,2.2 -3.9,8.8 h 7.4 z"
       class="st0" />
    <path
       style="fill:#7a7a7a"
       id="path8"
       d="m 207.5,426.7 c -0.8,-2.4 -1.4,-3.4 -2.6,-4.5 -1.2,-1.2 -2.7,-1.8 -4.1,-1.8 -2.1,0 -3.7,1.4 -3.7,3.2 0,1.9 1.5,3.3 5.3,4.9 5.5,2.3 7.6,4.7 7.6,8.6 0,5 -3.5,8.4 -8.5,8.4 -1.5,0 -4.4,-0.6 -6,-1.3 -0.6,-0.2 -1,-0.3 -1.3,-0.3 -0.5,0 -0.8,0.4 -1.4,1.5 h -1.4 v -9.1 h 1.5 c 1.2,4.8 3.7,7.3 7.6,7.3 2.5,0 4.1,-1.4 4.1,-3.6 0,-1.8 -1.5,-3.2 -5.3,-4.8 -5.6,-2.4 -7.9,-4.9 -7.9,-8.6 0,-4.6 3.6,-8.1 8.7,-8.1 1.3,0 2.5,0.2 4.3,0.8 0.9,0.3 1.4,0.4 1.7,0.4 0.7,0 1.1,-0.3 1.4,-1.1 h 1.2 v 8 h -1.2 z"
       class="st0" />
    <path
       style="fill:#7a7a7a"
       id="path10"
       d="m 230,426.7 c -0.8,-2.4 -1.4,-3.4 -2.6,-4.5 -1.2,-1.2 -2.7,-1.8 -4.1,-1.8 -2.1,0 -3.7,1.4 -3.7,3.2 0,1.9 1.5,3.3 5.3,4.9 5.5,2.3 7.6,4.7 7.6,8.6 0,5 -3.5,8.4 -8.5,8.4 -1.5,0 -4.4,-0.6 -6,-1.3 -0.6,-0.2 -1,-0.3 -1.3,-0.3 -0.5,0 -0.8,0.4 -1.4,1.5 h -1.4 v -9.1 h 1.5 c 1.2,4.8 3.7,7.3 7.6,7.3 2.5,0 4.1,-1.4 4.1,-3.6 0,-1.8 -1.5,-3.2 -5.3,-4.8 -5.6,-2.4 -7.9,-4.9 -7.9,-8.6 0,-4.6 3.6,-8.1 8.7,-8.1 1.3,0 2.5,0.2 4.3,0.8 0.9,0.3 1.4,0.4 1.7,0.4 0.7,0 1.1,-0.3 1.4,-1.1 h 1.2 v 8 H 230 Z"
       class="st0" />
    <path
       style="fill:#7a7a7a"
       id="path12"
       d="m 261.9,442.4 c -2.1,2.3 -3.8,3.2 -6.2,3.2 -2.7,0 -3.9,-1 -4.5,-3.8 -3,2.8 -5.6,3.8 -8.8,3.8 -3.5,0 -6.1,-1.8 -6.1,-5.9 0,-2.4 1.2,-4.5 3.7,-6.2 2.1,-1.4 4.7,-2.4 11.1,-4.2 v -3.8 c 0,-3.5 -1.2,-5.1 -4.5,-5.1 -2,0 -3.6,0.7 -3.6,2 0,0.3 0.1,0.7 0.6,1.3 0.7,0.9 1.1,1.5 1.1,2.3 0,1.9 -1.5,3.3 -3.8,3.3 -2.3,0 -3.6,-1.4 -3.6,-3.8 0,-4.4 4.3,-7 10.6,-7 6.7,0 10.8,2.7 10.8,7.4 v 14.4 c 0,0.9 0.4,1.5 1.2,1.5 0.3,0 0.4,-0.1 0.6,-0.2 l 0.6,-0.6 z m -10.8,-11.2 c -4.4,1.2 -6.7,3.5 -6.7,6.7 0,2.4 1.2,3.7 2.9,3.7 1.3,0 2.7,-0.5 3.9,-2.2 v -8.2 z"
       class="st0" />
    <path
       style="fill:#7a7a7a"
       id="path14"
       d="m 280.4,441.1 c 6,0 9.8,2.5 9.8,6.6 0,5.2 -5.2,8.5 -14.4,8.5 -7,0 -10.7,-1.8 -10.7,-5.1 0,-2.3 1.8,-3.6 5.3,-4.1 -3.5,-1.3 -4.5,-2.5 -4.5,-4.5 0,-3.3 2.2,-5.2 6.6,-6.5 -3.9,-1.1 -6.9,-4.2 -6.9,-8.4 0,-5.5 4.6,-8.9 11.2,-8.9 2.2,0 3.8,0.3 6.2,1.2 h 7.1 v 2.9 h -4.4 c 1.5,1.4 2.2,3.2 2.2,5.4 0,3.5 -1.7,5.9 -5.1,7.3 -1.8,0.8 -2,0.8 -7,0.8 -2.2,0 -3.8,1.1 -3.8,2.7 0,1.5 1.2,2 5.6,2 h 2.8 z m -8.6,6.6 c -1.5,1.3 -1.9,1.9 -1.9,3 0,2.4 2.5,3.7 7.4,3.7 5.5,0 8.5,-1.5 8.5,-3.6 0,-1.9 -1.3,-3.1 -4.9,-3.1 z m 4.9,-27.3 c -2.6,0 -3.6,1.8 -3.6,7.2 0,5.1 1,7.1 3.6,7.1 2.7,0 3.6,-2 3.6,-7.2 0.1,-5.1 -0.9,-7.1 -3.6,-7.1 z"
       class="st0" />
    <path
       style="fill:#7a7a7a"
       id="path16"
       d="m 313.8,438.6 c -3.3,5.3 -6.2,7 -11,7 -6.7,0 -11.3,-5.6 -11.3,-13.2 0,-8.2 4.6,-13.8 11.6,-13.8 3.2,0 5.5,1 7.1,2.8 2,2.3 3,5.8 3.3,9.8 h -13.9 c 0.3,5.3 1.2,10.3 6.6,10.3 2.4,0 4.1,-1.1 6.4,-3.8 z M 306.7,428 c 0,-2.9 0,-4 -0.5,-5.1 -0.8,-1.7 -1.4,-2.6 -3,-2.6 -2.5,0 -3.9,2.2 -3.9,8.8 h 7.4 z"
       class="st0" />
    <path
       style="fill:#7a7a7a"
       id="path18"
       d="m 320.4,419.3 c 0,-4.4 0.4,-7.7 2.2,-9.9 1.5,-1.8 3.9,-2.8 7.5,-2.8 4.7,0 7.9,2.3 7.9,5.5 0,2 -1.4,3.5 -3.4,3.5 -1.9,0 -3.3,-1.4 -3.3,-3.2 0,-1.9 1.2,-2.4 1.2,-3.2 0,-0.7 -0.6,-1.1 -1.6,-1.1 -2,0 -2.8,1.1 -2.8,4.4 v 6.6 h 4.8 v 2.4 h -4.8 v 17.1 c 0,3.6 0.7,4.5 4.5,4.6 v 1.3 h -15.4 v -1.3 c 2.5,-0.3 3.2,-1 3.2,-3.5 v -18.3 h -3.2 V 419 h 3.2 z"
       class="st0" />
    <path
       style="fill:#7a7a7a"
       id="path20"
       d="m 349,445.5 c -6.9,0 -12.4,-5.5 -12.4,-13.4 0,-8.1 5.4,-13.6 12.7,-13.6 7,0 12.3,5.6 12.3,13.5 -0.1,7.9 -5.5,13.5 -12.6,13.5 z m 0,-25.2 c -3.4,0 -4.4,2.9 -4.4,12.4 0,8 1.2,11.1 4.4,11.1 3.2,0 4.3,-2.9 4.3,-11.1 0,-9.5 -1,-12.4 -4.3,-12.4 z"
       class="st0" />
    <path
       style="fill:#7a7a7a"
       id="path22"
       d="m 375.8,423.8 c 2.6,-3.8 4.7,-5.2 7.5,-5.2 2.6,0 4.5,1.8 4.5,4.4 0,2.2 -1.4,3.8 -3.5,3.8 -1.4,0 -2.4,-0.6 -3.3,-2.1 -0.6,-1 -1.1,-1.3 -1.5,-1.3 -1.9,0 -3.4,2.5 -3.4,5.8 v 9.8 c 0,3.5 0.6,4.3 4,4.5 v 1.3 h -14.7 v -1.3 c 2.4,-0.4 3,-1.1 3,-3.3 v -16 c 0,-2.6 -0.7,-3.2 -3,-3.5 v -1.3 h 10.5 v 4.4 z"
       class="st0" />
    <path
       style="fill:#7a7a7a"
       id="path24"
       d="m 420.8,444.8 v -1.3 c 2.1,-0.2 2.7,-0.9 2.7,-3.3 v -12.6 c 0,-3.4 -0.8,-5.3 -2.9,-5.3 -1,0 -2,0.4 -3.2,1.4 -0.7,0.6 -1.5,1.5 -1.5,1.8 v 14.7 c 0,2.1 0.6,3 2.5,3.3 v 1.3 h -12.8 v -1.3 c 2,-0.2 2.6,-1 2.6,-3.3 v -13.3 c 0,-3.3 -0.8,-4.6 -3,-4.6 -1.3,0 -4.6,2.1 -4.6,3.4 v 14.4 c 0,2.1 0.6,3 2.5,3.3 v 1.3 h -13.2 v -1.3 c 2.4,-0.4 3,-1.2 3,-3.4 v -15.9 c 0,-2.6 -0.7,-3.2 -3.1,-3.5 v -1.3 h 10.6 v 4.1 h 0.2 c 2.1,-3.4 4.4,-4.8 8,-4.8 3.5,0 5.4,1.3 7.1,4.8 2.9,-3.5 5,-4.8 8.1,-4.8 4.5,0 7.5,2.9 7.5,7.9 v 13.7 c 0,2.4 0.6,3.2 2.8,3.3 v 1.3 z"
       class="st0" />
    <path
       style="fill:#7a7a7a"
       id="path26"
       d="m 463.3,442.4 c -2.1,2.3 -3.8,3.2 -6.2,3.2 -2.7,0 -3.9,-1 -4.5,-3.8 -3,2.8 -5.6,3.8 -8.8,3.8 -3.5,0 -6.1,-1.8 -6.1,-5.9 0,-2.4 1.2,-4.5 3.7,-6.2 2.1,-1.4 4.7,-2.4 11.1,-4.2 v -3.8 c 0,-3.5 -1.2,-5.1 -4.5,-5.1 -2,0 -3.6,0.7 -3.6,2 0,0.3 0.1,0.7 0.6,1.3 0.7,0.9 1.1,1.5 1.1,2.3 0,1.9 -1.5,3.3 -3.8,3.3 -2.3,0 -3.6,-1.4 -3.6,-3.8 0,-4.4 4.3,-7 10.6,-7 6.7,0 10.8,2.7 10.8,7.4 v 14.4 c 0,0.9 0.4,1.5 1.2,1.5 0.3,0 0.4,-0.1 0.6,-0.2 l 0.6,-0.6 z m -10.8,-11.2 c -4.4,1.2 -6.7,3.5 -6.7,6.7 0,2.4 1.2,3.7 2.9,3.7 1.3,0 2.7,-0.5 3.9,-2.2 v -8.2 z"
       class="st0" />
    <path
       style="fill:#7a7a7a"
       id="path28"
       d="m 481.4,439.2 c -2.3,4.5 -4.5,6.2 -8.2,6.2 -3.8,0 -6.2,-2.2 -6.2,-5.9 v -17.8 h -2.9 v -1.5 c 4,-2.7 6,-5.6 9.2,-10.3 h 1.4 v 9.3 h 5.3 v 2.4 h -5.3 v 16.5 c 0,2.2 0.6,3.3 2.2,3.3 1.2,0 2,-0.8 3.2,-2.9 z"
       class="st0" />
  </g>
  <g
     transform="matrix(1.3785498,0,0,1.3785498,-46.633861,-51.552811)"
     id="g58">
    <circle
       style="fill:#4c5963"
       id="circle32"
       r="118.2"
       cy="252.8"
       cx="300"
       class="st1" />
    <polygon
       style="fill:#ffffff"
       id="polygon34"
       points="266.3,294.9 231.3,294.9 266.3,207.2 301.4,242.3 336.4,207.2 371.5,294.9 336.4,294.9 318.9,259.8 301.4,277.3 283.8,259.8 "
       class="st2" />
    <g
       id="g56">
      <rect
         style="fill:#58c4c8"
         id="rect36"
         height="12.8"
         width="12.6"
         class="st4"
         y="207.2"
         x="253.7" />
      <rect
         style="fill:#c8e8e9"
         id="rect38"
         height="12.8"
         width="12.6"
         class="st5"
         y="219.7"
         x="253.7" />
      <rect
         style="fill:#00a9ac"
         id="rect40"
         height="12.6"
         width="12.8"
         class="st3"
         y="232.2"
         x="253.5" />
      <rect
         style="fill:#c8e8e9"
         id="rect42"
         height="12.8"
         width="12.6"
         class="st5"
         y="232.2"
         x="241.10001" />
      <rect
         style="fill:#58c4c8"
         id="rect44"
         height="12.8"
         width="12.6"
         class="st4"
         y="244.8"
         x="241.10001" />
      <rect
         style="fill:#00a9ac"
         id="rect46"
         height="12.5"
         width="12.8"
         class="st3"
         y="257.39999"
         x="253.5" />
      <rect
         style="fill:#c8e8e9"
         id="rect48"
         height="12.8"
         width="12.6"
         class="st5"
         y="257.39999"
         x="241.10001" />
      <rect
         style="fill:#58c4c8"
         id="rect50"
         height="12.6"
         width="12.8"
         class="st4"
         y="269.89999"
         x="240.89999" />
      <rect
         style="fill:#c8e8e9"
         id="rect52"
         height="12.8"
         width="12.6"
         class="st5"
         y="269.89999"
         x="228.5" />
      <rect
         style="fill:#00a9ac"
         id="rect54"
         height="12.5"
         width="12.6"
         class="st3"
         y="282.5"
         x="228.5" />
    </g>
  </g>
</svg>
