<?xml version="1.0" encoding="UTF-8" ?>
<!DOCTYPE svg PUBLIC "-//W3C//DTD SVG 1.1//EN" "http://www.w3.org/Graphics/SVG/1.1/DTD/svg11.dtd">
<svg width="256pt" height="256pt" viewBox="0 0 256 256" version="1.1" xmlns="http://www.w3.org/2000/svg">
<path fill="#ffffff" d=" M 0.00 0.00 L 256.00 0.00 L 256.00 256.00 L 0.00 256.00 L 0.00 0.00 Z" />
<path fill="#000000" d=" M 10.58 20.15 C 17.88 20.19 25.18 20.15 32.48 20.18 C 32.46 68.88 32.46 117.57 32.48 166.27 C 61.49 166.23 90.49 166.30 119.49 166.24 C 119.51 172.38 119.50 178.52 119.50 184.66 C 83.19 184.63 46.87 184.65 10.56 184.65 C 10.58 129.82 10.55 74.99 10.58 20.15 Z" />
<path fill="#000000" d=" M 179.37 63.19 C 194.48 61.52 210.63 64.63 222.75 74.22 C 235.38 83.87 242.29 99.38 243.94 114.92 C 245.90 132.11 243.34 150.65 233.17 165.04 C 224.48 177.46 210.04 185.40 194.99 186.66 C 179.31 188.51 162.37 185.40 149.91 175.20 C 137.91 165.76 131.41 150.85 129.61 135.96 C 127.75 119.27 129.87 101.41 139.07 87.02 C 147.76 73.28 163.26 64.49 179.37 63.19 Z" />
<path fill="#ffffff" d=" M 182.43 80.32 C 192.76 79.12 203.70 82.36 211.08 89.82 C 218.65 97.13 222.41 107.56 223.49 117.85 C 224.42 128.93 223.54 140.57 218.33 150.58 C 213.58 160.36 204.04 167.64 193.31 169.50 C 183.55 171.38 172.99 168.93 165.15 162.80 C 157.40 156.87 152.82 147.63 150.90 138.21 C 148.60 125.75 149.24 112.34 154.72 100.76 C 159.62 89.76 170.37 81.52 182.43 80.32 Z" />
<path fill="#3492ff" d=" M 10.53 210.16 C 89.05 210.16 167.58 210.15 246.10 210.16 C 246.14 218.74 246.14 227.32 246.10 235.90 C 167.57 235.90 89.05 235.91 10.52 235.89 C 10.49 227.31 10.47 218.73 10.53 210.16 Z" />
</svg>
